<svg width="45" height="45" fill="none" xmlns="http://www.w3.org/2000/svg"><path d="M22.431 24.157a1.612 1.612 0 0 0 1.15-.483c.017 0 .017 0 .017-.016h.016a1.662 1.662 0 1 0-1.183.5Z" fill="#0D4CD3"/><path d="M9.569 40.902c18.36 12.663 41.937-6.198 33.756-26.875C38.61 1.148 21.332-3.967 10.385 3.381-3.11 11.678-3.527 32.07 9.57 40.902Zm11.196-23.11V9.346a1.666 1.666 0 1 1 3.333 0v8.448a5.016 5.016 0 0 1 3.332 4.698 5.215 5.215 0 0 1-.5 2.15l4.415 4.415a1.648 1.648 0 0 1 0 2.366c-.31.307-.73.48-1.166.483a1.707 1.707 0 0 1-1.183-.483l-4.432-4.432a4.838 4.838 0 0 1-2.133.5 4.99 4.99 0 0 1-1.666-9.697Z" fill="#0D4CD3"/></svg>