<svg width="45" height="45" fill="none" xmlns="http://www.w3.org/2000/svg"><path d="M30.997 1.288a.772.772 0 0 1 .56.236m-.56-.236-.093 7.019h2.034l-1.15-1.008V2.097a.822.822 0 0 0-.06-.31m-.73-.499h-2.652m2.651 0h-2.65m3.21.236L31 2.07l.557-.545Zm0 0a.807.807 0 0 1 .172.263m0 0L31 2.081l.729-.294Zm-8.866.314v-.004h2.995L24.301.732l-.123-.05-1.315 1.42Zm0 0v.878h4m-4-.878h2.999l1.001.878m0 0 .774-.882.002-.002.012-.014.003-.003.003-.004.69-.786M26.862 2.98l1.483-1.69M17.212 12.306V9.11L22.5 4.472l1.726 1.514 3.562 3.125v11.506a.348.348 0 0 1-.09.24l2.86 2.796-2.86-2.796a.158.158 0 0 1-.106.054H17.407c-.022 0-.062-.009-.105-.054a.348.348 0 0 1-.09-.24v-8.31Zm17.614-.237-.706-.975.706.975Zm-.726-1.002-.023-.032.023.032Z" stroke="#0D4CD3" stroke-width="8"/><path d="M44.776 33.831a2.44 2.44 0 0 0-1.218-1.193 2.505 2.505 0 0 0-1.717-.118l-9.4 2.727a4.64 4.64 0 0 1-1.895 2.467 4.78 4.78 0 0 1-3.054.747l-7.47-.741a1.014 1.014 0 0 1-.677-.353.974.974 0 0 1-.223-.72.967.967 0 0 1 .363-.664 1.005 1.005 0 0 1 .736-.215l7.46.733c3.067.311 4.134-3.912 1.34-5.104l-10.825-4.53a8.385 8.385 0 0 0-6.524.741L0 34.214l4.598 7.815 19.105 2.852a11.069 11.069 0 0 0 6.623-1.077l13.35-6.825a2.43 2.43 0 0 0 1.19-1.358 2.374 2.374 0 0 0-.09-1.79Z" fill="#0D4CD3"/></svg>