<svg width="41" height="45" fill="none" xmlns="http://www.w3.org/2000/svg"><path d="M39.495 6.775a.811.811 0 0 0-.707-.644A44.827 44.827 0 0 1 26.6 3.08c-9.706-4.106-3.294-4.107-13.015 0a44.628 44.628 0 0 1-12.18 3.051.794.794 0 0 0-.707.636c-.78 3.88-2.612 17.39 6.363 28.621a32.792 32.792 0 0 0 12.718 9.549.805.805 0 0 0 .627 0 32.828 32.828 0 0 0 9.93-6.522c10.979-9.792 10.482-26.783 9.159-31.64ZM28.858 26.548A10.491 10.491 0 0 1 12.7 28.255c-6.205-6.207-2.325-17.017 6.371-17.824 8.597-.936 14.56 8.906 9.786 16.117Z" fill="#0D4CD3"/><path d="M26.343 14.585a8.887 8.887 0 0 0-13.65 1.409c-5.558 9.03 5.938 18.425 13.65 11.118a8.92 8.92 0 0 0 0-12.527Zm-.86 3.615-6.427 6.44a.815.815 0 0 1-1.141 0l-3.214-3.22a.807.807 0 0 1 1.141-1.143l2.643 2.656 5.858-5.877a.807.807 0 0 1 1.14 1.144Z" fill="#0D4CD3"/></svg>