<svg width="46" height="45" fill="none" xmlns="http://www.w3.org/2000/svg"><path d="M36.965 10.15a3.215 3.215 0 0 0-6.429 0 3.215 3.215 0 0 0 6.43 0Z" fill="#0D4CD3"/><path d="M30.737 13.91c-3.518-2.728-1.501-8.634 3.014-8.582 4.515-.05 6.532 5.854 3.013 8.583a8.91 8.91 0 0 1 5.192 5.038A11.234 11.234 0 0 0 33.75.024c-9.805-.028-14.894 11.884-8.213 18.925a8.945 8.945 0 0 1 5.2-5.038Z" fill="#0D4CD3"/><path d="M26.824 20.13a11.325 11.325 0 0 0 13.846 0 7.242 7.242 0 0 0-13.846 0Z" fill="#0D4CD3"/><path d="M44.975 37.793c-.086-2.291.442-5.897-1.013-7.08-.844-.885-2.186-1.278-4.187-1.238a18.477 18.477 0 0 1-4.799-.756c-1.728-.506-3.52-1.028-5.111.265-1.51 1.198-3.082 2.327-4.59 3.52a.898.898 0 0 1-1.109.09 28.656 28.656 0 0 1-6.743-5 27.954 27.954 0 0 1-4.807-6.43c-.474-.666-.402-1.028-.12-1.406 1.207-1.518 2.329-3.085 3.528-4.597 1.302-1.6.78-3.391.273-5.12a18.305 18.305 0 0 1-.755-4.765c.033-4.202-1.584-5.547-5.86-5.232C7.06.25 2.753-.641.947 1.194A3.807 3.807 0 0 0 .022 3.82c-.63 16.891 12.498 34.346 28.934 39.324a37.068 37.068 0 0 0 12.25 1.849c4.315-.102 3.781-4.173 3.769-7.201Z" fill="#0D4CD3"/></svg>