<svg width="51" height="45" fill="none" xmlns="http://www.w3.org/2000/svg"><path d="M3.6 7.2h37.8V3.6A3.6 3.6 0 0 0 37.8 0H3.6A3.599 3.599 0 0 0 0 3.6v1.062A2.707 2.707 0 0 1 3.6 7.2Zm45 14.4h-9a3.599 3.599 0 0 0-3.6 3.6v3.6a3.599 3.599 0 0 0 3.6 3.6h9a1.805 1.805 0 0 0 1.8-1.8v-7.2a1.806 1.806 0 0 0-1.8-1.8Zm-8.1 6.3a.9.9 0 0 1 0-1.8.9.9 0 0 1 0 1.8Z" fill="#0D4CD3"/><path d="M34.2 28.8v-3.6a5.404 5.404 0 0 1 5.4-5.4h9v-7.2A3.599 3.599 0 0 0 45 9H3.6a1.805 1.805 0 0 1-1.8-1.8.9.9 0 0 0-1.8 0v34.2A3.599 3.599 0 0 0 3.6 45H45a3.599 3.599 0 0 0 3.6-3.6v-7.2h-9a5.404 5.404 0 0 1-5.4-5.4Z" fill="#0D4CD3"/></svg>