<svg width="102" height="75" fill="none" xmlns="http://www.w3.org/2000/svg"><path d="M47.332 64.207v3.529c0 1.382-6.069 2.504-13.555 2.504-7.485 0-13.554-1.122-13.554-2.504v-3.53c0-.708 1.594-1.349 4.155-1.804 2.437.434 5.75.701 9.4.701 3.65 0 6.963-.267 9.4-.701 2.56.455 4.154 1.096 4.154 1.805Z" fill="#215EAB"/><path d="M47.332 64.207c0 1.382-6.069 2.504-13.555 2.504-7.485 0-13.554-1.122-13.554-2.504 0-.709 1.594-1.35 4.155-1.805 2.437-.434 5.75-.701 9.4-.701 3.65 0 6.963.267 9.4.701 2.56.456 4.154 1.096 4.154 1.805Z" fill="#215EAB"/><path d="M44.899 61.89v2.025c0 1.11-4.873 2.011-10.885 2.011-6.011 0-10.884-.9-10.884-2.01V61.89c0 1.11 4.873 2.011 10.884 2.011 6.012 0 10.885-.9 10.885-2.011Z" fill="#215EAB"/><path d="M34.014 63.902c6.012 0 10.885-.9 10.885-2.011 0-1.11-4.873-2.011-10.885-2.011-6.011 0-10.884.9-10.884 2.01 0 1.112 4.873 2.012 10.884 2.012Z" fill="#215EAB"/><path d="M32.734 2.162h1.612V61.43a.484.484 0 0 1-.483.483h-.645a.484.484 0 0 1-.484-.483V2.162Z" fill="#215EAB"/><path d="M8.614 8.914s-.325-.257-1.008-.246c-.683.01-.828 1.12 0 1.355.829.235 3.74-.661 4.614-1.042.873-.38 6.546-2.07 9.193-2.687 3.46-.807 9.506-1.177 11.455-1.042l.403-3.09s-4.4.066-7.693.772c-3.292.705-10.01 3.493-10.01 3.493l-5.325 2.234s-.666.308-1.08.33c-.415.023-.55-.077-.55-.077Zm49.852 0s.325-.257 1.008-.246c.683.01.829 1.12 0 1.355-.829.235-3.74-.661-4.614-1.042-.873-.38-6.546-2.07-9.193-2.687-3.46-.807-9.506-1.177-11.455-1.042l-.403-3.09s4.4.066 7.693.772c3.292.705 10.01 3.493 10.01 3.493l5.325 2.234s.666.308 1.08.33c.415.023.55-.077.55-.077Z" fill="#215EAB"/><path d="M33.54 3.092c.965 0 1.747-.316 1.747-.706 0-.39-.782-.705-1.747-.705-.965 0-1.747.316-1.747.705 0 .39.782.706 1.747.706Z" fill="#215EAB"/><path d="M33.54 2.554c.488 0 .884-.572.884-1.277S34.028 0 33.54 0c-.489 0-.885.572-.885 1.277s.396 1.277.885 1.277ZM17.685 37.525c-1.123-1.091-4.21-1.897-7.919-1.988 4.077.087 7.362.921 7.919 1.988Zm.455.91c0 1.606-4.06 2.906-9.07 2.906-5.01 0-9.07-1.301-9.07-2.906 0-.319.16-.625.454-.91a.677.677 0 0 0-.085.323c0 1.281 3.895 2.318 8.7 2.318 4.806 0 8.701-1.038 8.701-2.318a.677.677 0 0 0-.084-.322c.294.284.454.59.454.909ZM9.204 8.588h-.269v26.95h.268V8.588Z" fill="#215EAB"/><path d="M17.825 37.887 9.07 10.61.58 37.565l-.256-.08L9.068 9.723l9.013 28.08-.256.083Zm48.801-.362c-1.123-1.091-4.209-1.897-7.919-1.988 4.077.087 7.363.921 7.92 1.988Zm.455.91c0 1.606-4.06 2.906-9.07 2.906-5.01 0-9.07-1.301-9.07-2.906 0-.319.16-.625.454-.91a.676.676 0 0 0-.084.323c0 1.281 3.895 2.318 8.7 2.318s8.7-1.038 8.7-2.318a.677.677 0 0 0-.084-.322c.294.284.454.59.454.909ZM58.145 8.588h-.268v26.95h.268V8.588Z" fill="#215EAB"/><path d="M66.766 37.887 58.012 10.61l-8.49 26.955-.256-.08L58.01 9.723l9.013 28.08-.256.083ZM33.54 6.003c1.045 0 1.893-.206 1.893-.46 0-.253-.848-.459-1.893-.459-1.046 0-1.893.206-1.893.46 0 .253.847.46 1.893.46Zm0 1.567c1.045 0 1.893-.205 1.893-.459s-.848-.46-1.893-.46c-1.046 0-1.893.206-1.893.46s.847.46 1.893.46Zm0 1.568c1.045 0 1.893-.205 1.893-.459s-.848-.46-1.893-.46c-1.046 0-1.893.206-1.893.46s.847.46 1.893.46Z" fill="#215EAB"/><path d="M72.142 63.627v6.228c0 2.439-10.709 4.42-23.92 4.42-13.21 0-23.92-1.981-23.92-4.42v-6.228c0-1.251 2.811-2.382 7.332-3.185 4.301.766 10.147 1.237 16.588 1.237 6.441 0 12.289-.471 16.59-1.237 4.519.804 7.33 1.934 7.33 3.185Z" fill="#072E52"/><path d="M72.142 63.627c0 2.439-10.709 4.42-23.92 4.42-13.21 0-23.92-1.981-23.92-4.42 0-1.251 2.811-2.382 7.332-3.185 4.301-.766 10.147-1.237 16.588-1.237 6.441 0 12.289.471 16.59 1.237 4.519.804 7.33 1.934 7.33 3.185Z" fill="#4A7CBB"/><path d="M67.849 59.54v3.572c0 1.96-8.6 3.55-19.209 3.55-10.61 0-19.208-1.59-19.208-3.55V59.54c0 1.96 8.599 3.55 19.208 3.55 10.61 0 19.209-1.59 19.209-3.55Z" fill="#072E52"/><path d="M48.64 63.09c10.609 0 19.209-1.59 19.209-3.55 0-1.96-8.6-3.548-19.209-3.548-10.608 0-19.208 1.589-19.208 3.549s8.6 3.548 19.208 3.548Z" fill="#4A7CBB"/><path d="m68.996 55.552-2.038 4.68c-.395.905-4.692-.091-9.6-2.229-4.907-2.137-8.565-4.605-8.171-5.511l2.038-4.68c-.395.907 3.263 3.375 8.17 5.512 4.908 2.137 9.206 3.135 9.6 2.228Z" fill="#072E52"/><path d="M60.827 50.04c4.907 2.137 8.564 4.605 8.17 5.512-.395.906-4.693-.09-9.6-2.228-4.908-2.137-8.566-4.605-8.172-5.511.395-.907 4.694.09 9.601 2.227h.001Z" fill="url(#a)"/><path d="M68.6 55.297c-.197.067-.951.095-2.79-.39-1.71-.452-3.863-1.213-6.06-2.142a55.789 55.789 0 0 1-3.404-1.569 35.974 35.974 0 0 1-2.353-1.287c-1.629-.98-2.135-1.54-2.222-1.727l5.463-12.915.772-1.824c.941 1.168 4.033 3.061 7.904 4.746 3.86 1.68 7.342 2.656 8.845 2.554l-6.154 14.553-.001.001Z" fill="#072E52"/><path d="m77.798 35.343-2.038 4.68c-.395.905-4.693-.091-9.6-2.229-4.907-2.137-8.566-4.605-8.171-5.511l2.038-4.68c-.395.907 3.263 3.375 8.17 5.512 4.907 2.137 9.206 3.134 9.6 2.228Z" fill="#072E52"/><path d="M69.629 29.83c4.906 2.138 8.564 4.606 8.169 5.513-.395.906-4.693-.09-9.6-2.228-4.907-2.137-8.565-4.606-8.171-5.512.395-.907 4.694.09 9.6 2.228h.002Z" fill="url(#b)"/><path d="m76.864 33.131-.578 1.327c-.317.728-3.769-.073-7.71-1.79-3.94-1.716-6.877-3.697-6.56-4.425l.578-1.327c-.317.728 2.62 2.71 6.56 4.425 3.942 1.717 7.393 2.518 7.71 1.79Z" fill="#072E52"/><path d="M76.86 33.122c.317-.729-2.62-2.71-6.56-4.426-3.941-1.716-7.393-2.517-7.71-1.788-.317.728 2.62 2.71 6.56 4.425 3.942 1.716 7.393 2.517 7.71 1.789Z" fill="url(#c)"/><path d="m62.169 38.582-5.823 12.615a35.925 35.925 0 0 1-2.353-1.288c-1.629-.98-2.135-1.54-2.222-1.727l5.463-12.914c.603.673 2.057 2.016 4.934 3.314Z" fill="url(#d)"/><path d="M101.548 62.92a1.604 1.604 0 0 1-.104.182c-.661 1.063-1.822.797-1.822.797l-2.486-1.226-.771-.38-.36-.177-.763-.377-27.034-13.333s-.002-.286.126-.744c.01-.031.018-.065.028-.097.159-.515.891-.916.891-.916l27.473 12.883.923.433.286.133.934.439 1.17.549s2.146.56 1.509 1.834Z" fill="url(#e)"/><path d="M101.444 63.102c-.661 1.063-1.822.797-1.822.797L68.207 48.405s-.002-.286.126-.744l31.458 15.51s.87.284 1.653-.07Z" fill="#072E52"/><path d="M97.649 59.965c-.761.423-1.335 1.465-1.645 2.15l-.762-.376c.435-1.295 1.03-1.913 1.484-2.208l.923.434Zm1.221.571c-.795.36-1.399 1.416-1.734 2.137l-.77-.38c.47-1.347 1.113-1.938 1.569-2.195l.934.438Z" fill="#072E52"/><defs><linearGradient id="a" x1="60.111" y1="47.477" x2="60.111" y2="55.887" gradientUnits="userSpaceOnUse"><stop stop-color="#4A7CBB"/><stop offset="1" stop-color="#2AB392"/></linearGradient><linearGradient id="b" x1="68.912" y1="27.268" x2="68.912" y2="35.678" gradientUnits="userSpaceOnUse"><stop stop-color="#4A7CBB"/><stop offset="1" stop-color="#2AB392"/></linearGradient><linearGradient id="c" x1="62.59" y1="26.908" x2="76.86" y2="33.122" gradientUnits="userSpaceOnUse"><stop stop-color="#4A7CBB"/><stop offset="1" stop-color="#2AB392"/></linearGradient><linearGradient id="d" x1="56.97" y1="35.268" x2="56.97" y2="51.197" gradientUnits="userSpaceOnUse"><stop stop-color="#4A7CBB"/><stop offset="1" stop-color="#2AB392"/></linearGradient><linearGradient id="e" x1="84.937" y1="46.649" x2="84.937" y2="63.929" gradientUnits="userSpaceOnUse"><stop stop-color="#4A7CBB"/><stop offset="1" stop-color="#2AB392"/></linearGradient></defs></svg>