<svg width="1158" height="1101" viewBox="0 0 1158 1101" fill="none" xmlns="http://www.w3.org/2000/svg">
<g filter="url(#filter0_f_1903_121)">
<ellipse cx="315.172" cy="550.46" rx="152.172" ry="152.712" fill="#27AE60" fill-opacity="0.3"/>
</g>
<g filter="url(#filter1_f_1903_121)">
<circle cx="625.452" cy="387.496" r="180.772" fill="#278EAE" fill-opacity="0.3"/>
</g>
<g filter="url(#filter2_f_1903_121)">
<circle cx="760.896" cy="703.172" r="192.104" fill="#2745AE" fill-opacity="0.3"/>
</g>
<path d="M721.359 618.534C635.877 512.822 433.504 506.913 373.998 590.759C341.21 636.957 354.912 706.017 361.671 740.091C374.112 802.796 404.788 843.164 411.487 851.728C427.741 872.505 467.221 922.973 526.621 934.51C628.118 954.222 754.761 853.859 761.778 740.628C765.822 675.348 728.75 627.674 721.359 618.534Z" fill="#F4F7FA" fill-opacity="0.2"/>
<path opacity="0.6" d="M629.622 784.584C659.668 769.385 670.436 728.03 659.401 714.551C653.662 707.54 644.398 710.971 639.454 702.887C633.977 693.931 642.64 685.292 645.163 663.551C646.468 652.318 648.832 631.949 638.253 622.823C627.762 613.772 615.002 624.803 603.176 615.688C591.994 607.07 599.153 593.934 586.316 578.506C585.122 577.07 571.491 561.086 557.918 564.258C544.129 567.481 535.268 589.337 539.517 604.77C543.378 618.792 556.925 623.39 554.82 630.889C552.5 639.152 535.29 636.273 532.091 644.534C527.468 656.472 560.056 671.193 557.518 690.871C556.027 702.441 544.088 702.538 539.046 716.613C532.538 734.779 544.432 756.921 556.009 768.94C572.785 786.356 603.579 797.758 629.621 784.584H629.622Z" fill="#215EAB"/>
<mask id="mask0_1903_121" style="mask-type:luminance" maskUnits="userSpaceOnUse" x="531" y="563" width="133" height="228">
<path d="M629.622 784.584C659.668 769.385 670.436 728.03 659.401 714.551C653.662 707.54 644.398 710.971 639.454 702.887C633.977 693.931 642.64 685.292 645.163 663.551C646.468 652.318 648.832 631.949 638.253 622.823C627.762 613.772 615.002 624.803 603.176 615.688C591.994 607.07 599.153 593.934 586.316 578.506C585.122 577.07 571.491 561.086 557.918 564.258C544.129 567.481 535.268 589.337 539.517 604.77C543.378 618.792 556.925 623.39 554.82 630.889C552.5 639.152 535.29 636.273 532.091 644.534C527.468 656.472 560.056 671.193 557.518 690.871C556.027 702.441 544.088 702.538 539.046 716.613C532.538 734.779 544.432 756.921 556.009 768.94C572.785 786.356 603.579 797.758 629.621 784.584H629.622Z" fill="white"/>
</mask>
<g mask="url(#mask0_1903_121)">
<g style="mix-blend-mode:soft-light" opacity="0.7">
<path d="M612.855 800.529L613.918 800.434C610.246 759.272 604.476 720.682 596.766 685.736C590.596 657.773 583.178 632.066 574.719 609.331C560.302 570.586 547.668 553.668 547.541 553.501L546.69 554.144C546.815 554.31 559.378 571.147 573.745 609.775C587.005 645.43 604.554 707.465 612.855 800.529Z" fill="white"/>
<path d="M575.97 613.094C587.035 581.92 580.793 554.008 580.73 553.729L579.689 553.97C579.753 554.246 585.921 581.869 574.964 612.738L575.97 613.094Z" fill="white"/>
<path d="M597.972 690.724C619.993 662.2 628.55 640.819 631.85 627.905C635.446 613.839 633.815 606.633 633.745 606.333L632.706 606.578C632.723 606.65 634.345 613.905 630.787 627.755C627.499 640.553 618.989 661.753 597.126 690.071L597.972 690.723V690.724Z" fill="white"/>
<path d="M609.984 765.579C658.705 725.641 666.197 689.259 666.267 688.895L665.219 688.693C665.202 688.784 663.231 698.209 655.017 712.567C647.784 725.209 633.981 744.526 609.307 764.752L609.984 765.577V765.579Z" fill="white"/>
<path d="M584.076 677.982C587.57 679.18 591.191 680.209 594.929 681.024L595.157 679.981C570.728 674.652 551.342 660.102 539.381 648.835C526.415 636.621 519.15 625.539 519.078 625.429L518.184 626.011C518.256 626.122 525.591 637.311 538.649 649.611C548.88 659.25 564.508 671.273 584.076 677.981V677.982Z" fill="white"/>
<path d="M601.816 750.112C603.703 750.758 605.638 751.348 607.626 751.873L607.899 750.842C582.699 744.171 565.685 727.088 555.848 713.929C545.182 699.661 540.429 686.827 540.382 686.698L539.379 687.065C539.427 687.195 544.233 700.177 554.992 714.568C564.156 726.825 579.493 742.459 601.814 750.11L601.816 750.112Z" fill="white"/>
</g>
</g>
<path d="M636.112 843.103C602.462 826.465 590.039 780.474 602.204 765.334C608.531 757.461 618.893 761.19 624.321 752.129C630.337 742.09 620.591 732.547 617.556 708.337C615.987 695.829 613.145 673.146 624.845 662.864C636.448 652.669 650.786 664.834 663.876 654.555C676.254 644.834 668.139 630.263 682.292 612.933C683.608 611.321 698.641 593.363 713.804 596.761C729.21 600.214 739.31 624.489 734.728 641.736C730.567 657.406 715.511 662.671 717.934 671.008C720.603 680.196 739.761 676.812 743.41 685.987C748.684 699.249 712.506 715.992 715.536 737.901C717.318 750.785 733.809 751.855 731.364 768.343C727.422 794.919 722.119 801.29 709.337 814.805C690.812 834.392 665.277 857.524 636.109 843.103H636.112Z" fill="#92AFF2"/>
<mask id="mask1_1903_121" style="mask-type:luminance" maskUnits="userSpaceOnUse" x="597" y="596" width="147" height="252">
<path d="M636.112 843.103C602.462 826.465 590.039 780.474 602.204 765.334C608.531 757.461 618.893 761.19 624.321 752.129C630.337 742.09 620.591 732.547 617.556 708.337C615.987 695.829 613.145 673.146 624.845 662.864C636.448 652.669 650.786 664.834 663.876 654.555C676.254 644.834 668.139 630.263 682.292 612.933C683.608 611.321 698.641 593.363 713.804 596.761C729.21 600.214 739.31 624.489 734.728 641.736C730.567 657.406 715.511 662.671 717.934 671.008C720.603 680.196 739.761 676.812 743.41 685.987C748.684 699.249 712.506 715.992 715.536 737.901C717.318 750.785 733.809 751.855 731.364 768.343C727.422 794.919 722.119 801.29 709.337 814.805C690.812 834.392 665.277 857.524 636.109 843.103H636.112Z" fill="white"/>
</mask>
<g mask="url(#mask1_1903_121)">
<g style="mix-blend-mode:soft-light" opacity="0.7">
<path d="M654.966 860.707L653.78 860.612C657.455 814.687 663.495 771.611 671.735 732.576C678.329 701.341 686.335 672.608 695.536 647.178C711.214 603.84 725.126 584.851 725.265 584.665L726.22 585.374C726.083 585.561 712.247 604.458 696.625 647.664C682.205 687.544 663.274 756.879 654.966 860.709V860.707Z" fill="white"/>
<path d="M694.18 651.385C681.527 616.747 688.202 585.567 688.271 585.255L689.433 585.512C689.365 585.819 682.77 616.676 695.298 650.975L694.18 651.384V651.385Z" fill="white"/>
<path d="M670.44 738.148C645.602 706.574 635.845 682.826 632.034 668.464C627.883 652.819 629.628 644.771 629.703 644.435L630.863 644.697C630.844 644.778 629.11 652.881 633.218 668.285C637.014 682.519 646.716 706.066 671.374 737.411L670.439 738.147L670.44 738.148Z" fill="white"/>
<path d="M657.811 821.716C603.092 777.691 594.37 737.209 594.288 736.805L595.453 736.568C595.474 736.669 597.766 747.156 607.07 763.079C615.262 777.099 630.845 798.492 658.555 820.789L657.809 821.715L657.811 821.716Z" fill="white"/>
<path d="M685.803 723.803C681.919 725.173 677.895 726.357 673.735 727.304L673.471 726.144C700.65 719.956 722.114 703.539 735.332 690.858C749.661 677.11 757.647 664.683 757.725 664.559L758.729 665.198C758.65 665.324 750.587 677.871 736.156 691.716C724.848 702.565 707.549 716.127 685.803 723.804V723.803Z" fill="white"/>
<path d="M666.761 804.393C664.665 805.133 662.513 805.81 660.303 806.416L659.988 805.268C688.013 797.577 706.806 778.359 717.638 763.592C729.382 747.577 734.551 733.221 734.601 733.078L735.722 733.476C735.67 733.621 730.444 748.143 718.597 764.296C708.507 778.053 691.568 795.636 666.762 804.394L666.761 804.393Z" fill="white"/>
</g>
</g>
<mask id="mask2_1903_121" style="mask-type:luminance" maskUnits="userSpaceOnUse" x="446" y="619" width="313" height="311">
<path d="M582.54 619.509L446.065 781.005L621.539 929.291L758.014 767.795L582.54 619.509Z" fill="white"/>
</mask>
<g mask="url(#mask2_1903_121)">
<path d="M553.929 640.715C552.73 643.302 551.334 645.788 549.784 648.128C544.897 655.511 538.961 662.913 532.82 669.364C531.982 670.246 531.121 671.098 530.245 671.93C531.767 672.925 533.201 674.049 534.523 675.263C539.265 679.616 542.073 687.168 542.073 693.492C542.207 697.041 541.467 700.351 539.853 703.424C538.937 706.239 537.448 708.719 535.389 710.866C533.194 714.106 531.167 717.457 528.975 720.704C524.945 726.673 520.402 732.405 515.385 737.584C507.904 745.306 499.327 751.832 491.077 758.688C487.861 761.883 484.069 764.093 479.702 765.318C477.418 765.626 475.133 765.932 472.848 766.239C466.69 766.514 460.871 763.847 456.192 760.04C452.482 763.418 448.226 766.439 443.652 768.621C509.4 810.213 595.859 826.517 631.579 904.775C667.117 861.381 702.656 817.988 738.195 774.594C703.133 697.781 619.191 680.654 553.929 640.718V640.715Z" fill="url(#paint0_linear_1903_121)"/>
<path d="M633.287 882.916C579.492 788.689 444.992 793.006 391.196 698.778C421.443 661.845 451.691 624.912 481.937 587.979C535.733 682.207 670.233 677.89 724.028 772.118C693.782 809.051 663.534 845.983 633.287 882.916Z" fill="white"/>
<path d="M738.195 774.592C730.605 783.859 723.014 793.127 715.425 802.394C713.275 800.217 711.254 797.457 709.467 794.183C708.995 793.317 708.548 792.43 708.13 791.532C701.95 778.254 701.764 762.007 709.643 750.962C710.008 750.445 710.324 750.024 710.724 749.536C713.118 746.613 716.054 744.241 718.792 743.084C726.252 752.375 732.801 762.776 738.193 774.592H738.195Z" fill="url(#paint1_linear_1903_121)"/>
<path d="M654.878 876.323C647.112 885.806 639.346 895.29 631.579 904.772C626.215 893.02 619.706 882.665 612.295 873.412C613.715 869.307 615.37 865.966 617.866 862.919C618.145 862.58 618.452 862.218 618.748 861.896C618.785 861.857 618.819 861.815 618.853 861.779C623.346 856.855 629.046 854.304 634.638 854.367C640.255 854.435 645.738 857.169 649.7 862.876C650.229 863.639 650.742 864.444 651.214 865.31C653 868.585 654.213 872.329 654.877 876.323H654.878Z" fill="url(#paint2_linear_1903_121)"/>
<path d="M602.468 757.78C585.449 778.56 552.02 784.859 526.793 773.081C501.566 761.303 495.852 733.761 513.022 712.795C530.041 692.015 563.47 685.715 588.697 697.493C613.925 709.271 619.638 736.814 602.468 757.78Z" fill="url(#paint3_linear_1903_121)"/>
<g style="mix-blend-mode:multiply" opacity="0.2">
<path d="M631.925 904.349C631.81 904.49 631.694 904.632 631.579 904.772C580.847 793.624 427.764 807.451 377.033 696.304C411.82 653.827 446.608 611.351 481.393 568.875C482.08 575.022 482.504 581.66 482.424 588.822C482.327 597.093 481.561 606.06 479.681 615.863C477.593 626.749 474.133 638.664 468.633 651.877C441.364 717.153 464.737 735.737 504.097 746.802C514.531 749.844 526.014 752.457 537.691 755.635C542.826 757.036 548.001 758.605 553.142 760.353C563.206 763.787 573.137 767.931 582.369 772.951C613.93 789.359 635.388 818.353 634.639 854.367C634.584 860.965 633.845 867.697 632.42 874.447C632.049 876.206 631.771 878.053 631.576 879.992C630.857 887.006 631.199 895.153 631.926 904.347L631.925 904.349Z" fill="url(#paint4_linear_1903_121)"/>
</g>
</g>
<path d="M517.588 805.782L514.357 808.393L502.647 817.854C499.017 810.467 492.474 808.691 488.47 808.333C486.431 808.154 485.047 808.339 485.047 808.339L469.071 783.656L412.867 696.828C411.26 694.346 410.481 691.44 410.525 688.484L410.872 665.619C410.88 665.089 411.167 664.623 411.669 664.46C412.174 664.297 412.695 664.473 413.011 664.9L517.589 805.782H517.588Z" fill="#BFC8D6"/>
<g style="mix-blend-mode:multiply" opacity="0.4">
<path d="M514.355 808.393L502.645 817.854C499.015 810.466 492.472 808.69 488.468 808.332L469.069 783.655L412.865 696.827C411.258 694.345 410.479 691.439 410.523 688.483L410.779 671.636C413.839 682.72 420.664 703.059 430.552 707.84C444.321 714.501 458.332 727.293 464.111 749.96C469.89 772.627 483.926 781.872 499.719 794.045C507.352 799.932 511.796 804.864 514.355 808.391V808.393Z" fill="#BFC8D6"/>
</g>
<path d="M576.863 849.887C573.274 841.533 567.773 834.394 560.957 829.241C554.056 824.024 546.329 821.204 538.611 821.088C535.345 821.038 532.678 820.673 529.63 821.595L515.355 802.452L499.425 813.438L505.941 822.885C509.911 828.642 510.813 836.012 508.336 842.551C507.868 843.784 507.456 845.059 507.101 846.375C504.339 856.577 505.33 868.042 509.893 878.662C513.481 887.016 518.983 894.155 525.799 899.308C532.7 904.525 540.426 907.344 548.144 907.461C552.581 907.529 556.861 906.691 560.863 904.969C570.071 901.013 576.746 892.917 579.655 882.172C582.416 871.97 581.425 860.505 576.863 849.887ZM567.201 878.802C565.343 885.664 561.283 890.749 555.77 893.118C553.447 894.116 550.946 894.602 548.339 894.562C537.759 894.402 527.071 885.966 521.746 873.569C518.328 865.613 517.549 857.152 519.554 849.747C521.412 842.885 525.473 837.8 530.986 835.431C533.309 834.433 535.809 833.946 538.417 833.987C548.997 834.147 559.684 842.583 565.01 854.98C568.428 862.936 569.207 871.397 567.201 878.802Z" fill="#215EAB"/>
<path d="M566.632 667.981L566.285 690.846C566.241 693.803 565.32 696.682 563.635 699.115L488.058 808.386C488.058 808.386 475.993 806.381 470.181 817.364L457.986 806.883L455.419 804.677L564.429 667.197C564.757 666.78 565.314 666.62 565.812 666.799C566.31 666.978 566.64 667.454 566.633 667.982L566.632 667.981Z" fill="#D8DEE8"/>
<g style="mix-blend-mode:multiply" opacity="0.4">
<path d="M566.631 667.98L457.984 806.881L455.417 804.675L564.427 667.195C564.756 666.778 565.312 666.618 565.81 666.797C566.308 666.976 566.638 667.452 566.631 667.98Z" fill="#BFC8D6"/>
</g>
<path d="M443.409 821.105C440.389 820.09 437.223 819.551 433.958 819.502C426.242 819.385 418.433 821.969 411.376 826.976C404.406 831.92 398.692 838.889 394.851 847.131C389.97 857.606 388.631 869.036 391.084 879.318C393.667 890.145 400.092 898.44 409.176 902.674C413.125 904.515 417.377 905.481 421.814 905.549C429.53 905.666 437.339 903.082 444.396 898.075C451.366 893.131 457.08 886.162 460.921 877.92C465.802 867.445 467.141 856.015 464.69 845.733C464.374 844.407 464 843.12 463.57 841.873C461.289 835.252 462.411 827.931 466.561 822.288L473.36 813.042L457.77 801.579L443.412 821.105H443.409ZM449.227 872.47C443.527 884.7 432.589 892.809 422.009 892.649C419.401 892.61 416.917 892.047 414.625 890.979C409.186 888.444 405.282 883.24 403.632 876.324C401.852 868.862 402.886 860.43 406.545 852.581C412.245 840.351 423.183 832.242 433.764 832.402C436.371 832.441 438.855 833.004 441.147 834.072C446.586 836.607 450.491 841.811 452.14 848.727C453.92 856.189 452.886 864.621 449.227 872.47Z" fill="#215EAB"/>
<path d="M488.146 793.224C491.09 791.81 492.33 788.278 490.917 785.334C489.503 782.39 485.971 781.15 483.027 782.564C480.083 783.977 478.843 787.509 480.256 790.453C481.67 793.397 485.202 794.637 488.146 793.224Z" fill="#BFC8D6"/>
<path d="M486.406 789.65C486.397 790.184 485.958 790.611 485.423 790.603C484.889 790.594 484.462 790.155 484.471 789.62L484.534 785.427C484.543 784.893 484.982 784.466 485.517 784.475C486.051 784.483 486.478 784.922 486.469 785.457L486.406 789.65Z" fill="#D8DEE8"/>
<path d="M436.662 758.984L444.148 760.68L530.702 680.975L558.839 648.317L552.432 645.235L436.662 758.984Z" fill="url(#paint5_linear_1903_121)"/>
<mask id="mask3_1903_121" style="mask-type:luminance" maskUnits="userSpaceOnUse" x="355" y="539" width="232" height="226">
<path d="M511.549 539.281L355.445 681.076L430.858 764.099L586.962 622.304L511.549 539.281Z" fill="white"/>
</mask>
<g mask="url(#mask3_1903_121)">
<path d="M720.21 797.275C679.274 835.619 638.338 873.961 597.402 912.305C561.727 795.451 408.156 789.028 372.481 672.174C413.418 633.83 454.353 595.487 495.289 557.144C530.964 673.997 684.536 680.421 720.21 797.275Z" fill="url(#paint6_linear_1903_121)"/>
<path d="M601.969 890.864C561.033 790.381 427.133 776.973 386.196 676.489C421.038 643.855 455.879 611.22 490.721 578.586C531.658 679.069 665.557 692.478 706.494 792.961C671.652 825.595 636.811 858.23 601.969 890.864Z" fill="white"/>
<path d="M503.837 600.008C503.376 600.439 502.944 600.814 502.469 601.198C502.427 601.231 502.388 601.263 502.346 601.296C496.914 605.675 490.548 607.245 484.816 605.931C479.805 604.789 475.303 601.423 472.388 595.757C471.963 594.93 471.58 594.049 471.225 593.127C469.885 589.645 469.192 585.757 469.06 581.711C477.802 573.521 486.546 565.333 495.288 557.144C499.08 569.564 504.205 580.737 510.377 590.928C508.979 594.138 506.594 597.424 503.835 600.008H503.837Z" fill="url(#paint7_linear_1903_121)"/>
<path d="M396.873 700.196C394.001 702.887 391.01 704.543 387.472 705.798C381.342 695.651 376.252 684.529 372.479 672.174C381.425 663.795 390.37 655.415 399.318 647.037C401.163 649.478 402.803 652.479 404.142 655.961C404.497 656.881 404.822 657.819 405.119 658.764C409.546 672.884 407.467 689.244 397.955 699.124C397.921 699.161 397.882 699.199 397.844 699.239C397.534 699.564 397.192 699.896 396.872 700.196H396.873Z" fill="url(#paint8_linear_1903_121)"/>
<path d="M587.874 762.761C568.272 781.123 534.304 782.971 510.845 767.978C487.385 752.985 485.344 724.929 505.122 706.403C524.726 688.041 558.693 686.193 582.152 701.186C605.611 716.178 607.653 744.235 587.874 762.761Z" fill="url(#paint9_linear_1903_121)"/>
<g style="mix-blend-mode:multiply" opacity="0.2">
<path d="M597.801 911.931C597.668 912.055 597.535 912.181 597.401 912.305C561.727 795.451 408.155 789.028 372.48 672.174C412.551 634.641 452.622 597.109 492.692 559.576C492.563 565.76 492.112 572.396 491.09 579.486C489.907 587.671 487.968 596.461 484.815 605.931C481.314 616.448 476.317 627.804 469.127 640.178C433.512 701.302 454.237 722.798 491.8 738.943C501.744 743.331 512.784 747.43 523.941 752.116C528.847 754.181 533.771 756.416 538.638 758.826C548.164 763.554 557.463 768.968 565.954 775.157C595.083 795.574 612.543 827.138 607.064 862.74C606.142 869.273 604.525 875.851 602.223 882.354C601.625 884.05 601.105 885.843 600.656 887.74C599.022 894.598 598.289 902.72 597.802 911.93L597.801 911.931Z" fill="url(#paint10_linear_1903_121)"/>
</g>
</g>
<path d="M668.371 594.31C668.371 617.023 650.611 634.89 627.912 634.193C604.289 633.468 584.42 613.066 584.42 588.651C584.42 564.237 604.289 546.513 627.912 548.973C650.611 551.336 668.371 571.598 668.371 594.311V594.31Z" fill="#FFA412"/>
<path d="M674.505 592.35C674.505 615.063 656.745 632.93 634.046 632.233C610.422 631.508 590.554 611.106 590.554 586.691C590.554 562.277 610.422 544.553 634.046 547.013C656.745 549.376 674.505 569.638 674.505 592.352V592.35Z" fill="#FFC76C"/>
<path d="M671 592.117C671 613.145 654.669 629.659 633.827 628.98C612.178 628.273 594 609.416 594 586.886C594 564.357 612.177 547.969 633.827 550.204C654.668 552.356 671 571.089 671 592.117Z" fill="#FFA412"/>
<path d="M720.86 665.494C720.86 682.861 707.279 696.522 689.923 695.99C671.86 695.436 656.668 679.836 656.668 661.167C656.668 642.498 671.86 628.946 689.923 630.828C707.279 632.636 720.86 648.128 720.86 665.495V665.494Z" fill="#FFA412"/>
<path d="M725.549 663.996C725.549 681.364 711.969 695.025 694.613 694.492C676.55 693.938 661.358 678.338 661.358 659.669C661.358 641 676.55 627.449 694.613 629.33C711.969 631.138 725.549 646.63 725.549 663.998V663.996Z" fill="#FFC76C"/>
<path d="M723.212 663.839C723.212 679.894 710.639 692.486 694.613 691.947C677.987 691.389 664.044 677.01 664.044 659.85C664.044 642.69 677.987 630.19 694.613 631.874C710.639 633.497 723.212 647.785 723.212 663.839Z" fill="#FFA412"/>
<path d="M644.628 824.918C644.628 824.918 625.099 845.513 628.925 858.594C632.75 871.675 663.375 849.526 663.375 849.526L644.629 824.918H644.628Z" fill="#91B0F2"/>
<path d="M652.336 812.468C650.757 812.225 645.903 810.085 644.606 806.014C643.721 803.238 645.261 801.726 644.105 798.893C642.792 795.677 640.189 796.117 637.82 793.001C635.057 789.367 634.555 783.45 636.729 779.586C638.482 776.473 640.547 777.224 643.845 773.014C646.76 769.293 645.878 767.769 647.929 765.871C651.918 762.174 657.094 766.241 664.224 764.61C674.131 762.343 673.937 752.251 681.743 751.624C688.921 751.047 697.768 758.88 699.082 766.394C699.609 769.406 698.756 771.007 700.199 773.646C702.416 777.701 706.357 776.631 709.531 780.664C711.932 783.714 713.213 788.818 711.265 791.859C708.984 795.422 704.037 793.407 701.737 796.906C699.26 800.675 703.776 804.874 701.405 808.847C699.167 812.6 692.804 813.042 689.121 812.859C684.682 812.636 680.374 811.349 675.989 810.635C667.847 809.311 660.326 813.695 652.335 812.468H652.336Z" fill="#233862"/>
<path d="M684.894 895.637L636.686 883.579L634.275 895.291L678.408 915.66L713.352 907.028L734.433 886.331L684.894 895.637Z" fill="#072E52"/>
<path d="M638.815 834.312C637.199 830.384 648.283 819.62 662.18 815.639C672.269 812.749 680.819 814.362 685.267 815.147C699.699 817.695 708.686 824.909 712.068 827.941C709.298 829.443 701.655 834.028 697.869 842.727C694.21 851.136 696.826 858.863 698.188 863.351C699.374 867.26 701.179 873.203 706.513 877.503C709.331 879.772 712.443 880.925 718.669 883.231C726.011 885.949 730.563 886.7 730.53 888.171C730.488 890.046 723.031 891.576 723.291 892.745C723.31 892.832 723.364 892.839 723.373 892.902C723.473 893.718 715.097 895.723 704.511 897.316C692.131 899.179 685.941 900.109 680.024 899.097C670.8 897.518 672.351 894.679 663.106 893.086C652.351 891.234 647.466 894.599 637.73 890.859C636.089 890.229 629.527 887.7 629.716 885.072C629.948 881.824 640.773 882.934 650.196 874.61C654.345 870.944 656.354 867.1 657.049 865.657C657.948 863.79 661.718 854.147 657.937 843.646C657.713 843.027 657.539 842.742 657.299 842.333C652.724 834.522 640.343 838.023 638.816 834.314L638.815 834.312Z" fill="#AEC3FF"/>
<path d="M686.115 851.122C683.785 855.604 691.937 868.596 703.288 869.706C709.441 870.307 715.511 867.318 719.148 862.803C724.762 855.834 723.025 847.158 722.418 844.121C718.831 826.199 697.761 818.74 695.829 818.087C690.702 826.032 690.784 831.043 691.867 834.18C692.76 836.767 695.094 839.53 699.766 845.056C703.926 849.977 705.988 851.73 705.37 853.23C704.637 855.01 700.654 855.144 698.132 854.631C693.457 853.68 690.896 849.92 690.228 848.865C688.945 849.07 686.918 849.582 686.117 851.123L686.115 851.122Z" fill="#91B0F2"/>
<path d="M679.344 804.033C679.344 804.033 680.265 811.391 682.98 813.076C685.696 814.762 690.086 816.964 690.569 817.561C691.053 818.158 673.746 820.018 665.169 815.691C667.996 815.101 668.765 814.884 668.765 814.884C669.533 814.668 670.963 814.264 672.398 813.447C673.375 812.892 674.948 811.805 676.392 809.754L676.36 805.679L679.345 804.031L679.344 804.033Z" fill="#F5A46B"/>
<path d="M677.844 808.002C677.844 808.002 675.298 815.382 667.634 814.981C660.772 814.622 659.57 797.553 663.907 794.234C665.354 793.128 668.435 792.476 670.823 793.112C672.502 793.559 677.699 797.081 677.148 802.984C678.569 802.055 680.067 802.045 680.647 802.711C681.383 803.557 680.472 805.295 680.266 805.689C679.55 807.054 678.39 807.731 677.844 808.004V808.002Z" fill="#FFB27D"/>
<path d="M676.69 911.849C667.108 906.712 660.032 901.48 655.229 897.526C645.778 889.744 641.443 883.875 631.875 881.555C630.165 881.14 620.423 878.779 617.279 883.104C613.799 887.894 620.566 897.911 621.387 899.127C633.611 917.221 664.739 916.376 674.503 915.789C675.231 914.475 675.96 913.162 676.69 911.849Z" fill="#215EAB"/>
<g style="mix-blend-mode:multiply" opacity="0.3">
<path d="M617.278 883.104C618.197 881.84 619.685 881.158 621.366 880.82C620.806 882.757 620.756 884.573 621.454 886.162C623.364 890.5 629.02 889.164 632.992 894.256C636.894 899.257 634.193 904.076 637.643 906.14C641.596 908.503 646.498 902.98 650.732 905.623C653.612 907.419 652.716 910.827 656.071 912.684C658.39 913.967 660.662 913.361 663.304 913.029C666.331 912.648 670.479 912.567 675.687 913.655C675.291 914.367 674.897 915.078 674.502 915.791C664.738 916.378 633.61 917.222 621.386 899.129C620.564 897.912 613.797 887.896 617.278 883.106V883.104Z" fill="#215EAB"/>
</g>
<path d="M669.445 914.552C669.445 914.552 667.689 913.293 665.142 914.151C662.594 915.01 658.55 915.701 658.556 916.947C658.561 918.193 662.609 918.973 665.406 918.461C668.081 917.972 670.187 915.646 669.446 914.552H669.445Z" fill="#072E52"/>
<path d="M672.019 912.426L667.33 913.934C667.33 913.934 666.568 915.202 667.597 916.007C668.624 916.812 672.196 915.109 672.196 915.109L672.019 912.424V912.426Z" fill="url(#paint11_linear_1903_121)"/>
<path d="M737.188 890.812C738.573 898.871 721.177 907.592 717.194 909.588C709.078 913.656 693.807 919.399 671.141 917.204C670.84 915.396 670.538 913.587 670.237 911.779C673.231 910.753 677.669 909.087 682.817 906.553C691.604 902.23 694.941 899.144 707.133 891.771C720.626 883.613 724.556 882.567 728.577 883.577C732.016 884.44 736.545 887.065 737.188 890.81V890.812Z" fill="#215EAB"/>
<path d="M689.749 857.901L684.126 825.834L658.705 835.578L665.17 867.719L689.749 857.901Z" fill="#CA534B"/>
<path d="M644.628 824.918L658.704 835.578L665.17 867.719L654.809 860.883L644.628 824.918Z" fill="#CA534B"/>
<path d="M651.943 850.382C651.943 850.382 648.845 847.505 648.507 844.163C648.17 840.821 650.509 838.146 652.772 837.465C655.038 836.784 656.247 837.789 654.726 841.08C653.205 844.371 650.794 846.506 651.943 850.382Z" fill="#FFB27D"/>
<path d="M688.916 858.199C688.916 858.199 692.271 855.609 692.904 852.311C693.538 849.012 691.434 846.14 689.228 845.259C687.022 844.379 685.723 845.272 686.952 848.686C688.183 852.1 690.407 854.442 688.915 858.199H688.916Z" fill="#FFB27D"/>
<defs>
<filter id="filter0_f_1903_121" x="0" y="234.749" width="630.344" height="631.423" filterUnits="userSpaceOnUse" color-interpolation-filters="sRGB">
<feFlood flood-opacity="0" result="BackgroundImageFix"/>
<feBlend mode="normal" in="SourceGraphic" in2="BackgroundImageFix" result="shape"/>
<feGaussianBlur stdDeviation="81.5" result="effect1_foregroundBlur_1903_121"/>
</filter>
<filter id="filter1_f_1903_121" x="238.68" y="0.724121" width="773.543" height="773.543" filterUnits="userSpaceOnUse" color-interpolation-filters="sRGB">
<feFlood flood-opacity="0" result="BackgroundImageFix"/>
<feBlend mode="normal" in="SourceGraphic" in2="BackgroundImageFix" result="shape"/>
<feGaussianBlur stdDeviation="103" result="effect1_foregroundBlur_1903_121"/>
</filter>
<filter id="filter2_f_1903_121" x="363.792" y="306.068" width="794.208" height="794.208" filterUnits="userSpaceOnUse" color-interpolation-filters="sRGB">
<feFlood flood-opacity="0" result="BackgroundImageFix"/>
<feBlend mode="normal" in="SourceGraphic" in2="BackgroundImageFix" result="shape"/>
<feGaussianBlur stdDeviation="102.5" result="effect1_foregroundBlur_1903_121"/>
</filter>
<linearGradient id="paint0_linear_1903_121" x1="590.923" y1="640.715" x2="590.923" y2="904.775" gradientUnits="userSpaceOnUse">
<stop stop-color="#4A7CBB"/>
<stop offset="1" stop-color="#2AB392"/>
</linearGradient>
<linearGradient id="paint1_linear_1903_121" x1="720.899" y1="743.084" x2="720.899" y2="802.394" gradientUnits="userSpaceOnUse">
<stop stop-color="#4A7CBB"/>
<stop offset="1" stop-color="#2AB392"/>
</linearGradient>
<linearGradient id="paint2_linear_1903_121" x1="633.587" y1="854.366" x2="633.587" y2="904.772" gradientUnits="userSpaceOnUse">
<stop stop-color="#4A7CBB"/>
<stop offset="1" stop-color="#2AB392"/>
</linearGradient>
<linearGradient id="paint3_linear_1903_121" x1="557.745" y1="691.607" x2="557.745" y2="778.967" gradientUnits="userSpaceOnUse">
<stop stop-color="#4A7CBB"/>
<stop offset="1" stop-color="#2AB392"/>
</linearGradient>
<linearGradient id="paint4_linear_1903_121" x1="505.846" y1="568.875" x2="505.846" y2="904.772" gradientUnits="userSpaceOnUse">
<stop stop-color="#4A7CBB"/>
<stop offset="1" stop-color="#2AB392"/>
</linearGradient>
<linearGradient id="paint5_linear_1903_121" x1="497.75" y1="645.235" x2="497.75" y2="760.68" gradientUnits="userSpaceOnUse">
<stop stop-color="#4A7CBB"/>
<stop offset="1" stop-color="#2AB392"/>
</linearGradient>
<linearGradient id="paint6_linear_1903_121" x1="546.346" y1="557.144" x2="546.346" y2="912.305" gradientUnits="userSpaceOnUse">
<stop stop-color="#4A7CBB"/>
<stop offset="1" stop-color="#2AB392"/>
</linearGradient>
<linearGradient id="paint7_linear_1903_121" x1="489.718" y1="557.144" x2="489.718" y2="606.381" gradientUnits="userSpaceOnUse">
<stop stop-color="#4A7CBB"/>
<stop offset="1" stop-color="#2AB392"/>
</linearGradient>
<linearGradient id="paint8_linear_1903_121" x1="389.911" y1="647.037" x2="389.911" y2="705.798" gradientUnits="userSpaceOnUse">
<stop stop-color="#4A7CBB"/>
<stop offset="1" stop-color="#2AB392"/>
</linearGradient>
<linearGradient id="paint9_linear_1903_121" x1="546.498" y1="691.146" x2="546.498" y2="778.018" gradientUnits="userSpaceOnUse">
<stop stop-color="#4A7CBB"/>
<stop offset="1" stop-color="#2AB392"/>
</linearGradient>
<linearGradient id="paint10_linear_1903_121" x1="490.273" y1="559.576" x2="490.273" y2="912.305" gradientUnits="userSpaceOnUse">
<stop stop-color="#4A7CBB"/>
<stop offset="1" stop-color="#2AB392"/>
</linearGradient>
<linearGradient id="paint11_linear_1903_121" x1="666.722" y1="918.346" x2="682.739" y2="898.196" gradientUnits="userSpaceOnUse">
<stop stop-color="#FFC444"/>
<stop offset="1" stop-color="#F36F56"/>
</linearGradient>
</defs>
</svg>
