<svg width="233" height="108" fill="none" xmlns="http://www.w3.org/2000/svg"><path d="M109.558 20.254h4.53v14.7h3.615c.707-4.627 2.795-8.45 6.265-11.471 3.503-3.053 7.583-4.579 12.242-4.579 5.173 0 9.559 1.832 13.158 5.495 3.631 3.63 5.446 8.032 5.446 13.205 0 5.141-1.815 9.543-5.446 13.206-3.631 3.663-8.017 5.494-13.158 5.494-4.819 0-9.013-1.654-12.579-4.964-3.534-3.31-5.494-7.374-5.88-12.193h-3.663v15.808h-4.53V20.254Zm26.652 3.132c-3.888 0-7.213 1.398-9.976 4.194-2.732 2.795-4.097 6.137-4.097 10.024 0 3.92 1.365 7.278 4.097 10.073 2.731 2.764 6.056 4.145 9.976 4.145 3.92 0 7.246-1.381 9.977-4.145 2.763-2.795 4.145-6.153 4.145-10.073 0-3.887-1.382-7.23-4.145-10.024-2.763-2.796-6.089-4.194-9.977-4.194Zm27.769 21.351v10.218h-4.531V20.254c3.053 0 5.511.192 7.374.578 2.86.578 5.254 1.976 7.182 4.193 1.927 2.217 2.891 4.756 2.891 7.615 0 3.438-1.285 6.314-3.855 8.627-2.571 2.314-5.591 3.47-9.061 3.47Zm0-4.482c2.185 0 4.129-.723 5.832-2.169 1.702-1.478 2.554-3.293 2.554-5.446 0-2.153-.868-3.968-2.603-5.446-1.67-1.382-3.598-2.072-5.783-2.072v15.133Zm20.818 15.953v-4.29c4.594 0 7.261-1.108 8-3.325.225-.675.338-1.96.338-3.856-3.438 0-6.427-1.156-8.965-3.47-2.538-2.345-3.808-5.221-3.808-8.627V20.254h4.435V32.64c0 2.153.867 3.968 2.602 5.446 1.639 1.446 3.551 2.17 5.736 2.17V20.253h4.53v25.785c0 3.791-1.253 6.506-3.759 8.145-2.057 1.35-5.093 2.024-9.109 2.024ZM233 51.726c-3.631 3.052-7.695 4.578-12.194 4.578-5.108 0-9.494-1.831-13.157-5.494-3.663-3.695-5.495-8.097-5.495-13.206 0-5.14 1.816-9.543 5.447-13.205 3.662-3.663 8.064-5.495 13.205-5.495 4.531 0 8.595 1.558 12.194 4.675v6.892c-1.285-2.217-3.004-3.952-5.157-5.205-2.121-1.253-4.466-1.88-7.037-1.88-3.888 0-7.213 1.398-9.976 4.194-2.764 2.795-4.145 6.137-4.145 10.024 0 3.92 1.365 7.278 4.097 10.073 2.763 2.764 6.104 4.145 10.024 4.145 2.507 0 4.852-.626 7.037-1.88A14.06 14.06 0 0 0 233 44.738v6.989ZM120.61 66.33v-3.14h-7.306c-2.023 0-3.746 1.413-3.746 3.14v18.85h3.746V66.331h7.306Zm5.61 18.849v-8.544h3.56c2.023 0 3.746-1.1 3.746-2.45V66.33c0-1.728-1.723-3.142-3.746-3.142h-7.306v21.99h3.746Zm3.56-18.848v7.853h-3.56v-7.853h3.56Zm13.684-3.141v15.675h-3.559V63.19h-3.747v15.675c0 1.728 1.723 3.173 3.747 3.173h3.559v3.141h-7.306v3.141h7.306c2.061 0 3.747-1.476 3.747-3.141v-21.99h-3.747Zm14.05 21.989h3.747v-21.99h-11.053v21.99h3.747V66.331h3.559v18.848Zm14.05 0h3.747v-21.99h-11.053v21.99h3.747V66.331h3.559v18.848Z" fill="#CA534B"/><path d="M50.784 0c5.86.413 11.68 1.12 17.478 2.077C74.89 3.172 81.385 4.746 87.72 6.98c.357.125.69.323 1.045.454 4.979 1.846 4.98 1.844 4.98 7.178 0 14.961-.156 29.924.057 44.88.126 9.015-3.754 16.13-9.622 22.38-10.03 10.682-22.308 18.178-35.43 24.413-.625.294-1.182.699-1.772 1.052h-.38c-3.837-2.066-7.702-4.079-11.506-6.206-10.01-5.597-19.261-12.191-26.904-20.834C3.623 75.135.24 69.23.138 62.262-.116 45.01.066 27.753.028 10.499c0-1.155.416-1.686 1.452-2.07 7.852-2.904 15.942-4.944 24.163-6.483C31.43.86 37.312.5 43.171.002L50.784 0ZM88.98 38.461c0-8.054-.05-16.11.042-24.16.019-1.636-.532-2.337-2.033-2.815-9.855-3.146-19.893-5.348-30.231-6.232C39.443 3.776 22.67 6.263 6.254 11.713c-1.05.347-1.46.85-1.456 2.033.053 15.798.04 31.58.06 47.37a19.523 19.523 0 0 0 .189 3.026c1.052 6.585 4.933 11.565 9.428 16.11 9.024 9.13 19.922 15.544 31.295 21.256.705.355 1.334.513 2.127.113 11.692-5.914 22.937-12.492 32.133-22.024 5.875-6.1 9.647-12.993 9.036-21.928-.436-6.374-.085-12.802-.086-19.208Z" fill="#215EAB"/><path d="M87.17 39.243c0 6.786-.198 13.577.059 20.352.236 6.242-2.126 11.337-5.924 15.984-6.98 8.539-15.984 14.512-25.377 19.985-1.25.732-2.688 1.231-3.804 2.13-3.51 2.824-6.677 2.266-10.434.096-9.854-5.687-19.494-11.59-27.306-20.021-5.035-5.44-8.04-11.505-7.846-19.29.354-14.257.118-28.53.066-42.797 0-1.285.327-1.92 1.583-2.329 25.745-8.402 51.478-8.49 77.237-.056 1.408.46 1.797 1.123 1.783 2.556-.077 7.791-.039 15.592-.037 23.39Zm-59.39 31.66c.326-.982-.066-1.534-.27-2.116-2.134-6.067-2.356-12.252-1.08-18.508.193-.939.243-2.696 1.971-1.016.804.782.996.016 1.231-.605a30.152 30.152 0 0 1 4.475-7.905c1.941-2.478 1.934-2.478-.674-4.012-.313-.183-.782-.435-.804-.69-.048-.515.544-.604.917-.8 2.033-1.083 4.26-1.096 6.485-1.08 1.354.014 2.878.02 3.683-1.103.806-1.123 1.435-1.614 2.638-.846 1.016.649 2.152-.715 3.217.331.885.87 2.159 1.017 3.396.917 2.784-.222 5.575-.313 8.346.058 1.477.196 1.72-.383 1.525-1.688-1.018-6.75-8.435-10.305-14.252-6.755-1.219.742-2.234.938-3.441-.038-2.034-1.64-4.38-1.864-6.83-1.08-2.83.91-5.64 1.878-8.471 2.777-.441.14-1.044.582-1.408.046-1.678-2.49-4.536-3.285-6.86-4.837-.712-.479-1.611-.743-2.462-.929-.684-.156-1.174.388-1.526.938-.289.45.012.737.4.847 2.771.782 3.724 3.176 4.98 5.387.507.893.342 3.217 2.637 1.93.34-.191.48.328.458.625-.05.753-.072 1.522-.253 2.248-1.086 4.325-3.207 8.25-4.866 12.357-1.777 4.394-2.392 8.899-1.66 13.577.077.487.174 1.547.698 1.214 2.263-1.442 1.9.782 2.213 1.594 1.294 3.316 2.726 6.508 5.587 9.161Zm38.102-26.76c-1.383-3.362-3.673-5.025-6.357-6.237-.394-.178-1.178-.122-1.447.157-2.233 2.292-3.923 1.118-5.57-.74-.203-.229-.518-.36-.782-.53-5.944-3.784-13.467.89-13.785 5.188-.313 4.223-.063 8.48-.013 12.723.011.854.313 1.631 1.385 1.736 1.22.12 3.056-.652 2.717 1.832-.016.106.374.312.6.398 2.61 1.023 5.256 1.427 7.951.34.613-.247 1.531-.438 1.294-1.342-.313-1.202.272-1.308 1.15-1.21 2.39.268 3.13-.913 3.042-3.145-.157-3.662-.534-7.312-.168-11 .166-1.656.873-1.83 2.18-1.602 2.679.463 4.931 1.914 7.803 3.431ZM40.84 77.963c-.22-.206-.438-.414-.661-.616-4.058-3.65-6.873-8.24-9.329-12.998-1.422-2.756-1.627-6.003-2.262-9.093a18.018 18.018 0 0 0-.216 3.701c.149 4.88 1.136 9.551 3.585 13.83.234.407.506 1.587 1.23.626.882-1.165 1.215-.219 1.677.222 1.777 1.708 3.367 3.637 5.976 4.328Zm31.44-31.16c-1.221 4.274 1.148 8.702-1.788 13.365-2.141 3.405-2.953 7.863-5.434 11.398 2.085-1.466 3.548-3.393 4.746-5.558.37-.669.458-2.124 1.866-.833.538.492.657-.263.782-.648 1.871-5.969 1.807-11.903-.175-17.719l.003-.004Zm-52.484-11.51c.08-1.117.185-2.328-.477-2.855-1.674-1.335-1.54-3.019-1.505-4.799.011-.582.49-1.584-.558-1.675-.876-.075-1.186.793-1.378 1.553-.69 2.67 1.139 6.393 3.918 7.776Zm54.25-.066c2.894-1.157 4.938-5.751 3.721-8.196-.256-.513-.567-1.154-1.2-1.054-.892.142-.356.913-.383 1.407-.082 1.496.338 3.229-.9 4.302-1.211 1.034-1.197 2.198-1.246 3.541h.008Zm2.42-12.322c-.54-1.69-1.619-2.096-2.855-1.7-2.845.915-4.935 3.048-7.315 4.755 3.833.305 6.001-4.213 10.17-3.055Z" fill="#215EAB"/><path d="M46.953 54.923c-1.702-.14-3.407-.257-5.107-.427-.855-.085-1.705-.36-1.71-1.408 0-1.01.795-1.32 1.65-1.532 3.858-.952 5.033-4.027 2.741-7.213-.591-.822-1.286-1.641-2.046-.088-.494 1.007-1.057.673-1.564.014-1.064-1.386-1.078-2.815.019-4.172 2.743-3.39 8.57-3.56 11.537-.388 1.114 1.192 1.456 2.538.782 4.01-.469 1.02-1.22 1.82-2.233.49-.673-.88-1.073-.469-1.575.127-2.527 3.029-1.472 6.368 2.313 7.21 1 .222 1.97.55 1.968 1.684 0 1.05-1.095 1.045-1.85 1.28-1.614.502-3.275.252-4.925.413Z" fill="#215EAB"/></svg>