<svg width="46" height="45" viewBox="0 0 46 45" fill="none" xmlns="http://www.w3.org/2000/svg">
<path d="M36.9652 10.1497C36.9574 9.30236 36.6152 8.49233 36.0133 7.89589C35.4113 7.29945 34.5981 6.96483 33.7507 6.96484C32.9033 6.96485 32.0901 7.29948 31.4882 7.89594C30.8862 8.4924 30.5441 9.30243 30.5363 10.1498C30.5441 10.9972 30.8862 11.8072 31.4882 12.4037C32.0902 13.0001 32.9034 13.3347 33.7508 13.3347C34.5982 13.3347 35.4113 13.0001 36.0133 12.4036C36.6153 11.8072 36.9574 10.9971 36.9652 10.1497Z" fill="#0D4CD3"/>
<path d="M30.7372 13.9106C27.2185 11.1822 29.2357 5.27622 33.7509 5.32816C38.2655 5.27706 40.2835 11.182 36.7641 13.9107C37.9337 14.3408 39.0001 15.0114 39.8943 15.8793C40.7886 16.7472 41.4908 17.7931 41.9556 18.9493C43.4572 17.3506 44.458 15.3473 44.8345 13.1865C45.211 11.0258 44.9468 8.80204 44.0743 6.78969C43.2019 4.77734 41.7594 3.0644 39.9249 1.86219C38.0904 0.659982 35.9441 0.0210933 33.7508 0.0243417C23.9463 -0.00376857 18.8569 11.9076 25.5381 18.9493C26.0056 17.7935 26.7097 16.7481 27.605 15.8804C28.5004 15.0127 29.5673 14.3417 30.7372 13.9106Z" fill="#0D4CD3"/>
<path d="M26.8236 20.1306C28.8065 21.6623 31.2412 22.4931 33.7467 22.4931C36.2523 22.4931 38.687 21.6621 40.6698 20.1304C40.215 18.6492 39.2971 17.3528 38.0509 16.4319C36.8048 15.511 35.2962 15.014 33.7466 15.014C32.1971 15.0141 30.6885 15.5111 29.4424 16.432C28.1963 17.353 27.2784 18.6493 26.8236 20.1306Z" fill="#0D4CD3"/>
<path d="M44.975 37.7929C44.8891 35.5019 45.417 31.8959 43.9622 30.7124C43.1183 29.8285 41.7761 29.4346 39.7747 29.4748C38.149 29.4352 36.5356 29.1812 34.9764 28.7193C33.2483 28.213 31.456 27.6906 29.8646 28.9845C28.3543 30.1822 26.7829 31.3113 25.2752 32.5047C25.1272 32.642 24.9372 32.7255 24.7359 32.7415C24.5347 32.7575 24.3339 32.7053 24.166 32.5931C21.685 31.2668 19.4128 29.5824 17.4226 27.5941C15.5195 25.6934 13.9007 23.5279 12.6162 21.1647C12.142 20.4977 12.2143 20.136 12.4956 19.7582C13.7034 18.24 14.8249 16.6732 16.024 15.1612C17.3261 13.5618 16.8037 11.7696 16.2973 10.0417C15.8363 8.49342 15.5822 6.89087 15.5418 5.27587C15.5754 1.07384 13.9584 -0.271018 9.68253 0.04382C7.05927 0.251103 2.75199 -0.640549 0.945735 1.19317C0.316796 1.92092 -0.0133153 2.85979 0.0217701 3.82101C-0.608339 20.7124 12.5202 38.1671 28.9563 43.1454C32.9068 44.4443 37.0476 45.0692 41.2054 44.9939C45.5211 44.8922 44.9873 40.8214 44.975 37.7929Z" fill="#0D4CD3"/>
</svg>
