<svg width="41" height="45" viewBox="0 0 41 45" fill="none" xmlns="http://www.w3.org/2000/svg">
<path d="M39.495 6.77533C39.4606 6.60695 39.3735 6.45385 39.2465 6.33811C39.1194 6.22236 38.9589 6.14994 38.788 6.13127C34.6022 5.69139 30.4993 4.66421 26.6 3.07999C16.894 -1.02614 23.3064 -1.02725 13.5846 3.08019C9.68865 4.66614 5.5881 5.69333 1.40461 6.13125C1.23391 6.14679 1.07282 6.21713 0.94539 6.33177C0.817961 6.44641 0.731034 6.59919 0.697589 6.7673C-0.0817067 10.6478 -1.91355 24.1572 7.06076 35.3883C10.4524 39.5664 14.8203 42.8456 19.779 44.9366C19.8781 44.9785 19.9847 45 20.0923 45C20.1999 45 20.3065 44.9785 20.4057 44.9366C24.0848 43.3849 27.45 41.175 30.336 38.4154C41.315 28.6228 40.8184 11.6319 39.495 6.77533ZM28.8576 26.5484C28.0056 27.849 26.8751 28.944 25.548 29.7541C24.2208 30.5643 22.7302 31.0693 21.1839 31.2326C19.6376 31.396 18.0744 31.2136 16.6072 30.6986C15.1401 30.1837 13.8058 29.3491 12.7008 28.2551C6.49588 22.0476 10.3762 11.2382 19.0721 10.4306C27.6692 9.49533 33.6317 19.3375 28.8576 26.5484Z" fill="#0D4CD3"/>
<path d="M26.343 14.5847C25.4097 13.6628 24.2839 12.9589 23.0463 12.5236C21.8088 12.0883 20.4902 11.9324 19.1853 12.0671C17.8803 12.2018 16.6214 12.6238 15.4989 13.3027C14.3763 13.9816 13.418 14.9006 12.6928 15.9938C7.13527 25.0248 18.6312 34.4193 26.343 27.1119C27.9894 25.4428 28.9125 23.1927 28.9125 20.8483C28.9125 18.5039 27.9894 16.2538 26.343 14.5847ZM25.4833 18.1996L19.0559 24.6403C18.9035 24.7895 18.6987 24.873 18.4854 24.873C18.2722 24.873 18.0674 24.7895 17.915 24.6403L14.7013 21.4199C14.5521 21.2682 14.4688 21.0636 14.4696 20.8507C14.4704 20.6379 14.5552 20.4339 14.7056 20.2833C14.8559 20.1326 15.0597 20.0474 15.2726 20.0462C15.4854 20.045 15.6902 20.1278 15.8422 20.2767L18.4855 22.9335L24.3425 17.0564C24.4951 16.9105 24.6989 16.8302 24.91 16.8328C25.1212 16.8353 25.323 16.9204 25.4721 17.0699C25.6213 17.2193 25.706 17.4213 25.7081 17.6324C25.7102 17.8436 25.6295 18.0472 25.4833 18.1996Z" fill="#0D4CD3"/>
</svg>
