<svg width="102" height="75" viewBox="0 0 102 75" fill="none" xmlns="http://www.w3.org/2000/svg">
<path d="M47.3317 64.2068V67.736C47.3317 69.1177 41.2632 70.2399 33.7774 70.2399C26.2917 70.2399 20.2231 69.1177 20.2231 67.736V64.2068C20.2231 63.4982 21.8169 62.8573 24.3779 62.4019C26.8149 62.8356 30.1273 63.1032 33.7774 63.1032C37.4276 63.1032 40.7408 62.8364 43.1777 62.4019C45.7388 62.8573 47.3317 63.4982 47.3317 64.2068Z" fill="#215EAB"/>
<path d="M47.3317 64.2069C47.3317 65.5887 41.2632 66.7108 33.7774 66.7108C26.2917 66.7108 20.2231 65.5887 20.2231 64.2069C20.2231 63.4984 21.8169 62.8575 24.3779 62.402C26.8149 61.9683 30.1273 61.7007 33.7774 61.7007C37.4276 61.7007 40.7408 61.9675 43.1777 62.402C45.7388 62.8575 47.3317 63.4984 47.3317 64.2069Z" fill="#215EAB"/>
<path d="M44.8987 61.8909V63.9151C44.8987 65.0259 40.0256 65.9264 34.0143 65.9264C28.0029 65.9264 23.1299 65.0259 23.1299 63.9151V61.8909C23.1299 63.0017 28.0029 63.9022 34.0143 63.9022C40.0256 63.9022 44.8987 63.0017 44.8987 61.8909Z" fill="#215EAB"/>
<path d="M34.0143 63.9022C40.0256 63.9022 44.8987 63.0018 44.8987 61.8909C44.8987 60.7801 40.0256 59.8796 34.0143 59.8796C28.003 59.8796 23.1299 60.7801 23.1299 61.8909C23.1299 63.0018 28.003 63.9022 34.0143 63.9022Z" fill="#215EAB"/>
<path d="M32.7339 2.16211H34.3461V61.4297C34.3461 61.6965 34.1293 61.9134 33.8625 61.9134H33.2176C32.9507 61.9134 32.7339 61.6965 32.7339 61.4297V2.16211Z" fill="#215EAB"/>
<path d="M8.61388 8.91434C8.61388 8.91434 8.289 8.65718 7.60621 8.66766C6.92342 8.67814 6.77751 9.78738 7.60621 10.0228C8.43491 10.2582 11.3459 9.36174 12.2197 8.98125C13.0935 8.60075 18.7663 6.9103 21.4128 6.29361C24.8727 5.48748 30.9195 5.11746 32.8679 5.25208L33.271 2.16138C33.271 2.16138 28.8703 2.22828 25.5781 2.93365C22.2859 3.63901 15.5676 6.42742 15.5676 6.42742L10.2431 8.66121C10.2431 8.66121 9.5772 8.96915 9.16285 8.99173C8.7485 9.0143 8.61388 8.91353 8.61388 8.91353V8.91434Z" fill="#215EAB"/>
<path d="M58.4662 8.91434C58.4662 8.91434 58.7911 8.65718 59.4739 8.66766C60.1567 8.67814 60.3026 9.78738 59.4739 10.0228C58.6452 10.2582 55.7342 9.36174 54.8604 8.98125C53.9865 8.60075 48.3138 6.9103 45.6673 6.29361C42.2074 5.48748 36.1606 5.11746 34.2121 5.25208L33.8091 2.16138C33.8091 2.16138 38.2098 2.22828 41.502 2.93365C44.7942 3.63901 51.5125 6.42742 51.5125 6.42742L56.837 8.66121C56.837 8.66121 57.5029 8.96915 57.9172 8.99173C58.3316 9.0143 58.4662 8.91353 58.4662 8.91353V8.91434Z" fill="#215EAB"/>
<path d="M33.5399 3.09164C34.5046 3.09164 35.2867 2.77584 35.2867 2.38627C35.2867 1.99671 34.5046 1.68091 33.5399 1.68091C32.5751 1.68091 31.793 1.99671 31.793 2.38627C31.793 2.77584 32.5751 3.09164 33.5399 3.09164Z" fill="#215EAB"/>
<path d="M33.5396 2.55382C34.028 2.55382 34.4239 1.98213 34.4239 1.27691C34.4239 0.57169 34.028 0 33.5396 0C33.0512 0 32.6553 0.57169 32.6553 1.27691C32.6553 1.98213 33.0512 2.55382 33.5396 2.55382Z" fill="#215EAB"/>
<path d="M17.6847 37.5245C16.5618 36.4338 13.4759 35.6284 9.76611 35.5374C13.8427 35.6236 17.1285 36.458 17.6847 37.5245Z" fill="#215EAB"/>
<path d="M18.1396 38.435C18.1396 40.0408 14.0791 41.3411 9.06979 41.3411C4.06048 41.3411 0 40.04 0 38.435C0 38.1165 0.159614 37.8102 0.453852 37.5256C0.397423 37.6304 0.369207 37.7393 0.369207 37.8481C0.369207 39.129 4.26444 40.1657 9.06979 40.1657C13.8751 40.1657 17.7704 39.1282 17.7704 37.8481C17.7704 37.7393 17.7421 37.6304 17.6857 37.5256C17.98 37.8102 18.1396 38.1165 18.1396 38.435Z" fill="#215EAB"/>
<path d="M9.2035 8.58789H8.93506V35.5377H9.2035V8.58789Z" fill="#215EAB"/>
<path d="M17.8247 37.8866L9.07091 10.6104L0.581545 37.565L0.325195 37.4844L9.0685 9.72363L18.081 37.8044L17.8247 37.8866Z" fill="#215EAB"/>
<path d="M66.6262 37.5245C65.5032 36.4338 62.4173 35.6284 58.7075 35.5374C62.7841 35.6236 66.0699 36.458 66.6262 37.5245Z" fill="#215EAB"/>
<path d="M67.081 38.435C67.081 40.0408 63.0205 41.3411 58.0112 41.3411C53.0019 41.3411 48.9414 40.04 48.9414 38.435C48.9414 38.1165 49.101 37.8102 49.3953 37.5256C49.3388 37.6304 49.3106 37.7393 49.3106 37.8481C49.3106 39.129 53.2058 40.1657 58.0112 40.1657C62.8165 40.1657 66.7118 39.1282 66.7118 37.8481C66.7118 37.7393 66.6835 37.6304 66.6271 37.5256C66.9214 37.8102 67.081 38.1165 67.081 38.435Z" fill="#215EAB"/>
<path d="M58.1454 8.58789H57.877V35.5377H58.1454V8.58789Z" fill="#215EAB"/>
<path d="M66.7656 37.8866L58.0118 10.6104L49.5225 37.565L49.2661 37.4844L58.0094 9.72363L67.022 37.8044L66.7656 37.8866Z" fill="#215EAB"/>
<path d="M33.5398 6.00322C34.5851 6.00322 35.4326 5.79749 35.4326 5.54372C35.4326 5.28995 34.5851 5.08423 33.5398 5.08423C32.4944 5.08423 31.647 5.28995 31.647 5.54372C31.647 5.79749 32.4944 6.00322 33.5398 6.00322Z" fill="#215EAB"/>
<path d="M33.5398 7.5706C34.5851 7.5706 35.4326 7.36487 35.4326 7.1111C35.4326 6.85733 34.5851 6.65161 33.5398 6.65161C32.4944 6.65161 31.647 6.85733 31.647 7.1111C31.647 7.36487 32.4944 7.5706 33.5398 7.5706Z" fill="#215EAB"/>
<path d="M33.5398 9.13847C34.5851 9.13847 35.4326 8.93275 35.4326 8.67898C35.4326 8.42521 34.5851 8.21948 33.5398 8.21948C32.4944 8.21948 31.647 8.42521 31.647 8.67898C31.647 8.93275 32.4944 9.13847 33.5398 9.13847Z" fill="#215EAB"/>
<path d="M72.1424 63.6269V69.8551C72.1424 72.2936 61.433 74.2743 48.2221 74.2743C35.0112 74.2743 24.3018 72.2936 24.3018 69.8551V63.6269C24.3018 62.3758 27.1135 61.2448 31.6343 60.4419C35.935 61.2077 41.7811 61.6793 48.2221 61.6793C54.6631 61.6793 60.5108 61.2077 64.8115 60.4419C69.3306 61.2456 72.1424 62.3758 72.1424 63.6269Z" fill="#072E52"/>
<path d="M72.1424 63.627C72.1424 66.0656 61.433 68.0462 48.2221 68.0462C35.0112 68.0462 24.3018 66.0656 24.3018 63.627C24.3018 62.3759 27.1135 61.2449 31.6343 60.442C35.935 59.6762 41.7811 59.2046 48.2221 59.2046C54.6631 59.2046 60.5108 59.6762 64.8115 60.442C69.3306 61.2457 72.1424 62.3759 72.1424 63.627Z" fill="#4A7CBB"/>
<path d="M67.8486 59.5405V63.1125C67.8486 65.0722 59.2496 66.6611 48.6401 66.6611C38.0306 66.6611 29.4316 65.0722 29.4316 63.1125V59.5405C29.4316 61.5002 38.0306 63.0891 48.6401 63.0891C59.2496 63.0891 67.8486 61.5002 67.8486 59.5405Z" fill="#072E52"/>
<path d="M48.6401 63.0891C59.2487 63.0891 67.8486 61.5004 67.8486 59.5405C67.8486 57.5807 59.2487 55.9919 48.6401 55.9919C38.0316 55.9919 29.4316 57.5807 29.4316 59.5405C29.4316 61.5004 38.0316 63.0891 48.6401 63.0891Z" fill="#4A7CBB"/>
<path d="M68.9959 55.5524L66.958 60.2312C66.563 61.1373 62.2655 60.1409 57.3578 58.0031C52.4508 55.866 48.7926 53.3976 49.1868 52.4915L51.2247 47.8127C50.8297 48.7188 54.4879 51.1872 59.3957 53.3243C64.3026 55.4613 68.6009 56.4585 68.9959 55.5524Z" fill="#072E52"/>
<path d="M60.8272 50.04C65.7341 52.177 69.3915 54.6454 68.9965 55.5523C68.6015 56.4584 64.3041 55.462 59.3963 53.3242C54.4894 51.1871 50.8312 48.7187 51.2254 47.8126C51.6204 46.9057 55.9195 47.9029 60.8264 50.04H60.8272Z" fill="url(#paint0_linear_1693_87)"/>
<path d="M68.5998 55.2973C68.4031 55.3642 67.6486 55.3917 65.8106 54.9064C64.0992 54.4549 61.9468 53.6939 59.7501 52.7653C58.5489 52.2582 57.3938 51.7254 56.3458 51.1965C55.4768 50.7588 54.6803 50.3235 53.9927 49.9092C52.3643 48.9289 51.8581 48.3686 51.771 48.1816L57.2341 35.2674L58.0056 33.4431C58.9472 34.6112 62.0395 36.504 65.9097 38.1888C69.7695 39.8696 73.252 40.845 74.7554 40.7434L68.6006 55.2957L68.5998 55.2973Z" fill="#072E52"/>
<path d="M77.7976 35.3434L75.7597 40.0222C75.3647 40.9283 71.0672 39.9319 66.1595 37.7941C61.2526 35.657 57.5944 33.1886 57.9886 32.2825L60.0265 27.6038C59.6315 28.5099 63.2897 30.9782 68.1974 33.1153C73.1043 35.2523 77.4026 36.2495 77.7976 35.3434Z" fill="#072E52"/>
<path d="M69.6285 29.8308C74.5354 31.9678 78.1928 34.4362 77.7978 35.3431C77.4028 36.2492 73.1053 35.2528 68.1976 33.1149C63.2907 30.9779 59.6325 28.5095 60.0266 27.6034C60.4217 26.6965 64.7208 27.6937 69.6277 29.8308H69.6285Z" fill="url(#paint1_linear_1693_87)"/>
<path d="M76.8637 33.131L76.2857 34.4579C75.9689 35.1859 72.5171 34.3854 68.5767 32.6683C64.6355 30.9521 61.6988 28.9706 62.0156 28.2427L62.5936 26.9158C62.2768 27.6437 65.2135 29.6252 69.1547 31.3414C73.0959 33.0577 76.5469 33.859 76.8637 33.131Z" fill="#072E52"/>
<path d="M76.8604 33.1217C77.1775 32.3934 74.2399 30.4121 70.2992 28.6962C66.3585 26.9802 62.9069 26.1795 62.5898 26.9078C62.2727 27.636 65.2102 29.6173 69.1509 31.3333C73.0916 33.0492 76.5433 33.8499 76.8604 33.1217Z" fill="url(#paint2_linear_1693_87)"/>
<path d="M62.1685 38.5816L56.3458 51.1967C55.4768 50.759 54.6803 50.3237 53.9927 49.9093C52.3643 48.9291 51.8581 48.3688 51.771 48.1818L57.2342 35.2676C57.8371 35.9407 59.2914 37.2837 62.1685 38.5816Z" fill="url(#paint3_linear_1693_87)"/>
<path d="M101.548 62.9196C101.515 62.9849 101.482 63.0462 101.444 63.1018C100.783 64.1651 99.6218 63.8991 99.6218 63.8991L97.1357 62.673L96.365 62.2933L96.0047 62.1159L95.2421 61.7395L68.2085 48.4061C68.2085 48.4061 68.2061 48.1199 68.3343 47.662C68.3431 47.6306 68.352 47.5975 68.3625 47.5645C68.5205 47.0501 69.2532 46.6487 69.2532 46.6487L96.7262 59.5315L97.6492 59.9652L97.9346 60.0982L98.8689 60.5367L100.039 61.0857C100.039 61.0857 102.185 61.6468 101.548 62.9196Z" fill="url(#paint4_linear_1693_87)"/>
<path d="M101.444 63.1015C100.783 64.1648 99.6217 63.8988 99.6217 63.8988L68.2075 48.4049C68.2075 48.4049 68.2051 48.1188 68.3333 47.6609L99.7909 63.1701C99.7909 63.1701 100.661 63.4554 101.444 63.1015H101.444Z" fill="#072E52"/>
<path d="M97.6488 59.9649C96.8878 60.3882 96.3139 61.4305 96.0043 62.1157L95.2417 61.7392C95.677 60.4438 96.2719 59.8255 96.7258 59.5312L97.6488 59.9649Z" fill="#072E52"/>
<path d="M98.8691 60.5364C98.075 60.896 97.4713 61.952 97.1359 62.6727L96.3652 62.293C96.836 60.9459 97.4793 60.3551 97.9348 60.0979L98.8691 60.5364Z" fill="#072E52"/>
<defs>
<linearGradient id="paint0_linear_1693_87" x1="60.111" y1="47.4775" x2="60.111" y2="55.8871" gradientUnits="userSpaceOnUse">
<stop stop-color="#4A7CBB"/>
<stop offset="1" stop-color="#2AB392"/>
</linearGradient>
<linearGradient id="paint1_linear_1693_87" x1="68.9123" y1="27.2683" x2="68.9123" y2="35.6778" gradientUnits="userSpaceOnUse">
<stop stop-color="#4A7CBB"/>
<stop offset="1" stop-color="#2AB392"/>
</linearGradient>
<linearGradient id="paint2_linear_1693_87" x1="62.5898" y1="26.9078" x2="76.8604" y2="33.1217" gradientUnits="userSpaceOnUse">
<stop stop-color="#4A7CBB"/>
<stop offset="1" stop-color="#2AB392"/>
</linearGradient>
<linearGradient id="paint3_linear_1693_87" x1="56.9697" y1="35.2676" x2="56.9697" y2="51.1967" gradientUnits="userSpaceOnUse">
<stop stop-color="#4A7CBB"/>
<stop offset="1" stop-color="#2AB392"/>
</linearGradient>
<linearGradient id="paint4_linear_1693_87" x1="84.9373" y1="46.6487" x2="84.9373" y2="63.9287" gradientUnits="userSpaceOnUse">
<stop stop-color="#4A7CBB"/>
<stop offset="1" stop-color="#2AB392"/>
</linearGradient>
</defs>
</svg>
