<svg width="45" height="45" viewBox="0 0 45 45" fill="none" xmlns="http://www.w3.org/2000/svg">
<path d="M22.4314 24.1573C22.6455 24.1572 22.8574 24.1144 23.0548 24.0315C23.2522 23.9485 23.4311 23.827 23.581 23.6742C23.5976 23.6742 23.5976 23.6742 23.5976 23.6576H23.6143C23.8826 23.3832 24.0476 23.0244 24.0814 22.6421C24.1151 22.2598 24.0154 21.8776 23.7993 21.5605C23.5832 21.2434 23.2639 21.0109 22.8958 20.9025C22.5277 20.794 22.1334 20.8164 21.7798 20.9658C21.4263 21.1151 21.1355 21.3823 20.9566 21.7218C20.7777 22.0614 20.722 22.4524 20.7987 22.8284C20.8755 23.2044 21.08 23.5422 21.3777 23.7845C21.6753 24.0268 22.0476 24.1585 22.4314 24.1573Z" fill="#0D4CD3"/>
<path d="M9.56903 40.902C27.9297 53.5645 51.5056 34.7039 43.3248 14.0272C38.6097 1.14806 21.3319 -3.96699 10.3854 3.38063C-3.11034 11.678 -3.52686 32.0715 9.56903 40.902ZM20.7654 17.7927V9.3454C20.7654 8.90352 20.9409 8.47974 21.2534 8.16728C21.5658 7.85483 21.9896 7.67929 22.4315 7.67929C22.8734 7.67929 23.2971 7.85483 23.6096 8.16728C23.9221 8.47974 24.0976 8.90352 24.0976 9.3454V17.7927C25.0684 18.1386 25.9092 18.7752 26.5054 19.6159C27.1016 20.4566 27.4244 21.4605 27.4298 22.4911C27.4184 23.235 27.248 23.9678 26.93 24.6404L31.3451 29.0557C31.5033 29.2094 31.6291 29.3933 31.7149 29.5965C31.8008 29.7997 31.845 30.018 31.845 30.2386C31.845 30.4592 31.8008 30.6775 31.7149 30.8807C31.6291 31.0839 31.5033 31.2678 31.3451 31.4216C31.0347 31.7292 30.6159 31.9027 30.1789 31.9047C29.7369 31.9029 29.3128 31.7297 28.9959 31.4216L24.5641 26.9897C23.9008 27.3172 23.1712 27.4882 22.4314 27.4896C21.253 27.4915 20.112 27.0764 19.2103 26.3177C18.3087 25.559 17.7046 24.5058 17.5051 23.3444C17.3055 22.183 17.5234 20.9885 18.1201 19.9724C18.7168 18.9563 19.6539 18.1842 20.7654 17.7927Z" fill="#0D4CD3"/>
</svg>
