<svg width="51" height="45" viewBox="0 0 51 45" fill="none" xmlns="http://www.w3.org/2000/svg">
<path d="M3.6 7.2H41.4V3.6C41.4001 3.1272 41.3071 2.65901 41.1262 2.22218C40.9454 1.78535 40.6802 1.38844 40.3459 1.05412C40.0116 0.7198 39.6147 0.454631 39.1778 0.273762C38.741 0.0928922 38.2728 -0.000133478 37.8 1.43745e-07H3.6C3.1272 -0.000133478 2.65901 0.0928922 2.22218 0.273762C1.78535 0.454631 1.38844 0.7198 1.05412 1.05412C0.7198 1.38844 0.454631 1.78535 0.273762 2.22218C0.0928922 2.65901 -0.000133478 3.1272 1.43745e-07 3.6V4.662C0.406645 4.5198 0.841358 4.47672 1.268 4.53634C1.69465 4.59596 2.1009 4.75656 2.45299 5.00478C2.80507 5.253 3.09283 5.58168 3.29233 5.96349C3.49183 6.3453 3.59731 6.76922 3.6 7.2Z" fill="#0D4CD3"/>
<path d="M48.6 21.6H39.6C39.1272 21.5998 38.659 21.6929 38.2222 21.8737C37.7853 22.0546 37.3884 22.3198 37.0541 22.6541C36.7198 22.9884 36.4546 23.3853 36.2738 23.8222C36.0929 24.259 35.9999 24.7272 36 25.2V28.8C35.9999 29.2728 36.0929 29.741 36.2738 30.1778C36.4546 30.6146 36.7198 31.0115 37.0541 31.3458C37.3884 31.6802 37.7854 31.9453 38.2222 32.1262C38.659 32.3071 39.1272 32.4001 39.6 32.4H48.6C49.077 32.3986 49.534 32.2085 49.8712 31.8712C50.2085 31.534 50.3986 31.0769 50.4 30.6V23.4C50.3986 22.923 50.2085 22.466 49.8713 22.1287C49.534 21.7915 49.077 21.6014 48.6 21.6ZM40.5 27.9C40.2644 27.8953 40.0401 27.7984 39.8752 27.6301C39.7102 27.4618 39.6178 27.2356 39.6178 26.9999C39.6179 26.7643 39.7102 26.5381 39.8752 26.3698C40.0401 26.2016 40.2645 26.1047 40.5001 26.1C40.7356 26.1047 40.96 26.2016 41.1249 26.3699C41.2898 26.5381 41.3822 26.7644 41.3822 27C41.3822 27.2356 41.2898 27.4619 41.1249 27.6301C40.9599 27.7984 40.7356 27.8953 40.5 27.9Z" fill="#0D4CD3"/>
<path d="M34.2 28.8V25.2C34.2011 23.7682 34.7704 22.3953 35.7829 21.3829C36.7953 20.3704 38.1682 19.8011 39.6 19.8H48.6V12.6C48.6001 12.1272 48.5071 11.659 48.3262 11.2222C48.1454 10.7854 47.8802 10.3884 47.5459 10.0541C47.2116 9.71981 46.8147 9.45464 46.3778 9.27377C45.941 9.0929 45.4728 8.99988 45 9.00001H3.6C3.12304 8.99861 2.66602 8.80851 2.32876 8.47125C1.9915 8.13399 1.8014 7.67697 1.8 7.20001C1.79591 6.96401 1.69928 6.73907 1.53094 6.57363C1.36259 6.40819 1.136 6.31548 0.899973 6.31549C0.663943 6.3155 0.437358 6.40821 0.269025 6.57367C0.100692 6.73912 0.00408076 6.96407 1.33746e-07 7.20006V41.4C-0.000128756 41.8728 0.0929 42.341 0.273771 42.7778C0.454643 43.2146 0.719812 43.6116 1.05413 43.9459C1.38844 44.2802 1.78536 44.5454 2.22219 44.7262C2.65902 44.9071 3.1272 45.0001 3.6 45H45C45.4728 45.0001 45.941 44.9071 46.3778 44.7262C46.8146 44.5454 47.2116 44.2802 47.5459 43.9459C47.8802 43.6116 48.1454 43.2146 48.3262 42.7778C48.5071 42.341 48.6001 41.8728 48.6 41.4V34.2H39.6C38.1682 34.1989 36.7953 33.6296 35.7829 32.6171C34.7704 31.6047 34.2011 30.2318 34.2 28.8Z" fill="#0D4CD3"/>
</svg>
