<svg width="45" height="45" viewBox="0 0 45 45" fill="none" xmlns="http://www.w3.org/2000/svg">
<path d="M30.9975 1.28827C31.1014 1.2879 31.2044 1.30858 31.3005 1.34911C31.3965 1.38964 31.4838 1.44922 31.5573 1.52441M30.9975 1.28827L30.9045 8.30666H31.788H32.9372L31.788 7.29904V2.09729C31.7884 1.99095 31.7682 1.88558 31.7286 1.78726M30.9975 1.28827H28.3464M30.9975 1.28827H28.3464M31.5573 1.52441L31.0003 2.06866L31.5573 1.52441ZM31.5573 1.52441C31.6308 1.59961 31.689 1.68894 31.7286 1.78726M31.7286 1.78726L31.0003 2.08055L31.7286 1.78726ZM22.8633 2.10142V2.09729H22.9296H22.9369H25.858L24.301 0.731536L24.1783 0.682119L22.8633 2.10142ZM22.8633 2.10142V2.17246V2.18125V2.9791H26.8633M22.8633 2.10142L25.8619 2.10075L26.8633 2.9791M26.8633 2.9791L27.6368 2.09729L27.6391 2.0946L27.6509 2.08117L27.6514 2.08069L27.6538 2.07794L27.6568 2.07447L27.6569 2.07439L28.3464 1.28827M26.8633 2.9791L28.3464 1.28827M17.2115 12.3067V9.11049L22.4997 4.47227L24.2256 5.98617L27.788 9.11106V9.1116V12.3067V20.6179C27.7874 20.7246 27.745 20.809 27.6979 20.8572L30.5588 23.6527L27.6978 20.8572C27.6541 20.902 27.6144 20.9105 27.5922 20.9107H17.4072C17.3851 20.9105 17.3454 20.902 17.3016 20.8572C17.2545 20.8089 17.212 20.7246 17.2115 20.6179V12.3067ZM34.8263 12.0704L34.12 11.0953L34.8263 12.0704ZM34.0998 11.0675L34.0767 11.0356L34.0998 11.0675Z" stroke="#0D4CD3" stroke-width="8"/>
<path d="M44.7765 33.831C44.5298 33.3024 44.0972 32.8789 43.5579 32.6381C43.0186 32.3974 42.409 32.3556 41.8409 32.5204L32.4411 35.247C32.1158 36.2578 31.4468 37.1285 30.546 37.7136C29.6451 38.2986 28.567 38.5626 27.4917 38.4613L20.0226 37.7196C19.8915 37.7074 19.7642 37.67 19.6479 37.6094C19.5317 37.5488 19.4288 37.4662 19.3451 37.3665C19.2614 37.2667 19.1987 37.1517 19.1605 37.0281C19.1222 36.9045 19.1093 36.7747 19.1223 36.6462C19.1354 36.5176 19.1741 36.3929 19.2365 36.2791C19.2988 36.1653 19.3834 36.0647 19.4855 35.9831C19.5875 35.9015 19.705 35.8405 19.8312 35.8036C19.9573 35.7667 20.0897 35.7546 20.2206 35.768L27.6807 36.5009C30.7477 36.8122 31.8153 32.5894 29.0214 31.3967L18.1958 26.8666C17.1147 26.5444 15.9775 26.444 14.8551 26.5716C13.7327 26.6992 12.6491 27.0521 11.6716 27.6084L0 34.2138L4.59844 42.0291L23.7032 44.8814C25.9714 45.2159 28.2894 44.8388 30.3264 43.804L43.6759 36.9788C44.2356 36.6926 44.6619 36.2064 44.8668 35.6206C45.0716 35.0348 45.0393 34.3941 44.7765 33.831Z" fill="#0D4CD3"/>
</svg>
