<svg width="1023" height="873" viewBox="0 0 1023 873" fill="none" xmlns="http://www.w3.org/2000/svg">
<g filter="url(#filter0_f_1905_185)">
<ellipse cx="317.913" cy="554.726" rx="154.381" ry="154.929" fill="#27AE60" fill-opacity="0.3"/>
</g>
<g filter="url(#filter1_f_1905_185)">
<circle cx="632.697" cy="389.396" r="183.396" fill="#278EAE" fill-opacity="0.3"/>
</g>
<path opacity="0.2" d="M666.327 275.886C603.136 301.011 597.083 365.24 540.187 370.752C490.611 375.555 471.766 329.062 436.98 337.392C383.991 350.083 350.677 476.414 371.959 580.291C393.933 687.55 486.261 830.138 639.222 839.867C810.951 850.792 940.892 686.732 948.825 542.76C949.683 527.189 954.749 396.734 855.015 319.669C850.031 315.819 751.751 241.918 666.327 275.884V275.886Z" fill="#F4F7FA"/>
<path d="M875.127 477.409C884.346 478.185 892.502 470.722 893.343 460.739C894.183 450.756 887.392 442.036 878.172 441.259C877.694 441.218 877.22 441.214 876.749 441.216C876.31 436.061 875.505 431.01 874.348 426.103C874.785 425.924 875.224 425.738 875.654 425.516C884.059 421.197 887.726 410.374 883.843 401.34C879.963 392.306 870.003 388.486 861.598 392.803C861.16 393.028 860.742 393.282 860.327 393.543C857.583 389.4 854.545 385.497 851.238 381.871C851.544 381.473 851.845 381.069 852.124 380.637C857.462 372.38 855.658 361.095 848.094 355.432C840.53 349.768 830.071 351.871 824.734 360.126C824.461 360.548 824.217 360.985 823.981 361.423C819.712 359.363 815.253 357.656 810.639 356.321C810.721 355.819 810.797 355.313 810.84 354.796C811.68 344.813 813.5 333.543 804.27 332.912C782.919 331.45 778.296 342.001 777.456 351.984C777.413 352.5 777.4 353.013 777.398 353.521C772.624 354.066 767.944 355.001 763.389 356.319C763.23 355.848 763.064 355.378 762.865 354.915C758.984 345.881 759.683 339.857 750.863 343.241C731.625 350.623 728.55 361.522 732.43 370.555C732.633 371.027 732.863 371.476 733.097 371.921C729.229 374.944 725.58 378.283 722.183 381.91C721.82 381.584 721.449 381.264 721.054 380.969C713.49 375.305 703.031 377.408 697.693 385.665C692.356 393.922 694.16 405.206 701.724 410.87C702.111 411.161 702.511 411.417 702.912 411.667C700.951 416.312 699.313 421.158 698.017 426.168C697.554 426.086 697.087 426.012 696.609 425.971C687.391 425.194 679.234 432.658 678.394 442.641C677.554 452.624 684.345 461.344 693.565 462.121C694.043 462.162 694.516 462.166 694.986 462.164C695.426 467.319 696.23 472.37 697.386 477.277C696.947 477.456 696.511 477.642 696.08 477.864C687.676 482.183 684.009 493.006 687.891 502.04C691.774 511.073 701.732 514.894 710.136 510.575C710.575 510.35 710.995 510.096 711.407 509.835C714.152 513.978 717.19 517.881 720.496 521.509C720.191 521.907 719.889 522.311 719.611 522.743C714.273 531 716.077 542.285 723.641 547.948C731.205 553.612 747.577 551.021 752.915 542.764C753.187 542.34 747.515 542.395 747.753 541.957C752.023 544.017 756.481 545.724 761.096 547.059C761.014 547.561 760.938 548.067 760.895 548.584C760.054 558.567 766.846 567.289 776.066 568.064C785.284 568.841 793.44 561.377 794.281 551.394C794.324 550.878 794.334 550.365 794.338 549.857C799.112 549.314 803.792 548.377 808.347 547.059C808.507 547.53 808.673 548 808.872 548.463C812.754 557.497 822.713 561.318 831.117 556.999C839.521 552.679 843.189 541.856 839.306 532.822C839.103 532.351 838.874 531.902 838.64 531.457C842.508 528.434 846.157 525.094 849.553 521.468C849.916 521.794 850.287 522.114 850.683 522.409C858.247 528.073 868.705 525.972 874.043 517.715C879.381 509.458 877.577 498.174 870.013 492.51C869.626 492.221 869.226 491.965 868.824 491.715C870.786 487.07 872.424 482.224 873.719 477.214C874.182 477.296 874.65 477.37 875.127 477.411V477.409ZM780.342 517.313C746.87 514.495 722.21 482.828 725.262 446.585C728.314 410.341 757.925 383.246 791.395 386.065C824.867 388.883 849.527 420.549 846.474 456.793C843.422 493.037 813.814 520.132 780.34 517.313H780.342Z" fill="#BFC6D1"/>
<path d="M875.656 425.516C884.061 421.197 887.728 410.374 883.845 401.34C879.963 392.307 870.005 388.486 861.6 392.805C861.162 393.03 860.743 393.284 860.329 393.545C857.585 389.402 854.547 385.499 851.24 381.873C851.546 381.475 851.847 381.071 852.126 380.639C857.464 372.382 861.563 356.006 853.46 351.147C838.078 341.927 830.073 351.873 824.738 360.13C824.465 360.552 824.221 360.989 823.985 361.425C819.715 359.365 815.259 357.66 810.643 356.323C810.725 355.821 810.801 355.315 810.844 354.798C811.301 349.366 809.487 344.317 806.262 340.709C804.206 356.319 802.271 371.941 800.49 387.582C829.217 394.814 849.248 423.92 846.478 456.795C844.131 484.653 826.09 507.089 802.669 514.708C802.722 517.754 802.802 520.806 802.773 523.854C802.697 532.13 802.16 540.421 801.615 548.705C803.886 548.246 806.135 547.698 808.351 547.057C808.511 547.528 808.677 547.998 808.876 548.461C812.756 557.495 821.429 562.986 836.891 555.73C845.445 551.716 843.19 541.854 839.31 532.822C839.107 532.351 838.877 531.902 838.644 531.457C842.512 528.434 846.161 525.095 849.557 521.468C849.92 521.794 850.291 522.114 850.687 522.409C858.251 528.073 875.217 524.894 880.555 516.637C885.893 508.38 877.579 498.174 870.015 492.51C869.627 492.219 869.228 491.963 868.826 491.715C870.788 487.07 872.426 482.224 873.721 477.216C874.184 477.298 874.652 477.372 875.129 477.413C884.348 478.19 892.504 470.726 893.344 460.743C894.185 450.76 887.394 442.038 878.173 441.263C877.696 441.222 877.222 441.218 876.753 441.222C876.314 436.067 875.508 431.016 874.352 426.109C874.789 425.928 875.226 425.744 875.656 425.522V425.516Z" fill="#BFC6D1"/>
<path d="M883.729 475.004C892.947 475.781 901.103 468.317 901.944 458.334C902.784 448.352 895.993 439.629 886.773 438.855C886.295 438.814 885.822 438.809 885.352 438.814C884.913 433.658 884.108 428.607 882.952 423.7C883.388 423.522 883.827 423.335 884.255 423.114C892.66 418.795 896.327 407.971 892.445 398.938C888.564 389.904 878.604 386.083 870.2 390.402C869.761 390.627 869.343 390.882 868.929 391.142C866.184 386.999 863.146 383.096 859.84 379.468C860.145 379.07 860.446 378.667 860.725 378.234C866.063 369.977 864.259 358.693 856.695 353.029C849.131 347.365 838.673 349.468 833.335 357.723C833.062 358.147 832.818 358.582 832.583 359.019C828.313 356.959 823.854 355.251 819.24 353.917C819.322 353.414 819.398 352.908 819.441 352.389C820.281 342.407 813.49 333.686 804.27 332.91C795.052 332.133 786.895 339.596 786.055 349.577C786.012 350.094 786.001 350.606 785.997 351.114C781.223 351.658 776.543 352.594 771.989 353.912C771.829 353.441 771.663 352.972 771.464 352.508C767.583 343.475 757.623 339.654 749.219 343.973C740.814 348.292 737.147 359.115 741.03 368.149C741.233 368.62 741.46 369.069 741.696 369.514C737.828 372.537 734.179 375.877 730.782 379.503C730.419 379.177 730.048 378.857 729.653 378.562C722.089 372.898 711.63 375.001 706.293 383.258C700.955 391.515 702.759 402.8 710.323 408.463C710.71 408.754 711.11 409.011 711.512 409.259C709.55 413.904 707.912 418.75 706.616 423.759C706.153 423.677 705.686 423.604 705.208 423.563C695.99 422.786 687.834 430.249 686.993 440.232C686.153 450.215 692.944 458.935 702.164 459.712C702.642 459.753 703.115 459.757 703.585 459.753C704.025 464.908 704.829 469.959 705.985 474.867C705.549 475.045 705.112 475.231 704.681 475.453C696.277 479.772 692.61 490.595 696.492 499.629C700.373 508.663 710.333 512.484 718.737 508.165C719.176 507.939 719.594 507.685 720.008 507.425C722.753 511.567 725.791 515.47 729.097 519.098C728.792 519.496 728.491 519.9 728.212 520.332C722.874 528.589 724.678 539.874 732.242 545.538C739.806 551.201 750.264 549.098 755.602 540.843C755.875 540.419 756.119 539.984 756.354 539.548C760.624 541.608 765.083 543.316 769.697 544.65C769.615 545.152 769.539 545.658 769.496 546.177C768.656 556.16 775.447 564.88 784.667 565.657C793.885 566.434 802.042 558.97 802.882 548.987C802.925 548.471 802.937 547.958 802.939 547.45C807.714 546.907 812.393 545.97 816.948 544.652C817.108 545.124 817.274 545.593 817.473 546.056C821.355 555.09 831.314 558.911 839.718 554.592C848.123 550.273 851.79 539.449 847.907 530.416C847.704 529.944 847.475 529.495 847.241 529.051C851.109 526.027 854.758 522.688 858.155 519.062C858.517 519.388 858.888 519.707 859.284 520.002C866.848 525.666 877.306 523.565 882.644 515.308C887.982 507.051 886.178 495.767 878.614 490.103C878.227 489.814 877.827 489.558 877.425 489.308C879.387 484.663 881.025 479.817 882.32 474.807C882.784 474.889 883.251 474.963 883.729 475.004ZM788.943 514.909C755.471 512.09 730.811 480.424 733.863 444.18C736.916 407.937 766.526 380.841 799.996 383.66C833.468 386.479 858.128 418.145 855.076 454.388C852.023 490.632 822.415 517.727 788.941 514.909H788.943Z" fill="#D8DEE8"/>
<path d="M580.544 682.603C541.586 682.48 491.978 676.765 444.626 654.78C432.542 649.17 357.894 614.509 367.088 580.444C370.327 568.444 381.234 566.653 385.844 550.686C391.307 531.766 379.492 522.171 371.468 498.444C366.682 484.285 352.673 442.853 377.638 420.237C392.555 406.723 420.716 400.538 442.051 405.743C473.346 413.376 483.827 444.016 500.665 496.164C515.592 542.393 511.527 553.663 522.855 586.764C531.263 611.329 547.217 645.197 580.542 682.601L580.544 682.603Z" fill="#AAB9DE"/>
<mask id="mask0_1905_185" style="mask-type:luminance" maskUnits="userSpaceOnUse" x="363" y="403" width="218" height="280">
<path d="M580.544 682.603C541.586 682.48 491.978 676.765 444.626 654.78C432.542 649.17 357.894 614.509 367.088 580.444C370.327 568.444 381.234 566.653 385.844 550.686C391.307 531.766 379.492 522.171 371.468 498.444C366.682 484.285 352.673 442.853 377.638 420.237C392.555 406.723 420.716 400.538 442.051 405.743C473.346 413.376 483.827 444.016 500.665 496.164C515.592 542.393 511.527 553.663 522.855 586.764C531.263 611.329 547.217 645.197 580.542 682.601L580.544 682.603Z" fill="white"/>
</mask>
<g mask="url(#mask0_1905_185)">
<g style="mix-blend-mode:soft-light" opacity="0.5">
<path d="M680.621 704.666C661.016 704.666 641.829 702.319 623.182 697.625C570.736 684.42 525.465 652.497 488.623 602.743C450.325 551.023 430.728 492.975 421.033 453.386C414.276 425.801 415.926 395.375 425.938 362.954L427.34 363.387C417.408 395.551 415.766 425.713 422.457 453.037C434.246 501.172 483.588 660.963 623.538 696.2C662.652 706.048 704.172 705.498 746.944 694.562L747.307 695.983C724.676 701.77 702.388 704.664 680.617 704.664L680.621 704.666Z" fill="white"/>
<path d="M448.154 531.614L447.604 531.251C364.161 476.102 365.636 413.64 368.076 395.811C368.123 395.46 368.158 395.233 368.162 395.134L369.63 395.142C369.63 395.28 369.605 395.473 369.531 396.01C367.127 413.585 365.692 475.073 447.856 529.656C449.937 527.014 459.487 514.408 467.455 496.139C475.7 477.235 483.887 448.22 476.073 417.342L477.495 416.982C485.416 448.275 477.13 477.641 468.783 496.764C459.75 517.464 448.687 530.97 448.576 531.104L448.156 531.612L448.154 531.614Z" fill="white"/>
<path d="M458.94 604.272C424.242 604.272 400.222 595.054 385.201 586.251C364.581 574.17 355.953 560.196 355.869 560.056L357.124 559.296C357.208 559.433 365.69 573.143 386.025 585.034C404.752 595.986 437.648 607.588 488.081 600.769C490.143 596.314 510.507 550.481 506.487 488.819L502.213 423.251L503.676 423.156L507.95 488.725C512.188 553.737 489.465 601.291 489.235 601.765L489.063 602.117L488.674 602.171C477.998 603.632 468.095 604.274 458.938 604.274L458.94 604.272Z" fill="white"/>
</g>
</g>
<path d="M953.998 796.116L402.653 791.35V805.451C402.653 809.278 405.058 812.533 408.315 813.114L564.219 840.881C566.07 841.211 567.946 841.297 569.813 841.141L948.009 809.481C951.385 809.198 954 805.935 954 802.001V796.114L953.998 796.116Z" fill="#BFC8D6"/>
<path d="M751.103 773.519L400.679 799.314C394.409 799.775 389.311 794.87 389.311 788.358V527.406C389.311 520.894 394.409 515.613 400.679 515.613H751.103C756.269 515.613 760.446 520.387 760.446 526.275V762.171C760.446 768.058 756.269 773.139 751.103 773.519Z" fill="#AAB9DE"/>
<path d="M756.688 773.519L406.265 799.314C399.994 799.775 394.896 794.87 394.896 788.358V527.406C394.896 520.894 399.994 515.613 406.265 515.613H756.688C761.854 515.613 766.032 520.387 766.032 526.275V762.171C766.032 768.058 761.854 773.139 756.688 773.519Z" fill="#215EAB"/>
<path d="M745.773 756.888L419.388 779.295C414.286 779.646 410.139 775.62 410.139 770.302V541.839C410.139 536.522 414.286 532.192 419.388 532.172L745.773 530.766C750.035 530.747 753.483 534.658 753.483 539.502V747.592C753.483 752.436 750.035 756.597 745.773 756.89V756.888Z" fill="#E9EFF8"/>
<path d="M593.854 522.751C593.854 525.176 592.05 527.148 589.823 527.154C587.593 527.16 585.783 525.196 585.783 522.767C585.783 520.338 587.593 518.366 589.823 518.364C592.052 518.364 593.854 520.326 593.854 522.751Z" fill="white"/>
<path d="M773.201 772.088L402.653 799.24L564.219 828.016C566.07 828.346 567.946 828.433 569.813 828.277L954 796.116L779.096 772.273C777.141 772.006 775.166 771.945 773.201 772.088Z" fill="#215EAB"/>
<path d="M456.72 799.474L765.212 776.532L860.688 789.442L554.853 813.966L456.72 799.474Z" fill="#92AFF2"/>
<path d="M837.641 469.85L836.18 675.234C836.114 684.428 829.538 692.137 821.164 692.443L451.029 703.68L446.382 706.062L444.056 706.197C433.472 706.583 424.896 698.467 424.896 688.054V455.339C424.896 445.416 432.621 437.573 442.455 437.114C443.024 437.081 443.584 437.081 444.166 437.104L822.757 452.459C831.162 452.799 837.711 460.587 837.643 469.848L837.641 469.85Z" fill="#215EAB"/>
<path d="M840.917 469.957L839.445 675.167C839.38 684.354 832.578 692.045 824.219 692.351L447.811 706.058C437.25 706.444 428.544 698.322 428.544 687.921L428.559 455.485C428.559 445.572 436.311 437.731 446.122 437.272C446.692 437.239 447.272 437.235 447.852 437.258L825.857 452.581C834.247 452.921 840.983 460.7 840.915 469.955L840.917 469.957Z" fill="#E9EFF8"/>
<path d="M840.917 469.957L840.796 486.709L428.557 474.469V455.487C428.557 445.574 436.309 437.733 446.122 437.274C446.692 437.241 447.272 437.237 447.852 437.26L825.857 452.582C834.247 452.923 840.983 460.702 840.915 469.957H840.917Z" fill="#215EAB"/>
<path d="M459.602 456.559C459.602 459.812 456.933 462.358 453.637 462.247C450.336 462.137 447.657 459.402 447.657 456.139C447.657 452.876 450.34 450.328 453.643 450.448C456.939 450.569 459.604 453.304 459.602 456.557V456.559Z" fill="white"/>
<path d="M481.323 457.322C481.319 460.554 478.684 463.086 475.431 462.977C472.172 462.869 469.528 460.151 469.53 456.908C469.532 453.665 472.182 451.133 475.442 451.252C478.697 451.371 481.327 454.089 481.323 457.322Z" fill="white"/>
<path d="M502.774 458.076C502.77 461.288 500.166 463.804 496.952 463.697C493.734 463.588 491.122 460.889 491.126 457.666C491.131 454.444 493.748 451.927 496.969 452.046C500.183 452.164 502.78 454.864 502.776 458.076H502.774Z" fill="white"/>
<path d="M456.313 560.79L549.031 510.528L636.734 561.723L456.313 560.79Z" fill="url(#paint0_linear_1905_185)"/>
<path d="M484.419 567.543C484.419 568.869 483.335 569.941 482 569.939L466.21 569.898C464.862 569.894 463.769 568.81 463.771 567.475C463.771 566.141 464.866 565.063 466.214 565.069L482.005 565.132C483.339 565.139 484.419 566.217 484.419 567.545V567.543Z" fill="url(#paint1_linear_1905_185)"/>
<path d="M484.329 653.29C484.329 654.612 483.247 655.709 481.915 655.74L466.149 656.09C464.802 656.121 463.712 655.066 463.712 653.735C463.712 652.405 464.807 651.302 466.151 651.275L481.919 650.947C483.251 650.919 484.331 651.97 484.329 653.292V653.29Z" fill="url(#paint2_linear_1905_185)"/>
<path d="M469.95 648.801L464.993 648.846L465.046 572.288L470.009 572.323L469.95 648.801Z" fill="url(#paint3_linear_1905_185)"/>
<path d="M476.77 648.685L473.049 648.74L473.113 572.323L476.84 572.35L476.77 648.685Z" fill="url(#paint4_linear_1905_185)"/>
<path d="M482.355 648.547L478.631 648.623L478.703 572.344L482.431 572.352L482.355 648.547Z" fill="url(#paint5_linear_1905_185)"/>
<path d="M533.809 567.703C533.807 569.011 532.753 570.068 531.458 570.064L516.119 570.025C514.809 570.021 513.749 568.953 513.751 567.637C513.751 566.321 514.817 565.26 516.127 565.266L531.468 565.327C532.765 565.333 533.813 566.397 533.811 567.705L533.809 567.703Z" fill="url(#paint6_linear_1905_185)"/>
<path d="M533.649 652.229C533.647 653.533 532.595 654.613 531.3 654.642L515.981 654.982C514.673 655.011 513.614 653.972 513.616 652.66C513.616 651.348 514.68 650.264 515.987 650.235L531.306 649.915C532.602 649.888 533.649 650.924 533.647 652.227L533.649 652.229Z" fill="url(#paint7_linear_1905_185)"/>
<path d="M525.958 647.666L521.584 647.763L521.711 572.428H526.09L525.958 647.666Z" fill="url(#paint8_linear_1905_185)"/>
<path d="M532.208 647.527L528.457 647.593L528.592 572.418L532.347 572.43L532.208 647.527Z" fill="url(#paint9_linear_1905_185)"/>
<path d="M519.001 647.527L515.25 647.593L515.385 572.418L519.14 572.43L519.001 647.527Z" fill="url(#paint10_linear_1905_185)"/>
<path d="M582.376 567.862C582.372 569.152 581.349 570.193 580.089 570.191L565.184 570.152C563.911 570.148 562.882 569.094 562.884 567.799C562.888 566.501 563.922 565.456 565.194 565.46L580.099 565.519C581.36 565.524 582.378 566.573 582.374 567.862H582.376Z" fill="url(#paint11_linear_1905_185)"/>
<path d="M582.15 651.183C582.146 652.468 581.126 653.532 579.867 653.561L564.983 653.893C563.712 653.922 562.683 652.897 562.687 651.603C562.691 650.31 563.724 649.242 564.995 649.215L579.879 648.906C581.138 648.879 582.155 649.9 582.15 651.185V651.183Z" fill="url(#paint12_linear_1905_185)"/>
<path d="M574.763 646.678L570.989 646.768L571.178 572.524H574.956L574.763 646.678Z" fill="url(#paint13_linear_1905_185)"/>
<path d="M569.105 646.678L565.33 646.768L565.518 572.524H569.298L569.105 646.678Z" fill="url(#paint14_linear_1905_185)"/>
<path d="M580.429 646.569L577.281 646.629L577.478 572.528L580.63 572.541L580.429 646.569Z" fill="url(#paint15_linear_1905_185)"/>
<path d="M629.025 568.015C629.021 569.285 628.025 570.315 626.799 570.31L612.307 570.274C611.069 570.269 610.07 569.232 610.072 567.953C610.076 566.674 611.083 565.643 612.321 565.647L626.813 565.704C628.039 565.708 629.027 566.744 629.023 568.015H629.025Z" fill="url(#paint16_linear_1905_185)"/>
<path d="M628.736 650.179C628.732 651.446 627.736 652.495 626.512 652.524L612.04 652.846C610.804 652.872 609.805 651.862 609.81 650.587C609.814 649.312 610.82 648.258 612.054 648.231L626.528 647.93C627.752 647.906 628.74 648.912 628.736 650.179Z" fill="url(#paint17_linear_1905_185)"/>
<path d="M615.788 645.86L612.623 645.917L612.862 572.592L616.029 572.598L615.788 645.86Z" fill="url(#paint18_linear_1905_185)"/>
<path d="M621.008 645.73L617.841 645.802L618.087 572.6L621.258 572.604L621.008 645.73Z" fill="url(#paint19_linear_1905_185)"/>
<path d="M626.557 645.612L622.752 645.692L623.005 572.598L626.811 572.602L626.557 645.612Z" fill="url(#paint20_linear_1905_185)"/>
<path d="M631.643 669.595L460.643 674.304L460.651 659.842L631.692 655.841L631.643 669.595Z" fill="url(#paint21_linear_1905_185)"/>
<path d="M638.622 669.396L452.604 674.498L452.608 666.649L638.649 661.963L638.622 669.396Z" fill="url(#paint22_linear_1905_185)"/>
<path d="M822.056 548.036L670.313 546.548L670.379 531.188L822.159 533.39L822.056 548.036Z" fill="url(#paint23_linear_1905_185)"/>
<path d="M756.139 600.535L670.082 601.09L670.135 588.599L756.209 588.371L756.139 600.535Z" fill="url(#paint24_linear_1905_185)"/>
<path d="M820.233 623.896L669.977 626.054L670.026 614.143L820.311 612.529L820.233 623.896Z" fill="url(#paint25_linear_1905_185)"/>
<path d="M820.051 650.398L669.858 653.83L669.911 641.362L820.133 638.503L820.051 650.398Z" fill="url(#paint26_linear_1905_185)"/>
<path d="M866.621 590.891L861.412 591.932C861.412 591.932 834.061 626.837 837.97 640.12C841.877 653.405 861.412 643.246 861.412 643.246L866.621 590.891Z" fill="#144D94"/>
<path d="M900.946 839.412C901.826 840.127 901.987 841.91 902.092 843.077C902.139 843.597 902.164 843.858 902.104 844.042C901.68 845.385 899.077 845.526 894.993 845.942C888.542 846.603 886.622 847.109 886.117 846.15C885.644 845.25 886.79 843.776 886.919 843.614C887.612 842.741 888.462 842.423 890.109 841.882C893.153 840.879 895.209 840.332 895.832 840.166C899.72 839.129 900.37 838.942 900.946 839.412Z" fill="url(#paint27_linear_1905_185)"/>
<path d="M897.111 833.519L896.465 840.869C896.647 841.224 898.832 842.29 900.569 841.376L902.227 834.15L897.111 833.519Z" fill="url(#paint28_linear_1905_185)"/>
<path d="M848.196 833.557C849.25 834.722 849.49 836.864 848.574 837.919C847.674 838.957 846.319 838.18 842.479 838.293C838.365 838.416 837.291 839.387 834.497 838.616C833.368 838.305 831.373 837.546 831.412 836.741C831.439 836.173 832.454 835.88 835.846 834.744C840.659 833.131 840.639 833.043 841.661 832.875C844.23 832.45 846.807 832.022 848.199 833.557H848.196Z" fill="url(#paint29_linear_1905_185)"/>
<path d="M845.561 826.848L843.497 833.711C843.652 834.08 845.749 835.308 847.549 834.529L850.614 827.867L845.559 826.846L845.561 826.848Z" fill="url(#paint30_linear_1905_185)"/>
<path d="M863.893 676.54C863.598 699.605 862.023 725.538 858.247 753.713C854.515 781.561 849.285 806.721 843.579 828.845C846.211 829.554 848.843 830.261 851.475 830.97C858.153 824.743 866.578 814.941 870.643 801.088C873.166 792.49 872.326 788.071 873.925 777.496C876.473 760.658 881.634 751.836 886.968 738.259C891.763 726.059 897.428 708.151 900.466 684.217C888.274 681.659 876.083 679.098 863.891 676.54H863.893Z" fill="#B53931"/>
<path d="M889.241 679.249C890.852 708.583 892.177 738.464 893.181 768.873C893.935 791.693 894.489 814.223 894.856 836.455C897.545 836.787 900.233 837.12 902.922 837.452C905.519 832.614 908.971 825.218 911.335 815.739C914.206 804.227 913.54 797.391 914.801 785.459C916.213 772.077 918.265 769.16 921.902 752.28C929.279 718.018 932.969 700.888 924.739 690.233C922.068 686.772 913.692 678.095 889.241 679.254V679.249Z" fill="#CA534B"/>
<path d="M926.479 591.788C919.524 589.833 909.33 587.545 896.846 586.84C878.44 585.799 869.232 585.339 863.831 589.57C847.073 602.694 862.954 649.598 856.982 674.244C851.958 694.982 851.774 695.343 851.774 695.343C850.587 697.662 848.662 700.884 849.429 704.721C850.033 707.739 852.317 711.207 855.421 712.275C861.869 714.493 865.565 704.182 876.259 701.075C887.437 697.826 899.943 704.281 915.756 712.443C925.821 717.637 929.257 720.952 932.782 719.308C939.573 716.141 937.708 698.785 936.95 691.696C933.938 663.533 930.548 630.561 926.479 591.788Z" fill="#215EAB"/>
<path d="M880.295 639.6C880.781 639.491 881.648 636.254 879.514 635.301C869.876 631.002 862.418 639.513 861.42 642.131L860.422 644.749C860.422 644.749 865.208 645.122 868.177 644.126C871.145 643.127 876.337 640.481 880.295 639.6Z" fill="#FFB27D"/>
<path d="M853.963 651.787L870.919 652.642C871.569 652.675 872.344 651.872 872.184 651.324L864.263 625.693C864.138 625.266 863.706 624.981 863.222 625.008L846.96 625.365C846.432 625.395 846.141 626.439 846.284 626.955L853.022 651.058C853.133 651.455 853.532 651.767 853.963 651.787Z" fill="url(#paint31_linear_1905_185)"/>
<path d="M854.27 651.24L871.319 652.04C871.973 652.071 872.424 651.603 872.264 651.054L864.649 624.98C864.524 624.551 864.087 624.268 863.601 624.297L847.317 625.26C846.784 625.291 846.426 625.804 846.571 626.322L853.327 650.511C853.438 650.908 853.842 651.22 854.272 651.24H854.27Z" fill="url(#paint32_linear_1905_185)"/>
<g style="mix-blend-mode:multiply" opacity="0.3">
<path d="M862.877 635.694C862.373 638.066 860.239 637.555 858.499 640.425C856.289 644.07 858.407 647.286 856.381 648.621C855.764 649.029 854.719 649.272 852.841 648.78L853.325 650.511C853.436 650.908 853.84 651.22 854.27 651.24L871.319 652.04C871.973 652.071 872.424 651.603 872.264 651.054L864.649 624.98C864.523 624.551 864.087 624.268 863.601 624.297L861.156 624.442C860.869 625.338 860.664 626.373 860.684 627.517C860.762 631.449 863.47 632.915 862.877 635.692V635.694Z" fill="url(#paint33_linear_1905_185)"/>
</g>
<path d="M846.502 633.78C846.405 633.37 846.608 632.948 846.914 632.925C848.154 632.835 851.032 632.8 852.621 634.176C854.685 635.963 857.354 639.227 855.105 640.873L853.006 642.41C852.91 642.48 852.805 642.502 852.698 642.469C851.952 642.238 848.814 641.252 848.472 641.008C848.16 640.784 846.963 635.762 846.5 633.778L846.502 633.78Z" fill="#FFB27D"/>
<path d="M887.459 572.831C887.447 574.231 890.928 581.242 895.622 584.64C900.357 588.07 906.316 587.883 908.091 588.324C912.207 589.345 912.736 589.316 912.828 589.726C913.271 591.718 902.048 598.51 890.452 596.874C883.356 595.872 876.899 591.823 877.294 589.697C877.694 587.557 884.782 588.705 886.896 584.835C888.365 582.142 886.717 578.319 884.77 575.154C886.656 571.62 885.576 576.369 887.461 572.835L887.459 572.831Z" fill="#FFB27D"/>
<path d="M875.003 576.07C872.537 574.776 870.78 571.31 871.473 568.266C872.069 565.646 874.301 564.254 875.638 563.42C879.51 561.005 885.492 560.265 889.077 563.184C891.201 564.915 891.096 570.65 891.131 571.655C891.17 572.792 890.581 573.467 890.235 574.506C889.753 575.945 889.013 578.224 887.833 582.006C887.275 581.32 886.533 580.493 885.584 579.667C885.219 579.35 883.772 578.116 882.091 577.322C878.721 575.73 877.341 577.294 875.005 576.068L875.003 576.07Z" fill="#233862"/>
<path d="M890.245 578.155C890.245 578.155 889.647 583.85 884.118 586.043C879.168 588.007 873.363 577.571 875.347 573.834C876.009 572.588 877.907 571.3 879.795 570.976C880.91 570.786 881.437 571.036 883.251 570.69C884.926 570.37 885.268 570.005 885.898 570.171C886.685 570.378 887.648 571.343 888.2 574.937C888.677 573.576 889.608 572.698 890.561 572.696C890.713 572.696 891.149 572.764 891.496 573.016C892.75 573.928 892.371 576.031 890.245 578.155Z" fill="#FFB27D"/>
<path d="M885.811 569.423C885.662 569.705 886.779 570.234 887.41 571.431C888.638 573.756 887.585 577.743 885.25 579.147C883.868 579.977 883.056 579.293 880.541 580.174C878.983 580.719 877.84 581.494 877.143 582.031C877.624 584.991 879.561 587.25 881.872 587.629C884.358 588.037 886.379 586.119 887.224 585.315C887.79 584.778 889.602 583.06 889.79 580.564C889.987 577.96 888.255 577.269 888.937 575.248C889.282 574.23 890.026 573.506 890.249 571.743C890.309 571.263 890.313 570.864 890.305 570.601C888.443 569.876 886.027 569.017 885.811 569.425V569.423Z" fill="#233862"/>
<path d="M912.204 599.746C915.014 595.482 920.606 591.3 925.749 591.671C940.768 592.756 959.281 633.214 946.588 649.238C936.898 661.469 906.964 662.064 879.644 640.903V633.87C893.087 636.221 904.232 637.783 912.464 638.818C917.599 639.464 922.713 640.048 923.664 638.037C925.105 634.995 914.821 630.641 910.9 619.283C910.359 617.717 906.921 607.757 912.202 599.748L912.204 599.746Z" fill="#144D94"/>
<path d="M393.816 825.819V841.59C393.816 846.686 425.65 850.817 464.917 850.817C504.185 850.817 536.019 846.686 536.019 841.59V825.819H393.816Z" fill="#FFA412"/>
<path d="M536.019 825.819C536.019 830.915 504.185 835.045 464.917 835.045C425.65 835.045 393.816 830.915 393.816 825.819C393.816 820.723 425.65 816.592 464.917 816.592C504.185 816.592 536.019 820.723 536.019 825.819Z" fill="url(#paint34_linear_1905_185)"/>
<path d="M464.917 835.683C430.139 835.683 393.775 832.36 393.775 825.954C393.775 825.602 393.9 824.985 394.253 824.985C394.605 824.985 394.453 825.469 394.453 825.821C394.453 829.884 423.393 834.412 464.919 834.412C506.446 834.412 535.385 829.886 535.385 825.821C535.385 825.469 535.445 825.141 535.797 825.141C536.15 825.141 536.064 825.61 536.064 825.963C536.064 832.371 499.697 835.687 464.919 835.687L464.917 835.683Z" fill="#FFC76C"/>
<path d="M458.198 826.334C458.895 825.85 459.637 825.374 460.432 824.905C461.219 824.436 462.244 824.011 463.486 823.632C464.735 823.253 466.299 822.945 468.172 822.705C470.048 822.466 472.393 822.341 475.193 822.326C477.942 822.312 480.519 822.4 482.931 822.589C485.338 822.775 487.461 823.058 489.296 823.431C491.123 823.804 492.615 824.267 493.763 824.817C494.905 825.368 495.585 826 495.804 826.709L503.811 826.791C504.391 826.795 504.906 826.842 505.347 826.932C505.793 827.024 506.011 827.139 506.011 827.279L506.015 827.939L495.722 827.84C495.362 828.648 494.441 829.386 492.963 830.056C491.492 830.727 489.612 831.307 487.32 831.797L483.571 831.276C483.235 831.225 482.96 831.159 482.743 831.079C482.525 831.001 482.421 830.915 482.421 830.821C482.421 830.694 482.71 830.55 483.29 830.388C483.87 830.226 484.524 830.023 485.254 829.784C485.984 829.544 486.697 829.261 487.402 828.935C488.101 828.609 488.568 828.22 488.81 827.765L464.517 827.525C463.88 827.994 463.158 828.455 462.371 828.908C461.576 829.361 460.528 829.769 459.221 830.132C457.911 830.495 456.283 830.788 454.332 831.016C452.374 831.241 449.924 831.362 446.96 831.376C444.734 831.387 442.565 831.303 440.444 831.124C438.32 830.944 436.434 830.675 434.788 830.319C433.14 829.96 431.791 829.517 430.73 828.99C429.676 828.461 429.086 827.857 428.963 827.17L422.372 827.102C421.792 827.098 421.278 827.053 420.814 826.965C420.359 826.877 420.128 826.76 420.128 826.615L420.124 825.954L429.135 826.041C429.534 825.346 430.35 824.741 431.599 824.226C432.847 823.71 434.372 823.253 436.172 822.851L439.189 823.265C440.106 823.394 440.561 823.544 440.563 823.718C440.563 823.812 440.378 823.927 439.999 824.064C439.612 824.204 439.167 824.368 438.646 824.561C438.134 824.753 437.627 824.979 437.146 825.237C436.656 825.495 436.291 825.788 436.047 826.116L458.196 826.338L458.198 826.334ZM435.965 827.232C436.145 827.664 436.549 828.035 437.162 828.349C437.775 828.662 438.535 828.921 439.452 829.121C440.368 829.324 441.397 829.472 442.537 829.566C443.685 829.661 444.884 829.706 446.134 829.7C447.594 829.693 448.867 829.63 449.953 829.511C451.033 829.392 451.985 829.23 452.811 829.027C453.629 828.822 454.35 828.586 454.959 828.318C455.568 828.047 456.111 827.756 456.601 827.441L435.965 827.232ZM488.851 826.641C488.671 826.203 488.228 825.819 487.543 825.489C486.857 825.159 485.977 824.882 484.911 824.659C483.846 824.433 482.601 824.267 481.179 824.159C479.764 824.05 478.198 823.999 476.487 824.007C474.968 824.015 473.65 824.083 472.555 824.21C471.46 824.339 470.509 824.511 469.697 824.729C468.894 824.946 468.203 825.198 467.645 825.487C467.082 825.776 466.553 826.086 466.071 826.414L488.853 826.641H488.851Z" fill="#FCB048"/>
<path d="M464.928 817.591C433.224 817.591 400.213 820.381 394.935 825.78C395.142 825.971 395.333 826.174 395.513 826.387C399.963 822.638 427.22 818.862 464.93 818.862C502.639 818.862 531.3 822.834 534.656 826.676C534.82 826.465 534.996 826.264 535.187 826.073C530.824 820.481 497.197 817.589 464.93 817.589L464.928 817.591Z" fill="url(#paint35_linear_1905_185)"/>
<path d="M374.049 809.254V825.026C374.049 830.121 405.883 834.252 445.15 834.252C484.417 834.252 516.252 830.121 516.252 825.026V809.254H374.049Z" fill="#FFA412"/>
<path d="M516.254 809.254C516.254 814.35 484.42 818.48 445.153 818.48C405.886 818.48 374.051 814.35 374.051 809.254C374.051 804.158 405.886 800.027 445.153 800.027C484.42 800.027 516.254 804.158 516.254 809.254Z" fill="#FFA412"/>
<path d="M445.153 819.116C410.375 819.116 374.01 815.795 374.01 809.387C374.01 809.034 374.135 808.417 374.488 808.417C374.84 808.417 374.689 808.901 374.689 809.254C374.689 813.317 403.629 817.845 445.155 817.845C486.681 817.845 515.621 813.319 515.621 809.254C515.621 808.901 515.68 808.573 516.033 808.573C516.385 808.573 516.299 809.043 516.299 809.395C516.299 815.803 479.933 819.118 445.155 819.118L445.153 819.116Z" fill="#FFC76C"/>
<path d="M438.433 809.768C439.13 809.285 439.874 808.809 440.667 808.34C441.454 807.87 442.479 807.446 443.722 807.067C444.97 806.687 446.534 806.38 448.41 806.14C450.285 805.9 452.63 805.775 455.43 805.761C458.179 805.746 460.756 805.835 463.169 806.023C465.575 806.21 467.699 806.493 469.533 806.866C471.36 807.239 472.852 807.702 474 808.251C475.142 808.803 475.822 809.434 476.042 810.143L484.048 810.225C484.629 810.229 485.143 810.277 485.584 810.367C486.031 810.459 486.248 810.574 486.248 810.713L486.252 811.373L475.96 811.275C475.599 812.083 474.679 812.821 473.201 813.491C471.729 814.161 469.849 814.741 467.557 815.231L463.808 814.711C463.472 814.659 463.197 814.594 462.98 814.514C462.763 814.436 462.658 814.35 462.658 814.255C462.658 814.128 462.947 813.985 463.527 813.823C464.107 813.659 464.761 813.458 465.491 813.218C466.219 812.978 466.934 812.695 467.639 812.37C468.338 812.044 468.806 811.654 469.048 811.199L444.755 810.957C444.117 811.427 443.396 811.888 442.608 812.341C441.813 812.794 440.766 813.202 439.458 813.565C438.148 813.927 436.518 814.221 434.569 814.448C432.611 814.674 430.162 814.795 427.198 814.809C424.971 814.819 422.803 814.735 420.679 814.557C418.555 814.376 416.67 814.108 415.023 813.751C413.375 813.392 412.027 812.95 410.967 812.423C409.913 811.894 409.323 811.289 409.2 810.603L402.61 810.535C402.029 810.531 401.515 810.486 401.052 810.398C400.597 810.309 400.365 810.193 400.365 810.047L400.361 809.387L409.372 809.473C409.77 808.778 410.588 808.173 411.836 807.659C413.084 807.142 414.609 806.685 416.409 806.284L419.427 806.698C420.343 806.827 420.798 806.976 420.8 807.151C420.8 807.245 420.616 807.36 420.236 807.499C419.849 807.636 419.404 807.802 418.883 807.995C418.371 808.188 417.865 808.413 417.383 808.672C416.893 808.93 416.53 809.223 416.284 809.551L438.433 809.772V809.768ZM416.2 810.666C416.38 811.099 416.784 811.47 417.397 811.783C418.01 812.097 418.771 812.355 419.687 812.556C420.603 812.759 421.632 812.907 422.772 813.001C423.92 813.095 425.119 813.14 426.369 813.134C427.829 813.126 429.102 813.064 430.188 812.946C431.267 812.827 432.22 812.667 433.046 812.462C433.864 812.257 434.585 812.021 435.194 811.753C435.803 811.482 436.346 811.191 436.836 810.875L416.2 810.666ZM469.087 810.076C468.906 809.637 468.463 809.254 467.777 808.924C467.09 808.594 466.211 808.317 465.145 808.094C464.079 807.868 462.834 807.702 461.412 807.593C459.995 807.485 458.431 807.433 456.72 807.442C455.201 807.45 453.883 807.518 452.788 807.645C451.693 807.774 450.742 807.946 449.931 808.163C449.127 808.381 448.436 808.633 447.879 808.922C447.315 809.211 446.786 809.52 446.304 809.848L469.087 810.076Z" fill="#FCB048"/>
<path d="M445.161 801.026C413.458 801.026 380.449 803.816 375.168 809.215C375.375 809.406 375.566 809.609 375.747 809.822C380.197 806.073 407.454 802.297 445.163 802.297C482.872 802.297 511.533 806.269 514.889 810.111C515.053 809.9 515.229 809.699 515.42 809.508C511.06 803.916 477.43 801.024 445.163 801.024L445.161 801.026Z" fill="url(#paint36_linear_1905_185)"/>
<path d="M391.106 792.736V808.508C391.106 813.603 422.941 817.734 462.208 817.734C501.475 817.734 533.309 813.603 533.309 808.508V792.736H391.106Z" fill="#FFA412"/>
<path d="M533.309 792.736C533.309 797.832 501.475 801.962 462.207 801.962C422.94 801.962 391.106 797.832 391.106 792.736C391.106 787.64 422.94 783.509 462.207 783.509C501.475 783.509 533.309 787.64 533.309 792.736Z" fill="#FFC76C"/>
<path d="M462.208 802.6C427.43 802.6 391.065 799.279 391.065 792.871C391.065 792.519 391.19 791.902 391.543 791.902C391.896 791.902 391.744 792.386 391.744 792.738C391.744 796.801 420.684 801.329 462.21 801.329C503.736 801.329 532.676 796.803 532.676 792.738C532.676 792.386 532.735 792.058 533.088 792.058C533.441 792.058 533.355 792.527 533.355 792.88C533.355 799.285 496.988 802.602 462.21 802.602L462.208 802.6Z" fill="#FFC76C"/>
<path d="M455.488 793.251C456.185 792.767 456.927 792.291 457.723 791.822C458.51 791.352 459.535 790.928 460.777 790.549C462.025 790.17 463.59 789.862 465.465 789.622C467.341 789.383 469.686 789.258 472.486 789.243C475.235 789.229 477.811 789.317 480.224 789.506C482.631 789.692 484.754 789.975 486.589 790.348C488.415 790.721 489.908 791.184 491.058 791.734C492.199 792.285 492.88 792.917 493.099 793.626L501.106 793.708C501.686 793.712 502.201 793.759 502.641 793.849C503.088 793.941 503.306 794.056 503.306 794.196L503.31 794.856L493.017 794.757C492.657 795.565 491.736 796.303 490.258 796.973C488.786 797.644 486.907 798.224 484.615 798.714L480.866 798.193C480.53 798.142 480.255 798.076 480.038 797.996C479.82 797.918 479.716 797.832 479.716 797.738C479.716 797.611 480.005 797.467 480.585 797.305C481.165 797.141 481.819 796.94 482.549 796.701C483.276 796.461 483.992 796.178 484.697 795.852C485.396 795.526 485.863 795.137 486.105 794.681L461.812 794.44C461.175 794.909 460.453 795.37 459.666 795.823C458.871 796.276 457.823 796.684 456.515 797.047C455.206 797.41 453.576 797.703 451.627 797.93C449.669 798.156 447.219 798.277 444.255 798.291C442.029 798.302 439.86 798.217 437.737 798.039C435.613 797.859 433.727 797.59 432.081 797.234C430.433 796.875 429.084 796.432 428.024 795.905C426.971 795.376 426.38 794.772 426.257 794.085L419.667 794.017C419.087 794.013 418.573 793.968 418.109 793.88C417.654 793.792 417.423 793.675 417.423 793.529L417.418 792.869L426.43 792.955C426.827 792.261 427.645 791.656 428.894 791.141C430.142 790.625 431.667 790.168 433.467 789.766L436.484 790.18C437.401 790.309 437.856 790.459 437.858 790.633C437.858 790.727 437.673 790.842 437.294 790.981C436.906 791.121 436.462 791.285 435.941 791.478C435.429 791.67 434.922 791.896 434.441 792.154C433.951 792.412 433.588 792.705 433.342 793.033L455.491 793.255L455.488 793.251ZM433.256 794.149C433.436 794.581 433.84 794.952 434.453 795.266C435.066 795.579 435.826 795.838 436.743 796.038C437.659 796.241 438.688 796.389 439.828 796.483C440.975 796.578 442.175 796.623 443.425 796.617C444.885 796.608 446.158 796.547 447.244 796.428C448.322 796.309 449.275 796.147 450.101 795.944C450.919 795.739 451.641 795.503 452.25 795.235C452.859 794.964 453.402 794.673 453.892 794.358L433.256 794.149ZM486.142 793.558C485.962 793.119 485.521 792.736 484.834 792.406C484.148 792.076 483.268 791.799 482.202 791.576C481.136 791.35 479.892 791.184 478.469 791.076C477.053 790.967 475.489 790.916 473.777 790.924C472.258 790.932 470.94 791 469.846 791.127C468.751 791.256 467.8 791.428 466.988 791.646C466.185 791.863 465.494 792.115 464.936 792.404C464.373 792.693 463.844 793.003 463.362 793.331L486.144 793.558H486.142Z" fill="#FCB048"/>
<path d="M462.218 784.508C430.515 784.508 397.506 787.298 392.226 792.697C392.433 792.888 392.623 793.091 392.804 793.304C397.254 789.555 424.511 785.779 462.22 785.779C499.929 785.779 528.591 789.751 531.946 793.593C532.11 793.382 532.286 793.181 532.477 792.99C528.117 787.398 494.487 784.506 462.22 784.506L462.218 784.508Z" fill="url(#paint37_linear_1905_185)"/>
<path d="M401.456 776.171V791.941C401.456 797.037 433.288 801.167 472.557 801.167C511.826 801.167 543.659 797.037 543.659 791.941V776.171H401.456Z" fill="#FFA412"/>
<path d="M472.557 785.398C511.825 785.398 543.659 781.267 543.659 776.171C543.659 771.076 511.825 766.945 472.557 766.945C433.289 766.945 401.456 771.076 401.456 776.171C401.456 781.267 433.289 785.398 472.557 785.398Z" fill="#FFC76C"/>
<path d="M472.557 786.036C437.779 786.036 401.415 782.715 401.415 776.307C401.415 775.954 401.54 775.337 401.892 775.337C402.245 775.337 402.093 775.821 402.093 776.174C402.093 780.237 431.033 784.763 472.557 784.763C514.081 784.763 543.023 780.237 543.023 776.174C543.023 775.821 543.083 775.491 543.435 775.491C543.788 775.491 543.702 775.961 543.702 776.313C543.702 782.721 507.335 786.038 472.557 786.038V786.036Z" fill="#FFA412"/>
<path d="M465.838 776.686C466.535 776.202 467.279 775.727 468.072 775.257C468.859 774.788 469.884 774.364 471.126 773.984C472.375 773.605 473.939 773.298 475.814 773.058C477.69 772.818 480.035 772.693 482.835 772.679C485.584 772.664 488.161 772.753 490.573 772.941C492.98 773.128 495.103 773.411 496.938 773.784C498.765 774.157 500.257 774.62 501.405 775.169C502.547 775.721 503.227 776.352 503.446 777.061L511.453 777.143C512.033 777.147 512.548 777.195 512.989 777.285C513.435 777.377 513.653 777.492 513.653 777.631L513.657 778.291L503.364 778.193C503.004 779.001 502.083 779.738 500.605 780.409C499.134 781.079 497.254 781.659 494.962 782.149L491.213 781.628C490.877 781.577 490.602 781.512 490.385 781.432C490.167 781.354 490.063 781.268 490.063 781.173C490.063 781.046 490.352 780.903 490.932 780.741C491.512 780.577 492.166 780.376 492.896 780.136C493.626 779.896 494.339 779.613 495.044 779.288C495.743 778.962 496.21 778.572 496.452 778.117L472.159 777.875C471.522 778.345 470.8 778.806 470.013 779.259C469.218 779.712 468.17 780.12 466.863 780.483C465.553 780.845 463.925 781.139 461.974 781.366C460.016 781.592 457.566 781.712 454.602 781.727C452.376 781.737 450.207 781.653 448.086 781.475C445.962 781.294 444.076 781.026 442.43 780.669C440.782 780.31 439.433 779.868 438.374 779.341C437.32 778.812 436.73 778.207 436.607 777.521L430.016 777.453C429.436 777.449 428.922 777.404 428.458 777.316C428.003 777.227 427.772 777.111 427.772 776.965L427.768 776.305L436.779 776.391C437.178 775.696 437.994 775.091 439.243 774.577C440.491 774.06 442.016 773.603 443.816 773.201L446.833 773.616C447.75 773.745 448.205 773.894 448.207 774.069C448.207 774.163 448.022 774.278 447.643 774.415C447.256 774.554 446.811 774.718 446.29 774.911C445.778 775.104 445.271 775.329 444.79 775.587C444.3 775.846 443.937 776.139 443.693 776.467L465.842 776.688L465.838 776.686ZM443.605 777.584C443.785 778.017 444.189 778.388 444.802 778.701C445.415 779.015 446.175 779.273 447.092 779.474C448.008 779.677 449.037 779.825 450.177 779.919C451.325 780.013 452.524 780.058 453.774 780.052C455.234 780.046 456.507 779.982 457.593 779.864C458.671 779.745 459.624 779.583 460.451 779.38C461.268 779.175 461.99 778.939 462.599 778.67C463.208 778.4 463.751 778.109 464.241 777.793L443.605 777.584ZM496.491 776.994C496.311 776.555 495.868 776.172 495.181 775.842C494.495 775.512 493.615 775.235 492.549 775.011C491.483 774.786 490.239 774.62 488.817 774.511C487.402 774.403 485.836 774.351 484.124 774.36C482.605 774.368 481.287 774.435 480.193 774.563C479.098 774.692 478.147 774.864 477.335 775.081C476.532 775.298 475.841 775.551 475.283 775.84C474.72 776.129 474.191 776.438 473.709 776.766L496.491 776.994Z" fill="#FCB048"/>
<path d="M472.568 767.943C440.865 767.943 407.854 770.733 402.575 776.133C402.782 776.323 402.975 776.526 403.153 776.739C407.604 772.99 434.861 769.214 472.57 769.214C510.279 769.214 538.94 773.187 542.296 777.028C542.46 776.817 542.636 776.616 542.827 776.426C538.465 770.834 504.837 767.941 472.57 767.941L472.568 767.943Z" fill="url(#paint38_linear_1905_185)"/>
<path d="M393.816 758.3V774.072C393.816 779.168 425.65 783.298 464.917 783.298C504.185 783.298 536.019 779.168 536.019 774.072V758.3H393.816Z" fill="#FFA412"/>
<path d="M536.019 758.3C536.019 763.396 504.185 767.527 464.917 767.527C425.65 767.527 393.816 763.396 393.816 758.3C393.816 753.204 425.65 749.074 464.917 749.074C504.185 749.074 536.019 753.204 536.019 758.3Z" fill="url(#paint39_linear_1905_185)"/>
<path d="M464.917 768.162C430.139 768.162 393.775 764.841 393.775 758.433C393.775 758.081 393.9 757.464 394.253 757.464C394.605 757.464 394.453 757.948 394.453 758.3C394.453 762.363 423.393 766.891 464.919 766.891C506.446 766.891 535.385 762.365 535.385 758.3C535.385 757.948 535.445 757.62 535.797 757.62C536.15 757.62 536.064 758.089 536.064 758.442C536.064 764.847 499.697 768.164 464.919 768.164L464.917 768.162Z" fill="#FFC76C"/>
<path d="M458.198 758.813C458.895 758.329 459.637 757.853 460.432 757.384C461.219 756.914 462.244 756.49 463.486 756.111C464.735 755.732 466.299 755.424 468.172 755.184C470.048 754.945 472.393 754.82 475.193 754.805C477.942 754.791 480.519 754.879 482.931 755.068C485.338 755.254 487.461 755.537 489.296 755.91C491.123 756.283 492.615 756.746 493.763 757.296C494.905 757.847 495.585 758.479 495.804 759.188L503.811 759.27C504.391 759.274 504.906 759.321 505.347 759.411C505.793 759.503 506.011 759.618 506.011 759.758L506.015 760.418L495.722 760.319C495.362 761.127 494.441 761.865 492.963 762.535C491.492 763.206 489.612 763.786 487.32 764.276L483.571 763.755C483.235 763.704 482.96 763.638 482.743 763.558C482.525 763.48 482.421 763.394 482.421 763.3C482.421 763.173 482.71 763.029 483.29 762.867C483.87 762.703 484.524 762.502 485.254 762.263C485.984 762.023 486.697 761.74 487.402 761.414C488.101 761.088 488.568 760.699 488.81 760.243L464.517 760.002C463.88 760.471 463.158 760.932 462.371 761.385C461.576 761.838 460.528 762.246 459.221 762.609C457.911 762.972 456.283 763.265 454.332 763.493C452.374 763.718 449.924 763.839 446.96 763.853C444.734 763.864 442.565 763.779 440.444 763.601C438.32 763.421 436.434 763.152 434.788 762.796C433.14 762.437 431.791 761.994 430.73 761.467C429.676 760.938 429.086 760.334 428.963 759.647L422.372 759.579C421.792 759.575 421.278 759.53 420.814 759.442C420.359 759.354 420.128 759.237 420.128 759.091L420.124 758.431L429.135 758.517C429.534 757.823 430.35 757.218 431.599 756.703C432.847 756.187 434.372 755.73 436.172 755.328L439.189 755.742C440.106 755.871 440.561 756.021 440.563 756.195C440.563 756.289 440.378 756.404 439.999 756.541C439.612 756.681 439.167 756.845 438.646 757.037C438.134 757.23 437.627 757.456 437.146 757.714C436.656 757.972 436.291 758.265 436.047 758.593L458.196 758.815L458.198 758.813ZM435.965 759.711C436.145 760.143 436.549 760.514 437.162 760.828C437.775 761.141 438.535 761.4 439.452 761.6C440.368 761.803 441.397 761.951 442.537 762.045C443.685 762.14 444.884 762.185 446.134 762.179C447.594 762.172 448.867 762.109 449.953 761.99C451.033 761.871 451.985 761.711 452.811 761.506C453.629 761.301 454.35 761.065 454.959 760.797C455.568 760.526 456.111 760.235 456.601 759.92L435.965 759.711ZM488.851 759.12C488.671 758.681 488.228 758.298 487.543 757.968C486.857 757.638 485.977 757.361 484.911 757.138C483.846 756.912 482.601 756.746 481.179 756.638C479.764 756.529 478.198 756.478 476.487 756.486C474.968 756.494 473.65 756.562 472.555 756.689C471.46 756.818 470.509 756.99 469.697 757.208C468.894 757.425 468.203 757.677 467.645 757.966C467.082 758.255 466.553 758.565 466.071 758.893L488.853 759.12H488.851Z" fill="#FCB048"/>
<path d="M464.928 750.07C433.224 750.07 400.213 752.86 394.935 758.259C395.142 758.45 395.333 758.653 395.513 758.866C399.963 755.117 427.22 751.341 464.93 751.341C502.639 751.341 531.3 755.313 534.656 759.155C534.82 758.944 534.996 758.743 535.187 758.552C530.824 752.96 497.197 750.068 464.93 750.068L464.928 750.07Z" fill="url(#paint40_linear_1905_185)"/>
<path d="M374.049 741.733V757.505C374.049 762.601 405.883 766.731 445.15 766.731C484.417 766.731 516.252 762.601 516.252 757.505V741.733H374.049Z" fill="#FFA412"/>
<path d="M445.153 750.96C484.421 750.96 516.254 746.829 516.254 741.734C516.254 736.638 484.421 732.507 445.153 732.507C405.885 732.507 374.051 736.638 374.051 741.734C374.051 746.829 405.885 750.96 445.153 750.96Z" fill="#FFA412"/>
<path d="M445.153 751.598C410.375 751.598 374.01 748.277 374.01 741.869C374.01 741.516 374.135 740.899 374.488 740.899C374.84 740.899 374.689 741.383 374.689 741.736C374.689 745.799 403.629 750.327 445.155 750.327C486.681 750.327 515.621 745.801 515.621 741.736C515.621 741.383 515.68 741.055 516.033 741.055C516.385 741.055 516.299 741.525 516.299 741.877C516.299 748.285 479.933 751.602 445.155 751.602L445.153 751.598Z" fill="#FFC76C"/>
<path d="M438.433 742.248C439.13 741.764 439.874 741.289 440.667 740.819C441.454 740.35 442.479 739.926 443.722 739.547C444.97 739.167 446.534 738.86 448.41 738.62C450.285 738.38 452.63 738.255 455.43 738.241C458.179 738.226 460.756 738.315 463.169 738.503C465.575 738.69 467.699 738.973 469.533 739.346C471.36 739.719 472.852 740.182 474 740.731C475.142 741.283 475.822 741.914 476.042 742.623L484.048 742.705C484.629 742.709 485.143 742.757 485.584 742.847C486.031 742.939 486.248 743.054 486.248 743.193L486.252 743.853L475.96 743.755C475.599 744.563 474.679 745.3 473.201 745.971C471.729 746.641 469.849 747.221 467.557 747.711L463.808 747.19C463.472 747.139 463.197 747.074 462.98 746.996C462.763 746.918 462.658 746.832 462.658 746.737C462.658 746.61 462.947 746.467 463.527 746.305C464.107 746.141 464.761 745.94 465.491 745.7C466.219 745.46 466.934 745.177 467.639 744.852C468.338 744.526 468.806 744.136 469.048 743.681L444.755 743.439C444.117 743.909 443.396 744.37 442.608 744.823C441.813 745.276 440.766 745.684 439.458 746.047C438.148 746.409 436.518 746.703 434.569 746.93C432.611 747.156 430.162 747.277 427.198 747.291C424.971 747.301 422.803 747.217 420.679 747.039C418.555 746.858 416.67 746.59 415.023 746.233C413.375 745.874 412.027 745.432 410.967 744.905C409.913 744.376 409.323 743.771 409.2 743.085L402.61 743.017C402.029 743.013 401.515 742.968 401.052 742.88C400.597 742.791 400.365 742.675 400.365 742.529L400.361 741.869L409.372 741.955C409.77 741.26 410.588 740.656 411.836 740.141C413.084 739.624 414.609 739.167 416.409 738.766L419.427 739.18C420.343 739.309 420.798 739.458 420.8 739.633C420.8 739.727 420.616 739.842 420.236 739.979C419.849 740.118 419.404 740.282 418.883 740.475C418.371 740.668 417.865 740.893 417.383 741.152C416.893 741.41 416.53 741.703 416.284 742.031L438.433 742.252V742.248ZM416.2 743.146C416.38 743.579 416.784 743.95 417.397 744.263C418.01 744.577 418.771 744.835 419.687 745.036C420.603 745.237 421.632 745.387 422.772 745.481C423.92 745.575 425.119 745.62 426.369 745.614C427.829 745.608 429.102 745.544 430.188 745.426C431.267 745.307 432.22 745.147 433.046 744.942C433.864 744.737 434.585 744.501 435.194 744.233C435.803 743.964 436.346 743.671 436.836 743.355L416.2 743.146ZM469.087 742.556C468.906 742.117 468.463 741.734 467.777 741.404C467.09 741.074 466.211 740.797 465.145 740.573C464.079 740.348 462.834 740.182 461.412 740.071C459.995 739.963 458.431 739.911 456.72 739.92C455.201 739.928 453.883 739.995 452.788 740.123C451.693 740.252 450.742 740.424 449.931 740.641C449.127 740.858 448.436 741.111 447.879 741.4C447.315 741.689 446.786 741.998 446.304 742.326L469.087 742.554V742.556Z" fill="#FCB048"/>
<path d="M445.161 733.505C413.458 733.505 380.449 736.295 375.168 741.695C375.375 741.885 375.566 742.088 375.747 742.301C380.197 738.552 407.454 734.776 445.163 734.776C482.872 734.776 511.533 738.749 514.889 742.59C515.053 742.379 515.229 742.178 515.42 741.988C511.06 736.396 477.43 733.503 445.163 733.503L445.161 733.505Z" fill="#FFC76C"/>
<path d="M391.106 725.218V740.989C391.106 746.085 422.941 750.216 462.208 750.216C501.475 750.216 533.309 746.085 533.309 740.989V725.218H391.106Z" fill="#FFA412"/>
<path d="M462.207 734.444C501.476 734.444 533.309 730.313 533.309 725.218C533.309 720.122 501.476 715.991 462.207 715.991C422.939 715.991 391.106 720.122 391.106 725.218C391.106 730.313 422.939 734.444 462.207 734.444Z" fill="#FFC76C"/>
<path d="M462.208 735.082C427.43 735.082 391.065 731.761 391.065 725.353C391.065 725.001 391.19 724.384 391.543 724.384C391.896 724.384 391.744 724.868 391.744 725.22C391.744 729.283 420.684 733.811 462.21 733.811C503.736 733.811 532.676 729.285 532.676 725.22C532.676 724.868 532.735 724.538 533.088 724.538C533.441 724.538 533.355 725.007 533.355 725.36C533.355 731.767 496.988 735.084 462.21 735.084L462.208 735.082Z" fill="#FFC76C"/>
<path d="M455.488 725.733C456.185 725.249 456.927 724.773 457.723 724.304C458.51 723.834 459.535 723.41 460.777 723.031C462.025 722.652 463.59 722.344 465.465 722.104C467.341 721.865 469.686 721.739 472.486 721.725C475.235 721.711 477.811 721.799 480.224 721.988C482.631 722.174 484.754 722.457 486.589 722.83C488.415 723.203 489.908 723.666 491.058 724.216C492.199 724.767 492.88 725.399 493.099 726.108L501.106 726.19C501.686 726.194 502.201 726.241 502.641 726.331C503.088 726.423 503.306 726.538 503.306 726.678L503.31 727.338L493.017 727.239C492.657 728.047 491.736 728.785 490.258 729.455C488.786 730.125 486.907 730.706 484.615 731.195L480.866 730.675C480.53 730.624 480.255 730.558 480.038 730.478C479.82 730.4 479.716 730.314 479.716 730.22C479.716 730.093 480.005 729.949 480.585 729.787C481.165 729.623 481.819 729.422 482.549 729.183C483.276 728.943 483.992 728.66 484.697 728.334C485.396 728.008 485.863 727.618 486.105 727.163L461.812 726.924C461.175 727.393 460.453 727.854 459.666 728.307C458.871 728.76 457.823 729.168 456.515 729.531C455.206 729.894 453.576 730.187 451.627 730.415C449.669 730.64 447.219 730.761 444.255 730.775C442.029 730.786 439.86 730.701 437.737 730.523C435.613 730.343 433.727 730.074 432.081 729.718C430.433 729.359 429.084 728.916 428.024 728.389C426.971 727.86 426.38 727.256 426.257 726.569L419.667 726.501C419.087 726.497 418.573 726.452 418.109 726.364C417.654 726.276 417.423 726.159 417.423 726.013L417.418 725.353L426.43 725.44C426.827 724.745 427.645 724.14 428.894 723.625C430.142 723.109 431.667 722.652 433.467 722.25L436.484 722.664C437.401 722.793 437.856 722.943 437.858 723.117C437.858 723.209 437.673 723.326 437.294 723.463C436.906 723.603 436.462 723.767 435.941 723.959C435.429 724.152 434.922 724.378 434.441 724.636C433.951 724.894 433.588 725.187 433.342 725.515L455.491 725.737L455.488 725.733ZM433.256 726.63C433.436 727.063 433.84 727.434 434.453 727.748C435.066 728.061 435.826 728.32 436.743 728.52C437.659 728.721 438.688 728.871 439.828 728.965C440.975 729.06 442.175 729.105 443.425 729.098C444.885 729.092 446.158 729.029 447.244 728.91C448.322 728.791 449.275 728.629 450.101 728.426C450.919 728.221 451.641 727.985 452.25 727.717C452.859 727.448 453.402 727.155 453.892 726.84L433.256 726.63ZM486.142 726.04C485.962 725.601 485.521 725.218 484.834 724.888C484.148 724.558 483.268 724.281 482.202 724.058C481.136 723.832 479.892 723.666 478.469 723.556C477.053 723.447 475.489 723.396 473.777 723.404C472.258 723.412 470.94 723.48 469.846 723.607C468.751 723.736 467.8 723.908 466.988 724.126C466.185 724.343 465.494 724.595 464.936 724.884C464.373 725.173 463.844 725.483 463.362 725.811L486.144 726.038L486.142 726.04Z" fill="#FCB048"/>
<path d="M462.218 716.99C430.515 716.99 397.506 719.78 392.226 725.179C392.433 725.37 392.623 725.573 392.804 725.786C397.254 722.037 424.511 718.261 462.22 718.261C499.929 718.261 528.591 722.233 531.946 726.075C532.11 725.864 532.286 725.663 532.477 725.472C528.117 719.88 494.487 716.988 462.22 716.988L462.218 716.99Z" fill="url(#paint41_linear_1905_185)"/>
<path d="M382.234 708.653V724.424C382.234 729.52 414.068 733.651 453.335 733.651C492.603 733.651 524.437 729.52 524.437 724.424V708.653H382.234Z" fill="#FFA412"/>
<path d="M453.335 717.879C492.604 717.879 524.437 713.748 524.437 708.653C524.437 703.557 492.604 699.426 453.335 699.426C414.067 699.426 382.234 703.557 382.234 708.653C382.234 713.748 414.067 717.879 453.335 717.879Z" fill="#FFA412"/>
<path d="M453.335 718.515C418.557 718.515 382.193 715.194 382.193 708.786C382.193 708.433 382.318 707.816 382.67 707.816C383.023 707.816 382.871 708.3 382.871 708.653C382.871 712.716 411.811 717.244 453.337 717.244C494.864 717.244 523.803 712.718 523.803 708.653C523.803 708.3 523.863 707.972 524.215 707.972C524.568 707.972 524.482 708.442 524.482 708.794C524.482 715.2 488.115 718.517 453.337 718.517L453.335 718.515Z" fill="#FFC76C"/>
<path d="M453.346 700.425C421.643 700.425 388.634 703.215 383.354 708.614C383.561 708.805 383.753 709.008 383.932 709.221C388.382 705.472 415.639 701.696 453.348 701.696C491.057 701.696 519.719 705.668 523.074 709.51C523.238 709.299 523.414 709.098 523.605 708.907C519.245 703.315 485.615 700.423 453.348 700.423L453.346 700.425Z" fill="#FFC76C"/>
<path d="M557.743 804.867C557.743 838.501 531.444 864.959 497.83 863.928C462.847 862.854 433.425 832.641 433.425 796.487C433.425 760.334 462.847 734.088 497.83 737.73C531.444 741.229 557.743 771.235 557.743 804.869V804.867Z" fill="#FFA412"/>
<path d="M566.826 801.966C566.826 835.601 540.527 862.058 506.913 861.027C471.93 859.953 442.508 829.74 442.508 793.585C442.508 757.429 471.93 731.185 506.913 734.827C540.527 738.326 566.826 768.332 566.826 801.966Z" fill="#FFC76C"/>
<path d="M564.188 801.79C564.188 833.944 539.024 859.194 506.913 858.153C473.556 857.073 445.548 828.239 445.548 793.791C445.548 759.343 473.556 734.286 506.913 737.703C539.024 740.993 564.188 769.636 564.188 801.79Z" fill="#FFA412"/>
<path d="M485.148 608.546C487.95 606.73 485.396 601.443 485.246 590.089C485.061 576.175 488.757 573.581 485.789 568.123C482.159 561.448 473.023 558.685 466.969 558.556C465.635 558.527 465.323 557.798 454.137 560.694C433.987 565.913 428.942 560.319 419.919 565.907C411.201 571.306 415.018 577.218 406.552 583.55C392.83 593.814 378.399 582.718 368.59 591.302C359.313 599.422 359.099 620.111 368.857 631.402C379.918 644.201 399.865 640.356 413.234 637.818C416.047 637.285 430.254 634.3 445.046 623.383C453.229 617.342 458.848 610.893 462.423 606.139C463.261 605.194 464.571 604.051 466.299 603.868C468.374 603.647 470.04 604.916 470.844 605.471C475.06 608.392 482.393 610.331 485.145 608.546H485.148Z" fill="#233862"/>
<path d="M473.885 600.921C477.489 597.637 490.35 603.965 498.871 612.363C508.883 622.229 508.114 630.229 516.853 642.488C521.196 648.582 528.643 656.785 541.838 663.97C540.904 666.305 539.971 668.642 539.036 670.977C532.657 671.36 520.13 671.134 508.444 663.505C500.327 658.204 496.151 651.181 488.128 637.351C480.078 623.471 469.38 605.026 473.883 600.923L473.885 600.921Z" fill="#215EAB"/>
<path d="M555.107 788.583L545.069 782.55H540.539C540.539 782.55 538.995 788.296 539.172 788.583C541.191 791.891 550.589 794.407 556.454 794.616C557.428 794.651 558.787 794.655 559.137 793.95C559.732 792.755 557.075 790.248 555.109 788.583H555.107Z" fill="#072E52"/>
<path d="M544.891 775.968C544.245 779.703 545.061 781.65 545.942 782.741C546.561 783.508 547.111 783.727 550.788 786.904C552.004 787.956 552.623 788.517 552.481 788.813C552.321 789.149 551.247 788.966 548.931 788.411C543.882 787.197 541.347 786.566 540.727 785.35C540.166 784.25 540.662 783.754 540.629 780.757C540.609 778.783 540.207 777.196 539.891 776.202C541.558 776.124 543.224 776.048 544.891 775.97V775.968Z" fill="url(#paint42_linear_1905_185)"/>
<path d="M552.147 746.373C552.147 746.373 556.684 751.784 555.946 757.717C555.208 763.649 547.265 754.976 546.158 752.045C545.051 749.113 543.757 744.938 543.757 744.938C543.757 744.938 549.327 741.474 552.149 746.373H552.147Z" fill="#072E52"/>
<path d="M550.418 737.904C550.418 737.904 549.188 744.21 551.535 747.537C552.703 749.195 554.28 750.599 553.816 751.948C553.505 752.852 552.326 753.502 551.326 753.399C549.413 753.203 548.351 750.269 547.603 748.201C546.498 745.145 545.883 738.605 545.883 738.605L550.418 737.902V737.904Z" fill="url(#paint43_linear_1905_185)"/>
<path d="M546.803 743.22C548.199 742.712 549.593 742.203 550.987 741.695C553.164 736.724 555.819 728.562 554.931 718.638C552.65 693.122 529.05 679.599 526.428 678.151C519.997 681.378 513.485 685.929 513.249 691.666C512.954 698.869 522.765 702.676 531.989 713.208C537.526 719.53 543.442 728.949 546.803 743.218V743.22Z" fill="#CA534B"/>
<path d="M545.298 778.887C549.906 760.883 548.73 746.192 547.399 737.73C545.391 724.939 541.303 698.918 523.931 689.216C520.136 687.097 514.714 685.2 508.104 679.309C502.583 674.389 499.076 669.216 496.959 665.571C473.725 658.755 452.296 661.518 442.84 673.977C441.748 675.416 439.013 678.54 438.482 683.144C437.287 693.535 447.497 706.043 458.952 708.655C473.51 711.974 481.958 697.026 494.855 701.999C498.463 703.391 501.522 706.839 507.64 713.732C515.424 722.504 519.798 730.599 521.454 733.838C526.382 743.482 530.121 750.601 530.666 759.828C530.794 761.978 530.869 766.32 533.387 771.004C535.32 774.599 537.939 776.995 539.887 778.477C541.691 778.613 543.492 778.75 545.294 778.885L545.298 778.887Z" fill="#CA534B"/>
<path style="mix-blend-mode:multiply" opacity="0.2" d="M438.486 683.147C439.015 678.543 441.752 675.419 442.844 673.98C452.3 661.521 473.73 658.758 496.963 665.573C499.08 669.218 502.588 674.392 508.108 679.312C514.719 685.203 520.141 687.099 523.935 689.219C534.543 695.143 540.192 707.151 543.445 718.517C538.62 711.035 534.488 709.045 531.292 709.01C526.716 708.959 524.671 712.872 519.208 712.337C513.368 711.767 512.033 706.938 507.298 706.382C505.882 706.216 504.137 706.435 502.044 707.55C499.25 704.625 497.168 702.893 494.864 702.004C481.966 697.031 473.518 711.978 458.96 708.659C447.506 706.048 437.295 693.54 438.49 683.149L438.486 683.147Z" fill="#B9403A"/>
<path d="M533.262 697.268C530.632 697.129 526.583 697.047 521.698 697.531C498.516 699.822 492.127 711.287 472.967 714.085C468.435 714.747 448.256 717.695 439.515 706.029C433.241 697.654 434.19 683.223 441.053 677.547C443.957 675.144 446.833 675.212 465.436 675.38C472.442 675.443 479.447 675.466 486.453 675.556C516.106 675.933 521.778 673.879 527.174 678.785C529.691 681.072 533.37 685.988 533.262 697.268Z" fill="#CA534B"/>
<path d="M504.498 667.172C504.498 667.172 489.787 670.048 474.277 672.807C456.726 675.925 438.142 678.897 438.634 677.384C443.661 661.969 438.612 651.837 434.996 640.442C432.831 633.663 431.181 626.429 432.464 617.367C436.06 592.032 470.661 602.12 470.661 602.12C481.88 602.575 483.104 603.755 484.133 604.893C491.316 612.818 493.304 622.046 493.304 622.046C495.087 630.315 493.07 633.493 493.304 640.491C493.517 646.866 495.586 656.045 504.5 667.168L504.498 667.172Z" fill="#215EAB"/>
<path style="mix-blend-mode:soft-light" d="M448.433 671.795C448.433 671.795 480.894 663.109 500.245 662.025L448.433 671.795Z" fill="url(#paint44_linear_1905_185)"/>
<path d="M463.145 586.94C463.462 588.42 465.076 596.368 461.824 598.414C461.119 598.856 459.764 599.11 457.056 599.619C455.283 599.951 453.795 600.156 452.746 600.281C452.897 601.613 453.346 603.782 454.884 605.756C459.194 611.287 467.839 609.856 469.071 609.63C473.418 608.839 477.697 607.494 478.73 606.674C480.302 605.424 481.54 604.487 482.272 603.534C480.589 602.72 477.192 600.576 474.913 599.875C473.209 599.35 471.61 598.977 470.155 598.709C469.915 597.173 469.677 595.638 469.438 594.103C467.339 591.717 465.242 589.329 463.145 586.942V586.94Z" fill="url(#paint45_linear_1905_185)"/>
<path d="M462.991 590.903C462.991 590.903 463.579 596.727 469.239 597.754C474.308 598.672 478.123 586.424 475.53 583.255C474.665 582.197 472.529 581.193 470.676 581.246C469.374 581.283 464.973 582.96 464.36 587.361C463.485 586.438 462.392 586.172 461.853 586.559C461.171 587.049 461.535 588.476 461.619 588.798C461.906 589.917 462.638 590.61 462.989 590.903H462.991Z" fill="url(#paint46_linear_1905_185)"/>
<path d="M511.556 670.02L458.594 672.596C457.864 672.631 457.2 673.023 456.814 673.642L455.349 675.993C454.619 677.163 455.496 678.674 456.874 678.621L512.972 676.483L511.554 670.018L511.556 670.02Z" fill="url(#paint47_linear_1905_185)"/>
<path d="M566.64 640.526L511.923 641.586C510.304 641.617 508.821 642.5 508.022 643.906L489.075 677.243L546.863 674.941C548.449 674.878 549.897 674.019 550.712 672.658L568.267 643.33C569.016 642.082 568.097 640.5 566.642 640.526H566.64Z" fill="url(#paint48_linear_1905_185)"/>
<path style="mix-blend-mode:multiply" opacity="0.3" d="M508.024 643.908C508.823 642.5 510.308 641.619 511.925 641.588L513.124 641.565C513.302 643.332 513.846 644.948 514.926 646.251C518.3 650.325 523.904 647.811 528.084 652.122C532.674 656.857 528.434 662.492 532.536 666.898C536.855 671.534 543.839 667.759 551.868 670.727L550.712 672.658C549.897 674.021 548.449 674.878 546.865 674.941L489.077 677.243L508.024 643.906V643.908Z" fill="url(#paint49_linear_1905_185)"/>
<path style="mix-blend-mode:multiply" opacity="0.3" d="M474.277 672.807C456.726 675.925 438.142 678.897 438.634 677.385C443.66 661.97 438.612 651.837 434.996 640.442L435.943 634.573C435.943 634.573 442.474 637.384 444.064 644.111C445.657 650.833 443.939 655.851 450.425 656.827C454.549 657.45 463.316 661.683 469.253 666.848C469.569 667.127 469.884 667.406 470.186 667.693C471.946 669.343 473.392 671.083 474.279 672.807H474.277Z" fill="url(#paint50_linear_1905_185)"/>
<path d="M462.908 668.25C463.597 666.43 464.288 664.61 464.977 662.79C457.357 660.701 446.821 657.614 436.012 653.752C434.319 653.147 432.308 652.397 431.65 650.617C429.801 645.622 441.551 640.444 446.118 629.535C450.343 619.445 448.016 605.443 443.115 603.788C432.915 600.347 396.739 645.374 409.659 664.356C416.963 675.087 439.478 676.794 462.908 668.25Z" fill="#215EAB"/>
<path d="M464.977 662.79C469.759 660.248 475.485 662.853 475.854 663.027C476.905 663.523 478.434 664.407 479.98 665.985C480.154 666.223 482.229 669.099 481.474 670.019C480.867 670.757 478.522 670.147 475.702 668.392C474.519 668.226 472.76 668.074 470.653 668.269C466.783 668.626 465.008 669.849 463.604 668.794C462.574 668.021 462.224 666.387 462.595 665.172C462.993 663.866 464.169 663.22 464.979 662.79H464.977Z" fill="url(#paint51_linear_1905_185)"/>
<defs>
<filter id="filter0_f_1905_185" x="0.531738" y="236.797" width="634.762" height="635.857" filterUnits="userSpaceOnUse" color-interpolation-filters="sRGB">
<feFlood flood-opacity="0" result="BackgroundImageFix"/>
<feBlend mode="normal" in="SourceGraphic" in2="BackgroundImageFix" result="shape"/>
<feGaussianBlur stdDeviation="81.5" result="effect1_foregroundBlur_1905_185"/>
</filter>
<filter id="filter1_f_1905_185" x="243.301" y="0" width="778.792" height="778.792" filterUnits="userSpaceOnUse" color-interpolation-filters="sRGB">
<feFlood flood-opacity="0" result="BackgroundImageFix"/>
<feBlend mode="normal" in="SourceGraphic" in2="BackgroundImageFix" result="shape"/>
<feGaussianBlur stdDeviation="103" result="effect1_foregroundBlur_1905_185"/>
</filter>
<linearGradient id="paint0_linear_1905_185" x1="546.524" y1="510.528" x2="546.524" y2="561.723" gradientUnits="userSpaceOnUse">
<stop stop-color="#4A7CBB"/>
<stop offset="1" stop-color="#2AB392"/>
</linearGradient>
<linearGradient id="paint1_linear_1905_185" x1="474.095" y1="565.069" x2="474.095" y2="569.939" gradientUnits="userSpaceOnUse">
<stop stop-color="#4A7CBB"/>
<stop offset="1" stop-color="#2AB392"/>
</linearGradient>
<linearGradient id="paint2_linear_1905_185" x1="474.021" y1="650.947" x2="474.021" y2="656.091" gradientUnits="userSpaceOnUse">
<stop stop-color="#4A7CBB"/>
<stop offset="1" stop-color="#2AB392"/>
</linearGradient>
<linearGradient id="paint3_linear_1905_185" x1="467.501" y1="572.288" x2="467.501" y2="648.846" gradientUnits="userSpaceOnUse">
<stop stop-color="#4A7CBB"/>
<stop offset="1" stop-color="#2AB392"/>
</linearGradient>
<linearGradient id="paint4_linear_1905_185" x1="474.944" y1="572.323" x2="474.944" y2="648.74" gradientUnits="userSpaceOnUse">
<stop stop-color="#4A7CBB"/>
<stop offset="1" stop-color="#2AB392"/>
</linearGradient>
<linearGradient id="paint5_linear_1905_185" x1="480.531" y1="572.344" x2="480.531" y2="648.623" gradientUnits="userSpaceOnUse">
<stop stop-color="#4A7CBB"/>
<stop offset="1" stop-color="#2AB392"/>
</linearGradient>
<linearGradient id="paint6_linear_1905_185" x1="523.781" y1="565.266" x2="523.781" y2="570.064" gradientUnits="userSpaceOnUse">
<stop stop-color="#4A7CBB"/>
<stop offset="1" stop-color="#2AB392"/>
</linearGradient>
<linearGradient id="paint7_linear_1905_185" x1="523.632" y1="649.915" x2="523.632" y2="654.983" gradientUnits="userSpaceOnUse">
<stop stop-color="#4A7CBB"/>
<stop offset="1" stop-color="#2AB392"/>
</linearGradient>
<linearGradient id="paint8_linear_1905_185" x1="523.837" y1="572.428" x2="523.837" y2="647.763" gradientUnits="userSpaceOnUse">
<stop stop-color="#4A7CBB"/>
<stop offset="1" stop-color="#2AB392"/>
</linearGradient>
<linearGradient id="paint9_linear_1905_185" x1="530.402" y1="572.418" x2="530.402" y2="647.593" gradientUnits="userSpaceOnUse">
<stop stop-color="#4A7CBB"/>
<stop offset="1" stop-color="#2AB392"/>
</linearGradient>
<linearGradient id="paint10_linear_1905_185" x1="517.195" y1="572.418" x2="517.195" y2="647.593" gradientUnits="userSpaceOnUse">
<stop stop-color="#4A7CBB"/>
<stop offset="1" stop-color="#2AB392"/>
</linearGradient>
<linearGradient id="paint11_linear_1905_185" x1="572.63" y1="565.46" x2="572.63" y2="570.191" gradientUnits="userSpaceOnUse">
<stop stop-color="#4A7CBB"/>
<stop offset="1" stop-color="#2AB392"/>
</linearGradient>
<linearGradient id="paint12_linear_1905_185" x1="572.419" y1="648.905" x2="572.419" y2="653.894" gradientUnits="userSpaceOnUse">
<stop stop-color="#4A7CBB"/>
<stop offset="1" stop-color="#2AB392"/>
</linearGradient>
<linearGradient id="paint13_linear_1905_185" x1="572.972" y1="572.524" x2="572.972" y2="646.768" gradientUnits="userSpaceOnUse">
<stop stop-color="#4A7CBB"/>
<stop offset="1" stop-color="#2AB392"/>
</linearGradient>
<linearGradient id="paint14_linear_1905_185" x1="567.314" y1="572.524" x2="567.314" y2="646.768" gradientUnits="userSpaceOnUse">
<stop stop-color="#4A7CBB"/>
<stop offset="1" stop-color="#2AB392"/>
</linearGradient>
<linearGradient id="paint15_linear_1905_185" x1="578.956" y1="572.528" x2="578.956" y2="646.629" gradientUnits="userSpaceOnUse">
<stop stop-color="#4A7CBB"/>
<stop offset="1" stop-color="#2AB392"/>
</linearGradient>
<linearGradient id="paint16_linear_1905_185" x1="619.549" y1="565.647" x2="619.549" y2="570.31" gradientUnits="userSpaceOnUse">
<stop stop-color="#4A7CBB"/>
<stop offset="1" stop-color="#2AB392"/>
</linearGradient>
<linearGradient id="paint17_linear_1905_185" x1="619.273" y1="647.93" x2="619.273" y2="652.846" gradientUnits="userSpaceOnUse">
<stop stop-color="#4A7CBB"/>
<stop offset="1" stop-color="#2AB392"/>
</linearGradient>
<linearGradient id="paint18_linear_1905_185" x1="614.326" y1="572.592" x2="614.326" y2="645.917" gradientUnits="userSpaceOnUse">
<stop stop-color="#4A7CBB"/>
<stop offset="1" stop-color="#2AB392"/>
</linearGradient>
<linearGradient id="paint19_linear_1905_185" x1="619.549" y1="572.6" x2="619.549" y2="645.802" gradientUnits="userSpaceOnUse">
<stop stop-color="#4A7CBB"/>
<stop offset="1" stop-color="#2AB392"/>
</linearGradient>
<linearGradient id="paint20_linear_1905_185" x1="624.782" y1="572.598" x2="624.782" y2="645.692" gradientUnits="userSpaceOnUse">
<stop stop-color="#4A7CBB"/>
<stop offset="1" stop-color="#2AB392"/>
</linearGradient>
<linearGradient id="paint21_linear_1905_185" x1="546.167" y1="655.841" x2="546.167" y2="674.304" gradientUnits="userSpaceOnUse">
<stop stop-color="#4A7CBB"/>
<stop offset="1" stop-color="#2AB392"/>
</linearGradient>
<linearGradient id="paint22_linear_1905_185" x1="545.626" y1="661.963" x2="545.626" y2="674.498" gradientUnits="userSpaceOnUse">
<stop stop-color="#4A7CBB"/>
<stop offset="1" stop-color="#2AB392"/>
</linearGradient>
<linearGradient id="paint23_linear_1905_185" x1="746.236" y1="531.188" x2="746.236" y2="548.036" gradientUnits="userSpaceOnUse">
<stop stop-color="#4A7CBB"/>
<stop offset="1" stop-color="#2AB392"/>
</linearGradient>
<linearGradient id="paint24_linear_1905_185" x1="713.145" y1="588.371" x2="713.145" y2="601.09" gradientUnits="userSpaceOnUse">
<stop stop-color="#4A7CBB"/>
<stop offset="1" stop-color="#2AB392"/>
</linearGradient>
<linearGradient id="paint25_linear_1905_185" x1="745.144" y1="612.529" x2="745.144" y2="626.054" gradientUnits="userSpaceOnUse">
<stop stop-color="#4A7CBB"/>
<stop offset="1" stop-color="#2AB392"/>
</linearGradient>
<linearGradient id="paint26_linear_1905_185" x1="744.996" y1="638.503" x2="744.996" y2="653.83" gradientUnits="userSpaceOnUse">
<stop stop-color="#4A7CBB"/>
<stop offset="1" stop-color="#2AB392"/>
</linearGradient>
<linearGradient id="paint27_linear_1905_185" x1="886.032" y1="842.741" x2="902.098" y2="843.206" gradientUnits="userSpaceOnUse">
<stop stop-color="#444B8C"/>
<stop offset="1" stop-color="#26264F"/>
</linearGradient>
<linearGradient id="paint28_linear_1905_185" x1="895.234" y1="842.96" x2="904.022" y2="829.337" gradientUnits="userSpaceOnUse">
<stop stop-color="#FFC444"/>
<stop offset="1" stop-color="#F36F56"/>
</linearGradient>
<linearGradient id="paint29_linear_1905_185" x1="832.38" y1="833.339" x2="848.847" y2="837.865" gradientUnits="userSpaceOnUse">
<stop stop-color="#444B8C"/>
<stop offset="1" stop-color="#26264F"/>
</linearGradient>
<linearGradient id="paint30_linear_1905_185" x1="842.597" y1="835.956" x2="852.605" y2="822.768" gradientUnits="userSpaceOnUse">
<stop stop-color="#FFC444"/>
<stop offset="1" stop-color="#F36F56"/>
</linearGradient>
<linearGradient id="paint31_linear_1905_185" x1="859.226" y1="625.006" x2="859.226" y2="652.643" gradientUnits="userSpaceOnUse">
<stop stop-color="#4A7CBB"/>
<stop offset="1" stop-color="#2AB392"/>
</linearGradient>
<linearGradient id="paint32_linear_1905_185" x1="859.418" y1="624.295" x2="859.418" y2="652.041" gradientUnits="userSpaceOnUse">
<stop stop-color="#4A7CBB"/>
<stop offset="1" stop-color="#2AB392"/>
</linearGradient>
<linearGradient id="paint33_linear_1905_185" x1="862.569" y1="624.295" x2="862.569" y2="652.041" gradientUnits="userSpaceOnUse">
<stop stop-color="#4A7CBB"/>
<stop offset="1" stop-color="#2AB392"/>
</linearGradient>
<linearGradient id="paint34_linear_1905_185" x1="464.21" y1="819.888" x2="472.834" y2="892.089" gradientUnits="userSpaceOnUse">
<stop stop-color="#FFDB44"/>
<stop offset="1" stop-color="#FEEF06"/>
</linearGradient>
<linearGradient id="paint35_linear_1905_185" x1="466.326" y1="836.519" x2="463.685" y2="814.424" gradientUnits="userSpaceOnUse">
<stop stop-color="#F36F56"/>
<stop offset="0.31" stop-color="#F99C4C"/>
<stop offset="0.55" stop-color="#FDB946"/>
<stop offset="0.68" stop-color="#FFC444"/>
<stop offset="0.8" stop-color="#FEC144"/>
<stop offset="0.87" stop-color="#FDB946"/>
<stop offset="0.92" stop-color="#FBAC49"/>
<stop offset="0.96" stop-color="#F8994D"/>
<stop offset="1" stop-color="#F57E53"/>
</linearGradient>
<linearGradient id="paint36_linear_1905_185" x1="446.559" y1="819.954" x2="443.919" y2="797.859" gradientUnits="userSpaceOnUse">
<stop stop-color="#F36F56"/>
<stop offset="0.31" stop-color="#F99C4C"/>
<stop offset="0.55" stop-color="#FDB946"/>
<stop offset="0.68" stop-color="#FFC444"/>
<stop offset="0.8" stop-color="#FEC144"/>
<stop offset="0.87" stop-color="#FDB946"/>
<stop offset="0.92" stop-color="#FBAC49"/>
<stop offset="0.96" stop-color="#F8994D"/>
<stop offset="1" stop-color="#F57E53"/>
</linearGradient>
<linearGradient id="paint37_linear_1905_185" x1="463.614" y1="803.436" x2="460.976" y2="781.341" gradientUnits="userSpaceOnUse">
<stop stop-color="#F36F56"/>
<stop offset="0.31" stop-color="#F99C4C"/>
<stop offset="0.55" stop-color="#FDB946"/>
<stop offset="0.68" stop-color="#FFC444"/>
<stop offset="0.8" stop-color="#FEC144"/>
<stop offset="0.87" stop-color="#FDB946"/>
<stop offset="0.92" stop-color="#FBAC49"/>
<stop offset="0.96" stop-color="#F8994D"/>
<stop offset="1" stop-color="#F57E53"/>
</linearGradient>
<linearGradient id="paint38_linear_1905_185" x1="473.964" y1="786.872" x2="471.323" y2="764.776" gradientUnits="userSpaceOnUse">
<stop stop-color="#F36F56"/>
<stop offset="0.31" stop-color="#F99C4C"/>
<stop offset="0.55" stop-color="#FDB946"/>
<stop offset="0.68" stop-color="#FFC444"/>
<stop offset="0.8" stop-color="#FEC144"/>
<stop offset="0.87" stop-color="#FDB946"/>
<stop offset="0.92" stop-color="#FBAC49"/>
<stop offset="0.96" stop-color="#F8994D"/>
<stop offset="1" stop-color="#F57E53"/>
</linearGradient>
<linearGradient id="paint39_linear_1905_185" x1="464.21" y1="752.37" x2="472.834" y2="824.57" gradientUnits="userSpaceOnUse">
<stop stop-color="#FFDB44"/>
<stop offset="1" stop-color="#FEEF06"/>
</linearGradient>
<linearGradient id="paint40_linear_1905_185" x1="466.326" y1="768.998" x2="463.685" y2="746.903" gradientUnits="userSpaceOnUse">
<stop stop-color="#F36F56"/>
<stop offset="0.31" stop-color="#F99C4C"/>
<stop offset="0.55" stop-color="#FDB946"/>
<stop offset="0.68" stop-color="#FFC444"/>
<stop offset="0.8" stop-color="#FEC144"/>
<stop offset="0.87" stop-color="#FDB946"/>
<stop offset="0.92" stop-color="#FBAC49"/>
<stop offset="0.96" stop-color="#F8994D"/>
<stop offset="1" stop-color="#F57E53"/>
</linearGradient>
<linearGradient id="paint41_linear_1905_185" x1="463.614" y1="735.918" x2="460.976" y2="713.823" gradientUnits="userSpaceOnUse">
<stop stop-color="#F36F56"/>
<stop offset="0.31" stop-color="#F99C4C"/>
<stop offset="0.55" stop-color="#FDB946"/>
<stop offset="0.68" stop-color="#FFC444"/>
<stop offset="0.8" stop-color="#FEC144"/>
<stop offset="0.87" stop-color="#FDB946"/>
<stop offset="0.92" stop-color="#FBAC49"/>
<stop offset="0.96" stop-color="#F8994D"/>
<stop offset="1" stop-color="#F57E53"/>
</linearGradient>
<linearGradient id="paint42_linear_1905_185" x1="549.759" y1="796.498" x2="519.825" y2="706.693" gradientUnits="userSpaceOnUse">
<stop stop-color="#FFC444"/>
<stop offset="1" stop-color="#F36F56"/>
</linearGradient>
<linearGradient id="paint43_linear_1905_185" x1="563.141" y1="785.441" x2="543.104" y2="725.331" gradientUnits="userSpaceOnUse">
<stop stop-color="#FFC444"/>
<stop offset="1" stop-color="#F36F56"/>
</linearGradient>
<linearGradient id="paint44_linear_1905_185" x1="510.867" y1="914.237" x2="458.043" y2="556.574" gradientUnits="userSpaceOnUse">
<stop stop-color="#FF9085"/>
<stop offset="1" stop-color="#FB6FBB"/>
</linearGradient>
<linearGradient id="paint45_linear_1905_185" x1="463.655" y1="619.167" x2="472.392" y2="579.532" gradientUnits="userSpaceOnUse">
<stop stop-color="#FFC444"/>
<stop offset="1" stop-color="#F36F56"/>
</linearGradient>
<linearGradient id="paint46_linear_1905_185" x1="469.577" y1="583.852" x2="459.564" y2="635.406" gradientUnits="userSpaceOnUse">
<stop stop-color="#FFC444"/>
<stop offset="1" stop-color="#F36F56"/>
</linearGradient>
<linearGradient id="paint47_linear_1905_185" x1="512.974" y1="674.322" x2="455.084" y2="674.322" gradientUnits="userSpaceOnUse">
<stop stop-color="#40447E"/>
<stop offset="1" stop-color="#3C3B6B"/>
</linearGradient>
<linearGradient id="paint48_linear_1905_185" x1="549.993" y1="637.806" x2="512.04" y2="675.456" gradientUnits="userSpaceOnUse">
<stop stop-color="#40447E"/>
<stop offset="1" stop-color="#3C3B6B"/>
</linearGradient>
<linearGradient id="paint49_linear_1905_185" x1="549.993" y1="637.806" x2="512.04" y2="675.456" gradientUnits="userSpaceOnUse">
<stop stop-color="#40447E"/>
<stop offset="1" stop-color="#3C3B6B"/>
</linearGradient>
<linearGradient id="paint50_linear_1905_185" x1="458.003" y1="621.948" x2="449.158" y2="713.046" gradientUnits="userSpaceOnUse">
<stop stop-color="#E38DDD"/>
<stop offset="1" stop-color="#9571F6"/>
</linearGradient>
<linearGradient id="paint51_linear_1905_185" x1="476.721" y1="662.906" x2="457.479" y2="681.042" gradientUnits="userSpaceOnUse">
<stop stop-color="#FFC444"/>
<stop offset="1" stop-color="#F36F56"/>
</linearGradient>
</defs>
</svg>
