<svg width="597" height="554" viewBox="0 0 597 554" fill="none" xmlns="http://www.w3.org/2000/svg">
<g filter="url(#filter0_f_1906_244)">
<ellipse cx="86.804" cy="87.1118" rx="86.804" ry="87.1118" transform="matrix(1 0 0 -1 64 366.806)" fill="#27AE60" fill-opacity="0.25"/>
</g>
<g filter="url(#filter1_f_1906_244)">
<circle cx="103.118" cy="103.118" r="103.118" transform="matrix(1 0 0 -1 224.679 475.772)" fill="#278EAE" fill-opacity="0.25"/>
</g>
<g filter="url(#filter2_f_1906_244)">
<ellipse cx="109.582" cy="109.582" rx="109.582" ry="109.582" transform="matrix(1 0 0 -1 295.478 302.165)" fill="#2745AE" fill-opacity="0.25"/>
</g>
<path opacity="0.2" d="M293.178 137.359C262.244 149.658 259.281 181.1 231.429 183.798C207.161 186.149 197.936 163.39 180.907 167.468C154.968 173.68 138.66 235.522 149.078 286.372C159.835 338.877 205.031 408.677 279.909 413.44C363.974 418.788 427.583 338.477 431.466 267.999C431.887 260.377 434.366 196.517 385.544 158.792C383.105 156.907 334.994 120.731 293.178 137.358V137.359Z" fill="#F4F7FA"/>
<path d="M395.39 236.009C399.903 236.389 403.895 232.735 404.307 227.849C404.718 222.962 401.394 218.693 396.88 218.313C396.646 218.293 396.414 218.291 396.184 218.292C395.969 215.768 395.575 213.295 395.009 210.893C395.222 210.806 395.437 210.715 395.648 210.606C399.762 208.492 401.557 203.194 399.657 198.771C397.757 194.349 392.881 192.479 388.767 194.592C388.552 194.702 388.348 194.827 388.145 194.954C386.801 192.926 385.314 191.016 383.696 189.241C383.845 189.046 383.993 188.848 384.129 188.637C386.742 184.595 385.859 179.071 382.156 176.298C378.454 173.526 373.334 174.555 370.721 178.596C370.588 178.803 370.468 179.017 370.353 179.231C368.263 178.223 366.08 177.387 363.821 176.734C363.862 176.488 363.899 176.24 363.92 175.987C364.331 171.1 365.222 165.583 360.704 165.274C350.252 164.559 347.989 169.724 347.578 174.61C347.556 174.863 347.55 175.114 347.549 175.363C345.212 175.63 342.921 176.087 340.692 176.733C340.614 176.502 340.532 176.272 340.435 176.045C338.535 171.623 338.878 168.674 334.56 170.331C325.142 173.944 323.637 179.279 325.537 183.702C325.636 183.932 325.748 184.152 325.863 184.37C323.969 185.85 322.183 187.485 320.52 189.26C320.343 189.1 320.161 188.944 319.968 188.799C316.265 186.027 311.145 187.056 308.532 191.098C305.919 195.14 306.802 200.664 310.505 203.437C310.695 203.579 310.89 203.704 311.087 203.827C310.127 206.101 309.325 208.473 308.691 210.925C308.464 210.885 308.235 210.849 308.001 210.829C303.489 210.449 299.496 214.102 299.085 218.989C298.673 223.876 301.998 228.145 306.511 228.525C306.745 228.545 306.977 228.547 307.207 228.546C307.422 231.07 307.816 233.542 308.382 235.944C308.167 236.032 307.953 236.123 307.742 236.231C303.628 238.346 301.833 243.644 303.734 248.066C305.634 252.488 310.509 254.359 314.623 252.244C314.838 252.134 315.044 252.01 315.245 251.882C316.589 253.91 318.076 255.821 319.695 257.597C319.545 257.792 319.398 257.989 319.261 258.201C316.648 262.243 317.531 267.767 321.234 270.539C324.937 273.312 332.951 272.044 335.564 268.002C335.698 267.794 332.921 267.821 333.038 267.606C335.128 268.615 337.31 269.451 339.569 270.104C339.529 270.35 339.492 270.598 339.471 270.85C339.059 275.737 342.384 280.007 346.897 280.386C351.41 280.767 355.402 277.113 355.814 272.226C355.835 271.973 355.84 271.722 355.842 271.474C358.179 271.208 360.47 270.749 362.7 270.104C362.778 270.335 362.859 270.564 362.956 270.791C364.857 275.213 369.732 277.084 373.846 274.97C377.96 272.855 379.755 267.557 377.855 263.135C377.755 262.904 377.643 262.684 377.529 262.467C379.422 260.986 381.208 259.352 382.871 257.577C383.049 257.736 383.23 257.893 383.424 258.037C387.127 260.81 392.246 259.781 394.859 255.739C397.472 251.698 396.589 246.174 392.886 243.401C392.697 243.26 392.501 243.134 392.304 243.012C393.265 240.738 394.066 238.366 394.701 235.913C394.927 235.953 395.156 235.99 395.39 236.01V236.009ZM348.99 255.543C332.605 254.163 320.533 238.662 322.028 220.92C323.522 203.178 338.017 189.914 354.401 191.294C370.786 192.674 382.858 208.175 381.364 225.917C379.87 243.659 365.376 256.923 348.989 255.543H348.99Z" fill="#BFC6D1"/>
<path d="M395.649 210.606C399.763 208.492 401.558 203.194 399.658 198.771C397.757 194.349 392.883 192.479 388.768 194.593C388.554 194.703 388.349 194.828 388.146 194.955C386.803 192.927 385.316 191.017 383.697 189.242C383.846 189.047 383.994 188.849 384.13 188.638C386.743 184.596 388.75 176.579 384.784 174.201C377.254 169.687 373.335 174.556 370.723 178.598C370.59 178.805 370.47 179.018 370.355 179.232C368.265 178.224 366.083 177.389 363.824 176.735C363.864 176.489 363.901 176.241 363.922 175.988C364.146 173.329 363.258 170.857 361.679 169.091C360.673 176.733 359.726 184.38 358.854 192.036C372.916 195.576 382.722 209.824 381.366 225.918C380.217 239.555 371.386 250.537 359.92 254.267C359.946 255.758 359.985 257.253 359.971 258.745C359.934 262.796 359.671 266.855 359.404 270.91C360.516 270.685 361.617 270.417 362.702 270.103C362.78 270.334 362.861 270.563 362.959 270.79C364.858 275.212 369.104 277.901 376.673 274.348C380.86 272.384 379.756 267.556 377.857 263.135C377.758 262.904 377.645 262.684 377.531 262.466C379.424 260.986 381.21 259.352 382.873 257.577C383.051 257.736 383.232 257.893 383.426 258.037C387.129 260.81 395.434 259.253 398.047 255.212C400.66 251.17 396.59 246.173 392.888 243.401C392.698 243.258 392.502 243.133 392.306 243.012C393.266 240.738 394.068 238.366 394.702 235.914C394.929 235.954 395.157 235.99 395.391 236.01C399.904 236.391 403.896 232.737 404.308 227.85C404.719 222.964 401.395 218.694 396.881 218.315C396.648 218.295 396.416 218.293 396.186 218.295C395.971 215.771 395.577 213.298 395.011 210.896C395.225 210.808 395.438 210.717 395.649 210.609V210.606Z" fill="#BFC6D1"/>
<path d="M399.6 234.832C404.113 235.212 408.106 231.558 408.517 226.671C408.929 221.785 405.604 217.515 401.091 217.136C400.857 217.116 400.625 217.114 400.395 217.116C400.18 214.592 399.786 212.119 399.22 209.717C399.434 209.63 399.649 209.539 399.858 209.43C403.972 207.316 405.768 202.018 403.867 197.595C401.968 193.173 397.092 191.303 392.978 193.417C392.763 193.527 392.558 193.652 392.356 193.779C391.012 191.751 389.525 189.841 387.906 188.065C388.056 187.87 388.203 187.672 388.34 187.461C390.953 183.419 390.07 177.895 386.367 175.122C382.664 172.35 377.545 173.379 374.932 177.42C374.798 177.628 374.679 177.841 374.563 178.054C372.473 177.046 370.291 176.21 368.032 175.557C368.072 175.311 368.109 175.063 368.13 174.809C368.542 169.922 365.217 165.654 360.704 165.273C356.191 164.893 352.198 168.547 351.787 173.432C351.766 173.685 351.761 173.936 351.759 174.185C349.422 174.451 347.131 174.909 344.901 175.555C344.823 175.324 344.742 175.094 344.644 174.867C342.745 170.445 337.869 168.575 333.755 170.689C329.641 172.803 327.846 178.101 329.746 182.524C329.846 182.754 329.957 182.974 330.072 183.192C328.179 184.672 326.393 186.307 324.73 188.082C324.552 187.922 324.371 187.766 324.177 187.621C320.474 184.849 315.355 185.878 312.742 189.92C310.129 193.962 311.012 199.486 314.714 202.259C314.904 202.401 315.1 202.526 315.296 202.648C314.336 204.922 313.534 207.294 312.9 209.746C312.673 209.706 312.445 209.67 312.211 209.65C307.698 209.27 303.706 212.923 303.294 217.81C302.883 222.697 306.207 226.965 310.721 227.346C310.955 227.366 311.186 227.368 311.416 227.366C311.632 229.89 312.025 232.362 312.591 234.764C312.377 234.852 312.164 234.943 311.953 235.051C307.839 237.166 306.044 242.464 307.944 246.886C309.844 251.308 314.719 253.179 318.834 251.064C319.048 250.954 319.253 250.83 319.456 250.702C320.799 252.73 322.287 254.641 323.905 256.417C323.756 256.611 323.608 256.809 323.472 257.021C320.859 261.063 321.742 266.587 325.444 269.359C329.147 272.132 334.267 271.102 336.88 267.061C337.013 266.854 337.133 266.641 337.248 266.427C339.338 267.436 341.521 268.272 343.779 268.925C343.739 269.171 343.702 269.419 343.681 269.672C343.27 274.559 346.594 278.828 351.108 279.208C355.62 279.588 359.613 275.935 360.024 271.048C360.045 270.795 360.051 270.544 360.052 270.296C362.389 270.03 364.68 269.571 366.91 268.926C366.988 269.157 367.07 269.386 367.167 269.613C369.067 274.035 373.942 275.906 378.056 273.792C382.171 271.677 383.966 266.379 382.065 261.957C381.966 261.726 381.853 261.506 381.739 261.289C383.633 259.808 385.419 258.174 387.081 256.399C387.259 256.558 387.441 256.715 387.634 256.859C391.337 259.632 396.457 258.603 399.07 254.561C401.683 250.52 400.8 244.996 397.097 242.223C396.907 242.081 396.712 241.956 396.515 241.834C397.475 239.56 398.277 237.188 398.911 234.735C399.138 234.775 399.367 234.811 399.6 234.832ZM353.201 254.366C336.815 252.986 324.744 237.485 326.238 219.743C327.732 202.001 342.227 188.737 358.611 190.117C374.997 191.496 387.068 206.998 385.574 224.74C384.08 242.482 369.586 255.745 353.2 254.366H353.201Z" fill="#D8DEE8"/>
<path d="M251.185 336.456C232.115 336.396 207.83 333.598 184.65 322.836C178.735 320.09 142.193 303.122 146.694 286.447C148.279 280.573 153.619 279.696 155.875 271.88C158.55 262.618 152.766 257.921 148.838 246.306C146.495 239.375 139.637 219.093 151.859 208.022C159.161 201.406 172.946 198.379 183.39 200.927C198.71 204.664 203.84 219.662 212.083 245.19C219.39 267.82 217.4 273.337 222.945 289.541C227.061 301.566 234.871 318.145 251.184 336.455L251.185 336.456Z" fill="#AAB9DE"/>
<mask id="mask0_1906_244" style="mask-type:luminance" maskUnits="userSpaceOnUse" x="144" y="200" width="108" height="137">
<path d="M251.185 336.456C232.115 336.396 207.83 333.598 184.65 322.836C178.735 320.09 142.193 303.122 146.694 286.447C148.279 280.573 153.619 279.696 155.875 271.88C158.55 262.618 152.766 257.921 148.838 246.306C146.495 239.375 139.637 219.093 151.859 208.022C159.161 201.406 172.946 198.379 183.39 200.927C198.71 204.664 203.84 219.662 212.083 245.19C219.39 267.82 217.4 273.337 222.945 289.541C227.061 301.566 234.871 318.145 251.184 336.455L251.185 336.456Z" fill="white"/>
</mask>
<g mask="url(#mask0_1906_244)">
<g style="mix-blend-mode:soft-light" opacity="0.5">
<path d="M300.175 347.256C290.578 347.256 281.185 346.107 272.057 343.809C246.384 337.345 224.222 321.718 206.187 297.362C187.44 272.044 177.847 243.628 173.101 224.249C169.793 210.745 170.601 195.851 175.502 179.98L176.188 180.192C171.326 195.937 170.523 210.702 173.798 224.078C179.569 247.641 203.723 325.862 272.232 343.112C291.378 347.932 311.703 347.663 332.641 342.31L332.819 343.005C321.741 345.838 310.83 347.255 300.173 347.255L300.175 347.256Z" fill="white"/>
<path d="M186.377 262.543L186.108 262.366C145.261 235.369 145.983 204.793 147.177 196.065C147.2 195.893 147.217 195.782 147.219 195.733L147.938 195.737C147.938 195.805 147.926 195.899 147.89 196.162C146.713 204.765 146.01 234.865 186.232 261.585C187.25 260.291 191.925 254.12 195.826 245.177C199.861 235.924 203.869 221.72 200.044 206.605L200.74 206.428C204.618 221.747 200.562 236.122 196.476 245.484C192.054 255.616 186.638 262.228 186.584 262.293L186.378 262.542L186.377 262.543Z" fill="white"/>
<path d="M191.657 298.111C174.672 298.111 162.913 293.599 155.56 289.29C145.466 283.375 141.243 276.535 141.202 276.467L141.816 276.094C141.857 276.162 146.009 282.873 155.963 288.694C165.131 294.055 181.234 299.735 205.922 296.396C206.932 294.216 216.9 271.78 214.932 241.595L212.84 209.497L213.557 209.451L215.649 241.549C217.723 273.373 206.6 296.652 206.487 296.884L206.403 297.057L206.212 297.083C200.986 297.798 196.139 298.112 191.656 298.112L191.657 298.111Z" fill="white"/>
</g>
</g>
<path d="M433.999 392.023L164.104 389.69V396.593C164.104 398.466 165.281 400.06 166.875 400.344L243.194 413.936C244.1 414.098 245.018 414.14 245.932 414.064L431.067 398.565C432.72 398.427 434 396.83 434 394.904V392.022L433.999 392.023Z" fill="#BFC8D6"/>
<path d="M334.677 380.961L163.137 393.588C160.068 393.814 157.572 391.413 157.572 388.225V260.483C157.572 257.295 160.068 254.71 163.137 254.71H334.677C337.206 254.71 339.251 257.047 339.251 259.929V375.406C339.251 378.288 337.206 380.775 334.677 380.961Z" fill="#AAB9DE"/>
<path d="M337.411 380.961L165.871 393.588C162.802 393.814 160.306 391.413 160.306 388.225V260.483C160.306 257.295 162.802 254.71 165.871 254.71H337.411C339.94 254.71 341.985 257.047 341.985 259.929V375.406C341.985 378.288 339.94 380.775 337.411 380.961Z" fill="#215EAB"/>
<path d="M332.068 372.82L172.296 383.788C169.798 383.96 167.768 381.989 167.768 379.386V267.549C167.768 264.946 169.798 262.826 172.296 262.816L332.068 262.128C334.154 262.119 335.842 264.034 335.842 266.405V368.269C335.842 370.64 334.154 372.677 332.068 372.821V372.82Z" fill="#E9EFF8"/>
<path d="M257.7 258.205C257.7 259.392 256.817 260.357 255.727 260.36C254.636 260.363 253.75 259.402 253.75 258.213C253.75 257.023 254.636 256.058 255.727 256.057C256.818 256.057 257.7 257.017 257.7 258.205Z" fill="white"/>
<path d="M345.494 380.261L164.104 393.552L243.194 407.639C244.1 407.8 245.018 407.842 245.932 407.766L434 392.023L348.38 380.351C347.423 380.22 346.457 380.19 345.494 380.261Z" fill="#215EAB"/>
<path d="M190.57 393.667L341.584 382.436L388.322 388.756L238.609 400.761L190.57 393.667Z" fill="#92AFF2"/>
<path d="M377.04 232.309L376.324 332.849C376.292 337.349 373.073 341.123 368.974 341.273L187.785 346.774L185.51 347.94L184.371 348.006C179.19 348.194 174.992 344.222 174.992 339.124V225.205C174.992 220.348 178.774 216.509 183.587 216.284C183.866 216.268 184.14 216.268 184.425 216.279L369.754 223.796C373.868 223.962 377.074 227.774 377.041 232.308L377.04 232.309Z" fill="#215EAB"/>
<path d="M378.643 232.361L377.923 332.816C377.891 337.313 374.561 341.078 370.469 341.228L186.209 347.938C181.039 348.126 176.778 344.151 176.778 339.059L176.785 225.277C176.785 220.424 180.58 216.586 185.382 216.361C185.661 216.345 185.945 216.343 186.229 216.354L371.271 223.855C375.378 224.021 378.675 227.83 378.642 232.36L378.643 232.361Z" fill="#E9EFF8"/>
<path d="M378.643 232.361L378.584 240.561L176.784 234.57V225.278C176.784 220.425 180.579 216.587 185.382 216.362C185.661 216.346 185.945 216.344 186.229 216.355L371.271 223.856C375.378 224.022 378.675 227.831 378.642 232.361H378.643Z" fill="#215EAB"/>
<path d="M191.981 225.802C191.981 227.395 190.674 228.641 189.061 228.587C187.445 228.533 186.134 227.194 186.134 225.597C186.134 223.999 187.447 222.752 189.064 222.811C190.677 222.87 191.982 224.209 191.981 225.801V225.802Z" fill="white"/>
<path d="M202.614 226.176C202.612 227.758 201.323 228.998 199.73 228.944C198.135 228.891 196.84 227.561 196.841 225.973C196.842 224.386 198.14 223.146 199.735 223.205C201.329 223.263 202.616 224.593 202.614 226.176Z" fill="white"/>
<path d="M213.115 226.545C213.113 228.117 211.838 229.349 210.265 229.296C208.689 229.243 207.411 227.922 207.413 226.344C207.415 224.767 208.697 223.535 210.273 223.593C211.846 223.651 213.118 224.973 213.116 226.545H213.115Z" fill="white"/>
<path d="M190.372 276.826L235.759 252.221L278.691 277.282L190.372 276.826Z" fill="url(#paint0_linear_1906_244)"/>
<path d="M204.13 280.132C204.13 280.781 203.599 281.306 202.946 281.305L195.216 281.285C194.556 281.283 194.021 280.752 194.022 280.098C194.022 279.445 194.558 278.917 195.218 278.92L202.948 278.952C203.601 278.955 204.13 279.482 204.13 280.133V280.132Z" fill="url(#paint1_linear_1906_244)"/>
<path d="M204.086 322.107C204.086 322.754 203.556 323.291 202.904 323.306L195.186 323.477C194.527 323.492 193.993 322.976 193.993 322.324C193.993 321.673 194.529 321.133 195.187 321.12L202.906 320.96C203.558 320.946 204.087 321.46 204.086 322.108V322.107Z" fill="url(#paint2_linear_1906_244)"/>
<path d="M197.046 319.909L194.62 319.931L194.646 282.454L197.076 282.471L197.046 319.909Z" fill="url(#paint3_linear_1906_244)"/>
<path d="M200.385 319.852L198.564 319.879L198.595 282.471L200.419 282.484L200.385 319.852Z" fill="url(#paint4_linear_1906_244)"/>
<path d="M203.12 319.785L201.296 319.822L201.332 282.481L203.157 282.485L203.12 319.785Z" fill="url(#paint5_linear_1906_244)"/>
<path d="M228.307 280.21C228.306 280.85 227.79 281.368 227.156 281.366L219.647 281.347C219.006 281.345 218.487 280.822 218.488 280.178C218.488 279.533 219.01 279.014 219.651 279.017L227.161 279.047C227.796 279.05 228.309 279.571 228.308 280.211L228.307 280.21Z" fill="url(#paint6_linear_1906_244)"/>
<path d="M228.229 321.587C228.228 322.225 227.713 322.754 227.079 322.768L219.58 322.935C218.94 322.949 218.421 322.44 218.422 321.798C218.422 321.156 218.943 320.625 219.583 320.611L227.082 320.454C227.716 320.441 228.229 320.948 228.228 321.586L228.229 321.587Z" fill="url(#paint7_linear_1906_244)"/>
<path d="M224.464 319.354L222.323 319.401L222.385 282.523H224.528L224.464 319.354Z" fill="url(#paint8_linear_1906_244)"/>
<path d="M227.523 319.285L225.687 319.317L225.753 282.518L227.592 282.524L227.523 319.285Z" fill="url(#paint9_linear_1906_244)"/>
<path d="M221.058 319.285L219.222 319.317L219.288 282.518L221.126 282.524L221.058 319.285Z" fill="url(#paint10_linear_1906_244)"/>
<path d="M252.082 280.288C252.08 280.919 251.579 281.429 250.962 281.428L243.666 281.409C243.043 281.407 242.539 280.891 242.54 280.257C242.542 279.622 243.048 279.11 243.671 279.112L250.967 279.141C251.584 279.143 252.083 279.657 252.081 280.288H252.082Z" fill="url(#paint11_linear_1906_244)"/>
<path d="M251.971 321.075C251.969 321.704 251.469 322.225 250.853 322.239L243.567 322.402C242.945 322.416 242.441 321.914 242.443 321.281C242.445 320.648 242.951 320.125 243.573 320.112L250.859 319.96C251.475 319.947 251.973 320.447 251.971 321.076V321.075Z" fill="url(#paint12_linear_1906_244)"/>
<path d="M248.355 318.87L246.508 318.914L246.6 282.57H248.449L248.355 318.87Z" fill="url(#paint13_linear_1906_244)"/>
<path d="M245.586 318.87L243.737 318.914L243.83 282.57H245.68L245.586 318.87Z" fill="url(#paint14_linear_1906_244)"/>
<path d="M251.129 318.816L249.587 318.846L249.684 282.572L251.227 282.578L251.129 318.816Z" fill="url(#paint15_linear_1906_244)"/>
<path d="M274.918 280.362C274.916 280.984 274.428 281.488 273.828 281.486L266.733 281.468C266.127 281.466 265.639 280.958 265.64 280.332C265.642 279.706 266.134 279.201 266.74 279.203L273.835 279.231C274.435 279.233 274.919 279.74 274.917 280.362H274.918Z" fill="url(#paint16_linear_1906_244)"/>
<path d="M274.776 320.583C274.774 321.204 274.286 321.717 273.687 321.731L266.603 321.889C265.998 321.902 265.509 321.407 265.511 320.783C265.513 320.159 266.006 319.643 266.61 319.63L273.695 319.483C274.294 319.471 274.778 319.963 274.776 320.583Z" fill="url(#paint17_linear_1906_244)"/>
<path d="M268.438 318.469L266.888 318.497L267.006 282.603L268.556 282.606L268.438 318.469Z" fill="url(#paint18_linear_1906_244)"/>
<path d="M270.993 318.406L269.442 318.441L269.563 282.607L271.115 282.609L270.993 318.406Z" fill="url(#paint19_linear_1906_244)"/>
<path d="M273.709 318.348L271.847 318.387L271.97 282.606L273.834 282.608L273.709 318.348Z" fill="url(#paint20_linear_1906_244)"/>
<path d="M276.199 330.088L192.491 332.393L192.495 325.314L276.223 323.355L276.199 330.088Z" fill="url(#paint21_linear_1906_244)"/>
<path d="M279.615 329.991L188.555 332.488L188.557 328.646L279.628 326.352L279.615 329.991Z" fill="url(#paint22_linear_1906_244)"/>
<path d="M369.41 270.582L295.129 269.854L295.161 262.335L369.461 263.413L369.41 270.582Z" fill="url(#paint23_linear_1906_244)"/>
<path d="M337.143 296.282L295.016 296.554L295.042 290.439L337.177 290.327L337.143 296.282Z" fill="url(#paint24_linear_1906_244)"/>
<path d="M368.518 307.717L294.964 308.774L294.988 302.943L368.556 302.153L368.518 307.717Z" fill="url(#paint25_linear_1906_244)"/>
<path d="M368.429 320.691L294.906 322.37L294.932 316.267L368.469 314.868L368.429 320.691Z" fill="url(#paint26_linear_1906_244)"/>
<path d="M391.226 291.561L388.676 292.07C388.676 292.07 375.287 309.157 377.201 315.659C379.113 322.163 388.676 317.19 388.676 317.19L391.226 291.561Z" fill="#144D94"/>
<path d="M408.029 413.217C408.459 413.567 408.538 414.44 408.59 415.011C408.613 415.266 408.625 415.393 408.596 415.484C408.388 416.141 407.113 416.21 405.115 416.414C401.957 416.737 401.017 416.985 400.77 416.515C400.538 416.075 401.099 415.353 401.162 415.274C401.501 414.847 401.918 414.691 402.723 414.426C404.214 413.935 405.22 413.667 405.525 413.586C407.429 413.078 407.747 412.987 408.029 413.217Z" fill="url(#paint27_linear_1906_244)"/>
<path d="M406.151 410.332L405.835 413.93C405.924 414.104 406.994 414.626 407.844 414.178L408.656 410.641L406.151 410.332Z" fill="url(#paint28_linear_1906_244)"/>
<path d="M382.207 410.351C382.723 410.921 382.84 411.97 382.391 412.486C381.951 412.994 381.288 412.614 379.408 412.669C377.394 412.729 376.868 413.205 375.501 412.828C374.948 412.675 373.971 412.304 373.991 411.909C374.004 411.632 374.5 411.488 376.161 410.932C378.517 410.142 378.507 410.099 379.008 410.017C380.265 409.809 381.526 409.6 382.208 410.351H382.207Z" fill="url(#paint29_linear_1906_244)"/>
<path d="M380.917 407.067L379.906 410.426C379.983 410.607 381.009 411.208 381.89 410.827L383.39 407.566L380.916 407.066L380.917 407.067Z" fill="url(#paint30_linear_1906_244)"/>
<path d="M389.89 333.488C389.746 344.779 388.975 357.473 387.127 371.266C385.3 384.898 382.74 397.214 379.946 408.044C381.235 408.391 382.523 408.738 383.812 409.085C387.081 406.036 391.205 401.238 393.195 394.456C394.43 390.248 394.019 388.085 394.801 382.908C396.049 374.665 398.575 370.347 401.186 363.701C403.533 357.728 406.307 348.962 407.794 337.246C401.826 335.993 395.858 334.74 389.889 333.488H389.89Z" fill="#B53931"/>
<path d="M402.299 334.814C403.088 349.174 403.736 363.801 404.227 378.687C404.597 389.858 404.868 400.887 405.047 411.77C406.364 411.933 407.679 412.095 408.996 412.258C410.267 409.89 411.957 406.269 413.114 401.629C414.52 395.994 414.194 392.647 414.811 386.806C415.502 380.256 416.507 378.828 418.287 370.564C421.898 353.793 423.704 345.407 419.676 340.191C418.368 338.497 414.268 334.249 402.299 334.816V334.814Z" fill="#CA534B"/>
<path d="M420.527 292C417.122 291.043 412.132 289.923 406.021 289.578C397.011 289.068 392.504 288.843 389.86 290.914C381.657 297.338 389.43 320.299 386.507 332.364C384.048 342.516 383.957 342.693 383.957 342.693C383.376 343.827 382.434 345.405 382.809 347.283C383.105 348.76 384.223 350.458 385.743 350.981C388.899 352.067 390.709 347.019 395.944 345.498C401.415 343.908 407.538 347.068 415.278 351.063C420.205 353.606 421.887 355.229 423.613 354.424C426.937 352.874 426.024 344.377 425.653 340.907C424.179 327.121 422.519 310.98 420.527 292Z" fill="#215EAB"/>
<path d="M397.92 315.405C398.158 315.351 398.582 313.767 397.538 313.3C392.819 311.196 389.169 315.362 388.68 316.644L388.191 317.925C388.191 317.925 390.534 318.108 391.987 317.62C393.44 317.132 395.982 315.836 397.92 315.405Z" fill="#FFB27D"/>
<path d="M385.03 321.371L393.33 321.789C393.648 321.805 394.028 321.412 393.949 321.144L390.072 308.597C390.011 308.388 389.799 308.249 389.562 308.262L381.602 308.436C381.343 308.451 381.201 308.962 381.271 309.215L384.569 321.013C384.623 321.208 384.819 321.361 385.03 321.371Z" fill="url(#paint31_linear_1906_244)"/>
<path d="M385.18 321.103L393.526 321.494C393.846 321.509 394.067 321.281 393.989 321.012L390.261 308.248C390.2 308.038 389.986 307.9 389.748 307.914L381.777 308.385C381.516 308.4 381.34 308.651 381.411 308.905L384.719 320.746C384.773 320.94 384.971 321.093 385.181 321.103H385.18Z" fill="url(#paint32_linear_1906_244)"/>
<g style="mix-blend-mode:multiply" opacity="0.3">
<path d="M389.393 313.493C389.147 314.654 388.102 314.404 387.25 315.809C386.168 317.593 387.205 319.167 386.213 319.821C385.911 320.02 385.4 320.14 384.48 319.899L384.717 320.746C384.771 320.94 384.969 321.093 385.18 321.103L393.526 321.494C393.846 321.509 394.066 321.281 393.988 321.012L390.26 308.248C390.199 308.038 389.985 307.9 389.748 307.914L388.55 307.985C388.41 308.423 388.31 308.93 388.32 309.49C388.358 311.415 389.683 312.132 389.393 313.492V313.493Z" fill="url(#paint33_linear_1906_244)"/>
</g>
<path d="M381.377 312.556C381.33 312.355 381.429 312.148 381.579 312.137C382.186 312.093 383.595 312.076 384.372 312.749C385.383 313.624 386.689 315.222 385.589 316.028L384.561 316.78C384.514 316.814 384.463 316.825 384.41 316.809C384.045 316.696 382.509 316.213 382.341 316.094C382.189 315.985 381.603 313.526 381.376 312.555L381.377 312.556Z" fill="#FFB27D"/>
<path d="M401.427 282.72C401.421 283.406 403.125 286.837 405.423 288.501C407.741 290.18 410.658 290.089 411.527 290.304C413.542 290.804 413.801 290.79 413.846 290.991C414.062 291.966 408.569 295.29 402.892 294.49C399.418 293.999 396.257 292.017 396.451 290.977C396.647 289.929 400.116 290.491 401.151 288.596C401.87 287.278 401.064 285.406 400.11 283.857C401.034 282.127 400.505 284.452 401.428 282.722L401.427 282.72Z" fill="#FFB27D"/>
<path d="M395.329 284.306C394.122 283.672 393.262 281.976 393.601 280.485C393.893 279.203 394.986 278.522 395.64 278.113C397.535 276.931 400.464 276.569 402.219 277.998C403.258 278.845 403.207 281.652 403.224 282.144C403.243 282.701 402.955 283.031 402.786 283.54C402.55 284.244 402.187 285.36 401.609 287.212C401.337 286.875 400.973 286.471 400.509 286.067C400.33 285.911 399.622 285.307 398.799 284.919C397.149 284.139 396.474 284.905 395.33 284.305L395.329 284.306Z" fill="#233862"/>
<path d="M402.79 285.326C402.79 285.326 402.497 288.114 399.791 289.187C397.368 290.149 394.526 285.04 395.497 283.211C395.821 282.601 396.75 281.971 397.675 281.812C398.221 281.719 398.478 281.841 399.366 281.672C400.186 281.515 400.354 281.336 400.662 281.418C401.047 281.519 401.519 281.992 401.789 283.751C402.023 283.085 402.478 282.655 402.945 282.654C403.019 282.654 403.233 282.687 403.402 282.811C404.016 283.257 403.831 284.287 402.79 285.326Z" fill="#FFB27D"/>
<path d="M400.62 281.052C400.546 281.19 401.093 281.449 401.402 282.035C402.003 283.173 401.488 285.125 400.345 285.812C399.668 286.218 399.271 285.883 398.04 286.315C397.277 286.582 396.717 286.961 396.376 287.224C396.612 288.673 397.56 289.779 398.691 289.964C399.908 290.164 400.898 289.225 401.311 288.831C401.588 288.568 402.475 287.727 402.567 286.505C402.664 285.231 401.816 284.893 402.15 283.903C402.318 283.405 402.683 283.05 402.792 282.187C402.821 281.953 402.823 281.757 402.819 281.629C401.908 281.273 400.725 280.853 400.62 281.053V281.052Z" fill="#233862"/>
<path d="M413.539 295.895C414.915 293.808 417.653 291.761 420.17 291.943C427.523 292.474 436.585 312.279 430.371 320.123C425.628 326.11 410.975 326.401 397.601 316.043V312.6C404.181 313.751 409.637 314.516 413.667 315.022C416.181 315.338 418.684 315.624 419.15 314.64C419.855 313.151 414.821 311.02 412.901 305.459C412.636 304.693 410.954 299.817 413.538 295.896L413.539 295.895Z" fill="#144D94"/>
<path d="M159.777 406.563V414.284C159.777 416.778 175.361 418.8 194.583 418.8C213.805 418.8 229.389 416.778 229.389 414.284V406.563H159.777Z" fill="#FFA412"/>
<path d="M229.389 406.563C229.389 409.058 213.805 411.079 194.583 411.079C175.361 411.079 159.777 409.058 159.777 406.563C159.777 404.068 175.361 402.046 194.583 402.046C213.805 402.046 229.389 404.068 229.389 406.563Z" fill="url(#paint34_linear_1906_244)"/>
<path d="M194.583 411.392C177.559 411.392 159.757 409.765 159.757 406.629C159.757 406.457 159.819 406.155 159.991 406.155C160.164 406.155 160.089 406.392 160.089 406.564C160.089 408.553 174.256 410.77 194.584 410.77C214.912 410.77 229.079 408.554 229.079 406.564C229.079 406.392 229.108 406.231 229.28 406.231C229.453 406.231 229.411 406.461 229.411 406.633C229.411 409.77 211.609 411.394 194.584 411.394L194.583 411.392Z" fill="#FFC76C"/>
<path d="M191.294 406.815C191.635 406.578 191.998 406.345 192.388 406.116C192.773 405.886 193.275 405.678 193.883 405.492C194.494 405.307 195.26 405.156 196.177 405.039C197.095 404.922 198.243 404.86 199.613 404.853C200.959 404.846 202.22 404.889 203.402 404.982C204.58 405.073 205.619 405.211 206.517 405.394C207.411 405.577 208.142 405.804 208.704 406.072C209.263 406.342 209.596 406.651 209.703 406.999L213.623 407.039C213.907 407.041 214.159 407.064 214.374 407.108C214.593 407.153 214.699 407.209 214.699 407.278L214.701 407.601L209.663 407.553C209.486 407.948 209.036 408.309 208.312 408.637C207.592 408.965 206.672 409.249 205.55 409.489L203.715 409.234C203.55 409.209 203.416 409.177 203.309 409.138C203.203 409.1 203.152 409.058 203.152 409.012C203.152 408.949 203.293 408.879 203.577 408.8C203.861 408.721 204.181 408.621 204.538 408.504C204.896 408.386 205.245 408.248 205.59 408.088C205.932 407.929 206.161 407.738 206.279 407.515L194.388 407.398C194.075 407.628 193.722 407.854 193.337 408.075C192.948 408.297 192.435 408.497 191.795 408.674C191.153 408.852 190.357 408.996 189.401 409.107C188.443 409.217 187.244 409.276 185.793 409.284C184.703 409.289 183.642 409.247 182.603 409.16C181.563 409.072 180.64 408.94 179.834 408.766C179.028 408.59 178.367 408.373 177.848 408.115C177.332 407.857 177.043 407.561 176.983 407.224L173.757 407.191C173.473 407.189 173.221 407.167 172.994 407.124C172.771 407.081 172.658 407.024 172.658 406.952L172.656 406.629L177.067 406.672C177.263 406.331 177.662 406.035 178.273 405.783C178.884 405.531 179.631 405.307 180.512 405.11L181.989 405.313C182.437 405.376 182.66 405.449 182.661 405.535C182.661 405.581 182.571 405.637 182.385 405.704C182.196 405.772 181.978 405.853 181.723 405.947C181.472 406.041 181.224 406.152 180.988 406.278C180.749 406.405 180.57 406.548 180.451 406.709L191.293 406.817L191.294 406.815ZM180.41 407.255C180.499 407.466 180.696 407.648 180.996 407.801C181.296 407.955 181.669 408.081 182.117 408.18C182.566 408.279 183.07 408.351 183.628 408.397C184.189 408.444 184.776 408.466 185.389 408.463C186.103 408.46 186.726 408.429 187.258 408.37C187.787 408.312 188.252 408.233 188.657 408.134C189.057 408.033 189.41 407.918 189.708 407.786C190.006 407.654 190.272 407.511 190.512 407.357L180.41 407.255ZM206.299 406.966C206.211 406.751 205.994 406.563 205.659 406.402C205.323 406.24 204.893 406.105 204.371 405.995C203.849 405.885 203.24 405.804 202.544 405.75C201.851 405.697 201.085 405.672 200.247 405.676C199.503 405.68 198.858 405.713 198.322 405.775C197.786 405.839 197.321 405.923 196.923 406.029C196.53 406.136 196.192 406.259 195.919 406.401C195.643 406.542 195.384 406.694 195.148 406.854L206.3 406.966H206.299Z" fill="#FCB048"/>
<path d="M194.588 402.535C179.069 402.535 162.909 403.901 160.325 406.544C160.427 406.637 160.52 406.737 160.608 406.841C162.787 405.006 176.13 403.157 194.589 403.157C213.049 403.157 227.079 405.102 228.721 406.982C228.802 406.879 228.888 406.781 228.981 406.687C226.846 403.95 210.384 402.534 194.589 402.534L194.588 402.535Z" fill="url(#paint35_linear_1906_244)"/>
<path d="M150.101 398.454V406.175C150.101 408.669 165.685 410.691 184.907 410.691C204.129 410.691 219.713 408.669 219.713 406.175V398.454H150.101Z" fill="#FFA412"/>
<path d="M219.713 398.454C219.713 400.949 204.13 402.971 184.908 402.971C165.686 402.971 150.102 400.949 150.102 398.454C150.102 395.959 165.686 393.938 184.908 393.938C204.13 393.938 219.713 395.959 219.713 398.454Z" fill="#FFA412"/>
<path d="M184.908 403.281C167.883 403.281 150.082 401.656 150.082 398.519C150.082 398.346 150.143 398.044 150.316 398.044C150.488 398.044 150.414 398.281 150.414 398.454C150.414 400.443 164.581 402.659 184.909 402.659C205.237 402.659 219.403 400.444 219.403 398.454C219.403 398.281 219.433 398.121 219.605 398.121C219.778 398.121 219.736 398.35 219.736 398.523C219.736 401.66 201.933 403.282 184.909 403.282L184.908 403.281Z" fill="#FFC76C"/>
<path d="M181.619 398.706C181.96 398.469 182.324 398.237 182.712 398.007C183.098 397.777 183.599 397.569 184.207 397.384C184.819 397.198 185.584 397.047 186.502 396.93C187.421 396.813 188.568 396.751 189.939 396.744C191.285 396.737 192.546 396.781 193.727 396.873C194.905 396.964 195.945 397.103 196.843 397.285C197.737 397.468 198.468 397.695 199.029 397.964C199.588 398.234 199.922 398.543 200.029 398.89L203.948 398.93C204.232 398.932 204.484 398.955 204.7 398.999C204.919 399.044 205.025 399.101 205.025 399.169L205.027 399.492L199.989 399.444C199.812 399.839 199.362 400.2 198.638 400.528C197.918 400.857 196.997 401.141 195.876 401.38L194.04 401.125C193.876 401.1 193.741 401.068 193.635 401.029C193.529 400.991 193.477 400.949 193.477 400.903C193.477 400.84 193.619 400.77 193.903 400.691C194.187 400.611 194.507 400.512 194.864 400.395C195.22 400.278 195.571 400.139 195.916 399.98C196.258 399.82 196.487 399.629 196.605 399.407L184.713 399.288C184.401 399.518 184.048 399.744 183.663 399.965C183.273 400.187 182.76 400.387 182.12 400.565C181.479 400.742 180.681 400.886 179.727 400.997C178.769 401.107 177.57 401.167 176.119 401.174C175.029 401.179 173.967 401.138 172.928 401.05C171.888 400.962 170.965 400.83 170.159 400.656C169.352 400.48 168.692 400.263 168.173 400.006C167.658 399.747 167.369 399.451 167.308 399.115L164.082 399.081C163.798 399.079 163.546 399.057 163.32 399.014C163.097 398.971 162.983 398.914 162.983 398.843L162.981 398.519L167.393 398.562C167.587 398.221 167.988 397.925 168.599 397.674C169.21 397.421 169.956 397.197 170.837 397L172.315 397.203C172.763 397.266 172.986 397.339 172.987 397.425C172.987 397.471 172.897 397.527 172.711 397.595C172.521 397.663 172.304 397.744 172.049 397.838C171.798 397.932 171.55 398.043 171.314 398.169C171.074 398.296 170.897 398.439 170.776 398.6L181.619 398.708V398.706ZM170.735 399.146C170.823 399.357 171.021 399.539 171.321 399.693C171.621 399.846 171.993 399.973 172.442 400.071C172.891 400.17 173.394 400.242 173.952 400.289C174.514 400.335 175.101 400.357 175.713 400.354C176.428 400.35 177.051 400.32 177.583 400.261C178.11 400.203 178.577 400.125 178.981 400.025C179.382 399.924 179.735 399.809 180.033 399.677C180.331 399.545 180.597 399.403 180.837 399.248L170.735 399.146ZM196.624 398.857C196.536 398.642 196.319 398.454 195.983 398.293C195.647 398.131 195.216 397.996 194.695 397.886C194.173 397.776 193.564 397.695 192.867 397.641C192.174 397.588 191.408 397.563 190.57 397.567C189.827 397.571 189.182 397.604 188.646 397.667C188.11 397.73 187.644 397.814 187.247 397.92C186.854 398.027 186.515 398.15 186.242 398.292C185.967 398.433 185.708 398.585 185.472 398.745L196.624 398.857Z" fill="#FCB048"/>
<path d="M184.912 394.426C169.393 394.426 153.234 395.792 150.649 398.435C150.751 398.528 150.844 398.628 150.932 398.732C153.111 396.897 166.454 395.048 184.913 395.048C203.373 395.048 217.403 396.993 219.046 398.874C219.126 398.77 219.212 398.672 219.306 398.579C217.171 395.841 200.709 394.425 184.913 394.425L184.912 394.426Z" fill="url(#paint36_linear_1906_244)"/>
<path d="M158.451 390.368V398.089C158.451 400.583 174.035 402.605 193.257 402.605C212.479 402.605 228.063 400.583 228.063 398.089V390.368H158.451Z" fill="#FFA412"/>
<path d="M228.063 390.368C228.063 392.863 212.479 394.885 193.257 394.885C174.035 394.885 158.451 392.863 158.451 390.368C158.451 387.874 174.035 385.852 193.257 385.852C212.479 385.852 228.063 387.874 228.063 390.368Z" fill="#FFC76C"/>
<path d="M193.257 395.197C176.232 395.197 158.431 393.571 158.431 390.435C158.431 390.262 158.492 389.96 158.665 389.96C158.838 389.96 158.763 390.197 158.763 390.369C158.763 392.358 172.93 394.575 193.258 394.575C213.586 394.575 227.753 392.359 227.753 390.369C227.753 390.197 227.782 390.036 227.954 390.036C228.127 390.036 228.085 390.266 228.085 390.439C228.085 393.574 210.283 395.198 193.258 395.198L193.257 395.197Z" fill="#FFC76C"/>
<path d="M189.968 390.62C190.309 390.383 190.672 390.151 191.061 389.921C191.447 389.691 191.948 389.483 192.557 389.298C193.168 389.112 193.933 388.961 194.851 388.844C195.77 388.727 196.918 388.665 198.288 388.658C199.634 388.651 200.895 388.695 202.076 388.787C203.254 388.878 204.294 389.017 205.192 389.199C206.086 389.382 206.817 389.609 207.38 389.878C207.938 390.148 208.272 390.457 208.379 390.804L212.298 390.844C212.582 390.846 212.834 390.869 213.05 390.913C213.269 390.958 213.375 391.015 213.375 391.083L213.377 391.406L208.339 391.358C208.162 391.753 207.712 392.114 206.988 392.442C206.268 392.771 205.348 393.055 204.226 393.294L202.39 393.04C202.226 393.014 202.091 392.982 201.985 392.943C201.879 392.905 201.827 392.863 201.827 392.817C201.827 392.755 201.969 392.684 202.253 392.605C202.537 392.525 202.857 392.426 203.214 392.309C203.57 392.192 203.921 392.053 204.266 391.894C204.608 391.734 204.837 391.543 204.955 391.321L193.063 391.202C192.751 391.432 192.398 391.658 192.013 391.88C191.623 392.101 191.111 392.301 190.47 392.479C189.829 392.656 189.031 392.8 188.077 392.911C187.119 393.021 185.92 393.081 184.469 393.088C183.379 393.093 182.317 393.052 181.278 392.964C180.238 392.876 179.315 392.745 178.509 392.57C177.702 392.394 177.042 392.178 176.523 391.92C176.008 391.661 175.719 391.365 175.658 391.029L172.432 390.995C172.148 390.993 171.896 390.971 171.67 390.928C171.447 390.885 171.334 390.828 171.334 390.757L171.332 390.434L175.743 390.476C175.937 390.136 176.338 389.84 176.949 389.588C177.56 389.335 178.307 389.111 179.188 388.914L180.665 389.117C181.113 389.18 181.336 389.253 181.337 389.339C181.337 389.385 181.247 389.441 181.061 389.509C180.871 389.578 180.654 389.658 180.399 389.752C180.148 389.847 179.9 389.957 179.664 390.083C179.424 390.21 179.247 390.353 179.126 390.514L189.969 390.622L189.968 390.62ZM179.084 391.06C179.173 391.271 179.37 391.453 179.67 391.607C179.97 391.76 180.343 391.887 180.791 391.985C181.24 392.084 181.743 392.156 182.301 392.203C182.863 392.249 183.45 392.271 184.062 392.268C184.777 392.264 185.4 392.234 185.932 392.176C186.46 392.117 186.926 392.038 187.331 391.939C187.731 391.838 188.084 391.723 188.382 391.592C188.68 391.459 188.946 391.317 189.186 391.162L179.084 391.06ZM204.973 390.771C204.885 390.556 204.669 390.368 204.333 390.207C203.997 390.045 203.566 389.91 203.045 389.8C202.523 389.69 201.914 389.609 201.217 389.556C200.524 389.502 199.758 389.477 198.92 389.481C198.177 389.485 197.532 389.518 196.996 389.581C196.46 389.644 195.994 389.728 195.597 389.834C195.204 389.941 194.865 390.064 194.593 390.206C194.317 390.347 194.058 390.499 193.822 390.659L204.974 390.771H204.973Z" fill="#FCB048"/>
<path d="M193.262 386.34C177.742 386.34 161.584 387.706 158.999 390.349C159.1 390.442 159.194 390.542 159.282 390.646C161.46 388.811 174.803 386.962 193.263 386.962C211.722 386.962 225.753 388.907 227.395 390.788C227.476 390.684 227.562 390.586 227.655 390.493C225.521 387.755 209.058 386.339 193.263 386.339L193.262 386.34Z" fill="url(#paint37_linear_1906_244)"/>
<path d="M163.517 382.259V389.979C163.517 392.473 179.1 394.495 198.323 394.495C217.546 394.495 233.129 392.473 233.129 389.979V382.259H163.517Z" fill="#FFA412"/>
<path d="M198.323 386.776C217.545 386.776 233.129 384.754 233.129 382.259C233.129 379.765 217.545 377.743 198.323 377.743C179.1 377.743 163.517 379.765 163.517 382.259C163.517 384.754 179.1 386.776 198.323 386.776Z" fill="#FFC76C"/>
<path d="M198.323 387.088C181.298 387.088 163.497 385.462 163.497 382.326C163.497 382.153 163.558 381.851 163.731 381.851C163.903 381.851 163.829 382.088 163.829 382.26C163.829 384.249 177.996 386.465 198.323 386.465C218.65 386.465 232.818 384.249 232.818 382.26C232.818 382.088 232.847 381.926 233.019 381.926C233.192 381.926 233.15 382.156 233.15 382.329C233.15 385.466 215.347 387.089 198.323 387.089V387.088Z" fill="#FFA412"/>
<path d="M195.034 382.511C195.375 382.275 195.739 382.042 196.127 381.812C196.513 381.582 197.014 381.374 197.622 381.189C198.234 381.003 198.999 380.853 199.917 380.735C200.836 380.618 201.983 380.557 203.354 380.55C204.7 380.543 205.961 380.586 207.142 380.678C208.32 380.769 209.36 380.908 210.258 381.09C211.152 381.273 211.883 381.5 212.444 381.769C213.003 382.039 213.337 382.348 213.444 382.695L217.363 382.735C217.647 382.737 217.899 382.76 218.115 382.804C218.334 382.849 218.44 382.906 218.44 382.974L218.442 383.297L213.404 383.249C213.227 383.644 212.777 384.005 212.053 384.334C211.333 384.662 210.412 384.946 209.291 385.186L207.455 384.931C207.291 384.906 207.156 384.873 207.05 384.834C206.944 384.796 206.892 384.754 206.892 384.708C206.892 384.646 207.034 384.575 207.318 384.496C207.602 384.416 207.922 384.318 208.279 384.2C208.636 384.083 208.986 383.944 209.331 383.785C209.673 383.625 209.902 383.434 210.02 383.212L198.128 383.093C197.816 383.323 197.463 383.549 197.078 383.771C196.688 383.992 196.175 384.192 195.535 384.37C194.894 384.547 194.097 384.691 193.142 384.802C192.184 384.913 190.985 384.972 189.534 384.979C188.444 384.984 187.382 384.943 186.344 384.855C185.304 384.767 184.381 384.636 183.575 384.461C182.768 384.285 182.108 384.069 181.589 383.811C181.074 383.552 180.785 383.256 180.724 382.92L177.498 382.887C177.214 382.885 176.962 382.863 176.736 382.819C176.513 382.776 176.399 382.719 176.399 382.648L176.397 382.325L180.809 382.367C181.004 382.027 181.404 381.731 182.015 381.479C182.626 381.226 183.372 381.002 184.253 380.805L185.731 381.008C186.179 381.071 186.402 381.145 186.403 381.23C186.403 381.276 186.313 381.332 186.127 381.399C185.937 381.468 185.72 381.548 185.465 381.642C185.214 381.737 184.966 381.847 184.73 381.973C184.49 382.1 184.313 382.243 184.193 382.404L195.036 382.512L195.034 382.511ZM184.15 382.951C184.238 383.163 184.436 383.344 184.736 383.498C185.036 383.651 185.408 383.778 185.857 383.876C186.306 383.975 186.809 384.048 187.367 384.094C187.929 384.14 188.516 384.162 189.128 384.159C189.843 384.156 190.466 384.125 190.998 384.067C191.525 384.008 191.992 383.929 192.396 383.83C192.797 383.729 193.15 383.614 193.448 383.483C193.746 383.35 194.012 383.208 194.252 383.053L184.15 382.951ZM210.039 382.662C209.951 382.447 209.734 382.259 209.398 382.098C209.062 381.936 208.631 381.801 208.11 381.691C207.588 381.581 206.979 381.5 206.282 381.447C205.59 381.393 204.823 381.368 203.985 381.372C203.242 381.376 202.597 381.41 202.061 381.472C201.525 381.535 201.059 381.619 200.662 381.726C200.269 381.832 199.93 381.955 199.657 382.097C199.382 382.238 199.123 382.39 198.887 382.55L210.039 382.662Z" fill="#FCB048"/>
<path d="M198.328 378.232C182.809 378.232 166.649 379.598 164.065 382.241C164.167 382.334 164.261 382.433 164.348 382.538C166.527 380.702 179.87 378.854 198.329 378.854C216.789 378.854 230.819 380.799 232.462 382.679C232.542 382.576 232.628 382.478 232.722 382.384C230.586 379.647 214.125 378.231 198.329 378.231L198.328 378.232Z" fill="url(#paint38_linear_1906_244)"/>
<path d="M159.777 373.511V381.232C159.777 383.726 175.361 385.748 194.583 385.748C213.805 385.748 229.389 383.726 229.389 381.232V373.511H159.777Z" fill="#FFA412"/>
<path d="M229.389 373.511C229.389 376.006 213.805 378.028 194.583 378.028C175.361 378.028 159.777 376.006 159.777 373.511C159.777 371.017 175.361 368.995 194.583 368.995C213.805 368.995 229.389 371.017 229.389 373.511Z" fill="url(#paint39_linear_1906_244)"/>
<path d="M194.583 378.339C177.559 378.339 159.757 376.713 159.757 373.576C159.757 373.404 159.819 373.102 159.991 373.102C160.164 373.102 160.089 373.338 160.089 373.511C160.089 375.5 174.256 377.716 194.584 377.716C214.912 377.716 229.079 375.501 229.079 373.511C229.079 373.338 229.108 373.178 229.28 373.178C229.453 373.178 229.411 373.408 229.411 373.58C229.411 376.716 211.609 378.34 194.584 378.34L194.583 378.339Z" fill="#FFC76C"/>
<path d="M191.294 373.762C191.635 373.525 191.998 373.293 192.388 373.063C192.773 372.833 193.275 372.625 193.883 372.44C194.494 372.254 195.26 372.104 196.177 371.986C197.095 371.869 198.243 371.808 199.613 371.801C200.959 371.794 202.22 371.837 203.402 371.929C204.58 372.02 205.619 372.159 206.517 372.341C207.411 372.524 208.142 372.751 208.704 373.02C209.263 373.29 209.596 373.599 209.703 373.946L213.623 373.986C213.907 373.988 214.159 374.011 214.374 374.055C214.593 374.1 214.699 374.157 214.699 374.225L214.701 374.548L209.663 374.5C209.486 374.895 209.036 375.256 208.312 375.585C207.592 375.913 206.672 376.197 205.55 376.436L203.715 376.182C203.55 376.157 203.416 376.124 203.309 376.085C203.203 376.047 203.152 376.005 203.152 375.959C203.152 375.897 203.293 375.826 203.577 375.747C203.861 375.667 204.181 375.568 204.538 375.451C204.896 375.334 205.245 375.195 205.59 375.036C205.932 374.876 206.161 374.685 206.279 374.463L194.388 374.344C194.075 374.574 193.722 374.8 193.337 375.022C192.948 375.243 192.435 375.443 191.795 375.621C191.153 375.798 190.357 375.942 189.401 376.053C188.443 376.164 187.244 376.223 185.793 376.23C184.703 376.235 183.642 376.194 182.603 376.106C181.563 376.018 180.64 375.887 179.834 375.712C179.028 375.536 178.367 375.32 177.848 375.062C177.332 374.803 177.043 374.507 176.983 374.171L173.757 374.138C173.473 374.136 173.221 374.113 172.994 374.07C172.771 374.027 172.658 373.97 172.658 373.899L172.656 373.576L177.067 373.618C177.263 373.278 177.662 372.982 178.273 372.73C178.884 372.477 179.631 372.253 180.512 372.056L181.989 372.259C182.437 372.322 182.66 372.396 182.661 372.481C182.661 372.527 182.571 372.583 182.385 372.65C182.196 372.719 181.978 372.799 181.723 372.893C181.472 372.988 181.224 373.098 180.988 373.224C180.749 373.351 180.57 373.494 180.451 373.655L191.293 373.763L191.294 373.762ZM180.41 374.202C180.499 374.414 180.696 374.595 180.996 374.749C181.296 374.902 181.669 375.029 182.117 375.127C182.566 375.226 183.07 375.299 183.628 375.345C184.189 375.391 184.776 375.413 185.389 375.41C186.103 375.407 186.726 375.376 187.258 375.318C187.787 375.259 188.252 375.181 188.657 375.081C189.057 374.98 189.41 374.865 189.708 374.734C190.006 374.601 190.272 374.459 190.512 374.304L180.41 374.202ZM206.299 373.913C206.211 373.698 205.994 373.51 205.659 373.349C205.323 373.187 204.893 373.052 204.371 372.942C203.849 372.832 203.24 372.751 202.544 372.698C201.851 372.644 201.085 372.619 200.247 372.623C199.503 372.627 198.858 372.66 198.322 372.723C197.786 372.786 197.321 372.87 196.923 372.977C196.53 373.083 196.192 373.206 195.919 373.348C195.643 373.489 195.384 373.641 195.148 373.801L206.3 373.913H206.299Z" fill="#FCB048"/>
<path d="M194.588 369.482C179.069 369.482 162.909 370.848 160.325 373.491C160.427 373.585 160.52 373.684 160.608 373.788C162.787 371.953 176.13 370.105 194.589 370.105C213.049 370.105 227.079 372.049 228.721 373.93C228.802 373.826 228.888 373.728 228.981 373.635C226.846 370.897 210.384 369.481 194.589 369.481L194.588 369.482Z" fill="url(#paint40_linear_1906_244)"/>
<path d="M150.101 365.401V373.122C150.101 375.616 165.685 377.638 184.907 377.638C204.129 377.638 219.713 375.616 219.713 373.122V365.401H150.101Z" fill="#FFA412"/>
<path d="M184.908 369.918C204.13 369.918 219.713 367.896 219.713 365.401C219.713 362.907 204.13 360.885 184.908 360.885C165.685 360.885 150.102 362.907 150.102 365.401C150.102 367.896 165.685 369.918 184.908 369.918Z" fill="#FFA412"/>
<path d="M184.908 370.23C167.883 370.23 150.082 368.605 150.082 365.468C150.082 365.295 150.143 364.993 150.316 364.993C150.488 364.993 150.414 365.23 150.414 365.403C150.414 367.391 164.581 369.608 184.909 369.608C205.237 369.608 219.403 367.392 219.403 365.403C219.403 365.23 219.433 365.069 219.605 365.069C219.778 365.069 219.736 365.299 219.736 365.472C219.736 368.609 201.933 370.232 184.909 370.232L184.908 370.23Z" fill="#FFC76C"/>
<path d="M181.619 365.653C181.96 365.417 182.324 365.184 182.712 364.954C183.098 364.724 183.599 364.516 184.207 364.331C184.819 364.145 185.584 363.995 186.502 363.877C187.421 363.76 188.568 363.699 189.939 363.692C191.285 363.685 192.546 363.728 193.727 363.82C194.905 363.911 195.945 364.05 196.843 364.233C197.737 364.415 198.468 364.642 199.029 364.911C199.588 365.181 199.922 365.49 200.029 365.837L203.948 365.877C204.232 365.879 204.484 365.902 204.7 365.946C204.919 365.992 205.025 366.048 205.025 366.116L205.027 366.439L199.989 366.391C199.812 366.786 199.362 367.148 198.638 367.476C197.918 367.804 196.997 368.088 195.876 368.328L194.04 368.073C193.876 368.048 193.741 368.016 193.635 367.977C193.529 367.939 193.477 367.897 193.477 367.851C193.477 367.789 193.619 367.718 193.903 367.639C194.187 367.559 194.507 367.461 194.864 367.343C195.22 367.226 195.571 367.087 195.916 366.928C196.258 366.768 196.487 366.578 196.605 366.355L184.713 366.236C184.401 366.466 184.048 366.692 183.663 366.914C183.273 367.135 182.76 367.335 182.12 367.513C181.479 367.69 180.681 367.834 179.727 367.945C178.769 368.056 177.57 368.115 176.119 368.122C175.029 368.127 173.967 368.086 172.928 367.998C171.888 367.91 170.965 367.779 170.159 367.604C169.352 367.429 168.692 367.212 168.173 366.954C167.658 366.695 167.369 366.399 167.308 366.063L164.082 366.03C163.798 366.028 163.546 366.006 163.32 365.962C163.097 365.919 162.983 365.862 162.983 365.791L162.981 365.468L167.393 365.51C167.587 365.17 167.988 364.874 168.599 364.622C169.21 364.369 169.956 364.145 170.837 363.949L172.315 364.151C172.763 364.214 172.986 364.288 172.987 364.373C172.987 364.419 172.897 364.475 172.711 364.543C172.521 364.611 172.304 364.691 172.049 364.785C171.798 364.88 171.55 364.99 171.314 365.117C171.074 365.243 170.897 365.386 170.776 365.547L181.619 365.655V365.653ZM170.735 366.093C170.823 366.305 171.021 366.486 171.321 366.64C171.621 366.793 171.993 366.92 172.442 367.018C172.891 367.116 173.394 367.19 173.952 367.236C174.514 367.282 175.101 367.304 175.713 367.301C176.428 367.298 177.051 367.267 177.583 367.209C178.11 367.151 178.577 367.072 178.981 366.972C179.382 366.872 179.735 366.756 180.033 366.625C180.331 366.493 180.597 366.35 180.837 366.195L170.735 366.093ZM196.624 365.804C196.536 365.589 196.319 365.402 195.983 365.24C195.647 365.078 195.216 364.943 194.695 364.834C194.173 364.723 193.564 364.642 192.867 364.588C192.174 364.535 191.408 364.509 190.57 364.513C189.827 364.517 189.182 364.551 188.646 364.613C188.11 364.676 187.644 364.76 187.247 364.867C186.854 364.973 186.515 365.096 186.242 365.238C185.967 365.379 185.708 365.531 185.472 365.692L196.624 365.803V365.804Z" fill="#FCB048"/>
<path d="M184.912 361.374C169.393 361.374 153.234 362.739 150.649 365.382C150.751 365.476 150.844 365.575 150.932 365.679C153.111 363.844 166.454 361.996 184.913 361.996C203.373 361.996 217.403 363.94 219.046 365.821C219.126 365.718 219.212 365.619 219.306 365.526C217.171 362.788 200.709 361.373 184.913 361.373L184.912 361.374Z" fill="#FFC76C"/>
<path d="M158.451 357.316V365.037C158.451 367.532 174.035 369.553 193.257 369.553C212.479 369.553 228.063 367.532 228.063 365.037V357.316H158.451Z" fill="#FFA412"/>
<path d="M193.257 361.833C212.48 361.833 228.063 359.811 228.063 357.316C228.063 354.822 212.48 352.8 193.257 352.8C174.034 352.8 158.451 354.822 158.451 357.316C158.451 359.811 174.034 361.833 193.257 361.833Z" fill="#FFC76C"/>
<path d="M193.257 362.145C176.232 362.145 158.431 360.52 158.431 357.383C158.431 357.21 158.492 356.908 158.665 356.908C158.838 356.908 158.763 357.145 158.763 357.318C158.763 359.306 172.93 361.523 193.258 361.523C213.586 361.523 227.753 359.307 227.753 357.318C227.753 357.145 227.782 356.983 227.954 356.983C228.127 356.983 228.085 357.213 228.085 357.386C228.085 360.523 210.283 362.146 193.258 362.146L193.257 362.145Z" fill="#FFC76C"/>
<path d="M189.968 357.568C190.309 357.332 190.672 357.099 191.061 356.869C191.447 356.639 191.948 356.432 192.557 356.246C193.168 356.06 193.933 355.91 194.851 355.792C195.77 355.675 196.918 355.614 198.288 355.607C199.634 355.6 200.895 355.643 202.076 355.735C203.254 355.826 204.294 355.965 205.192 356.148C206.086 356.33 206.817 356.557 207.38 356.826C207.938 357.096 208.272 357.405 208.379 357.752L212.298 357.792C212.582 357.794 212.834 357.817 213.05 357.861C213.269 357.907 213.375 357.963 213.375 358.031L213.377 358.354L208.339 358.306C208.162 358.701 207.712 359.063 206.988 359.391C206.268 359.719 205.348 360.003 204.226 360.243L202.39 359.988C202.226 359.963 202.091 359.931 201.985 359.891C201.879 359.853 201.827 359.811 201.827 359.765C201.827 359.703 201.969 359.633 202.253 359.553C202.537 359.473 202.857 359.375 203.214 359.257C203.57 359.14 203.921 359.001 204.266 358.842C204.608 358.682 204.837 358.492 204.955 358.269L193.063 358.151C192.751 358.381 192.398 358.607 192.013 358.829C191.623 359.051 191.111 359.25 190.47 359.428C189.829 359.605 189.031 359.749 188.077 359.86C187.119 359.971 185.92 360.03 184.469 360.037C183.379 360.042 182.317 360.001 181.278 359.914C180.238 359.825 179.315 359.694 178.509 359.519C177.702 359.344 177.042 359.127 176.523 358.869C176.008 358.61 175.719 358.314 175.658 357.978L172.432 357.945C172.148 357.943 171.896 357.921 171.67 357.878C171.447 357.834 171.334 357.777 171.334 357.706L171.332 357.383L175.743 357.425C175.937 357.085 176.338 356.789 176.949 356.537C177.56 356.284 178.307 356.06 179.188 355.864L180.665 356.066C181.113 356.13 181.336 356.203 181.337 356.288C181.337 356.333 181.247 356.39 181.061 356.458C180.871 356.526 180.654 356.606 180.399 356.7C180.148 356.795 179.9 356.905 179.664 357.032C179.424 357.158 179.247 357.302 179.126 357.462L189.969 357.57L189.968 357.568ZM179.084 358.008C179.173 358.22 179.37 358.401 179.67 358.555C179.97 358.708 180.343 358.835 180.791 358.933C181.24 359.031 181.743 359.105 182.301 359.151C182.863 359.197 183.45 359.219 184.062 359.216C184.777 359.213 185.4 359.182 185.932 359.124C186.46 359.066 186.926 358.986 187.331 358.887C187.731 358.787 188.084 358.671 188.382 358.54C188.68 358.408 188.946 358.265 189.186 358.11L179.084 358.008ZM204.973 357.719C204.885 357.504 204.669 357.317 204.333 357.155C203.997 356.993 203.566 356.858 203.045 356.749C202.523 356.638 201.914 356.557 201.217 356.503C200.524 356.45 199.758 356.425 198.92 356.429C198.177 356.433 197.532 356.466 196.996 356.528C196.46 356.591 195.994 356.675 195.597 356.782C195.204 356.888 194.865 357.012 194.593 357.153C194.317 357.294 194.058 357.446 193.822 357.607L204.974 357.718L204.973 357.719Z" fill="#FCB048"/>
<path d="M193.262 353.289C177.742 353.289 161.584 354.655 158.999 357.298C159.1 357.391 159.194 357.491 159.282 357.595C161.46 355.76 174.803 353.911 193.263 353.911C211.722 353.911 225.753 355.856 227.395 357.736C227.476 357.633 227.562 357.535 227.655 357.441C225.521 354.704 209.058 353.288 193.263 353.288L193.262 353.289Z" fill="url(#paint41_linear_1906_244)"/>
<path d="M154.108 349.208V356.928C154.108 359.423 169.692 361.445 188.914 361.445C208.136 361.445 223.719 359.423 223.719 356.928V349.208H154.108Z" fill="#FFA412"/>
<path d="M188.914 353.724C208.136 353.724 223.719 351.702 223.719 349.207C223.719 346.713 208.136 344.691 188.914 344.691C169.691 344.691 154.108 346.713 154.108 349.207C154.108 351.702 169.691 353.724 188.914 353.724Z" fill="#FFA412"/>
<path d="M188.914 354.035C171.889 354.035 154.088 352.41 154.088 349.273C154.088 349.1 154.149 348.798 154.322 348.798C154.494 348.798 154.42 349.035 154.42 349.208C154.42 351.197 168.587 353.413 188.915 353.413C209.243 353.413 223.409 351.198 223.409 349.208C223.409 349.035 223.438 348.875 223.611 348.875C223.784 348.875 223.741 349.104 223.741 349.277C223.741 352.413 205.939 354.036 188.915 354.036L188.914 354.035Z" fill="#FFC76C"/>
<path d="M188.919 345.18C173.399 345.18 157.241 346.546 154.656 349.189C154.757 349.282 154.851 349.382 154.939 349.486C157.117 347.651 170.46 345.802 188.92 345.802C207.379 345.802 221.409 347.747 223.052 349.627C223.132 349.524 223.219 349.426 223.312 349.332C221.178 346.595 204.715 345.179 188.92 345.179L188.919 345.18Z" fill="#FFC76C"/>
<path d="M240.023 396.307C240.023 412.771 227.149 425.723 210.694 425.218C193.57 424.692 179.167 409.902 179.167 392.205C179.167 374.507 193.57 361.659 210.694 363.442C227.149 365.155 240.023 379.843 240.023 396.308V396.307Z" fill="#FFA412"/>
<path d="M244.47 394.887C244.47 411.351 231.595 424.303 215.141 423.798C198.016 423.272 183.613 408.483 183.613 390.784C183.613 373.085 198.016 360.238 215.141 362.021C231.595 363.734 244.47 378.422 244.47 394.887Z" fill="#FFC76C"/>
<path d="M243.178 394.8C243.178 410.541 230.86 422.901 215.141 422.391C198.812 421.863 185.102 407.748 185.102 390.885C185.102 374.022 198.812 361.756 215.141 363.429C230.86 365.039 243.178 379.06 243.178 394.8Z" fill="#FFA412"/>
<path d="M204.486 300.203C205.858 299.314 204.608 296.726 204.534 291.168C204.444 284.357 206.253 283.088 204.8 280.415C203.023 277.148 198.551 275.795 195.588 275.732C194.934 275.718 194.782 275.361 189.306 276.779C179.442 279.334 176.973 276.595 172.555 279.331C168.288 281.974 170.156 284.868 166.012 287.967C159.295 292.992 152.231 287.56 147.429 291.762C142.887 295.737 142.783 305.865 147.559 311.392C152.974 317.657 162.739 315.775 169.283 314.533C170.66 314.272 177.615 312.811 184.856 307.466C188.862 304.509 191.612 301.352 193.362 299.025C193.772 298.563 194.414 298.003 195.26 297.914C196.275 297.805 197.091 298.426 197.484 298.698C199.548 300.128 203.138 301.077 204.485 300.203H204.486Z" fill="#233862"/>
<path d="M198.973 296.471C200.738 294.863 207.033 297.961 211.205 302.072C216.105 306.901 215.729 310.818 220.007 316.819C222.133 319.802 225.779 323.818 232.238 327.335C231.78 328.478 231.324 329.622 230.866 330.764C227.743 330.952 221.611 330.842 215.891 327.107C211.917 324.512 209.873 321.074 205.945 314.304C202.005 307.51 196.768 298.48 198.972 296.472L198.973 296.471Z" fill="#215EAB"/>
<path d="M238.733 388.335L233.819 385.382H231.601C231.601 385.382 230.846 388.195 230.932 388.335C231.921 389.955 236.521 391.186 239.392 391.289C239.869 391.306 240.534 391.308 240.706 390.963C240.997 390.378 239.696 389.15 238.734 388.335H238.733Z" fill="#072E52"/>
<path d="M233.732 382.16C233.416 383.988 233.815 384.942 234.247 385.476C234.55 385.851 234.819 385.958 236.619 387.514C237.214 388.028 237.517 388.303 237.448 388.448C237.37 388.612 236.844 388.523 235.71 388.251C233.238 387.657 231.997 387.348 231.694 386.753C231.419 386.214 231.662 385.971 231.646 384.504C231.636 383.538 231.439 382.761 231.285 382.275C232.1 382.236 232.916 382.199 233.732 382.161V382.16Z" fill="url(#paint42_linear_1906_244)"/>
<path d="M237.284 367.673C237.284 367.673 239.505 370.322 239.144 373.226C238.783 376.13 234.894 371.884 234.352 370.449C233.81 369.014 233.177 366.97 233.177 366.97C233.177 366.97 235.904 365.274 237.285 367.673H237.284Z" fill="#072E52"/>
<path d="M236.437 363.527C236.437 363.527 235.835 366.613 236.984 368.242C237.556 369.054 238.328 369.741 238.101 370.402C237.949 370.844 237.372 371.162 236.882 371.112C235.946 371.016 235.426 369.58 235.06 368.567C234.519 367.071 234.218 363.87 234.218 363.87L236.437 363.526V363.527Z" fill="url(#paint43_linear_1906_244)"/>
<path d="M234.668 366.129C235.351 365.88 236.034 365.631 236.716 365.382C237.782 362.949 239.081 358.953 238.647 354.096C237.53 341.605 225.977 334.985 224.694 334.276C221.546 335.856 218.358 338.083 218.242 340.892C218.098 344.418 222.9 346.282 227.416 351.437C230.126 354.532 233.022 359.143 234.668 366.128V366.129Z" fill="#CA534B"/>
<path d="M233.931 383.589C236.187 374.776 235.611 367.584 234.96 363.442C233.976 357.18 231.976 344.442 223.471 339.693C221.614 338.656 218.96 337.727 215.724 334.843C213.021 332.435 211.304 329.902 210.268 328.118C198.895 324.782 188.405 326.134 183.776 332.233C183.241 332.938 181.902 334.467 181.642 336.721C181.057 341.807 186.056 347.93 191.663 349.209C198.789 350.833 202.925 343.516 209.238 345.951C211.004 346.632 212.502 348.32 215.497 351.694C219.307 355.988 221.448 359.951 222.259 361.536C224.671 366.257 226.502 369.742 226.769 374.259C226.831 375.312 226.868 377.437 228.1 379.73C229.046 381.49 230.329 382.663 231.282 383.388C232.165 383.455 233.047 383.522 233.929 383.588L233.931 383.589Z" fill="#CA534B"/>
<path style="mix-blend-mode:multiply" opacity="0.2" d="M181.645 336.722C181.904 334.468 183.243 332.939 183.778 332.234C188.407 326.135 198.897 324.783 210.27 328.119C211.307 329.903 213.024 332.436 215.726 334.844C218.962 337.728 221.616 338.656 223.474 339.694C228.667 342.594 231.432 348.472 233.025 354.036C230.662 350.374 228.639 349.399 227.075 349.382C224.835 349.357 223.834 351.273 221.16 351.011C218.301 350.732 217.648 348.368 215.33 348.096C214.636 348.015 213.782 348.122 212.758 348.668C211.39 347.236 210.371 346.388 209.243 345.953C202.929 343.518 198.794 350.835 191.667 349.211C186.06 347.932 181.062 341.809 181.647 336.723L181.645 336.722Z" fill="#B9403A"/>
<path d="M228.039 343.634C226.752 343.566 224.77 343.526 222.379 343.763C211.031 344.885 207.903 350.497 198.524 351.867C196.305 352.191 186.427 353.634 182.148 347.923C179.077 343.823 179.541 336.759 182.901 333.98C184.323 332.804 185.731 332.837 194.837 332.92C198.267 332.951 201.695 332.962 205.125 333.006C219.641 333.191 222.418 332.185 225.059 334.586C226.291 335.706 228.092 338.112 228.039 343.634Z" fill="#CA534B"/>
<path d="M213.959 328.902C213.959 328.902 206.757 330.31 199.165 331.66C190.573 333.187 181.476 334.642 181.717 333.901C184.177 326.355 181.706 321.395 179.936 315.817C178.876 312.498 178.068 308.957 178.697 304.521C180.457 292.119 197.395 297.057 197.395 297.057C202.887 297.28 203.486 297.858 203.99 298.415C207.506 302.294 208.479 306.812 208.479 306.812C209.352 310.86 208.365 312.415 208.479 315.841C208.583 318.962 209.596 323.455 213.96 328.9L213.959 328.902Z" fill="#215EAB"/>
<path style="mix-blend-mode:soft-light" d="M186.514 331.165C186.514 331.165 202.404 326.913 211.877 326.382L186.514 331.165Z" fill="url(#paint44_linear_1906_244)"/>
<path d="M193.716 289.627C193.871 290.351 194.661 294.242 193.069 295.243C192.724 295.46 192.061 295.584 190.735 295.833C189.867 295.996 189.139 296.096 188.625 296.157C188.699 296.81 188.919 297.871 189.672 298.838C191.782 301.545 196.013 300.845 196.616 300.734C198.745 300.347 200.839 299.689 201.345 299.287C202.114 298.675 202.72 298.216 203.079 297.75C202.255 297.352 200.592 296.302 199.476 295.959C198.642 295.702 197.86 295.519 197.147 295.388C197.03 294.636 196.914 293.885 196.796 293.133C195.769 291.965 194.742 290.796 193.716 289.628V289.627Z" fill="url(#paint45_linear_1906_244)"/>
<path d="M193.64 291.567C193.64 291.567 193.928 294.417 196.699 294.92C199.18 295.37 201.048 289.374 199.778 287.823C199.355 287.305 198.309 286.813 197.402 286.839C196.765 286.857 194.61 287.678 194.31 289.833C193.882 289.381 193.347 289.251 193.083 289.44C192.749 289.68 192.928 290.379 192.969 290.536C193.109 291.084 193.468 291.423 193.639 291.567H193.64Z" fill="url(#paint46_linear_1906_244)"/>
<path d="M217.414 330.296L191.488 331.557C191.131 331.574 190.806 331.766 190.617 332.069L189.899 333.22C189.542 333.793 189.972 334.532 190.646 334.506L218.107 333.46L217.413 330.295L217.414 330.296Z" fill="url(#paint47_linear_1906_244)"/>
<path d="M244.379 315.858L217.594 316.377C216.801 316.392 216.075 316.824 215.684 317.513L206.409 333.832L234.697 332.705C235.474 332.674 236.183 332.253 236.582 331.587L245.176 317.231C245.542 316.62 245.092 315.845 244.38 315.858H244.379Z" fill="url(#paint48_linear_1906_244)"/>
<path style="mix-blend-mode:multiply" opacity="0.3" d="M215.685 317.514C216.076 316.825 216.803 316.393 217.595 316.378L218.182 316.367C218.269 317.232 218.535 318.023 219.064 318.661C220.715 320.655 223.459 319.425 225.505 321.535C227.752 323.853 225.676 326.611 227.684 328.768C229.799 331.038 233.217 329.189 237.148 330.642L236.582 331.588C236.183 332.255 235.474 332.674 234.698 332.705L206.41 333.832L215.685 317.513V317.514Z" fill="url(#paint49_linear_1906_244)"/>
<path style="mix-blend-mode:multiply" opacity="0.3" d="M199.165 331.661C190.574 333.187 181.476 334.642 181.717 333.901C184.178 326.355 181.706 321.395 179.936 315.817L180.4 312.944C180.4 312.944 183.597 314.32 184.375 317.613C185.155 320.904 184.314 323.36 187.489 323.838C189.508 324.143 193.8 326.215 196.706 328.744C196.86 328.88 197.015 329.017 197.162 329.157C198.024 329.965 198.732 330.817 199.166 331.661H199.165Z" fill="url(#paint50_linear_1906_244)"/>
<path d="M193.6 329.43C193.937 328.539 194.275 327.648 194.612 326.757C190.882 325.734 185.725 324.223 180.433 322.332C179.605 322.036 178.62 321.669 178.298 320.798C177.393 318.353 183.145 315.818 185.38 310.478C187.449 305.539 186.31 298.684 183.91 297.874C178.917 296.189 161.208 318.231 167.533 327.523C171.108 332.776 182.13 333.612 193.6 329.43Z" fill="#215EAB"/>
<path d="M194.612 326.756C196.953 325.512 199.756 326.788 199.937 326.873C200.451 327.116 201.2 327.548 201.957 328.321C202.042 328.437 203.057 329.845 202.688 330.296C202.391 330.657 201.243 330.358 199.862 329.499C199.283 329.418 198.422 329.343 197.391 329.439C195.496 329.613 194.627 330.212 193.94 329.696C193.436 329.317 193.265 328.518 193.446 327.922C193.641 327.283 194.217 326.967 194.613 326.756H194.612Z" fill="url(#paint51_linear_1906_244)"/>
<defs>
<filter id="filter0_f_1906_244" x="0.00957108" y="128.592" width="301.589" height="302.204" filterUnits="userSpaceOnUse" color-interpolation-filters="sRGB">
<feFlood flood-opacity="0" result="BackgroundImageFix"/>
<feBlend mode="normal" in="SourceGraphic" in2="BackgroundImageFix" result="shape"/>
<feGaussianBlur stdDeviation="31.9952" result="effect1_foregroundBlur_1906_244"/>
</filter>
<filter id="filter1_f_1906_244" x="146.977" y="191.833" width="361.642" height="361.642" filterUnits="userSpaceOnUse" color-interpolation-filters="sRGB">
<feFlood flood-opacity="0" result="BackgroundImageFix"/>
<feBlend mode="normal" in="SourceGraphic" in2="BackgroundImageFix" result="shape"/>
<feGaussianBlur stdDeviation="38.8513" result="effect1_foregroundBlur_1906_244"/>
</filter>
<filter id="filter2_f_1906_244" x="213.204" y="0.726593" width="383.712" height="383.711" filterUnits="userSpaceOnUse" color-interpolation-filters="sRGB">
<feFlood flood-opacity="0" result="BackgroundImageFix"/>
<feBlend mode="normal" in="SourceGraphic" in2="BackgroundImageFix" result="shape"/>
<feGaussianBlur stdDeviation="41.1367" result="effect1_foregroundBlur_1906_244"/>
</filter>
<linearGradient id="paint0_linear_1906_244" x1="234.531" y1="252.221" x2="234.531" y2="277.282" gradientUnits="userSpaceOnUse">
<stop stop-color="#4A7CBB"/>
<stop offset="1" stop-color="#2AB392"/>
</linearGradient>
<linearGradient id="paint1_linear_1906_244" x1="199.076" y1="278.92" x2="199.076" y2="281.305" gradientUnits="userSpaceOnUse">
<stop stop-color="#4A7CBB"/>
<stop offset="1" stop-color="#2AB392"/>
</linearGradient>
<linearGradient id="paint2_linear_1906_244" x1="199.04" y1="320.959" x2="199.04" y2="323.478" gradientUnits="userSpaceOnUse">
<stop stop-color="#4A7CBB"/>
<stop offset="1" stop-color="#2AB392"/>
</linearGradient>
<linearGradient id="paint3_linear_1906_244" x1="195.848" y1="282.454" x2="195.848" y2="319.931" gradientUnits="userSpaceOnUse">
<stop stop-color="#4A7CBB"/>
<stop offset="1" stop-color="#2AB392"/>
</linearGradient>
<linearGradient id="paint4_linear_1906_244" x1="199.492" y1="282.471" x2="199.492" y2="319.879" gradientUnits="userSpaceOnUse">
<stop stop-color="#4A7CBB"/>
<stop offset="1" stop-color="#2AB392"/>
</linearGradient>
<linearGradient id="paint5_linear_1906_244" x1="202.227" y1="282.481" x2="202.227" y2="319.822" gradientUnits="userSpaceOnUse">
<stop stop-color="#4A7CBB"/>
<stop offset="1" stop-color="#2AB392"/>
</linearGradient>
<linearGradient id="paint6_linear_1906_244" x1="223.398" y1="279.017" x2="223.398" y2="281.366" gradientUnits="userSpaceOnUse">
<stop stop-color="#4A7CBB"/>
<stop offset="1" stop-color="#2AB392"/>
</linearGradient>
<linearGradient id="paint7_linear_1906_244" x1="223.325" y1="320.454" x2="223.325" y2="322.935" gradientUnits="userSpaceOnUse">
<stop stop-color="#4A7CBB"/>
<stop offset="1" stop-color="#2AB392"/>
</linearGradient>
<linearGradient id="paint8_linear_1906_244" x1="223.426" y1="282.523" x2="223.426" y2="319.401" gradientUnits="userSpaceOnUse">
<stop stop-color="#4A7CBB"/>
<stop offset="1" stop-color="#2AB392"/>
</linearGradient>
<linearGradient id="paint9_linear_1906_244" x1="226.639" y1="282.518" x2="226.639" y2="319.317" gradientUnits="userSpaceOnUse">
<stop stop-color="#4A7CBB"/>
<stop offset="1" stop-color="#2AB392"/>
</linearGradient>
<linearGradient id="paint10_linear_1906_244" x1="220.174" y1="282.518" x2="220.174" y2="319.317" gradientUnits="userSpaceOnUse">
<stop stop-color="#4A7CBB"/>
<stop offset="1" stop-color="#2AB392"/>
</linearGradient>
<linearGradient id="paint11_linear_1906_244" x1="247.311" y1="279.112" x2="247.311" y2="281.428" gradientUnits="userSpaceOnUse">
<stop stop-color="#4A7CBB"/>
<stop offset="1" stop-color="#2AB392"/>
</linearGradient>
<linearGradient id="paint12_linear_1906_244" x1="247.207" y1="319.96" x2="247.207" y2="322.402" gradientUnits="userSpaceOnUse">
<stop stop-color="#4A7CBB"/>
<stop offset="1" stop-color="#2AB392"/>
</linearGradient>
<linearGradient id="paint13_linear_1906_244" x1="247.479" y1="282.57" x2="247.479" y2="318.914" gradientUnits="userSpaceOnUse">
<stop stop-color="#4A7CBB"/>
<stop offset="1" stop-color="#2AB392"/>
</linearGradient>
<linearGradient id="paint14_linear_1906_244" x1="244.709" y1="282.57" x2="244.709" y2="318.914" gradientUnits="userSpaceOnUse">
<stop stop-color="#4A7CBB"/>
<stop offset="1" stop-color="#2AB392"/>
</linearGradient>
<linearGradient id="paint15_linear_1906_244" x1="250.407" y1="282.572" x2="250.407" y2="318.846" gradientUnits="userSpaceOnUse">
<stop stop-color="#4A7CBB"/>
<stop offset="1" stop-color="#2AB392"/>
</linearGradient>
<linearGradient id="paint16_linear_1906_244" x1="270.279" y1="279.203" x2="270.279" y2="281.486" gradientUnits="userSpaceOnUse">
<stop stop-color="#4A7CBB"/>
<stop offset="1" stop-color="#2AB392"/>
</linearGradient>
<linearGradient id="paint17_linear_1906_244" x1="270.144" y1="319.482" x2="270.144" y2="321.889" gradientUnits="userSpaceOnUse">
<stop stop-color="#4A7CBB"/>
<stop offset="1" stop-color="#2AB392"/>
</linearGradient>
<linearGradient id="paint18_linear_1906_244" x1="267.722" y1="282.603" x2="267.722" y2="318.497" gradientUnits="userSpaceOnUse">
<stop stop-color="#4A7CBB"/>
<stop offset="1" stop-color="#2AB392"/>
</linearGradient>
<linearGradient id="paint19_linear_1906_244" x1="270.279" y1="282.607" x2="270.279" y2="318.441" gradientUnits="userSpaceOnUse">
<stop stop-color="#4A7CBB"/>
<stop offset="1" stop-color="#2AB392"/>
</linearGradient>
<linearGradient id="paint20_linear_1906_244" x1="272.84" y1="282.606" x2="272.84" y2="318.387" gradientUnits="userSpaceOnUse">
<stop stop-color="#4A7CBB"/>
<stop offset="1" stop-color="#2AB392"/>
</linearGradient>
<linearGradient id="paint21_linear_1906_244" x1="234.357" y1="323.355" x2="234.357" y2="332.393" gradientUnits="userSpaceOnUse">
<stop stop-color="#4A7CBB"/>
<stop offset="1" stop-color="#2AB392"/>
</linearGradient>
<linearGradient id="paint22_linear_1906_244" x1="234.092" y1="326.352" x2="234.092" y2="332.488" gradientUnits="userSpaceOnUse">
<stop stop-color="#4A7CBB"/>
<stop offset="1" stop-color="#2AB392"/>
</linearGradient>
<linearGradient id="paint23_linear_1906_244" x1="332.295" y1="262.335" x2="332.295" y2="270.582" gradientUnits="userSpaceOnUse">
<stop stop-color="#4A7CBB"/>
<stop offset="1" stop-color="#2AB392"/>
</linearGradient>
<linearGradient id="paint24_linear_1906_244" x1="316.096" y1="290.327" x2="316.096" y2="296.554" gradientUnits="userSpaceOnUse">
<stop stop-color="#4A7CBB"/>
<stop offset="1" stop-color="#2AB392"/>
</linearGradient>
<linearGradient id="paint25_linear_1906_244" x1="331.76" y1="302.153" x2="331.76" y2="308.774" gradientUnits="userSpaceOnUse">
<stop stop-color="#4A7CBB"/>
<stop offset="1" stop-color="#2AB392"/>
</linearGradient>
<linearGradient id="paint26_linear_1906_244" x1="331.688" y1="314.868" x2="331.688" y2="322.37" gradientUnits="userSpaceOnUse">
<stop stop-color="#4A7CBB"/>
<stop offset="1" stop-color="#2AB392"/>
</linearGradient>
<linearGradient id="paint27_linear_1906_244" x1="400.728" y1="414.847" x2="408.592" y2="415.075" gradientUnits="userSpaceOnUse">
<stop stop-color="#444B8C"/>
<stop offset="1" stop-color="#26264F"/>
</linearGradient>
<linearGradient id="paint28_linear_1906_244" x1="405.233" y1="414.954" x2="409.534" y2="408.285" gradientUnits="userSpaceOnUse">
<stop stop-color="#FFC444"/>
<stop offset="1" stop-color="#F36F56"/>
</linearGradient>
<linearGradient id="paint29_linear_1906_244" x1="374.464" y1="410.244" x2="382.525" y2="412.46" gradientUnits="userSpaceOnUse">
<stop stop-color="#444B8C"/>
<stop offset="1" stop-color="#26264F"/>
</linearGradient>
<linearGradient id="paint30_linear_1906_244" x1="379.466" y1="411.525" x2="384.365" y2="405.07" gradientUnits="userSpaceOnUse">
<stop stop-color="#FFC444"/>
<stop offset="1" stop-color="#F36F56"/>
</linearGradient>
<linearGradient id="paint31_linear_1906_244" x1="387.606" y1="308.261" x2="387.606" y2="321.79" gradientUnits="userSpaceOnUse">
<stop stop-color="#4A7CBB"/>
<stop offset="1" stop-color="#2AB392"/>
</linearGradient>
<linearGradient id="paint32_linear_1906_244" x1="387.7" y1="307.913" x2="387.7" y2="321.495" gradientUnits="userSpaceOnUse">
<stop stop-color="#4A7CBB"/>
<stop offset="1" stop-color="#2AB392"/>
</linearGradient>
<linearGradient id="paint33_linear_1906_244" x1="389.242" y1="307.913" x2="389.242" y2="321.495" gradientUnits="userSpaceOnUse">
<stop stop-color="#4A7CBB"/>
<stop offset="1" stop-color="#2AB392"/>
</linearGradient>
<linearGradient id="paint34_linear_1906_244" x1="194.237" y1="403.66" x2="198.458" y2="439.004" gradientUnits="userSpaceOnUse">
<stop stop-color="#FFDB44"/>
<stop offset="1" stop-color="#FEEF06"/>
</linearGradient>
<linearGradient id="paint35_linear_1906_244" x1="195.272" y1="411.801" x2="193.98" y2="400.985" gradientUnits="userSpaceOnUse">
<stop stop-color="#F36F56"/>
<stop offset="0.31" stop-color="#F99C4C"/>
<stop offset="0.55" stop-color="#FDB946"/>
<stop offset="0.68" stop-color="#FFC444"/>
<stop offset="0.8" stop-color="#FEC144"/>
<stop offset="0.87" stop-color="#FDB946"/>
<stop offset="0.92" stop-color="#FBAC49"/>
<stop offset="0.96" stop-color="#F8994D"/>
<stop offset="1" stop-color="#F57E53"/>
</linearGradient>
<linearGradient id="paint36_linear_1906_244" x1="185.597" y1="403.692" x2="184.304" y2="392.876" gradientUnits="userSpaceOnUse">
<stop stop-color="#F36F56"/>
<stop offset="0.31" stop-color="#F99C4C"/>
<stop offset="0.55" stop-color="#FDB946"/>
<stop offset="0.68" stop-color="#FFC444"/>
<stop offset="0.8" stop-color="#FEC144"/>
<stop offset="0.87" stop-color="#FDB946"/>
<stop offset="0.92" stop-color="#FBAC49"/>
<stop offset="0.96" stop-color="#F8994D"/>
<stop offset="1" stop-color="#F57E53"/>
</linearGradient>
<linearGradient id="paint37_linear_1906_244" x1="193.945" y1="395.606" x2="192.654" y2="384.79" gradientUnits="userSpaceOnUse">
<stop stop-color="#F36F56"/>
<stop offset="0.31" stop-color="#F99C4C"/>
<stop offset="0.55" stop-color="#FDB946"/>
<stop offset="0.68" stop-color="#FFC444"/>
<stop offset="0.8" stop-color="#FEC144"/>
<stop offset="0.87" stop-color="#FDB946"/>
<stop offset="0.92" stop-color="#FBAC49"/>
<stop offset="0.96" stop-color="#F8994D"/>
<stop offset="1" stop-color="#F57E53"/>
</linearGradient>
<linearGradient id="paint38_linear_1906_244" x1="199.012" y1="387.498" x2="197.719" y2="376.682" gradientUnits="userSpaceOnUse">
<stop stop-color="#F36F56"/>
<stop offset="0.31" stop-color="#F99C4C"/>
<stop offset="0.55" stop-color="#FDB946"/>
<stop offset="0.68" stop-color="#FFC444"/>
<stop offset="0.8" stop-color="#FEC144"/>
<stop offset="0.87" stop-color="#FDB946"/>
<stop offset="0.92" stop-color="#FBAC49"/>
<stop offset="0.96" stop-color="#F8994D"/>
<stop offset="1" stop-color="#F57E53"/>
</linearGradient>
<linearGradient id="paint39_linear_1906_244" x1="194.237" y1="370.608" x2="198.458" y2="405.952" gradientUnits="userSpaceOnUse">
<stop stop-color="#FFDB44"/>
<stop offset="1" stop-color="#FEEF06"/>
</linearGradient>
<linearGradient id="paint40_linear_1906_244" x1="195.272" y1="378.748" x2="193.98" y2="367.932" gradientUnits="userSpaceOnUse">
<stop stop-color="#F36F56"/>
<stop offset="0.31" stop-color="#F99C4C"/>
<stop offset="0.55" stop-color="#FDB946"/>
<stop offset="0.68" stop-color="#FFC444"/>
<stop offset="0.8" stop-color="#FEC144"/>
<stop offset="0.87" stop-color="#FDB946"/>
<stop offset="0.92" stop-color="#FBAC49"/>
<stop offset="0.96" stop-color="#F8994D"/>
<stop offset="1" stop-color="#F57E53"/>
</linearGradient>
<linearGradient id="paint41_linear_1906_244" x1="193.945" y1="362.555" x2="192.654" y2="351.739" gradientUnits="userSpaceOnUse">
<stop stop-color="#F36F56"/>
<stop offset="0.31" stop-color="#F99C4C"/>
<stop offset="0.55" stop-color="#FDB946"/>
<stop offset="0.68" stop-color="#FFC444"/>
<stop offset="0.8" stop-color="#FEC144"/>
<stop offset="0.87" stop-color="#FDB946"/>
<stop offset="0.92" stop-color="#FBAC49"/>
<stop offset="0.96" stop-color="#F8994D"/>
<stop offset="1" stop-color="#F57E53"/>
</linearGradient>
<linearGradient id="paint42_linear_1906_244" x1="236.115" y1="392.21" x2="221.462" y2="348.249" gradientUnits="userSpaceOnUse">
<stop stop-color="#FFC444"/>
<stop offset="1" stop-color="#F36F56"/>
</linearGradient>
<linearGradient id="paint43_linear_1906_244" x1="242.666" y1="386.797" x2="232.857" y2="357.372" gradientUnits="userSpaceOnUse">
<stop stop-color="#FFC444"/>
<stop offset="1" stop-color="#F36F56"/>
</linearGradient>
<linearGradient id="paint44_linear_1906_244" x1="217.077" y1="449.846" x2="191.218" y2="274.762" gradientUnits="userSpaceOnUse">
<stop stop-color="#FF9085"/>
<stop offset="1" stop-color="#FB6FBB"/>
</linearGradient>
<linearGradient id="paint45_linear_1906_244" x1="193.965" y1="305.403" x2="198.242" y2="286" gradientUnits="userSpaceOnUse">
<stop stop-color="#FFC444"/>
<stop offset="1" stop-color="#F36F56"/>
</linearGradient>
<linearGradient id="paint46_linear_1906_244" x1="196.864" y1="288.115" x2="191.963" y2="313.352" gradientUnits="userSpaceOnUse">
<stop stop-color="#FFC444"/>
<stop offset="1" stop-color="#F36F56"/>
</linearGradient>
<linearGradient id="paint47_linear_1906_244" x1="218.108" y1="332.402" x2="189.77" y2="332.402" gradientUnits="userSpaceOnUse">
<stop stop-color="#40447E"/>
<stop offset="1" stop-color="#3C3B6B"/>
</linearGradient>
<linearGradient id="paint48_linear_1906_244" x1="236.23" y1="314.526" x2="217.651" y2="332.957" gradientUnits="userSpaceOnUse">
<stop stop-color="#40447E"/>
<stop offset="1" stop-color="#3C3B6B"/>
</linearGradient>
<linearGradient id="paint49_linear_1906_244" x1="236.23" y1="314.527" x2="217.651" y2="332.957" gradientUnits="userSpaceOnUse">
<stop stop-color="#40447E"/>
<stop offset="1" stop-color="#3C3B6B"/>
</linearGradient>
<linearGradient id="paint50_linear_1906_244" x1="191.199" y1="306.764" x2="186.869" y2="351.358" gradientUnits="userSpaceOnUse">
<stop stop-color="#E38DDD"/>
<stop offset="1" stop-color="#9571F6"/>
</linearGradient>
<linearGradient id="paint51_linear_1906_244" x1="200.361" y1="326.814" x2="190.942" y2="335.691" gradientUnits="userSpaceOnUse">
<stop stop-color="#FFC444"/>
<stop offset="1" stop-color="#F36F56"/>
</linearGradient>
</defs>
</svg>
