<svg width="1158" height="1101" fill="none" xmlns="http://www.w3.org/2000/svg"><g filter="url(#a)"><ellipse cx="315.172" cy="550.46" rx="152.172" ry="152.712" fill="#27AE60" fill-opacity=".3"/></g><g filter="url(#b)"><circle cx="625.452" cy="387.496" r="180.772" fill="#278EAE" fill-opacity=".3"/></g><g filter="url(#c)"><circle cx="760.896" cy="703.172" r="192.104" fill="#2745AE" fill-opacity=".3"/></g><path d="M721.359 618.534c-85.482-105.712-287.855-111.621-347.361-27.775-32.788 46.198-19.086 115.258-12.327 149.332 12.441 62.705 43.117 103.073 49.816 111.637 16.254 20.777 55.734 71.245 115.134 82.782 101.497 19.712 228.14-80.651 235.157-193.882 4.044-65.28-33.028-112.954-40.419-122.094Z" fill="#F4F7FA" fill-opacity=".2"/><path opacity=".6" d="M629.622 784.584c30.046-15.199 40.814-56.554 29.779-70.033-5.739-7.011-15.003-3.58-19.947-11.664-5.477-8.956 3.186-17.595 5.709-39.336 1.305-11.233 3.669-31.602-6.91-40.728-10.491-9.051-23.251 1.98-35.077-7.135-11.182-8.618-4.023-21.754-16.86-37.182-1.194-1.436-14.825-17.42-28.398-14.248-13.789 3.223-22.65 25.079-18.401 40.512 3.861 14.022 17.408 18.62 15.303 26.119-2.32 8.263-19.53 5.384-22.729 13.645-4.623 11.938 27.965 26.659 25.427 46.337-1.491 11.57-13.43 11.667-18.472 25.742-6.508 18.166 5.386 40.308 16.963 52.327 16.776 17.416 47.57 28.818 73.612 15.644h.001Z" fill="#215EAB"/><mask id="d" style="mask-type:luminance" maskUnits="userSpaceOnUse" x="531" y="563" width="133" height="228"><path d="M629.622 784.584c30.046-15.199 40.814-56.554 29.779-70.033-5.739-7.011-15.003-3.58-19.947-11.664-5.477-8.956 3.186-17.595 5.709-39.336 1.305-11.233 3.669-31.602-6.91-40.728-10.491-9.051-23.251 1.98-35.077-7.135-11.182-8.618-4.023-21.754-16.86-37.182-1.194-1.436-14.825-17.42-28.398-14.248-13.789 3.223-22.65 25.079-18.401 40.512 3.861 14.022 17.408 18.62 15.303 26.119-2.32 8.263-19.53 5.384-22.729 13.645-4.623 11.938 27.965 26.659 25.427 46.337-1.491 11.57-13.43 11.667-18.472 25.742-6.508 18.166 5.386 40.308 16.963 52.327 16.776 17.416 47.57 28.818 73.612 15.644h.001Z" fill="#fff"/></mask><g style="mix-blend-mode:soft-light" opacity=".7" fill="#fff" mask="url(#d)"><path d="m612.855 800.529 1.063-.095c-3.672-41.162-9.442-79.752-17.152-114.698-6.17-27.963-13.588-53.67-22.047-76.405-14.417-38.745-27.051-55.663-27.178-55.83l-.851.643c.125.166 12.688 17.003 27.055 55.631 13.26 35.655 30.809 97.69 39.11 190.754Z"/><path d="M575.97 613.094c11.065-31.174 4.823-59.086 4.76-59.365l-1.041.241c.064.276 6.232 27.899-4.725 58.768l1.006.356Zm22.002 77.63c22.021-28.524 30.578-49.905 33.878-62.819 3.596-14.066 1.965-21.272 1.895-21.572l-1.039.245c.017.072 1.639 7.327-1.919 21.177-3.288 12.798-11.798 33.998-33.661 62.316l.846.652v.001Zm12.012 74.855c48.721-39.938 56.213-76.32 56.283-76.684l-1.048-.202c-.017.091-1.988 9.516-10.202 23.874-7.233 12.642-21.036 31.959-45.71 52.185l.677.825v.002Zm-25.908-87.597a97.504 97.504 0 0 0 10.853 3.042l.228-1.043c-24.429-5.329-43.815-19.879-55.776-31.146-12.966-12.214-20.231-23.296-20.303-23.406l-.894.582c.072.111 7.407 11.3 20.465 23.6 10.231 9.639 25.859 21.662 45.427 28.37v.001Zm17.74 72.13a84.696 84.696 0 0 0 5.81 1.761l.273-1.031c-25.2-6.671-42.214-23.754-52.051-36.913-10.666-14.268-15.419-27.102-15.466-27.231l-1.003.367c.048.13 4.854 13.112 15.613 27.503 9.164 12.257 24.501 27.891 46.822 35.542l.002.002Z"/></g><path d="M636.112 843.103c-33.65-16.638-46.073-62.629-33.908-77.769 6.327-7.873 16.689-4.144 22.117-13.205 6.016-10.039-3.73-19.582-6.765-43.792-1.569-12.508-4.411-35.191 7.289-45.473 11.603-10.195 25.941 1.97 39.031-8.309 12.378-9.721 4.263-24.292 18.416-41.622 1.316-1.612 16.349-19.57 31.512-16.172 15.406 3.453 25.506 27.728 20.924 44.975-4.161 15.67-19.217 20.935-16.794 29.272 2.669 9.188 21.827 5.804 25.476 14.979 5.274 13.262-30.904 30.005-27.874 51.914 1.782 12.884 18.273 13.954 15.828 30.442-3.942 26.576-9.245 32.947-22.027 46.462-18.525 19.587-44.06 42.719-73.228 28.298h.003Z" fill="#92AFF2"/><mask id="e" style="mask-type:luminance" maskUnits="userSpaceOnUse" x="597" y="596" width="147" height="252"><path d="M636.112 843.103c-33.65-16.638-46.073-62.629-33.908-77.769 6.327-7.873 16.689-4.144 22.117-13.205 6.016-10.039-3.73-19.582-6.765-43.792-1.569-12.508-4.411-35.191 7.289-45.473 11.603-10.195 25.941 1.97 39.031-8.309 12.378-9.721 4.263-24.292 18.416-41.622 1.316-1.612 16.349-19.57 31.512-16.172 15.406 3.453 25.506 27.728 20.924 44.975-4.161 15.67-19.217 20.935-16.794 29.272 2.669 9.188 21.827 5.804 25.476 14.979 5.274 13.262-30.904 30.005-27.874 51.914 1.782 12.884 18.273 13.954 15.828 30.442-3.942 26.576-9.245 32.947-22.027 46.462-18.525 19.587-44.06 42.719-73.228 28.298h.003Z" fill="#fff"/></mask><g style="mix-blend-mode:soft-light" opacity=".7" fill="#fff" mask="url(#e)"><path d="m654.966 860.707-1.186-.095c3.675-45.925 9.715-89.001 17.955-128.036 6.594-31.235 14.6-59.968 23.801-85.398 15.678-43.338 29.59-62.327 29.729-62.513l.955.709c-.137.187-13.973 19.084-29.595 62.29-14.42 39.88-33.351 109.215-41.659 213.045v-.002Z"/><path d="M694.18 651.385c-12.653-34.638-5.978-65.818-5.909-66.13l1.162.257c-.068.307-6.663 31.164 5.865 65.463l-1.118.409v.001Zm-23.74 86.763c-24.838-31.574-34.595-55.322-38.406-69.684-4.151-15.645-2.406-23.693-2.331-24.029l1.16.262c-.019.081-1.753 8.184 2.355 23.588 3.796 14.234 13.498 37.781 38.156 69.126l-.935.736.001.001Zm-12.629 83.568c-54.719-44.025-63.441-84.507-63.523-84.911l1.165-.237c.021.101 2.313 10.588 11.617 26.511 8.192 14.02 23.775 35.413 51.485 57.71l-.746.926.002.001Zm27.992-97.913a109.016 109.016 0 0 1-12.068 3.501l-.264-1.16c27.179-6.188 48.643-22.605 61.861-35.286 14.329-13.748 22.315-26.175 22.393-26.299l1.004.639c-.079.126-8.142 12.673-22.573 26.518-11.308 10.849-28.607 24.411-50.353 32.088v-.001Zm-19.042 80.59a94.289 94.289 0 0 1-6.458 2.023l-.315-1.148c28.025-7.691 46.818-26.909 57.65-41.676 11.744-16.015 16.913-30.371 16.963-30.514l1.121.398c-.052.145-5.278 14.667-17.125 30.82-10.09 13.757-27.029 31.34-51.835 40.098l-.001-.001Z"/></g><mask id="f" style="mask-type:luminance" maskUnits="userSpaceOnUse" x="446" y="619" width="313" height="311"><path d="M582.54 619.509 446.065 781.005l175.474 148.286 136.475-161.496L582.54 619.509Z" fill="#fff"/></mask><g mask="url(#f)"><path d="M553.929 640.715a56.402 56.402 0 0 1-4.145 7.413c-4.887 7.383-10.823 14.785-16.964 21.236a70.786 70.786 0 0 1-2.575 2.566 33.211 33.211 0 0 1 4.278 3.333c4.742 4.353 7.55 11.905 7.55 18.229.134 3.549-.606 6.859-2.22 9.932a19.211 19.211 0 0 1-4.464 7.442c-2.195 3.24-4.222 6.591-6.414 9.838-4.03 5.969-8.573 11.701-13.59 16.88-7.481 7.722-16.058 14.248-24.308 21.104-3.216 3.195-7.008 5.405-11.375 6.63-2.284.308-4.569.614-6.854.921-6.158.275-11.977-2.392-16.656-6.199-3.71 3.378-7.966 6.399-12.54 8.581 65.748 41.592 152.207 57.896 187.927 136.154l106.616-130.181c-35.062-76.813-119.004-93.94-184.266-133.876v-.003Z" fill="url(#g)"/><path d="M633.287 882.916c-53.795-94.227-188.295-89.91-242.091-184.138l90.741-110.799c53.796 94.228 188.296 89.911 242.091 184.139l-90.741 110.798Z" fill="#fff"/><path d="m738.195 774.592-22.77 27.802c-2.15-2.177-4.171-4.937-5.958-8.211a46.933 46.933 0 0 1-1.337-2.651c-6.18-13.278-6.366-29.525 1.513-40.57.365-.517.681-.938 1.081-1.426 2.394-2.923 5.33-5.295 8.068-6.452 7.46 9.291 14.009 19.692 19.401 31.508h.002Z" fill="url(#h)"/><path d="M654.878 876.323c-7.766 9.483-15.532 18.967-23.299 28.449-5.364-11.752-11.873-22.107-19.284-31.36 1.42-4.105 3.075-7.446 5.571-10.493.279-.339.586-.701.882-1.023.037-.039.071-.081.105-.117 4.493-4.924 10.193-7.475 15.785-7.412 5.617.068 11.1 2.802 15.062 8.509a26.655 26.655 0 0 1 1.514 2.434c1.786 3.275 2.999 7.019 3.663 11.013h.001Z" fill="url(#i)"/><path d="M602.468 757.78c-17.019 20.78-50.448 27.079-75.675 15.301-25.227-11.778-30.941-39.32-13.771-60.286 17.019-20.78 50.448-27.08 75.675-15.302 25.228 11.778 30.941 39.321 13.771 60.287Z" fill="url(#j)"/><path d="m631.925 904.349-.346.423c-50.732-111.148-203.815-97.321-254.546-208.468 34.787-42.477 69.575-84.953 104.36-127.429.687 6.147 1.111 12.785 1.031 19.947a152.04 152.04 0 0 1-2.743 27.041c-2.088 10.886-5.548 22.801-11.048 36.014-27.269 65.276-3.896 83.86 35.464 94.925 10.434 3.042 21.917 5.655 33.594 8.833a263.588 263.588 0 0 1 15.451 4.718c10.064 3.434 19.995 7.578 29.227 12.598 31.561 16.408 53.019 45.402 52.27 81.416-.055 6.598-.794 13.33-2.219 20.08a52.167 52.167 0 0 0-.844 5.545c-.719 7.014-.377 15.161.35 24.355l-.001.002Z" fill="url(#k)" style="mix-blend-mode:multiply" opacity=".2"/></g><path d="m517.588 805.782-3.231 2.611-11.71 9.461c-3.63-7.387-10.173-9.163-14.177-9.521-2.039-.179-3.423.006-3.423.006l-15.976-24.683-56.204-86.828c-1.607-2.482-2.386-5.388-2.342-8.344l.347-22.865c.008-.53.295-.996.797-1.159a1.19 1.19 0 0 1 1.342.44l104.578 140.882h-.001Z" fill="#BFC8D6"/><path d="m514.355 808.393-11.71 9.461c-3.63-7.388-10.173-9.164-14.177-9.522l-19.399-24.677-56.204-86.828c-1.607-2.482-2.386-5.388-2.342-8.344l.256-16.847c3.06 11.084 9.885 31.423 19.773 36.204 13.769 6.661 27.78 19.453 33.559 42.12 5.779 22.667 19.815 31.912 35.608 44.085 7.633 5.887 12.077 10.819 14.636 14.346v.002Z" fill="#BFC8D6" style="mix-blend-mode:multiply" opacity=".4"/><path d="M576.863 849.887c-3.589-8.354-9.09-15.493-15.906-20.646-6.901-5.217-14.628-8.037-22.346-8.153-3.266-.05-5.933-.415-8.981.507l-14.275-19.143-15.93 10.986 6.516 9.447a21.363 21.363 0 0 1 2.395 19.666 40.482 40.482 0 0 0-1.235 3.824c-2.762 10.202-1.771 21.667 2.792 32.287 3.588 8.354 9.09 15.493 15.906 20.646 6.901 5.217 14.627 8.036 22.345 8.153 4.437.068 8.717-.77 12.719-2.492 9.208-3.956 15.883-12.052 18.792-22.797 2.761-10.202 1.77-21.667-2.792-32.285Zm-9.662 28.915c-1.858 6.862-5.918 11.947-11.431 14.316-2.323.998-4.824 1.484-7.431 1.444-10.58-.16-21.268-8.596-26.593-20.993-3.418-7.956-4.197-16.417-2.192-23.822 1.858-6.862 5.919-11.947 11.432-14.316 2.323-.998 4.823-1.485 7.431-1.444 10.58.16 21.267 8.596 26.593 20.993 3.418 7.956 4.197 16.417 2.191 23.822Z" fill="#215EAB"/><path d="m566.632 667.981-.347 22.865a14.913 14.913 0 0 1-2.65 8.269l-75.577 109.271s-12.065-2.005-17.877 8.978l-12.195-10.481-2.567-2.206 109.01-137.48a1.23 1.23 0 0 1 1.383-.398c.498.179.828.655.821 1.183l-.001-.001Z" fill="#D8DEE8"/><path d="M566.631 667.98 457.984 806.881l-2.567-2.206 109.01-137.48a1.23 1.23 0 0 1 1.383-.398c.498.179.828.655.821 1.183Z" fill="#BFC8D6" style="mix-blend-mode:multiply" opacity=".4"/><path d="M443.409 821.105a31.02 31.02 0 0 0-9.451-1.603c-7.716-.117-15.525 2.467-22.582 7.474-6.97 4.944-12.684 11.913-16.525 20.155-4.881 10.475-6.22 21.905-3.767 32.187 2.583 10.827 9.008 19.122 18.092 23.356 3.949 1.841 8.201 2.807 12.638 2.875 7.716.117 15.525-2.467 22.582-7.474 6.97-4.944 12.684-11.913 16.525-20.155 4.881-10.475 6.22-21.905 3.769-32.187a40.97 40.97 0 0 0-1.12-3.86 21.334 21.334 0 0 1 2.991-19.585l6.799-9.246-15.59-11.463-14.358 19.526h-.003Zm5.818 51.365c-5.7 12.23-16.638 20.339-27.218 20.179-2.608-.039-5.092-.602-7.384-1.67-5.439-2.535-9.343-7.739-10.993-14.655-1.78-7.462-.746-15.894 2.913-23.743 5.7-12.23 16.638-20.339 27.219-20.179 2.607.039 5.091.602 7.383 1.67 5.439 2.535 9.344 7.739 10.993 14.655 1.78 7.462.746 15.894-2.913 23.743Z" fill="#215EAB"/><path d="M488.146 793.224a5.914 5.914 0 1 0-5.12-10.662 5.914 5.914 0 0 0 5.12 10.662Z" fill="#BFC8D6"/><path d="M486.406 789.65a.967.967 0 1 1-1.935-.03l.063-4.193a.967.967 0 0 1 1.935.03l-.063 4.193Z" fill="#D8DEE8"/><path d="m436.662 758.984 7.486 1.696 86.554-79.705 28.137-32.658-6.407-3.082-115.77 113.749Z" fill="url(#l)"/><mask id="m" style="mask-type:luminance" maskUnits="userSpaceOnUse" x="355" y="539" width="232" height="226"><path d="M511.549 539.281 355.445 681.076l75.413 83.023 156.104-141.795-75.413-83.023Z" fill="#fff"/></mask><g mask="url(#m)"><path d="m720.21 797.275-122.808 115.03c-35.675-116.854-189.246-123.277-224.921-240.131l122.808-115.03c35.675 116.853 189.247 123.277 224.921 240.131Z" fill="url(#n)"/><path d="M601.969 890.864c-40.936-100.483-174.836-113.891-215.773-214.375l104.525-97.903c40.937 100.483 174.836 113.892 215.773 214.375l-104.525 97.903Z" fill="#fff"/><path d="M503.837 600.008a24.55 24.55 0 0 1-1.368 1.19l-.123.098c-5.432 4.379-11.798 5.949-17.53 4.635-5.011-1.142-9.513-4.508-12.428-10.174a26.921 26.921 0 0 1-1.163-2.63c-1.34-3.482-2.033-7.37-2.165-11.416 8.742-8.19 17.486-16.378 26.228-24.567 3.792 12.42 8.917 23.593 15.089 33.784-1.398 3.21-3.783 6.496-6.542 9.08h.002Z" fill="url(#o)"/><path d="M396.873 700.196c-2.872 2.691-5.863 4.347-9.401 5.602-6.13-10.147-11.22-21.269-14.993-33.624 8.946-8.379 17.891-16.759 26.839-25.137 1.845 2.441 3.485 5.442 4.824 8.924.355.92.68 1.858.977 2.803 4.427 14.12 2.348 30.48-7.164 40.36-.034.037-.073.075-.111.115-.31.325-.652.657-.972.957h.001Z" fill="url(#p)"/><path d="M587.874 762.761c-19.602 18.362-53.57 20.21-77.029 5.217-23.46-14.993-25.501-43.049-5.723-61.575 19.604-18.362 53.571-20.21 77.03-5.217 23.459 14.992 25.501 43.049 5.722 61.575Z" fill="url(#q)"/><path d="m597.801 911.931-.4.374C561.727 795.451 408.155 789.028 372.48 672.174l120.212-112.598c-.129 6.184-.58 12.82-1.602 19.91a151.958 151.958 0 0 1-6.275 26.445c-3.501 10.517-8.498 21.873-15.688 34.247-35.615 61.124-14.89 82.62 22.673 98.765 9.944 4.388 20.984 8.487 32.141 13.173a263.69 263.69 0 0 1 14.697 6.71c9.526 4.728 18.825 10.142 27.316 16.331 29.129 20.417 46.589 51.981 41.11 87.583-.922 6.533-2.539 13.111-4.841 19.614a52.662 52.662 0 0 0-1.567 5.386c-1.634 6.858-2.367 14.98-2.854 24.19l-.001.001Z" fill="url(#r)" style="mix-blend-mode:multiply" opacity=".2"/></g><path d="M668.371 594.31c0 22.713-17.76 40.58-40.459 39.883-23.623-.725-43.492-21.127-43.492-45.542 0-24.414 19.869-42.138 43.492-39.678 22.699 2.363 40.459 22.625 40.459 45.338v-.001Z" fill="#FFA412"/><path d="M674.505 592.35c0 22.713-17.76 40.58-40.459 39.883-23.624-.725-43.492-21.127-43.492-45.542 0-24.414 19.868-42.138 43.492-39.678 22.699 2.363 40.459 22.625 40.459 45.339v-.002Z" fill="#FFC76C"/><path d="M671 592.117c0 21.028-16.331 37.542-37.173 36.863-21.649-.707-39.827-19.564-39.827-42.094 0-22.529 18.177-38.917 39.827-36.682C654.668 552.356 671 571.089 671 592.117Zm49.86 73.377c0 17.367-13.581 31.028-30.937 30.496-18.063-.554-33.255-16.154-33.255-34.823s15.192-32.221 33.255-30.339c17.356 1.808 30.937 17.3 30.937 34.667v-.001Z" fill="#FFA412"/><path d="M725.549 663.996c0 17.368-13.58 31.029-30.936 30.496-18.063-.554-33.255-16.154-33.255-34.823s15.192-32.22 33.255-30.339c17.356 1.808 30.936 17.3 30.936 34.668v-.002Z" fill="#FFC76C"/><path d="M723.212 663.839c0 16.055-12.573 28.647-28.599 28.108-16.626-.558-30.569-14.937-30.569-32.097 0-17.16 13.943-29.66 30.569-27.976 16.026 1.623 28.599 15.911 28.599 31.965Z" fill="#FFA412"/><path d="M644.628 824.918s-19.529 20.595-15.703 33.676c3.825 13.081 34.45-9.068 34.45-9.068l-18.746-24.608h-.001Z" fill="#91B0F2"/><path d="M652.336 812.468c-1.579-.243-6.433-2.383-7.73-6.454-.885-2.776.655-4.288-.501-7.121-1.313-3.216-3.916-2.776-6.285-5.892-2.763-3.634-3.265-9.551-1.091-13.415 1.753-3.113 3.818-2.362 7.116-6.572 2.915-3.721 2.033-5.245 4.084-7.143 3.989-3.697 9.165.37 16.295-1.261 9.907-2.267 9.713-12.359 17.519-12.986 7.178-.577 16.025 7.256 17.339 14.77.527 3.012-.326 4.613 1.117 7.252 2.217 4.055 6.158 2.985 9.332 7.018 2.401 3.05 3.682 8.154 1.734 11.195-2.281 3.563-7.228 1.548-9.528 5.047-2.477 3.769 2.039 7.968-.332 11.941-2.238 3.753-8.601 4.195-12.284 4.012-4.439-.223-8.747-1.51-13.132-2.224-8.142-1.324-15.663 3.06-23.654 1.833h.001Z" fill="#233862"/><path d="m684.894 895.637-48.208-12.058-2.411 11.712 44.133 20.369 34.944-8.632 21.081-20.697-49.539 9.306Z" fill="#072E52"/><path d="M638.815 834.312c-1.616-3.928 9.468-14.692 23.365-18.673 10.089-2.89 18.639-1.277 23.087-.492 14.432 2.548 23.419 9.762 26.801 12.794-2.77 1.502-10.413 6.087-14.199 14.786-3.659 8.409-1.043 16.136.319 20.624 1.186 3.909 2.991 9.852 8.325 14.152 2.818 2.269 5.93 3.422 12.156 5.728 7.342 2.718 11.894 3.469 11.861 4.94-.042 1.875-7.499 3.405-7.239 4.574.019.087.073.094.082.157.1.816-8.276 2.821-18.862 4.414-12.38 1.863-18.57 2.793-24.487 1.781-9.224-1.579-7.673-4.418-16.918-6.011-10.755-1.852-15.64 1.513-25.376-2.227-1.641-.63-8.203-3.159-8.014-5.787.232-3.248 11.057-2.138 20.48-10.462 4.149-3.666 6.158-7.51 6.853-8.953.899-1.867 4.669-11.51.888-22.011-.224-.619-.398-.904-.638-1.313-4.575-7.811-16.956-4.31-18.483-8.019l-.001-.002Z" fill="#AEC3FF"/><path d="M686.115 851.122c-2.33 4.482 5.822 17.474 17.173 18.584 6.153.601 12.223-2.388 15.86-6.903 5.614-6.969 3.877-15.645 3.27-18.682-3.587-17.922-24.657-25.381-26.589-26.034-5.127 7.945-5.045 12.956-3.962 16.093.893 2.587 3.227 5.35 7.899 10.876 4.16 4.921 6.222 6.674 5.604 8.174-.733 1.78-4.716 1.914-7.238 1.401-4.675-.951-7.236-4.711-7.904-5.766-1.283.205-3.31.717-4.111 2.258l-.002-.001Z" fill="#91B0F2"/><path d="M679.344 804.033s.921 7.358 3.636 9.043c2.716 1.686 7.106 3.888 7.589 4.485.484.597-16.823 2.457-25.4-1.87 2.827-.59 3.596-.807 3.596-.807.768-.216 2.198-.62 3.633-1.437.977-.555 2.55-1.642 3.994-3.693l-.032-4.075 2.985-1.648-.001.002Z" fill="#F5A46B"/><path d="M677.844 808.002s-2.546 7.38-10.21 6.979c-6.862-.359-8.064-17.428-3.727-20.747 1.447-1.106 4.528-1.758 6.916-1.122 1.679.447 6.876 3.969 6.325 9.872 1.421-.929 2.919-.939 3.499-.273.736.846-.175 2.584-.381 2.978-.716 1.365-1.876 2.042-2.422 2.315v-.002Z" fill="#FFB27D"/><path d="M676.69 911.849c-9.582-5.137-16.658-10.369-21.461-14.323-9.451-7.782-13.786-13.651-23.354-15.971-1.71-.415-11.452-2.776-14.596 1.549-3.48 4.79 3.287 14.807 4.108 16.023 12.224 18.094 43.352 17.249 53.116 16.662.728-1.314 1.457-2.627 2.187-3.94Z" fill="#215EAB"/><path d="M617.278 883.104c.919-1.264 2.407-1.946 4.088-2.284-.56 1.937-.61 3.753.088 5.342 1.91 4.338 7.566 3.002 11.538 8.094 3.902 5.001 1.201 9.82 4.651 11.884 3.953 2.363 8.855-3.16 13.089-.517 2.88 1.796 1.984 5.204 5.339 7.061 2.319 1.283 4.591.677 7.233.345 3.027-.381 7.175-.462 12.383.626l-1.185 2.136c-9.764.587-40.892 1.431-53.116-16.662-.822-1.217-7.589-11.233-4.108-16.023v-.002Z" fill="#215EAB" style="mix-blend-mode:multiply" opacity=".3"/><path d="M669.445 914.552s-1.756-1.259-4.303-.401c-2.548.859-6.592 1.55-6.586 2.796.005 1.246 4.053 2.026 6.85 1.514 2.675-.489 4.781-2.815 4.04-3.909h-.001Z" fill="#072E52"/><path d="m672.019 912.426-4.689 1.508s-.762 1.268.267 2.073c1.027.805 4.599-.898 4.599-.898l-.177-2.685v.002Z" fill="url(#s)"/><path d="M737.188 890.812c1.385 8.059-16.011 16.78-19.994 18.776-8.116 4.068-23.387 9.811-46.053 7.616l-.904-5.425a107.162 107.162 0 0 0 12.58-5.226c8.787-4.323 12.124-7.409 24.316-14.782 13.493-8.158 17.423-9.204 21.444-8.194 3.439.863 7.968 3.488 8.611 7.233v.002Z" fill="#215EAB"/><path d="m689.749 857.901-5.623-32.067-25.421 9.744 6.465 32.141 24.579-9.818Z" fill="#CA534B"/><path d="m644.628 824.918 14.076 10.66 6.466 32.141-10.361-6.836-10.181-35.965Z" fill="#CA534B"/><path d="M651.943 850.382s-3.098-2.877-3.436-6.219c-.337-3.342 2.002-6.017 4.265-6.698 2.266-.681 3.475.324 1.954 3.615-1.521 3.291-3.932 5.426-2.783 9.302Zm36.973 7.817s3.355-2.59 3.988-5.888c.634-3.299-1.47-6.171-3.676-7.052-2.206-.88-3.505.013-2.276 3.427 1.231 3.414 3.455 5.756 1.963 9.513h.001Z" fill="#FFB27D"/><defs><linearGradient id="g" x1="590.923" y1="640.715" x2="590.923" y2="904.775" gradientUnits="userSpaceOnUse"><stop stop-color="#4A7CBB"/><stop offset="1" stop-color="#2AB392"/></linearGradient><linearGradient id="h" x1="720.899" y1="743.084" x2="720.899" y2="802.394" gradientUnits="userSpaceOnUse"><stop stop-color="#4A7CBB"/><stop offset="1" stop-color="#2AB392"/></linearGradient><linearGradient id="i" x1="633.587" y1="854.366" x2="633.587" y2="904.772" gradientUnits="userSpaceOnUse"><stop stop-color="#4A7CBB"/><stop offset="1" stop-color="#2AB392"/></linearGradient><linearGradient id="j" x1="557.745" y1="691.607" x2="557.745" y2="778.967" gradientUnits="userSpaceOnUse"><stop stop-color="#4A7CBB"/><stop offset="1" stop-color="#2AB392"/></linearGradient><linearGradient id="k" x1="505.846" y1="568.875" x2="505.846" y2="904.772" gradientUnits="userSpaceOnUse"><stop stop-color="#4A7CBB"/><stop offset="1" stop-color="#2AB392"/></linearGradient><linearGradient id="l" x1="497.75" y1="645.235" x2="497.75" y2="760.68" gradientUnits="userSpaceOnUse"><stop stop-color="#4A7CBB"/><stop offset="1" stop-color="#2AB392"/></linearGradient><linearGradient id="n" x1="546.346" y1="557.144" x2="546.346" y2="912.305" gradientUnits="userSpaceOnUse"><stop stop-color="#4A7CBB"/><stop offset="1" stop-color="#2AB392"/></linearGradient><linearGradient id="o" x1="489.718" y1="557.144" x2="489.718" y2="606.381" gradientUnits="userSpaceOnUse"><stop stop-color="#4A7CBB"/><stop offset="1" stop-color="#2AB392"/></linearGradient><linearGradient id="p" x1="389.911" y1="647.037" x2="389.911" y2="705.798" gradientUnits="userSpaceOnUse"><stop stop-color="#4A7CBB"/><stop offset="1" stop-color="#2AB392"/></linearGradient><linearGradient id="q" x1="546.498" y1="691.146" x2="546.498" y2="778.018" gradientUnits="userSpaceOnUse"><stop stop-color="#4A7CBB"/><stop offset="1" stop-color="#2AB392"/></linearGradient><linearGradient id="r" x1="490.273" y1="559.576" x2="490.273" y2="912.305" gradientUnits="userSpaceOnUse"><stop stop-color="#4A7CBB"/><stop offset="1" stop-color="#2AB392"/></linearGradient><linearGradient id="s" x1="666.722" y1="918.346" x2="682.739" y2="898.196" gradientUnits="userSpaceOnUse"><stop stop-color="#FFC444"/><stop offset="1" stop-color="#F36F56"/></linearGradient><filter id="a" x="0" y="234.749" width="630.344" height="631.423" filterUnits="userSpaceOnUse" color-interpolation-filters="sRGB"><feFlood flood-opacity="0" result="BackgroundImageFix"/><feBlend in="SourceGraphic" in2="BackgroundImageFix" result="shape"/><feGaussianBlur stdDeviation="81.5" result="effect1_foregroundBlur_1903_121"/></filter><filter id="b" x="238.68" y=".724" width="773.543" height="773.543" filterUnits="userSpaceOnUse" color-interpolation-filters="sRGB"><feFlood flood-opacity="0" result="BackgroundImageFix"/><feBlend in="SourceGraphic" in2="BackgroundImageFix" result="shape"/><feGaussianBlur stdDeviation="103" result="effect1_foregroundBlur_1903_121"/></filter><filter id="c" x="363.792" y="306.068" width="794.208" height="794.208" filterUnits="userSpaceOnUse" color-interpolation-filters="sRGB"><feFlood flood-opacity="0" result="BackgroundImageFix"/><feBlend in="SourceGraphic" in2="BackgroundImageFix" result="shape"/><feGaussianBlur stdDeviation="102.5" result="effect1_foregroundBlur_1903_121"/></filter></defs></svg>