<svg width="233" height="108" viewBox="0 0 233 108" fill="none" xmlns="http://www.w3.org/2000/svg">
<path d="M109.558 20.2537H114.088V34.9535H117.703C118.41 30.3267 120.498 26.5031 123.968 23.4828C127.471 20.4304 131.551 18.9042 136.21 18.9042C141.383 18.9042 145.769 20.7356 149.368 24.3986C152.999 28.0293 154.814 32.4313 154.814 37.6043C154.814 42.7453 152.999 47.1472 149.368 50.8101C145.737 54.473 141.351 56.3045 136.21 56.3045C131.391 56.3045 127.197 54.6498 123.631 51.3403C120.097 48.0308 118.137 43.9662 117.751 39.1466H114.088V54.955H109.558V20.2537ZM136.21 23.3864C132.322 23.3864 128.997 24.7841 126.234 27.5795C123.502 30.3749 122.137 33.7165 122.137 37.6043C122.137 41.5243 123.502 44.882 126.234 47.6774C128.965 50.4406 132.29 51.8222 136.21 51.8222C140.13 51.8222 143.456 50.4406 146.187 47.6774C148.95 44.882 150.332 41.5243 150.332 37.6043C150.332 33.7165 148.95 30.3749 146.187 27.5795C143.424 24.7841 140.098 23.3864 136.21 23.3864Z" fill="#CA534B"/>
<path d="M163.979 44.7374V54.955H159.448V20.2537C162.501 20.2537 164.959 20.4465 166.822 20.832C169.682 21.4104 172.076 22.8081 174.004 25.0251C175.931 27.2421 176.895 29.7805 176.895 32.6401C176.895 36.0781 175.61 38.9538 173.04 41.2673C170.469 43.5807 167.449 44.7374 163.979 44.7374ZM163.979 40.2551C166.164 40.2551 168.108 39.5322 169.811 38.0863C171.513 36.6083 172.365 34.7929 172.365 32.6401C172.365 30.4873 171.497 28.672 169.762 27.1939C168.092 25.8123 166.164 25.1215 163.979 25.1215V40.2551Z" fill="#CA534B"/>
<path d="M184.797 56.2081V51.9186C189.391 51.9186 192.058 50.8101 192.797 48.5931C193.022 47.9183 193.135 46.6331 193.135 44.7374C189.697 44.7374 186.708 43.5807 184.17 41.2673C181.632 38.9217 180.362 36.046 180.362 32.6401V20.2537H184.797V32.6401C184.797 34.7929 185.664 36.6083 187.399 38.0863C189.038 39.5322 190.95 40.2551 193.135 40.2551V20.2537H197.665V46.0387C197.665 49.8301 196.412 52.5452 193.906 54.1839C191.849 55.5334 188.813 56.2081 184.797 56.2081Z" fill="#CA534B"/>
<path d="M233 51.7259C229.369 54.7783 225.305 56.3045 220.806 56.3045C215.698 56.3045 211.312 54.473 207.649 50.8101C203.986 47.1151 202.154 42.7131 202.154 37.6043C202.154 32.4634 203.97 28.0615 207.601 24.3986C211.263 20.7356 215.665 18.9042 220.806 18.9042C225.337 18.9042 229.401 20.4625 233 23.5792V30.4713C231.715 28.2543 229.996 26.5192 227.843 25.2661C225.722 24.013 223.377 23.3864 220.806 23.3864C216.918 23.3864 213.593 24.7841 210.83 27.5795C208.066 30.3749 206.685 33.7165 206.685 37.6043C206.685 41.5243 208.05 44.882 210.782 47.6774C213.545 50.4406 216.886 51.8222 220.806 51.8222C223.313 51.8222 225.658 51.1957 227.843 49.9426C230.028 48.6574 231.747 46.9223 233 44.7374V51.7259Z" fill="#CA534B"/>
<path d="M120.61 66.3308V63.1895H113.304C111.281 63.1895 109.558 64.6031 109.558 66.3308V85.179H113.304V66.3308H120.61Z" fill="#CA534B"/>
<path d="M126.22 85.179V76.6345H129.78C131.803 76.6345 133.526 75.535 133.526 74.1842V66.3308C133.526 64.6031 131.803 63.1895 129.78 63.1895H122.474V85.179H126.22ZM129.78 66.3308V74.1842H126.22V66.3308H129.78Z" fill="#CA534B"/>
<path d="M143.464 63.1895V78.8649H139.905V63.1895H136.158V78.8649C136.158 80.5926 137.881 82.0376 139.905 82.0376H143.464V85.179H136.158V88.3204H143.464C145.525 88.3204 147.211 86.8439 147.211 85.179V63.1895H143.464Z" fill="#CA534B"/>
<path d="M157.514 85.179H161.261V63.1895H150.208V85.179H153.955V66.3308H157.514V85.179Z" fill="#CA534B"/>
<path d="M171.564 85.179H175.311V63.1895H164.258V85.179H168.005V66.3308H171.564V85.179Z" fill="#CA534B"/>
<path d="M50.7839 0C56.6432 0.41294 62.4635 1.11994 68.2619 2.07721C74.8908 3.17213 81.3852 4.74569 87.7201 6.97932C88.0767 7.10445 88.4099 7.30154 88.765 7.43293C93.7437 9.27864 93.7453 9.27708 93.7453 14.6109C93.7453 29.5722 93.5889 44.535 93.8016 59.4916C93.9283 68.5058 90.0476 75.6212 84.1804 81.8717C74.1494 92.5534 61.8722 100.049 48.7504 106.284C48.1248 106.578 47.5679 106.983 46.9782 107.336H46.5981C42.7612 105.27 38.8962 103.257 35.0921 101.13C25.0814 95.5331 15.831 88.9386 8.18843 80.2965C3.62263 75.1348 0.23933 69.2301 0.13766 62.2617C-0.115736 45.0105 0.0657059 27.753 0.0281659 10.4987C0.0281659 9.34434 0.444234 8.81252 1.47971 8.4293C9.33184 5.52464 17.4217 3.48497 25.643 1.94582C31.4304 0.860293 37.3117 0.500534 43.171 0.0015645L50.7839 0ZM88.9808 38.4613C88.9808 30.4074 88.9308 22.3504 89.0231 14.3012C89.0418 12.6651 88.4912 11.9643 86.9896 11.4857C77.1354 8.34014 67.0966 6.13779 56.759 5.25404C39.4436 3.7759 22.6711 6.26293 6.25512 11.7125C5.20556 12.0597 4.79419 12.5634 4.79888 13.7459C4.85206 29.544 4.83955 45.3265 4.85832 61.1167C4.84292 62.1285 4.9062 63.1399 5.04758 64.1418C6.10027 70.727 9.98096 75.7073 14.4764 80.2528C23.5001 89.3828 34.3976 95.7959 45.7707 101.508C46.4761 101.863 47.1049 102.021 47.898 101.621C59.5901 95.7067 70.8349 89.1294 80.0307 79.5974C85.9057 73.4971 89.6784 66.6038 89.0669 57.6693C88.6305 51.2953 88.9824 44.8666 88.9808 38.4613Z" fill="#215EAB"/>
<path d="M87.1695 39.2434C87.1695 46.0288 86.9724 52.8204 87.229 59.5948C87.4651 65.8374 85.1033 70.9319 81.3055 75.579C74.3246 84.1178 65.3212 90.0914 55.9284 95.5644C54.6771 96.2964 53.2396 96.7954 52.1243 97.6932C48.6143 100.518 45.4469 99.9597 41.6898 97.7902C31.8355 92.1029 22.1956 86.1997 14.3841 77.7689C9.34904 72.3287 6.34428 66.2644 6.53823 58.4795C6.89174 44.2221 6.65555 29.9491 6.60393 15.6823C6.60393 14.3966 6.93084 13.7615 8.18687 13.3533C33.9315 4.95059 59.6652 4.863 85.4239 13.297C86.8317 13.7569 87.2211 14.4201 87.2071 15.8528C87.1304 23.644 87.168 31.4445 87.1695 39.2434ZM27.7812 70.9022C28.1065 69.9214 27.7155 69.3693 27.5106 68.7874C25.3771 62.72 25.155 56.5353 26.4313 50.2786C26.6237 49.3401 26.6738 47.5835 28.4022 49.2635C29.2062 50.0455 29.3985 49.2791 29.6332 48.6581C30.7171 45.8122 32.2259 43.1468 34.1083 40.7528C36.0494 38.2752 36.0416 38.2752 33.4341 36.7407C33.1213 36.5577 32.652 36.3059 32.6301 36.0509C32.5816 35.5363 33.1744 35.4472 33.5467 35.2501C35.5801 34.1677 37.8075 34.1552 40.0318 34.1708C41.3863 34.1849 42.9098 34.1911 43.7154 33.0681C44.5209 31.945 45.1497 31.4538 46.3526 32.2219C47.3693 32.871 48.5049 31.507 49.5701 32.5535C50.4554 33.4231 51.7286 33.5702 52.9659 33.4701C55.7501 33.248 58.5406 33.1572 61.3123 33.5279C62.7888 33.7235 63.0328 33.1447 62.8373 31.8402C61.8191 25.0892 54.4018 21.5355 48.5846 25.0846C47.3661 25.8275 46.351 26.0231 45.1435 25.047C43.11 23.4078 40.7638 23.1825 38.3143 23.9677C35.4847 24.8765 32.6739 25.8447 29.8428 26.7441C29.4017 26.8849 28.7995 27.326 28.435 26.7895C26.7567 24.2993 23.8989 23.5047 21.5746 21.9531C20.8629 21.4745 19.9635 21.2101 19.1126 21.024C18.429 20.8676 17.9395 21.4119 17.5875 21.9625C17.2981 22.4114 17.5985 22.6992 17.9879 22.8087C20.7581 23.5908 21.7107 25.9855 22.9667 28.1957C23.4735 29.0888 23.3092 31.4132 25.6039 30.1259C25.9449 29.935 26.0841 30.4543 26.0622 30.7515C26.0121 31.5039 25.9902 32.2735 25.8088 32.9992C24.7233 37.3242 22.6022 41.2487 20.9427 45.3562C19.1658 49.7499 18.551 54.2547 19.2831 58.9331C19.3597 59.4196 19.4567 60.4801 19.9807 60.1469C22.244 58.7048 21.8812 60.929 22.194 61.7408C23.4876 65.0569 24.9203 68.2493 27.7812 70.9022ZM65.8828 44.1424C64.5 40.781 62.2101 39.1183 59.526 37.906C59.1318 37.7277 58.3482 37.784 58.0791 38.0625C55.8455 40.3555 54.1562 39.1808 52.5091 37.3226C52.3058 37.0942 51.9914 36.9628 51.7271 36.7924C45.7832 33.0086 38.2596 37.6824 37.942 41.9807C37.6292 46.2039 37.8795 50.4616 37.9295 54.7036C37.9405 55.5577 38.2424 56.3351 39.3138 56.4399C40.5339 56.5603 42.3702 55.7876 42.0308 58.2715C42.0151 58.3779 42.4046 58.5843 42.6314 58.6704C45.2404 59.6933 47.887 60.0969 50.5821 59.0098C51.1952 58.7627 52.1134 58.5718 51.8756 57.6677C51.5628 56.4664 52.1478 56.3601 53.0269 56.4586C55.4169 56.7261 56.1552 55.5452 56.0676 53.3131C55.9112 49.6514 55.5342 46.0006 55.9002 42.3139C56.066 40.6574 56.7731 40.4838 58.0791 40.7106C60.7586 41.1736 63.011 42.6251 65.8828 44.1424ZM40.8404 77.9644C40.6199 77.7579 40.4025 77.5499 40.1788 77.3481C36.1213 73.6973 33.3058 69.1081 30.8501 64.3499C29.4283 61.5938 29.2234 58.3466 28.5883 55.2573C28.3893 56.4803 28.317 57.7204 28.3725 58.9582C28.521 63.8384 29.508 68.509 31.9575 72.7885C32.1906 73.1952 32.4627 74.3746 33.187 73.4142C34.0692 72.2489 34.4023 73.1952 34.8638 73.6363C36.6406 75.3444 38.2314 77.273 40.8404 77.9644ZM72.2802 46.8046C71.0586 51.0779 73.4283 55.5061 70.4924 60.1688C68.351 63.574 67.5392 68.0319 65.0584 71.5669C67.1435 70.1013 68.606 68.1742 69.8041 66.0094C70.1733 65.34 70.2624 63.8853 71.6702 65.1757C72.2083 65.6684 72.3271 64.913 72.4523 64.5282C74.323 58.5593 74.2589 52.6249 72.2771 46.8093L72.2802 46.8046ZM19.7961 35.2939C19.8759 34.1771 19.9807 32.9664 19.3191 32.4393C17.6454 31.1035 17.7799 29.4204 17.8143 27.6404C17.8253 27.0585 18.3039 26.0559 17.2559 25.9652C16.38 25.8901 16.0703 26.7582 15.8779 27.5184C15.1881 30.1884 17.0166 33.9112 19.7961 35.2939ZM74.0462 35.2282C76.9399 34.0707 78.9842 29.4767 77.7673 27.0319C77.5108 26.5189 77.1995 25.8776 76.5676 25.9777C75.6745 26.12 76.211 26.8912 76.1844 27.3854C76.1015 28.8808 76.5222 30.6139 75.2834 31.6869C74.0727 32.7208 74.0868 33.8846 74.0383 35.2282H74.0462ZM76.4659 22.9057C75.9263 21.2164 74.847 20.8097 73.6113 21.2054C70.7661 22.1205 68.6764 24.254 66.2957 25.9605C70.1295 26.2655 72.2974 21.7482 76.4659 22.9057Z" fill="#215EAB"/>
<path d="M46.9532 54.9226C45.2514 54.7834 43.5464 54.6661 41.8462 54.4956C40.9906 54.4111 40.1412 54.1358 40.1366 53.0879C40.1366 52.0774 40.9312 51.7677 41.7868 51.5565C45.644 50.604 46.8187 47.5288 44.5272 44.3426C43.9359 43.5214 43.2414 42.7018 42.4813 44.255C41.987 45.2623 41.4239 44.9276 40.9171 44.2691C39.8534 42.8832 39.8394 41.4536 40.9359 40.0974C43.6794 36.7063 49.5059 36.5374 52.4731 39.7095C53.5868 40.9014 53.9294 42.2466 53.2552 43.7185C52.786 44.7383 52.0352 45.5392 51.0216 44.2096C50.349 43.329 49.9486 43.7404 49.4465 44.3363C46.9204 47.3646 47.9746 50.7041 51.7599 51.5456C52.7594 51.7677 53.7307 52.0962 53.7276 53.2302C53.7276 54.2797 52.6327 54.2751 51.8788 54.5097C50.2645 55.0118 48.6034 54.7615 46.9532 54.9226Z" fill="#215EAB"/>
</svg>
