<svg width="597" height="554" fill="none" xmlns="http://www.w3.org/2000/svg"><g filter="url(#a)"><ellipse cx="86.804" cy="87.112" rx="86.804" ry="87.112" transform="matrix(1 0 0 -1 64 366.806)" fill="#27AE60" fill-opacity=".25"/></g><g filter="url(#b)"><circle cx="103.118" cy="103.118" r="103.118" transform="matrix(1 0 0 -1 224.679 475.772)" fill="#278EAE" fill-opacity=".25"/></g><g filter="url(#c)"><circle cx="109.582" cy="109.582" transform="matrix(1 0 0 -1 295.478 302.165)" fill="#2745AE" fill-opacity=".25" r="109.582"/></g><path opacity=".2" d="M293.178 137.359c-30.934 12.299-33.897 43.741-61.749 46.439-24.268 2.351-33.493-20.408-50.522-16.33-25.939 6.212-42.247 68.054-31.829 118.904 10.757 52.505 55.953 122.305 130.831 127.068 84.065 5.348 147.674-74.963 151.557-145.441.421-7.622 2.9-71.482-45.922-109.207-2.439-1.885-50.55-38.061-92.366-21.434v.001Z" fill="#F4F7FA"/><path d="M395.39 236.009c4.513.38 8.505-3.274 8.917-8.16.411-4.887-2.913-9.156-7.427-9.536a7.748 7.748 0 0 0-.696-.021 51.212 51.212 0 0 0-1.175-7.399c.213-.087.428-.178.639-.287 4.114-2.114 5.909-7.412 4.009-11.835-1.9-4.422-6.776-6.292-10.89-4.179-.215.11-.419.235-.622.362a47.098 47.098 0 0 0-4.449-5.713 9.26 9.26 0 0 0 .433-.604c2.613-4.042 1.73-9.566-1.973-12.339-3.702-2.772-8.822-1.743-11.435 2.298a9.412 9.412 0 0 0-.368.635 41.662 41.662 0 0 0-6.532-2.497c.041-.246.078-.494.099-.747.411-4.887 1.302-10.404-3.216-10.713-10.452-.715-12.715 4.45-13.126 9.336a9.09 9.09 0 0 0-.029.753 41.565 41.565 0 0 0-6.857 1.37 9.369 9.369 0 0 0-.257-.688c-1.9-4.422-1.557-7.371-5.875-5.714-9.418 3.613-10.923 8.948-9.023 13.371.099.23.211.45.326.668a46.878 46.878 0 0 0-5.343 4.89 7.924 7.924 0 0 0-.552-.461c-3.703-2.772-8.823-1.743-11.436 2.299-2.613 4.042-1.73 9.566 1.973 12.339.19.142.385.267.582.39a51.207 51.207 0 0 0-2.396 7.098 7.791 7.791 0 0 0-.69-.096c-4.512-.38-8.505 3.273-8.916 8.16-.412 4.887 2.913 9.156 7.426 9.536.234.02.466.022.696.021a51.198 51.198 0 0 0 1.175 7.398 8.25 8.25 0 0 0-.64.287c-4.114 2.115-5.909 7.413-4.008 11.835 1.9 4.422 6.775 6.293 10.889 4.178.215-.11.421-.234.622-.362a47.105 47.105 0 0 0 4.45 5.715c-.15.195-.297.392-.434.604-2.613 4.042-1.73 9.566 1.973 12.338 3.703 2.773 11.717 1.505 14.33-2.537.134-.208-2.643-.181-2.526-.396a41.556 41.556 0 0 0 6.531 2.498c-.04.246-.077.494-.098.746-.412 4.887 2.913 9.157 7.426 9.536 4.513.381 8.505-3.273 8.917-8.16.021-.253.026-.504.028-.752a41.597 41.597 0 0 0 6.858-1.37c.078.231.159.46.256.687 1.901 4.422 6.776 6.293 10.89 4.179 4.114-2.115 5.909-7.413 4.009-11.835a9.84 9.84 0 0 0-.326-.668 47.047 47.047 0 0 0 5.342-4.89c.178.159.359.316.553.46 3.703 2.773 8.822 1.744 11.435-2.298 2.613-4.041 1.73-9.565-1.973-12.338a8.073 8.073 0 0 0-.582-.389 51.179 51.179 0 0 0 2.397-7.099c.226.04.455.077.689.097v-.001Zm-46.4 19.534c-16.385-1.38-28.457-16.881-26.962-34.623 1.494-17.742 15.989-31.006 32.373-29.626 16.385 1.38 28.457 16.881 26.963 34.623-1.494 17.742-15.988 31.006-32.375 29.626h.001Z" fill="#BFC6D1"/><path d="M395.649 210.606c4.114-2.114 5.909-7.412 4.009-11.835-1.901-4.422-6.775-6.292-10.89-4.178a8.54 8.54 0 0 0-.622.362 46.9 46.9 0 0 0-4.449-5.713 9.26 9.26 0 0 0 .433-.604c2.613-4.042 4.62-12.059.654-14.437-7.53-4.514-11.449.355-14.061 4.397a9.39 9.39 0 0 0-.368.634 41.75 41.75 0 0 0-6.531-2.497c.04-.246.077-.494.098-.747.224-2.659-.664-5.131-2.243-6.897a1322.539 1322.539 0 0 0-2.825 22.945c14.062 3.54 23.868 17.788 22.512 33.882-1.149 13.637-9.98 24.619-21.446 28.349.026 1.491.065 2.986.051 4.478-.037 4.051-.3 8.11-.567 12.165a41.396 41.396 0 0 0 3.298-.807c.078.231.159.46.257.687 1.899 4.422 6.145 7.111 13.714 3.558 4.187-1.964 3.083-6.792 1.184-11.213a9.63 9.63 0 0 0-.326-.669 46.945 46.945 0 0 0 5.342-4.889c.178.159.359.316.553.46 3.703 2.773 12.008 1.216 14.621-2.825 2.613-4.042-1.457-9.039-5.159-11.811a7.557 7.557 0 0 0-.582-.389 51.207 51.207 0 0 0 2.396-7.098c.227.04.455.076.689.096 4.513.381 8.505-3.273 8.917-8.16.411-4.886-2.913-9.156-7.427-9.535a7.36 7.36 0 0 0-.695-.02 51.212 51.212 0 0 0-1.175-7.399c.214-.088.427-.179.638-.287v-.003Z" fill="#BFC6D1"/><path d="M399.6 234.832c4.513.38 8.506-3.274 8.917-8.161.412-4.886-2.913-9.156-7.426-9.535a7.391 7.391 0 0 0-.696-.02 51.212 51.212 0 0 0-1.175-7.399 7.38 7.38 0 0 0 .638-.287c4.114-2.114 5.91-7.412 4.009-11.835-1.899-4.422-6.775-6.292-10.889-4.178-.215.11-.42.235-.622.362a47.094 47.094 0 0 0-4.45-5.714c.15-.195.297-.393.434-.604 2.613-4.042 1.73-9.566-1.973-12.339-3.703-2.772-8.822-1.743-11.435 2.298a9.929 9.929 0 0 0-.369.634 41.651 41.651 0 0 0-6.531-2.497c.04-.246.077-.494.098-.748.412-4.887-2.913-9.155-7.426-9.536-4.513-.38-8.506 3.274-8.917 8.159a10.05 10.05 0 0 0-.028.753 41.494 41.494 0 0 0-6.858 1.37 8.933 8.933 0 0 0-.257-.688c-1.899-4.422-6.775-6.292-10.889-4.178-4.114 2.114-5.909 7.412-4.009 11.835.1.23.211.45.326.668a46.954 46.954 0 0 0-5.342 4.89 7.942 7.942 0 0 0-.553-.461c-3.703-2.772-8.822-1.743-11.435 2.299-2.613 4.042-1.73 9.566 1.972 12.339.19.142.386.267.582.389a51.207 51.207 0 0 0-2.396 7.098 7.769 7.769 0 0 0-.689-.096c-4.513-.38-8.505 3.273-8.917 8.16-.411 4.887 2.913 9.155 7.427 9.536.234.02.465.022.695.02a51.337 51.337 0 0 0 1.175 7.398 8.382 8.382 0 0 0-.638.287c-4.114 2.115-5.909 7.413-4.009 11.835 1.9 4.422 6.775 6.293 10.89 4.178a8.19 8.19 0 0 0 .622-.362 47.097 47.097 0 0 0 4.449 5.715 8.748 8.748 0 0 0-.433.604c-2.613 4.042-1.73 9.566 1.972 12.338 3.703 2.773 8.823 1.743 11.436-2.298a9.39 9.39 0 0 0 .368-.634 41.594 41.594 0 0 0 6.531 2.498c-.04.246-.077.494-.098.747-.411 4.887 2.913 9.156 7.427 9.536 4.512.38 8.505-3.273 8.916-8.16.021-.253.027-.504.028-.752a41.597 41.597 0 0 0 6.858-1.37c.078.231.16.46.257.687 1.9 4.422 6.775 6.293 10.889 4.179 4.115-2.115 5.91-7.413 4.009-11.835a9.39 9.39 0 0 0-.326-.668 46.877 46.877 0 0 0 5.342-4.89c.178.159.36.316.553.46 3.703 2.773 8.823 1.744 11.436-2.298 2.613-4.041 1.73-9.565-1.973-12.338a7.965 7.965 0 0 0-.582-.389 51.175 51.175 0 0 0 2.396-7.099c.227.04.456.076.689.097Zm-46.399 19.534c-16.386-1.38-28.457-16.881-26.963-34.623 1.494-17.742 15.989-31.006 32.373-29.626 16.386 1.379 28.457 16.881 26.963 34.623-1.494 17.742-15.988 31.005-32.374 29.626h.001Z" fill="#D8DEE8"/><path d="M251.185 336.456c-19.07-.06-43.355-2.858-66.535-13.62-5.915-2.746-42.457-19.714-37.956-36.389 1.585-5.874 6.925-6.751 9.181-14.567 2.675-9.262-3.109-13.959-7.037-25.574-2.343-6.931-9.201-27.213 3.021-38.284 7.302-6.616 21.087-9.643 31.531-7.095 15.32 3.737 20.45 18.735 28.693 44.263 7.307 22.63 5.317 28.147 10.862 44.351 4.116 12.025 11.926 28.604 28.239 46.914l.001.001Z" fill="#AAB9DE"/><mask id="d" style="mask-type:luminance" maskUnits="userSpaceOnUse" x="144" y="200" width="108" height="137"><path d="M251.185 336.456c-19.07-.06-43.355-2.858-66.535-13.62-5.915-2.746-42.457-19.714-37.956-36.389 1.585-5.874 6.925-6.751 9.181-14.567 2.675-9.262-3.109-13.959-7.037-25.574-2.343-6.931-9.201-27.213 3.021-38.284 7.302-6.616 21.087-9.643 31.531-7.095 15.32 3.737 20.45 18.735 28.693 44.263 7.307 22.63 5.317 28.147 10.862 44.351 4.116 12.025 11.926 28.604 28.239 46.914l.001.001Z" fill="#fff"/></mask><g style="mix-blend-mode:soft-light" opacity=".5" fill="#fff" mask="url(#d)"><path d="M300.175 347.256c-9.597 0-18.99-1.149-28.118-3.447-25.673-6.464-47.835-22.091-65.87-46.447-18.747-25.318-28.34-53.734-33.086-73.113-3.308-13.504-2.5-28.398 2.401-44.269l.686.212c-4.862 15.745-5.665 30.51-2.39 43.886 5.771 23.563 29.925 101.784 98.434 119.034 19.146 4.82 39.471 4.551 60.409-.802l.178.695c-11.078 2.833-21.989 4.25-32.646 4.25l.002.001Z"/><path d="m186.377 262.543-.269-.177c-40.847-26.997-40.125-57.573-38.931-66.301.023-.172.04-.283.042-.332l.719.004c0 .068-.012.162-.048.425-1.177 8.603-1.88 38.703 38.342 65.423 1.018-1.294 5.693-7.465 9.594-16.408 4.035-9.253 8.043-23.457 4.218-38.572l.696-.177c3.878 15.319-.178 29.694-4.264 39.056-4.422 10.132-9.838 16.744-9.892 16.809l-.206.249-.001.001Z"/><path d="M191.657 298.111c-16.985 0-28.744-4.512-36.097-8.821-10.094-5.915-14.317-12.755-14.358-12.823l.614-.373c.041.068 4.193 6.779 14.147 12.6 9.168 5.361 25.271 11.041 49.959 7.702 1.01-2.18 10.978-24.616 9.01-54.801l-2.092-32.098.717-.046 2.092 32.098c2.074 31.824-9.049 55.103-9.162 55.335l-.084.173-.191.026c-5.226.715-10.073 1.029-14.556 1.029l.001-.001Z"/></g><path d="m433.999 392.023-269.895-2.333v6.903c0 1.873 1.177 3.467 2.771 3.751l76.319 13.592c.906.162 1.824.204 2.738.128l185.135-15.499c1.653-.138 2.933-1.735 2.933-3.661v-2.882l-.001.001Z" fill="#BFC8D6"/><path d="m334.677 380.961-171.54 12.627c-3.069.226-5.565-2.175-5.565-5.363V260.483c0-3.188 2.496-5.773 5.565-5.773h171.54c2.529 0 4.574 2.337 4.574 5.219v115.477c0 2.882-2.045 5.369-4.574 5.555Z" fill="#AAB9DE"/><path d="m337.411 380.961-171.54 12.627c-3.069.226-5.565-2.175-5.565-5.363V260.483c0-3.188 2.496-5.773 5.565-5.773h171.54c2.529 0 4.574 2.337 4.574 5.219v115.477c0 2.882-2.045 5.369-4.574 5.555Z" fill="#215EAB"/><path d="m332.068 372.82-159.772 10.968c-2.498.172-4.528-1.799-4.528-4.402V267.549c0-2.603 2.03-4.723 4.528-4.733l159.772-.688c2.086-.009 3.774 1.906 3.774 4.277v101.864c0 2.371-1.688 4.408-3.774 4.552v-.001Z" fill="#E9EFF8"/><path d="M257.7 258.205c0 1.187-.883 2.152-1.973 2.155-1.091.003-1.977-.958-1.977-2.147 0-1.19.886-2.155 1.977-2.156 1.091 0 1.973.96 1.973 2.148Z" fill="#fff"/><path d="m345.494 380.261-181.39 13.291 79.09 14.087c.906.161 1.824.203 2.738.127L434 392.023l-85.62-11.672a13.79 13.79 0 0 0-2.886-.09Z" fill="#215EAB"/><path d="m190.57 393.667 151.014-11.231 46.738 6.32-149.713 12.005-48.039-7.094Z" fill="#92AFF2"/><path d="m377.04 232.309-.716 100.54c-.032 4.5-3.251 8.274-7.35 8.424l-181.189 5.501-2.275 1.166-1.139.066c-5.181.188-9.379-3.784-9.379-8.882V225.205c0-4.857 3.782-8.696 8.595-8.921.279-.016.553-.016.838-.005l185.329 7.517c4.114.166 7.32 3.978 7.287 8.512l-.001.001Z" fill="#215EAB"/><path d="m378.643 232.361-.72 100.455c-.032 4.497-3.362 8.262-7.454 8.412l-184.26 6.71c-5.17.188-9.431-3.787-9.431-8.879l.007-113.782c0-4.853 3.795-8.691 8.597-8.916a8.85 8.85 0 0 1 .847-.007l185.042 7.501c4.107.166 7.404 3.975 7.371 8.505l.001.001Z" fill="#E9EFF8"/><path d="m378.643 232.361-.059 8.2-201.8-5.991v-9.292c0-4.853 3.795-8.691 8.598-8.916a8.85 8.85 0 0 1 .847-.007l185.042 7.501c4.107.166 7.404 3.975 7.371 8.505h.001Z" fill="#215EAB"/><path d="M191.981 225.802c0 1.593-1.307 2.839-2.92 2.785-1.616-.054-2.927-1.393-2.927-2.99 0-1.598 1.313-2.845 2.93-2.786 1.613.059 2.918 1.398 2.917 2.99v.001Zm10.633.374a2.762 2.762 0 0 1-2.884 2.768c-1.595-.053-2.89-1.383-2.889-2.971.001-1.587 1.299-2.827 2.894-2.768 1.594.058 2.881 1.388 2.879 2.971Zm10.501.369a2.738 2.738 0 0 1-2.85 2.751 2.97 2.97 0 0 1-2.852-2.952 2.738 2.738 0 0 1 2.86-2.751 2.972 2.972 0 0 1 2.843 2.952h-.001Z" fill="#fff"/><path d="m190.372 276.826 45.387-24.605 42.932 25.061-88.319-.456Z" fill="url(#e)"/><path d="M204.13 280.132c0 .649-.531 1.174-1.184 1.173l-7.73-.02a1.192 1.192 0 0 1-1.194-1.187c0-.653.536-1.181 1.196-1.178l7.73.032c.653.003 1.182.53 1.182 1.181v-.001Z" fill="url(#f)"/><path d="M204.086 322.107a1.21 1.21 0 0 1-1.182 1.199l-7.718.171a1.154 1.154 0 0 1-1.193-1.153c0-.651.536-1.191 1.194-1.204l7.719-.16c.652-.014 1.181.5 1.18 1.148v-.001Z" fill="url(#g)"/><path d="m197.046 319.909-2.426.022.026-37.477 2.43.017-.03 37.438Z" fill="url(#h)"/><path d="m200.385 319.852-1.821.027.031-37.408 1.824.013-.034 37.368Z" fill="url(#i)"/><path d="m203.12 319.785-1.824.037.036-37.341 1.825.004-.037 37.3Z" fill="url(#j)"/><path d="M228.307 280.21a1.153 1.153 0 0 1-1.151 1.156l-7.509-.019a1.165 1.165 0 0 1-1.159-1.169c0-.645.522-1.164 1.163-1.161l7.51.03a1.158 1.158 0 0 1 1.147 1.164l-.001-.001Z" fill="url(#k)"/><path d="M228.229 321.587a1.186 1.186 0 0 1-1.15 1.181l-7.499.167a1.13 1.13 0 0 1-1.158-1.137c0-.642.521-1.173 1.161-1.187l7.499-.157a1.122 1.122 0 0 1 1.146 1.132l.001.001Z" fill="url(#l)"/><path d="m224.464 319.354-2.141.047.062-36.878h2.143l-.064 36.831Z" fill="url(#m)"/><path d="m227.523 319.285-1.836.032.066-36.799 1.839.006-.069 36.761Z" fill="url(#n)"/><path d="m221.058 319.285-1.836.032.066-36.799 1.838.006-.068 36.761Z" fill="url(#o)"/><path d="M252.082 280.288a1.13 1.13 0 0 1-1.12 1.14l-7.296-.019a1.14 1.14 0 0 1-1.126-1.152 1.137 1.137 0 0 1 1.131-1.145l7.296.029a1.131 1.131 0 0 1 1.114 1.147h.001Z" fill="url(#p)"/><path d="M251.971 321.075c-.002.629-.502 1.15-1.118 1.164l-7.286.163a1.103 1.103 0 0 1-1.124-1.121 1.17 1.17 0 0 1 1.13-1.169l7.286-.152a1.096 1.096 0 0 1 1.112 1.116v-.001Z" fill="url(#q)"/><path d="m248.355 318.87-1.847.044.092-36.344h1.849l-.094 36.3Z" fill="url(#r)"/><path d="m245.586 318.87-1.849.044.093-36.344h1.85l-.094 36.3Z" fill="url(#s)"/><path d="m251.129 318.816-1.542.03.097-36.274 1.543.006-.098 36.238Z" fill="url(#t)"/><path d="M274.918 280.362c-.002.622-.49 1.126-1.09 1.124l-7.095-.018c-.606-.002-1.094-.51-1.093-1.136.002-.626.494-1.131 1.1-1.129l7.095.028c.6.002 1.084.509 1.082 1.131h.001Z" fill="url(#u)"/><path d="M274.776 320.583c-.002.621-.49 1.134-1.089 1.148l-7.084.158c-.605.013-1.094-.482-1.092-1.106.002-.624.495-1.14 1.099-1.153l7.085-.147c.599-.012 1.083.48 1.081 1.1Z" fill="url(#v)"/><path d="m268.438 318.469-1.55.028.118-35.894 1.55.003-.118 35.863Z" fill="url(#w)"/><path d="m270.993 318.406-1.551.035.121-35.834 1.552.002-.122 35.797Z" fill="url(#x)"/><path d="m273.709 318.348-1.862.039.123-35.781 1.864.002-.125 35.74Z" fill="url(#y)"/><path d="m276.199 330.088-83.708 2.305.004-7.079 83.728-1.959-.024 6.733Z" fill="url(#z)"/><path d="m279.615 329.991-91.06 2.497.002-3.842 91.071-2.294-.013 3.639Z" fill="url(#A)"/><path d="m369.41 270.582-74.281-.728.032-7.519 74.3 1.078-.051 7.169Z" fill="url(#B)"/><path d="m337.143 296.282-42.127.272.026-6.115 42.135-.112-.034 5.955Z" fill="url(#C)"/><path d="m368.518 307.717-73.554 1.057.024-5.831 73.568-.79-.038 5.564Z" fill="url(#D)"/><path d="m368.429 320.691-73.523 1.679.026-6.103 73.537-1.399-.04 5.823Z" fill="url(#E)"/><path d="m391.226 291.561-2.55.509s-13.389 17.087-11.475 23.589c1.912 6.504 11.475 1.531 11.475 1.531l2.55-25.629Z" fill="#144D94"/><path d="M408.029 413.217c.43.35.509 1.223.561 1.794.023.255.035.382.006.473-.208.657-1.483.726-3.481.93-3.158.323-4.098.571-4.345.101-.232-.44.329-1.162.392-1.241.339-.427.756-.583 1.561-.848a49.044 49.044 0 0 1 2.802-.84c1.904-.508 2.222-.599 2.504-.369Z" fill="url(#F)"/><path d="m406.151 410.332-.316 3.598c.089.174 1.159.696 2.009.248l.812-3.537-2.505-.309Z" fill="url(#G)"/><path d="M382.207 410.351c.516.57.633 1.619.184 2.135-.44.508-1.103.128-2.983.183-2.014.06-2.54.536-3.907.159-.553-.153-1.53-.524-1.51-.919.013-.277.509-.421 2.17-.977 2.356-.79 2.346-.833 2.847-.915 1.257-.208 2.518-.417 3.2.334h-.001Z" fill="url(#H)"/><path d="m380.917 407.067-1.011 3.359c.077.181 1.103.782 1.984.401l1.5-3.261-2.474-.5.001.001Z" fill="url(#I)"/><path d="M389.89 333.488a314.72 314.72 0 0 1-9.944 74.556l3.866 1.041c3.269-3.049 7.393-7.847 9.383-14.629 1.235-4.208.824-6.371 1.606-11.548 1.248-8.243 3.774-12.561 6.385-19.207 2.347-5.973 5.121-14.739 6.608-26.455l-17.905-3.758h.001Z" fill="#B53931"/><path d="M402.299 334.814c.789 14.36 1.437 28.987 1.928 43.873.37 11.171.641 22.2.82 33.083l3.949.488a46.025 46.025 0 0 0 4.118-10.629c1.406-5.635 1.08-8.982 1.697-14.823.691-6.55 1.696-7.978 3.476-16.242 3.611-16.771 5.417-25.157 1.389-30.373-1.308-1.694-5.408-5.942-17.377-5.375v-.002Z" fill="#CA534B"/><path d="M420.527 292a67.735 67.735 0 0 0-14.506-2.422c-9.01-.51-13.517-.735-16.161 1.336-8.203 6.424-.43 29.385-3.353 41.45-2.459 10.152-2.55 10.329-2.55 10.329-.581 1.134-1.523 2.712-1.148 4.59.296 1.477 1.414 3.175 2.934 3.698 3.156 1.086 4.966-3.962 10.201-5.483 5.471-1.59 11.594 1.57 19.334 5.565 4.927 2.543 6.609 4.166 8.335 3.361 3.324-1.55 2.411-10.047 2.04-13.517-1.474-13.786-3.134-29.927-5.126-48.907Z" fill="#215EAB"/><path d="M397.92 315.405c.238-.054.662-1.638-.382-2.105-4.719-2.104-8.369 2.062-8.858 3.344l-.489 1.281s2.343.183 3.796-.305c1.453-.488 3.995-1.784 5.933-2.215Z" fill="#FFB27D"/><path d="m385.03 321.371 8.3.418c.318.016.698-.377.619-.645l-3.877-12.547a.492.492 0 0 0-.51-.335l-7.96.174c-.259.015-.401.526-.331.779l3.298 11.798c.054.195.25.348.461.358Z" fill="url(#J)"/><path d="m385.18 321.103 8.346.391c.32.015.541-.213.463-.482l-3.728-12.764c-.061-.21-.275-.348-.513-.334l-7.971.471a.406.406 0 0 0-.366.52l3.308 11.841a.517.517 0 0 0 .462.357h-.001Z" fill="url(#K)"/><path d="M389.393 313.493c-.246 1.161-1.291.911-2.143 2.316-1.082 1.784-.045 3.358-1.037 4.012-.302.199-.813.319-1.733.078l.237.847a.517.517 0 0 0 .463.357l8.346.391c.32.015.54-.213.462-.482l-3.728-12.764c-.061-.21-.275-.348-.512-.334l-1.198.071c-.14.438-.24.945-.23 1.505.038 1.925 1.363 2.642 1.073 4.002v.001Z" fill="url(#L)" style="mix-blend-mode:multiply" opacity=".3"/><path d="M381.377 312.556c-.047-.201.052-.408.202-.419.607-.044 2.016-.061 2.793.612 1.011.875 2.317 2.473 1.217 3.279l-1.028.752a.166.166 0 0 1-.151.029c-.365-.113-1.901-.596-2.069-.715-.152-.109-.738-2.568-.965-3.539l.001.001Zm20.05-29.836c-.006.686 1.698 4.117 3.996 5.781 2.318 1.679 5.235 1.588 6.104 1.803 2.015.5 2.274.486 2.319.687.216.975-5.277 4.299-10.954 3.499-3.474-.491-6.635-2.473-6.441-3.513.196-1.048 3.665-.486 4.7-2.381.719-1.318-.087-3.19-1.041-4.739.924-1.73.395.595 1.318-1.135l-.001-.002Z" fill="#FFB27D"/><path d="M395.329 284.306c-1.207-.634-2.067-2.33-1.728-3.821.292-1.282 1.385-1.963 2.039-2.372 1.895-1.182 4.824-1.544 6.579-.115 1.039.847.988 3.654 1.005 4.146.019.557-.269.887-.438 1.396-.236.704-.599 1.82-1.177 3.672a9.08 9.08 0 0 0-1.1-1.145c-.179-.156-.887-.76-1.71-1.148-1.65-.78-2.325-.014-3.469-.614l-.001.001Z" fill="#233862"/><path d="M402.79 285.326s-.293 2.788-2.999 3.861c-2.423.962-5.265-4.147-4.294-5.976.324-.61 1.253-1.24 2.178-1.399.546-.093.803.029 1.691-.14.82-.157.988-.336 1.296-.254.385.101.857.574 1.127 2.333.234-.666.689-1.096 1.156-1.097.074 0 .288.033.457.157.614.446.429 1.476-.612 2.515Z" fill="#FFB27D"/><path d="M400.62 281.052c-.074.138.473.397.782.983.601 1.138.086 3.09-1.057 3.777-.677.406-1.074.071-2.305.503a5.936 5.936 0 0 0-1.664.909c.236 1.449 1.184 2.555 2.315 2.74 1.217.2 2.207-.739 2.62-1.133.277-.263 1.164-1.104 1.256-2.326.097-1.274-.751-1.612-.417-2.602.168-.498.533-.853.642-1.716.029-.234.031-.43.027-.558-.911-.356-2.094-.776-2.199-.576v-.001Z" fill="#233862"/><path d="M413.539 295.895c1.376-2.087 4.114-4.134 6.631-3.952 7.353.531 16.415 20.336 10.201 28.18-4.743 5.987-19.396 6.278-32.77-4.08V312.6a336.566 336.566 0 0 0 16.066 2.422c2.514.316 5.017.602 5.483-.382.705-1.489-4.329-3.62-6.249-9.181-.265-.766-1.947-5.642.637-9.563l.001-.001Z" fill="#144D94"/><path d="M159.777 406.563v7.721c0 2.494 15.584 4.516 34.806 4.516 19.222 0 34.806-2.022 34.806-4.516v-7.721h-69.612Z" fill="#FFA412"/><path d="M229.389 406.563c0 2.495-15.584 4.516-34.806 4.516-19.222 0-34.806-2.021-34.806-4.516s15.584-4.517 34.806-4.517c19.222 0 34.806 2.022 34.806 4.517Z" fill="url(#M)"/><path d="M194.583 411.392c-17.024 0-34.826-1.627-34.826-4.763 0-.172.062-.474.234-.474.173 0 .098.237.098.409 0 1.989 14.167 4.206 34.495 4.206 20.328 0 34.495-2.216 34.495-4.206 0-.172.029-.333.201-.333.173 0 .131.23.131.402 0 3.137-17.802 4.761-34.827 4.761l-.001-.002Z" fill="#FFC76C"/><path d="M191.294 406.815c.341-.237.704-.47 1.094-.699.385-.23.887-.438 1.495-.624.611-.185 1.377-.336 2.294-.453.918-.117 2.066-.179 3.436-.186a45.377 45.377 0 0 1 3.789.129c1.178.091 2.217.229 3.115.412.894.183 1.625.41 2.187.678.559.27.892.579.999.927l3.92.04c.284.002.536.025.751.069.219.045.325.101.325.17l.002.323-5.038-.048c-.177.395-.627.756-1.351 1.084-.72.328-1.64.612-2.762.852l-1.835-.255a2.137 2.137 0 0 1-.406-.096c-.106-.038-.157-.08-.157-.126 0-.063.141-.133.425-.212.284-.079.604-.179.961-.296a9.74 9.74 0 0 0 1.052-.416c.342-.159.571-.35.689-.573l-11.891-.117c-.313.23-.666.456-1.051.677-.389.222-.902.422-1.542.599-.642.178-1.438.322-2.394.433-.958.11-2.157.169-3.608.177a36.187 36.187 0 0 1-3.19-.124 22.024 22.024 0 0 1-2.769-.394c-.806-.176-1.467-.393-1.986-.651-.516-.258-.805-.554-.865-.891l-3.226-.033a4.264 4.264 0 0 1-.763-.067c-.223-.043-.336-.1-.336-.172l-.002-.323 4.411.043c.196-.341.595-.637 1.206-.889s1.358-.476 2.239-.673l1.477.203c.448.063.671.136.672.222 0 .046-.09.102-.276.169-.189.068-.407.149-.662.243a6.136 6.136 0 0 0-.735.331c-.239.127-.418.27-.537.431l10.842.108.001-.002Zm-10.884.44c.089.211.286.393.586.546.3.154.673.28 1.121.379.449.099.953.171 1.511.217.561.047 1.148.069 1.761.066a17.885 17.885 0 0 0 1.869-.093 10.96 10.96 0 0 0 1.399-.236c.4-.101.753-.216 1.051-.348.298-.132.564-.275.804-.429l-10.102-.102Zm25.889-.289c-.088-.215-.305-.403-.64-.564-.336-.162-.766-.297-1.288-.407a14.355 14.355 0 0 0-1.827-.245 28.512 28.512 0 0 0-2.297-.074 17.95 17.95 0 0 0-1.925.099 10.18 10.18 0 0 0-1.399.254c-.393.107-.731.23-1.004.372a7.278 7.278 0 0 0-.771.453l11.152.112h-.001Z" fill="#FCB048"/><path d="M194.588 402.535c-15.519 0-31.679 1.366-34.263 4.009.102.093.195.193.283.297 2.179-1.835 15.522-3.684 33.981-3.684 18.46 0 32.49 1.945 34.132 3.825a3.45 3.45 0 0 1 .26-.295c-2.135-2.737-18.597-4.153-34.392-4.153l-.001.001Z" fill="url(#N)"/><path d="M150.101 398.454v7.721c0 2.494 15.584 4.516 34.806 4.516 19.222 0 34.806-2.022 34.806-4.516v-7.721h-69.612Z" fill="#FFA412"/><path d="M219.713 398.454c0 2.495-15.583 4.517-34.805 4.517s-34.806-2.022-34.806-4.517c0-2.495 15.584-4.516 34.806-4.516 19.222 0 34.805 2.021 34.805 4.516Z" fill="#FFA412"/><path d="M184.908 403.281c-17.025 0-34.826-1.625-34.826-4.762 0-.173.061-.475.234-.475.172 0 .098.237.098.41 0 1.989 14.167 4.205 34.495 4.205 20.328 0 34.494-2.215 34.494-4.205 0-.173.03-.333.202-.333.173 0 .131.229.131.402 0 3.137-17.803 4.759-34.827 4.759l-.001-.001Z" fill="#FFC76C"/><path d="M181.619 398.706a17.97 17.97 0 0 1 1.093-.699c.386-.23.887-.438 1.495-.623.612-.186 1.377-.337 2.295-.454.919-.117 2.066-.179 3.437-.186a45.77 45.77 0 0 1 3.788.129c1.178.091 2.218.23 3.116.412.894.183 1.625.41 2.186.679.559.27.893.579 1 .926l3.919.04c.284.002.536.025.752.069.219.045.325.102.325.17l.002.323-5.038-.048c-.177.395-.627.756-1.351 1.084-.72.329-1.641.613-2.762.852l-1.836-.255a2.124 2.124 0 0 1-.405-.096c-.106-.038-.158-.08-.158-.126 0-.063.142-.133.426-.212.284-.08.604-.179.961-.296a9.898 9.898 0 0 0 1.052-.415c.342-.16.571-.351.689-.573l-11.892-.119c-.312.23-.665.456-1.05.677-.39.222-.903.422-1.543.6-.641.177-1.439.321-2.393.432-.958.11-2.157.17-3.608.177a35.83 35.83 0 0 1-3.191-.124 22.024 22.024 0 0 1-2.769-.394c-.807-.176-1.467-.393-1.986-.65-.515-.259-.804-.555-.865-.891l-3.226-.034a4.244 4.244 0 0 1-.762-.067c-.223-.043-.337-.1-.337-.171l-.002-.324 4.412.043c.194-.341.595-.637 1.206-.888.611-.253 1.357-.477 2.238-.674l1.478.203c.448.063.671.136.672.222 0 .046-.09.102-.276.17-.19.068-.407.149-.662.243a6.136 6.136 0 0 0-.735.331c-.24.127-.417.27-.538.431l10.843.108v-.002Zm-10.884.44c.088.211.286.393.586.547.3.153.672.28 1.121.378.449.099.952.171 1.51.218.562.046 1.149.068 1.761.065a18.169 18.169 0 0 0 1.87-.093c.527-.058.994-.136 1.398-.236a6.613 6.613 0 0 0 1.052-.348c.298-.132.564-.274.804-.429l-10.102-.102Zm25.889-.289c-.088-.215-.305-.403-.641-.564-.336-.162-.767-.297-1.288-.407a14.348 14.348 0 0 0-1.828-.245 28.512 28.512 0 0 0-2.297-.074c-.743.004-1.388.037-1.924.1s-1.002.147-1.399.253c-.393.107-.732.23-1.005.372a7.363 7.363 0 0 0-.77.453l11.152.112Z" fill="#FCB048"/><path d="M184.912 394.426c-15.519 0-31.678 1.366-34.263 4.009.102.093.195.193.283.297 2.179-1.835 15.522-3.684 33.981-3.684 18.46 0 32.49 1.945 34.133 3.826.08-.104.166-.202.26-.295-2.135-2.738-18.597-4.154-34.393-4.154l-.001.001Z" fill="url(#O)"/><path d="M158.451 390.368v7.721c0 2.494 15.584 4.516 34.806 4.516 19.222 0 34.806-2.022 34.806-4.516v-7.721h-69.612Z" fill="#FFA412"/><path d="M228.063 390.368c0 2.495-15.584 4.517-34.806 4.517-19.222 0-34.806-2.022-34.806-4.517 0-2.494 15.584-4.516 34.806-4.516 19.222 0 34.806 2.022 34.806 4.516Z" fill="#FFC76C"/><path d="M193.257 395.197c-17.025 0-34.826-1.626-34.826-4.762 0-.173.061-.475.234-.475.173 0 .098.237.098.409 0 1.989 14.167 4.206 34.495 4.206 20.328 0 34.495-2.216 34.495-4.206 0-.172.029-.333.201-.333.173 0 .131.23.131.403 0 3.135-17.802 4.759-34.827 4.759l-.001-.001Z" fill="#FFC76C"/><path d="M189.968 390.62c.341-.237.704-.469 1.093-.699.386-.23.887-.438 1.496-.623.611-.186 1.376-.337 2.294-.454.919-.117 2.067-.179 3.437-.186a45.77 45.77 0 0 1 3.788.129c1.178.091 2.218.23 3.116.412.894.183 1.625.41 2.188.679.558.27.892.579.999.926l3.919.04c.284.002.536.025.752.069.219.045.325.102.325.17l.002.323-5.038-.048c-.177.395-.627.756-1.351 1.084-.72.329-1.64.613-2.762.852l-1.836-.254a2.195 2.195 0 0 1-.405-.097c-.106-.038-.158-.08-.158-.126 0-.062.142-.133.426-.212.284-.08.604-.179.961-.296a9.898 9.898 0 0 0 1.052-.415c.342-.16.571-.351.689-.573l-11.892-.119c-.312.23-.665.456-1.05.678-.39.221-.902.421-1.543.599-.641.177-1.439.321-2.393.432-.958.11-2.157.17-3.608.177a35.83 35.83 0 0 1-3.191-.124 21.841 21.841 0 0 1-2.769-.394c-.807-.176-1.467-.392-1.986-.65-.515-.259-.804-.555-.865-.891l-3.226-.034a4.244 4.244 0 0 1-.762-.067c-.223-.043-.336-.1-.336-.171l-.002-.323 4.411.042c.194-.34.595-.636 1.206-.888.611-.253 1.358-.477 2.239-.674l1.477.203c.448.063.671.136.672.222 0 .046-.09.102-.276.17l-.662.243a6.298 6.298 0 0 0-.735.331c-.24.127-.417.27-.538.431l10.843.108-.001-.002Zm-10.884.44c.089.211.286.393.586.547.3.153.673.28 1.121.378.449.099.952.171 1.51.218.562.046 1.149.068 1.761.065a18.484 18.484 0 0 0 1.87-.092c.528-.059.994-.138 1.399-.237a6.74 6.74 0 0 0 1.051-.347 5.93 5.93 0 0 0 .804-.43l-10.102-.102Zm25.889-.289c-.088-.215-.304-.403-.64-.564-.336-.162-.767-.297-1.288-.407a14.183 14.183 0 0 0-1.828-.244 28.03 28.03 0 0 0-2.297-.075c-.743.004-1.388.037-1.924.1s-1.002.147-1.399.253c-.393.107-.732.23-1.004.372a7.278 7.278 0 0 0-.771.453l11.152.112h-.001Z" fill="#FCB048"/><path d="M193.262 386.34c-15.52 0-31.678 1.366-34.263 4.009.101.093.195.193.283.297 2.178-1.835 15.521-3.684 33.981-3.684 18.459 0 32.49 1.945 34.132 3.826a3.17 3.17 0 0 1 .26-.295c-2.134-2.738-18.597-4.154-34.392-4.154l-.001.001Z" fill="url(#P)"/><path d="M163.517 382.259v7.72c0 2.494 15.583 4.516 34.806 4.516s34.806-2.022 34.806-4.516v-7.72h-69.612Z" fill="#FFA412"/><path d="M198.323 386.776c19.222 0 34.806-2.022 34.806-4.517 0-2.494-15.584-4.516-34.806-4.516-19.223 0-34.806 2.022-34.806 4.516 0 2.495 15.583 4.517 34.806 4.517Z" fill="#FFC76C"/><path d="M198.323 387.088c-17.025 0-34.826-1.626-34.826-4.762 0-.173.061-.475.234-.475.172 0 .098.237.098.409 0 1.989 14.167 4.205 34.494 4.205 20.327 0 34.495-2.216 34.495-4.205 0-.172.029-.334.201-.334.173 0 .131.23.131.403 0 3.137-17.803 4.76-34.827 4.76v-.001Z" fill="#FFA412"/><path d="M195.034 382.511c.341-.236.705-.469 1.093-.699.386-.23.887-.438 1.495-.623.612-.186 1.377-.336 2.295-.454.919-.117 2.066-.178 3.437-.185a45.788 45.788 0 0 1 3.788.128c1.178.091 2.218.23 3.116.412.894.183 1.625.41 2.186.679.559.27.893.579 1 .926l3.919.04c.284.002.536.025.752.069.219.045.325.102.325.17l.002.323-5.038-.048c-.177.395-.627.756-1.351 1.085-.72.328-1.641.612-2.762.852l-1.836-.255a2.117 2.117 0 0 1-.405-.097c-.106-.038-.158-.08-.158-.126 0-.062.142-.133.426-.212.284-.08.604-.178.961-.296a9.814 9.814 0 0 0 1.052-.415c.342-.16.571-.351.689-.573l-11.892-.119c-.312.23-.665.456-1.05.678-.39.221-.903.421-1.543.599-.641.177-1.438.321-2.393.432-.958.111-2.157.17-3.608.177a35.792 35.792 0 0 1-3.19-.124 21.841 21.841 0 0 1-2.769-.394c-.807-.176-1.467-.392-1.986-.65-.515-.259-.804-.555-.865-.891l-3.226-.033a4.149 4.149 0 0 1-.762-.068c-.223-.043-.337-.1-.337-.171l-.002-.323 4.412.042c.195-.34.595-.636 1.206-.888.611-.253 1.357-.477 2.238-.674l1.478.203c.448.063.671.137.672.222 0 .046-.09.102-.276.169l-.662.243a6.298 6.298 0 0 0-.735.331c-.24.127-.417.27-.537.431l10.843.108-.002-.001Zm-10.884.44c.088.212.286.393.586.547.3.153.672.28 1.121.378.449.099.952.172 1.51.218.562.046 1.149.068 1.761.065a18.195 18.195 0 0 0 1.87-.092 11.14 11.14 0 0 0 1.398-.237 6.72 6.72 0 0 0 1.052-.347 5.93 5.93 0 0 0 .804-.43l-10.102-.102Zm25.889-.289c-.088-.215-.305-.403-.641-.564-.336-.162-.767-.297-1.288-.407a14.183 14.183 0 0 0-1.828-.244 28.015 28.015 0 0 0-2.297-.075c-.743.004-1.388.038-1.924.1a9.86 9.86 0 0 0-1.399.254 5.068 5.068 0 0 0-1.005.371 7.363 7.363 0 0 0-.77.453l11.152.112Z" fill="#FCB048"/><path d="M198.328 378.232c-15.519 0-31.679 1.366-34.263 4.009.102.093.196.192.283.297 2.179-1.836 15.522-3.684 33.981-3.684 18.46 0 32.49 1.945 34.133 3.825.08-.103.166-.201.26-.295-2.136-2.737-18.597-4.153-34.393-4.153l-.001.001Z" fill="url(#Q)"/><path d="M159.777 373.511v7.721c0 2.494 15.584 4.516 34.806 4.516 19.222 0 34.806-2.022 34.806-4.516v-7.721h-69.612Z" fill="#FFA412"/><path d="M229.389 373.511c0 2.495-15.584 4.517-34.806 4.517-19.222 0-34.806-2.022-34.806-4.517 0-2.494 15.584-4.516 34.806-4.516 19.222 0 34.806 2.022 34.806 4.516Z" fill="url(#R)"/><path d="M194.583 378.339c-17.024 0-34.826-1.626-34.826-4.763 0-.172.062-.474.234-.474.173 0 .098.236.098.409 0 1.989 14.167 4.205 34.495 4.205 20.328 0 34.495-2.215 34.495-4.205 0-.173.029-.333.201-.333.173 0 .131.23.131.402 0 3.136-17.802 4.76-34.827 4.76l-.001-.001Z" fill="#FFC76C"/><path d="M191.294 373.762c.341-.237.704-.469 1.094-.699.385-.23.887-.438 1.495-.623.611-.186 1.377-.336 2.294-.454.918-.117 2.066-.178 3.436-.185a45.828 45.828 0 0 1 3.789.128c1.178.091 2.217.23 3.115.412.894.183 1.625.41 2.187.679.559.27.892.579.999.926l3.92.04c.284.002.536.025.751.069.219.045.325.102.325.17l.002.323-5.038-.048c-.177.395-.627.756-1.351 1.085-.72.328-1.64.612-2.762.851l-1.835-.254a2.13 2.13 0 0 1-.406-.097c-.106-.038-.157-.08-.157-.126 0-.062.141-.133.425-.212.284-.08.604-.179.961-.296a9.732 9.732 0 0 0 1.052-.415c.342-.16.571-.351.689-.573l-11.891-.119c-.313.23-.666.456-1.051.678-.389.221-.902.421-1.542.599-.642.177-1.438.321-2.394.432-.958.111-2.157.17-3.608.177a35.807 35.807 0 0 1-3.19-.124 21.841 21.841 0 0 1-2.769-.394c-.806-.176-1.467-.392-1.986-.65-.516-.259-.805-.555-.865-.891l-3.226-.033a4.259 4.259 0 0 1-.763-.068c-.223-.043-.336-.1-.336-.171l-.002-.323 4.411.042c.196-.34.595-.636 1.206-.888.611-.253 1.358-.477 2.239-.674l1.477.203c.448.063.671.137.672.222 0 .046-.09.102-.276.169l-.662.243a6.298 6.298 0 0 0-.735.331c-.239.127-.418.27-.537.431l10.842.108.001-.001Zm-10.884.44c.089.212.286.393.586.547.3.153.673.28 1.121.378.449.099.953.172 1.511.218.561.046 1.148.068 1.761.065a18.19 18.19 0 0 0 1.869-.092c.529-.059.994-.137 1.399-.237a6.74 6.74 0 0 0 1.051-.347 5.93 5.93 0 0 0 .804-.43l-10.102-.102Zm25.889-.289c-.088-.215-.305-.403-.64-.564-.336-.162-.766-.297-1.288-.407a14.19 14.19 0 0 0-1.827-.244 28.03 28.03 0 0 0-2.297-.075c-.744.004-1.389.037-1.925.1a9.886 9.886 0 0 0-1.399.254 5.057 5.057 0 0 0-1.004.371 7.278 7.278 0 0 0-.771.453l11.152.112h-.001Z" fill="#FCB048"/><path d="M194.588 369.482c-15.519 0-31.679 1.366-34.263 4.009.102.094.195.193.283.297 2.179-1.835 15.522-3.683 33.981-3.683 18.46 0 32.49 1.944 34.132 3.825a3.17 3.17 0 0 1 .26-.295c-2.135-2.738-18.597-4.154-34.392-4.154l-.001.001Z" fill="url(#S)"/><path d="M150.101 365.401v7.721c0 2.494 15.584 4.516 34.806 4.516 19.222 0 34.806-2.022 34.806-4.516v-7.721h-69.612Z" fill="#FFA412"/><path d="M184.908 369.918c19.222 0 34.805-2.022 34.805-4.517 0-2.494-15.583-4.516-34.805-4.516-19.223 0-34.806 2.022-34.806 4.516 0 2.495 15.583 4.517 34.806 4.517Z" fill="#FFA412"/><path d="M184.908 370.23c-17.025 0-34.826-1.625-34.826-4.762 0-.173.061-.475.234-.475.172 0 .098.237.098.41 0 1.988 14.167 4.205 34.495 4.205 20.328 0 34.494-2.216 34.494-4.205 0-.173.03-.334.202-.334.173 0 .131.23.131.403 0 3.137-17.803 4.76-34.827 4.76l-.001-.002Z" fill="#FFC76C"/><path d="M181.619 365.653c.341-.236.705-.469 1.093-.699.386-.23.887-.438 1.495-.623.612-.186 1.377-.336 2.295-.454.919-.117 2.066-.178 3.437-.185a45.788 45.788 0 0 1 3.788.128c1.178.091 2.218.23 3.116.413.894.182 1.625.409 2.186.678.559.27.893.579 1 .926l3.919.04c.284.002.536.025.752.069.219.046.325.102.325.17l.002.323-5.038-.048c-.177.395-.627.757-1.351 1.085-.72.328-1.641.612-2.762.852l-1.836-.255a2.124 2.124 0 0 1-.405-.096c-.106-.038-.158-.08-.158-.126 0-.062.142-.133.426-.212.284-.08.604-.178.961-.296a9.898 9.898 0 0 0 1.052-.415c.342-.16.571-.35.689-.573l-11.892-.119c-.312.23-.665.456-1.05.678-.39.221-.903.421-1.543.599-.641.177-1.439.321-2.393.432-.958.111-2.157.17-3.608.177a35.83 35.83 0 0 1-3.191-.124 21.841 21.841 0 0 1-2.769-.394c-.807-.175-1.467-.392-1.986-.65-.515-.259-.804-.555-.865-.891l-3.226-.033a4.149 4.149 0 0 1-.762-.068c-.223-.043-.337-.1-.337-.171l-.002-.323 4.412.042c.194-.34.595-.636 1.206-.888.611-.253 1.357-.477 2.238-.673l1.478.202c.448.063.671.137.672.222 0 .046-.09.102-.276.17-.19.068-.407.148-.662.242a6.142 6.142 0 0 0-.735.332c-.24.126-.417.269-.538.43l10.843.108v-.002Zm-10.884.44c.088.212.286.393.586.547.3.153.672.28 1.121.378.449.098.952.172 1.51.218.562.046 1.149.068 1.761.065a18.195 18.195 0 0 0 1.87-.092c.527-.058.994-.137 1.398-.237.401-.1.754-.216 1.052-.347a5.82 5.82 0 0 0 .804-.43l-10.102-.102Zm25.889-.289c-.088-.215-.305-.402-.641-.564-.336-.162-.767-.297-1.288-.406a14.156 14.156 0 0 0-1.828-.246 28.484 28.484 0 0 0-2.297-.075c-.743.004-1.388.038-1.924.1a9.86 9.86 0 0 0-1.399.254 5.068 5.068 0 0 0-1.005.371 7.195 7.195 0 0 0-.77.454l11.152.111v.001Z" fill="#FCB048"/><path d="M184.912 361.374c-15.519 0-31.678 1.365-34.263 4.008.102.094.195.193.283.297 2.179-1.835 15.522-3.683 33.981-3.683 18.46 0 32.49 1.944 34.133 3.825.08-.103.166-.202.26-.295-2.135-2.738-18.597-4.153-34.393-4.153l-.001.001Z" fill="#FFC76C"/><path d="M158.451 357.316v7.721c0 2.495 15.584 4.516 34.806 4.516 19.222 0 34.806-2.021 34.806-4.516v-7.721h-69.612Z" fill="#FFA412"/><path d="M193.257 361.833c19.223 0 34.806-2.022 34.806-4.517 0-2.494-15.583-4.516-34.806-4.516s-34.806 2.022-34.806 4.516c0 2.495 15.583 4.517 34.806 4.517Z" fill="#FFC76C"/><path d="M193.257 362.145c-17.025 0-34.826-1.625-34.826-4.762 0-.173.061-.475.234-.475.173 0 .098.237.098.41 0 1.988 14.167 4.205 34.495 4.205 20.328 0 34.495-2.216 34.495-4.205 0-.173.029-.335.201-.335.173 0 .131.23.131.403 0 3.137-17.802 4.76-34.827 4.76l-.001-.001Z" fill="#FFC76C"/><path d="M189.968 357.568c.341-.236.704-.469 1.093-.699.386-.23.887-.437 1.496-.623.611-.186 1.376-.336 2.294-.454.919-.117 2.067-.178 3.437-.185a45.788 45.788 0 0 1 3.788.128c1.178.091 2.218.23 3.116.413.894.182 1.625.409 2.188.678.558.27.892.579.999.926l3.919.04c.284.002.536.025.752.069.219.046.325.102.325.17l.002.323-5.038-.048c-.177.395-.627.757-1.351 1.085-.72.328-1.64.612-2.762.852l-1.836-.255a2.044 2.044 0 0 1-.405-.097c-.106-.038-.158-.08-.158-.126 0-.062.142-.132.426-.212.284-.08.604-.178.961-.296a9.898 9.898 0 0 0 1.052-.415c.342-.16.571-.35.689-.573l-11.892-.118c-.312.23-.665.456-1.05.678-.39.222-.902.421-1.543.599-.641.177-1.439.321-2.393.432-.958.111-2.157.17-3.608.177a36.215 36.215 0 0 1-3.191-.123 22.011 22.011 0 0 1-2.769-.395c-.807-.175-1.467-.392-1.986-.65-.515-.259-.804-.555-.865-.891l-3.226-.033a4.244 4.244 0 0 1-.762-.067c-.223-.044-.336-.101-.336-.172l-.002-.323 4.411.042c.194-.34.595-.636 1.206-.888.611-.253 1.358-.477 2.239-.673l1.477.202c.448.064.671.137.672.222 0 .045-.09.102-.276.17-.19.068-.407.148-.662.242a6.142 6.142 0 0 0-.735.332c-.24.126-.417.27-.538.43l10.843.108-.001-.002Zm-10.884.44c.089.212.286.393.586.547.3.153.673.28 1.121.378.449.098.952.172 1.51.218.562.046 1.149.068 1.761.065a18.195 18.195 0 0 0 1.87-.092c.528-.058.994-.138 1.399-.237.4-.1.753-.216 1.051-.347a5.82 5.82 0 0 0 .804-.43l-10.102-.102Zm25.889-.289c-.088-.215-.304-.402-.64-.564-.336-.162-.767-.297-1.288-.406a14.156 14.156 0 0 0-1.828-.246 28.512 28.512 0 0 0-2.297-.074c-.743.004-1.388.037-1.924.099a9.86 9.86 0 0 0-1.399.254c-.393.106-.732.23-1.004.371a7.114 7.114 0 0 0-.771.454l11.152.111-.001.001Z" fill="#FCB048"/><path d="M193.262 353.289c-15.52 0-31.678 1.366-34.263 4.009.101.093.195.193.283.297 2.178-1.835 15.521-3.684 33.981-3.684 18.459 0 32.49 1.945 34.132 3.825a3.45 3.45 0 0 1 .26-.295c-2.134-2.737-18.597-4.153-34.392-4.153l-.001.001Z" fill="url(#T)"/><path d="M154.108 349.208v7.72c0 2.495 15.584 4.517 34.806 4.517 19.222 0 34.805-2.022 34.805-4.517v-7.72h-69.611Z" fill="#FFA412"/><path d="M188.914 353.724c19.222 0 34.805-2.022 34.805-4.517 0-2.494-15.583-4.516-34.805-4.516-19.223 0-34.806 2.022-34.806 4.516 0 2.495 15.583 4.517 34.806 4.517Z" fill="#FFA412"/><path d="M188.914 354.035c-17.025 0-34.826-1.625-34.826-4.762 0-.173.061-.475.234-.475.172 0 .098.237.098.41 0 1.989 14.167 4.205 34.495 4.205 20.328 0 34.494-2.215 34.494-4.205 0-.173.029-.333.202-.333.173 0 .13.229.13.402 0 3.136-17.802 4.759-34.826 4.759l-.001-.001Z" fill="#FFC76C"/><path d="M188.919 345.18c-15.52 0-31.678 1.366-34.263 4.009.101.093.195.193.283.297 2.178-1.835 15.521-3.684 33.981-3.684 18.459 0 32.489 1.945 34.132 3.825.08-.103.167-.201.26-.295-2.134-2.737-18.597-4.153-34.392-4.153l-.001.001Z" fill="#FFC76C"/><path d="M240.023 396.307c0 16.464-12.874 29.416-29.329 28.911-17.124-.526-31.527-15.316-31.527-33.013 0-17.698 14.403-30.546 31.527-28.763 16.455 1.713 29.329 16.401 29.329 32.866v-.001Z" fill="#FFA412"/><path d="M244.47 394.887c0 16.464-12.875 29.416-29.329 28.911-17.125-.526-31.528-15.315-31.528-33.014 0-17.699 14.403-30.546 31.528-28.763 16.454 1.713 29.329 16.401 29.329 32.866Z" fill="#FFC76C"/><path d="M243.178 394.8c0 15.741-12.318 28.101-28.037 27.591-16.329-.528-30.039-14.643-30.039-31.506s13.71-29.129 30.039-27.456c15.719 1.61 28.037 15.631 28.037 31.371Z" fill="#FFA412"/><path d="M204.486 300.203c1.372-.889.122-3.477.048-9.035-.09-6.811 1.719-8.08.266-10.753-1.777-3.267-6.249-4.62-9.212-4.683-.654-.014-.806-.371-6.282 1.047-9.864 2.555-12.333-.184-16.751 2.552-4.267 2.643-2.399 5.537-6.543 8.636-6.717 5.025-13.781-.407-18.583 3.795-4.542 3.975-4.646 14.103.13 19.63 5.415 6.265 15.18 4.383 21.724 3.141 1.377-.261 8.332-1.722 15.573-7.067a41.453 41.453 0 0 0 8.506-8.441c.41-.462 1.052-1.022 1.898-1.111 1.015-.109 1.831.512 2.224.784 2.064 1.43 5.654 2.379 7.001 1.505h.001Z" fill="#233862"/><path d="M198.973 296.471c1.765-1.608 8.06 1.49 12.232 5.601 4.9 4.829 4.524 8.746 8.802 14.747 2.126 2.983 5.772 6.999 12.231 10.516l-1.372 3.429c-3.123.188-9.255.078-14.975-3.657-3.974-2.595-6.018-6.033-9.946-12.803-3.94-6.794-9.177-15.824-6.973-17.832l.001-.001Z" fill="#215EAB"/><path d="m238.733 388.335-4.914-2.953h-2.218s-.755 2.813-.669 2.953c.989 1.62 5.589 2.851 8.46 2.954.477.017 1.142.019 1.314-.326.291-.585-1.01-1.813-1.972-2.628h-.001Z" fill="#072E52"/><path d="M233.732 382.16c-.316 1.828.083 2.782.515 3.316.303.375.572.482 2.372 2.038.595.514.898.789.829.934-.078.164-.604.075-1.738-.197-2.472-.594-3.713-.903-4.016-1.498-.275-.539-.032-.782-.048-2.249a7.634 7.634 0 0 0-.361-2.229c.815-.039 1.631-.076 2.447-.114v-.001Z" fill="url(#U)"/><path d="M237.284 367.673s2.221 2.649 1.86 5.553-4.25-1.342-4.792-2.777c-.542-1.435-1.175-3.479-1.175-3.479s2.727-1.696 4.108.703h-.001Z" fill="#072E52"/><path d="M236.437 363.527s-.602 3.086.547 4.715c.572.812 1.344 1.499 1.117 2.16-.152.442-.729.76-1.219.71-.936-.096-1.456-1.532-1.822-2.545-.541-1.496-.842-4.697-.842-4.697l2.219-.344v.001Z" fill="url(#V)"/><path d="m234.668 366.129 2.048-.747c1.066-2.433 2.365-6.429 1.931-11.286-1.117-12.491-12.67-19.111-13.953-19.82-3.148 1.58-6.336 3.807-6.452 6.616-.144 3.526 4.658 5.39 9.174 10.545 2.71 3.095 5.606 7.706 7.252 14.691v.001Z" fill="#CA534B"/><path d="M233.931 383.589c2.256-8.813 1.68-16.005 1.029-20.147-.984-6.262-2.984-19-11.489-23.749-1.857-1.037-4.511-1.966-7.747-4.85-2.703-2.408-4.42-4.941-5.456-6.725-11.373-3.336-21.863-1.984-26.492 4.115-.535.705-1.874 2.234-2.134 4.488-.585 5.086 4.414 11.209 10.021 12.488 7.126 1.624 11.262-5.693 17.575-3.258 1.766.681 3.264 2.369 6.259 5.743 3.81 4.294 5.951 8.257 6.762 9.842 2.412 4.721 4.243 8.206 4.51 12.723.062 1.053.099 3.178 1.331 5.471.946 1.76 2.229 2.933 3.182 3.658l2.647.2.002.001Z" fill="#CA534B"/><path style="mix-blend-mode:multiply" opacity=".2" d="M181.645 336.722c.259-2.254 1.598-3.783 2.133-4.488 4.629-6.099 15.119-7.451 26.492-4.115 1.037 1.784 2.754 4.317 5.456 6.725 3.236 2.884 5.89 3.812 7.748 4.85 5.193 2.9 7.958 8.778 9.551 14.342-2.363-3.662-4.386-4.637-5.95-4.654-2.24-.025-3.241 1.891-5.915 1.629-2.859-.279-3.512-2.643-5.83-2.915-.694-.081-1.548.026-2.572.572-1.368-1.432-2.387-2.28-3.515-2.715-6.314-2.435-10.449 4.882-17.576 3.258-5.607-1.279-10.605-7.402-10.02-12.488l-.002-.001Z" fill="#B9403A"/><path d="M228.039 343.634a37.417 37.417 0 0 0-5.66.129c-11.348 1.122-14.476 6.734-23.855 8.104-2.219.324-12.097 1.767-16.376-3.944-3.071-4.1-2.607-11.164.753-13.943 1.422-1.176 2.83-1.143 11.936-1.06 3.43.031 6.858.042 10.288.086 14.516.185 17.293-.821 19.934 1.58 1.232 1.12 3.033 3.526 2.98 9.048Z" fill="#CA534B"/><path d="M213.959 328.902s-7.202 1.408-14.794 2.758c-8.592 1.527-17.689 2.982-17.448 2.241 2.46-7.546-.011-12.506-1.781-18.084-1.06-3.319-1.868-6.86-1.239-11.296 1.76-12.402 18.698-7.464 18.698-7.464 5.492.223 6.091.801 6.595 1.358 3.516 3.879 4.489 8.397 4.489 8.397.873 4.048-.114 5.603 0 9.029.104 3.121 1.117 7.614 5.481 13.059l-.001.002Z" fill="#215EAB"/><path style="mix-blend-mode:soft-light" d="M186.514 331.165s15.89-4.252 25.363-4.783l-25.363 4.783Z" fill="url(#W)"/><path d="M193.716 289.627c.155.724.945 4.615-.647 5.616-.345.217-1.008.341-2.334.59-.868.163-1.596.263-2.11.324.074.653.294 1.714 1.047 2.681 2.11 2.707 6.341 2.007 6.944 1.896 2.129-.387 4.223-1.045 4.729-1.447.769-.612 1.375-1.071 1.734-1.537-.824-.398-2.487-1.448-3.603-1.791a20.46 20.46 0 0 0-2.329-.571l-.351-2.255a9660.976 9660.976 0 0 1-3.08-3.505v-.001Z" fill="url(#X)"/><path d="M193.64 291.567s.288 2.85 3.059 3.353c2.481.45 4.349-5.546 3.079-7.097-.423-.518-1.469-1.01-2.376-.984-.637.018-2.792.839-3.092 2.994-.428-.452-.963-.582-1.227-.393-.334.24-.155.939-.114 1.096.14.548.499.887.67 1.031h.001Z" fill="url(#Y)"/><path d="m217.414 330.296-25.926 1.261a1.088 1.088 0 0 0-.871.512l-.718 1.151a.842.842 0 0 0 .747 1.286l27.461-1.046-.694-3.165.001.001Z" fill="url(#Z)"/><path d="m244.379 315.858-26.785.519a2.245 2.245 0 0 0-1.91 1.136l-9.275 16.319 28.288-1.127a2.305 2.305 0 0 0 1.885-1.118l8.594-14.356a.908.908 0 0 0-.796-1.373h-.001Z" fill="url(#aa)"/><path style="mix-blend-mode:multiply" opacity=".3" d="M215.685 317.514a2.246 2.246 0 0 1 1.91-1.136l.587-.011c.087.865.353 1.656.882 2.294 1.651 1.994 4.395.764 6.441 2.874 2.247 2.318.171 5.076 2.179 7.233 2.115 2.27 5.533.421 9.464 1.874l-.566.946a2.301 2.301 0 0 1-1.884 1.117l-28.288 1.127 9.275-16.319v.001Z" fill="url(#ab)"/><path style="mix-blend-mode:multiply" opacity=".3" d="M199.165 331.661c-8.591 1.526-17.689 2.981-17.448 2.24 2.461-7.546-.011-12.506-1.781-18.084l.464-2.873s3.197 1.376 3.975 4.669c.78 3.291-.061 5.747 3.114 6.225 2.019.305 6.311 2.377 9.217 4.906.154.136.309.273.456.413.862.808 1.57 1.66 2.004 2.504h-.001Z" fill="url(#ac)"/><path d="m193.6 329.43 1.012-2.673c-3.73-1.023-8.887-2.534-14.179-4.425-.828-.296-1.813-.663-2.135-1.534-.905-2.445 4.847-4.98 7.082-10.32 2.069-4.939.93-11.794-1.47-12.604-4.993-1.685-22.702 20.357-16.377 29.649 3.575 5.253 14.597 6.089 26.067 1.907Z" fill="#215EAB"/><path d="M194.612 326.756c2.341-1.244 5.144.032 5.325.117a7.01 7.01 0 0 1 2.02 1.448c.085.116 1.1 1.524.731 1.975-.297.361-1.445.062-2.826-.797a10.674 10.674 0 0 0-2.471-.06c-1.895.174-2.764.773-3.451.257-.504-.379-.675-1.178-.494-1.774.195-.639.771-.955 1.167-1.166h-.001Z" fill="url(#ad)"/><defs><linearGradient id="e" x1="234.531" y1="252.221" x2="234.531" y2="277.282" gradientUnits="userSpaceOnUse"><stop stop-color="#4A7CBB"/><stop offset="1" stop-color="#2AB392"/></linearGradient><linearGradient id="f" x1="199.076" y1="278.92" x2="199.076" y2="281.305" gradientUnits="userSpaceOnUse"><stop stop-color="#4A7CBB"/><stop offset="1" stop-color="#2AB392"/></linearGradient><linearGradient id="g" x1="199.04" y1="320.959" x2="199.04" y2="323.478" gradientUnits="userSpaceOnUse"><stop stop-color="#4A7CBB"/><stop offset="1" stop-color="#2AB392"/></linearGradient><linearGradient id="h" x1="195.848" y1="282.454" x2="195.848" y2="319.931" gradientUnits="userSpaceOnUse"><stop stop-color="#4A7CBB"/><stop offset="1" stop-color="#2AB392"/></linearGradient><linearGradient id="i" x1="199.492" y1="282.471" x2="199.492" y2="319.879" gradientUnits="userSpaceOnUse"><stop stop-color="#4A7CBB"/><stop offset="1" stop-color="#2AB392"/></linearGradient><linearGradient id="j" x1="202.227" y1="282.481" x2="202.227" y2="319.822" gradientUnits="userSpaceOnUse"><stop stop-color="#4A7CBB"/><stop offset="1" stop-color="#2AB392"/></linearGradient><linearGradient id="k" x1="223.398" y1="279.017" x2="223.398" y2="281.366" gradientUnits="userSpaceOnUse"><stop stop-color="#4A7CBB"/><stop offset="1" stop-color="#2AB392"/></linearGradient><linearGradient id="l" x1="223.325" y1="320.454" x2="223.325" y2="322.935" gradientUnits="userSpaceOnUse"><stop stop-color="#4A7CBB"/><stop offset="1" stop-color="#2AB392"/></linearGradient><linearGradient id="m" x1="223.426" y1="282.523" x2="223.426" y2="319.401" gradientUnits="userSpaceOnUse"><stop stop-color="#4A7CBB"/><stop offset="1" stop-color="#2AB392"/></linearGradient><linearGradient id="n" x1="226.639" y1="282.518" x2="226.639" y2="319.317" gradientUnits="userSpaceOnUse"><stop stop-color="#4A7CBB"/><stop offset="1" stop-color="#2AB392"/></linearGradient><linearGradient id="o" x1="220.174" y1="282.518" x2="220.174" y2="319.317" gradientUnits="userSpaceOnUse"><stop stop-color="#4A7CBB"/><stop offset="1" stop-color="#2AB392"/></linearGradient><linearGradient id="p" x1="247.311" y1="279.112" x2="247.311" y2="281.428" gradientUnits="userSpaceOnUse"><stop stop-color="#4A7CBB"/><stop offset="1" stop-color="#2AB392"/></linearGradient><linearGradient id="q" x1="247.207" y1="319.96" x2="247.207" y2="322.402" gradientUnits="userSpaceOnUse"><stop stop-color="#4A7CBB"/><stop offset="1" stop-color="#2AB392"/></linearGradient><linearGradient id="r" x1="247.479" y1="282.57" x2="247.479" y2="318.914" gradientUnits="userSpaceOnUse"><stop stop-color="#4A7CBB"/><stop offset="1" stop-color="#2AB392"/></linearGradient><linearGradient id="s" x1="244.709" y1="282.57" x2="244.709" y2="318.914" gradientUnits="userSpaceOnUse"><stop stop-color="#4A7CBB"/><stop offset="1" stop-color="#2AB392"/></linearGradient><linearGradient id="t" x1="250.407" y1="282.572" x2="250.407" y2="318.846" gradientUnits="userSpaceOnUse"><stop stop-color="#4A7CBB"/><stop offset="1" stop-color="#2AB392"/></linearGradient><linearGradient id="u" x1="270.279" y1="279.203" x2="270.279" y2="281.486" gradientUnits="userSpaceOnUse"><stop stop-color="#4A7CBB"/><stop offset="1" stop-color="#2AB392"/></linearGradient><linearGradient id="v" x1="270.144" y1="319.482" x2="270.144" y2="321.889" gradientUnits="userSpaceOnUse"><stop stop-color="#4A7CBB"/><stop offset="1" stop-color="#2AB392"/></linearGradient><linearGradient id="w" x1="267.722" y1="282.603" x2="267.722" y2="318.497" gradientUnits="userSpaceOnUse"><stop stop-color="#4A7CBB"/><stop offset="1" stop-color="#2AB392"/></linearGradient><linearGradient id="x" x1="270.279" y1="282.607" x2="270.279" y2="318.441" gradientUnits="userSpaceOnUse"><stop stop-color="#4A7CBB"/><stop offset="1" stop-color="#2AB392"/></linearGradient><linearGradient id="y" x1="272.84" y1="282.606" x2="272.84" y2="318.387" gradientUnits="userSpaceOnUse"><stop stop-color="#4A7CBB"/><stop offset="1" stop-color="#2AB392"/></linearGradient><linearGradient id="z" x1="234.357" y1="323.355" x2="234.357" y2="332.393" gradientUnits="userSpaceOnUse"><stop stop-color="#4A7CBB"/><stop offset="1" stop-color="#2AB392"/></linearGradient><linearGradient id="A" x1="234.092" y1="326.352" x2="234.092" y2="332.488" gradientUnits="userSpaceOnUse"><stop stop-color="#4A7CBB"/><stop offset="1" stop-color="#2AB392"/></linearGradient><linearGradient id="B" x1="332.295" y1="262.335" x2="332.295" y2="270.582" gradientUnits="userSpaceOnUse"><stop stop-color="#4A7CBB"/><stop offset="1" stop-color="#2AB392"/></linearGradient><linearGradient id="C" x1="316.096" y1="290.327" x2="316.096" y2="296.554" gradientUnits="userSpaceOnUse"><stop stop-color="#4A7CBB"/><stop offset="1" stop-color="#2AB392"/></linearGradient><linearGradient id="D" x1="331.76" y1="302.153" x2="331.76" y2="308.774" gradientUnits="userSpaceOnUse"><stop stop-color="#4A7CBB"/><stop offset="1" stop-color="#2AB392"/></linearGradient><linearGradient id="E" x1="331.688" y1="314.868" x2="331.688" y2="322.37" gradientUnits="userSpaceOnUse"><stop stop-color="#4A7CBB"/><stop offset="1" stop-color="#2AB392"/></linearGradient><linearGradient id="F" x1="400.728" y1="414.847" x2="408.592" y2="415.075" gradientUnits="userSpaceOnUse"><stop stop-color="#444B8C"/><stop offset="1" stop-color="#26264F"/></linearGradient><linearGradient id="G" x1="405.233" y1="414.954" x2="409.534" y2="408.285" gradientUnits="userSpaceOnUse"><stop stop-color="#FFC444"/><stop offset="1" stop-color="#F36F56"/></linearGradient><linearGradient id="H" x1="374.464" y1="410.244" x2="382.525" y2="412.46" gradientUnits="userSpaceOnUse"><stop stop-color="#444B8C"/><stop offset="1" stop-color="#26264F"/></linearGradient><linearGradient id="I" x1="379.466" y1="411.525" x2="384.365" y2="405.07" gradientUnits="userSpaceOnUse"><stop stop-color="#FFC444"/><stop offset="1" stop-color="#F36F56"/></linearGradient><linearGradient id="J" x1="387.606" y1="308.261" x2="387.606" y2="321.79" gradientUnits="userSpaceOnUse"><stop stop-color="#4A7CBB"/><stop offset="1" stop-color="#2AB392"/></linearGradient><linearGradient id="K" x1="387.7" y1="307.913" x2="387.7" y2="321.495" gradientUnits="userSpaceOnUse"><stop stop-color="#4A7CBB"/><stop offset="1" stop-color="#2AB392"/></linearGradient><linearGradient id="L" x1="389.242" y1="307.913" x2="389.242" y2="321.495" gradientUnits="userSpaceOnUse"><stop stop-color="#4A7CBB"/><stop offset="1" stop-color="#2AB392"/></linearGradient><linearGradient id="M" x1="194.237" y1="403.66" x2="198.458" y2="439.004" gradientUnits="userSpaceOnUse"><stop stop-color="#FFDB44"/><stop offset="1" stop-color="#FEEF06"/></linearGradient><linearGradient id="N" x1="195.272" y1="411.801" x2="193.98" y2="400.985" gradientUnits="userSpaceOnUse"><stop stop-color="#F36F56"/><stop offset=".31" stop-color="#F99C4C"/><stop offset=".55" stop-color="#FDB946"/><stop offset=".68" stop-color="#FFC444"/><stop offset=".8" stop-color="#FEC144"/><stop offset=".87" stop-color="#FDB946"/><stop offset=".92" stop-color="#FBAC49"/><stop offset=".96" stop-color="#F8994D"/><stop offset="1" stop-color="#F57E53"/></linearGradient><linearGradient id="O" x1="185.597" y1="403.692" x2="184.304" y2="392.876" gradientUnits="userSpaceOnUse"><stop stop-color="#F36F56"/><stop offset=".31" stop-color="#F99C4C"/><stop offset=".55" stop-color="#FDB946"/><stop offset=".68" stop-color="#FFC444"/><stop offset=".8" stop-color="#FEC144"/><stop offset=".87" stop-color="#FDB946"/><stop offset=".92" stop-color="#FBAC49"/><stop offset=".96" stop-color="#F8994D"/><stop offset="1" stop-color="#F57E53"/></linearGradient><linearGradient id="P" x1="193.945" y1="395.606" x2="192.654" y2="384.79" gradientUnits="userSpaceOnUse"><stop stop-color="#F36F56"/><stop offset=".31" stop-color="#F99C4C"/><stop offset=".55" stop-color="#FDB946"/><stop offset=".68" stop-color="#FFC444"/><stop offset=".8" stop-color="#FEC144"/><stop offset=".87" stop-color="#FDB946"/><stop offset=".92" stop-color="#FBAC49"/><stop offset=".96" stop-color="#F8994D"/><stop offset="1" stop-color="#F57E53"/></linearGradient><linearGradient id="Q" x1="199.012" y1="387.498" x2="197.719" y2="376.682" gradientUnits="userSpaceOnUse"><stop stop-color="#F36F56"/><stop offset=".31" stop-color="#F99C4C"/><stop offset=".55" stop-color="#FDB946"/><stop offset=".68" stop-color="#FFC444"/><stop offset=".8" stop-color="#FEC144"/><stop offset=".87" stop-color="#FDB946"/><stop offset=".92" stop-color="#FBAC49"/><stop offset=".96" stop-color="#F8994D"/><stop offset="1" stop-color="#F57E53"/></linearGradient><linearGradient id="R" x1="194.237" y1="370.608" x2="198.458" y2="405.952" gradientUnits="userSpaceOnUse"><stop stop-color="#FFDB44"/><stop offset="1" stop-color="#FEEF06"/></linearGradient><linearGradient id="S" x1="195.272" y1="378.748" x2="193.98" y2="367.932" gradientUnits="userSpaceOnUse"><stop stop-color="#F36F56"/><stop offset=".31" stop-color="#F99C4C"/><stop offset=".55" stop-color="#FDB946"/><stop offset=".68" stop-color="#FFC444"/><stop offset=".8" stop-color="#FEC144"/><stop offset=".87" stop-color="#FDB946"/><stop offset=".92" stop-color="#FBAC49"/><stop offset=".96" stop-color="#F8994D"/><stop offset="1" stop-color="#F57E53"/></linearGradient><linearGradient id="T" x1="193.945" y1="362.555" x2="192.654" y2="351.739" gradientUnits="userSpaceOnUse"><stop stop-color="#F36F56"/><stop offset=".31" stop-color="#F99C4C"/><stop offset=".55" stop-color="#FDB946"/><stop offset=".68" stop-color="#FFC444"/><stop offset=".8" stop-color="#FEC144"/><stop offset=".87" stop-color="#FDB946"/><stop offset=".92" stop-color="#FBAC49"/><stop offset=".96" stop-color="#F8994D"/><stop offset="1" stop-color="#F57E53"/></linearGradient><linearGradient id="U" x1="236.115" y1="392.21" x2="221.462" y2="348.249" gradientUnits="userSpaceOnUse"><stop stop-color="#FFC444"/><stop offset="1" stop-color="#F36F56"/></linearGradient><linearGradient id="V" x1="242.666" y1="386.797" x2="232.857" y2="357.372" gradientUnits="userSpaceOnUse"><stop stop-color="#FFC444"/><stop offset="1" stop-color="#F36F56"/></linearGradient><linearGradient id="W" x1="217.077" y1="449.846" x2="191.218" y2="274.762" gradientUnits="userSpaceOnUse"><stop stop-color="#FF9085"/><stop offset="1" stop-color="#FB6FBB"/></linearGradient><linearGradient id="X" x1="193.965" y1="305.403" x2="198.242" y2="286" gradientUnits="userSpaceOnUse"><stop stop-color="#FFC444"/><stop offset="1" stop-color="#F36F56"/></linearGradient><linearGradient id="Y" x1="196.864" y1="288.115" x2="191.963" y2="313.352" gradientUnits="userSpaceOnUse"><stop stop-color="#FFC444"/><stop offset="1" stop-color="#F36F56"/></linearGradient><linearGradient id="Z" x1="218.108" y1="332.402" x2="189.77" y2="332.402" gradientUnits="userSpaceOnUse"><stop stop-color="#40447E"/><stop offset="1" stop-color="#3C3B6B"/></linearGradient><linearGradient id="aa" x1="236.23" y1="314.526" x2="217.651" y2="332.957" gradientUnits="userSpaceOnUse"><stop stop-color="#40447E"/><stop offset="1" stop-color="#3C3B6B"/></linearGradient><linearGradient id="ab" x1="236.23" y1="314.527" x2="217.651" y2="332.957" gradientUnits="userSpaceOnUse"><stop stop-color="#40447E"/><stop offset="1" stop-color="#3C3B6B"/></linearGradient><linearGradient id="ac" x1="191.199" y1="306.764" x2="186.869" y2="351.358" gradientUnits="userSpaceOnUse"><stop stop-color="#E38DDD"/><stop offset="1" stop-color="#9571F6"/></linearGradient><linearGradient id="ad" x1="200.361" y1="326.814" x2="190.942" y2="335.691" gradientUnits="userSpaceOnUse"><stop stop-color="#FFC444"/><stop offset="1" stop-color="#F36F56"/></linearGradient><filter id="a" x=".01" y="128.592" width="301.589" height="302.204" filterUnits="userSpaceOnUse" color-interpolation-filters="sRGB"><feFlood flood-opacity="0" result="BackgroundImageFix"/><feBlend in="SourceGraphic" in2="BackgroundImageFix" result="shape"/><feGaussianBlur stdDeviation="31.995" result="effect1_foregroundBlur_1906_244"/></filter><filter id="b" x="146.977" y="191.833" width="361.642" height="361.642" filterUnits="userSpaceOnUse" color-interpolation-filters="sRGB"><feFlood flood-opacity="0" result="BackgroundImageFix"/><feBlend in="SourceGraphic" in2="BackgroundImageFix" result="shape"/><feGaussianBlur stdDeviation="38.851" result="effect1_foregroundBlur_1906_244"/></filter><filter id="c" x="213.204" y=".727" width="383.712" height="383.711" filterUnits="userSpaceOnUse" color-interpolation-filters="sRGB"><feFlood flood-opacity="0" result="BackgroundImageFix"/><feBlend in="SourceGraphic" in2="BackgroundImageFix" result="shape"/><feGaussianBlur stdDeviation="41.137" result="effect1_foregroundBlur_1906_244"/></filter></defs></svg>