<svg width="1023" height="873" fill="none" xmlns="http://www.w3.org/2000/svg"><g filter="url(#a)"><ellipse cx="317.913" cy="554.726" rx="154.381" ry="154.929" fill="#27AE60" fill-opacity=".3"/></g><g filter="url(#b)"><circle cx="632.697" cy="389.396" r="183.396" fill="#278EAE" fill-opacity=".3"/></g><path opacity=".2" d="M666.327 275.886c-63.191 25.125-69.244 89.354-126.14 94.866-49.576 4.803-68.421-41.69-103.207-33.36-52.989 12.691-86.303 139.022-65.021 242.899 21.974 107.259 114.302 249.847 267.263 259.576 171.729 10.925 301.67-153.135 309.603-297.107.858-15.571 5.924-146.026-93.81-223.091-4.984-3.85-103.264-77.751-188.688-43.785v.002Z" fill="#F4F7FA"/><path d="M875.127 477.409c9.219.776 17.375-6.687 18.216-16.67.84-9.983-5.951-18.703-15.171-19.48a15.804 15.804 0 0 0-1.423-.043 104.486 104.486 0 0 0-2.401-15.113c.437-.179.876-.365 1.306-.587 8.405-4.319 12.072-15.142 8.189-24.176-3.88-9.034-13.84-12.854-22.245-8.537a16.9 16.9 0 0 0-1.271.74 95.894 95.894 0 0 0-9.089-11.672c.306-.398.607-.802.886-1.234 5.338-8.257 3.534-19.542-4.03-25.205-7.564-5.664-18.023-3.561-23.36 4.694-.273.422-.517.859-.753 1.297a85.123 85.123 0 0 0-13.342-5.102 19.42 19.42 0 0 0 .201-1.525c.84-9.983 2.66-21.253-6.57-21.884-21.351-1.462-25.974 9.089-26.814 19.072a19.397 19.397 0 0 0-.058 1.537 85.085 85.085 0 0 0-14.009 2.798 18.596 18.596 0 0 0-.524-1.404c-3.881-9.034-3.182-15.058-12.002-11.674-19.238 7.382-22.313 18.281-18.433 27.314.203.472.433.921.667 1.366a95.702 95.702 0 0 0-10.914 9.989 16.262 16.262 0 0 0-1.129-.941c-7.564-5.664-18.023-3.561-23.361 4.696-5.337 8.257-3.533 19.541 4.031 25.205.387.291.787.547 1.188.797a104.687 104.687 0 0 0-4.895 14.501c-.463-.082-.93-.156-1.408-.197-9.218-.777-17.375 6.687-18.215 16.67-.84 9.983 5.951 18.703 15.171 19.48.478.041.951.045 1.421.043a104.76 104.76 0 0 0 2.4 15.113c-.439.179-.875.365-1.306.587-8.404 4.319-12.071 15.142-8.189 24.176 3.883 9.033 13.841 12.854 22.245 8.535a16.14 16.14 0 0 0 1.271-.74 96.269 96.269 0 0 0 9.089 11.674c-.305.398-.607.802-.885 1.234-5.338 8.257-3.534 19.542 4.03 25.205 7.564 5.664 23.936 3.073 29.274-5.184.272-.424-5.4-.369-5.162-.807a85.134 85.134 0 0 0 13.343 5.102 19.42 19.42 0 0 0-.201 1.525c-.841 9.983 5.951 18.705 15.171 19.48 9.218.777 17.374-6.687 18.215-16.67.043-.516.053-1.029.057-1.537a84.878 84.878 0 0 0 14.009-2.798c.16.471.326.941.525 1.404 3.882 9.034 13.841 12.855 22.245 8.536 8.404-4.32 12.072-15.143 8.189-24.177-.203-.471-.432-.92-.666-1.365a95.7 95.7 0 0 0 10.913-9.989c.363.326.734.646 1.13.941 7.564 5.664 18.022 3.563 23.36-4.694 5.338-8.257 3.534-19.541-4.03-25.205a16.738 16.738 0 0 0-1.189-.795c1.962-4.645 3.6-9.491 4.895-14.501.463.082.931.156 1.408.197v-.002Zm-94.785 39.904c-33.472-2.818-58.132-34.485-55.08-70.728 3.052-36.244 32.663-63.339 66.133-60.52 33.472 2.818 58.132 34.484 55.079 70.728-3.052 36.244-32.66 63.339-66.134 60.52h.002Z" fill="#BFC6D1"/><path d="M875.656 425.516c8.405-4.319 12.072-15.142 8.189-24.176-3.882-9.033-13.84-12.854-22.245-8.535-.438.225-.857.479-1.271.74a95.894 95.894 0 0 0-9.089-11.672c.306-.398.607-.802.886-1.234 5.338-8.257 9.437-24.633 1.334-29.492-15.382-9.22-23.387.726-28.722 8.983-.273.422-.517.859-.753 1.295a85.283 85.283 0 0 0-13.342-5.102 19.42 19.42 0 0 0 .201-1.525c.457-5.432-1.357-10.481-4.582-14.089a2686.686 2686.686 0 0 0-5.772 46.873c28.727 7.232 48.758 36.338 45.988 69.213-2.347 27.858-20.388 50.294-43.809 57.913.053 3.046.133 6.098.104 9.146-.076 8.276-.613 16.567-1.158 24.851a84.467 84.467 0 0 0 6.736-1.648c.16.471.326.941.525 1.404 3.88 9.034 12.553 14.525 28.015 7.269 8.554-4.014 6.299-13.876 2.419-22.908a20.05 20.05 0 0 0-.666-1.365 95.609 95.609 0 0 0 10.913-9.989c.363.326.734.646 1.13.941 7.564 5.664 24.53 2.485 29.868-5.772 5.338-8.257-2.976-18.463-10.54-24.127a15.674 15.674 0 0 0-1.189-.795c1.962-4.645 3.6-9.491 4.895-14.499.463.082.931.156 1.408.197 9.219.777 17.375-6.687 18.215-16.67.841-9.983-5.95-18.705-15.171-19.48-.477-.041-.951-.045-1.42-.041a104.624 104.624 0 0 0-2.401-15.113c.437-.181.874-.365 1.304-.587v-.006Z" fill="#BFC6D1"/><path d="M883.729 475.004c9.218.777 17.374-6.687 18.215-16.67.84-9.982-5.951-18.705-15.171-19.479a14.733 14.733 0 0 0-1.421-.041 104.615 104.615 0 0 0-2.4-15.114c.436-.178.875-.365 1.303-.586 8.405-4.319 12.072-15.143 8.19-24.176-3.881-9.034-13.841-12.855-22.245-8.536-.439.225-.857.48-1.271.74a96.269 96.269 0 0 0-9.089-11.674c.305-.398.606-.801.885-1.234 5.338-8.257 3.534-19.541-4.03-25.205-7.564-5.664-18.022-3.561-23.36 4.694-.273.424-.517.859-.752 1.296a85.073 85.073 0 0 0-13.343-5.102c.082-.503.158-1.009.201-1.528.84-9.982-5.951-18.703-15.171-19.479-9.218-.777-17.375 6.686-18.215 16.667a20.419 20.419 0 0 0-.058 1.537 84.949 84.949 0 0 0-14.008 2.798 19.22 19.22 0 0 0-.525-1.404c-3.881-9.033-13.841-12.854-22.245-8.535-8.405 4.319-12.072 15.142-8.189 24.176.203.471.43.92.666 1.365a95.794 95.794 0 0 0-10.914 9.989 16.262 16.262 0 0 0-1.129-.941c-7.564-5.664-18.023-3.561-23.36 4.696-5.338 8.257-3.534 19.542 4.03 25.205.387.291.787.548 1.189.796a104.59 104.59 0 0 0-4.896 14.5c-.463-.082-.93-.155-1.408-.196-9.218-.777-17.374 6.686-18.215 16.669-.84 9.983 5.951 18.703 15.171 19.48.478.041.951.045 1.421.041a104.797 104.797 0 0 0 2.4 15.114c-.436.178-.873.364-1.304.586-8.404 4.319-12.071 15.142-8.189 24.176 3.881 9.034 13.841 12.855 22.245 8.536.439-.226.857-.48 1.271-.74a96.336 96.336 0 0 0 9.089 11.673 18.78 18.78 0 0 0-.885 1.234c-5.338 8.257-3.534 19.542 4.03 25.206 7.564 5.663 18.022 3.56 23.36-4.695.273-.424.517-.859.752-1.295a85.073 85.073 0 0 0 13.343 5.102 19.347 19.347 0 0 0-.201 1.527c-.84 9.983 5.951 18.703 15.171 19.48 9.218.777 17.375-6.687 18.215-16.67.043-.516.055-1.029.057-1.537a84.857 84.857 0 0 0 14.009-2.798c.16.472.326.941.525 1.404 3.882 9.034 13.841 12.855 22.245 8.536 8.405-4.319 12.072-15.143 8.189-24.176a19.164 19.164 0 0 0-.666-1.365 95.887 95.887 0 0 0 10.914-9.989c.362.326.733.645 1.129.94 7.564 5.664 18.022 3.563 23.36-4.694 5.338-8.257 3.534-19.541-4.03-25.205a16.738 16.738 0 0 0-1.189-.795c1.962-4.645 3.6-9.491 4.895-14.501.464.082.931.156 1.409.197Zm-94.786 39.905c-33.472-2.819-58.132-34.485-55.08-70.729 3.053-36.243 32.663-63.339 66.133-60.52 33.472 2.819 58.132 34.485 55.08 70.728-3.053 36.244-32.661 63.339-66.135 60.521h.002Z" fill="#D8DEE8"/><path d="M580.544 682.603c-38.958-.123-88.566-5.838-135.918-27.823-12.084-5.61-86.732-40.271-77.538-74.336 3.239-12 14.146-13.791 18.756-29.758 5.463-18.92-6.352-28.515-14.376-52.242-4.786-14.159-18.795-55.591 6.17-78.207 14.917-13.514 43.078-19.699 64.413-14.494 31.295 7.633 41.776 38.273 58.614 90.421 14.927 46.229 10.862 57.499 22.19 90.6 8.408 24.565 24.362 58.433 57.687 95.837l.002.002Z" fill="#AAB9DE"/><mask id="c" style="mask-type:luminance" maskUnits="userSpaceOnUse" x="363" y="403" width="218" height="280"><path d="M580.544 682.603c-38.958-.123-88.566-5.838-135.918-27.823-12.084-5.61-86.732-40.271-77.538-74.336 3.239-12 14.146-13.791 18.756-29.758 5.463-18.92-6.352-28.515-14.376-52.242-4.786-14.159-18.795-55.591 6.17-78.207 14.917-13.514 43.078-19.699 64.413-14.494 31.295 7.633 41.776 38.273 58.614 90.421 14.927 46.229 10.862 57.499 22.19 90.6 8.408 24.565 24.362 58.433 57.687 95.837l.002.002Z" fill="#fff"/></mask><g style="mix-blend-mode:soft-light" opacity=".5" fill="#fff" mask="url(#c)"><path d="M680.621 704.666c-19.605 0-38.792-2.347-57.439-7.041-52.446-13.205-97.717-45.128-134.559-94.882-38.298-51.72-57.895-109.768-67.59-149.357-6.757-27.585-5.107-58.011 4.905-90.432l1.402.433c-9.932 32.164-11.574 62.326-4.883 89.65 11.789 48.135 61.131 207.926 201.081 243.163 39.114 9.848 80.634 9.298 123.406-1.638l.363 1.421c-22.631 5.787-44.919 8.681-66.69 8.681l.004.002Z"/><path d="m448.154 531.614-.55-.363c-83.443-55.149-81.968-117.611-79.528-135.44.047-.351.082-.578.086-.677l1.468.008c0 .138-.025.331-.099.868-2.404 17.575-3.839 79.063 78.325 133.646 2.081-2.642 11.631-15.248 19.599-33.517 8.245-18.904 16.432-47.919 8.618-78.797l1.422-.36c7.921 31.293-.365 60.659-8.712 79.782-9.033 20.7-20.096 34.206-20.207 34.34l-.42.508-.002.002Z"/><path d="M458.94 604.272c-34.698 0-58.718-9.218-73.739-18.021-20.62-12.081-29.248-26.055-29.332-26.195l1.255-.76c.084.137 8.566 13.847 28.901 25.738 18.727 10.952 51.623 22.554 102.056 15.735 2.062-4.455 22.426-50.288 18.406-111.95l-4.274-65.568 1.463-.095 4.274 65.569c4.238 65.012-18.485 112.566-18.715 113.04l-.172.352-.389.054c-10.676 1.461-20.579 2.103-29.736 2.103l.002-.002Z"/></g><path d="m953.998 796.116-551.345-4.766v14.101c0 3.827 2.405 7.082 5.662 7.663l155.904 27.767a21.59 21.59 0 0 0 5.594.26l378.196-31.66c3.376-.283 5.991-3.546 5.991-7.48v-5.887l-.002.002Z" fill="#BFC8D6"/><path d="m751.103 773.519-350.424 25.795c-6.27.461-11.368-4.444-11.368-10.956V527.406c0-6.512 5.098-11.793 11.368-11.793h350.424c5.166 0 9.343 4.774 9.343 10.662v235.896c0 5.887-4.177 10.968-9.343 11.348Z" fill="#AAB9DE"/><path d="m756.688 773.519-350.423 25.795c-6.271.461-11.369-4.444-11.369-10.956V527.406c0-6.512 5.098-11.793 11.369-11.793h350.423c5.166 0 9.344 4.774 9.344 10.662v235.896c0 5.887-4.178 10.968-9.344 11.348Z" fill="#215EAB"/><path d="m745.773 756.888-326.385 22.407c-5.102.351-9.249-3.675-9.249-8.993V541.839c0-5.317 4.147-9.647 9.249-9.667l326.385-1.406c4.262-.019 7.71 3.892 7.71 8.736v208.09c0 4.844-3.448 9.005-7.71 9.298v-.002Z" fill="#E9EFF8"/><path d="M593.854 522.751c0 2.425-1.804 4.397-4.031 4.403-2.23.006-4.04-1.958-4.04-4.387 0-2.429 1.81-4.401 4.04-4.403 2.229 0 4.031 1.962 4.031 4.387Z" fill="#fff"/><path d="M773.201 772.088 402.653 799.24l161.566 28.776c1.851.33 3.727.417 5.594.261L954 796.116l-174.904-23.843a28.35 28.35 0 0 0-5.895-.185Z" fill="#215EAB"/><path d="m456.72 799.474 308.492-22.942 95.476 12.91-305.835 24.524-98.133-14.492Z" fill="#92AFF2"/><path d="m837.641 469.85-1.461 205.384c-.066 9.194-6.642 16.903-15.016 17.209L451.029 703.68l-4.647 2.382-2.326.135c-10.584.386-19.16-7.73-19.16-18.143V455.339c0-9.923 7.725-17.766 17.559-18.225a17.413 17.413 0 0 1 1.711-.01l378.591 15.355c8.405.34 14.954 8.128 14.886 17.389l-.002.002Z" fill="#215EAB"/><path d="m840.917 469.957-1.472 205.21c-.065 9.187-6.867 16.878-15.226 17.184l-376.408 13.707c-10.561.386-19.267-7.736-19.267-18.137l.015-232.436c0-9.913 7.752-17.754 17.563-18.213.57-.033 1.15-.037 1.73-.014l378.005 15.323c8.39.34 15.126 8.119 15.058 17.374l.002.002Z" fill="#E9EFF8"/><path d="m840.917 469.957-.121 16.752-412.239-12.24v-18.982c0-9.913 7.752-17.754 17.565-18.213.57-.033 1.15-.037 1.73-.014l378.005 15.322c8.39.341 15.126 8.12 15.058 17.375h.002Z" fill="#215EAB"/><path d="M459.602 456.559c0 3.253-2.669 5.799-5.965 5.688-3.301-.11-5.98-2.845-5.98-6.108 0-3.263 2.683-5.811 5.986-5.691 3.296.121 5.961 2.856 5.959 6.109v.002Zm21.721.763c-.004 3.232-2.639 5.764-5.892 5.655-3.259-.108-5.903-2.826-5.901-6.069.002-3.243 2.652-5.775 5.912-5.656 3.255.119 5.885 2.837 5.881 6.07Zm21.451.754a5.594 5.594 0 0 1-5.822 5.621c-3.218-.109-5.83-2.808-5.826-6.031a5.594 5.594 0 0 1 5.843-5.62c3.214.118 5.811 2.818 5.807 6.03h-.002Z" fill="#fff"/><path d="m456.313 560.79 92.718-50.262 87.703 51.195-180.421-.933Z" fill="url(#d)"/><path d="M484.419 567.543a2.405 2.405 0 0 1-2.419 2.396l-15.79-.041c-1.348-.004-2.441-1.088-2.439-2.423 0-1.334 1.095-2.412 2.443-2.406l15.791.063a2.42 2.42 0 0 1 2.414 2.413v-.002Z" fill="url(#e)"/><path d="M484.329 653.29c0 1.322-1.082 2.419-2.414 2.45l-15.766.35c-1.347.031-2.437-1.024-2.437-2.355 0-1.33 1.095-2.433 2.439-2.46l15.768-.328a2.342 2.342 0 0 1 2.41 2.345v-.002Z" fill="url(#f)"/><path d="m469.95 648.801-4.957.045.053-76.558 4.963.035-.059 76.478Z" fill="url(#g)"/><path d="m476.77 648.685-3.721.055.064-76.417 3.727.027-.07 76.335Z" fill="url(#h)"/><path d="m482.355 648.547-3.724.076.072-76.279 3.728.008-.076 76.195Z" fill="url(#i)"/><path d="M533.809 567.703a2.354 2.354 0 0 1-2.351 2.361l-15.339-.039a2.38 2.38 0 0 1-2.368-2.388 2.367 2.367 0 0 1 2.376-2.371l15.341.061a2.365 2.365 0 0 1 2.343 2.378l-.002-.002Z" fill="url(#j)"/><path d="M533.649 652.229c-.002 1.304-1.054 2.384-2.349 2.413l-15.319.34a2.305 2.305 0 0 1-2.365-2.322 2.437 2.437 0 0 1 2.371-2.425l15.319-.32a2.29 2.29 0 0 1 2.341 2.312l.002.002Z" fill="url(#k)"/><path d="m525.958 647.666-4.374.097.127-75.335h4.379l-.132 75.238Z" fill="url(#l)"/><path d="m532.208 647.527-3.751.066.135-75.175 3.755.012-.139 75.097Z" fill="url(#m)"/><path d="m519.001 647.527-3.751.066.135-75.175 3.755.012-.139 75.097Z" fill="url(#n)"/><path d="M582.376 567.862c-.004 1.29-1.027 2.331-2.287 2.329l-14.905-.039c-1.273-.004-2.302-1.058-2.3-2.353.004-1.298 1.038-2.343 2.31-2.339l14.905.059c1.261.005 2.279 1.054 2.275 2.343h.002Z" fill="url(#o)"/><path d="M582.15 651.183c-.004 1.285-1.024 2.349-2.283 2.378l-14.884.332c-1.271.029-2.3-.996-2.296-2.29.004-1.293 1.037-2.361 2.308-2.388l14.884-.309c1.259-.027 2.276.994 2.271 2.279v-.002Z" fill="url(#p)"/><path d="m574.763 646.678-3.774.09.189-74.244h3.778l-.193 74.154Z" fill="url(#q)"/><path d="m569.105 646.678-3.775.09.188-74.244h3.78l-.193 74.154Z" fill="url(#r)"/><path d="m580.429 646.569-3.148.06.197-74.101 3.152.013-.201 74.028Z" fill="url(#s)"/><path d="M629.025 568.015c-.004 1.27-1 2.3-2.226 2.295l-14.492-.036c-1.238-.005-2.237-1.042-2.235-2.321.004-1.279 1.011-2.31 2.249-2.306l14.492.057c1.226.004 2.214 1.04 2.21 2.311h.002Z" fill="url(#t)"/><path d="M628.736 650.179c-.004 1.267-1 2.316-2.224 2.345l-14.472.322c-1.236.026-2.235-.984-2.23-2.259.004-1.275 1.01-2.329 2.244-2.356l14.474-.301c1.224-.024 2.212.982 2.208 2.249Z" fill="url(#u)"/><path d="m615.788 645.86-3.165.057.239-73.325 3.167.006-.241 73.262Z" fill="url(#v)"/><path d="m621.008 645.73-3.167.072.246-73.202 3.171.004-.25 73.126Z" fill="url(#w)"/><path d="m626.557 645.612-3.805.08.253-73.094 3.806.004-.254 73.01Z" fill="url(#x)"/><path d="m631.643 669.595-171 4.709.008-14.462 171.041-4.001-.049 13.754Z" fill="url(#y)"/><path d="m638.622 669.396-186.018 5.102.004-7.849 186.041-4.686-.027 7.433Z" fill="url(#z)"/><path d="m822.056 548.036-151.743-1.488.066-15.36 151.78 2.202-.103 14.646Z" fill="url(#A)"/><path d="m756.139 600.535-86.057.555.053-12.491 86.074-.228-.07 12.164Z" fill="url(#B)"/><path d="m820.233 623.896-150.256 2.158.049-11.911 150.285-1.614-.078 11.367Z" fill="url(#C)"/><path d="m820.051 650.398-150.193 3.432.053-12.468 150.222-2.859-.082 11.895Z" fill="url(#D)"/><path d="m866.621 590.891-5.209 1.041s-27.351 34.905-23.442 48.188c3.907 13.285 23.442 3.126 23.442 3.126l5.209-52.355Z" fill="#144D94"/><path d="M900.946 839.412c.88.715 1.041 2.498 1.146 3.665.047.52.072.781.012.965-.424 1.343-3.027 1.484-7.111 1.9-6.451.661-8.371 1.167-8.876.208-.473-.9.673-2.374.802-2.536.693-.873 1.543-1.191 3.19-1.732 3.044-1.003 5.1-1.55 5.723-1.716 3.888-1.037 4.538-1.224 5.114-.754Z" fill="url(#E)"/><path d="m897.111 833.519-.646 7.35c.182.355 2.367 1.421 4.104.507l1.658-7.226-5.116-.631Z" fill="url(#F)"/><path d="M848.196 833.557c1.054 1.165 1.294 3.307.378 4.362-.9 1.038-2.255.261-6.095.374-4.114.123-5.188 1.094-7.982.323-1.129-.311-3.124-1.07-3.085-1.875.027-.568 1.042-.861 4.434-1.997 4.813-1.613 4.793-1.701 5.815-1.869 2.569-.425 5.146-.853 6.538.682h-.003Z" fill="url(#G)"/><path d="m845.561 826.848-2.064 6.863c.155.369 2.252 1.597 4.052.818l3.065-6.662-5.055-1.021.002.002Z" fill="url(#H)"/><path d="M863.893 676.54a642.91 642.91 0 0 1-20.314 152.305l7.896 2.125c6.678-6.227 15.103-16.029 19.168-29.882 2.523-8.598 1.683-13.017 3.282-23.592 2.548-16.838 7.709-25.66 13.043-39.237 4.795-12.2 10.46-30.108 13.498-54.042-12.192-2.558-24.383-5.119-36.575-7.677h.002Z" fill="#B53931"/><path d="M889.241 679.249a4104.076 4104.076 0 0 1 5.615 157.206l8.066.997a94.015 94.015 0 0 0 8.413-21.713c2.871-11.512 2.205-18.348 3.466-30.28 1.412-13.382 3.464-16.299 7.101-33.179 7.377-34.262 11.067-51.392 2.837-62.047-2.671-3.461-11.047-12.138-35.498-10.979v-.005Z" fill="#CA534B"/><path d="M926.479 591.788a138.367 138.367 0 0 0-29.633-4.948c-18.406-1.041-27.614-1.501-33.015 2.73-16.758 13.124-.877 60.028-6.849 84.674-5.024 20.738-5.208 21.099-5.208 21.099-1.187 2.319-3.112 5.541-2.345 9.378.604 3.018 2.888 6.486 5.992 7.554 6.448 2.218 10.144-8.093 20.838-11.2 11.178-3.249 23.684 3.206 39.497 11.368 10.065 5.194 13.501 8.509 17.026 6.865 6.791-3.167 4.926-20.523 4.168-27.612-3.012-28.163-6.402-61.135-10.471-99.908Z" fill="#215EAB"/><path d="M880.295 639.6c.486-.109 1.353-3.346-.781-4.299-9.638-4.299-17.096 4.212-18.094 6.83l-.998 2.618s4.786.373 7.755-.623c2.968-.999 8.16-3.645 12.118-4.526Z" fill="#FFB27D"/><path d="m853.963 651.787 16.956.855c.65.033 1.425-.77 1.265-1.318l-7.921-25.631c-.125-.427-.557-.712-1.041-.685l-16.262.357c-.528.03-.819 1.074-.676 1.59l6.738 24.103c.111.397.51.709.941.729Z" fill="url(#I)"/><path d="m854.27 651.24 17.049.8c.654.031 1.105-.437.945-.986l-7.615-26.074c-.125-.429-.562-.712-1.048-.683l-16.284.963a.83.83 0 0 0-.746 1.062l6.756 24.189c.111.397.515.709.945.729h-.002Z" fill="url(#J)"/><path d="M862.877 635.694c-.504 2.372-2.638 1.861-4.378 4.731-2.21 3.645-.092 6.861-2.118 8.196-.617.408-1.662.651-3.54.159l.484 1.731c.111.397.515.709.945.729l17.049.8c.654.031 1.105-.437.945-.986l-7.615-26.074c-.126-.429-.562-.712-1.048-.683l-2.445.145a9.501 9.501 0 0 0-.472 3.075c.078 3.932 2.786 5.398 2.193 8.175v.002Z" fill="url(#K)" style="mix-blend-mode:multiply" opacity=".3"/><path d="M846.502 633.78c-.097-.41.106-.832.412-.855 1.24-.09 4.118-.125 5.707 1.251 2.064 1.787 4.733 5.051 2.484 6.697l-2.099 1.537a.337.337 0 0 1-.308.059c-.746-.231-3.884-1.217-4.226-1.461-.312-.224-1.509-5.246-1.972-7.23l.002.002Zm40.957-60.949c-.012 1.4 3.469 8.411 8.163 11.809 4.735 3.43 10.694 3.243 12.469 3.684 4.116 1.021 4.645.992 4.737 1.402.443 1.992-10.78 8.784-22.376 7.148-7.096-1.002-13.553-5.051-13.158-7.177.4-2.14 7.488-.992 9.602-4.862 1.469-2.693-.179-6.516-2.126-9.681 1.886-3.534.806 1.215 2.691-2.319l-.002-.004Z" fill="#FFB27D"/><path d="M875.003 576.07c-2.466-1.294-4.223-4.76-3.53-7.804.596-2.62 2.828-4.012 4.165-4.846 3.872-2.415 9.854-3.155 13.439-.236 2.124 1.731 2.019 7.466 2.054 8.471.039 1.137-.55 1.812-.896 2.851a391.943 391.943 0 0 0-2.402 7.5 18.885 18.885 0 0 0-2.249-2.339c-.365-.317-1.812-1.551-3.493-2.345-3.37-1.592-4.75-.028-7.086-1.254l-.002.002Z" fill="#233862"/><path d="M890.245 578.155s-.598 5.695-6.127 7.888c-4.95 1.964-10.755-8.472-8.771-12.209.662-1.246 2.56-2.534 4.448-2.858 1.115-.19 1.642.06 3.456-.286 1.675-.32 2.017-.685 2.647-.519.787.207 1.75 1.172 2.302 4.766.477-1.361 1.408-2.239 2.361-2.241.152 0 .588.068.935.32 1.254.912.875 3.015-1.251 5.139Z" fill="#FFB27D"/><path d="M885.811 569.423c-.149.282.968.811 1.599 2.008 1.228 2.325.175 6.312-2.16 7.716-1.382.83-2.194.146-4.709 1.027a12.128 12.128 0 0 0-3.398 1.857c.481 2.96 2.418 5.219 4.729 5.598 2.486.408 4.507-1.51 5.352-2.314.566-.537 2.378-2.255 2.566-4.751.197-2.604-1.535-3.295-.853-5.316.345-1.018 1.089-1.742 1.312-3.505.06-.48.064-.879.056-1.142-1.862-.725-4.278-1.584-4.494-1.176v-.002Z" fill="#233862"/><path d="M912.204 599.746c2.81-4.264 8.402-8.446 13.545-8.075 15.019 1.085 33.532 41.543 20.839 57.567-9.69 12.231-39.624 12.826-66.944-8.335v-7.033a690.051 690.051 0 0 0 32.82 4.948c5.135.646 10.249 1.23 11.2-.781 1.441-3.042-8.843-7.396-12.764-18.754-.541-1.566-3.979-11.526 1.302-19.535l.002-.002Z" fill="#144D94"/><path d="M393.816 825.819v15.771c0 5.096 31.834 9.227 71.101 9.227 39.268 0 71.102-4.131 71.102-9.227v-15.771H393.816Z" fill="#FFA412"/><path d="M536.019 825.819c0 5.096-31.834 9.226-71.102 9.226-39.267 0-71.101-4.13-71.101-9.226 0-5.096 31.834-9.227 71.101-9.227 39.268 0 71.102 4.131 71.102 9.227Z" fill="url(#L)"/><path d="M464.917 835.683c-34.778 0-71.142-3.323-71.142-9.729 0-.352.125-.969.478-.969.352 0 .2.484.2.836 0 4.063 28.94 8.591 70.466 8.591 41.527 0 70.466-4.526 70.466-8.591 0-.352.06-.68.412-.68.353 0 .267.469.267.822 0 6.408-36.367 9.724-71.145 9.724l-.002-.004Z" fill="#FFC76C"/><path d="M458.198 826.334c.697-.484 1.439-.96 2.234-1.429.787-.469 1.812-.894 3.054-1.273 1.249-.379 2.813-.687 4.686-.927 1.876-.239 4.221-.364 7.021-.379a93.175 93.175 0 0 1 7.738.263c2.407.186 4.53.469 6.365.842 1.827.373 3.319.836 4.467 1.386 1.142.551 1.822 1.183 2.041 1.892l8.007.082a8.05 8.05 0 0 1 1.536.141c.446.092.664.207.664.347l.004.66-10.293-.099c-.36.808-1.281 1.546-2.759 2.216-1.471.671-3.351 1.251-5.643 1.741l-3.749-.521a4.301 4.301 0 0 1-.828-.197c-.218-.078-.322-.164-.322-.258 0-.127.289-.271.869-.433.58-.162 1.234-.365 1.964-.604.73-.24 1.443-.523 2.148-.849.699-.326 1.166-.715 1.408-1.17l-24.293-.24c-.637.469-1.359.93-2.146 1.383-.795.453-1.843.861-3.15 1.224-1.31.363-2.938.656-4.889.884-1.958.225-4.408.346-7.372.36a73.12 73.12 0 0 1-6.516-.252c-2.124-.18-4.01-.449-5.656-.805-1.648-.359-2.997-.802-4.058-1.329-1.054-.529-1.644-1.133-1.767-1.82l-6.591-.068a8.683 8.683 0 0 1-1.558-.137c-.455-.088-.686-.205-.686-.35l-.004-.661 9.011.087c.399-.695 1.215-1.3 2.464-1.815 1.248-.516 2.773-.973 4.573-1.375l3.017.414c.917.129 1.372.279 1.374.453 0 .094-.185.209-.564.346-.387.14-.832.304-1.353.497a12.39 12.39 0 0 0-1.5.676c-.49.258-.855.551-1.099.879l22.149.222.002-.004Zm-22.233.898c.18.432.584.803 1.197 1.117.613.313 1.373.572 2.29.772.916.203 1.945.351 3.085.445a41.24 41.24 0 0 0 3.597.134c1.46-.007 2.733-.07 3.819-.189a22.305 22.305 0 0 0 2.858-.484 13.584 13.584 0 0 0 2.148-.709 12.179 12.179 0 0 0 1.642-.877l-20.636-.209Zm52.886-.591c-.18-.438-.623-.822-1.308-1.152-.686-.33-1.566-.607-2.632-.83-1.065-.226-2.31-.392-3.732-.5a57.958 57.958 0 0 0-4.692-.152c-1.519.008-2.837.076-3.932.203-1.095.129-2.046.301-2.858.519-.803.217-1.494.469-2.052.758-.563.289-1.092.599-1.574.927l22.782.227h-.002Z" fill="#FCB048"/><path d="M464.928 817.591c-31.704 0-64.715 2.79-69.993 8.189.207.191.398.394.578.607 4.45-3.749 31.707-7.525 69.417-7.525 37.709 0 66.37 3.972 69.726 7.814.164-.211.34-.412.531-.603-4.363-5.592-37.99-8.484-70.257-8.484l-.002.002Z" fill="url(#M)"/><path d="M374.049 809.254v15.772c0 5.095 31.834 9.226 71.101 9.226 39.267 0 71.102-4.131 71.102-9.226v-15.772H374.049Z" fill="#FFA412"/><path d="M516.254 809.254c0 5.096-31.834 9.226-71.101 9.226-39.267 0-71.102-4.13-71.102-9.226 0-5.096 31.835-9.227 71.102-9.227s71.101 4.131 71.101 9.227Z" fill="#FFA412"/><path d="M445.153 819.116c-34.778 0-71.143-3.321-71.143-9.729 0-.353.125-.97.478-.97.352 0 .201.484.201.837 0 4.063 28.94 8.591 70.466 8.591 41.526 0 70.466-4.526 70.466-8.591 0-.353.059-.681.412-.681.352 0 .266.47.266.822 0 6.408-36.366 9.723-71.144 9.723l-.002-.002Z" fill="#FFC76C"/><path d="M438.433 809.768a36.899 36.899 0 0 1 2.234-1.428c.787-.47 1.812-.894 3.055-1.273 1.248-.38 2.812-.687 4.688-.927 1.875-.24 4.22-.365 7.02-.379a93.232 93.232 0 0 1 7.739.262c2.406.187 4.53.47 6.364.843 1.827.373 3.319.836 4.467 1.385 1.142.552 1.822 1.183 2.042 1.892l8.006.082a8.036 8.036 0 0 1 1.536.142c.447.092.664.207.664.346l.004.66-10.292-.098c-.361.808-1.281 1.546-2.759 2.216-1.472.67-3.352 1.25-5.644 1.74l-3.749-.52a4.377 4.377 0 0 1-.828-.197c-.217-.078-.322-.164-.322-.259 0-.127.289-.27.869-.432.58-.164 1.234-.365 1.964-.605a20.33 20.33 0 0 0 2.148-.848c.699-.326 1.167-.716 1.409-1.171l-24.293-.242c-.638.47-1.359.931-2.147 1.384-.795.453-1.842.861-3.15 1.224-1.31.362-2.94.656-4.889.883-1.958.226-4.407.347-7.371.361a73.98 73.98 0 0 1-6.519-.252c-2.124-.181-4.009-.449-5.656-.806-1.648-.359-2.996-.801-4.056-1.328-1.054-.529-1.644-1.134-1.767-1.82l-6.59-.068a8.667 8.667 0 0 1-1.558-.137c-.455-.089-.687-.205-.687-.351l-.004-.66 9.011.086c.398-.695 1.216-1.3 2.464-1.814 1.248-.517 2.773-.974 4.573-1.375l3.018.414c.916.129 1.371.278 1.373.453 0 .094-.184.209-.564.348-.387.137-.832.303-1.353.496-.512.193-1.018.418-1.5.677-.49.258-.853.551-1.099.879l22.149.221v-.004Zm-22.233.898c.18.433.584.804 1.197 1.117.613.314 1.374.572 2.29.773.916.203 1.945.351 3.085.445 1.148.094 2.347.139 3.597.133 1.46-.008 2.733-.07 3.819-.188a21.99 21.99 0 0 0 2.858-.484 13.584 13.584 0 0 0 2.148-.709 12.068 12.068 0 0 0 1.642-.878l-20.636-.209Zm52.887-.59c-.181-.439-.624-.822-1.31-1.152-.687-.33-1.566-.607-2.632-.83-1.066-.226-2.311-.392-3.733-.501a58.017 58.017 0 0 0-4.692-.151c-1.519.008-2.837.076-3.932.203-1.095.129-2.046.301-2.857.518-.804.218-1.495.47-2.052.759-.564.289-1.093.598-1.575.926l22.783.228Z" fill="#FCB048"/><path d="M445.161 801.026c-31.703 0-64.712 2.79-69.993 8.189.207.191.398.394.579.607 4.45-3.749 31.707-7.525 69.416-7.525 37.709 0 66.37 3.972 69.726 7.814.164-.211.34-.412.531-.603-4.36-5.592-37.99-8.484-70.257-8.484l-.002.002Z" fill="url(#N)"/><path d="M391.106 792.736v15.772c0 5.095 31.835 9.226 71.102 9.226s71.101-4.131 71.101-9.226v-15.772H391.106Z" fill="#FFA412"/><path d="M533.309 792.736c0 5.096-31.834 9.226-71.102 9.226-39.267 0-71.101-4.13-71.101-9.226 0-5.096 31.834-9.227 71.101-9.227 39.268 0 71.102 4.131 71.102 9.227Z" fill="#FFC76C"/><path d="M462.208 802.6c-34.778 0-71.143-3.321-71.143-9.729 0-.352.125-.969.478-.969s.201.484.201.836c0 4.063 28.94 8.591 70.466 8.591 41.526 0 70.466-4.526 70.466-8.591 0-.352.059-.68.412-.68s.267.469.267.822c0 6.405-36.367 9.722-71.145 9.722l-.002-.002Z" fill="#FFC76C"/><path d="M455.488 793.251c.697-.484 1.439-.96 2.235-1.429.787-.47 1.812-.894 3.054-1.273 1.248-.379 2.813-.687 4.688-.927 1.876-.239 4.221-.364 7.021-.379a93.19 93.19 0 0 1 7.738.263c2.407.186 4.53.469 6.365.842 1.826.373 3.319.836 4.469 1.386 1.141.551 1.822 1.183 2.041 1.892l8.007.082c.58.004 1.095.051 1.535.141.447.092.665.207.665.347l.004.66-10.293-.099c-.36.808-1.281 1.546-2.759 2.216-1.472.671-3.351 1.251-5.643 1.741l-3.749-.521a4.301 4.301 0 0 1-.828-.197c-.218-.078-.322-.164-.322-.258 0-.127.289-.271.869-.433.58-.164 1.234-.365 1.964-.604.727-.24 1.443-.523 2.148-.849.699-.326 1.166-.715 1.408-1.171l-24.293-.241c-.637.469-1.359.93-2.146 1.383-.795.453-1.843.861-3.151 1.224-1.309.363-2.939.656-4.888.883-1.958.226-4.408.347-7.372.361a73.574 73.574 0 0 1-6.518-.252c-2.124-.18-4.01-.449-5.656-.805-1.648-.359-2.997-.802-4.057-1.329-1.053-.529-1.644-1.133-1.767-1.82l-6.59-.068a8.683 8.683 0 0 1-1.558-.137c-.455-.088-.686-.205-.686-.351l-.005-.66 9.012.086c.397-.694 1.215-1.299 2.464-1.814 1.248-.516 2.773-.973 4.573-1.375l3.017.414c.917.129 1.372.279 1.374.453 0 .094-.185.209-.564.348-.388.14-.832.304-1.353.497a12.39 12.39 0 0 0-1.5.676c-.49.258-.853.551-1.099.879l22.149.222-.003-.004Zm-22.232.898c.18.432.584.803 1.197 1.117.613.313 1.373.572 2.29.772.916.203 1.945.351 3.085.445 1.147.095 2.347.14 3.597.134 1.46-.009 2.733-.07 3.819-.189a22.348 22.348 0 0 0 2.857-.484c.818-.205 1.54-.441 2.149-.709a12.179 12.179 0 0 0 1.642-.877l-20.636-.209Zm52.886-.591c-.18-.439-.621-.822-1.308-1.152-.686-.33-1.566-.607-2.632-.83-1.066-.226-2.31-.392-3.733-.5a57.958 57.958 0 0 0-4.692-.152c-1.519.008-2.837.076-3.931.203-1.095.129-2.046.301-2.858.519-.803.217-1.494.469-2.052.758-.563.289-1.092.599-1.574.927l22.782.227h-.002Z" fill="#FCB048"/><path d="M462.218 784.508c-31.703 0-64.712 2.79-69.992 8.189.207.191.397.394.578.607 4.45-3.749 31.707-7.525 69.416-7.525 37.709 0 66.371 3.972 69.726 7.814.164-.211.34-.412.531-.603-4.36-5.592-37.99-8.484-70.257-8.484l-.002.002Z" fill="url(#O)"/><path d="M401.456 776.171v15.77c0 5.096 31.832 9.226 71.101 9.226s71.102-4.13 71.102-9.226v-15.77H401.456Z" fill="#FFA412"/><path d="M472.557 785.398c39.268 0 71.102-4.131 71.102-9.227 0-5.095-31.834-9.226-71.102-9.226s-71.101 4.131-71.101 9.226c0 5.096 31.833 9.227 71.101 9.227Z" fill="#FFC76C"/><path d="M472.557 786.036c-34.778 0-71.142-3.321-71.142-9.729 0-.353.125-.97.477-.97.353 0 .201.484.201.837 0 4.063 28.94 8.589 70.464 8.589s70.466-4.526 70.466-8.589c0-.353.06-.683.412-.683.353 0 .267.47.267.822 0 6.408-36.367 9.725-71.145 9.725v-.002Z" fill="#FFA412"/><path d="M465.838 776.686a36.9 36.9 0 0 1 2.234-1.429c.787-.469 1.812-.893 3.054-1.273 1.249-.379 2.813-.686 4.688-.926 1.876-.24 4.221-.365 7.021-.379a93.192 93.192 0 0 1 7.738.262c2.407.187 4.53.47 6.365.843 1.827.373 3.319.836 4.467 1.385 1.142.552 1.822 1.183 2.041 1.892l8.007.082c.58.004 1.095.052 1.536.142.446.092.664.207.664.346l.004.66-10.293-.098c-.36.808-1.281 1.545-2.759 2.216-1.471.67-3.351 1.25-5.643 1.74l-3.749-.521a4.309 4.309 0 0 1-.828-.196c-.218-.078-.322-.164-.322-.259 0-.127.289-.27.869-.432.58-.164 1.234-.365 1.964-.605s1.443-.523 2.148-.848c.699-.326 1.166-.716 1.408-1.171l-24.293-.242c-.637.47-1.359.931-2.146 1.384-.795.453-1.843.861-3.15 1.224-1.31.362-2.938.656-4.889.883-1.958.226-4.408.346-7.372.361a73.881 73.881 0 0 1-6.516-.252c-2.124-.181-4.01-.449-5.656-.806-1.648-.359-2.997-.801-4.056-1.328-1.054-.529-1.644-1.134-1.767-1.82l-6.591-.068a8.683 8.683 0 0 1-1.558-.137c-.455-.089-.686-.205-.686-.351l-.004-.66 9.011.086c.399-.695 1.215-1.3 2.464-1.814 1.248-.517 2.773-.974 4.573-1.376l3.017.415c.917.129 1.372.278 1.374.453 0 .094-.185.209-.564.346-.387.139-.832.303-1.353.496-.512.193-1.019.418-1.5.676-.49.259-.853.552-1.097.88l22.149.221-.004-.002Zm-22.233.898c.18.433.584.804 1.197 1.117.613.314 1.373.572 2.29.773.916.203 1.945.351 3.085.445 1.148.094 2.347.139 3.597.133 1.46-.006 2.733-.07 3.819-.188a22.396 22.396 0 0 0 2.858-.484 13.512 13.512 0 0 0 2.148-.71c.609-.27 1.152-.561 1.642-.877l-20.636-.209Zm52.886-.59c-.18-.439-.623-.822-1.31-1.152-.686-.33-1.566-.607-2.632-.831-1.066-.225-2.31-.391-3.732-.5a57.996 57.996 0 0 0-4.693-.151c-1.519.008-2.837.075-3.931.203-1.095.129-2.046.301-2.858.518-.803.217-1.494.47-2.052.759-.563.289-1.092.598-1.574.926l22.782.228Z" fill="#FCB048"/><path d="M472.568 767.943c-31.703 0-64.714 2.79-69.993 8.19.207.19.4.393.578.606 4.451-3.749 31.708-7.525 69.417-7.525s66.37 3.973 69.726 7.814c.164-.211.34-.412.531-.602-4.362-5.592-37.99-8.485-70.257-8.485l-.002.002Z" fill="url(#P)"/><path d="M393.816 758.3v15.772c0 5.096 31.834 9.226 71.101 9.226 39.268 0 71.102-4.13 71.102-9.226V758.3H393.816Z" fill="#FFA412"/><path d="M536.019 758.3c0 5.096-31.834 9.227-71.102 9.227-39.267 0-71.101-4.131-71.101-9.227s31.834-9.226 71.101-9.226c39.268 0 71.102 4.13 71.102 9.226Z" fill="url(#Q)"/><path d="M464.917 768.162c-34.778 0-71.142-3.321-71.142-9.729 0-.352.125-.969.478-.969.352 0 .2.484.2.836 0 4.063 28.94 8.591 70.466 8.591 41.527 0 70.466-4.526 70.466-8.591 0-.352.06-.68.412-.68.353 0 .267.469.267.822 0 6.405-36.367 9.722-71.145 9.722l-.002-.002Z" fill="#FFC76C"/><path d="M458.198 758.813c.697-.484 1.439-.96 2.234-1.429.787-.47 1.812-.894 3.054-1.273 1.249-.379 2.813-.687 4.686-.927 1.876-.239 4.221-.364 7.021-.379a93.175 93.175 0 0 1 7.738.263c2.407.186 4.53.469 6.365.842 1.827.373 3.319.836 4.467 1.386 1.142.551 1.822 1.183 2.041 1.892l8.007.082a8.05 8.05 0 0 1 1.536.141c.446.092.664.207.664.347l.004.66-10.293-.099c-.36.808-1.281 1.546-2.759 2.216-1.471.671-3.351 1.251-5.643 1.741l-3.749-.521a4.301 4.301 0 0 1-.828-.197c-.218-.078-.322-.164-.322-.258 0-.127.289-.271.869-.433.58-.164 1.234-.365 1.964-.604.73-.24 1.443-.523 2.148-.849.699-.326 1.166-.715 1.408-1.171l-24.293-.241c-.637.469-1.359.93-2.146 1.383-.795.453-1.843.861-3.15 1.224-1.31.363-2.938.656-4.889.884-1.958.225-4.408.346-7.372.36a73.499 73.499 0 0 1-6.516-.252c-2.124-.18-4.01-.449-5.656-.805-1.648-.359-2.997-.802-4.058-1.329-1.054-.529-1.644-1.133-1.767-1.82l-6.591-.068a8.683 8.683 0 0 1-1.558-.137c-.455-.088-.686-.205-.686-.351l-.004-.66 9.011.086c.399-.694 1.215-1.299 2.464-1.814 1.248-.516 2.773-.973 4.573-1.375l3.017.414c.917.129 1.372.279 1.374.453 0 .094-.185.209-.564.346-.387.14-.832.304-1.353.496-.512.193-1.019.419-1.5.677-.49.258-.855.551-1.099.879l22.149.222.002-.002Zm-22.233.898c.18.432.584.803 1.197 1.117.613.313 1.373.572 2.29.772.916.203 1.945.351 3.085.445a41.24 41.24 0 0 0 3.597.134c1.46-.007 2.733-.07 3.819-.189a21.96 21.96 0 0 0 2.858-.484 13.584 13.584 0 0 0 2.148-.709 12.179 12.179 0 0 0 1.642-.877l-20.636-.209Zm52.886-.591c-.18-.439-.623-.822-1.308-1.152-.686-.33-1.566-.607-2.632-.83-1.065-.226-2.31-.392-3.732-.5a57.958 57.958 0 0 0-4.692-.152c-1.519.008-2.837.076-3.932.203-1.095.129-2.046.301-2.858.519-.803.217-1.494.469-2.052.758-.563.289-1.092.599-1.574.927l22.782.227h-.002Z" fill="#FCB048"/><path d="M464.928 750.07c-31.704 0-64.715 2.79-69.993 8.189.207.191.398.394.578.607 4.45-3.749 31.707-7.525 69.417-7.525 37.709 0 66.37 3.972 69.726 7.814.164-.211.34-.412.531-.603-4.363-5.592-37.99-8.484-70.257-8.484l-.002.002Z" fill="url(#R)"/><path d="M374.049 741.733v15.772c0 5.096 31.834 9.226 71.101 9.226 39.267 0 71.102-4.13 71.102-9.226v-15.772H374.049Z" fill="#FFA412"/><path d="M445.153 750.96c39.268 0 71.101-4.131 71.101-9.226 0-5.096-31.833-9.227-71.101-9.227s-71.102 4.131-71.102 9.227c0 5.095 31.834 9.226 71.102 9.226Z" fill="#FFA412"/><path d="M445.153 751.598c-34.778 0-71.143-3.321-71.143-9.729 0-.353.125-.97.478-.97.352 0 .201.484.201.837 0 4.063 28.94 8.591 70.466 8.591 41.526 0 70.466-4.526 70.466-8.591 0-.353.059-.681.412-.681.352 0 .266.47.266.822 0 6.408-36.366 9.725-71.144 9.725l-.002-.004Z" fill="#FFC76C"/><path d="M438.433 742.248a36.9 36.9 0 0 1 2.234-1.429c.787-.469 1.812-.893 3.055-1.272 1.248-.38 2.812-.687 4.688-.927 1.875-.24 4.22-.365 7.02-.379a93.232 93.232 0 0 1 7.739.262c2.406.187 4.53.47 6.364.843 1.827.373 3.319.836 4.467 1.385 1.142.552 1.822 1.183 2.042 1.892l8.006.082a8.036 8.036 0 0 1 1.536.142c.447.092.664.207.664.346l.004.66-10.292-.098c-.361.808-1.281 1.545-2.759 2.216-1.472.67-3.352 1.25-5.644 1.74l-3.749-.521a4.48 4.48 0 0 1-.828-.194c-.217-.078-.322-.164-.322-.259 0-.127.289-.27.869-.432.58-.164 1.234-.365 1.964-.605a20.33 20.33 0 0 0 2.148-.848c.699-.326 1.167-.716 1.409-1.171l-24.293-.242c-.638.47-1.359.931-2.147 1.384-.795.453-1.842.861-3.15 1.224-1.31.362-2.94.656-4.889.883-1.958.226-4.407.347-7.371.361a73.98 73.98 0 0 1-6.519-.252c-2.124-.181-4.009-.449-5.656-.806-1.648-.359-2.996-.801-4.056-1.328-1.054-.529-1.644-1.134-1.767-1.82l-6.59-.068a8.667 8.667 0 0 1-1.558-.137c-.455-.089-.687-.205-.687-.351l-.004-.66 9.011.086c.398-.695 1.216-1.299 2.464-1.814 1.248-.517 2.773-.974 4.573-1.375l3.018.414c.916.129 1.371.278 1.373.453 0 .094-.184.209-.564.346-.387.139-.832.303-1.353.496-.512.193-1.018.418-1.5.677-.49.258-.853.551-1.099.879l22.149.221v-.004Zm-22.233.898c.18.433.584.804 1.197 1.117.613.314 1.374.572 2.29.773.916.201 1.945.351 3.085.445 1.148.094 2.347.139 3.597.133 1.46-.006 2.733-.07 3.819-.188a21.99 21.99 0 0 0 2.858-.484 13.584 13.584 0 0 0 2.148-.709 11.851 11.851 0 0 0 1.642-.878l-20.636-.209Zm52.887-.59c-.181-.439-.624-.822-1.31-1.152-.687-.33-1.566-.607-2.632-.831-1.066-.225-2.311-.391-3.733-.502a58.017 58.017 0 0 0-4.692-.151c-1.519.008-2.837.075-3.932.203-1.095.129-2.046.301-2.857.518-.804.217-1.495.47-2.052.759-.564.289-1.093.598-1.575.926l22.783.228v.002Z" fill="#FCB048"/><path d="M445.161 733.505c-31.703 0-64.712 2.79-69.993 8.19.207.19.398.393.579.606 4.45-3.749 31.707-7.525 69.416-7.525 37.709 0 66.37 3.973 69.726 7.814.164-.211.34-.412.531-.602-4.36-5.592-37.99-8.485-70.257-8.485l-.002.002Z" fill="#FFC76C"/><path d="M391.106 725.218v15.771c0 5.096 31.835 9.227 71.102 9.227s71.101-4.131 71.101-9.227v-15.771H391.106Z" fill="#FFA412"/><path d="M462.207 734.444c39.269 0 71.102-4.131 71.102-9.226 0-5.096-31.833-9.227-71.102-9.227-39.268 0-71.101 4.131-71.101 9.227 0 5.095 31.833 9.226 71.101 9.226Z" fill="#FFC76C"/><path d="M462.208 735.082c-34.778 0-71.143-3.321-71.143-9.729 0-.352.125-.969.478-.969s.201.484.201.836c0 4.063 28.94 8.591 70.466 8.591 41.526 0 70.466-4.526 70.466-8.591 0-.352.059-.682.412-.682s.267.469.267.822c0 6.407-36.367 9.724-71.145 9.724l-.002-.002Z" fill="#FFC76C"/><path d="M455.488 725.733c.697-.484 1.439-.96 2.235-1.429.787-.47 1.812-.894 3.054-1.273 1.248-.379 2.813-.687 4.688-.927 1.876-.239 4.221-.365 7.021-.379a93.19 93.19 0 0 1 7.738.263c2.407.186 4.53.469 6.365.842 1.826.373 3.319.836 4.469 1.386 1.141.551 1.822 1.183 2.041 1.892l8.007.082c.58.004 1.095.051 1.535.141.447.092.665.207.665.347l.004.66-10.293-.099c-.36.808-1.281 1.546-2.759 2.216-1.472.67-3.351 1.251-5.643 1.74l-3.749-.52a4.301 4.301 0 0 1-.828-.197c-.218-.078-.322-.164-.322-.258 0-.127.289-.271.869-.433.58-.164 1.234-.365 1.964-.604.727-.24 1.443-.523 2.148-.849.699-.326 1.166-.716 1.408-1.171l-24.293-.239c-.637.469-1.359.93-2.146 1.383-.795.453-1.843.861-3.151 1.224-1.309.363-2.939.656-4.888.884-1.958.225-4.408.346-7.372.36a73.574 73.574 0 0 1-6.518-.252c-2.124-.18-4.01-.449-5.656-.805-1.648-.359-2.997-.802-4.057-1.329-1.053-.529-1.644-1.133-1.767-1.82l-6.59-.068a8.683 8.683 0 0 1-1.558-.137c-.455-.088-.686-.205-.686-.351l-.005-.66 9.012.087c.397-.695 1.215-1.3 2.464-1.815 1.248-.516 2.773-.973 4.573-1.375l3.017.414c.917.129 1.372.279 1.374.453 0 .092-.185.209-.564.346-.388.14-.832.304-1.353.496-.512.193-1.019.419-1.5.677-.49.258-.853.551-1.099.879l22.149.222-.003-.004Zm-22.232.897c.18.433.584.804 1.197 1.118.613.313 1.373.572 2.29.772.916.201 1.945.351 3.085.445 1.147.095 2.347.14 3.597.133 1.46-.006 2.733-.069 3.819-.188a22.348 22.348 0 0 0 2.857-.484c.818-.205 1.54-.441 2.149-.709a11.957 11.957 0 0 0 1.642-.877l-20.636-.21Zm52.886-.59c-.18-.439-.621-.822-1.308-1.152-.686-.33-1.566-.607-2.632-.83-1.066-.226-2.31-.392-3.733-.502a57.958 57.958 0 0 0-4.692-.152c-1.519.008-2.837.076-3.931.203-1.095.129-2.046.301-2.858.519-.803.217-1.494.469-2.052.758-.563.289-1.092.599-1.574.927l22.782.227-.002.002Z" fill="#FCB048"/><path d="M462.218 716.99c-31.703 0-64.712 2.79-69.992 8.189.207.191.397.394.578.607 4.45-3.749 31.707-7.525 69.416-7.525 37.709 0 66.371 3.972 69.726 7.814.164-.211.34-.412.531-.603-4.36-5.592-37.99-8.484-70.257-8.484l-.002.002Z" fill="url(#S)"/><path d="M382.234 708.653v15.771c0 5.096 31.834 9.227 71.101 9.227 39.268 0 71.102-4.131 71.102-9.227v-15.771H382.234Z" fill="#FFA412"/><path d="M453.335 717.879c39.269 0 71.102-4.131 71.102-9.226 0-5.096-31.833-9.227-71.102-9.227-39.268 0-71.101 4.131-71.101 9.227 0 5.095 31.833 9.226 71.101 9.226Z" fill="#FFA412"/><path d="M453.335 718.515c-34.778 0-71.142-3.321-71.142-9.729 0-.353.125-.97.477-.97.353 0 .201.484.201.837 0 4.063 28.94 8.591 70.466 8.591 41.527 0 70.466-4.526 70.466-8.591 0-.353.06-.681.412-.681.353 0 .267.47.267.822 0 6.406-36.367 9.723-71.145 9.723l-.002-.002Z" fill="#FFC76C"/><path d="M453.346 700.425c-31.703 0-64.712 2.79-69.992 8.189.207.191.399.394.578.607 4.45-3.749 31.707-7.525 69.416-7.525 37.709 0 66.371 3.972 69.726 7.814.164-.211.34-.412.531-.603-4.36-5.592-37.99-8.484-70.257-8.484l-.002.002Z" fill="#FFC76C"/><path d="M557.743 804.867c0 33.634-26.299 60.092-59.913 59.061-34.983-1.074-64.405-31.287-64.405-67.441 0-36.153 29.422-62.399 64.405-58.757 33.614 3.499 59.913 33.505 59.913 67.139v-.002Z" fill="#FFA412"/><path d="M566.826 801.966c0 33.635-26.299 60.092-59.913 59.061-34.983-1.074-64.405-31.287-64.405-67.442 0-36.156 29.422-62.4 64.405-58.758 33.614 3.499 59.913 33.505 59.913 67.139Z" fill="#FFC76C"/><path d="M564.188 801.79c0 32.154-25.164 57.404-57.275 56.363-33.357-1.08-61.365-29.914-61.365-64.362 0-34.448 28.008-59.505 61.365-56.088 32.111 3.29 57.275 31.933 57.275 64.087Z" fill="#FFA412"/><path d="M485.148 608.546c2.802-1.816.248-7.103.098-18.457-.185-13.914 3.511-16.508.543-21.966-3.63-6.675-12.766-9.438-18.82-9.567-1.334-.029-1.646-.758-12.832 2.138-20.15 5.219-25.195-.375-34.218 5.213-8.718 5.399-4.901 11.311-13.367 17.643-13.722 10.264-28.153-.832-37.962 7.752-9.277 8.12-9.491 28.809.267 40.1 11.061 12.799 31.008 8.954 44.377 6.416 2.813-.533 17.02-3.518 31.812-14.435a84.704 84.704 0 0 0 17.377-17.244c.838-.945 2.148-2.088 3.876-2.271 2.075-.221 3.741 1.048 4.545 1.603 4.216 2.921 11.549 4.86 14.301 3.075h.003Z" fill="#233862"/><path d="M473.885 600.921c3.604-3.284 16.465 3.044 24.986 11.442 10.012 9.866 9.243 17.866 17.982 30.125 4.343 6.094 11.79 14.297 24.985 21.482-.934 2.335-1.867 4.672-2.802 7.007-6.379.383-18.906.157-30.592-7.472-8.117-5.301-12.293-12.324-20.316-26.154-8.05-13.88-18.748-32.325-14.245-36.428l.002-.002Z" fill="#215EAB"/><path d="m555.107 788.583-10.038-6.033h-4.53s-1.544 5.746-1.367 6.033c2.019 3.308 11.417 5.824 17.282 6.033.974.035 2.333.039 2.683-.666.595-1.195-2.062-3.702-4.028-5.367h-.002Z" fill="#072E52"/><path d="M544.891 775.968c-.646 3.735.17 5.682 1.051 6.773.619.767 1.169.986 4.846 4.163 1.216 1.052 1.835 1.613 1.693 1.909-.16.336-1.234.153-3.55-.402-5.049-1.214-7.584-1.845-8.204-3.061-.561-1.1-.065-1.596-.098-4.593a15.545 15.545 0 0 0-.738-4.555l5-.232v-.002Z" fill="url(#T)"/><path d="M552.147 746.373s4.537 5.411 3.799 11.344c-.738 5.932-8.681-2.741-9.788-5.672-1.107-2.932-2.401-7.107-2.401-7.107s5.57-3.464 8.392 1.435h-.002Z" fill="#072E52"/><path d="M550.418 737.904s-1.23 6.306 1.117 9.633c1.168 1.658 2.745 3.062 2.281 4.411-.311.904-1.49 1.554-2.49 1.451-1.913-.196-2.975-3.13-3.723-5.198-1.105-3.056-1.72-9.596-1.72-9.596l4.535-.703v.002Z" fill="url(#U)"/><path d="m546.803 743.22 4.184-1.525c2.177-4.971 4.832-13.133 3.944-23.057-2.281-25.516-25.881-39.039-28.503-40.487-6.431 3.227-12.943 7.778-13.179 13.515-.295 7.203 9.516 11.01 18.74 21.542 5.537 6.322 11.453 15.741 14.814 30.01v.002Z" fill="#CA534B"/><path d="M545.298 778.887c4.608-18.004 3.432-32.695 2.101-41.157-2.008-12.791-6.096-38.812-23.468-48.514-3.795-2.119-9.217-4.016-15.827-9.907-5.521-4.92-9.028-10.093-11.145-13.738-23.234-6.816-44.663-4.053-54.119 8.406-1.092 1.439-3.827 4.563-4.358 9.167-1.195 10.391 9.015 22.899 20.47 25.511 14.558 3.319 23.006-11.629 35.903-6.656 3.608 1.392 6.667 4.84 12.785 11.733 7.784 8.772 12.158 16.867 13.814 20.106 4.928 9.644 8.667 16.763 9.212 25.99.128 2.15.203 6.492 2.721 11.176 1.933 3.595 4.552 5.991 6.5 7.473l5.407.408.004.002Z" fill="#CA534B"/><path style="mix-blend-mode:multiply" opacity=".2" d="M438.486 683.147c.529-4.604 3.266-7.728 4.358-9.167 9.456-12.459 30.886-15.222 54.119-8.407 2.117 3.645 5.625 8.819 11.145 13.739 6.611 5.891 12.033 7.787 15.827 9.907 10.608 5.924 16.257 17.932 19.51 29.298-4.825-7.482-8.957-9.472-12.153-9.507-4.576-.051-6.621 3.862-12.084 3.327-5.84-.57-7.175-5.399-11.91-5.955-1.416-.166-3.161.053-5.254 1.168-2.794-2.925-4.876-4.657-7.18-5.546-12.898-4.973-21.346 9.974-35.904 6.655-11.454-2.611-21.665-15.119-20.47-25.51l-.004-.002Z" fill="#B9403A"/><path d="M533.262 697.268a76.452 76.452 0 0 0-11.564.263c-23.182 2.291-29.571 13.756-48.731 16.554-4.532.662-24.711 3.61-33.452-8.056-6.274-8.375-5.325-22.806 1.538-28.482 2.904-2.403 5.78-2.335 24.383-2.167 7.006.063 14.011.086 21.017.176 29.653.377 35.325-1.677 40.721 3.229 2.517 2.287 6.196 7.203 6.088 18.483Z" fill="#CA534B"/><path d="M504.498 667.172s-14.711 2.876-30.221 5.635c-17.551 3.118-36.135 6.09-35.643 4.577 5.027-15.415-.022-25.547-3.638-36.942-2.165-6.779-3.815-14.013-2.532-23.075 3.596-25.335 38.197-15.247 38.197-15.247 11.219.455 12.443 1.635 13.472 2.773 7.183 7.925 9.171 17.153 9.171 17.153 1.783 8.269-.234 11.447 0 18.445.213 6.375 2.282 15.554 11.196 26.677l-.002.004Z" fill="#215EAB"/><path style="mix-blend-mode:soft-light" d="M448.433 671.795s32.461-8.686 51.812-9.77l-51.812 9.77Z" fill="url(#V)"/><path d="M463.145 586.94c.317 1.48 1.931 9.428-1.321 11.474-.705.442-2.06.696-4.768 1.205a65.852 65.852 0 0 1-4.31.662c.151 1.332.6 3.501 2.138 5.475 4.31 5.531 12.955 4.1 14.187 3.874 4.347-.791 8.626-2.136 9.659-2.956 1.572-1.25 2.81-2.187 3.542-3.14-1.683-.814-5.08-2.958-7.359-3.659a41.97 41.97 0 0 0-4.758-1.166l-.717-4.606c-2.099-2.386-4.196-4.774-6.293-7.161v-.002Z" fill="url(#W)"/><path d="M462.991 590.903s.588 5.824 6.248 6.851c5.069.918 8.884-11.33 6.291-14.499-.865-1.058-3.001-2.062-4.854-2.009-1.302.037-5.703 1.714-6.316 6.115-.875-.923-1.968-1.189-2.507-.802-.682.49-.318 1.917-.234 2.239.287 1.119 1.019 1.812 1.37 2.105h.002Z" fill="url(#X)"/><path d="m511.556 670.02-52.962 2.576a2.223 2.223 0 0 0-1.78 1.046l-1.465 2.351c-.73 1.17.147 2.681 1.525 2.628l56.098-2.138-1.418-6.465.002.002Z" fill="url(#Y)"/><path d="m566.64 640.526-54.717 1.06a4.59 4.59 0 0 0-3.901 2.32l-18.947 33.337 57.788-2.302a4.705 4.705 0 0 0 3.849-2.283l17.555-29.328c.749-1.248-.17-2.83-1.625-2.804h-.002Z" fill="url(#Z)"/><path style="mix-blend-mode:multiply" opacity=".3" d="M508.024 643.908a4.588 4.588 0 0 1 3.901-2.32l1.199-.023c.178 1.767.722 3.383 1.802 4.686 3.374 4.074 8.978 1.56 13.158 5.871 4.59 4.735.35 10.37 4.452 14.776 4.319 4.636 11.303.861 19.332 3.829l-1.156 1.931a4.7 4.7 0 0 1-3.847 2.283l-57.788 2.302 18.947-33.337v.002Z" fill="url(#aa)"/><path style="mix-blend-mode:multiply" opacity=".3" d="M474.277 672.807c-17.551 3.118-36.135 6.09-35.643 4.578 5.026-15.415-.022-25.548-3.638-36.943l.947-5.869s6.531 2.811 8.121 9.538c1.593 6.722-.125 11.74 6.361 12.716 4.124.623 12.891 4.856 18.828 10.021.316.279.631.558.933.845 1.76 1.65 3.206 3.39 4.093 5.114h-.002Z" fill="url(#ab)"/><path d="m462.908 668.25 2.069-5.46c-7.62-2.089-18.156-5.176-28.965-9.038-1.693-.605-3.704-1.355-4.362-3.135-1.849-4.995 9.901-10.173 14.468-21.082 4.225-10.09 1.898-24.092-3.003-25.747-10.2-3.441-46.376 41.586-33.456 60.568 7.304 10.731 29.819 12.438 53.249 3.894Z" fill="#215EAB"/><path d="M464.977 662.79c4.782-2.542 10.508.063 10.877.237 1.051.496 2.58 1.38 4.126 2.958.174.238 2.249 3.114 1.494 4.034-.607.738-2.952.128-5.772-1.627a21.842 21.842 0 0 0-5.049-.123c-3.87.357-5.645 1.58-7.049.525-1.03-.773-1.38-2.407-1.009-3.622.398-1.306 1.574-1.952 2.384-2.382h-.002Z" fill="url(#ac)"/><defs><linearGradient id="d" x1="546.524" y1="510.528" x2="546.524" y2="561.723" gradientUnits="userSpaceOnUse"><stop stop-color="#4A7CBB"/><stop offset="1" stop-color="#2AB392"/></linearGradient><linearGradient id="e" x1="474.095" y1="565.069" x2="474.095" y2="569.939" gradientUnits="userSpaceOnUse"><stop stop-color="#4A7CBB"/><stop offset="1" stop-color="#2AB392"/></linearGradient><linearGradient id="f" x1="474.021" y1="650.947" x2="474.021" y2="656.091" gradientUnits="userSpaceOnUse"><stop stop-color="#4A7CBB"/><stop offset="1" stop-color="#2AB392"/></linearGradient><linearGradient id="g" x1="467.501" y1="572.288" x2="467.501" y2="648.846" gradientUnits="userSpaceOnUse"><stop stop-color="#4A7CBB"/><stop offset="1" stop-color="#2AB392"/></linearGradient><linearGradient id="h" x1="474.944" y1="572.323" x2="474.944" y2="648.74" gradientUnits="userSpaceOnUse"><stop stop-color="#4A7CBB"/><stop offset="1" stop-color="#2AB392"/></linearGradient><linearGradient id="i" x1="480.531" y1="572.344" x2="480.531" y2="648.623" gradientUnits="userSpaceOnUse"><stop stop-color="#4A7CBB"/><stop offset="1" stop-color="#2AB392"/></linearGradient><linearGradient id="j" x1="523.781" y1="565.266" x2="523.781" y2="570.064" gradientUnits="userSpaceOnUse"><stop stop-color="#4A7CBB"/><stop offset="1" stop-color="#2AB392"/></linearGradient><linearGradient id="k" x1="523.632" y1="649.915" x2="523.632" y2="654.983" gradientUnits="userSpaceOnUse"><stop stop-color="#4A7CBB"/><stop offset="1" stop-color="#2AB392"/></linearGradient><linearGradient id="l" x1="523.837" y1="572.428" x2="523.837" y2="647.763" gradientUnits="userSpaceOnUse"><stop stop-color="#4A7CBB"/><stop offset="1" stop-color="#2AB392"/></linearGradient><linearGradient id="m" x1="530.402" y1="572.418" x2="530.402" y2="647.593" gradientUnits="userSpaceOnUse"><stop stop-color="#4A7CBB"/><stop offset="1" stop-color="#2AB392"/></linearGradient><linearGradient id="n" x1="517.195" y1="572.418" x2="517.195" y2="647.593" gradientUnits="userSpaceOnUse"><stop stop-color="#4A7CBB"/><stop offset="1" stop-color="#2AB392"/></linearGradient><linearGradient id="o" x1="572.63" y1="565.46" x2="572.63" y2="570.191" gradientUnits="userSpaceOnUse"><stop stop-color="#4A7CBB"/><stop offset="1" stop-color="#2AB392"/></linearGradient><linearGradient id="p" x1="572.419" y1="648.905" x2="572.419" y2="653.894" gradientUnits="userSpaceOnUse"><stop stop-color="#4A7CBB"/><stop offset="1" stop-color="#2AB392"/></linearGradient><linearGradient id="q" x1="572.972" y1="572.524" x2="572.972" y2="646.768" gradientUnits="userSpaceOnUse"><stop stop-color="#4A7CBB"/><stop offset="1" stop-color="#2AB392"/></linearGradient><linearGradient id="r" x1="567.314" y1="572.524" x2="567.314" y2="646.768" gradientUnits="userSpaceOnUse"><stop stop-color="#4A7CBB"/><stop offset="1" stop-color="#2AB392"/></linearGradient><linearGradient id="s" x1="578.956" y1="572.528" x2="578.956" y2="646.629" gradientUnits="userSpaceOnUse"><stop stop-color="#4A7CBB"/><stop offset="1" stop-color="#2AB392"/></linearGradient><linearGradient id="t" x1="619.549" y1="565.647" x2="619.549" y2="570.31" gradientUnits="userSpaceOnUse"><stop stop-color="#4A7CBB"/><stop offset="1" stop-color="#2AB392"/></linearGradient><linearGradient id="u" x1="619.273" y1="647.93" x2="619.273" y2="652.846" gradientUnits="userSpaceOnUse"><stop stop-color="#4A7CBB"/><stop offset="1" stop-color="#2AB392"/></linearGradient><linearGradient id="v" x1="614.326" y1="572.592" x2="614.326" y2="645.917" gradientUnits="userSpaceOnUse"><stop stop-color="#4A7CBB"/><stop offset="1" stop-color="#2AB392"/></linearGradient><linearGradient id="w" x1="619.549" y1="572.6" x2="619.549" y2="645.802" gradientUnits="userSpaceOnUse"><stop stop-color="#4A7CBB"/><stop offset="1" stop-color="#2AB392"/></linearGradient><linearGradient id="x" x1="624.782" y1="572.598" x2="624.782" y2="645.692" gradientUnits="userSpaceOnUse"><stop stop-color="#4A7CBB"/><stop offset="1" stop-color="#2AB392"/></linearGradient><linearGradient id="y" x1="546.167" y1="655.841" x2="546.167" y2="674.304" gradientUnits="userSpaceOnUse"><stop stop-color="#4A7CBB"/><stop offset="1" stop-color="#2AB392"/></linearGradient><linearGradient id="z" x1="545.626" y1="661.963" x2="545.626" y2="674.498" gradientUnits="userSpaceOnUse"><stop stop-color="#4A7CBB"/><stop offset="1" stop-color="#2AB392"/></linearGradient><linearGradient id="A" x1="746.236" y1="531.188" x2="746.236" y2="548.036" gradientUnits="userSpaceOnUse"><stop stop-color="#4A7CBB"/><stop offset="1" stop-color="#2AB392"/></linearGradient><linearGradient id="B" x1="713.145" y1="588.371" x2="713.145" y2="601.09" gradientUnits="userSpaceOnUse"><stop stop-color="#4A7CBB"/><stop offset="1" stop-color="#2AB392"/></linearGradient><linearGradient id="C" x1="745.144" y1="612.529" x2="745.144" y2="626.054" gradientUnits="userSpaceOnUse"><stop stop-color="#4A7CBB"/><stop offset="1" stop-color="#2AB392"/></linearGradient><linearGradient id="D" x1="744.996" y1="638.503" x2="744.996" y2="653.83" gradientUnits="userSpaceOnUse"><stop stop-color="#4A7CBB"/><stop offset="1" stop-color="#2AB392"/></linearGradient><linearGradient id="E" x1="886.032" y1="842.741" x2="902.098" y2="843.206" gradientUnits="userSpaceOnUse"><stop stop-color="#444B8C"/><stop offset="1" stop-color="#26264F"/></linearGradient><linearGradient id="F" x1="895.234" y1="842.96" x2="904.022" y2="829.337" gradientUnits="userSpaceOnUse"><stop stop-color="#FFC444"/><stop offset="1" stop-color="#F36F56"/></linearGradient><linearGradient id="G" x1="832.38" y1="833.339" x2="848.847" y2="837.865" gradientUnits="userSpaceOnUse"><stop stop-color="#444B8C"/><stop offset="1" stop-color="#26264F"/></linearGradient><linearGradient id="H" x1="842.597" y1="835.956" x2="852.605" y2="822.768" gradientUnits="userSpaceOnUse"><stop stop-color="#FFC444"/><stop offset="1" stop-color="#F36F56"/></linearGradient><linearGradient id="I" x1="859.226" y1="625.006" x2="859.226" y2="652.643" gradientUnits="userSpaceOnUse"><stop stop-color="#4A7CBB"/><stop offset="1" stop-color="#2AB392"/></linearGradient><linearGradient id="J" x1="859.418" y1="624.295" x2="859.418" y2="652.041" gradientUnits="userSpaceOnUse"><stop stop-color="#4A7CBB"/><stop offset="1" stop-color="#2AB392"/></linearGradient><linearGradient id="K" x1="862.569" y1="624.295" x2="862.569" y2="652.041" gradientUnits="userSpaceOnUse"><stop stop-color="#4A7CBB"/><stop offset="1" stop-color="#2AB392"/></linearGradient><linearGradient id="L" x1="464.21" y1="819.888" x2="472.834" y2="892.089" gradientUnits="userSpaceOnUse"><stop stop-color="#FFDB44"/><stop offset="1" stop-color="#FEEF06"/></linearGradient><linearGradient id="M" x1="466.326" y1="836.519" x2="463.685" y2="814.424" gradientUnits="userSpaceOnUse"><stop stop-color="#F36F56"/><stop offset=".31" stop-color="#F99C4C"/><stop offset=".55" stop-color="#FDB946"/><stop offset=".68" stop-color="#FFC444"/><stop offset=".8" stop-color="#FEC144"/><stop offset=".87" stop-color="#FDB946"/><stop offset=".92" stop-color="#FBAC49"/><stop offset=".96" stop-color="#F8994D"/><stop offset="1" stop-color="#F57E53"/></linearGradient><linearGradient id="N" x1="446.559" y1="819.954" x2="443.919" y2="797.859" gradientUnits="userSpaceOnUse"><stop stop-color="#F36F56"/><stop offset=".31" stop-color="#F99C4C"/><stop offset=".55" stop-color="#FDB946"/><stop offset=".68" stop-color="#FFC444"/><stop offset=".8" stop-color="#FEC144"/><stop offset=".87" stop-color="#FDB946"/><stop offset=".92" stop-color="#FBAC49"/><stop offset=".96" stop-color="#F8994D"/><stop offset="1" stop-color="#F57E53"/></linearGradient><linearGradient id="O" x1="463.614" y1="803.436" x2="460.976" y2="781.341" gradientUnits="userSpaceOnUse"><stop stop-color="#F36F56"/><stop offset=".31" stop-color="#F99C4C"/><stop offset=".55" stop-color="#FDB946"/><stop offset=".68" stop-color="#FFC444"/><stop offset=".8" stop-color="#FEC144"/><stop offset=".87" stop-color="#FDB946"/><stop offset=".92" stop-color="#FBAC49"/><stop offset=".96" stop-color="#F8994D"/><stop offset="1" stop-color="#F57E53"/></linearGradient><linearGradient id="P" x1="473.964" y1="786.872" x2="471.323" y2="764.776" gradientUnits="userSpaceOnUse"><stop stop-color="#F36F56"/><stop offset=".31" stop-color="#F99C4C"/><stop offset=".55" stop-color="#FDB946"/><stop offset=".68" stop-color="#FFC444"/><stop offset=".8" stop-color="#FEC144"/><stop offset=".87" stop-color="#FDB946"/><stop offset=".92" stop-color="#FBAC49"/><stop offset=".96" stop-color="#F8994D"/><stop offset="1" stop-color="#F57E53"/></linearGradient><linearGradient id="Q" x1="464.21" y1="752.37" x2="472.834" y2="824.57" gradientUnits="userSpaceOnUse"><stop stop-color="#FFDB44"/><stop offset="1" stop-color="#FEEF06"/></linearGradient><linearGradient id="R" x1="466.326" y1="768.998" x2="463.685" y2="746.903" gradientUnits="userSpaceOnUse"><stop stop-color="#F36F56"/><stop offset=".31" stop-color="#F99C4C"/><stop offset=".55" stop-color="#FDB946"/><stop offset=".68" stop-color="#FFC444"/><stop offset=".8" stop-color="#FEC144"/><stop offset=".87" stop-color="#FDB946"/><stop offset=".92" stop-color="#FBAC49"/><stop offset=".96" stop-color="#F8994D"/><stop offset="1" stop-color="#F57E53"/></linearGradient><linearGradient id="S" x1="463.614" y1="735.918" x2="460.976" y2="713.823" gradientUnits="userSpaceOnUse"><stop stop-color="#F36F56"/><stop offset=".31" stop-color="#F99C4C"/><stop offset=".55" stop-color="#FDB946"/><stop offset=".68" stop-color="#FFC444"/><stop offset=".8" stop-color="#FEC144"/><stop offset=".87" stop-color="#FDB946"/><stop offset=".92" stop-color="#FBAC49"/><stop offset=".96" stop-color="#F8994D"/><stop offset="1" stop-color="#F57E53"/></linearGradient><linearGradient id="T" x1="549.759" y1="796.498" x2="519.825" y2="706.693" gradientUnits="userSpaceOnUse"><stop stop-color="#FFC444"/><stop offset="1" stop-color="#F36F56"/></linearGradient><linearGradient id="U" x1="563.141" y1="785.441" x2="543.104" y2="725.331" gradientUnits="userSpaceOnUse"><stop stop-color="#FFC444"/><stop offset="1" stop-color="#F36F56"/></linearGradient><linearGradient id="V" x1="510.867" y1="914.237" x2="458.043" y2="556.574" gradientUnits="userSpaceOnUse"><stop stop-color="#FF9085"/><stop offset="1" stop-color="#FB6FBB"/></linearGradient><linearGradient id="W" x1="463.655" y1="619.167" x2="472.392" y2="579.532" gradientUnits="userSpaceOnUse"><stop stop-color="#FFC444"/><stop offset="1" stop-color="#F36F56"/></linearGradient><linearGradient id="X" x1="469.577" y1="583.852" x2="459.564" y2="635.406" gradientUnits="userSpaceOnUse"><stop stop-color="#FFC444"/><stop offset="1" stop-color="#F36F56"/></linearGradient><linearGradient id="Y" x1="512.974" y1="674.322" x2="455.084" y2="674.322" gradientUnits="userSpaceOnUse"><stop stop-color="#40447E"/><stop offset="1" stop-color="#3C3B6B"/></linearGradient><linearGradient id="Z" x1="549.993" y1="637.806" x2="512.04" y2="675.456" gradientUnits="userSpaceOnUse"><stop stop-color="#40447E"/><stop offset="1" stop-color="#3C3B6B"/></linearGradient><linearGradient id="aa" x1="549.993" y1="637.806" x2="512.04" y2="675.456" gradientUnits="userSpaceOnUse"><stop stop-color="#40447E"/><stop offset="1" stop-color="#3C3B6B"/></linearGradient><linearGradient id="ab" x1="458.003" y1="621.948" x2="449.158" y2="713.046" gradientUnits="userSpaceOnUse"><stop stop-color="#E38DDD"/><stop offset="1" stop-color="#9571F6"/></linearGradient><linearGradient id="ac" x1="476.721" y1="662.906" x2="457.479" y2="681.042" gradientUnits="userSpaceOnUse"><stop stop-color="#FFC444"/><stop offset="1" stop-color="#F36F56"/></linearGradient><filter id="a" x=".532" y="236.797" width="634.762" height="635.857" filterUnits="userSpaceOnUse" color-interpolation-filters="sRGB"><feFlood flood-opacity="0" result="BackgroundImageFix"/><feBlend in="SourceGraphic" in2="BackgroundImageFix" result="shape"/><feGaussianBlur stdDeviation="81.5" result="effect1_foregroundBlur_1905_185"/></filter><filter id="b" x="243.301" y="0" width="778.792" height="778.792" filterUnits="userSpaceOnUse" color-interpolation-filters="sRGB"><feFlood flood-opacity="0" result="BackgroundImageFix"/><feBlend in="SourceGraphic" in2="BackgroundImageFix" result="shape"/><feGaussianBlur stdDeviation="103" result="effect1_foregroundBlur_1905_185"/></filter></defs></svg>