<svg width="744" height="1056" fill="none" xmlns="http://www.w3.org/2000/svg"><g filter="url(#a)"><ellipse cx="146.525" cy="147.045" rx="146.525" ry="147.045" transform="matrix(-1 0 0 1 580.684 371.936)" fill="#27AE60" fill-opacity=".3"/></g><g filter="url(#b)"><circle cx="174.063" cy="174.063" r="174.063" transform="matrix(-1 0 0 1 309.456 188)" fill="#278EAE" fill-opacity=".3"/></g><g filter="url(#c)"><circle cx="184.975" cy="184.975" r="184.975" transform="matrix(-1 0 0 1 189.95 481.05)" fill="#4227AE" fill-opacity=".3"/></g><path d="m417.197 660.992-28.736-91.193 121.576-38.309h.003l51.224-16.144L590 606.537l-95.647 30.141-77.156 24.314Z" fill="#E9EFF8"/><path d="m423.863 647.681-22.308-70.798 155.319-48.944 22.308 70.798-155.319 48.944Zm-17.414-62.791 16.825 53.392a6.878 6.878 0 0 0 8.63 4.493l137.762-43.41a7.003 7.003 0 0 0 4.574-8.784l-16.758-53.179a6.947 6.947 0 0 0-8.711-4.538L410.92 576.303a6.843 6.843 0 0 0-4.471 8.587Z" fill="#92AFF2"/><path d="M484.366 568.764c10.52-3.316 21.736 2.527 25.051 13.044 3.315 10.52-2.527 21.736-13.044 25.051-10.521 3.315-21.736-2.527-25.052-13.044-3.315-10.521 2.525-21.736 13.045-25.051Z" fill="#92AFF2"/><path d="m431.423 615.972-70.245-64.866 86.478-93.647L484.094 418l70.243 64.863-68.033 73.678-54.881 59.431Z" fill="#E9EFF8"/><path d="m430.596 601.11-54.534-50.357L486.54 431.112l54.533 50.358-110.477 119.64Zm-46.311-45.842 41.128 37.978a6.882 6.882 0 0 0 9.723-.387l97.992-106.117a7.001 7.001 0 0 0-.396-9.897l-40.962-37.826a6.95 6.95 0 0 0-9.816.389l-98.053 106.184a6.847 6.847 0 0 0 .384 9.674v.002Z" fill="#92AFF2"/><path d="M443.895 502.561c7.483-8.103 20.118-8.608 28.22-1.125 8.103 7.483 8.608 20.118 1.125 28.22-7.483 8.103-20.118 8.608-28.22 1.125-8.103-7.483-8.608-20.118-1.125-28.22Z" fill="#92AFF2"/><path d="m480.389 718.476-317.2 102.711c-7.494 2.426-15.538-1.682-17.966-9.176L90.31 642.43c-2.426-7.494 1.683-15.537 9.177-17.966l317.2-102.715c7.494-2.426 15.538 1.683 17.967 9.177l54.912 169.58c2.426 7.494-1.683 15.538-9.177 17.967v.003Z" fill="url(#d)"/><path d="m238.489 730-85.727 27.755 1.866 5.764 85.727-27.755-1.866-5.764Zm-27.602 21.673-54.39 17.61 1.866 5.763 54.39-17.609-1.866-5.764Zm-57.685-46.185c1.75 5.407.732 9.463-3.284 10.761-3.837 1.243-7.029-1.593-8.706-6.681-1.691-5.225-.603-9.418 3.309-10.685 4.042-1.31 7.088 1.685 8.681 6.605Zm-8.807 3.02c1.327 4.095 3.116 5.845 4.841 5.287 1.879-.609 2.098-3.183.799-7.199-1.259-3.888-2.902-5.887-4.807-5.27-1.674.541-2.182 3.009-.833 7.18v.002Zm24.535-8.114c1.75 5.408.732 9.463-3.284 10.762-3.837 1.242-7.028-1.593-8.706-6.681-1.691-5.225-.603-9.418 3.31-10.686 4.041-1.31 7.087 1.686 8.68 6.605Zm-8.806 3.024c1.326 4.092 3.116 5.845 4.841 5.286 1.879-.608 2.097-3.183.799-7.199-1.259-3.887-2.903-5.887-4.807-5.27-1.675.541-2.182 3.009-.833 7.18v.003Zm24.534-8.117c1.75 5.408.732 9.463-3.284 10.762-3.837 1.242-7.028-1.593-8.706-6.681-1.691-5.225-.603-9.418 3.31-10.686 4.041-1.309 7.087 1.686 8.68 6.605Zm-8.806 3.024c1.326 4.092 3.116 5.845 4.841 5.287 1.879-.609 2.097-3.184.799-7.197-1.259-3.887-2.903-5.887-4.807-5.27-1.675.541-2.182 3.009-.833 7.18Zm24.535-8.117c1.75 5.407.732 9.463-3.284 10.764-3.837 1.242-7.028-1.593-8.706-6.681-1.691-5.225-.603-9.418 3.31-10.685 4.041-1.31 7.087 1.685 8.68 6.605v-.003Zm-8.806 3.023c1.326 4.092 3.116 5.845 4.841 5.287 1.879-.609 2.097-3.183.799-7.197-1.259-3.887-2.903-5.887-4.807-5.27-1.675.542-2.182 3.01-.833 7.18Zm39.051-12.817c1.751 5.408.732 9.463-3.284 10.762-3.837 1.242-7.028-1.593-8.705-6.681-1.692-5.225-.603-9.418 3.309-10.686 4.042-1.309 7.087 1.686 8.68 6.605Zm-8.806 3.024c1.326 4.092 3.116 5.845 4.841 5.286 1.879-.608 2.098-3.183.799-7.199-1.259-3.887-2.903-5.887-4.807-5.27-1.675.541-2.182 3.009-.833 7.18v.003Zm24.534-8.117c1.751 5.407.732 9.463-3.284 10.761-3.837 1.243-7.028-1.593-8.705-6.68-1.692-5.225-.603-9.418 3.309-10.686 4.042-1.31 7.087 1.686 8.68 6.605Zm-8.806 3.023c1.326 4.092 3.116 5.845 4.841 5.287 1.879-.608 2.098-3.183.799-7.199-1.259-3.888-2.903-5.887-4.807-5.27-1.675.541-2.182 3.009-.833 7.18v.002Zm24.536-8.116c1.75 5.407.732 9.462-3.284 10.764-3.837 1.242-7.029-1.593-8.706-6.681-1.691-5.225-.603-9.418 3.31-10.686 4.041-1.309 7.087 1.686 8.68 6.605v-.002Zm-8.807 3.023c1.327 4.092 3.116 5.845 4.841 5.287 1.879-.609 2.098-3.184.8-7.2-1.26-3.887-2.903-5.887-4.808-5.27-1.674.542-2.182 3.01-.833 7.18v.003Zm24.535-8.117c1.75 5.408.732 9.463-3.284 10.762-3.837 1.242-7.029-1.593-8.706-6.681-1.691-5.225-.603-9.418 3.31-10.686 4.041-1.309 7.087 1.686 8.68 6.605Zm-8.807 3.021c1.327 4.092 3.116 5.845 4.841 5.287 1.879-.609 2.098-3.183.8-7.2-1.26-3.887-2.903-5.887-4.808-5.27-1.674.542-2.182 3.01-.833 7.18v.003Zm39.053-12.815c1.75 5.408.732 9.463-3.285 10.762-3.836 1.242-7.028-1.593-8.705-6.681-1.691-5.225-.603-9.418 3.309-10.685 4.042-1.31 7.088 1.685 8.681 6.604Zm-8.807 3.024c1.327 4.092 3.116 5.845 4.841 5.287 1.879-.609 2.098-3.184.796-7.197-1.259-3.887-2.902-5.887-4.807-5.27-1.674.541-2.182 3.009-.833 7.18h.003Zm24.535-8.117c1.75 5.408.732 9.463-3.285 10.762-3.836 1.242-7.028-1.593-8.705-6.681-1.691-5.225-.603-9.418 3.309-10.686 4.042-1.309 7.088 1.686 8.681 6.605Zm-8.807 3.024c1.327 4.092 3.116 5.845 4.841 5.286 1.879-.608 2.098-3.183.799-7.199-1.259-3.887-2.903-5.887-4.807-5.27-1.674.541-2.182 3.009-.83 7.18l-.003.003Zm24.535-8.114c1.75 5.407.732 9.463-3.284 10.761-3.837 1.243-7.029-1.593-8.706-6.681-1.691-5.225-.603-9.418 3.31-10.685 4.041-1.31 7.087 1.685 8.68 6.605Zm-8.806 3.02c1.326 4.092 3.116 5.845 4.84 5.287 1.88-.609 2.098-3.183.8-7.2-1.26-3.887-2.903-5.886-4.807-5.269-1.675.541-2.182 3.009-.831 7.179l-.002.003Zm24.532-8.114c1.75 5.408.732 9.463-3.284 10.762-3.837 1.242-7.028-1.593-8.706-6.681-1.691-5.225-.603-9.418 3.31-10.686 4.041-1.309 7.087 1.686 8.68 6.605Zm-8.806 3.021c1.326 4.095 3.116 5.845 4.84 5.287 1.88-.609 2.098-3.184.797-7.2-1.259-3.887-2.903-5.887-4.807-5.27-1.675.542-2.182 3.01-.833 7.18l.003.003Zm39.054-12.814c1.75 5.407.732 9.463-3.284 10.764-3.837 1.243-7.029-1.593-8.706-6.68-1.691-5.225-.603-9.418 3.309-10.686 4.042-1.31 7.088 1.686 8.681 6.605v-.003Zm-8.807 3.023c1.327 4.092 3.116 5.845 4.841 5.287 1.879-.608 2.098-3.183.797-7.199-1.26-3.888-2.903-5.887-4.808-5.27-1.674.541-2.182 3.009-.833 7.18l.003.002Zm24.533-8.117c1.75 5.408.732 9.463-3.284 10.762-3.834 1.242-7.029-1.593-8.706-6.681-1.691-5.225-.603-9.418 3.309-10.686 4.042-1.309 7.088 1.686 8.681 6.605Zm-8.807 3.021c1.327 4.092 3.116 5.845 4.841 5.287 1.879-.609 2.098-3.183.797-7.197-1.26-3.887-2.903-5.887-4.808-5.27-1.674.541-2.182 3.01-.833 7.18h.003Zm24.535-8.114c1.75 5.408.732 9.463-3.284 10.762-3.837 1.242-7.029-1.593-8.706-6.681-1.691-5.225-.603-9.418 3.31-10.686 4.041-1.309 7.087 1.686 8.68 6.605Zm-8.807 3.021c1.327 4.092 3.116 5.845 4.841 5.287 1.879-.609 2.098-3.184.799-7.2-1.259-3.887-2.902-5.887-4.807-5.27-1.674.542-2.182 3.01-.83 7.18l-.003.003Zm24.536-8.114c1.75 5.408.732 9.463-3.284 10.764-3.837 1.243-7.029-1.593-8.706-6.68-1.691-5.225-.603-9.418 3.31-10.686 4.041-1.31 7.087 1.686 8.68 6.605v-.003Zm-8.807 3.024c1.327 4.092 3.116 5.845 4.841 5.286 1.879-.608 2.098-3.183.797-7.196-1.26-3.888-2.903-5.887-4.808-5.27-1.674.541-2.182 3.009-.832 7.18h.002Z" fill="#E7D4F4"/><path d="M303.231 743.953v15.019c0 2.875-2.497 5.228-5.542 5.228h-11.41c-3.046 0-5.542-2.353-5.542-5.228v-15.019c0-2.875 2.496-5.228 5.542-5.228h11.41c3.045 0 5.542 2.353 5.542 5.228Z" fill="#92AFF2"/><path d="M303.231 743.953v8.366c0 2.875-2.497 5.228-5.542 5.228h-11.41c-3.046 0-5.542-2.353-5.542-5.228v-8.366c0-2.875 2.496-5.228 5.542-5.228h11.41c3.045 0 5.542 2.353 5.542 5.228Z" fill="#AEC3FF"/><path d="M429.639 751.461a52.654 52.654 0 0 1-4.675 21.699c-9.025 20.042-30.133 34.189-54.573 34.189h-16.94c-21.624 0-40.639-11.076-50.985-27.508-5.245-8.33-8.263-18.039-8.263-28.38a52.678 52.678 0 0 1 4.675-21.7c9.026-20.042 30.134-34.186 54.573-34.186h16.94c22.224 0 41.694 11.699 51.827 28.891 4.726 8.016 7.421 17.223 7.421 26.998v-.003Z" fill="#92AFF2"/><path d="m380.417 783.621-5.528 33.85c-.735 2.622 1.363 5.188 4.238 5.188h14.525c3.113 0 5.966-1.641 7.393-4.252l22.575-42.47-43.2 7.681-.003.003Zm-33.073.581 4.434 33.269c.735 2.622-1.363 5.188-4.238 5.188h-14.525c-3.113 0-5.965-1.64-7.393-4.251l-23.161-38.57 44.883 4.361v.003Zm96.41-17.549c-.334 0-.668-.039-.999-.123-2.574-.64-4.05-3.54-3.845-7.57.199-3.949 1.952-8.122 4.81-11.443a21.364 21.364 0 0 1 4.356-3.845 12.057 12.057 0 0 0-3.203-3.332c-2.373-1.68-4.827-2.162-7.497-1.478-7.18 1.84-13.266 11.519-13.76 12.607-.224.58-.9.892-1.525.695-.637-.199-.979-.849-.769-1.45.213-.603 1.992-3.494 4.474-6.355 4.324-4.989 8.091-6.877 10.489-7.584 3.559-1.049 6.939-.465 10.043 1.734a14.42 14.42 0 0 1 3.806 3.94c2.463-1.296 5.239-2.193 8.26-2.661.662-.104 1.287.319 1.394.945.107.625-.339 1.214-1.001 1.315-2.771.429-5.31 1.254-7.55 2.446.69 1.565 1.124 3.292 1.295 5.158.354 3.836-.462 8.021-2.241 11.487-1.809 3.529-4.193 5.514-6.534 5.514h-.003Zm5.393-20.886a18.964 18.964 0 0 0-3.545 3.195c-2.538 2.95-4.095 6.635-4.269 10.108-.137 2.756.702 4.913 2.039 5.244 1.355.337 3.299-1.38 4.732-4.173 1.568-3.057 2.319-6.905 2.008-10.293a14.648 14.648 0 0 0-.962-4.084l-.003.003Zm-25.525 5.674-.008.02a.064.064 0 0 1 .008-.02Z" fill="#92AFF2"/><path d="M422.218 724.463c1.406 6.445.3 15.659-1.497 20.539-11.957 32.438-40.062 38.294-68.793 40.762-20.429 1.753-49.462-5.923-49.462-5.923-5.245-8.33-8.263-18.039-8.263-28.38a52.678 52.678 0 0 1 4.675-21.7c9.026-20.042 30.134-34.186 54.573-34.186h16.94c22.224 0 41.694 11.699 51.827 28.891v-.003Z" fill="#AEC3FF"/><path d="M346.464 709.576H323.16c-2.35 0-4.255-1.346-4.255-3.006v-30.013c0-.513.171-.979.466-1.382 1.139-1.56 4.134-2.205 6.364-1.013 8.848 4.732 23.343 15.013 24.975 32.203.165 1.736-1.784 3.211-4.246 3.211Z" fill="#AEC3FF"/><path d="M324.108 709.576h-.948c-2.35 0-4.255-1.346-4.255-3.006v-30.013c0-.513.171-.979.466-1.383.101.082.196.169.289.267 5.062 5.315 12.357 15.759 10.304 30.388-.3 2.126-2.827 3.75-5.853 3.75l-.003-.003Z" fill="#92AFF2"/><path d="M311.826 729.638c0-1.809 1.554-3.275 3.472-3.275 1.919 0 3.472 1.466 3.472 3.275s-1.553 3.276-3.472 3.276c-1.918 0-3.472-1.467-3.472-3.276Z" fill="#2B478B"/><path d="M393.232 816.765v4.249c0 .336.124.65.334.914.222.275.541.491.915.611a2.296 2.296 0 0 0 .701.11h80.555c.973 0 1.786-.606 1.929-1.391.009-.054.014-.107.017-.16v-4.418c0-.056-.011-.109-.017-.159-.143-.786-.956-1.392-1.929-1.392h-80.555a2.296 2.296 0 0 0-.701.11 1.93 1.93 0 0 0-.915.611c-.21.261-.334.575-.334.915Z" fill="#FFB93E"/><path d="M432.787 822.649h43.158c.799 0 1.472-.516 1.674-1.212a1.39 1.39 0 0 0 .048-.179 1.47 1.47 0 0 0 .016-.16v-4.418c0-.056-.011-.109-.016-.159a1.362 1.362 0 0 0-.048-.18c-.202-.696-.875-1.212-1.674-1.212h-37.858c-.603 2.216-2.013 5.276-5.3 7.52Zm-29.753 0h.914v-7.52h-.914v7.52Zm3.1 0h.914v-7.52h-.914v7.52Zm3.715 0h.915v-7.52h-.915v7.52Zm5.697 0h.914v-7.52h-.914v7.52Zm6.024 0h.914v-7.52h-.914v7.52Zm9.236 0h.914v-7.52h-.914v7.52Z" fill="#FFA412"/><path d="M439.452 822.649h.914v-7.52h-.914v7.52Zm7.721 0h.914v-7.52h-.914v7.52Zm-47.089 0h.914v-7.52h-.914v7.52Zm-1.946 0h.914v-7.52h-.914v7.52Zm-1.883 0h.914v-7.52h-.914v7.52Zm-1.419-7.494v7.468c.113.017.228.026.343.026h.572v-7.52h-.572a2.25 2.25 0 0 0-.343.026Zm-1.271.695v6.075c.222.275.542.491.915.611v-7.3c-.373.12-.693.336-.915.611v.003Z" fill="#FFA412"/><path d="M401.846 809.245v4.246c0 .34.123.654.331.918.056.067.117.134.185.193.202.182.451.328.732.418a2.467 2.467 0 0 0 .698.112h80.558c.97 0 1.784-.608 1.927-1.394a1.7 1.7 0 0 0 .017-.16v-4.414c0-.053-.012-.107-.017-.16-.143-.785-.957-1.394-1.927-1.394h-80.558c-.05 0-.104 0-.154.008a.21.21 0 0 0-.056.006h-.011c-.023 0-.048 0-.073.009-.017 0-.034.005-.051.008a2.157 2.157 0 0 0-.679.219c-.022.011-.047.028-.07.039a1.69 1.69 0 0 0-.3.213c-.025.02-.045.042-.067.062a.461.461 0 0 0-.039.036.137.137 0 0 0-.02.023l-.017.017a1.466 1.466 0 0 0-.404.998l-.005-.003Z" fill="#FFB93E"/><path d="M441.402 815.129h43.158c.8 0 1.473-.518 1.672-1.214a1.26 1.26 0 0 0 .064-.339v-4.415c0-.053-.011-.106-.017-.16a1.386 1.386 0 0 0-.047-.179c-.199-.696-.872-1.215-1.672-1.215h-37.857c-.014.062-.034.124-.053.186-.631 2.196-2.05 5.154-5.248 7.334v.002Zm-29.754.001h.914v-7.52h-.914v7.52Zm3.099 0h.915v-7.52h-.915v7.52Zm3.716 0h.914v-7.52h-.914v7.52Zm5.697 0h.914v-7.52h-.914v7.52Zm6.024 0h.915v-7.52h-.915v7.52Zm9.236 0h.914v-7.52h-.914v7.52Z" fill="#FFA412"/><path d="M448.066 815.13h.914v-7.52h-.914v7.52Zm7.722 0h.914v-7.52h-.914v7.52Zm-47.091 0h.915v-7.52h-.915v7.52Zm-1.949 0h.914v-7.52h-.914v7.52Zm-1.882 0h.914v-7.52h-.914v7.52Zm-1.415-7.497v7.468c.112.017.227.026.345.026h.572v-7.52h-.572c-.118 0-.233.009-.345.026Zm-1.272.698v6.075c.222.275.541.491.915.612v-7.301a1.945 1.945 0 0 0-.915.611v.003Z" fill="#FFA412"/><path d="M397.684 801.91v4.249c0 .337.123.651.333.915.222.274.539.49.915.611.112.036.232.065.356.087.112.014.227.025.342.025h80.558c.322 0 .628-.067.897-.185.533-.235.926-.673 1.027-1.189a.784.784 0 0 0 .014-.107c0-.022.006-.047.006-.073v-4.417a.98.98 0 0 0-.017-.157c-.143-.788-.957-1.394-1.927-1.394H399.63c-.115 0-.233.009-.342.025a1.78 1.78 0 0 0-.356.085 1.947 1.947 0 0 0-.915.614 1.45 1.45 0 0 0-.333.914v-.003Z" fill="#FFB93E"/><path d="M437.24 807.792h43.158c.289 0 .561-.067.799-.185.48-.236.828-.673.918-1.189a.784.784 0 0 0 .014-.107c0-.022.005-.047.005-.073v-4.417a.878.878 0 0 0-.017-.157 1.642 1.642 0 0 0-.045-.174c-.196-.698-.872-1.22-1.674-1.22h-37.857c-.589 2.151-1.938 5.107-5.034 7.334a5.872 5.872 0 0 1-.264.185l-.003.003Zm-29.754 0h.914v-7.519h-.914v7.519Zm3.099 0h.915v-7.519h-.915v7.519Zm3.717 0h.914v-7.519h-.914v7.519Zm5.695 0h.915v-7.519h-.915v7.519Zm6.025 0h.915v-7.519h-.915v7.519Zm9.236 0h.914v-7.519h-.914v7.519Z" fill="#FFA412"/><path d="M443.905 807.792h.914v-7.519h-.914v7.519Zm7.721 0h.914v-7.519h-.914v7.519Zm-47.09 0h.914v-7.519h-.914v7.519Zm-1.949 0h.914v-7.519h-.914v7.519Zm-1.883 0h.915v-7.519h-.915v7.519Zm-1.416-7.494v7.469c.112.017.227.025.345.025h.572v-7.519h-.572c-.118 0-.233.008-.345.025Zm-1.27.699v6.075c.221.274.541.49.914.611v-7.3c-.373.12-.693.336-.914.611v.003Z" fill="#FFA412"/><path d="M395.754 794.392v4.246c0 .339.124.651.334.914.028.037.059.068.087.101.154.163.342.303.555.404a2.7 2.7 0 0 0 .269.11 2.545 2.545 0 0 0 .525.103c.059.006.118.009.177.009h80.555c.973 0 1.786-.609 1.929-1.394.009-.053.014-.107.017-.157v-4.418c-.05-.796-.785-1.447-1.716-1.539a1.998 1.998 0 0 0-.233-.011h-80.555c-.059 0-.118 0-.177.008-.059.006-.112.011-.168.02a1.759 1.759 0 0 0-.356.084c-.373.12-.693.336-.915.611-.21.261-.333.575-.333.917l.005-.008Z" fill="#FFB93E"/><path d="M435.311 800.273h43.158c.799 0 1.472-.519 1.674-1.214a1.223 1.223 0 0 0 .065-.337v-4.417c-.045-.794-.701-1.448-1.532-1.54a1.568 1.568 0 0 0-.207-.011h-37.857v.011c-.606 2.213-2.017 5.267-5.298 7.508h-.003Zm-29.755 0h.915v-7.519h-.915v7.519Zm3.1 0h.914v-7.519h-.914v7.519Zm3.716 0h.914v-7.519h-.914v7.519Zm5.697 0h.914v-7.519h-.914v7.519Zm6.024 0h.914v-7.519h-.914v7.519Zm9.235 0h.914v-7.519h-.914v7.519Z" fill="#FFA412"/><path d="M441.974 800.273h.915v-7.519h-.915v7.519Zm7.722 0h.914v-7.519h-.914v7.519Zm-47.089 0h.914v-7.519h-.914v7.519Zm-1.951 0h.915v-7.519h-.915v7.519Zm-1.881 0h.914v-7.519h-.914v7.519Zm-1.417-7.494v7.469c.112.017.227.025.345.025h.572v-7.519h-.572c-.118 0-.233.008-.345.025Zm-1.27.696v6.075c.221.275.541.49.914.611v-7.3c-.373.12-.693.336-.914.611v.003Z" fill="#FFA412"/><path d="M401.678 786.881v4.246c0 .339.12.651.331.914.221.278.541.494.917.614.112.037.232.065.353.085.037.008.076.011.112.014h.014c.02 0 .04.005.062.005.017 0 .034 0 .053.006h80.659c1.041 0 1.896-.693 1.946-1.554v-4.414c0-.023 0-.045-.005-.068-.079-.693-.676-1.265-1.461-1.433a.177.177 0 0 0-.059-.011 2.337 2.337 0 0 0-.424-.039h-80.555c-.059 0-.115 0-.174.008-.025 0-.05.006-.073.008h-.008c-.031 0-.059.009-.09.012-.12.016-.241.044-.353.084-.376.12-.696.336-.917.614a1.442 1.442 0 0 0-.331.914l.003-.005Z" fill="#FFB93E"/><path d="M441.234 792.765h43.155c.928 0 1.691-.693 1.739-1.554v-4.414c0-.023 0-.045-.006-.068-.07-.709-.625-1.287-1.352-1.441a.243.243 0 0 0-.073-.014 1.847 1.847 0 0 0-.308-.028h-37.854c-.006.019-.012.033-.014.056-.612 2.204-2.022 5.228-5.267 7.454-.006.006-.012.009-.017.012l-.003-.003Zm-29.755 0h.914v-7.519h-.914v7.519Zm3.099 0h.915v-7.519h-.915v7.519Zm3.717 0h.914v-7.519h-.914v7.519Zm5.695 0h.915v-7.519h-.915v7.519Zm6.025 0h.914v-7.519h-.914v7.519Zm9.233 0h.915v-7.519h-.915v7.519Z" fill="#FFA412"/><path d="M447.895 792.765h.915v-7.519h-.915v7.519Zm7.721 0h.914v-7.519h-.914v7.519Zm-47.087 0h.914v-7.519h-.914v7.519Zm-1.949 0h.914v-7.519h-.914v7.519Zm-1.883 0h.915v-7.519h-.915v7.519Zm-1.416-7.494v7.469c.112.016.227.025.345.025h.572v-7.519h-.572c-.118 0-.233.008-.345.025Zm-1.273.696v6.075c.221.274.541.49.914.611v-7.3c-.373.12-.693.336-.914.611v.003Z" fill="#FFA412"/><path d="M401.846 779.415v4.247c0 .339.123.65.331.914.056.067.117.134.185.196.202.182.451.328.732.418.09.031.185.053.277.07h.009a.307.307 0 0 0 .073.011c.112.017.227.028.342.028h80.558c.084 0 .168-.005.252-.014.034 0 .065-.008.096-.011.821-.126 1.466-.687 1.581-1.383a.935.935 0 0 0 .014-.14v-4.414c0-.054-.011-.107-.016-.16-.143-.785-.957-1.394-1.927-1.394h-80.558c-.051 0-.104 0-.154.006h-.065a.332.332 0 0 0-.073.011c-.017 0-.033 0-.05.008a2.179 2.179 0 0 0-.553.16 1.952 1.952 0 0 0-.645.452 1.474 1.474 0 0 0-.404 1.001l-.005-.006Z" fill="#FFB93E"/><path d="M441.402 785.299h43.259c.037 0 .076-.008.109-.011.78-.093 1.406-.673 1.509-1.399a.962.962 0 0 0 .014-.141v-4.414c0-.054-.011-.107-.016-.16a1.362 1.362 0 0 0-.048-.18c-.199-.695-.872-1.214-1.672-1.214H446.7a2.141 2.141 0 0 1-.053.185c-.626 2.179-2.028 5.105-5.169 7.281-.025.02-.053.034-.079.056l.003-.003Zm-29.754 0h.914v-7.519h-.914v7.519Zm3.099 0h.915v-7.519h-.915v7.519Zm3.716 0h.914v-7.519h-.914v7.519Zm5.697 0h.914v-7.519h-.914v7.519Zm6.024 0h.915v-7.519h-.915v7.519Zm9.236 0h.914v-7.519h-.914v7.519Z" fill="#FFA412"/><path d="M448.066 785.299h.914v-7.519h-.914v7.519Zm7.722 0h.914v-7.519h-.914v7.519Zm-47.091 0h.915v-7.519h-.915v7.519Zm-1.949 0h.914v-7.519h-.914v7.519Zm-1.882 0h.914v-7.519h-.914v7.519Zm-1.415-7.497v7.469c.112.017.227.025.345.025h.572v-7.519h-.572c-.118 0-.233.009-.345.025Zm-1.272.699v6.075c.222.275.541.491.915.611v-7.3a1.93 1.93 0 0 0-.915.611v.003Z" fill="#FFA412"/><path d="M397.684 772.078v4.246c0 .34.123.654.333.918.222.274.539.49.915.611a2.1 2.1 0 0 0 .356.081c.112.017.227.028.342.028h80.558c.322 0 .628-.067.897-.185.533-.233.926-.673 1.027-1.189a.77.77 0 0 0 .014-.106c0-.026.006-.048.006-.073v-4.418c0-.053-.009-.106-.017-.16-.143-.785-.957-1.393-1.927-1.393H399.63c-.115 0-.233.011-.342.028a1.712 1.712 0 0 0-.356.084c-.376.12-.693.336-.915.614a1.45 1.45 0 0 0-.333.914Z" fill="#FFB93E"/><path d="M437.24 777.962h43.158c.289 0 .561-.067.799-.185a1.652 1.652 0 0 0 .932-1.295c0-.026.005-.048.005-.073v-4.418a.977.977 0 0 0-.017-.16 1.69 1.69 0 0 0-.045-.173c-.196-.699-.872-1.22-1.674-1.22h-37.857c-.589 2.153-1.938 5.11-5.034 7.336a10.06 10.06 0 0 1-.264.186l-.003.002Zm-29.754 0h.914v-7.519h-.914v7.519Zm3.099 0h.915v-7.519h-.915v7.519Zm3.717 0h.914v-7.519h-.914v7.519Zm5.695 0h.915v-7.519h-.915v7.519Zm6.025 0h.915v-7.519h-.915v7.519Zm9.236 0h.914v-7.519h-.914v7.519Z" fill="#FFA412"/><path d="M443.905 777.962h.914v-7.519h-.914v7.519Zm7.721 0h.914v-7.519h-.914v7.519Zm-47.09 0h.914v-7.519h-.914v7.519Zm-1.949 0h.914v-7.519h-.914v7.519Zm-1.883 0h.915v-7.519h-.915v7.519Zm-1.416-7.494v7.469c.112.017.227.025.345.025h.572v-7.519h-.572c-.118 0-.233.009-.345.025Zm-1.27.699v6.075c.221.274.541.49.914.611v-7.301a1.936 1.936 0 0 0-.914.612v.003Z" fill="#FFA412"/><path d="M391.1 764.56v4.249c0 .336.124.651.331.911.028.037.059.07.087.104a1.842 1.842 0 0 0 .685.46c.042.017.087.037.137.051a2.286 2.286 0 0 0 .698.109h80.558c.971 0 1.784-.606 1.927-1.391.011-.053.014-.107.017-.16v-4.417c-.048-.797-.783-1.448-1.717-1.54a1.579 1.579 0 0 0-.23-.014h-80.557c-.115 0-.233.011-.343.025-.123.02-.244.048-.356.084a1.975 1.975 0 0 0-.824.511c-.031.033-.062.064-.087.101a1.464 1.464 0 0 0-.331.914l.005.003Z" fill="#FFB93E"/><path d="M430.655 770.44h43.158c.802 0 1.478-.519 1.674-1.217.017-.056.034-.115.045-.174.011-.053.014-.107.017-.16v-4.417c-.042-.797-.699-1.447-1.532-1.54a1.263 1.263 0 0 0-.207-.014h-37.857v.014c-.606 2.213-2.017 5.267-5.298 7.505v.003Zm-29.752.003h.914v-7.519h-.914v7.519Zm3.099 0h.915v-7.519h-.915v7.519Zm3.714 0h.914v-7.519h-.914v7.519Zm5.699 0h.914v-7.519h-.914v7.519Zm6.025 0h.914v-7.519h-.914v7.519Zm9.235 0h.914v-7.519h-.914v7.519Z" fill="#FFA412"/><path d="M437.322 770.443h.914v-7.519h-.914v7.519Zm7.718 0h.914v-7.519h-.914v7.519Zm-47.088 0h.915v-7.519h-.915v7.519Zm-1.949 0h.914v-7.519h-.914v7.519Zm-1.881 0h.915v-7.519h-.915v7.519Zm-1.416-7.494v7.469c.112.016.227.025.345.025h.572v-7.519h-.572c-.118 0-.233.008-.345.025Zm-1.274.696v6.074c.222.275.541.491.914.612v-7.301a1.941 1.941 0 0 0-.914.612v.003Z" fill="#FFA412"/><path d="M401.678 757.051v4.246c0 .34.12.651.331.915.221.277.541.493.917.614a2.49 2.49 0 0 0 .465.098h.014c.025.006.051.006.076.008h80.695c.699 0 1.316-.311 1.658-.779.168-.228.272-.491.289-.772v-4.414c-.042-.699-.615-1.285-1.383-1.481a2.197 2.197 0 0 0-.567-.073h-80.658c-.017 0-.034 0-.051.006-.064 0-.129.011-.191.019-.12.017-.241.045-.353.084a1.08 1.08 0 0 0-.165.062 1.893 1.893 0 0 0-.564.354s-.006.005-.009.011l-.022.019a1.682 1.682 0 0 0-.154.163 1.444 1.444 0 0 0-.331.917l.003.003Z" fill="#FFB93E"/><path d="M441.234 762.935h43.155c.606 0 1.144-.297 1.456-.743a1.54 1.54 0 0 0 .283-.811v-4.414c-.042-.749-.626-1.369-1.386-1.518a1.846 1.846 0 0 0-.353-.033h-37.854c-.014.059-.034.115-.051.174-.625 2.193-2.044 5.149-5.23 7.334-.006 0-.012.008-.017.014l-.003-.003Zm-29.755 0h.914v-7.519h-.914v7.519Zm3.099 0h.915v-7.519h-.915v7.519Zm3.717 0h.914v-7.519h-.914v7.519Zm5.695 0h.915v-7.519h-.915v7.519Zm6.025 0h.914v-7.519h-.914v7.519Zm9.233 0h.915v-7.519h-.915v7.519Z" fill="#FFA412"/><path d="M447.895 762.935h.915v-7.519h-.915v7.519Zm7.721 0h.914v-7.519h-.914v7.519Zm-47.087 0h.914v-7.519h-.914v7.519Zm-1.949 0h.914v-7.519h-.914v7.519Zm-1.883 0h.915v-7.519h-.915v7.519Zm-1.416-7.494v7.469c.112.017.227.025.345.025h.572v-7.519h-.572c-.118 0-.233.008-.345.025Zm-1.273.695v6.075c.221.275.541.491.914.612v-7.301a1.936 1.936 0 0 0-.914.612v.002Z" fill="#FFA412"/><path d="M395.754 749.703v4.246c0 .339.124.654.334.914.222.275.541.491.914.612a2.297 2.297 0 0 0 .702.109h80.555c.311 0 .608-.061.869-.174.586-.246 1.007-.737 1.072-1.312 0-.023.005-.045.005-.068v-4.414c-.048-.797-.785-1.447-1.716-1.54a2.187 2.187 0 0 0-.23-.011h-80.555a2.297 2.297 0 0 0-.702.109 1.941 1.941 0 0 0-.914.612c-.21.261-.334.575-.334.914v.003Z" fill="#FFB93E"/><path d="M435.311 755.587h43.158c.28 0 .544-.062.777-.174.524-.247.897-.738.956-1.313 0-.022.006-.044.006-.067v-4.414c-.042-.797-.701-1.448-1.532-1.54a1.522 1.522 0 0 0-.204-.011h-37.857s0 .008-.003.011c-.589 2.157-1.944 5.113-5.049 7.334a7.238 7.238 0 0 1-.246.174h-.006Zm-29.755 0h.915v-7.519h-.915v7.519Zm3.1 0h.914v-7.519h-.914v7.519Zm3.716 0h.914v-7.519h-.914v7.519Zm5.696 0h.914v-7.519h-.914v7.519Zm6.025 0h.914v-7.519h-.914v7.519Zm9.235 0h.914v-7.519h-.914v7.519Z" fill="#FFA412"/><path d="M441.975 755.587h.914v-7.519h-.914v7.519Zm7.721 0h.914v-7.519h-.914v7.519Zm-47.089 0h.914v-7.519h-.914v7.519Zm-1.951 0h.915v-7.519h-.915v7.519Zm-1.881 0h.914v-7.519h-.914v7.519Zm-1.417-7.494v7.469c.113.016.228.025.345.025h.573v-7.519h-.573c-.117 0-.232.008-.345.025Zm-1.27.695v6.075c.221.275.541.491.914.611v-7.3c-.373.12-.693.336-.914.611v.003Z" fill="#FFA412"/><path d="M393.232 742.195v4.246c0 .339.124.653.334.914.222.275.541.491.915.612.115.039.232.067.356.084.036.005.075.011.112.014.019 0 .042.002.064.005.02 0 .042 0 .065.003h80.659c1.037 0 1.893-.69 1.946-1.554v-4.414c-.053-.861-.909-1.554-1.946-1.554h-80.555a2.228 2.228 0 0 0-.699.109 1.941 1.941 0 0 0-.914.612c-.21.261-.334.575-.334.914l-.003.009Z" fill="#FFB93E"/><path d="M432.79 748.079h43.157c.926 0 1.692-.69 1.739-1.554v-4.415c-.047-.861-.81-1.553-1.739-1.553H438.09c-.603 2.21-2.008 5.264-5.284 7.508-.005.002-.011.008-.016.011v.003Zm-29.756-.001h.914v-7.519h-.914v7.519Zm3.1 0h.914v-7.519h-.914v7.519Zm3.715 0h.915v-7.519h-.915v7.519Zm5.697 0h.914v-7.519h-.914v7.519Zm6.024 0h.914v-7.519h-.914v7.519Zm9.236 0h.914v-7.519h-.914v7.519Z" fill="#FFA412"/><path d="M439.452 748.078h.914v-7.519h-.914v7.519Zm8.636-7.519h-.917v7.52h.917v-7.52Zm-48.004 7.519h.914v-7.519h-.914v7.519Zm-1.946 0h.914v-7.519h-.914v7.519Zm-1.883 0h.914v-7.519h-.914v7.519Zm-1.419-7.493v7.468c.113.017.228.026.345.026h.573v-7.52h-.573c-.117 0-.232.009-.345.026Zm-1.271.695v6.075c.222.275.542.491.915.611v-7.3c-.373.12-.693.336-.915.611v.003Z" fill="#FFA412"/><path d="M418.766 697.702s4.233 5.957 8.112 6.038c3.878.081 9.779-2.76 9.779-2.76s3.562-7.937 1.145-11.044c0 0-2.424-1.063-4.956.813a7.766 7.766 0 0 0-1.313 1.256c-.614.738-1.304 1.159-2.036 1.38-2.768.842-6.052-1.138-7.281.774a12.939 12.939 0 0 1-2.14 2.533c-.76.676-1.312 1.007-1.312 1.007l.002.003Zm55.159 42.967s-14.954-36.236-41.873-36.926c0 0-24.849 2.759-26.229 36.926h68.102Z" fill="#FFEDDC"/><path d="M439.428 704.848s-10.789 2.398-14.119.99c0 0-.502-4.513 4.042-3.879 3.11.432 5.135-1.063 6.327-1.669 1.686-.858 4.199 2.67 3.75 4.558Z" fill="#CA534B"/><path d="M430.038 698.047c.69.519 2.81-7.295 2.81-7.295a7.763 7.763 0 0 0-1.312 1.256c-.614.738-1.304 1.159-2.036 1.38-.006.228-.132 4.154.538 4.659Zm-9.959-1.352c.151.089 5.141 3.079 5.819 3.079.679 0-3.679-5.612-3.679-5.612a12.973 12.973 0 0 1-2.14 2.533Z" fill="#E5C1A1"/><path d="M459.315 730.544c.278-.236-10.582-15.989-13.574-16.104-2.99-.115-9.71 3.449-14.576 3.912-4.866.46-9.581-.92-10.503 1.955-.92 2.875-3.45 13.073-1.899 14.705 1.554 1.632 34.578.636 40.55-4.465l.002-.003Z" fill="#F9DDBF"/><path opacity=".5" d="M449.09 785.243c0 .02 0 .036.005.056.141 2.524.547 5.02 1.209 7.455v.011a36.829 36.829 0 0 0 2.959 7.508 37.445 37.445 0 0 0 5.222 7.519 38.752 38.752 0 0 0 8.852 7.335c.715.434 1.447.849 2.199 1.245.507.266 1.018.519 1.531.763.491.283 1.01.527 1.498.827 1.419.867 3.191 1.557 5.118 2.106v-3.391c0-.056-.011-.109-.017-.159a1.359 1.359 0 0 0-.047-.18c-.202-.695-.875-1.211-1.675-1.211h8.613c.8 0 1.473-.519 1.672-1.215a1.39 1.39 0 0 0 .048-.179 1.47 1.47 0 0 0 .016-.16v-4.415c0-.053-.011-.106-.016-.16a1.39 1.39 0 0 0-.048-.179c-.199-.696-.872-1.215-1.672-1.215h-3.362a1.657 1.657 0 0 0 .931-1.295c0-.023.005-.048.005-.073v-4.418a.982.982 0 0 0-.016-.157 1.995 1.995 0 0 0-.045-.173c-.197-.699-.873-1.221-1.675-1.221h-1.929c.799 0 1.472-.518 1.674-1.214.02-.059.037-.118.048-.179a1.83 1.83 0 0 0 .017-.157v-4.418c-.045-.794-.702-1.447-1.532-1.54h5.716c.928 0 1.691-.692 1.739-1.553v-4.415c0-.022 0-.045-.006-.067-.07-.71-.625-1.287-1.351-1.442.779-.092 1.405-.673 1.508-1.399a.962.962 0 0 0 .014-.14v-4.415c0-.053-.011-.107-.016-.16a1.348 1.348 0 0 0-.048-.179c-.199-.696-.872-1.215-1.672-1.215h-3.362a1.653 1.653 0 0 0 .931-1.295c0-.026.005-.048.005-.073v-4.418c0-.053-.008-.106-.016-.16a2.017 2.017 0 0 0-.045-.174c-.197-.698-.873-1.22-1.675-1.22h-6.582c.802 0 1.478-.518 1.674-1.217a1.073 1.073 0 0 0 .062-.333v-4.418c-.042-.796-.698-1.447-1.531-1.54h10.368c.606 0 1.145-.297 1.456-.743l-.006-.036-1.091-6.67-.005-.036-1.554-9.514a41.574 41.574 0 0 0-5.337 1.075l-.306.084c-.006 0-.011.005-.02.008a39.376 39.376 0 0 0-3.017.971c-.012 0-.017.005-.028.011-4.566 1.663-8.818 4.131-12.506 7.337-.065.056-.132.112-.194.174a37.595 37.595 0 0 0-5.245 5.648c-.314.413-.619.833-.914 1.262-.098.141-.196.281-.289.427-.005 0-.008.008-.008.014a36.921 36.921 0 0 0-3.904 7.508 35.648 35.648 0 0 0-1.952 7.337c-.012.061-.02.123-.031.185a35.815 35.815 0 0 0-.345 7.281v-.006Z" fill="#E2810E"/><path d="M525.618 809.38c15.474-15.475 15.474-40.563 0-56.037-15.474-15.475-40.563-15.474-56.037 0-15.474 15.474-15.474 40.562 0 56.036 15.474 15.475 40.563 15.475 56.037.001Z" fill="#E2810E"/><path d="M480.012 816.868a39.574 39.574 0 0 0 3.177 1.744c18.87 9.267 41.885 2.154 52.141-16.452 9.786-17.748 4.524-39.73-11.53-51.274a39.793 39.793 0 0 0-5.578-3.357 36.897 36.897 0 0 0-1.509-.713 39.602 39.602 0 0 0-11.892-3.197 39.742 39.742 0 0 0-21.632 3.831 39.45 39.45 0 0 0-17.26 16.452c-10.284 18.659-3.946 41.997 14.083 52.966Z" fill="#FFB93E"/><path d="M483.262 814.532c-17.145-9.452-23.402-31.087-13.953-48.232 9.451-17.145 31.087-23.402 48.231-13.953 8.305 4.577 14.329 12.116 16.966 21.226 2.636 9.109 1.565 18.701-3.013 27.006-4.577 8.304-12.116 14.329-21.225 16.965a35.576 35.576 0 0 1-9.917 1.414c-5.915 0-11.766-1.495-17.089-4.429v.003Zm-13.115-47.769c-9.196 16.682-3.104 37.734 13.578 46.93 8.08 4.454 17.414 5.494 26.276 2.931 8.863-2.563 16.2-8.428 20.654-16.508 4.454-8.08 5.497-17.411 2.931-26.277-2.564-8.863-8.425-16.199-16.508-20.653a34.309 34.309 0 0 0-16.621-4.286c-12.189 0-24.022 6.454-30.31 17.863ZM335.692 430.481a4.948 4.948 0 0 0-.665-1.058l-.002-.003a5.21 5.21 0 0 0-.648-.656l-.976-.99-.258.191c-4.998-2.446-15.319.146-25.761 6.964-12.618 8.24-20.721 19.582-18.384 25.612l-.357.263 1.403 1.4c.067.07.137.14.207.207l.039.04.012.008c.356.325.76.606 1.214.844l.009.006c4.933 2.586 15.366.011 25.923-6.88 12.856-8.391 21.023-20.008 18.244-25.946v-.002Z" fill="#FFA412"/><path d="M305.882 433.428c12.856-8.391 25.53-10.383 28.31-4.448 2.779 5.937-5.388 17.551-18.244 25.946-12.857 8.391-25.531 10.383-28.31 4.448-2.78-5.938 5.387-17.552 18.241-25.946h.003Z" fill="#FFB93E"/><path d="M296.651 460.261c-1.043 0-1.994-.118-2.83-.359-1.604-.463-2.714-1.349-3.306-2.637-1.159-2.527-.087-6.279 3.023-10.568 3.038-4.187 7.674-8.436 13.056-11.959 8.265-5.413 16.668-8.024 21.413-6.658 1.605.463 2.715 1.349 3.307 2.637 1.158 2.527.084 6.279-3.023 10.567-3.038 4.188-7.674 8.437-13.056 11.959-6.807 4.457-13.709 7.018-18.584 7.018Zm28.557-31.592c-4.661 0-11.507 2.544-18.098 6.86-5.287 3.464-9.836 7.626-12.809 11.724-2.858 3.94-3.926 7.446-2.931 9.62.471 1.026 1.383 1.741 2.709 2.123.744.213 1.596.317 2.539.317 4.661 0 11.507-2.544 18.098-6.86 5.287-3.464 9.836-7.626 12.809-11.724 2.858-3.94 3.926-7.449 2.931-9.62-.471-1.026-1.383-1.741-2.71-2.123-.743-.213-1.595-.317-2.538-.317Zm1.641 63.769a3.698 3.698 0 0 1 .951-1.242l.71-.718.188.137c3.629-1.775 11.123.107 18.704 5.057 9.163 5.983 15.044 14.217 13.347 18.595l.258.191-1.018 1.015a4.314 4.314 0 0 1-.151.152l-.028.028-.009.005c-.258.236-.552.44-.881.614h-.005v.003c-3.582 1.876-11.157.009-18.819-4.995-9.334-6.094-15.263-14.525-13.244-18.836l-.003-.006Z" fill="#FFA412"/><path d="M348.492 494.578c-9.333-6.094-18.536-7.539-20.552-3.228-2.019 4.311 3.912 12.744 13.243 18.836 9.334 6.094 18.536 7.539 20.553 3.228 2.019-4.311-3.913-12.744-13.244-18.836Z" fill="#FFB93E"/><path d="M341.703 508.966c-3.907-2.558-7.272-5.643-9.477-8.683-2.257-3.113-3.037-5.837-2.196-7.671.429-.934 1.237-1.579 2.401-1.916 3.444-.992 9.547.906 15.546 4.836 3.907 2.558 7.273 5.643 9.477 8.683 2.258 3.113 3.038 5.836 2.196 7.671-.429.934-1.237 1.579-2.401 1.915-.608.174-1.295.261-2.053.261-3.539 0-8.551-1.859-13.493-5.093v-.003Zm-9.081-17.61c-.965.277-1.627.796-1.969 1.542-.724 1.576.05 4.123 2.126 6.984 2.157 2.975 5.46 5.999 9.297 8.512 4.785 3.133 9.755 4.981 13.14 4.981.684 0 1.304-.076 1.843-.23.964-.278 1.626-.797 1.966-1.543.723-1.576-.051-4.123-2.126-6.983-2.157-2.976-5.461-5.999-9.298-8.512-4.784-3.133-9.754-4.981-13.139-4.981-.685 0-1.305.075-1.843.23h.003Z" fill="#FFA412"/><path d="M100.132 690.317c1.983-2.07 1.823-3.602 1.823-3.602s-22.97-18.805-25.298-20.336c-1.587-1.043-18.502-16.04-26.41-25.183-3.922-4.535-8.782-2.777-14.341-1.181l-4.577 1.313c-5.528 1.584-6.964 9.317-2.43 13.072 12.773 10.579 34.021 22.48 37.995 24.981 9.87 6.21 29.188 13.586 29.188 13.586s2.345-.869 4.047-2.65h.003Z" fill="#1E3D70"/><path d="M126.345 805.854s5.573 4.176 14.116 1.969c0 0 6.885-1.568 8.397 1.865 0 0-10.563 5.366-13.235 6.832-2.014 1.105-4.118 2.853-5.601 4.202a2.772 2.772 0 0 1-4.011-.309 54.065 54.065 0 0 1-1.579-2.041c-1.63-2.208-5.424-9.337-5.424-9.337l7.337-3.183v.002Z" fill="#072E52"/><path d="M125.88 680.834c15.22-15.22 15.22-39.897 0-55.117-15.22-15.22-39.897-15.22-55.117 0-15.22 15.22-15.22 39.897 0 55.117 15.22 15.22 39.897 15.22 55.117 0Z" fill="#FFC76C"/><path d="M98.32 689.246c-9.484 0-18.4-3.694-25.106-10.4-6.706-6.706-10.4-15.625-10.4-25.107 0-9.483 3.694-18.402 10.4-25.107 6.706-6.706 15.624-10.4 25.107-10.4 9.482 0 18.401 3.694 25.107 10.4 6.706 6.705 10.4 15.624 10.4 25.107 0 9.482-3.694 18.401-10.4 25.107-6.706 6.706-15.625 10.4-25.107 10.4Zm0-68.899c-18.412 0-33.388 14.979-33.388 33.389 0 18.41 14.98 33.389 33.389 33.389 18.409 0 33.389-14.979 33.389-33.389 0-18.41-14.98-33.389-33.39-33.389Z" fill="#FFA412"/><path d="M113.197 638.08c2.249 4.016 2.805 7.819 1.666 11.406-1.136 3.588-3.826 6.569-8.061 8.939l-7.956 4.454 2.165 3.867 9.283-5.197c.553-.308.973-.204 1.262.309l1.795 3.205c.309.553.188.985-.364 1.293l-9.284 5.197 2.135 3.815c.308.552.204.973-.309 1.262l-4.751 2.661c-.552.309-.984.188-1.293-.364l-2.134-3.814-3.262 1.825c-.553.309-.984.188-1.293-.364l-1.795-3.206c-.289-.516-.157-.928.395-1.237l3.262-1.826-16.365-29.235c-.308-.553-.188-.985.365-1.293l13.484-7.547c4.236-2.37 8.218-3.041 11.943-2.003 3.724 1.035 6.762 3.654 9.115 7.853h-.003Zm-5.449 9.909c.6-1.907.199-4.115-1.204-6.622-1.402-2.507-3.068-3.991-5-4.459-1.933-.469-4.244.053-6.93 1.556l-7.186 4.022 8.198 14.646 7.185-4.022c2.69-1.506 4.336-3.211 4.937-5.121Zm207.426-201.996c-1.549 1.181-2.951 1.846-4.213 1.989-1.262.143-2.241-.241-2.939-1.156l-1.313-1.716-1.489 1.138 1.531 2.006c.09.12.037.255-.162.406l-1.235.943c-.213.162-.364.185-.457.064l-1.531-2.005-1.47 1.122c-.213.163-.361.188-.446.076l-.782-1.027c-.09-.121-.031-.261.182-.423l1.47-1.122-.539-.704c-.089-.121-.03-.261.183-.424l1.234-.942c.199-.152.345-.168.434-.048l.539.704 11.263-8.602c.214-.162.365-.185.458-.064l2.221 2.911c.698.914.788 1.98.266 3.195-.521 1.217-1.59 2.442-3.208 3.676l.003.003Zm-3.391-.272c.67-.078 1.489-.485 2.454-1.223.965-.737 1.57-1.416 1.814-2.036.244-.62.146-1.223-.297-1.803l-1.183-1.551-5.643 4.308 1.183 1.551c.443.58 1.001.833 1.672.754Zm32.962 61.009c-1.29-.903-2.145-1.82-2.566-2.757-.421-.937-.364-1.784.168-2.546l1.002-1.431-1.243-.869-1.169 1.671c-.07.098-.188.09-.354-.025l-1.029-.721c-.177-.123-.233-.235-.163-.336l1.17-1.672-1.226-.855c-.176-.124-.233-.233-.168-.326l.597-.855c.07-.098.194-.087.371.036l1.225.856.41-.586c.07-.098.193-.087.37.036l1.029.721c.166.115.213.224.143.322l-.409.587 9.387 6.565c.177.124.233.236.163.337l-1.697 2.426c-.533.763-1.332 1.091-2.395.99-1.066-.104-2.272-.626-3.621-1.571l.005.003Zm-.622-2.678c.224.496.737 1.026 1.542 1.59.805.564 1.476.861 2.014.897.539.037.976-.188 1.315-.67l.904-1.293-4.704-3.29-.903 1.293c-.339.483-.395.973-.171 1.473h.003Z" fill="#FFA412"/><path d="M129.615 803.731s-3.394 7.828-11.23 6.389c0 0-15.987-13.204-26.956-26.919-3.561-4.453-6.593-8.963-8.377-13.089-7.273-16.836-26.9-41.949-39.38-54.677l31.224-11.294s10.001 20.118 23.307 44.83c9.589 17.803 20.894 37.994 31.409 54.763l.003-.003Z" fill="#215EAB"/><path d="m98.207 748.968-6.774 34.233c-3.562-4.453-6.593-8.963-8.377-13.089-7.273-16.836-26.9-41.949-39.38-54.677L74.9 704.141s10.001 20.118 23.306 44.83v-.003Z" fill="#164D93"/><path d="M72.683 811.489s-.339 6.246 7.23 7.079c0 0 4.687.121 4.699 4.095l-22.8-.009s-.201-1.624-.356-5.056c-.117-2.637 2.555-9.531 2.555-9.531l8.672 3.425v-.003Z" fill="#072E52"/><path d="M64.657 704.135s13.908 15.286 22.74 42.822c4.804 14.982-9.023 54.051-11.676 67.14 0 0-8.91-.628-15.154-3.04 0 0-.474-27.031 3.178-47.864 2.045-11.659-18.314-24.936-27.21-46.005-6.053-14.332 1.31-14.09 10.357-14.433l17.767 1.386-.002-.006Z" fill="#215EAB"/><path d="M48.6 635.946c-7.739 4.37-23.582.339-23.582.339s6.434-7.356 3.511-19.2l6.078 3.085 6.527 3.315s.42 2.092.715 5.85c.076.968.14 2.048.188 3.231 3.974 1.206 6.565 3.383 6.565 3.383l-.002-.003Z" fill="#FFB07B"/><path d="M76.977 703.348c0 1.36-1.568 2.01-1.899 2.078-3.121.569-11.836 3.96-19.689 4.737-6.61.693-12.75.033-19.492-1.318-.892-.18-2.99-.744-3.138-1.599-.185-.934-26.01-52.643-5.935-74.856.471-.522 4.434.418 8.058 1.279 3.346.794 6.417.35 9.157-.749l3.4 1.789c4.173 2.325 12.07 10.588 12.993 17.072.469 3.299 2.356 5.739 2.9 8.639.202 1.074.41 2.12.62 3.141.412 2.002.836 3.909 1.27 5.721a151.058 151.058 0 0 0 3.652 12.773 134.222 134.222 0 0 0 3.722 9.785c1.48 3.495 2.732 6.106 3.511 8.103.553 1.408.87 2.513.87 3.407v-.002Z" fill="#AEC3FF"/><path d="M76.11 699.94c-36.452-17.176-49.078-50.153-49.078-50.153s29.617 10.924 36.923 13.771c.412 2.002.836 3.91 1.27 5.721a151.055 151.055 0 0 0 3.652 12.773 134.18 134.18 0 0 0 3.722 9.785c1.48 3.495 2.731 6.106 3.511 8.103Z" fill="#91B0F2"/><path d="m97.437 689.989 3.149 1.155s13.993-4.989 14.823-2.793c0 0-1.352 3.433-4.471 6.274-1.738 1.585-4.529 3.506-12.438 1.228l-2.71-.499 1.644-5.365h.003Z" fill="#FFB07B"/><path d="M41.664 627.324c-8.047-.238-11.101-2.872-11.101-2.872s2.165-2.877 4.042-4.279l6.526 3.315s.238.081.533 3.836Z" fill="#EA8E50"/><path d="M45.089 621.522s-11.53 8.274-16.573 1.015c-5.043-7.261-9.928-11.081-2.78-16.671 7.15-5.589 10.52-3.822 12.793-1.809 2.271 2.014 9.429 15.129 6.56 17.468v-.003Z" fill="#FFB07B"/><path d="M39.748 597.497c-.412-2.791-1.343-4.754-1.343-4.754s-.724 2.998-6.201 2.583c-5.478-.412-14.16.539-17.055 6.782a13.35 13.35 0 0 0-.494 1.226c-.524-1.386-.65-3.459-.65-3.459-1.041 2.687 0 6.05 0 6.05-.017.098-.029.196-.043.294-1.208 1.021-2.224 4.199-2.224 4.199.365-.886 1.254-1.464 2.048-1.82-.026 4.857 1.946 9.606 5.401 11.019 5.057 2.067 5.015.491 10.1 3.862 0 0 .207-1.624-.137-2.998-.357-1.425-3.874-2.622-1.91-4.274 1.963-1.655 2.686.207 3.41-.931.724-1.136-2.894-4.446 1.758-7.545 4.65-3.102 7.753-7.441 7.34-10.231v-.003Zm.02 197.576c-.76 0-1.514-.345-2.008-.998l-.566-.752a2.5 2.5 0 0 1-.48-1.859 2.479 2.479 0 0 1 .973-1.655l4.32-3.256a2.511 2.511 0 0 1 3.514.494l.566.751c.401.533.572 1.195.48 1.86a2.479 2.479 0 0 1-.974 1.654l-4.319 3.257a2.504 2.504 0 0 1-1.506.504Zm3.75-7.768c-.264 0-.527.081-.754.252l-4.32 3.256a1.25 1.25 0 0 0-.485.828 1.23 1.23 0 0 0 .239.928l.566.752a1.259 1.259 0 0 0 1.759.246l4.319-3.256a1.25 1.25 0 0 0 .485-.827 1.232 1.232 0 0 0-.238-.929l-.567-.751a1.257 1.257 0 0 0-1.004-.499Zm13.344 5.292c-.373 0-.754-.084-1.11-.261l-4.847-2.403a2.504 2.504 0 0 1-1.262-1.447 2.497 2.497 0 0 1 .13-1.916l.417-.841a2.511 2.511 0 0 1 3.363-1.133l4.846 2.403a2.512 2.512 0 0 1 1.133 3.363l-.417.841a2.51 2.51 0 0 1-2.253 1.394Zm-5.547-6.313-.418.844c-.149.297-.171.64-.062.957.107.319.331.574.628.723l4.847 2.404c.62.305 1.374.053 1.68-.567l.418-.841a1.257 1.257 0 0 0-.567-1.683l-4.846-2.404a1.256 1.256 0 0 0-1.68.567Z" fill="#233862"/><path d="M43.958 788.595c.101.569.651.95 1.218.847l6.964-1.246a1.049 1.049 0 0 0-.37-2.064l-6.965 1.245a1.05 1.05 0 0 0-.847 1.218Zm19.84 16.02a2.512 2.512 0 0 1-2.425-1.871l-1.38-5.23a2.51 2.51 0 0 1 1.786-3.066l.909-.241a2.512 2.512 0 0 1 3.065 1.787l1.38 5.23a2.484 2.484 0 0 1-.26 1.902 2.5 2.5 0 0 1-1.526 1.164l-.909.241a2.53 2.53 0 0 1-.64.084Zm-.47-9.236a1.25 1.25 0 0 0-.32.042l-.91.242a1.256 1.256 0 0 0-.891 1.534l1.38 5.23a1.254 1.254 0 0 0 1.534.892l.909-.241a1.25 1.25 0 0 0 .763-.583c.168-.292.216-.629.131-.951l-1.38-5.231a1.257 1.257 0 0 0-1.214-.934h-.003Zm10.185 17.692c-.2 0-.398-.023-.6-.073l-5.253-1.296a2.513 2.513 0 0 1-1.837-3.037l.224-.915a2.514 2.514 0 0 1 3.037-1.837l5.254 1.293c.647.16 1.197.564 1.545 1.139.348.575.451 1.248.291 1.896l-.224.914a2.515 2.515 0 0 1-2.437 1.91v.006Zm-6.246-5.018-.224.915c-.166.67.246 1.352.917 1.517l5.253 1.296a1.255 1.255 0 0 0 1.517-.917l.224-.915a1.253 1.253 0 0 0-.145-.948 1.239 1.239 0 0 0-.772-.569l-5.253-1.293a1.257 1.257 0 0 0-1.517.917v-.003Zm14.63 3.506c-.9 0-1.776-.488-2.225-1.338l-.44-.833a2.513 2.513 0 0 1 1.046-3.39l4.785-2.527a2.505 2.505 0 0 1 1.913-.177 2.495 2.495 0 0 1 1.478 1.223l.44.833c.311.591.376 1.27.177 1.912a2.492 2.492 0 0 1-1.223 1.478l-4.785 2.527a2.494 2.494 0 0 1-1.166.289v.003Zm4.335-7.121c-.201 0-.398.048-.58.143l-4.785 2.527a1.256 1.256 0 0 0-.524 1.694l.44.833a1.257 1.257 0 0 0 1.694.525l4.785-2.527a1.25 1.25 0 0 0 .611-.741 1.257 1.257 0 0 0-.087-.956l-.44-.833a1.246 1.246 0 0 0-1.116-.668l.002.003Zm6.076-1.265a2.48 2.48 0 0 1-1.108-.261l-.841-.418a2.501 2.501 0 0 1-1.262-1.447 2.508 2.508 0 0 1 .126-1.915l2.403-4.847a2.505 2.505 0 0 1 1.447-1.262 2.498 2.498 0 0 1 1.916.129l.841.418a2.512 2.512 0 0 1 1.134 3.363l-2.404 4.846c-.297.6-.81 1.046-1.447 1.262a2.5 2.5 0 0 1-.808.135l.003-.003Zm1.573-9.028c-.134 0-.272.022-.404.067-.32.107-.575.331-.723.628l-2.404 4.847a1.262 1.262 0 0 0 .567 1.68l.841.418c.3.148.64.171.957.061.32-.106.575-.33.723-.628l2.404-4.846a1.257 1.257 0 0 0-.567-1.683l-.841-.418a1.228 1.228 0 0 0-.553-.129v.003Z" fill="#233862"/><path d="M57.622 789.509a1.053 1.053 0 0 0-.205 1.47l4.26 5.648c.348.46 1.01.553 1.47.208.46-.348.553-1.01.205-1.47l-4.26-5.648a1.056 1.056 0 0 0-1.47-.208Zm6.286 12.509a1.053 1.053 0 0 0-.317 1.45l3.817 5.957c.311.485.965.628 1.45.317s.628-.962.317-1.45l-3.817-5.957a1.053 1.053 0 0 0-1.45-.317Zm9.403 8.246c.1.569.65.951 1.217.847l6.964-1.245a1.05 1.05 0 0 0-.37-2.065l-6.964 1.246c-.57.101-.95.65-.847 1.217Zm13.036-4.474c.41.41 1.078.41 1.484 0l5.004-5.003a1.048 1.048 0 1 0-1.484-1.484l-5.004 5.003a1.055 1.055 0 0 0 0 1.484Zm6.813-9.957c.202.542.81.816 1.352.614l6.624-2.484c.542-.202.817-.811.615-1.352a1.054 1.054 0 0 0-1.352-.615l-6.625 2.485a1.053 1.053 0 0 0-.614 1.352Z" fill="#233862"/><path d="M44.594 804.427c-2.227-8.299-10.761-13.221-19.06-10.994-8.299 2.227-13.221 10.761-10.994 19.06 2.227 8.299 10.761 13.221 19.06 10.995 8.3-2.227 13.221-10.762 10.994-19.061Z" fill="#072E52"/><path d="M37.31 799.589a5.11 5.11 0 0 1-2.56-.69 5.115 5.115 0 0 1-2.398-3.121 5.104 5.104 0 0 1 .514-3.902 5.119 5.119 0 0 1 3.121-2.398 5.103 5.103 0 0 1 3.901.514 5.101 5.101 0 0 1 2.395 3.121 5.104 5.104 0 0 1-.513 3.902 5.104 5.104 0 0 1-3.121 2.395 5.215 5.215 0 0 1-1.34.176l.002.003Zm.01-7.499c-.203 0-.407.025-.61.081a2.332 2.332 0 0 0-1.43 1.099 2.342 2.342 0 0 0-.235 1.787 2.354 2.354 0 1 0 2.275-2.965v-.002Z" fill="#072E52"/><path opacity=".5" d="M23.58 795.839c1.45-.889 3.775-1.245 4.552.267.956 1.856-.802 2.723-2.25 3.612-1.45.889-3.219 1.447-4.108-.003-.89-1.45.359-2.987 1.809-3.876h-.003Z" fill="#2B478B"/><path d="m94.111 786.292 17.378-13.084a.972.972 0 0 1 1.411.264l8.991 14.514a.974.974 0 0 1-.263 1.307l-15.143 10.717a.971.971 0 0 1-1.276-.135l-11.227-12.147a.972.972 0 0 1 .13-1.436Z" fill="#072E52"/><path d="M209.004 514.085s-2.342-4.017-8.451-3.918c-6.108.098-5.09 4.063-1.935 4.93s3.155 1.784 6.313 1.683c3.155-.101 4.073-2.695 4.073-2.695Zm106.722 32.923c.639-2.097 2.198.932 5.643.466 0 0 4.369-1.559 6.913-.331 1.888.914 5.514 6.364 1.702 4.903-5.55-2.126-8.888 2.039-11.981.291-3.091-1.747-4.928-3.668-4.928-3.668l2.651-1.661Zm-77.022 78.426c.623.713.702 1.509.393 2.359 0 .003 0 .009-.006.011-.569 1.574-2.448 3.33-4.633 5.082-.278.225-.527.43-.743.62-.056.051-.112.098-.166.149l-.129.115c-2.036 1.876-1.27 2.308-4.927 6.117-4.171 4.339-7.043 4.417-7.862 4.022-.69-.337.713-2.639 2.269-5.225.076-.124.149-.25.227-.376.208-.345.413-.693.62-1.038 1.823-3.113 1.355-4.574.923-9.208-.351-3.766-5.859-21.037-5.859-21.037l7.993-1.377s2.407 13.754 5.06 15.871c1.419 1.13 3.006 1.144 4.369 1.98.096.059.191.118.284.18.774.513 1.565 1.043 2.187 1.758v-.003Z" fill="#FFB27D"/><path d="M238.704 625.435c.623.712.702 1.508.393 2.358 0 .003 0 .009-.006.012-.695 1.57-2.529 3.317-4.638 5.065-.275.23-.519.44-.735.636-.056.051-.112.099-.166.149-.045.039-.087.079-.129.115-2.036 1.876-1.27 2.308-4.927 6.117-4.171 4.339-7.043 4.417-7.862 4.022-.69-.337.712-2.639 2.269-5.225.813-.298 4.583-1.829 7.435-5.478 2.513-3.205 4.188-7.323 5.898-9.709.096.058.191.117.284.179.774.513 1.565 1.043 2.187 1.759h-.003Z" fill="#072E52"/><path d="M174.248 620.439c-.494 2.468-4.011 2.056-7.94 1.097-3.929-.959-2.995.182-8.588-.438-5.592-.619-7.286-2.703-7.457-3.536-.152-.738 2.611-.999 5.575-1.341.373-.042.746-.087 1.122-.134 3.346-.421 5.797-2.581 8.838-4.353 2.88-1.68 7.177-8.524 7.177-8.524l7.671.609s-4.025 6.114-5.582 8.77c-.914 1.562-.866 3.629-.751 5.228.059.867.115 1.753-.059 2.622h-.006Z" fill="#FFB27D"/><path d="M166.308 621.536c-3.929-.959-2.995.183-8.588-.437-5.592-.62-7.286-2.704-7.457-3.537-.152-.738 2.611-.998 5.575-1.341l.028.057s3.355 2.378 8.011 2.49c3.794.093 7.813-.996 10.433-.954.059.867.115 1.753-.059 2.623-.494 2.468-4.011 2.056-7.94 1.096l-.003.003Z" fill="#072E52"/><path d="m203.641 571.4 7.168 19.293 9.359 25.192s2.541.244 4.973-.455c2.241-.648 4.81-2.342 4.81-2.342s-2.6-27.048-7.446-42.574c-1.243-3.986-2.637-7.208-4.171-9.023-7.516-8.882-14.693 9.909-14.693 9.909Z" fill="#B03F37"/><path d="M210.93 540.759c4.698-1.514 18.093.43 31.552 3.066l2.819-4.647 29.067-2.269s10.179 15.784 4.925 29.336l-29.185 9.452c-14.455 0-30.256-10.599-32.343-11.017-3.416-.684-4.785 6.151-8.201 13.325-3.416 7.177-32.118 31.777-32.118 31.777s-4.412.045-6.235-.64c-1.961-.734-2.676-1.688-2.676-1.688s31.805-63.276 42.398-66.695h-.003Z" fill="#CA534B"/><path d="M237.201 498.765c9.168 7.455 31.255 20.376 31.376 20.32 0 0 .959-3.767 5.786-5.845 8.046-3.466 23.651-11.185 12.522-24.611-5.55-6.697-13.462-5.314-12.382-14.219 1.169-9.645-3.186-21.773-14.287-22.283-.928-.042-6.549-.794-10.562.466-10.226 3.208-27.326 41.233-12.45 46.172h-.003Z" fill="#233862"/><path d="M280.449 509.219a254.501 254.501 0 0 0-1.747 8.986c-2.679 15.344-1.826 20.409-2.348 21.856-.28.777-3.887 1.512-8.562 2.014-5.29.564-11.945.833-16.691.519-2.841-.182-5.003-.583-5.772-1.245-3.189-2.771-2.872 3.323-3.306-25.831-.211-14.22 12.068-26.885 12.068-26.885s1.007 7.637 13.185.409c.432-.252 15.229 10.509 13.179 20.182l-.006-.005Z" fill="#AEC3FF"/><path d="m210.81 590.693 9.359 25.192s2.541.244 4.972-.455c2.241-.648 4.81-2.342 4.81-2.342s-2.6-27.048-7.446-42.574l-11.695 20.179Z" fill="#CA534B"/><path d="m254.085 488.624-2.184 18.483s-4.429 5.637-9.842 11.339c-3.924 4.139-8.372 8.313-12.021 10.388-.028.023-.058.037-.084.054-3.626 2.038-10.893-.598-10.893-.598s17.512-26.307 21.024-32.144c2.883-4.787 14-7.519 14-7.519v-.003Zm7.242-.426s15.128-1.874 22.532 7.298c7.404 9.171 10.439 23.205 16.761 29.931 6.321 6.725 16.76 19.913 16.76 19.913s-.799 3.407-6.944 5.393c0 0-20.193-16.962-23.553-21.842-3.36-4.881-14.812-18.932-14.812-18.932l-8.857-17.509-1.887-4.249v-.003Z" fill="#AEC3FF"/><path d="M318.859 552.677s5.847 1.534 6.302 1.377c.998-.342-2.575-2.418-3.503-2.418-.929 0-2.802 1.041-2.802 1.041h.003Z" fill="#FFB27D"/><path d="M203.641 517.593c-.168.536 15.42 10.697 15.42 10.697l7.199-8.458-16.951-6.594s-4.465.538-5.668 4.355Z" fill="#AEC3FF"/><path d="M189.727 502.164c-.236.202-36.483-32.542-36.483-32.542s-.491 5.573 3.559 11.566c4.05 5.997 28.268 25.66 28.268 25.66l4.656-4.684Zm-10.472 10.249c3.918 3.36 4.375 9.281 1.015 13.199-3.36 3.918-9.28 4.375-13.199 1.015-3.918-3.36-4.375-9.281-1.015-13.199 3.36-3.918 9.281-4.375 13.199-1.015Zm-9.814 11.451a5.728 5.728 0 0 0 8.067-.619 5.728 5.728 0 0 0-.62-8.067 5.726 5.726 0 0 0-8.066.62 5.726 5.726 0 0 0 .619 8.066Z" fill="#2A4E96"/><path d="M192.372 499.082c5.118-.673 9.827 2.945 10.501 8.064.673 5.118-2.945 9.827-8.064 10.5-5.118.673-9.827-2.945-10.5-8.06-.673-5.119 2.944-9.828 8.063-10.501v-.003Zm.474 3.61c-3.127.409-5.337 3.29-4.928 6.417a5.73 5.73 0 0 0 6.417 4.928 5.73 5.73 0 0 0 4.928-6.417 5.728 5.728 0 0 0-6.417-4.928Zm-21.717 9.64c.297-.087-7.326-48.336-7.326-48.336s4.936 2.631 7.744 9.301c2.807 6.669 6.049 37.694 6.049 37.694l-6.464 1.341h-.003Z" fill="#2A4E96"/><path d="M173.188 491.016a1.045 1.045 0 1 1-1.942.773 1.045 1.045 0 0 1 1.942-.773Z" fill="#F99746"/><path d="M196.111 512.607s-.289 1.781 1.391 1.781 1.974-3.902 1.469-4.09c-.502-.187-2.622.427-2.86 2.309Zm11.964.342s-1.436-1.588-2.428-2.785c-.993-1.198-1.871-2.536-2.006-1.655-.132.878.668 2.634 1.47 3.245.802.611 2.964 1.198 2.964 1.198v-.003Zm58.766-24.982c.359 1.187-.474 3.75-5.306 5.195-3.055.914-6.126.115-7.076-.665-1.633-1.335-.211-2.258-.444-4.978-.011-.129-.022-.261-.036-.393-.311-3.043-1.192-6.378-1.248-6.594-.003-.005-.003-.008-.003-.008l10.759-3.077-.348.595c.662 5.584 3.276 8.52 3.702 9.925Z" fill="#FFB27D"/><path d="M263.487 477.447c-1.044 3.127-3.89 7.32-9.693 8.226-.561-3.354-1.007-4.925-1.063-5.141-.003-.005-.003-.008-.003-.008l10.759-3.077Z" fill="#ED975D"/><path d="M250.938 483.764s14.501-.965 13.763-9.985c-.741-9.019.634-15.221-8.655-14.988-9.289.236-10.804 3.823-11.289 6.894-.485 3.071 2.392 18.096 6.184 18.076l-.003.003Z" fill="#FFB27D"/><path d="M248.333 458.628s3.604 10.571 12.158 11.799c6.24.898 8.72-.791 8.72-.791s-3.484-3.309-5.371-8.399a4.408 4.408 0 0 0-3.453-2.839c-4.442-.684-10.175-3.626-12.051.227l-.003.003Z" fill="#233862"/><path d="M251.406 460.501s-2.588 1.047-4.394 4.911c-.988 2.112-1.7 7.144-1.091 9.216 0 0-4.171-9.645-1.15-13.992 3.2-4.611 6.635-.135 6.635-.135Z" fill="#233862"/><path d="M278.702 518.199v.006c-2.679 15.344-1.826 20.409-2.348 21.856-.28.777-3.887 1.512-8.562 2.014-7.076-3.825 3.693-7.875 4.947-16.696 1.324-9.323 5.966-7.177 5.966-7.177l-.003-.003Zm-36.643.25c-3.923 4.139-8.372 8.313-12.02 10.388 1.004-1.857 4.01-4.535 6.223-7.424 2.749-3.59 3.893-9.314 5.043-9.468 1.147-.152.754 6.504.754 6.504Z" fill="#85A4E8"/><path d="M100.57 691.279s.684-1.952 1.952-2.538c1.27-.586 3.32-3.172 3.416-2.247.098.929-.878 2.247-.929 3.514-.047 1.271-4.442 1.271-4.442 1.271h.003Z" fill="#FFB07B"/><path d="M100.032 694.443c1.163-3.038 1.304-4.611 1.304-4.611s-23.41-19.206-25.837-20.87c-1.652-1.133-18.106-13.431-26.128-23.017a16.785 16.785 0 0 0-16.32-5.654l-4.998 1.049c-6.033 1.264-7.993 8.901-3.312 12.915 13.182 11.3 35.414 24.406 39.56 27.132 10.29 6.768 33.05 16.25 33.05 16.25s1.763-.805 2.678-3.192l.003-.002Z" fill="#AEC3FF"/><defs><filter id="a" x="124.633" y="208.936" width="619.05" height="620.089" filterUnits="userSpaceOnUse" color-interpolation-filters="sRGB"><feFlood flood-opacity="0" result="BackgroundImageFix"/><feBlend in="SourceGraphic" in2="BackgroundImageFix" result="shape"/><feGaussianBlur stdDeviation="81.5" result="effect1_foregroundBlur_1910_28"/></filter><filter id="b" x="-244.671" y="-18" width="760.127" height="760.127" filterUnits="userSpaceOnUse" color-interpolation-filters="sRGB"><feFlood flood-opacity="0" result="BackgroundImageFix"/><feBlend in="SourceGraphic" in2="BackgroundImageFix" result="shape"/><feGaussianBlur stdDeviation="103" result="effect1_foregroundBlur_1910_28"/></filter><filter id="c" x="-385" y="276.05" width="779.95" height="779.95" filterUnits="userSpaceOnUse" color-interpolation-filters="sRGB"><feFlood flood-opacity="0" result="BackgroundImageFix"/><feBlend in="SourceGraphic" in2="BackgroundImageFix" result="shape"/><feGaussianBlur stdDeviation="102.5" result="effect1_foregroundBlur_1910_28"/></filter><linearGradient id="d" x1="289.938" y1="521.052" x2="289.938" y2="821.884" gradientUnits="userSpaceOnUse"><stop stop-color="#4A7CBB"/><stop offset="1" stop-color="#2AB392"/></linearGradient></defs></svg>