<svg width="801" height="1056" fill="none" xmlns="http://www.w3.org/2000/svg"><g filter="url(#a)"><ellipse cx="309.525" cy="518.98" rx="146.525" ry="147.045" fill="#27AE60" fill-opacity=".3"/></g><g filter="url(#b)"><circle cx="608.291" cy="362.063" r="174.063" fill="#278EAE" fill-opacity=".3"/></g><g filter="url(#c)"><circle cx="738.709" cy="666.025" r="184.975" fill="#2745AE" fill-opacity=".3"/></g><path fill-rule="evenodd" clip-rule="evenodd" d="m679.502 441.831 30.231 23.635-12.76 9.343-17.471-32.978Zm36.638 19.344-35.615-18.973 46.273 16.757-10.658 2.216Z" fill="#D0D9EE"/><path fill-rule="evenodd" clip-rule="evenodd" d="m716.141 461.176-5.317 15.484-1.091-11.194-30.231-23.635 1.024.371 35.615 18.974Z" fill="#AAB9DE"/><path fill-rule="evenodd" clip-rule="evenodd" d="m710.823 476.659-6.747-7.054 5.657-4.139 1.09 11.193Zm9.114 1.312c-1.073-.453-.365-2.002.63-1.581l1.587.638c1.055.447.368 2.002-.642 1.578l-1.572-.632-.003-.003Zm37.681 80.936c.725.206.835 1.198.203 1.552-.163.11-.438.15-.665.087l-1.058-.305c-1.062-.299-.624-1.943.478-1.633l1.045.299h-.003Zm-5.88-1.816c.966.273.641 1.946-.554 1.61l-1.622-.569c-1.134-.478-.356-1.995.581-1.601l1.592.557.003.003Zm-6.274-2.428c.98.415.38 2.007-.702 1.549l.702-1.549Zm-5.874-3.144c.876.644.072 1.998-.952 1.412-.49-.325-.966-.661-1.436-1.015-.878-.711.131-2.016 1.039-1.352.435.334.89.65 1.346.952l.003.003Zm-4.772-4.366c.653.951-.772 1.883-1.386.983a12.121 12.121 0 0 1-.949-1.581c-.482-1.079 1.099-1.708 1.534-.739.233.47.505.905.804 1.337h-.003Zm-1.668-5.833c-.183 1.209-1.848.835-1.694-.177.061-.615.157-1.201.302-1.802.319-1.128 1.94-.609 1.65.421a10.918 10.918 0 0 0-.258 1.555v.003Zm2.167-6.005c-.528.928-2.039.139-1.459-.879.296-.496.612-1.006.94-1.479.705-.96 2.03.113 1.404.963-.311.452-.607.922-.888 1.395h.003Zm3.954-5.369c-.673.83-2.037-.189-1.297-1.105.371-.435.748-.873 1.131-1.3.897-.882 1.976.441 1.268 1.137-.374.415-.743.842-1.105 1.268h.003Zm4.562-4.992c-.849.835-1.984-.435-1.232-1.175l1.174-1.233c.847-.832 1.987.435 1.233 1.178-.394.397-.792.821-1.175 1.23Zm4.694-4.963c-.885.87-1.976-.441-1.259-1.146l1.125-1.256c.836-.821 1.97.27 1.283 1.122l-1.149 1.28Zm4.383-5.37c-.644.876-1.999.073-1.413-.948.311-.458.598-.911.876-1.389.554-.972 2.037-.131 1.477.849-.299.511-.609.998-.94 1.491v-.003Zm2.738-6.573c-.168 1.109-1.851.853-1.682-.255a12.24 12.24 0 0 0 .148-1.587c.034-1.134 1.734-1.064 1.705.041-.02.603-.072 1.204-.168 1.801h-.003Zm-.711-7.127c.386 1.077-1.224 1.631-1.598.592a15.77 15.77 0 0 0-.629-1.485c-.493-1.102 1.099-1.703 1.523-.757.266.525.501 1.096.704 1.647v.003Zm-3.634-6.065c.676.841-.467 1.946-1.3 1.102a27.998 27.998 0 0 0-1.105-1.23c-.763-.774.421-1.998 1.233-1.174.403.423.792.855 1.172 1.302Zm-5.039-4.815c.885.716-.2 2.027-1.058 1.334a42.54 42.54 0 0 0-1.329-1.021c-.896-.658.102-2.039 1.012-1.366.464.345.923.693 1.375 1.053Zm-5.665-3.954c.914.522.142 2.042-.893 1.45l-1.442-.87c-.951-.545-.133-2.039.862-1.468l1.473.891v-.003Zm-5.987-3.382c1.053.603.116 2.025-.78 1.511l-1.509-.766c-.968-.554-.301-1.972.76-1.523l1.529.778Zm-6.173-2.985c.984.415.38 2.007-.702 1.552l-1.546-.69c-.998-.421-.38-2.011.688-1.561l1.563.696-.003.003Z" fill="#8D9FCA"/><path fill-rule="evenodd" clip-rule="evenodd" d="M636.002 483.981c57.211 20.543 73.101 63.171 93.667 95.541 27.223 42.84 44.416 77.681-2.677 117.516-82.673 69.934-270.277 98.781-403.203 51.044-132.925-47.731-125.459-160.169-42.785-230.102 82.67-69.933 222.073-81.734 354.998-33.999Z" fill="#E9EFF8"/><path fill-rule="evenodd" clip-rule="evenodd" d="M310.872 522.425H607.7c14.361 0 26.542 11.771 26.109 26.109l-5.418 178.841c-.432 14.338-11.768 26.109-26.11 26.109H316.294c-14.266 0-25.677-11.754-26.112-26.109l-5.419-178.841c-.432-14.356 11.748-26.109 26.109-26.109Zm.003 14.262c-6.518 0-12.043 5.329-11.849 11.847l5.421 178.841c.192 6.518 5.445 11.849 11.85 11.849h285.99c6.402 0 11.658-5.447 11.85-11.849l5.418-178.841c.198-6.498-5.331-11.847-11.849-11.847H310.875Z" fill="#215EAB"/><path fill-rule="evenodd" clip-rule="evenodd" d="M619.555 548.534c0-5.703-4.081-10.498-9.468-11.606l-.284-.055h-.006l-.29-.05h-.006l-.29-.04h-.003l-.293-.035-.298-.029-.302-.02-.302-.012h-.304l-296.831-.003h-.304l-.302.015-.302.02-.298.026-.293.035h-.006l-.29.04h-.006c-5.668.876-10.045 5.808-10.045 11.711l5.421 178.84c.195 6.518 5.448 11.85 11.85 11.85h285.99c6.402 0 11.658-5.448 11.85-11.85l5.418-178.837h-.006Z" fill="#E9EFF8"/><path fill-rule="evenodd" clip-rule="evenodd" d="M332.016 477.794H586.56c7.591 0 13.802 6.21 13.802 13.801v202.438c0 7.589-6.211 13.802-13.802 13.802H332.016c-7.591 0-13.798-6.21-13.798-13.802V491.595c0-7.591 6.207-13.801 13.798-13.801Z" fill="#fff"/><path fill-rule="evenodd" clip-rule="evenodd" d="M586.559 477.794H332.015c-7.591 0-13.801 6.21-13.801 13.801v7.284h282.144v-7.284c0-7.591-6.211-13.801-13.802-13.801h.003Z" fill="#92AFF2"/><path fill-rule="evenodd" clip-rule="evenodd" d="M338.136 483.545a5.368 5.368 0 0 1 0 10.733 5.367 5.367 0 0 1 0-10.733Zm46.768 0a5.365 5.365 0 0 1 5.366 5.367 5.365 5.365 0 0 1-5.366 5.366 5.365 5.365 0 0 1-5.366-5.366 5.366 5.366 0 0 1 5.366-5.367Zm-23.383 0a5.366 5.366 0 1 1 0 10.733 5.365 5.365 0 0 1-5.366-5.366 5.366 5.366 0 0 1 5.366-5.367Z" fill="#fff"/><path d="M455.502 515.161H336.755v10.15h118.747v-10.15Zm121.453 33.828H337.432v62.249h239.523v-62.249Z" fill="#AAB9DE"/><path fill-rule="evenodd" clip-rule="evenodd" d="M347.581 558.124h219.225v7.782H347.581v-7.782Zm0 30.617h96.759v7.779h-96.759v-7.779Zm0-15.728h96.759v7.78h-96.759v-7.78Z" fill="#fff"/><path fill-rule="evenodd" clip-rule="evenodd" d="M338.368 634.995h239.17v7.783h-239.17v-7.783Zm0 30.617h207.23v7.783h-207.23v-7.783Zm0-15.727h147.391v7.779H338.368v-7.779Z" fill="#AAB9DE"/><path d="M350.98 416.902h86.569a5.387 5.387 0 0 1 5.384 5.383v43.908a5.387 5.387 0 0 1-5.384 5.384h-86.572a5.385 5.385 0 0 1-5.383-5.384v-43.905a5.387 5.387 0 0 1 5.383-5.383l.003-.003Z" fill="url(#d)"/><path fill-rule="evenodd" clip-rule="evenodd" d="M355.021 423.945h49.187c.456 0 .83.374.83.827v4.867c0 .456-.374.83-.83.83h-49.187a.834.834 0 0 1-.83-.83v-4.867c0-.456.375-.827.83-.827Zm12.198 11.269h65.329c.607 0 1.1.285 1.1.636v3.721c0 .348-.496.635-1.1.635h-65.329c-.607 0-1.1-.284-1.1-.635v-3.721c0-.348.496-.636 1.1-.636Zm0 20.506h65.329c.607 0 1.1.284 1.1.632v3.722c0 .348-.496.632-1.1.632h-65.329c-.607 0-1.1-.284-1.1-.632v-3.722c0-.348.496-.632 1.1-.632Zm0-10.252h65.329c.607 0 1.1.285 1.1.633v3.721c0 .348-.496.633-1.1.633h-65.329c-.607 0-1.1-.285-1.1-.633v-3.721c0-.348.496-.633 1.1-.633Z" fill="#fff"/><path fill-rule="evenodd" clip-rule="evenodd" d="M672.56 609.446h-43.128c-9.558 31.78-20.653 50.655-41.968 50.655h138.263c21.315 0 32.41-18.875 41.968-50.655H672.56ZM474.354 452.819h190.081c-2.199-21.843-7.666-36.28-20.92-36.28H502.59c-11.165.879-20.575 12.972-28.236 36.28Z" fill="#AAB9DE"/><path fill-rule="evenodd" clip-rule="evenodd" d="M672.56 609.446c-17.68-71.367 9.413-192.907-29.045-192.907H505.252c54.441 0-22.483 243.562 82.215 243.562 21.315 0 32.41-18.875 41.968-50.655h43.128-.003Z" fill="#E9EFF8"/><path fill-rule="evenodd" clip-rule="evenodd" d="M592.196 659.77c-94.973-10.001-22.452-243.231-75.726-243.231h-11.218c54.441 0-22.483 243.562 82.215 243.562 1.636 0 3.214-.113 4.732-.331h-.003Zm80.869-50.324c-17.683-71.367 9.413-192.907-29.045-192.907h-8.98c38.457 0 11.362 121.54 29.042 192.907h8.983Z" fill="#4A7CBB"/><path fill-rule="evenodd" clip-rule="evenodd" d="M756.46 618.812c-8.943 26.086-19.838 41.289-38.965 41.289h8.235c21.315 0 32.41-18.875 41.968-50.655H620.956c-8.232 27.374-17.604 45.173-33.665 49.582 1.583.316 3.219.562 4.908.742 16.246-2.349 26.057-17.102 34.234-40.958H756.46ZM483.689 452.819c7.013-21.344 15.498-33.283 25.45-35.818a15.908 15.908 0 0 0-3.887-.462h-2.662c-11.165.879-20.575 12.972-28.236 36.28h9.335Z" fill="#4A7CBB"/><path fill-rule="evenodd" clip-rule="evenodd" d="M551.191 430.199h85.035a3.174 3.174 0 0 1 3.164 3.164 3.174 3.174 0 0 1-3.164 3.165h-85.035a3.175 3.175 0 0 1-3.165-3.165 3.172 3.172 0 0 1 3.165-3.164Zm6.074 81.246h84.716a3.174 3.174 0 0 1 3.164 3.165 3.174 3.174 0 0 1-3.164 3.164h-84.716a3.174 3.174 0 0 1-3.165-3.164 3.175 3.175 0 0 1 3.165-3.165Zm0-12.566h84.716a3.174 3.174 0 0 1 3.164 3.165 3.174 3.174 0 0 1-3.164 3.164h-84.716a3.174 3.174 0 0 1-3.165-3.164 3.175 3.175 0 0 1 3.165-3.165Zm0-21.393h53.933a3.174 3.174 0 0 1 3.165 3.165 3.173 3.173 0 0 1-3.165 3.165h-53.933a3.175 3.175 0 0 1-3.165-3.165 3.175 3.175 0 0 1 3.165-3.165Zm-.954-11.82h85.034a3.174 3.174 0 0 1 3.165 3.164 3.172 3.172 0 0 1-3.165 3.165h-85.034a3.174 3.174 0 0 1-3.165-3.165 3.174 3.174 0 0 1 3.165-3.164Zm-.955-11.821h85.035a3.175 3.175 0 0 1 3.165 3.165 3.173 3.173 0 0 1-3.165 3.165h-85.035a3.172 3.172 0 0 1-3.164-3.165 3.174 3.174 0 0 1 3.164-3.165Zm-2.079-11.823h85.034a3.174 3.174 0 0 1 3.165 3.165 3.172 3.172 0 0 1-3.165 3.164h-85.034a3.172 3.172 0 0 1-3.165-3.164 3.17 3.17 0 0 1 3.165-3.165Z" fill="#AAB9DE"/><path fill-rule="evenodd" clip-rule="evenodd" d="M592.575 792.035c-15.205 8.78-39.87 8.78-55.084 0-7.148-4.128-10.939-9.465-11.368-14.872-.023-.328-.035-10.64-.038-10.971-.02-5.772 3.78-1.555 11.406-5.961 15.214-8.783 39.876-8.783 55.084 0 7.557 4.366 11.362.081 11.409 5.799.006.322-.006 10.631-.023 10.953-.36 5.468-4.154 10.875-11.383 15.049l-.003.003Z" fill="#FFB93E"/><path fill-rule="evenodd" clip-rule="evenodd" d="M526.555 763.74a.641.641 0 0 1 .267.523v16.244a13.605 13.605 0 0 1-.699-3.342c-.023-.328-.035-10.64-.038-10.97-.006-1.187.151-1.95.47-2.455Zm2.413 2.458v18.44a17.294 17.294 0 0 1-1.308-2.161v-16.279c0-.357.293-.65.65-.65l.058.006a.645.645 0 0 1 .597.644h.003Zm2.138 1.94v18.788a.647.647 0 0 1-.04.226 20.233 20.233 0 0 1-1.276-1.433v-17.581c0-.359.293-.655.649-.655l.067.005a.652.652 0 0 1 .603.65h-.003Zm2.147 1.935v18.779a.586.586 0 0 1-.049.247 26.255 26.255 0 0 1-1.291-1.123v-17.9c0-.363.299-.659.659-.659h.058a.669.669 0 0 1 .617.659l.006-.003Zm2.143 1.941v18.712c-.47-.319-.919-.641-1.354-.969v-17.743c0-.363.298-.659.658-.659h.067a.668.668 0 0 1 .629.659Zm2.146 1.937v18.11l-.052-.029a35.615 35.615 0 0 1-1.317-.801v-17.283c0-.368.296-.664.665-.664h.061a.678.678 0 0 1 .646.664l-.003.003Zm2.139 1.938v17.314a37.79 37.79 0 0 1-1.386-.722v-16.595c0-.369.304-.67.673-.67h.064c.359.02.649.307.649.67v.003Zm2.143 1.938v16.366a37.612 37.612 0 0 1-1.398-.63v-15.739c0-.371.302-.673.667-.673h.067c.369.02.664.307.664.673v.003Zm.726 16.67v-14.733c0-.371.307-.679.682-.679h.063c.375 0 .676.308.676.679v15.287a48.618 48.618 0 0 1-1.421-.554Zm2.738 1.024v-15.354c0-.374.302-.679.676-.679h.07c.374 0 .678.308.678.679v15.815a47.316 47.316 0 0 1-1.424-.461Zm2.735.847v-15.797c0-.372.307-.679.679-.679h.075c.371 0 .679.307.679.679v16.177c-.482-.122-.96-.25-1.436-.383l.003.003Zm2.739.69v-16.079c0-.377.307-.687.678-.687h.082c.374 0 .681.307.681.687v16.39a74.219 74.219 0 0 1-1.438-.311h-.003Zm2.736.554v-16.23a.69.69 0 0 1 .684-.687h.081a.69.69 0 0 1 .685.687v16.473a72.832 72.832 0 0 1-1.448-.24l-.002-.003Zm2.731.427v-16.25c0-.377.314-.69.691-.69h.084c.377 0 .687.313.687.69v16.427c-.49-.052-.974-.113-1.462-.18v.003Zm2.739.305v-16.152a.69.69 0 0 1 .684-.69h.096c.377 0 .685.313.685.69v16.27a54.23 54.23 0 0 1-1.465-.116v-.002Zm2.732.191v-15.939c0-.377.313-.69.691-.69h.095a.69.69 0 0 1 .691.69v15.997a48.27 48.27 0 0 1-1.474-.058h-.003Zm2.738.081v-15.612c0-.383.314-.693.691-.693h.101c.377 0 .691.313.691.693v15.609a81.11 81.11 0 0 1-1.48.003h-.003Z" fill="#FFB93E"/><path fill-rule="evenodd" clip-rule="evenodd" d="M567.224 798.581v-15.998c0-.382.307-.69.69-.69h.096c.377 0 .69.308.69.69v15.934c-.493.026-.983.046-1.476.064Zm2.784-.148v-16.267c0-.377.308-.691.685-.691h.096a.69.69 0 0 1 .684.691v16.145c-.487.047-.974.087-1.465.122Zm2.784-.264v-16.418c0-.377.308-.69.685-.69h.087c.377 0 .69.31.69.69v16.233c-.484.069-.971.127-1.459.185h-.003Zm2.785-.386v-16.455c0-.375.308-.679.685-.679h.081c.377 0 .685.307.685.679v16.206c-.482.09-.964.171-1.451.249Zm2.782-.516v-16.358c0-.374.308-.678.679-.678h.081c.375 0 .682.307.682.678v16.039c-.479.113-.96.217-1.442.319Zm2.785-.659v-16.119c0-.371.304-.679.681-.679h.076c.371 0 .678.308.678.679v15.725c-.472.139-.954.27-1.435.394Zm2.781-.806v-15.73c0-.375.308-.676.679-.676h.073c.374 0 .673.301.673.676v15.249c-.47.165-.946.327-1.425.481Zm2.785-.983v-15.162c0-.374.302-.673.673-.673h.067c.374 0 .679.302.679.673v14.588c-.464.2-.94.391-1.419.574Zm3.4-16.952v15.472c-.461.227-.928.444-1.404.653v-16.125c0-.374.308-.676.676-.676h.064c.368.02.664.308.664.676Zm1.978-1.79v16.233c-.456.252-.917.496-1.387.734v-16.967c0-.368.302-.67.67-.67h.064c.357.023.65.308.65.67h.003Zm1.979-1.792v16.838c-.441.285-.896.566-1.369.839v-17.677a.67.67 0 0 1 .664-.665h.067a.674.674 0 0 1 .638.665Zm1.981-1.79v17.245c-.432.328-.885.65-1.352.969v-18.214c0-.362.299-.658.659-.658h.066a.665.665 0 0 1 .627.658Zm1.978-1.79v17.39c-.423.388-.87.771-1.34 1.148v-18.535a.66.66 0 0 1 .661-.656h.061a.664.664 0 0 1 .621.656l-.003-.003Zm1.978-1.789v17.131c-.406.479-.847.952-1.317 1.419v-18.55c0-.36.293-.653.65-.653h.064a.655.655 0 0 1 .603.653Zm1.978-1.793v16.137c-.38.659-.812 1.308-1.302 1.949v-18.086c0-.356.293-.649.649-.649l.061.005a.65.65 0 0 1 .592.644Zm.694 14.808v-16.598a.65.65 0 0 1 .65-.644c.284 0 .527.192.612.45.011.122.023.249.029.386v10.515c0 .542-.006.893-.009.948-.107 1.665-.537 3.324-1.282 4.943Z" fill="#E2810E"/><path fill-rule="evenodd" clip-rule="evenodd" d="M592.576 782.041c-15.206 8.784-39.871 8.784-55.085 0-15.205-8.78-15.205-23.02 0-31.8 15.214-8.784 39.876-8.784 55.085 0 15.214 8.78 15.214 23.02 0 31.8Z" fill="#C06E0C"/><path fill-rule="evenodd" clip-rule="evenodd" d="M591.253 781.278c-14.481 8.36-37.953 8.36-52.437 0-14.48-8.357-14.48-21.915 0-30.272 14.484-8.362 37.956-8.362 52.437 0 14.477 8.357 14.477 21.915 0 30.272Z" fill="#E2810E"/><path fill-rule="evenodd" clip-rule="evenodd" d="M586.751 778.679c-11.992 6.921-31.438 6.921-43.429 0-11.995-6.924-11.995-18.152 0-25.073 11.991-6.924 31.435-6.924 43.429 0 11.992 6.927 11.992 18.152 0 25.073Z" fill="#E68600"/><path fill-rule="evenodd" clip-rule="evenodd" d="M586.751 755.215c-11.995-6.924-31.438-6.924-43.43 0-5.645 3.258-8.629 7.467-8.96 11.731.333 4.267 3.318 8.479 8.96 11.736 11.992 6.921 31.438 6.921 43.43 0 5.639-3.257 8.629-7.466 8.96-11.73-.334-4.27-3.324-8.479-8.96-11.737Z" fill="#F29919"/><path fill-rule="evenodd" clip-rule="evenodd" d="m557.236 773.916 5.772-3.336c2.063 2.53-2.047 4.624-5.772 3.336Zm15.435-13.146-5.462 3.156c-1.741-2.112 1.575-4.255 5.462-3.156Zm7.333-4.183-1.291.749c-11.081-5.816-26.852 1.871-18.06 10.373l-7.461 4.31c-1.023-.879-1.737-1.833-2.14-2.86-.511-1.279-2.547-2.155-4.813-2.01-2.181.142-3.805.479-3.942 1.662-.032.261.015 1.218.137 1.491.826 1.764 2.512 3.629 4.977 5.047l-1.479-.212c-.278.16-.162 1.294-.162 1.503 0 .209.133.424.411.58l1.616.937c.554.316 1.45.316 2.005 0l1.273-.734c6.289 2.521 12.65 2.515 17.575-.322 4.647-2.683 5.01-6.152 1.088-10.402l6.419-3.704c.314.342.583.766.801 1.274.548 1.264 2.637 2.1 4.876 1.955 2.895-.183 4.847-2.028 3.861-3.612-.725-1.166-1.888-2.112-3.342-3.121l1.335-.769c.261-.15.386-.345.377-.542-.003-.189.148-1.349-.099-1.491l-2.135-.096c-.502-.293-1.322-.293-1.827 0v-.006Z" fill="#E68600"/><path fill-rule="evenodd" clip-rule="evenodd" d="m557.236 772.707 5.772-3.333c2.063 2.526-2.048 4.621-5.772 3.333Zm15.435-13.143-5.462 3.155c-1.741-2.111 1.575-4.255 5.462-3.155Zm7.333-4.183-1.291.745c-11.081-5.816-26.852 1.874-18.06 10.376l-7.461 4.308c-1.024-.879-1.737-1.834-2.14-2.861-.511-1.276-2.547-2.158-4.813-2.013-2.657.174-4.496 1.662-3.805 3.156.826 1.761 2.512 3.629 4.977 5.048l-1.227.707c-.554.322-.554.842 0 1.158l1.616.937c.554.316 1.45.316 2.004 0l1.274-.734c6.288 2.521 12.65 2.518 17.575-.322 4.647-2.683 5.01-6.153 1.088-10.399l6.419-3.707c.313.342.583.765.801 1.273.548 1.265 2.637 2.094 4.876 1.952 2.895-.18 4.774-1.877 3.785-3.463-.725-1.163-1.813-2.257-3.266-3.266l1.334-.769c.508-.293.508-.766 0-1.056l-1.859-1.073c-.502-.293-1.323-.293-1.827 0v.003Z" fill="#F6B039"/><path fill-rule="evenodd" clip-rule="evenodd" d="M590.415 778.25c-15.212 8.783-39.871 8.783-55.085 0-7.153-4.128-10.939-9.462-11.368-14.872-.023-.328-.041-10.64-.041-10.968-.023-5.769 3.777-1.554 11.409-5.961 15.208-8.78 39.873-8.78 55.085 0 7.556 4.366 11.356.084 11.408 5.802 0 .319-.009 10.628-.029 10.95-.351 5.468-4.148 10.872-11.376 15.046l-.003.003Z" fill="#FFB93E"/><path fill-rule="evenodd" clip-rule="evenodd" d="M524.394 749.957c.16.116.264.307.264.519v16.232a13.748 13.748 0 0 1-.696-3.33c-.023-.322-.04-10.64-.04-10.967-.006-1.187.153-1.95.469-2.454h.003Zm2.411 2.457v18.44a16.78 16.78 0 0 1-1.305-2.159v-16.281a.65.65 0 0 1 .649-.647h.061c.331.035.595.31.595.647Zm2.143 1.94v18.788a.639.639 0 0 1-.04.226 21.334 21.334 0 0 1-1.283-1.436v-17.578c0-.357.299-.656.656-.656l.061.006a.66.66 0 0 1 .609.65h-.003Zm2.145 1.938v18.776a.655.655 0 0 1-.05.249 26.173 26.173 0 0 1-1.291-1.122v-17.901c0-.362.296-.655.656-.655h.064a.664.664 0 0 1 .621.655v-.002Z" fill="#D0D9EE"/><path fill-rule="evenodd" clip-rule="evenodd" d="M533.233 758.229v18.713a33.107 33.107 0 0 1-1.349-.963v-17.747a.66.66 0 0 1 .658-.658h.061c.354.026.63.307.63.658v-.003Zm2.143 1.938v18.109l-.046-.026a40.236 40.236 0 0 1-1.323-.8v-17.28c0-.368.299-.664.664-.664h.064a.674.674 0 0 1 .638.664l.003-.003Zm2.147 1.937v17.318c-.47-.232-.931-.473-1.384-.723v-16.595c0-.368.296-.667.664-.667h.067c.363.023.656.308.656.667h-.003Zm2.143 1.941v16.369a52.837 52.837 0 0 1-1.404-.632v-15.737c0-.374.305-.675.676-.675h.067c.362.02.664.307.664.675h-.003Zm.726 16.671v-14.733c0-.374.301-.682.673-.682h.063c.372 0 .682.308.682.682v15.287a52.87 52.87 0 0 1-1.418-.554Zm2.735 1.023v-15.353c0-.374.307-.676.679-.676h.072c.372 0 .679.302.679.676v15.815a54.244 54.244 0 0 1-1.43-.462Zm2.739.848v-15.795c0-.377.301-.681.678-.681h.076a.68.68 0 0 1 .682.681v16.175c-.485-.122-.961-.25-1.436-.383v.003Zm2.729.69v-16.082c0-.374.307-.681.684-.681h.076c.377 0 .684.307.684.681v16.392c-.487-.098-.969-.2-1.447-.31h.003Zm2.738.554v-16.232c0-.374.307-.679.682-.679h.087c.377 0 .684.308.684.679v16.476a63.494 63.494 0 0 1-1.45-.241l-.003-.003Zm2.735.426v-16.252c0-.377.308-.685.685-.685h.09c.374 0 .684.308.684.685v16.432a78.497 78.497 0 0 1-1.459-.18Zm2.736.305v-16.154a.69.69 0 0 1 .691-.684h.09a.69.69 0 0 1 .69.684v16.273a59.497 59.497 0 0 1-1.471-.119Zm2.738.194v-15.939c0-.386.31-.691.69-.691h.096c.377 0 .69.308.69.691v15.997a71.648 71.648 0 0 1-1.473-.058h-.003Zm2.733.078v-15.617c0-.377.313-.69.693-.69h.096c.383 0 .696.313.696.69v15.615a73.51 73.51 0 0 1-1.485 0v.002Zm2.784-.031v-16.001c0-.377.31-.69.69-.69h.096c.383 0 .691.313.691.69v15.94c-.491.029-.981.049-1.474.063l-.003-.002Zm2.785-.147v-16.271c0-.377.311-.69.691-.69h.09c.377 0 .69.31.69.69v16.146c-.487.046-.978.09-1.471.125Zm2.785-.265v-16.424c0-.377.31-.684.69-.684h.087c.377 0 .685.307.685.684v16.238c-.485.07-.972.131-1.459.189l-.003-.003Zm2.781-.386v-16.456a.69.69 0 0 1 .688-.684h.084a.69.69 0 0 1 .687.684v16.204c-.484.09-.969.171-1.456.252h-.003Zm2.786-.519v-16.354c0-.377.307-.684.684-.684h.082c.371 0 .678.307.678.684v16.035c-.478.113-.96.218-1.444.319Zm2.786-.656v-16.119c0-.377.302-.679.682-.679h.069c.377 0 .679.302.679.679v15.722a38.71 38.71 0 0 1-1.43.394v.003Zm2.786-.809v-15.728c0-.377.301-.679.675-.679h.07a.68.68 0 0 1 .679.679v15.246c-.47.166-.946.328-1.424.482Zm2.784-.986V765.87c0-.368.301-.673.673-.673h.066c.372 0 .673.308.673.673v14.591c-.464.2-.937.388-1.415.574h.003Zm3.397-16.952v15.473c-.461.223-.928.444-1.404.652v-16.125c0-.371.302-.673.673-.673h.067c.362.021.664.308.664.673Zm1.979-1.79v16.233c-.456.252-.92.498-1.387.739v-16.972c0-.368.302-.664.667-.664h.067c.362.02.653.302.653.664Zm1.977-1.786v16.832c-.444.285-.896.566-1.369.842v-17.674c0-.369.299-.665.664-.665h.064a.674.674 0 0 1 .641.665Zm1.978-1.793v17.248c-.435.328-.884.65-1.354.969v-18.214c0-.363.299-.661.658-.661h.067a.67.67 0 0 1 .629.661v-.003Zm1.98-1.793v17.393a26.38 26.38 0 0 1-1.335 1.143v-18.536c0-.36.293-.655.653-.655h.067a.663.663 0 0 1 .615.655Zm1.983-1.787v17.129c-.409.482-.85.957-1.323 1.421v-18.553c0-.356.293-.655.656-.655l.061.006a.657.657 0 0 1 .609.649l-.003.003Zm1.979-1.792v16.137c-.38.658-.815 1.311-1.303 1.952v-18.086c0-.357.293-.65.644-.65l.067.006a.65.65 0 0 1 .595.644l-.003-.003Zm.69 14.802v-16.589a.645.645 0 0 1 1.262-.186c.012.101.02.209.026.319v10.434a36.09 36.09 0 0 1-.012 1.079c-.107 1.662-.533 3.321-1.276 4.94v.003Z" fill="#E2810E"/><path fill-rule="evenodd" clip-rule="evenodd" d="M590.414 768.257c-15.211 8.783-39.87 8.783-55.084 0-15.215-8.78-15.215-23.017 0-31.801 15.208-8.78 39.873-8.78 55.084 0 15.209 8.784 15.209 23.021 0 31.801Z" fill="#E2810E"/><path fill-rule="evenodd" clip-rule="evenodd" d="M589.092 767.497c-14.478 8.357-37.959 8.357-52.436 0-14.481-8.363-14.481-21.915 0-30.278 14.477-8.36 37.953-8.357 52.436 0 14.477 8.36 14.477 21.915 0 30.278Z" fill="#E2810E"/><path fill-rule="evenodd" clip-rule="evenodd" d="M584.586 764.895c-11.991 6.927-31.435 6.927-43.429 0-11.992-6.924-11.992-18.146 0-25.073 11.991-6.924 31.438-6.924 43.429 0 11.995 6.927 11.995 18.152 0 25.073Z" fill="#C06E0C"/><path fill-rule="evenodd" clip-rule="evenodd" d="M584.587 741.434c-11.992-6.927-31.438-6.927-43.43-.003-5.639 3.258-8.63 7.467-8.96 11.734.333 4.264 3.324 8.473 8.96 11.73 11.995 6.927 31.438 6.927 43.43 0 5.644-3.257 8.629-7.463 8.966-11.73-.337-4.264-3.322-8.473-8.966-11.731Z" fill="#FFB93E"/><path fill-rule="evenodd" clip-rule="evenodd" d="M558.924 763.274c-15.208 8.78-39.87 8.78-55.084 0-7.148-4.131-10.939-9.465-11.368-14.872-.023-.328-.035-10.643-.041-10.971-.02-5.775 3.783-1.554 11.409-5.961 15.214-8.783 39.876-8.783 55.084 0 7.557 4.366 11.362.082 11.406 5.799.006.322-.003 10.634-.023 10.953-.357 5.468-4.154 10.875-11.383 15.049v.003Z" fill="#FFB93E"/><path fill-rule="evenodd" clip-rule="evenodd" d="M492.904 734.977a.646.646 0 0 1 .267.522v16.247a13.595 13.595 0 0 1-.699-3.342c-.023-.327-.035-10.642-.041-10.97-.003-1.186.154-1.952.473-2.454v-.003Zm2.413 2.46v18.44c-.502-.71-.937-1.43-1.308-2.164v-16.279a.65.65 0 0 1 .65-.649l.06.005a.649.649 0 0 1 .598.644v.003Zm2.138 1.941v18.788a.613.613 0 0 1-.041.223c-.458-.47-.884-.948-1.279-1.43v-17.578c0-.36.293-.656.65-.656h.064a.66.66 0 0 1 .603.656l.003-.003Zm2.147 1.937v18.78a.62.62 0 0 1-.049.243 25.72 25.72 0 0 1-1.291-1.122v-17.901c0-.362.298-.658.658-.658l.061.006a.664.664 0 0 1 .621.655v-.003Zm2.143 1.938v18.712c-.47-.316-.919-.641-1.354-.968V743.25a.66.66 0 0 1 .658-.658h.067a.67.67 0 0 1 .629.658v.003Zm2.147 1.938v18.112l-.049-.029a32.75 32.75 0 0 1-1.32-.801v-17.285c0-.369.299-.665.664-.665h.061c.36.027.647.308.647.665l-.003.003Zm2.138 1.937v17.315c-.47-.232-.931-.473-1.384-.723v-16.595c0-.368.302-.67.67-.67h.064c.36.021.65.308.65.67v.003Zm2.143 1.938v16.366c-.473-.203-.94-.412-1.401-.63v-15.739c0-.371.302-.673.67-.673h.064c.368.02.664.307.664.673l.003.003Zm.726 16.67v-14.729c0-.375.307-.682.679-.682h.066c.375 0 .673.307.673.682v15.286a47.952 47.952 0 0 1-1.418-.554v-.003Zm2.738 1.024v-15.351a.68.68 0 0 1 .676-.681h.07c.374 0 .678.307.678.681v15.815a57.76 57.76 0 0 1-1.424-.461v-.003Zm2.735.847V751.81c0-.374.308-.682.679-.682h.078c.371 0 .679.308.679.682v16.177a71.86 71.86 0 0 1-1.436-.38Zm2.738.693v-16.081c0-.378.308-.685.682-.685h.078c.375 0 .682.307.682.685v16.389a58.073 58.073 0 0 1-1.439-.308h-.003Zm2.733.552v-16.23c0-.374.307-.684.684-.684h.082c.377 0 .684.31.684.684v16.473a56.176 56.176 0 0 1-1.45-.243Zm2.735.426v-16.25c0-.377.311-.69.69-.69h.085c.377 0 .687.313.687.69v16.427a58.678 58.678 0 0 1-1.459-.18l-.003.003Zm2.739.308v-16.151c0-.377.307-.691.684-.691h.096a.69.69 0 0 1 .685.691v16.27c-.49-.032-.978-.076-1.465-.116v-.003Zm2.733.188v-15.939c0-.377.313-.69.69-.69h.096c.383 0 .69.313.69.69v15.997a55.477 55.477 0 0 1-1.476-.061v.003Zm2.741.079v-15.612c0-.383.31-.693.687-.693h.102c.377 0 .69.31.69.693v15.612c-.493.006-.986.006-1.479 0Zm2.782-.029v-15.998c0-.383.307-.69.69-.69h.096c.377 0 .69.307.69.69v15.934c-.49.026-.983.046-1.476.064Zm2.781-.152v-16.267c0-.377.308-.69.685-.69h.096c.377 0 .684.31.684.69v16.143c-.487.046-.974.087-1.465.124Zm2.785-.263v-16.421a.69.69 0 0 1 .684-.69h.087c.377 0 .691.31.691.69v16.236c-.485.066-.972.127-1.459.185h-.003Zm2.784-.389v-16.456c0-.371.308-.679.685-.679h.081c.377 0 .685.308.685.679v16.209c-.485.09-.966.171-1.451.249v-.002Zm2.785-.514v-16.357c0-.374.307-.679.679-.679h.081c.374 0 .682.308.682.679v16.038c-.479.113-.958.218-1.439.319h-.003Zm2.785-.654V751.73c0-.372.308-.679.679-.679h.075c.375 0 .682.307.682.679v15.721c-.473.14-.954.273-1.436.401Zm2.782-.807v-15.731a.68.68 0 0 1 .682-.673h.069c.374 0 .676.302.676.673v15.249c-.47.168-.946.328-1.427.482Zm2.784-.987v-15.162c0-.374.302-.676.676-.676h.064a.68.68 0 0 1 .681.676v14.588c-.467.2-.942.392-1.421.577v-.003Zm3.398-16.951v15.472c-.462.224-.929.444-1.404.653v-16.125c0-.371.307-.673.673-.673h.063c.369.02.665.308.665.673h.003Zm1.98-1.793v16.232a36.48 36.48 0 0 1-1.384.737v-16.969c0-.369.302-.667.667-.667h.067c.357.023.65.307.65.667Zm1.978-1.79v16.841c-.444.285-.899.563-1.369.839v-17.68a.67.67 0 0 1 .664-.664l.067.005a.67.67 0 0 1 .641.659h-.003Zm1.982-1.787v17.245c-.433.328-.885.65-1.352.969V743.74c0-.363.299-.658.658-.658h.064c.348.023.63.307.63.658v-.003Zm1.978-1.795v17.389c-.424.389-.87.772-1.34 1.149v-18.538a.66.66 0 0 1 .658-.656h.061a.664.664 0 0 1 .618.656h.003Zm1.978-1.784v17.129c-.409.478-.847.951-1.32 1.418v-18.544c0-.363.293-.656.65-.656h.064a.658.658 0 0 1 .606.656v-.003Zm1.979-1.792v16.136a17.96 17.96 0 0 1-1.303 1.952v-18.085c0-.357.29-.65.647-.65l.061.006a.647.647 0 0 1 .592.644l.003-.003Zm.689 14.804v-16.598c0-.351.293-.646.65-.646.285 0 .528.191.612.452.012.122.024.249.032.386v10.512a33.68 33.68 0 0 1-.011.951c-.108 1.665-.537 3.325-1.283 4.943Z" fill="#E2810E"/><path fill-rule="evenodd" clip-rule="evenodd" d="M558.925 753.28c-15.209 8.784-39.871 8.784-55.085 0-15.209-8.78-15.209-23.02 0-31.8 15.214-8.784 39.876-8.784 55.085 0 15.214 8.78 15.214 23.023 0 31.8Z" fill="#E2810E"/><path fill-rule="evenodd" clip-rule="evenodd" d="M557.599 752.515c-14.481 8.36-37.953 8.36-52.436 0-14.481-8.357-14.481-21.915 0-30.269 14.483-8.363 37.955-8.363 52.436 0 14.477 8.357 14.477 21.912 0 30.269Z" fill="#FFB93E"/><path fill-rule="evenodd" clip-rule="evenodd" d="M553.1 749.919c-11.992 6.921-31.438 6.921-43.43 0-11.994-6.924-11.994-18.153 0-25.077 11.992-6.924 31.435-6.924 43.43 0 11.991 6.927 11.991 18.153 0 25.077Z" fill="#E68600"/><path fill-rule="evenodd" clip-rule="evenodd" d="M553.099 726.455c-11.994-6.924-31.438-6.924-43.429 0-5.645 3.258-8.63 7.467-8.961 11.731.334 4.267 3.319 8.476 8.961 11.736 11.991 6.921 31.438 6.921 43.429 0 5.639-3.257 8.63-7.466 8.961-11.73-.334-4.267-3.322-8.476-8.961-11.734v-.003Z" fill="#F29919"/><path fill-rule="evenodd" clip-rule="evenodd" d="m523.585 745.156 5.772-3.333c2.066 2.526-2.047 4.621-5.772 3.333Zm15.435-13.146-5.462 3.156c-1.744-2.109 1.575-4.253 5.462-3.156Zm7.333-4.183-1.288.745c-11.081-5.816-26.852 1.874-18.063 10.376l-7.461 4.311c-1.021-.882-1.737-1.833-2.14-2.86-.508-1.282-2.547-2.156-4.813-2.011-2.181.14-3.805.479-3.942 1.663-.029.261.015 1.218.137 1.488.826 1.763 2.512 3.628 4.977 5.05l-1.479-.212c-.276.16-.162 1.294-.162 1.5 0 .206.136.423.411.58l1.616.937c.554.319 1.45.319 2.005 0l1.273-.734c6.289 2.524 12.653 2.518 17.575-.322 4.647-2.683 5.01-6.15 1.088-10.402l6.419-3.701c.314.342.583.763.801 1.273.548 1.265 2.64 2.1 4.879 1.955 2.895-.183 4.847-2.03 3.861-3.611-.725-1.166-1.888-2.106-3.342-3.121l1.335-.769c.261-.151.385-.348.377-.545-.006-.186.145-1.349-.102-1.491l-2.132-.096c-.505-.293-1.326-.293-1.827 0l-.003-.003Z" fill="#E68600"/><path fill-rule="evenodd" clip-rule="evenodd" d="m523.584 743.949 5.773-3.333c2.065 2.527-2.048 4.621-5.773 3.333Zm15.435-13.146-5.462 3.156c-1.744-2.112 1.575-4.255 5.462-3.156Zm7.333-4.183-1.288.746c-11.081-5.816-26.852 1.874-18.063 10.373l-7.461 4.31c-1.021-.882-1.737-1.833-2.14-2.86-.508-1.279-2.547-2.158-4.813-2.013-2.657.177-4.496 1.662-3.805 3.156.826 1.761 2.512 3.629 4.977 5.05l-1.23.708c-.554.322-.554.841 0 1.157l1.616.937c.554.316 1.451.316 2.005 0l1.273-.734c6.289 2.521 12.653 2.515 17.575-.322 4.647-2.683 5.01-6.152 1.088-10.402l6.419-3.704c.314.342.584.766.801 1.273.548 1.265 2.64 2.095 4.879 1.953 2.895-.183 4.772-1.877 3.786-3.464-.726-1.163-1.813-2.257-3.267-3.266l1.335-.772c.504-.29.504-.765 0-1.055l-1.86-1.071c-.504-.293-1.325-.293-1.827 0Z" fill="#F6B039"/><path fill-rule="evenodd" clip-rule="evenodd" d="M556.763 749.489c-15.214 8.784-39.87 8.784-55.084 0-7.154-4.127-10.942-9.465-11.368-14.872-.023-.327-.041-10.642-.041-10.97-.023-5.767 3.777-1.555 11.409-5.961 15.205-8.781 39.87-8.781 55.084 0 7.557 4.366 11.357.087 11.406 5.804 0 .316-.009 10.628-.029 10.95-.351 5.468-4.148 10.875-11.377 15.049Z" fill="#FFB93E"/><path fill-rule="evenodd" clip-rule="evenodd" d="M490.743 721.196a.65.65 0 0 1 .264.522v16.232a13.777 13.777 0 0 1-.696-3.33c-.024-.322-.041-10.642-.041-10.97-.003-1.184.154-1.949.473-2.454Zm2.41 2.46v18.437a17.182 17.182 0 0 1-1.305-2.155v-16.282c0-.357.293-.65.65-.65l.061.006a.65.65 0 0 1 .594.644Zm2.144 1.935v18.788a.656.656 0 0 1-.041.226 21.94 21.94 0 0 1-1.282-1.436v-17.578a.66.66 0 0 1 .656-.653l.061.006a.654.654 0 0 1 .609.647h-.003Zm2.147 1.94v18.779a.645.645 0 0 1-.05.247 26.696 26.696 0 0 1-1.29-1.123v-17.903c0-.363.298-.656.655-.656h.067a.666.666 0 0 1 .621.656h-.003Zm2.137 1.938v18.709a33.818 33.818 0 0 1-1.349-.963v-17.746c0-.363.299-.659.659-.659h.061a.668.668 0 0 1 .629.659Zm2.145 1.94v18.109l-.047-.026a39.384 39.384 0 0 1-1.325-.803v-17.28c0-.368.298-.664.664-.664h.064a.675.675 0 0 1 .641.664h.003Zm2.146 1.935v17.317c-.47-.232-.931-.472-1.386-.722v-16.595a.67.67 0 0 1 .664-.67h.064c.363.026.655.308.655.67h.003Zm2.14 1.938v16.369a44.402 44.402 0 0 1-1.404-.63v-15.739c0-.371.302-.673.673-.673h.067c.363.02.664.308.664.673Zm.728 16.673v-14.733c0-.374.302-.679.673-.679h.064c.374 0 .682.308.682.679v15.287c-.479-.18-.952-.363-1.419-.554Zm2.733 1.024v-15.354c0-.371.308-.673.679-.673h.072c.372 0 .679.302.679.673v15.815a58.225 58.225 0 0 1-1.43-.461Zm2.738.847v-15.794c0-.378.302-.679.679-.679h.076a.68.68 0 0 1 .681.679v16.177c-.481-.122-.96-.25-1.436-.383Zm2.735.69v-16.081c0-.375.308-.682.685-.682h.075c.377 0 .685.307.685.682v16.392a48.718 48.718 0 0 1-1.445-.311Zm2.739.554v-16.232c0-.374.308-.682.682-.682h.084c.377 0 .687.308.687.682v16.476a56.177 56.177 0 0 1-1.45-.244h-.003Zm2.732.427v-16.253c0-.377.307-.682.685-.682h.089a.69.69 0 0 1 .688.682v16.433a48.586 48.586 0 0 1-1.462-.18Zm2.733.307V739.65a.69.69 0 0 1 .69-.684h.09c.377 0 .691.307.691.684v16.273a60.274 60.274 0 0 1-1.471-.116v-.003Zm2.738.192v-15.94a.69.69 0 0 1 .691-.69h.095c.377 0 .691.307.691.69v15.995a65.758 65.758 0 0 1-1.474-.058l-.003.003Zm2.735.078v-15.618c0-.377.313-.69.693-.69h.096c.383 0 .696.31.696.69v15.612c-.496.006-.992.006-1.485.003v.003Zm2.785-.032v-16.001c0-.377.31-.69.687-.69h.096c.383 0 .69.31.69.69v15.94c-.49.026-.98.046-1.473.064v-.003Zm2.781-.147v-16.273c0-.378.311-.691.691-.691h.09c.377 0 .69.311.69.691v16.148c-.487.046-.977.087-1.471.125Zm2.786-.268v-16.424c0-.377.31-.684.69-.684h.087c.377 0 .685.307.685.684v16.239c-.485.069-.972.13-1.459.185h-.003Zm2.784-.385v-16.456c0-.377.311-.684.685-.684h.084c.374 0 .685.307.685.684v16.204c-.482.089-.969.174-1.454.252Zm2.782-.516v-16.358c0-.377.307-.684.685-.684h.081c.374 0 .681.307.681.684v16.036c-.478.113-.963.217-1.447.319v.003Zm2.791-.656v-16.117c0-.377.301-.681.681-.681h.07c.377 0 .681.301.681.681v15.722c-.475.137-.951.27-1.43.395h-.002Zm2.785-.81v-15.728c0-.377.301-.681.673-.681h.069a.68.68 0 0 1 .679.681v15.244c-.47.168-.943.328-1.421.484Zm2.781-.983v-15.165c0-.368.302-.673.676-.673h.067c.371 0 .673.307.673.673v14.591c-.465.197-.937.388-1.416.574Zm3.4-16.952v15.473c-.461.223-.928.441-1.404.649v-16.122c0-.374.302-.676.676-.676h.064c.362.021.664.308.664.676Zm1.975-1.793v16.233c-.455.255-.916.502-1.386.74v-16.97c0-.368.301-.664.667-.664h.067c.362.02.652.302.652.664v-.003Zm1.981-1.79v16.836c-.441.284-.896.566-1.369.838v-17.674c0-.368.296-.664.665-.664h.066c.351.02.638.308.638.664Zm1.979-1.788v17.247c-.436.328-.885.65-1.355.969v-18.216c0-.363.299-.659.658-.659h.064c.348.026.63.308.63.659h.003Zm1.978-1.794v17.393c-.42.386-.867.766-1.334 1.143V728.16c0-.356.293-.655.656-.655h.063a.662.662 0 0 1 .615.655Zm1.984-1.789v17.132c-.409.481-.853.954-1.326 1.421v-18.553c0-.357.293-.656.656-.656l.061.006a.657.657 0 0 1 .609.647v.003Zm1.979-1.79v16.137c-.38.658-.816 1.308-1.303 1.949v-18.086c0-.357.293-.647.644-.647h.067a.655.655 0 0 1 .592.647Zm.687 14.802v-16.592c0-.356.293-.644.647-.644.293 0 .539.195.618.462.011.104.02.209.026.319v10.434c0 .615-.006 1.018-.012 1.079-.107 1.665-.534 3.321-1.279 4.942Z" fill="#E2810E"/><path fill-rule="evenodd" clip-rule="evenodd" d="M556.763 739.496c-15.214 8.784-39.87 8.784-55.084 0-15.214-8.777-15.214-23.014 0-31.8 15.205-8.781 39.87-8.781 55.084 0 15.206 8.783 15.206 23.023 0 31.8Z" fill="#E2810E"/><path fill-rule="evenodd" clip-rule="evenodd" d="M555.44 738.737c-14.477 8.357-37.958 8.357-52.436 0-14.477-8.36-14.477-21.912 0-30.275 14.478-8.362 37.953-8.357 52.436 0 14.478 8.363 14.478 21.915 0 30.275Z" fill="#E2810E"/><path fill-rule="evenodd" clip-rule="evenodd" d="M550.933 736.132c-11.992 6.927-31.432 6.927-43.43 0-11.991-6.921-11.991-18.147 0-25.074 11.992-6.924 31.438-6.924 43.43 0 11.997 6.927 11.997 18.153 0 25.074Z" fill="#C06E0C"/><path fill-rule="evenodd" clip-rule="evenodd" d="M550.933 712.677c-11.992-6.927-31.438-6.927-43.43-.006-5.639 3.257-8.629 7.466-8.96 11.736.331 4.264 3.321 8.47 8.96 11.728 11.998 6.927 31.438 6.927 43.43 0 5.645-3.258 8.629-7.467 8.966-11.728-.337-4.264-3.321-8.473-8.966-11.73Z" fill="#FFB93E"/><path fill-rule="evenodd" clip-rule="evenodd" d="M517.238 825.598 515.771 851l49.912-41.753 1.465-25.402-49.91 41.753Zm-104.704-82.397c-5.897-2.321-13.83-1.555-17.726 1.705-3.902 3.264-2.289 7.789 3.6 10.112 5.894 2.321 13.827 1.555 17.726-1.705 3.901-3.264 2.292-7.792-3.6-10.112Z" fill="#92AFF2"/><path fill-rule="evenodd" clip-rule="evenodd" d="m388.998 713.648-49.907 41.748 52.471 20.676 3.051-2.559-48.717-19.194 43.795-36.633 48.659 19.174 3.058-2.558-52.41-20.654Z" fill="#D0D9EE"/><path fill-rule="evenodd" clip-rule="evenodd" d="m389.691 717.686-43.793 36.63 48.718 19.194 6.353-5.323-8.871-3.495c-.731-3.962-4.432-7.777-10.698-10.245l-18.909-7.449 21.514-17.993 18.907 7.454c6.106 2.399 13.387 3.032 19.942 2.112l9.155 3.606 6.35-5.32-48.663-19.174-.005.003Z" fill="#92AFF2"/><path fill-rule="evenodd" clip-rule="evenodd" d="M398.416 755.021c5.889 2.318 13.819 1.552 17.718-1.708 3.901-3.263 2.291-7.791-3.609-10.115-5.888-2.318-13.822-1.552-17.717 1.709-3.902 3.263-2.289 7.788 3.608 10.112v.002Zm4.505-18.552c6.091 2.396 13.372 3.028 19.928 2.108l9.154 3.606-31.037 26.011-8.871-3.496c-.731-3.962-4.432-7.777-10.697-10.245l-18.91-7.449 21.514-17.993 18.922 7.458h-.003Z" fill="#D0D9EE"/><path fill-rule="evenodd" clip-rule="evenodd" d="m441.642 734.104-.235.198-3.057 2.558-6.347 5.32-31.038 26.011-6.352 5.323-3.052 2.558-.386.325 9.465 3.722 50.467-42.29-9.465-3.725Z" fill="#8D9FCA"/><path fill-rule="evenodd" clip-rule="evenodd" d="M508.875 781.165c-5.894-2.323-13.824-1.56-17.729 1.709-3.901 3.26-2.286 7.783 3.606 10.109 5.897 2.323 13.828 1.555 17.726-1.706 3.902-3.263 2.292-7.791-3.606-10.112h.003Z" fill="#92AFF2"/><path fill-rule="evenodd" clip-rule="evenodd" d="M494.763 792.983c5.888 2.32 13.819 1.552 17.718-1.709 3.901-3.263 2.291-7.791-3.612-10.115-5.888-2.317-13.819-1.557-17.72 1.712-3.902 3.26-2.286 7.783 3.614 10.112Zm-14.08-31.621 30.515 12.026c1.117 3.606 4.691 7.011 10.437 9.274l22.817 8.995-22.448 18.779-22.829-8.998c-5.918-2.326-12.963-2.987-19.371-2.181l-30.194-11.899c9.758-.107 19.873-3.205 26.44-8.696 6.565-5.5 7.963-12.035 4.633-17.3Z" fill="#D0D9EE"/><path fill-rule="evenodd" clip-rule="evenodd" d="m479.085 759.317-33.326 27.928a44.39 44.39 0 0 0 3.852.113c9.758-.107 19.873-3.205 26.44-8.696 6.564-5.5 7.962-12.035 4.632-17.3a13.95 13.95 0 0 0-1.598-2.048v.003Z" fill="#92AFF2"/><path fill-rule="evenodd" clip-rule="evenodd" d="m478.128 748.46-50.463 42.289 9.465 3.725 50.466-42.29-9.468-3.724Z" fill="#8D9FCA"/><path fill-rule="evenodd" clip-rule="evenodd" d="m451.107 737.829-50.467 42.289-9.465-3.721 45.953 18.077.36-.299 3.057-2.564 5.21-4.366 33.329-27.928 5.199-4.36 3.054-2.558.258-.215-50.467 42.29-9.465-3.725 50.464-42.289-27.02-10.631Z" fill="#fff"/><path fill-rule="evenodd" clip-rule="evenodd" d="m516.551 821.56 43.789-36.633-76.054-29.97-5.198 4.357a13.965 13.965 0 0 1 1.598 2.048l30.516 12.026c1.116 3.606 4.69 7.011 10.436 9.274l22.817 8.995-22.448 18.779-22.811-8.992c-5.935-2.332-12.981-2.994-19.389-2.184l-30.193-11.899a46.075 46.075 0 0 1-3.853-.113l-5.212 4.368 76.004 29.947-.002-.003Z" fill="#92AFF2"/><path fill-rule="evenodd" clip-rule="evenodd" d="m517.238 825.598 49.91-41.753-79.81-31.446-3.055 2.558 76.054 29.97-43.786 36.634-76.005-29.95-3.057 2.564 79.749 31.423Z" fill="#D0D9EE"/><path fill-rule="evenodd" clip-rule="evenodd" d="m339.091 755.396-1.465 25.407 52.468 20.673 1.468-25.404-52.471-20.676Z" fill="#92AFF2"/><path fill-rule="evenodd" clip-rule="evenodd" d="m391.176 776.396-1.468 25.405 45.953 18.077 1.468-25.404-45.953-18.078Z" fill="#D0D9EE"/><path fill-rule="evenodd" clip-rule="evenodd" d="m437.489 794.175-1.468 25.402L515.77 851l1.468-25.401-79.749-31.424Z" fill="#92AFF2"/><path fill-rule="evenodd" clip-rule="evenodd" d="m437.129 794.474-9.465-3.724-.856 25.717 8.853 3.411 1.468-25.404Zm-36.488-14.356-9.465-3.722-1.468 25.405 8.986 3.533 1.947-25.216Z" fill="#8D9FCA"/><path fill-rule="evenodd" clip-rule="evenodd" d="M599.755 592.785c-.815-.279-3.556-.917-6.753-1.993-3.281 1.337-7.603.94-12.966-1.184-2.042-3.237-2.228-6.532-.557-9.882 4.229 2.016 7.942 2.79 11.139 2.329-3.971-2.617-4.586-4.171-1.845-4.659.264.615.832 1.126 1.705 1.523 2.762.447 4.74 2.315 5.927 5.607 1.473.398 2.996.76 3.776 1.007-.8 1.9-.954 4.18-.426 7.252Z" fill="#FFB27D"/><path fill-rule="evenodd" clip-rule="evenodd" d="M674.956 509.876c10.219-1.325 17.935-.623 21.236 4.282-.418 2.987-1.317 6.877-2.701 11.666.601 1.14 1.48 1.735 2.64 1.781 1.453-2.837 2.671-4.531 3.652-5.082 4.867 2.185 3.951 5.546-2.744 10.098-.395 1.569-.772 2.866-1.131 3.892 6.024-1.348 11.066-6.738 11.774-9.067 7.028-13.851-.81-19.702-5.004-21.837-1.851-13.717-21.77-1.592-31.751-8.206-3.969 5.48.937 12.351 4.029 12.473Zm31.548 62.162c-6.423 7.707-11.809 13.28-16.163 16.714 3.971-14.095 8.22-29.271 12.754-45.533 1.599 1.346 2.881 2.684 3.847 4.006.356 6.594.443 11.624.261 15.093-2.353 1.859-4.244 3.025-5.677 3.495 2.167 1.964 3.826 4.038 4.978 6.225Zm-40.222-3.751c3.121 6.918 6.628 13.198 10.524 18.846-1.149-17.221-1.732-31.734-1.749-43.537-1.746.978-3.049 1.915-4.009 2.936-.186.217-.362.432-.531.649-1.845 6.591-3.04 11.748-3.582 15.476 1.723.789 3.179 1.47 4.368 2.045a120.06 120.06 0 0 0-5.021 3.582v.003Z" fill="#0F3970"/><path fill-rule="evenodd" clip-rule="evenodd" d="M706.939 547.225c9.9 5.741 17.999 10.829 24.291 15.264 4.247 16.18 6.547 33.66 6.901 52.439-.58 21.581-2.73 37.196-5.277 45.614-3.716.165-7.669-.203-9.134-1.616-.806-18.982-1.01-34.388-.612-46.214-2.715-6.237-5.105-10.898-7.162-13.984-.899 6.425-2.138 11.994-2.434 17.735 1.047 11.756 1.561 25.798 4.705 42.121-3.916 3.756-12.577 5.993-25.979 6.715-2.515-30.91-3.147-56.425-1.9-76.553 4.357-3.434 9.741-9.004 16.163-16.714-1.154-2.187-2.813-4.261-4.977-6.225 1.433-.47 3.324-1.636 5.676-3.495.183-3.469.096-8.499-.261-15.093v.006Zm-30.133 39.906c-3.84 40.987-5.447 67.636-7.707 76.875-6.425-.705-11.374-3.719-14.367-6.692.803-23.319 3.527-38.211 4.676-51.842-2.074-22.382-6.324-42.962-1.743-52.523 4.919-3.313 9.204-5.233 12.853-5.764-1.845 6.59-3.04 11.748-3.583 15.475 1.723.786 3.179 1.471 4.369 2.045a117.909 117.909 0 0 0-5.021 3.583c3.121 6.918 6.628 13.198 10.523 18.843Z" fill="#4A7CBB"/><path fill-rule="evenodd" clip-rule="evenodd" d="M651.855 559.603a135.033 135.033 0 0 1 5.81-6.657c-3.173 6.628-2.109 18.547-.464 32.691-3.2 3.968-10.089 11.057-15.989 15.466-12.105.696-25.077-2.111-45.068-8.159-.81-2.08-.549-5.532.258-8.415 19.472 1.125 31.371.934 39.18 2.944 5.061-12.601 11.475-20.073 16.273-27.87Z" fill="#144D94"/><path fill-rule="evenodd" clip-rule="evenodd" d="M690.422 553.691c3.527-4.624 6.454-8.841 9.668-11.475-.345-1.41-.574-2.463-.963-3.53-.182-.505-1.276-1.097-2.729-1.369.13.232.423 1.212.182 1.366-.06.04-.113.09-.168.136-3.411 2.759-7.011 5.137-11.432 7.232 2.112 2.457 3.574 5.038 5.439 7.64h.003Zm-13.842-10.245c-.09 3.008-.018 5.474.217 7.403.726-2.214 2.063-4.018 4.012-5.416.299-2.535.499-4.911.603-7.133-2.12.798-3.733 2.515-4.832 5.149v-.003Z" fill="#406FB5"/><path fill-rule="evenodd" clip-rule="evenodd" d="M672.363 637.452c1.163-12.94 2.524-29.839 4.444-50.321-1.128-16.923-1.708-31.23-1.746-42.919.467-.174.972-.334 1.511-.476-.078 2.874 0 5.244.226 7.11.726-2.214 2.063-4.018 4.012-5.416.606 1.166.792 2.436 1.764 3.861 1.047-1.088 2.036-2.126 2.683-2.921 1.967 2.361 3.382 4.829 5.166 7.318 3.487-4.574 6.393-8.751 9.564-11.391a54.509 54.509 0 0 1 2.915 1.598 16313.713 16313.713 0 0 1-12.563 44.854c-.859 13.857-.827 30.272.099 49.24-1.573.241-3.18.4-4.827.473v-.163a.718.718 0 0 0-.699-.702l-6.768-.191a.669.669 0 0 0-.699.664v.125a65.704 65.704 0 0 1-5.079-.746l-.003.003Z" fill="#6998D0"/><path fill-rule="evenodd" clip-rule="evenodd" d="M678.402 552.725c1.198-1.932 2.591-3.077 4.172-3.431 1.177.516 2.439 1.714 3.791 3.594-1.053 1.818-2.17 3.086-3.351 3.808 2.217 13.967 3.244 33.417 3.078 58.345-1.682 3.713-3.33 6.394-4.943 8.044-1.946-2.875-3.156-5.842-3.626-8.902 1.538-26.165 2.454-45.254 2.747-57.275-1.111-1.459-1.734-2.854-1.868-4.183Z" fill="#0F3D86"/><path fill-rule="evenodd" clip-rule="evenodd" d="M686.365 547.782c.777 1.045 1.485 2.103 2.196 3.177-.65.432-1.482.936-2.498 1.514-.902-1.201-1.766-2.089-2.587-2.663a62.763 62.763 0 0 1 2.892-2.025l-.003-.003Zm-6.402-1.679c.369 1.288.873 2.48 1.523 3.576-.896.438-1.723 1.161-2.48 2.167-.426-.673-.783-1.81-1.068-3.417a10.519 10.519 0 0 1 2.028-2.329l-.003.003Z" fill="#0F3D86"/><path fill-rule="evenodd" clip-rule="evenodd" d="M656.736 736.561c-.09-20.975.615-45.666 2.121-74.07 2.816 1.683 6.428 2.973 11.06 3.971 1.114-2.938 2.129-9.906 3.623-22.651 1.282.345 2.582.62 3.904.832v.722c0 .375.317.691.699.702l6.768.192a.669.669 0 0 0 .699-.665v-.513a45.502 45.502 0 0 0 3.722-.322c.704 10.718.977 17.892 1.525 23.13 11.122-1.386 17.805-2.593 23.177-4.841 2.747 21.129 4.267 43.917 4.566 68.361 4.551 9.764 5.792 33.608 3.733 71.541-3.875.861-8.27.861-13.184 0-3.875-17.065-7.246-39.517-10.109-67.355-4.032-13.329-8.206-32.064-12.525-56.201-.87 16.371-3.217 34.892-7.034 55.56 1.285 15.264-.946 37.68-6.704 67.25-3.022.29-7.782-.139-14.283-1.288.661-24.044.075-45.495-1.761-64.352l.003-.003Z" fill="#233862"/><path fill-rule="evenodd" clip-rule="evenodd" d="M690.858 667.887c-.548-5.239-.824-12.413-1.526-23.131.485-.061.969-.13 1.454-.206.38 6.625.864 13.544 1.453 20.755 9.653-.522 16.844-1.828 21.575-3.919l.221 1.662c-5.372 2.248-12.058 3.455-23.177 4.841v-.002Zm-20.943-1.428c-4.63-.995-8.244-2.285-11.061-3.971.032-.632.07-1.267.102-1.903a24.814 24.814 0 0 0 10.141 3.417c.951-3.889 1.787-10.866 2.724-20.702.568.183 1.14.351 1.717.505-1.494 12.746-2.509 19.713-3.623 22.651v.003Z" fill="#072E52"/><path fill-rule="evenodd" clip-rule="evenodd" d="M722.759 809.299c-.623.598-.826.427-1.264.134-.717-3.919-8.111-4.375-9.944-.375-.545-.214-.931-.554-1.155-1.018-1.288 2.535-4.209 5.018-3.434 9.439 1.967 2.825 12.076 4.226 16.865-1.555 1.357-2.198-.316-4.986-1.071-6.622l.003-.003Zm-50.991-4.307c1.235 3.353 1.511 6.106.055 7.185-3.719.748-11.336.655-23.073 2.198-8.284-.594-11.875-2.953-9.778-5.578 7.2.447 13.703-1.433 19.502-5.63 1.079 4.386 5.511 4.992 13.294 1.825Z" fill="#0F3970"/><path fill-rule="evenodd" clip-rule="evenodd" d="M721.999 803.019c.201 2.344.398 4.488.589 6.431-.496.412-.699.25-1.096-.017-.717-3.919-8.111-4.375-9.944-.374l-.014-.006-.012-.006-.012-.006-.011-.006h-.015l-.011-.008h-.003l-.012-.006-.011-.006h-.003l-.009-.006-.012-.006h-.002l-.006-.005-.012-.006h-.006l-.005-.006-.012-.006h-.006l-.006-.003-.011-.005h-.006l-.006-.006-.012-.006h-.005l-.006-.006h-.012l-.006-.006h-.002l-.012-.008-.006-.006h-.003l-.011-.006h-.006l-.003-.006-.012-.006-.008-.005-.012-.006-.009-.006-.011-.006-.009-.006-.012-.005-.011-.006-.032-.021-.012-.005-.008-.006-.012-.006-.009-.006-.008-.006h-.003l-.006-.005-.012-.006h-.003l-.005-.006-.009-.006h-.003l-.006-.006-.008-.005h-.006l-.015-.015h-.003l-.005-.006-.012-.005h-.006l-.003-.006-.011-.006h-.006l-.003-.006-.009-.006-.006-.005-.011-.009-.006-.006-.012-.009-.005-.005-.012-.012-.006-.006-.008-.009-.009-.005c.325-1.575.597-3.354.824-5.338 3.765.444 7.199.343 10.306-.301l-.018-.018Zm-62.179-1.882c-.285 1.035-.665 1.943-1.137 2.721.04.113.087.226.133.333.215.487.482.911.809 1.271h.006c.107.122.221.235.342.339l.006.006c.038.035.076.064.113.096l.015.011c.418.331.902.586 1.453.766h.012c.049.02.098.035.151.049l.029.006.153.044h.015c.055.017.11.031.165.04h.012c.055.015.113.026.168.038l.029.006.162.029h.015c.56.09 1.175.116 1.845.081h.029l.2-.015h.032l.2-.02h.044l.2-.023h.037l.218-.032h.006l.226-.032.052-.006c.554-.081 1.137-.2 1.749-.354l.07-.017.241-.061.029-.011.235-.064.072-.021.215-.061.078-.02.215-.064.093-.029.22-.069.064-.018.244-.081.063-.02.244-.081.055-.018.258-.087.064-.023.255-.09.317-.116c.2-.073.406-.151.612-.229l.046-.018.319-.124c-.011-.943.038-1.909.145-2.898-2.782.078-6.663-.302-11.646-1.137l.003.003Z" fill="#FFB27D"/><path fill-rule="evenodd" clip-rule="evenodd" d="M655.663 563.023c-.243 6.262.54 14.028 1.538 22.614-3.2 3.968-10.089 11.057-15.989 15.466-12.105.697-25.077-2.111-45.068-8.159 14.532 3.286 29.387 5.235 44.569 5.842 3.075-2.214 7.8-6.878 14.173-13.996-.2-5.439.058-12.697.777-21.767Zm56.28 52.949c.699-8.725 1.358-16.235 1.976-22.524a23.37 23.37 0 0 0 2.027 5.28c-.899 6.425-2.138 11.994-2.433 17.735 1.047 11.756 1.56 25.799 4.705 42.121a11.17 11.17 0 0 1-1.193.989c-2.561-10.06-4.255-24.592-5.085-43.604l.003.003Z" fill="#072E52"/><path fill-rule="evenodd" clip-rule="evenodd" d="M690.788 644.55c-6.744 1.062-13.065.647-18.965-1.247.174-1.851.354-3.8.54-5.851 6.5 1.21 12.525 1.389 18.074.539.105 2.156.221 4.34.351 6.559Z" fill="#9D7558"/><path fill-rule="evenodd" clip-rule="evenodd" d="m684.91 637.6-6.77-.191a.674.674 0 0 0-.696.678v7.258c0 .386.313.708.696.719l6.77.192a.677.677 0 0 0 .699-.679v-7.258a.725.725 0 0 0-.699-.719Z" fill="#fff"/><path fill-rule="evenodd" clip-rule="evenodd" d="M684.268 638.897v6.027l-5.477-.153v-6.028l5.477.154Z" fill="#9D7558"/><path fill-rule="evenodd" clip-rule="evenodd" d="M704.476 543.678a12.51 12.51 0 0 1-.824.026l.244.22.577-.243.003-.003Zm-1.514.006c-.16-.009-.319-.021-.479-.032.142.081.282.162.418.243l.061-.214v.003Zm-6.211-5.14c-3.303 2.703-6.764 5.047-10.964 7.118-.264.131-.531.261-.804.389.093.107.183.214.273.325-.569.693-1.392 1.578-2.292 2.514a5.779 5.779 0 0 1-.818-.298c-.618-1.143-.832-2.187-1.334-3.156.067-.566.128-1.123.183-1.671.064-.661.275-3.028.377-3.675-.34-.023-.664-.05-.981-.084-.388-.05-.847-.125-1.369-.221l-.02.02c-4.122-.777-5.828-2.892-5.12-6.335-1.665-7.112-1.9-13.282-.09-14.947.302-3.043.691-5.92 1.166-8.644 10.22-1.323 17.935-.624 21.237 4.281-.418 2.988-1.317 6.878-2.701 11.667.6 1.14 1.479 1.735 2.64 1.781 1.456-2.837 2.671-4.531 3.652-5.082 4.867 2.181 3.95 5.546-2.744 10.094-.395 1.57-.772 2.866-1.132 3.893.174.572.461 1.265.844 2.034l-.003-.003Z" fill="#FFB27D"/><path fill-rule="evenodd" clip-rule="evenodd" d="M681.372 540.084c1.818.156 3.866.096 6.149-.189-2.158 1.433-4.308 2.46-6.448 3.075.04-.421.078-.838.113-1.253.07-.688.139-1.34.186-1.636v.003Z" fill="#CA534B"/><path fill-rule="evenodd" clip-rule="evenodd" d="m695.983 677.395 2.773 64.39L769 734.391l-8.32-56.996h-64.697Z" fill="#E3BB9B"/><path fill-rule="evenodd" clip-rule="evenodd" d="M687.049 733.852c5.656 2.08 8.931 4.925 11.71 7.933l-2.773-64.39-3.156-.081-5.778 56.535-.003.003Z" fill="#CA534B"/><path fill-rule="evenodd" clip-rule="evenodd" d="m695.983 677.395 8.168 25.828c1.175 2.866 2.379 5.369 7.139 4.978l45.08-2.86c4.02-.256 4.116-2.286 4.148-5.039v-22.907H695.98h.003Z" fill="#CA534B"/><path fill-rule="evenodd" clip-rule="evenodd" d="m728.527 703.612 11.467-.74c.629-.041 1.261.4 1.357 1.03l1.561 10.184c.095.627-.302 1.207-.92 1.268l-11.928 1.206c-.623.064-1.293-.394-1.357-1.029l-1.097-10.649c-.063-.638.29-1.227.92-1.27h-.003Z" fill="#fff"/><path fill-rule="evenodd" clip-rule="evenodd" d="m730.644 706.356.74 7.185 8.406-.85-1.053-6.858-8.093.523Zm-21.186-28.961c.701-2.498 2.346-4.58 4.568-6.208a18.001 18.001 0 0 1 3.165-1.842c.679-1.757 4.751-3.24 9.729-3.428 5.27-.203 9.642 1.117 10.071 2.982.334.145.659.299.978.461 3.306 1.697 5.781 4.348 6.581 8.038h-2.425c-.777-2.706-2.7-4.676-5.218-5.967-.339-.174-.69-.333-1.05-.484-1.651 1.18-4.896 2.062-8.659 2.207-3.939.151-7.376-.548-9.044-1.691a15.8 15.8 0 0 0-2.756 1.604c-1.587 1.163-2.805 2.614-3.452 4.334h-2.488v-.006Z" fill="#9D7558"/><path fill-rule="evenodd" clip-rule="evenodd" d="M720.97 668.806c-.038 1.546-.595 3.884.391 5.001 2.591 2.921 8.926 3.124 11.65 1.247 1.172-.806 1.308-3.443 1.34-5.131-1.401-3.58-2.161-6.889-2.274-9.932-2.773-1.842-6.962-2.019-8.357-1.062l-2.75 9.877Z" fill="#FFB27D"/><path fill-rule="evenodd" clip-rule="evenodd" d="m241.586 598.415 169.683-66.763c5.622-2.21 12.035.58 14.249 6.208l38.353 97.478c2.213 5.622-.58 12.035-6.202 14.248l-169.683 66.763c-5.622 2.214-12.041-.577-14.251-6.198l-38.354-97.479c-2.213-5.627.583-12.044 6.205-14.254v-.003Z" fill="url(#e)"/><path fill-rule="evenodd" clip-rule="evenodd" d="m277.024 669.14 24.969-9.824a2.759 2.759 0 0 1 3.565 1.552l2.605 6.619a2.762 2.762 0 0 1-1.552 3.565l-24.969 9.825a2.758 2.758 0 0 1-3.565-1.552l-2.605-6.62a2.754 2.754 0 0 1 1.552-3.565Zm131.53-51.748 24.969-9.825a2.754 2.754 0 0 1 3.565 1.552l2.605 6.619a2.759 2.759 0 0 1-1.552 3.565l-24.969 9.825a2.758 2.758 0 0 1-3.565-1.552l-2.605-6.619a2.754 2.754 0 0 1 1.552-3.565Zm-43.848 17.25 24.976-9.827a2.753 2.753 0 0 1 3.559 1.554l2.605 6.62a2.76 2.76 0 0 1-1.546 3.565l-24.976 9.827a2.756 2.756 0 0 1-3.559-1.554l-2.605-6.62a2.752 2.752 0 0 1 1.546-3.562v-.003Zm-43.841 17.251 24.969-9.825a2.754 2.754 0 0 1 3.565 1.552l2.605 6.619a2.759 2.759 0 0 1-1.552 3.565l-24.969 9.825a2.764 2.764 0 0 1-3.565-1.552l-2.605-6.619a2.758 2.758 0 0 1 1.552-3.565Zm-35.013 42.452 84.144-33.106c.89-.351 1.903.09 2.251.981l1.923 4.89a1.737 1.737 0 0 1-.981 2.251l-84.144 33.106c-.89.351-1.9-.09-2.251-.98l-1.923-4.891c-.351-.888.09-1.9.981-2.251Zm101.8-40.053 34.663-13.639a1.74 1.74 0 0 1 2.251.98l1.924 4.891c.351.89-.09 1.9-.981 2.251l-34.663 13.639c-.891.351-1.9-.09-2.251-.98l-1.924-4.891c-.351-.888.09-1.9.981-2.251Zm-32.32-84.559 54.748-21.541c1.404-.551 2.839-.278 3.188.613l1.923 4.89c.351.891-.514 2.068-1.918 2.619l-54.748 21.541c-1.404.551-2.84.279-3.188-.612l-1.923-4.89c-.351-.888.514-2.069 1.918-2.62Zm-97.116 52.94 29.19-11.484a2.265 2.265 0 0 1 2.93 1.277l9.351 23.765a2.27 2.27 0 0 1-1.273 2.936l-29.19 11.484a2.27 2.27 0 0 1-2.932-1.282l-9.352-23.766a2.265 2.265 0 0 1 1.276-2.93Z" fill="#fff"/><path d="M533.66 732.367c-2.823-.029-5.016-.656-6.582-1.88-1.567-1.227-2.341-2.909-2.318-5.053l.041-4.023-2.718-.026-.047 4.693c0 .278-.185.418-.548.415l-2.251-.024c-.389-.002-.58-.145-.577-.423l.046-4.693-2.677-.026c-.389-.003-.58-.137-.577-.398l.023-2.402c0-.278.197-.417.586-.414l2.677.026.018-1.648c0-.278.197-.418.586-.415l2.25.023c.363.003.543.145.54.424l-.017 1.648 20.537.203c.388.002.58.145.577.423l-.067 6.817c-.02 2.141-.873 3.808-2.552 5.004-1.683 1.195-3.998 1.778-6.948 1.749h-.002Zm-3.626-4.27c.835.65 2.132.986 3.892 1.003 1.761.018 3.058-.29 3.893-.925.836-.635 1.259-1.633 1.271-2.991l.034-3.631-10.288-.102-.035 3.632c-.015 1.36.397 2.364 1.233 3.017v-.003Z" fill="#E2810E"/><defs><filter id="a" x="0" y="208.936" width="619.05" height="620.089" filterUnits="userSpaceOnUse" color-interpolation-filters="sRGB"><feFlood flood-opacity="0" result="BackgroundImageFix"/><feBlend in="SourceGraphic" in2="BackgroundImageFix" result="shape"/><feGaussianBlur stdDeviation="81.5" result="effect1_foregroundBlur_1910_29"/></filter><filter id="b" x="228.228" y="-18" width="760.127" height="760.127" filterUnits="userSpaceOnUse" color-interpolation-filters="sRGB"><feFlood flood-opacity="0" result="BackgroundImageFix"/><feBlend in="SourceGraphic" in2="BackgroundImageFix" result="shape"/><feGaussianBlur stdDeviation="103" result="effect1_foregroundBlur_1910_29"/></filter><filter id="c" x="348.734" y="276.05" width="779.95" height="779.95" filterUnits="userSpaceOnUse" color-interpolation-filters="sRGB"><feFlood flood-opacity="0" result="BackgroundImageFix"/><feBlend in="SourceGraphic" in2="BackgroundImageFix" result="shape"/><feGaussianBlur stdDeviation="102.5" result="effect1_foregroundBlur_1910_29"/></filter><linearGradient id="d" x1="345.497" y1="444.634" x2="442.824" y2="444.634" gradientUnits="userSpaceOnUse"><stop stop-color="#BA514A"/><stop offset="1" stop-color="#D87872"/></linearGradient><linearGradient id="e" x1="349.626" y1="530.894" x2="349.626" y2="717.109" gradientUnits="userSpaceOnUse"><stop stop-color="#4A7CBB"/><stop offset="1" stop-color="#2AB392"/></linearGradient></defs></svg>