<svg width="320" height="554" fill="none" xmlns="http://www.w3.org/2000/svg"><g filter="url(#a)"><ellipse cx="-.127" cy="274.234" rx="86.873" ry="87.181" fill="#27AE60" fill-opacity=".25"/></g><g filter="url(#b)"><circle cx="177.007" cy="181.2" r="103.2" fill="#278EAE" fill-opacity=".25"/></g><g filter="url(#c)"><circle cx="254.33" cy="361.415" fill="#2745AE" fill-opacity=".25" r="109.669"/></g><path d="m218.339 229.696-14.411-45.733 60.97-19.212h.002l25.689-8.096L305 202.387l-47.967 15.116-38.694 12.193Z" fill="#E9EFF8"/><path d="m221.681 223.021-11.187-35.505 77.892-24.546 11.188 35.505-77.893 24.546Zm-8.733-31.49 8.438 26.777a3.45 3.45 0 0 0 4.328 2.253l69.088-21.77a3.514 3.514 0 0 0 2.294-4.406l-8.404-26.669a3.485 3.485 0 0 0-4.369-2.276l-69.133 21.785a3.431 3.431 0 0 0-2.242 4.306Z" fill="#92AFF2"/><path d="M252.024 183.444c5.276-1.663 10.9 1.267 12.563 6.542 1.662 5.275-1.267 10.9-6.542 12.563-5.276 1.662-10.901-1.268-12.563-6.542-1.663-5.276 1.266-10.901 6.542-12.563Z" fill="#92AFF2"/><path d="m225.473 207.118-35.228-32.53 43.369-46.964 18.274-19.789 35.226 32.529-34.118 36.95-27.523 29.804Z" fill="#E9EFF8"/><path d="m225.058 199.666-27.349-25.255 55.405-60 27.349 25.255-55.405 60Zm-23.225-22.99 20.625 19.046a3.454 3.454 0 0 0 4.877-.194l49.143-53.218a3.513 3.513 0 0 0-.198-4.964l-20.543-18.97a3.486 3.486 0 0 0-4.923.196l-49.174 53.251a3.432 3.432 0 0 0 .193 4.851v.002Z" fill="#92AFF2"/><path d="M231.728 150.243c3.752-4.064 10.089-4.317 14.152-.564 4.064 3.752 4.317 10.089.564 14.152-3.752 4.064-10.089 4.317-14.152.564-4.064-3.752-4.317-10.089-.564-14.152Z" fill="#92AFF2"/><path d="m250.029 258.525-159.076 51.51a7.156 7.156 0 0 1-9.01-4.602l-27.54-85.045a7.156 7.156 0 0 1 4.603-9.01l159.077-51.512a7.156 7.156 0 0 1 9.01 4.602l27.539 85.045a7.156 7.156 0 0 1-4.603 9.01v.002Z" fill="url(#d)"/><path d="m128.716 264.305-42.992 13.919.935 2.89 42.993-13.919-.936-2.89Zm-13.842 10.869-27.277 8.831.936 2.89 27.276-8.831-.935-2.89Zm-28.93-23.163c.878 2.712.367 4.746-1.647 5.397-1.924.623-3.525-.799-4.366-3.35-.848-2.621-.302-4.723 1.66-5.359 2.027-.657 3.554.845 4.353 3.312Zm-4.416 1.515c.665 2.054 1.562 2.931 2.427 2.651.943-.305 1.052-1.596.401-3.61-.631-1.95-1.456-2.953-2.41-2.643-.84.271-1.095 1.509-.418 3.601v.001Zm12.304-4.069c.878 2.712.367 4.745-1.647 5.397-1.924.623-3.525-.799-4.366-3.351-.848-2.62-.302-4.723 1.66-5.359 2.027-.656 3.554.846 4.353 3.313Zm-4.416 1.516c.665 2.052 1.562 2.931 2.427 2.651.942-.305 1.052-1.596.401-3.61-.632-1.95-1.456-2.953-2.41-2.643-.84.271-1.095 1.509-.419 3.601v.001Zm12.304-4.07c.878 2.712.367 4.745-1.647 5.397-1.924.623-3.525-.799-4.366-3.351-.848-2.62-.302-4.723 1.66-5.359 2.027-.656 3.554.846 4.353 3.313Zm-4.416 1.516c.665 2.052 1.562 2.931 2.427 2.651.943-.305 1.052-1.596.401-3.609-.631-1.949-1.456-2.952-2.41-2.643-.84.272-1.095 1.51-.418 3.601Zm12.304-4.071c.878 2.712.367 4.746-1.647 5.399-1.924.623-3.525-.799-4.366-3.351-.848-2.62-.302-4.723 1.66-5.359 2.026-.656 3.554.846 4.353 3.313v-.002Zm-4.417 1.517c.666 2.052 1.563 2.931 2.428 2.651.942-.305 1.052-1.596.401-3.609-.632-1.95-1.456-2.953-2.411-2.643-.84.271-1.094 1.509-.418 3.601Zm19.585-6.428c.878 2.712.367 4.746-1.647 5.397-1.924.623-3.525-.799-4.366-3.351-.848-2.62-.303-4.723 1.66-5.358 2.026-.657 3.554.845 4.353 3.312Zm-4.417 1.516c.666 2.052 1.563 2.931 2.428 2.652.942-.306 1.052-1.597.401-3.611-.632-1.949-1.456-2.952-2.411-2.643-.84.272-1.094 1.509-.418 3.601v.001Zm12.305-4.07c.877 2.712.367 4.745-1.648 5.397-1.924.623-3.524-.799-4.365-3.351-.849-2.62-.303-4.723 1.659-5.359 2.027-.656 3.555.846 4.354 3.313Zm-4.417 1.516c.665 2.052 1.563 2.931 2.428 2.651.942-.305 1.052-1.596.401-3.61-.632-1.95-1.456-2.953-2.411-2.643-.84.271-1.095 1.509-.418 3.601v.001Zm12.305-4.071c.878 2.712.367 4.746-1.647 5.399-1.924.623-3.525-.799-4.366-3.351-.848-2.62-.302-4.723 1.66-5.359 2.027-.656 3.554.846 4.353 3.313v-.002Zm-4.416 1.517c.665 2.052 1.562 2.931 2.427 2.651.943-.305 1.052-1.596.401-3.611-.631-1.949-1.456-2.952-2.411-2.642-.839.271-1.094 1.509-.417 3.6v.002Zm12.303-4.071c.878 2.712.368 4.746-1.647 5.397-1.924.623-3.524-.799-4.366-3.351-.848-2.62-.302-4.723 1.66-5.358 2.027-.657 3.554.845 4.353 3.312Zm-4.416 1.515c.665 2.052 1.563 2.931 2.428 2.651.942-.305 1.052-1.596.4-3.611-.631-1.949-1.455-2.952-2.41-2.642-.84.271-1.095 1.509-.418 3.6v.002Zm19.585-6.427c.878 2.712.367 4.746-1.647 5.397-1.924.623-3.525-.799-4.366-3.35-.848-2.621-.302-4.723 1.66-5.359 2.026-.657 3.554.845 4.353 3.312Zm-4.417 1.517c.666 2.052 1.563 2.931 2.428 2.651.942-.305 1.052-1.597.399-3.609-.631-1.95-1.455-2.953-2.41-2.643-.84.271-1.095 1.509-.418 3.601h.001Zm12.305-4.071c.877 2.712.367 4.746-1.647 5.397-1.925.623-3.525-.799-4.366-3.35-.849-2.621-.303-4.724 1.659-5.359 2.027-.657 3.555.845 4.354 3.312Zm-4.417 1.516c.665 2.052 1.563 2.932 2.428 2.652.942-.306 1.052-1.597.401-3.611-.632-1.949-1.456-2.952-2.411-2.643-.84.272-1.095 1.509-.417 3.601l-.001.001Zm12.305-4.069c.877 2.712.367 4.746-1.647 5.397-1.924.623-3.525-.799-4.366-3.35-.848-2.621-.303-4.723 1.66-5.359 2.026-.657 3.554.845 4.353 3.312Zm-4.417 1.515c.666 2.052 1.563 2.931 2.428 2.652.942-.306 1.052-1.597.401-3.611-.632-1.95-1.456-2.952-2.411-2.643-.84.271-1.094 1.509-.416 3.601l-.002.001Zm12.303-4.069c.878 2.712.367 4.746-1.647 5.397-1.924.623-3.525-.799-4.366-3.351-.848-2.62-.302-4.723 1.66-5.358 2.027-.657 3.554.845 4.353 3.312Zm-4.417 1.515c.666 2.053 1.563 2.931 2.428 2.651.943-.305 1.052-1.596.4-3.611-.632-1.949-1.456-2.952-2.411-2.642-.84.271-1.095 1.509-.418 3.6l.001.002Zm19.586-6.427c.878 2.712.368 4.746-1.647 5.399-1.924.623-3.524-.799-4.366-3.351-.848-2.62-.302-4.723 1.66-5.359 2.027-.657 3.554.846 4.353 3.313v-.002Zm-4.416 1.517c.665 2.052 1.563 2.931 2.428 2.651.942-.305 1.052-1.597.399-3.611-.632-1.949-1.456-2.952-2.411-2.643-.839.272-1.094 1.51-.418 3.601l.002.002Zm12.303-4.071c.878 2.712.367 4.745-1.647 5.397-1.923.623-3.525-.799-4.366-3.351-.848-2.62-.302-4.723 1.66-5.359 2.027-.656 3.554.846 4.353 3.313Zm-4.416 1.515c.665 2.052 1.562 2.931 2.427 2.651.943-.305 1.052-1.596.4-3.609-.632-1.95-1.456-2.953-2.411-2.643-.84.271-1.094 1.509-.418 3.601h.002Zm12.303-4.069c.878 2.712.367 4.746-1.647 5.397-1.924.623-3.525-.799-4.366-3.351-.848-2.62-.302-4.723 1.66-5.359 2.027-.656 3.554.846 4.353 3.313Zm-4.416 1.515c.665 2.052 1.562 2.931 2.427 2.651.943-.305 1.053-1.596.401-3.611-.631-1.949-1.455-2.952-2.41-2.642-.84.271-1.095 1.509-.417 3.6l-.001.002Zm12.305-4.07c.878 2.712.368 4.746-1.647 5.399-1.924.623-3.524-.799-4.365-3.351-.849-2.62-.303-4.723 1.659-5.358 2.027-.657 3.555.845 4.353 3.312v-.002Zm-4.416 1.517c.665 2.052 1.563 2.931 2.428 2.651.942-.305 1.052-1.596.399-3.609-.631-1.95-1.456-2.952-2.411-2.643-.839.271-1.094 1.509-.417 3.601h.001Z" fill="#E7D4F4"/><path d="M161.184 271.302v7.532c0 1.442-1.252 2.622-2.779 2.622h-5.722c-1.527 0-2.779-1.18-2.779-2.622v-7.532c0-1.442 1.252-2.622 2.779-2.622h5.722c1.527 0 2.779 1.18 2.779 2.622Z" fill="#92AFF2"/><path d="M161.184 271.302v4.196c0 1.441-1.252 2.621-2.779 2.621h-5.722c-1.527 0-2.779-1.18-2.779-2.621v-4.196c0-1.442 1.252-2.622 2.779-2.622h5.722c1.527 0 2.779 1.18 2.779 2.622Z" fill="#AEC3FF"/><path d="M224.578 275.067c0 3.854-.835 7.532-2.344 10.882-4.526 10.051-15.112 17.146-27.369 17.146h-8.495c-10.845 0-20.381-5.554-25.57-13.795-2.63-4.178-4.143-9.047-4.143-14.233 0-3.854.835-7.532 2.344-10.882 4.527-10.052 15.112-17.145 27.369-17.145h8.495c11.146 0 20.91 5.867 25.992 14.489 2.37 4.02 3.721 8.638 3.721 13.539v-.001Z" fill="#92AFF2"/><path d="m199.893 291.195-2.772 16.976c-.369 1.315.684 2.602 2.125 2.602h7.285c1.561 0 2.991-.823 3.707-2.132l11.322-21.299-21.665 3.852-.002.001Zm-16.586.292 2.224 16.684c.368 1.315-.684 2.602-2.125 2.602h-7.285c-1.561 0-2.992-.823-3.707-2.132l-11.616-19.343 22.509 2.187v.002Zm48.35-8.801c-.168 0-.335-.02-.501-.062-1.291-.321-2.031-1.775-1.929-3.796.1-1.981.979-4.074 2.413-5.739a10.67 10.67 0 0 1 2.184-1.928 6.042 6.042 0 0 0-1.606-1.671c-1.19-.843-2.421-1.085-3.76-.741-3.601.922-6.653 5.776-6.9 6.322a.622.622 0 0 1-.766.349.569.569 0 0 1-.385-.727c.107-.303.999-1.753 2.243-3.188 2.169-2.502 4.058-3.448 5.261-3.803 1.785-.526 3.48-.233 5.037.869a7.237 7.237 0 0 1 1.908 1.976c1.235-.649 2.628-1.099 4.143-1.334.332-.052.645.16.699.474a.578.578 0 0 1-.502.659c-1.39.216-2.663.629-3.787 1.227.346.785.564 1.651.65 2.586.177 1.925-.232 4.023-1.124 5.762-.907 1.769-2.103 2.765-3.277 2.765h-.001Zm2.704-10.475a9.59 9.59 0 0 0-1.778 1.602c-1.272 1.48-2.053 3.328-2.14 5.07-.069 1.382.351 2.464 1.022 2.63.68.169 1.654-.692 2.373-2.093.786-1.533 1.163-3.463 1.007-5.162a7.357 7.357 0 0 0-.482-2.048l-.002.001Zm-12.801 2.846-.004.01.004-.01Z" fill="#92AFF2"/><path d="M220.857 261.528c.704 3.232.15 7.852-.751 10.3-5.996 16.268-20.091 19.205-34.5 20.442-10.245.879-24.806-2.97-24.806-2.97-2.63-4.178-4.143-9.047-4.143-14.233 0-3.854.835-7.532 2.344-10.882 4.527-10.052 15.112-17.145 27.369-17.145h8.495c11.146 0 20.91 5.867 25.992 14.489v-.001Z" fill="#AEC3FF"/><path d="M182.866 254.062h-11.687c-1.179 0-2.134-.675-2.134-1.508v-15.051c0-.258.086-.491.233-.694.571-.782 2.074-1.105 3.192-.508 4.437 2.373 11.706 7.53 12.525 16.15.083.871-.894 1.611-2.129 1.611Z" fill="#AEC3FF"/><path d="M171.654 254.062h-.475c-1.179 0-2.134-.675-2.134-1.508v-15.051c0-.258.086-.491.233-.694a1.3 1.3 0 0 1 .145.134c2.539 2.665 6.197 7.903 5.168 15.24-.151 1.066-1.418 1.88-2.936 1.88l-.001-.001Z" fill="#92AFF2"/><path d="M165.495 264.123c0-.907.779-1.643 1.741-1.643.962 0 1.741.736 1.741 1.643s-.779 1.643-1.741 1.643c-.962 0-1.741-.736-1.741-1.643Z" fill="#2B478B"/><path d="M206.32 307.817v2.131c0 .169.062.326.168.458a.973.973 0 0 0 .458.307 1.092 1.092 0 0 0 .352.055h40.398c.489 0 .896-.304.968-.698.004-.027.007-.053.009-.08v-2.215c0-.028-.006-.055-.009-.081-.072-.393-.479-.697-.968-.697h-40.398a1.062 1.062 0 0 0-.352.055.964.964 0 0 0-.458.306.726.726 0 0 0-.168.459Z" fill="#FFB93E"/><path d="M226.157 310.768h21.644a.867.867 0 0 0 .872-.778v-2.215c0-.028-.006-.055-.009-.081a.867.867 0 0 0-.863-.697h-18.986c-.302 1.111-1.01 2.646-2.658 3.771Zm-14.921 0h.458v-3.771h-.458v3.771Zm1.554 0h.459v-3.771h-.459v3.771Zm1.864 0h.458v-3.771h-.458v3.771Zm2.856 0h.459v-3.771h-.459v3.771Zm3.021 0h.459v-3.771h-.459v3.771Zm4.633 0h.459v-3.771h-.459v3.771Z" fill="#FFA412"/><path d="M229.499 310.768h.459v-3.771h-.459v3.771Zm3.873 0h.458v-3.771h-.458v3.771Zm-23.616 0h.459v-3.771h-.459v3.771Zm-.975 0h.458v-3.771h-.458v3.771Zm-.945 0h.458v-3.771h-.458v3.771Zm-.711-3.759v3.746c.056.009.114.013.172.013h.287v-3.771h-.287c-.059 0-.117.004-.172.012Zm-.638.349v3.047a.974.974 0 0 0 .459.306v-3.661a.976.976 0 0 0-.459.307v.001Z" fill="#FFA412"/><path d="M210.64 304.046v2.129a.739.739 0 0 0 .259.557.993.993 0 0 0 .367.21 1.232 1.232 0 0 0 .35.056h40.4c.487 0 .895-.305.967-.699a.722.722 0 0 0 .008-.08v-2.214c0-.027-.006-.053-.008-.08-.072-.394-.48-.699-.967-.699h-40.4c-.025 0-.052 0-.077.004-.01 0-.018 0-.028.003h-.006c-.011 0-.024 0-.036.004-.009 0-.017.003-.026.004a1.005 1.005 0 0 0-.178.042c-.034.012-.068.024-.099.038l-.063.03-.035.02a.841.841 0 0 0-.151.107c-.012.009-.022.021-.034.031a.109.109 0 0 0-.019.018l-.01.011-.009.009a.733.733 0 0 0-.202.5l-.003-.001Z" fill="#FFB93E"/><path d="M230.478 306.997h21.643a.866.866 0 0 0 .863-.699.747.747 0 0 0 .008-.08v-2.214c0-.027-.006-.054-.008-.08a.866.866 0 0 0-.863-.699h-18.985c-.007.031-.017.061-.027.092-.316 1.102-1.028 2.586-2.631 3.679v.001Zm-14.922 0h.458v-3.771h-.458v3.771Zm1.554 0h.459v-3.771h-.459v3.771Zm1.864 0h.458v-3.771h-.458v3.771Zm2.857 0h.458v-3.771h-.458v3.771Zm3.021 0h.459v-3.771h-.459v3.771Zm4.631 0h.459v-3.771h-.459v3.771Z" fill="#FFA412"/><path d="M233.82 306.997h.458v-3.771h-.458v3.771Zm3.872 0h.459v-3.771h-.459v3.771Zm-23.616 0h.459v-3.771h-.459v3.771Zm-.977 0h.458v-3.771h-.458v3.771Zm-.945 0h.459v-3.771h-.459v3.771Zm-.71-3.76v3.746c.057.008.114.013.173.013h.287v-3.771h-.287c-.059 0-.116.004-.173.012Zm-.637.351v3.046a.976.976 0 0 0 .459.307v-3.661a.967.967 0 0 0-.459.306v.002Z" fill="#FFA412"/><path d="M208.553 300.368v2.131c0 .168.062.326.167.458.111.138.27.246.459.307.056.018.116.032.178.043.057.007.114.013.172.013h40.4c.162 0 .315-.034.45-.093.267-.118.464-.337.515-.596.004-.019.005-.035.007-.054l.003-.036v-2.216c0-.026-.005-.054-.009-.078-.072-.396-.479-.699-.966-.699h-40.4c-.058 0-.117.004-.172.012a1.005 1.005 0 0 0-.178.042.982.982 0 0 0-.459.308.731.731 0 0 0-.167.459v-.001Z" fill="#FFB93E"/><path d="M228.391 303.317h21.643a.89.89 0 0 0 .401-.093.828.828 0 0 0 .467-.649c0-.012.003-.024.003-.037v-2.215a.491.491 0 0 0-.031-.166.865.865 0 0 0-.84-.612h-18.985c-.295 1.079-.972 2.561-2.525 3.678a3.415 3.415 0 0 1-.132.093l-.001.001Zm-14.922 0h.458v-3.771h-.458v3.771Zm1.553 0h.459v-3.771h-.459v3.771Zm1.864 0h.459v-3.771h-.459v3.771Zm2.857 0h.459v-3.771h-.459v3.771Zm3.022 0h.458v-3.771h-.458v3.771Zm4.631 0h.458v-3.771h-.458v3.771Z" fill="#FFA412"/><path d="M231.733 303.317h.458v-3.771h-.458v3.771Zm3.872 0h.458v-3.771h-.458v3.771Zm-23.616 0h.458v-3.771h-.458v3.771Zm-.977 0h.458v-3.771h-.458v3.771Zm-.944 0h.458v-3.771h-.458v3.771Zm-.711-3.758v3.745c.057.009.114.013.173.013h.287v-3.771h-.287c-.059 0-.116.004-.173.013Zm-.637.35v3.047a.976.976 0 0 0 .459.307v-3.662a.976.976 0 0 0-.459.307v.001Z" fill="#FFA412"/><path d="M207.585 296.597v2.13c0 .17.062.326.168.458l.043.051a.947.947 0 0 0 .279.202 1.088 1.088 0 0 0 .313.097c.029.005.057.007.085.01a.865.865 0 0 0 .088.005h40.399c.488 0 .896-.306.968-.7a.711.711 0 0 0 .008-.078v-2.216c-.025-.399-.394-.725-.861-.772a1.113 1.113 0 0 0-.116-.005H208.56a.67.67 0 0 0-.089.004c-.029.003-.056.005-.084.01a.897.897 0 0 0-.179.042.971.971 0 0 0-.458.306.726.726 0 0 0-.167.46l.002-.004Z" fill="#FFB93E"/><path d="M227.423 299.546h21.644a.867.867 0 0 0 .872-.777v-2.216c-.023-.398-.352-.726-.768-.772a.894.894 0 0 0-.104-.006h-18.986v.006c-.304 1.11-1.011 2.642-2.657 3.765h-.001Zm-14.922 0h.458v-3.771h-.458v3.771Zm1.554 0h.459v-3.771h-.459v3.771Zm1.863 0h.459v-3.771h-.459v3.771Zm2.858 0h.458v-3.771h-.458v3.771Zm3.021 0h.458v-3.771h-.458v3.771Zm4.632 0h.458v-3.771h-.458v3.771Z" fill="#FFA412"/><path d="M230.765 299.546h.458v-3.771h-.458v3.771Zm3.872 0h.459v-3.771h-.459v3.771Zm-23.616 0h.459v-3.771h-.459v3.771Zm-.978 0h.459v-3.771h-.459v3.771Zm-.943 0h.458v-3.771h-.458v3.771Zm-.711-3.758v3.746c.056.008.114.012.173.012h.287v-3.771h-.287c-.059 0-.117.005-.173.013Zm-.636.349v3.046a.966.966 0 0 0 .458.307v-3.661a.971.971 0 0 0-.458.306v.002Z" fill="#FFA412"/><path d="M210.556 292.83v2.13c0 .17.06.326.166.458a.957.957 0 0 0 .46.308 1.236 1.236 0 0 0 .233.049h.007c.01 0 .02.003.031.003a.09.09 0 0 1 .027.003h40.45c.522 0 .951-.347.976-.779v-2.214c0-.011 0-.023-.002-.034-.04-.347-.339-.634-.733-.719-.009-.002-.018-.005-.03-.005a1.121 1.121 0 0 0-.212-.02H211.53a.64.64 0 0 0-.087.004c-.013 0-.025.003-.036.004h-.005c-.015 0-.029.005-.045.006-.06.009-.121.023-.177.042a.968.968 0 0 0-.46.308.73.73 0 0 0-.166.459l.002-.003Z" fill="#FFB93E"/><path d="M230.393 295.781h21.642c.466 0 .849-.347.873-.779v-2.214c0-.011 0-.023-.003-.034-.035-.356-.314-.646-.678-.723a.982.982 0 0 0-.192-.021h-18.984l-.007.028c-.306 1.106-1.014 2.622-2.641 3.739a.02.02 0 0 1-.009.005l-.001-.001Zm-14.922 0h.458v-3.771h-.458v3.771Zm1.554 0h.459v-3.771h-.459v3.771Zm1.864 0h.459v-3.771h-.459v3.771Zm2.857 0h.458v-3.771h-.458v3.771Zm3.021 0h.459v-3.771h-.459v3.771Zm4.63 0h.459v-3.771h-.459v3.771Z" fill="#FFA412"/><path d="M233.734 295.781h.458v-3.771h-.458v3.771Zm3.872 0h.459v-3.771h-.459v3.771Zm-23.615 0h.459v-3.771h-.459v3.771Zm-.977 0h.459v-3.771h-.459v3.771Zm-.944 0h.459v-3.771h-.459v3.771Zm-.71-3.758v3.745c.056.009.114.013.173.013h.287v-3.771h-.287c-.059 0-.117.004-.173.013Zm-.639.349v3.046a.976.976 0 0 0 .459.307v-3.662a.976.976 0 0 0-.459.307v.002Z" fill="#FFA412"/><path d="M210.64 289.087v2.129a.738.738 0 0 0 .259.557.993.993 0 0 0 .506.245h.005c.012.003.023.006.036.006.056.008.114.014.172.014h40.4c.042 0 .084-.003.126-.007.017 0 .033-.005.048-.006.412-.063.736-.345.793-.693a.427.427 0 0 0 .007-.071v-2.214c0-.026-.005-.053-.008-.08-.072-.394-.48-.699-.966-.699h-40.4c-.026 0-.052 0-.078.003h-.032a.177.177 0 0 0-.037.006c-.008 0-.016 0-.025.004a1.047 1.047 0 0 0-.601.306c-.012.014-.025.028-.036.043a.734.734 0 0 0-.166.459l-.003-.002Z" fill="#FFB93E"/><path d="M230.477 292.037h21.695c.018 0 .038-.004.055-.006.391-.046.704-.337.756-.701.005-.024.006-.047.008-.071v-2.214c0-.026-.006-.053-.009-.08a.864.864 0 0 0-.862-.699h-18.986a1.076 1.076 0 0 1-.026.093c-.314 1.093-1.017 2.56-2.593 3.651-.012.01-.026.017-.039.028l.001-.001Zm-14.921 0h.458v-3.771h-.458v3.771Zm1.554 0h.459v-3.771h-.459v3.771Zm1.864 0h.458v-3.771h-.458v3.771Zm2.857 0h.458v-3.771h-.458v3.771Zm3.021 0h.459v-3.771h-.459v3.771Zm4.631 0h.459v-3.771h-.459v3.771Z" fill="#FFA412"/><path d="M233.82 292.037h.458v-3.771h-.458v3.771Zm3.872 0h.459v-3.771h-.459v3.771Zm-23.616 0h.459v-3.771h-.459v3.771Zm-.977 0h.458v-3.771h-.458v3.771Zm-.945 0h.459v-3.771h-.459v3.771Zm-.71-3.76v3.746c.057.008.114.013.173.013h.287v-3.771h-.287c-.059 0-.116.004-.173.012Zm-.637.351v3.046a.969.969 0 0 0 .459.307v-3.661a.974.974 0 0 0-.459.306v.002Z" fill="#FFA412"/><path d="M208.553 285.407v2.129c0 .17.062.328.167.46a1.004 1.004 0 0 0 .637.347c.057.009.114.014.172.014h40.4c.162 0 .315-.033.45-.092.267-.117.464-.338.515-.597.004-.018.005-.035.007-.053 0-.013.003-.024.003-.037v-2.215c0-.027-.005-.053-.009-.08-.072-.394-.479-.699-.966-.699h-40.4c-.058 0-.117.005-.172.014a.856.856 0 0 0-.178.042.954.954 0 0 0-.459.308.729.729 0 0 0-.167.459Z" fill="#FFB93E"/><path d="M228.391 288.357h21.643a.903.903 0 0 0 .401-.092.828.828 0 0 0 .467-.65c0-.013.003-.024.003-.037v-2.215c0-.027-.004-.053-.008-.08a.864.864 0 0 0-.863-.699h-18.985c-.295 1.08-.972 2.562-2.525 3.679a5.03 5.03 0 0 1-.132.093l-.001.001Zm-14.922 0h.458v-3.771h-.458v3.771Zm1.553 0h.459v-3.771h-.459v3.771Zm1.864 0h.459v-3.771h-.459v3.771Zm2.857 0h.459v-3.771h-.459v3.771Zm3.022 0h.458v-3.771h-.458v3.771Zm4.631 0h.458v-3.771h-.458v3.771Z" fill="#FFA412"/><path d="M231.733 288.357h.458v-3.771h-.458v3.771Zm3.872 0h.458v-3.771h-.458v3.771Zm-23.616 0h.458v-3.771h-.458v3.771Zm-.977 0h.458v-3.771h-.458v3.771Zm-.944 0h.458v-3.771h-.458v3.771Zm-.711-3.758v3.746c.057.008.114.012.173.012h.287v-3.771h-.287c-.059 0-.116.005-.173.013Zm-.637.35v3.047a.976.976 0 0 0 .459.307v-3.662a.976.976 0 0 0-.459.307v.001Z" fill="#FFA412"/><path d="M205.251 281.637v2.131c0 .168.062.326.166.457l.044.052a.909.909 0 0 0 .343.23c.021.009.044.019.069.026a1.232 1.232 0 0 0 .35.055h40.4c.487 0 .895-.304.967-.698a.556.556 0 0 0 .008-.08v-2.216c-.024-.399-.392-.725-.861-.772a.877.877 0 0 0-.115-.007h-40.4a1.218 1.218 0 0 0-.35.055.98.98 0 0 0-.414.256c-.015.017-.031.032-.043.051a.73.73 0 0 0-.166.458l.002.002Z" fill="#FFB93E"/><path d="M225.088 284.585h21.644a.863.863 0 0 0 .862-.698c.006-.026.007-.053.008-.08v-2.215c-.021-.399-.35-.726-.768-.772a.58.58 0 0 0-.104-.007h-18.985v.007c-.304 1.11-1.011 2.641-2.657 3.764v.001Zm-14.922.002h.459v-3.771h-.459v3.771Zm1.556 0h.458v-3.771h-.458v3.771Zm1.862 0h.458v-3.771h-.458v3.771Zm2.858 0h.458v-3.771h-.458v3.771Zm3.021 0h.458v-3.771h-.458v3.771Zm4.632 0h.458v-3.771h-.458v3.771Z" fill="#FFA412"/><path d="M228.432 284.587h.458v-3.771h-.458v3.771Zm3.87 0h.458v-3.771h-.458v3.771Zm-23.615 0h.459v-3.771h-.459v3.771Zm-.978 0h.459v-3.771h-.459v3.771Zm-.942 0h.458v-3.771h-.458v3.771Zm-.711-3.759v3.746c.056.008.114.013.173.013h.287v-3.771h-.287c-.059 0-.117.004-.173.012Zm-.639.349v3.046a.98.98 0 0 0 .459.307v-3.661a.972.972 0 0 0-.459.306v.002Z" fill="#FFA412"/><path d="M210.556 277.87V280c0 .17.06.326.166.458a.95.95 0 0 0 .46.308c.056.019.116.033.177.043l.056.007h.007l.038.004h40.469c.35 0 .66-.156.831-.391a.713.713 0 0 0 .145-.387v-2.214c-.021-.35-.308-.644-.693-.743a1.107 1.107 0 0 0-.285-.036h-40.45c-.009 0-.017 0-.025.003-.033 0-.065.005-.096.009a.934.934 0 0 0-.177.043.941.941 0 0 0-.366.208l-.004.005c-.004.005-.007.006-.011.01a.729.729 0 0 0-.244.542l.002.001Z" fill="#FFB93E"/><path d="M230.393 280.821h21.642a.89.89 0 0 0 .73-.372.78.78 0 0 0 .143-.407v-2.214c-.022-.375-.314-.686-.695-.761a.943.943 0 0 0-.178-.016h-18.984c-.007.029-.016.057-.025.087-.314 1.1-1.025 2.582-2.623 3.678-.003 0-.006.004-.009.007l-.001-.002Zm-14.922 0h.458v-3.771h-.458v3.771Zm1.554 0h.459v-3.771h-.459v3.771Zm1.864 0h.459v-3.771h-.459v3.771Zm2.857 0h.458v-3.771h-.458v3.771Zm3.021 0h.459v-3.771h-.459v3.771Zm4.63 0h.459v-3.771h-.459v3.771Z" fill="#FFA412"/><path d="M233.734 280.821h.458v-3.771h-.458v3.771Zm3.872 0h.459v-3.771h-.459v3.771Zm-23.615 0h.459v-3.771h-.459v3.771Zm-.977 0h.459v-3.771h-.459v3.771Zm-.944 0h.459v-3.771h-.459v3.771Zm-.71-3.758v3.746c.056.008.114.012.173.012h.287v-3.77h-.287c-.059 0-.117.004-.173.012Zm-.639.349v3.046a.969.969 0 0 0 .459.307v-3.661a.974.974 0 0 0-.459.306v.002Z" fill="#FFA412"/><path d="M207.585 274.185v2.13c0 .17.062.327.168.458a.973.973 0 0 0 .458.307 1.225 1.225 0 0 0 .352.055h40.399c.156 0 .305-.031.436-.087.294-.124.505-.37.537-.659 0-.011.003-.022.003-.034v-2.213c-.024-.4-.394-.726-.861-.773a1.094 1.094 0 0 0-.115-.005h-40.399c-.059 0-.117.004-.173.012a.973.973 0 0 0-.179.043.964.964 0 0 0-.458.306.726.726 0 0 0-.168.459v.001Z" fill="#FFB93E"/><path d="M227.423 277.136h21.644c.14 0 .273-.031.389-.087a.83.83 0 0 0 .48-.658c0-.012.003-.023.003-.034v-2.214c-.021-.399-.352-.726-.768-.772a.877.877 0 0 0-.103-.006h-18.985s0 .004-.002.006c-.295 1.081-.975 2.564-2.532 3.678-.04.03-.081.059-.123.087h-.003Zm-14.922 0h.458v-3.771h-.458v3.771Zm1.554 0h.459v-3.771h-.459v3.771Zm1.863 0h.459v-3.771h-.459v3.771Zm2.857 0h.458v-3.771h-.458v3.771Zm3.022 0h.458v-3.771h-.458v3.771Zm4.632 0h.458v-3.771h-.458v3.771Z" fill="#FFA412"/><path d="M230.765 277.136h.458v-3.771h-.458v3.771Zm3.872 0h.459v-3.771h-.459v3.771Zm-23.616 0h.459v-3.771h-.459v3.771Zm-.978 0h.459v-3.771h-.459v3.771Zm-.943 0h.458v-3.771h-.458v3.771Zm-.71-3.758v3.745c.056.009.114.013.173.013h.287v-3.771h-.287c-.059 0-.117.004-.173.013Zm-.637.349v3.046a.973.973 0 0 0 .458.307v-3.661a.964.964 0 0 0-.458.306v.002Z" fill="#FFA412"/><path d="M206.32 270.42v2.129c0 .171.062.328.168.459a.973.973 0 0 0 .458.307c.058.019.117.033.179.042l.056.007.032.003.033.001h40.45c.521 0 .95-.346.977-.779v-2.214c-.027-.432-.456-.779-.977-.779h-40.398c-.059 0-.117.004-.172.012a.944.944 0 0 0-.178.043.967.967 0 0 0-.459.306.731.731 0 0 0-.167.459l-.002.004Z" fill="#FFB93E"/><path d="M226.158 273.371h21.644c.464 0 .848-.346.872-.779v-2.214c-.024-.432-.406-.779-.872-.779h-18.985c-.303 1.108-1.008 2.64-2.65 3.765l-.009.006v.001Zm-14.922 0h.458V269.6h-.458v3.771Zm1.554 0h.459V269.6h-.459v3.771Zm1.864 0h.458V269.6h-.458v3.771Zm2.856 0h.459V269.6h-.459v3.771Zm3.021 0h.459V269.6h-.459v3.771Zm4.633 0h.459V269.6h-.459v3.771Z" fill="#FFA412"/><path d="M229.499 273.371h.459V269.6h-.459v3.771Zm4.332-3.771h-.46v3.771h.46V269.6Zm-24.075 3.771h.459V269.6h-.459v3.771Zm-.975 0h.458V269.6h-.458v3.771Zm-.945 0h.458V269.6h-.458v3.771Zm-.711-3.758v3.745c.056.009.114.013.173.013h.287V269.6h-.287c-.059 0-.117.004-.173.013Zm-.638.348v3.047a.967.967 0 0 0 .459.306v-3.661a.976.976 0 0 0-.459.307v.001Z" fill="#FFA412"/><path d="M219.125 248.107s2.123 2.987 4.068 3.028c1.945.041 4.905-1.384 4.905-1.384s1.786-3.981.574-5.539c0 0-1.216-.533-2.486.408a3.867 3.867 0 0 0-.658.63c-.308.37-.654.581-1.021.692-1.388.422-3.035-.571-3.652.388-.36.557-.751.976-1.073 1.27-.381.339-.658.505-.658.505l.001.002Zm27.662 21.547s-7.499-18.172-20.999-18.518c0 0-12.462 1.384-13.154 18.518h34.153Z" fill="#FFEDDC"/><path d="M229.487 251.69s-5.411 1.203-7.08.497c0 0-.252-2.263 2.027-1.945 1.559.216 2.575-.533 3.173-.837.845-.431 2.105 1.339 1.88 2.285Z" fill="#CA534B"/><path d="M224.779 248.28c.346.26 1.409-3.659 1.409-3.659a3.867 3.867 0 0 0-.658.63c-.308.37-.654.581-1.022.692-.002.114-.066 2.084.271 2.337Zm-4.995-.679c.076.045 2.578 1.545 2.918 1.545.341 0-1.845-2.815-1.845-2.815-.36.557-.751.976-1.073 1.27Z" fill="#E5C1A1"/><path d="M239.461 264.577c.14-.118-5.307-8.019-6.807-8.076-1.5-.058-4.87 1.73-7.31 1.962-2.44.23-4.805-.462-5.268.98-.461 1.442-1.73 6.556-.952 7.375.779.818 17.341.319 20.336-2.24l.001-.001Z" fill="#F9DDBF"/><path opacity=".5" d="M234.333 292.009a18.031 18.031 0 0 0 .609 3.766v.006a18.507 18.507 0 0 0 1.484 3.765 18.757 18.757 0 0 0 2.619 3.771 19.443 19.443 0 0 0 4.439 3.678c.359.218.726.426 1.103.625.255.133.511.26.768.382.246.142.506.265.751.415.712.435 1.601.781 2.567 1.057v-1.701c0-.028-.006-.055-.008-.08a.868.868 0 0 0-.864-.698h4.319a.866.866 0 0 0 .863-.699.722.722 0 0 0 .008-.08v-2.214c0-.027-.006-.053-.008-.08a.866.866 0 0 0-.863-.699h-1.686a.832.832 0 0 0 .467-.65l.003-.036v-2.216a.407.407 0 0 0-.009-.079c-.005-.029-.014-.059-.022-.087a.867.867 0 0 0-.84-.612h-.968a.868.868 0 0 0 .864-.699.711.711 0 0 0 .008-.078v-2.216c-.022-.398-.351-.725-.767-.772h2.866c.466 0 .848-.347.872-.779v-2.214c0-.011 0-.023-.003-.034-.035-.356-.313-.645-.678-.723.391-.046.705-.337.757-.702a.535.535 0 0 0 .007-.07v-2.214c0-.027-.006-.053-.008-.08a.866.866 0 0 0-.863-.699h-1.686a.83.83 0 0 0 .467-.65l.003-.036v-2.216a.446.446 0 0 0-.009-.08c-.005-.029-.014-.059-.022-.087a.867.867 0 0 0-.84-.612h-3.301c.402 0 .741-.26.84-.61.008-.028.017-.058.022-.088.006-.026.007-.053.009-.08v-2.215c-.021-.399-.351-.726-.768-.772h5.2a.892.892 0 0 0 .73-.373l-.003-.018-.547-3.345-.003-.018-.779-4.771c-.905.121-1.799.301-2.677.538l-.153.043c-.003 0-.006.002-.01.004a19.61 19.61 0 0 0-1.514.487c-.005 0-.008.002-.014.005a19.951 19.951 0 0 0-6.271 3.68c-.033.028-.067.056-.097.087a18.792 18.792 0 0 0-3.089 3.466c-.049.07-.099.14-.145.213a18.483 18.483 0 0 0-1.962 3.773 17.872 17.872 0 0 0-.979 3.679l-.016.093a17.975 17.975 0 0 0-.173 3.651v-.002Z" fill="#E2810E"/><path d="M272.712 304.113c7.76-7.76 7.76-20.342 0-28.102-7.76-7.761-20.342-7.761-28.103 0-7.76 7.76-7.76 20.342 0 28.102 7.761 7.761 20.343 7.761 28.103 0Z" fill="#E2810E"/><path d="M249.84 307.869a19.626 19.626 0 0 0 1.594.875c9.463 4.647 21.005 1.08 26.149-8.251 4.907-8.901 2.268-19.925-5.783-25.714a20.043 20.043 0 0 0-5.92-2.919 19.702 19.702 0 0 0-3.598-.726 19.93 19.93 0 0 0-10.848 1.922 19.777 19.777 0 0 0-8.656 8.25c-5.158 9.358-1.979 21.062 7.062 26.563Z" fill="#FFB93E"/><path d="M251.471 306.697c-8.599-4.74-11.737-15.59-6.998-24.188 4.74-8.598 15.59-11.736 24.188-6.998a17.691 17.691 0 0 1 8.508 10.645 17.688 17.688 0 0 1-1.51 13.544 17.692 17.692 0 0 1-10.645 8.508c-1.64.475-3.311.709-4.973.709-2.967 0-5.901-.75-8.57-2.221v.001Zm-6.577-23.956c-4.612 8.366-1.557 18.924 6.809 23.536a17.215 17.215 0 0 0 13.178 1.469 17.208 17.208 0 0 0 10.357-8.278 17.207 17.207 0 0 0 1.47-13.178 17.205 17.205 0 0 0-8.279-10.358 17.202 17.202 0 0 0-8.335-2.149c-6.113 0-12.047 3.236-15.2 8.958Zm-67.43-168.647a2.487 2.487 0 0 0-.334-.53l-.001-.001a2.523 2.523 0 0 0-.325-.329l-.489-.497-.13.096c-2.506-1.227-7.682.073-12.919 3.492-6.328 4.133-10.391 9.821-9.22 12.845l-.178.132.703.702.104.104.02.02.005.004c.179.163.381.304.609.423l.005.003c2.474 1.297 7.706.006 13-3.45 6.448-4.209 10.544-10.035 9.15-13.012v-.002Z" fill="#FFA412"/><path d="M162.514 115.573c6.447-4.209 12.803-5.207 14.197-2.231 1.394 2.978-2.702 8.802-9.149 13.012-6.448 4.208-12.804 5.207-14.198 2.231-1.394-2.978 2.702-8.802 9.148-13.012h.002Z" fill="#FFB93E"/><path d="M157.884 129.029c-.523 0-1-.059-1.419-.18-.805-.232-1.362-.676-1.658-1.322-.581-1.267-.044-3.149 1.516-5.3 1.523-2.1 3.848-4.231 6.547-5.997 4.145-2.715 8.359-4.024 10.739-3.339.805.232 1.362.676 1.659 1.322.58 1.267.042 3.149-1.517 5.3-1.523 2.1-3.848 4.231-6.547 5.997-3.414 2.235-6.875 3.519-9.32 3.519Zm14.322-15.843c-2.338 0-5.771 1.276-9.077 3.44-2.651 1.738-4.933 3.825-6.424 5.88-1.433 1.976-1.969 3.734-1.469 4.824.236.515.693.874 1.358 1.065.373.107.801.159 1.273.159 2.338 0 5.771-1.276 9.077-3.44 2.651-1.738 4.932-3.825 6.423-5.88 1.434-1.976 1.969-3.736 1.47-4.824-.236-.515-.693-.874-1.359-1.065a4.63 4.63 0 0 0-1.272-.159Zm.823 31.981a1.836 1.836 0 0 1 .477-.623l.356-.36.094.069c1.82-.891 5.578.053 9.38 2.536 4.595 3 7.545 7.129 6.694 9.325l.129.096-.51.509-.076.076-.014.014-.005.003c-.129.118-.277.22-.441.308h-.003v.001c-1.796.941-5.595.004-9.438-2.505-4.681-3.056-7.654-7.285-6.642-9.446l-.001-.003Z" fill="#FFA412"/><path d="M183.882 146.24c-4.681-3.057-9.295-3.781-10.307-1.619-1.012 2.162 1.962 6.391 6.642 9.446 4.681 3.056 9.296 3.781 10.307 1.619 1.013-2.162-1.962-6.391-6.642-9.446Z" fill="#FFB93E"/><path d="M180.478 153.455c-1.96-1.282-3.648-2.83-4.753-4.354-1.132-1.562-1.523-2.927-1.101-3.847.215-.469.62-.792 1.204-.961 1.727-.498 4.787.454 7.796 2.425 1.959 1.283 3.647 2.83 4.753 4.355 1.132 1.561 1.523 2.927 1.101 3.846-.215.469-.62.792-1.204.961-.305.087-.65.131-1.03.131-1.775 0-4.288-.933-6.766-2.554v-.002Zm-4.555-8.831c-.484.139-.816.399-.987.773-.363.791.025 2.068 1.066 3.503 1.082 1.492 2.738 3.008 4.663 4.268 2.399 1.571 4.892 2.498 6.589 2.498.343 0 .654-.038.924-.115.484-.139.816-.399.986-.774.363-.79-.025-2.067-1.066-3.502-1.081-1.492-2.738-3.008-4.662-4.269-2.4-1.571-4.892-2.498-6.59-2.498a3.35 3.35 0 0 0-.924.116h.001Z" fill="#FFA412"/><path d="M59.33 244.403c.995-1.038.914-1.806.914-1.806s-11.52-9.431-12.687-10.199c-.796-.523-9.279-8.044-13.245-12.629-1.966-2.275-4.404-1.393-7.192-.593l-2.295.659c-2.772.794-3.492 4.672-1.218 6.555 6.405 5.306 17.061 11.274 19.054 12.529 4.95 3.114 14.638 6.813 14.638 6.813s1.176-.436 2.03-1.329h.001Z" fill="#1E3D70"/><path d="M72.475 302.345s2.795 2.095 7.08.988c0 0 3.453-.786 4.21.935 0 0-5.296 2.691-6.637 3.426-1.01.555-2.065 1.431-2.809 2.107a1.39 1.39 0 0 1-2.011-.154 27.89 27.89 0 0 1-.792-1.024c-.817-1.107-2.72-4.683-2.72-4.683l3.68-1.596v.001Z" fill="#072E52"/><path d="M72.242 239.647c7.633-7.633 7.633-20.008 0-27.641-7.633-7.633-20.008-7.633-27.641 0-7.633 7.633-7.633 20.008 0 27.641 7.633 7.633 20.008 7.633 27.641 0Z" fill="#FFC76C"/><path d="M58.422 243.866a17.69 17.69 0 0 1-12.592-5.216 17.693 17.693 0 0 1-5.215-12.591 17.69 17.69 0 0 1 5.215-12.591 17.693 17.693 0 0 1 12.592-5.216c4.755 0 9.228 1.853 12.59 5.216a17.69 17.69 0 0 1 5.216 12.591c0 4.755-1.852 9.228-5.215 12.591a17.693 17.693 0 0 1-12.592 5.216Zm0-34.553c-9.234 0-16.745 7.512-16.745 16.745 0 9.232 7.512 16.744 16.745 16.744 9.232 0 16.744-7.512 16.744-16.744 0-9.233-7.512-16.745-16.744-16.745Z" fill="#FFA412"/><path d="M65.882 218.206c1.128 2.014 1.406 3.922.835 5.72-.57 1.799-1.918 3.295-4.042 4.483l-3.99 2.234 1.085 1.939 4.656-2.606c.277-.155.488-.103.633.155l.9 1.607c.155.277.094.494-.183.649l-4.655 2.606 1.07 1.913c.155.277.103.488-.155.633l-2.383 1.335c-.277.154-.493.094-.648-.183l-1.07-1.913-1.636.916c-.277.154-.494.094-.648-.183l-.9-1.608c-.145-.259-.08-.465.198-.62l1.636-.916-8.208-14.662c-.154-.277-.094-.493.183-.648l6.763-3.785c2.124-1.188 4.12-1.525 5.989-1.004 1.868.519 3.391 1.832 4.571 3.938h-.001Zm-2.733 4.969c.3-.956.1-2.063-.604-3.32-.703-1.258-1.538-2.002-2.508-2.237-.969-.235-2.128.027-3.475.781l-3.604 2.017 4.112 7.345 3.603-2.017c1.35-.756 2.175-1.611 2.476-2.569Zm104.025-101.301c-.777.592-1.48.925-2.113.997-.633.072-1.124-.121-1.474-.579l-.658-.861-.747.571.768 1.006c.045.06.018.128-.082.204l-.618.472c-.107.082-.183.093-.23.033l-.768-1.006-.737.562c-.107.082-.181.095-.223.038l-.393-.514c-.045-.061-.015-.131.092-.213l.737-.562-.27-.353c-.045-.061-.016-.131.091-.213l.619-.472c.1-.076.173-.085.218-.024l.27.353 5.649-4.314c.107-.082.182-.093.229-.032l1.114 1.46c.35.458.395.993.134 1.602-.262.61-.798 1.225-1.61 1.844l.002.001Zm-1.701-.136c.336-.04.747-.244 1.231-.614.484-.37.788-.71.91-1.021.122-.311.073-.613-.149-.904l-.594-.778-2.83 2.16.594.778c.222.291.502.418.838.379Zm16.531 30.596c-.647-.453-1.076-.913-1.287-1.383-.211-.47-.183-.894.084-1.277l.502-.717-.623-.436-.586.838c-.035.049-.094.045-.177-.013l-.517-.361c-.088-.062-.116-.118-.081-.169l.586-.838-.614-.429c-.089-.062-.117-.117-.085-.163l.3-.429c.035-.05.097-.044.186.018l.614.429.206-.294c.035-.049.097-.044.185.018l.516.362c.083.057.107.112.072.161l-.205.294 4.708 3.293c.088.062.116.118.081.169l-.851 1.217c-.267.382-.668.547-1.201.496-.535-.052-1.139-.314-1.816-.788l.003.002Zm-.312-1.343c.112.249.37.514.773.797.404.283.74.432 1.01.45.27.018.49-.094.66-.336l.453-.648-2.359-1.65-.453.648c-.17.242-.198.488-.086.739h.002Z" fill="#FFA412"/><path d="M74.115 301.281s-1.702 3.925-5.632 3.204c0 0-8.017-6.622-13.518-13.5-1.786-2.234-3.307-4.495-4.201-6.564-3.647-8.444-13.49-21.038-19.75-27.421l15.66-5.664s5.015 10.089 11.688 22.482c4.809 8.929 10.479 19.054 15.752 27.464l.001-.001Z" fill="#215EAB"/><path d="m58.364 273.817-3.397 17.168c-1.786-2.234-3.307-4.495-4.201-6.564-3.647-8.444-13.49-21.038-19.75-27.421l15.66-5.664s5.015 10.089 11.688 22.482v-.001Z" fill="#164D93"/><path d="M45.564 305.171s-.17 3.133 3.626 3.55c0 0 2.35.061 2.356 2.054l-11.434-.004s-.101-.815-.178-2.536c-.06-1.322 1.28-4.78 1.28-4.78l4.35 1.718v-.002Z" fill="#072E52"/><path d="M41.539 251.333s6.975 7.666 11.404 21.475c2.41 7.514-4.525 27.107-5.855 33.671 0 0-4.47-.315-7.6-1.524 0 0-.238-13.557 1.594-24.004 1.025-5.847-9.185-12.506-13.647-23.072-3.035-7.187.657-7.066 5.195-7.238l8.91.695-.001-.003Z" fill="#215EAB"/><path d="M33.486 217.136c-3.88 2.191-11.826.17-11.826.17s3.227-3.689 1.761-9.629l3.048 1.547 3.273 1.663s.211 1.049.359 2.934c.038.485.07 1.027.094 1.62 1.993.605 3.293 1.696 3.293 1.696l-.002-.001Z" fill="#FFB07B"/><path d="M47.717 250.938c0 .682-.787 1.008-.953 1.042-1.565.286-5.935 1.986-9.873 2.376-3.316.347-6.395.017-9.776-.661-.447-.09-1.5-.373-1.574-.802-.093-.468-13.044-26.401-2.976-37.54.236-.262 2.224.209 4.04.641 1.679.398 3.22.176 4.593-.376l1.705.898c2.093 1.166 6.054 5.309 6.517 8.561.234 1.654 1.181 2.878 1.454 4.332a90.371 90.371 0 0 0 .948 4.445 75.757 75.757 0 0 0 1.831 6.406 67.361 67.361 0 0 0 1.867 4.907c.742 1.752 1.37 3.062 1.76 4.063.278.707.437 1.261.437 1.709v-.001Z" fill="#AEC3FF"/><path d="M47.282 249.229c-18.28-8.614-24.613-25.152-24.613-25.152s14.854 5.479 18.518 6.906c.206 1.005.419 1.961.637 2.87a75.798 75.798 0 0 0 1.831 6.405 67.31 67.31 0 0 0 1.867 4.907c.742 1.753 1.37 3.062 1.76 4.064Z" fill="#91B0F2"/><path d="m57.978 244.238 1.58.58s7.017-2.502 7.434-1.401c0 0-.678 1.722-2.243 3.146-.871.795-2.271 1.759-6.237.617l-1.36-.251.825-2.691h.002Z" fill="#FFB07B"/><path d="M30.008 212.813c-4.036-.12-5.568-1.441-5.568-1.441s1.086-1.443 2.027-2.146l3.273 1.662s.12.041.268 1.925Z" fill="#EA8E50"/><path d="M31.725 209.902s-5.782 4.15-8.311.509c-2.53-3.641-4.98-5.557-1.394-8.36 3.585-2.803 5.276-1.917 6.415-.907 1.14 1.01 4.729 7.587 3.29 8.76v-.002Z" fill="#FFB07B"/><path d="M29.047 197.854c-.207-1.4-.674-2.385-.674-2.385s-.363 1.504-3.11 1.296c-2.747-.207-7.101.27-8.553 3.401-.093.2-.174.405-.247.615-.263-.695-.326-1.735-.326-1.735-.522 1.348 0 3.034 0 3.034-.009.049-.015.099-.022.148-.606.512-1.115 2.105-1.115 2.105.183-.444.629-.734 1.027-.912-.013 2.436.976 4.817 2.709 5.526 2.536 1.037 2.515.246 5.065 1.937 0 0 .104-.815-.07-1.504-.178-.714-1.942-1.315-.957-2.143.985-.83 1.347.104 1.71-.467.363-.57-1.451-2.23.882-3.784 2.332-1.556 3.888-3.732 3.681-5.131v-.001Zm.01 99.084c-.381 0-.76-.173-1.007-.5l-.285-.377a1.255 1.255 0 0 1-.24-.933c.046-.333.22-.628.488-.83l2.166-1.633a1.26 1.26 0 0 1 1.763.248l.284.377c.2.267.287.599.24.932-.046.334-.22.629-.488.83l-2.166 1.633c-.226.17-.492.253-.755.253Zm1.88-3.896a.624.624 0 0 0-.378.127l-2.166 1.633a.624.624 0 0 0-.244.415.616.616 0 0 0 .12.465l.284.377a.631.631 0 0 0 .882.124l2.166-1.633a.624.624 0 0 0 .244-.415.616.616 0 0 0-.12-.465l-.284-.377a.632.632 0 0 0-.504-.251Zm6.693 2.655c-.188 0-.38-.042-.558-.131l-2.43-1.205a1.256 1.256 0 0 1-.569-1.687l.21-.422a1.26 1.26 0 0 1 1.686-.568l2.431 1.205a1.26 1.26 0 0 1 .568 1.687l-.21.422a1.26 1.26 0 0 1-1.129.699Zm-2.783-3.166-.21.423a.619.619 0 0 0-.03.48c.053.16.166.288.315.363l2.43 1.205a.63.63 0 0 0 .843-.284l.21-.422a.63.63 0 0 0-.285-.844l-2.43-1.205a.629.629 0 0 0-.843.284Z" fill="#233862"/><path d="M31.158 293.69a.526.526 0 0 0 .61.424l3.493-.624a.527.527 0 0 0-.185-1.035l-3.493.624a.526.526 0 0 0-.425.611Zm9.95 8.034a1.26 1.26 0 0 1-1.216-.938l-.692-2.623a1.26 1.26 0 0 1 .895-1.538l.456-.121a1.26 1.26 0 0 1 1.538.896l.692 2.623a1.25 1.25 0 0 1-.131.954c-.17.291-.442.498-.765.584l-.456.121a1.27 1.27 0 0 1-.32.042Zm-.236-4.632a.63.63 0 0 0-.16.021l-.456.121a.63.63 0 0 0-.447.77l.692 2.623a.629.629 0 0 0 .769.447l.456-.121a.631.631 0 0 0 .449-.769l-.693-2.623a.63.63 0 0 0-.609-.469h-.001Zm5.108 8.873c-.1 0-.2-.011-.3-.037l-2.635-.65a1.26 1.26 0 0 1-.921-1.523l.112-.458a1.26 1.26 0 0 1 1.523-.922l2.635.649c.325.08.6.282.775.571.174.288.226.626.146.951l-.112.458a1.262 1.262 0 0 1-1.223.958v.003Zm-3.132-2.517-.113.459a.63.63 0 0 0 .46.761l2.635.65a.63.63 0 0 0 .76-.46l.113-.459a.628.628 0 0 0-.46-.761l-2.634-.648a.63.63 0 0 0-.761.46v-.002Zm7.337 1.758a1.26 1.26 0 0 1-1.116-.671l-.22-.417a1.261 1.261 0 0 1 .524-1.701l2.4-1.267a1.26 1.26 0 0 1 1.7.525l.22.417c.157.297.19.637.09.96a1.25 1.25 0 0 1-.614.741l-2.4 1.267a1.248 1.248 0 0 1-.584.145v.001Zm2.174-3.571a.62.62 0 0 0-.291.072l-2.4 1.267a.63.63 0 0 0-.263.85l.221.417a.63.63 0 0 0 .85.264l2.4-1.268a.631.631 0 0 0 .263-.851l-.222-.417a.626.626 0 0 0-.56-.335l.002.001Zm3.047-.634a1.25 1.25 0 0 1-.556-.131l-.422-.21a1.258 1.258 0 0 1-.57-1.686l1.206-2.431a1.26 1.26 0 0 1 1.687-.568l.422.21a1.26 1.26 0 0 1 .568 1.686l-1.206 2.431a1.253 1.253 0 0 1-1.13.7l.001-.001Zm.79-4.528a.619.619 0 0 0-.203.034.622.622 0 0 0-.363.315l-1.206 2.43a.634.634 0 0 0 .284.843l.422.209c.15.075.321.086.48.031a.622.622 0 0 0 .363-.315l1.205-2.43a.63.63 0 0 0-.284-.844l-.422-.21a.624.624 0 0 0-.277-.064v.001Z" fill="#233862"/><path d="M38.01 294.148a.528.528 0 0 0-.102.737l2.136 2.833a.53.53 0 0 0 .738.104.528.528 0 0 0 .102-.737l-2.136-2.833a.53.53 0 0 0-.737-.104Zm3.153 6.274a.528.528 0 0 0-.159.727l1.914 2.987a.528.528 0 0 0 .727.159.528.528 0 0 0 .16-.727l-1.915-2.988a.527.527 0 0 0-.727-.158Zm4.717 4.135c.05.285.325.477.61.424l3.492-.624a.526.526 0 0 0-.186-1.035l-3.492.624a.527.527 0 0 0-.425.611Zm6.537-2.244c.206.206.54.206.744 0l2.51-2.509a.527.527 0 0 0-.744-.744l-2.51 2.509a.529.529 0 0 0 0 .744Zm3.416-4.993a.528.528 0 0 0 .678.308l3.322-1.246a.528.528 0 0 0-.37-.986l-3.322 1.246a.528.528 0 0 0-.308.678Z" fill="#233862"/><path d="M31.477 301.63a7.803 7.803 0 1 0-15.073 4.045 7.803 7.803 0 0 0 15.073-4.045Z" fill="#072E52"/><path d="M27.824 299.203c-.446 0-.888-.116-1.284-.346a2.563 2.563 0 0 1-1.203-1.565 2.557 2.557 0 0 1 .258-1.956c.344-.597.9-1.024 1.565-1.203a2.56 2.56 0 0 1 1.957.257 2.561 2.561 0 0 1 1.2 1.566 2.55 2.55 0 0 1-.257 1.956 2.555 2.555 0 0 1-1.565 1.201 2.58 2.58 0 0 1-.672.089l.001.001Zm.004-3.761a1.17 1.17 0 0 0-1.023.593 1.174 1.174 0 0 0-.117.896 1.184 1.184 0 0 0 2.163.284 1.183 1.183 0 0 0-1.023-1.771v-.002Z" fill="#072E52"/><path opacity=".5" d="M20.939 297.323c.727-.446 1.893-.624 2.283.134.48.931-.402 1.365-1.128 1.811-.727.446-1.615.726-2.06-.001-.447-.727.18-1.498.906-1.944h-.001Z" fill="#2B478B"/><path d="m56.31 292.535 8.715-6.561a.487.487 0 0 1 .708.132l4.51 7.279a.488.488 0 0 1-.133.655l-7.594 5.375a.487.487 0 0 1-.64-.068l-5.63-6.092a.487.487 0 0 1 .064-.72Z" fill="#072E52"/><path d="M113.929 156.022s-1.174-2.014-4.238-1.965c-3.063.05-2.553 2.038-.97 2.473 1.582.435 1.582.895 3.166.844 1.582-.051 2.042-1.352 2.042-1.352Zm53.522 16.512c.32-1.052 1.102.467 2.83.233 0 0 2.191-.782 3.467-.166.946.459 2.765 3.192.854 2.459-2.784-1.066-4.458 1.022-6.009.146-1.55-.876-2.471-1.84-2.471-1.84l1.329-.832Zm-38.627 39.33c.312.358.351.757.197 1.183 0 .002 0 .004-.003.006-.286.789-1.228 1.669-2.324 2.548-.139.113-.264.216-.373.311l-.082.075-.065.058c-1.021.94-.637 1.157-2.471 3.067-2.092 2.176-3.532 2.215-3.943 2.017-.346-.169.357-1.323 1.138-2.62.038-.062.074-.125.114-.189l.311-.52c.914-1.561.679-2.294.462-4.618-.175-1.889-2.938-10.55-2.938-10.55l4.009-.691s1.207 6.898 2.537 7.96c.712.567 1.508.574 2.192.993.047.029.095.059.142.09.388.257.784.523 1.097.882v-.002Z" fill="#FFB27D"/><path d="M128.824 211.864c.312.358.352.757.197 1.183 0 .002 0 .005-.003.006-.348.788-1.268 1.664-2.326 2.54-.138.116-.26.221-.369.32l-.083.074-.064.058c-1.021.941-.637 1.157-2.472 3.067-2.091 2.176-3.531 2.216-3.942 2.017-.346-.168.357-1.323 1.138-2.62.408-.149 2.298-.917 3.729-2.747 1.26-1.608 2.099-3.672 2.957-4.869.048.029.096.059.143.09.388.257.784.523 1.097.881h-.002Z" fill="#072E52"/><path d="M96.499 209.359c-.248 1.238-2.011 1.031-3.982.55-1.97-.481-1.502.092-4.307-.219-2.804-.311-3.654-1.356-3.74-1.774-.076-.37 1.31-.5 2.796-.672.188-.021.375-.044.563-.068 1.678-.211 2.907-1.294 4.432-2.183 1.445-.842 3.6-4.274 3.6-4.274l3.846.305s-2.018 3.066-2.799 4.398c-.458.784-.434 1.821-.377 2.622.03.435.058.879-.03 1.315H96.5Z" fill="#FFB27D"/><path d="M92.517 209.909c-1.97-.481-1.502.092-4.307-.219-2.804-.311-3.654-1.356-3.74-1.774-.076-.37 1.31-.501 2.796-.672l.014.028s1.683 1.193 4.018 1.249c1.903.046 3.918-.499 5.232-.478.03.434.058.879-.03 1.315-.247 1.238-2.011 1.031-3.981.55l-.002.001Z" fill="#072E52"/><path d="m111.24 184.766 3.595 9.675 4.693 12.634s1.275.122 2.494-.228c1.124-.325 2.412-1.174 2.412-1.174s-1.303-13.565-3.734-21.352c-.623-1.998-1.322-3.614-2.091-4.524-3.77-4.455-7.369 4.969-7.369 4.969Z" fill="#B03F37"/><path d="M114.895 169.4c2.356-.76 9.074.215 15.824 1.537l1.413-2.331 14.578-1.137s5.104 7.916 2.469 14.712l-14.636 4.74c-7.249 0-15.174-5.315-16.22-5.525-1.713-.343-2.4 3.085-4.113 6.683-1.713 3.599-16.108 15.936-16.108 15.936s-2.212.022-3.126-.321c-.983-.369-1.342-.847-1.342-.847s15.95-31.733 21.262-33.447h-.001Z" fill="#CA534B"/><path d="M128.07 148.339c4.598 3.739 15.675 10.219 15.735 10.191 0 0 .481-1.889 2.902-2.931 4.035-1.739 11.861-5.61 6.28-12.343-2.784-3.359-6.751-2.665-6.21-7.131.587-4.837-1.598-10.919-7.165-11.175-.465-.021-3.284-.398-5.297.234-5.128 1.609-13.704 20.678-6.243 23.155h-.002Z" fill="#233862"/><path d="M149.759 153.582a129.598 129.598 0 0 0-.876 4.506c-1.343 7.696-.916 10.236-1.177 10.962-.141.389-1.95.758-4.295 1.009-2.652.283-5.99.418-8.37.261-1.425-.092-2.509-.293-2.895-.625-1.599-1.39-1.44 1.667-1.658-12.954-.105-7.131 6.052-13.483 6.052-13.483s.505 3.83 6.613.205c.216-.126 7.637 5.27 6.609 10.122l-.003-.003Z" fill="#AEC3FF"/><path d="m114.835 194.442 4.694 12.633s1.274.122 2.493-.228c1.124-.325 2.413-1.174 2.413-1.174s-1.304-13.565-3.735-21.351l-5.865 10.12Z" fill="#CA534B"/><path d="m136.538 143.253-1.096 9.27s-2.221 2.827-4.935 5.686c-1.968 2.076-4.199 4.169-6.029 5.21-.014.011-.029.018-.042.027-1.819 1.022-5.463-.3-5.463-.3s8.783-13.193 10.544-16.12c1.445-2.401 7.021-3.771 7.021-3.771v-.002Zm3.631-.213s7.587-.94 11.301 3.66c3.713 4.599 5.235 11.637 8.405 15.01 3.17 3.373 8.405 9.987 8.405 9.987s-.4 1.709-3.482 2.705c0 0-10.127-8.507-11.812-10.955-1.685-2.447-7.428-9.494-7.428-9.494l-4.442-8.781-.947-2.131v-.001Z" fill="#AEC3FF"/><path d="M169.021 175.376s2.933.77 3.161.691c.501-.172-1.291-1.213-1.757-1.213-.465 0-1.405.522-1.405.522h.001Z" fill="#FFB27D"/><path d="M111.239 157.782c-.084.268 7.734 5.364 7.734 5.364l3.61-4.242-8.501-3.307s-2.239.27-2.843 2.185Z" fill="#AEC3FF"/><path d="M104.262 150.044c-.118.101-18.297-16.32-18.297-16.32s-.246 2.795 1.785 5.801c2.031 3.007 14.177 12.868 14.177 12.868l2.335-2.349Zm-5.252 5.14a4.7 4.7 0 0 1 .509 6.619 4.7 4.7 0 0 1-6.62.509 4.7 4.7 0 0 1-.509-6.619 4.7 4.7 0 0 1 6.62-.509Zm-4.922 5.743a2.873 2.873 0 0 0 4.045-.311 2.872 2.872 0 0 0-.31-4.045 2.872 2.872 0 0 0-4.046.31 2.873 2.873 0 0 0 .311 4.046Z" fill="#2A4E96"/><path d="M105.589 148.498a4.7 4.7 0 0 1 5.266 4.044 4.7 4.7 0 0 1-4.044 5.266 4.7 4.7 0 0 1-5.266-4.042 4.7 4.7 0 0 1 4.044-5.266v-.002Zm.237 1.811a2.873 2.873 0 0 0-2.471 3.218 2.873 2.873 0 0 0 3.218 2.471 2.872 2.872 0 0 0 2.471-3.218 2.872 2.872 0 0 0-3.218-2.471Zm-10.891 4.834c.149-.044-3.674-24.24-3.674-24.24s2.475 1.319 3.883 4.664c1.408 3.344 3.034 18.904 3.034 18.904l-3.242.672h-.001Z" fill="#2A4E96"/><path d="M95.968 144.453a.524.524 0 1 1-.975.388.524.524 0 0 1 .975-.388Z" fill="#F99746"/><path d="M107.463 155.281s-.145.893.697.893c.843 0 .99-1.956.737-2.051-.251-.094-1.315.214-1.434 1.158Zm6 .171s-.72-.796-1.218-1.396c-.498-.601-.938-1.272-1.005-.83-.066.44.334 1.321.737 1.627.402.307 1.486.601 1.486.601v-.002Zm29.472-12.528c.18.595-.238 1.881-2.662 2.605-1.531.459-3.071.058-3.548-.333-.819-.67-.106-1.132-.222-2.497l-.019-.197c-.156-1.526-.598-3.198-.626-3.306l-.001-.005 5.395-1.543-.174.299c.332 2.8 1.643 4.273 1.857 4.977Z" fill="#FFB27D"/><path d="M141.252 137.648c-.523 1.569-1.95 3.672-4.861 4.126-.281-1.682-.505-2.47-.533-2.578l-.001-.005 5.395-1.543Z" fill="#ED975D"/><path d="M134.96 140.816s7.272-.484 6.902-5.007c-.372-4.524.318-7.634-4.341-7.517-4.658.118-5.418 1.917-5.661 3.458-.244 1.54 1.2 9.074 3.101 9.065l-.001.001Z" fill="#FFB27D"/><path d="M133.653 128.211s1.807 5.301 6.097 5.917c3.13.45 4.373-.397 4.373-.397s-1.747-1.659-2.693-4.212a2.214 2.214 0 0 0-1.732-1.424c-2.228-.343-5.103-1.818-6.044.114l-.001.002Z" fill="#233862"/><path d="M135.194 129.15s-1.298.525-2.204 2.463c-.495 1.059-.852 3.582-.547 4.622 0 0-2.091-4.837-.577-7.018 1.605-2.312 3.328-.067 3.328-.067Z" fill="#233862"/><path d="M148.883 158.085v.003c-1.343 7.695-.916 10.236-1.177 10.961-.141.39-1.95.759-4.295 1.01-3.548-1.918 1.853-3.949 2.482-8.373.663-4.675 2.991-3.599 2.991-3.599l-.001-.002Zm-18.377.126c-1.967 2.076-4.198 4.169-6.028 5.209.504-.931 2.011-2.274 3.121-3.723 1.379-1.8 1.952-4.671 2.529-4.748.575-.076.378 3.262.378 3.262Z" fill="#85A4E8"/><path d="M59.55 244.886s.342-.979.978-1.273c.637-.294 1.666-1.591 1.713-1.127.05.466-.44 1.127-.465 1.762-.024.638-2.228.638-2.228.638h.001Z" fill="#FFB07B"/><path d="M59.279 246.472c.583-1.523.654-2.312.654-2.312s-11.74-9.632-12.957-10.466c-.829-.569-9.08-6.736-13.103-11.544a8.417 8.417 0 0 0-8.185-2.835l-2.507.526c-3.025.634-4.008 4.464-1.66 6.477 6.61 5.667 17.76 12.239 19.838 13.607 5.161 3.393 16.575 8.149 16.575 8.149s.885-.404 1.343-1.601l.002-.001Z" fill="#AEC3FF"/><defs><filter id="a" x="-150.99" y="123.062" width="301.726" height="302.343" filterUnits="userSpaceOnUse" color-interpolation-filters="sRGB"><feFlood flood-opacity="0" result="BackgroundImageFix"/><feBlend in="SourceGraphic" in2="BackgroundImageFix" result="shape"/><feGaussianBlur stdDeviation="31.995" result="effect1_foregroundBlur_1910_55"/></filter><filter id="b" x="-3.896" y=".297" width="361.805" height="361.805" filterUnits="userSpaceOnUse" color-interpolation-filters="sRGB"><feFlood flood-opacity="0" result="BackgroundImageFix"/><feBlend in="SourceGraphic" in2="BackgroundImageFix" result="shape"/><feGaussianBlur stdDeviation="38.851" result="effect1_foregroundBlur_1910_55"/></filter><filter id="c" x="62.388" y="169.472" width="383.886" height="383.885" filterUnits="userSpaceOnUse" color-interpolation-filters="sRGB"><feFlood flood-opacity="0" result="BackgroundImageFix"/><feBlend in="SourceGraphic" in2="BackgroundImageFix" result="shape"/><feGaussianBlur stdDeviation="41.137" result="effect1_foregroundBlur_1910_55"/></filter><linearGradient id="d" x1="154.518" y1="159.516" x2="154.518" y2="310.385" gradientUnits="userSpaceOnUse"><stop stop-color="#4A7CBB"/><stop offset="1" stop-color="#2AB392"/></linearGradient></defs></svg>