<svg width="801" height="1056" viewBox="0 0 801 1056" fill="none" xmlns="http://www.w3.org/2000/svg">
<g filter="url(#filter0_f_1910_29)">
<ellipse cx="309.525" cy="518.98" rx="146.525" ry="147.045" fill="#27AE60" fill-opacity="0.3"/>
</g>
<g filter="url(#filter1_f_1910_29)">
<circle cx="608.291" cy="362.063" r="174.063" fill="#278EAE" fill-opacity="0.3"/>
</g>
<g filter="url(#filter2_f_1910_29)">
<circle cx="738.709" cy="666.025" r="184.975" fill="#2745AE" fill-opacity="0.3"/>
</g>
<path fill-rule="evenodd" clip-rule="evenodd" d="M679.502 441.831L709.733 465.466L696.973 474.809L679.502 441.831Z" fill="#D0D9EE"/>
<path fill-rule="evenodd" clip-rule="evenodd" d="M716.14 461.175L680.525 442.202L726.798 458.959L716.14 461.175Z" fill="#D0D9EE"/>
<path fill-rule="evenodd" clip-rule="evenodd" d="M716.141 461.176L710.824 476.66L709.733 465.466L679.502 441.831L680.526 442.202L716.141 461.176Z" fill="#AAB9DE"/>
<path fill-rule="evenodd" clip-rule="evenodd" d="M710.823 476.659L704.076 469.605L709.733 465.466L710.823 476.659Z" fill="#8D9FCA"/>
<path fill-rule="evenodd" clip-rule="evenodd" d="M719.937 477.971C718.864 477.518 719.572 475.969 720.567 476.39L722.154 477.028C723.209 477.475 722.522 479.03 721.512 478.606L719.94 477.974L719.937 477.971ZM757.618 558.907C758.343 559.113 758.453 560.105 757.821 560.459C757.658 560.569 757.383 560.609 757.156 560.546L756.098 560.241C755.036 559.942 755.474 558.298 756.576 558.608L757.621 558.907H757.618ZM751.738 557.091C752.704 557.364 752.379 559.037 751.184 558.701L749.562 558.132C748.428 557.654 749.206 556.137 750.143 556.531L751.735 557.088L751.738 557.091ZM745.464 554.663C746.444 555.078 745.844 556.67 744.762 556.212L745.464 554.663ZM739.59 551.519C740.466 552.163 739.662 553.517 738.638 552.931C738.148 552.606 737.672 552.27 737.202 551.916C736.324 551.205 737.333 549.9 738.241 550.564C738.676 550.898 739.131 551.214 739.587 551.516L739.59 551.519ZM734.818 547.153C735.471 548.104 734.046 549.036 733.432 548.136C733.075 547.626 732.759 547.112 732.483 546.555C732.001 545.476 733.582 544.847 734.017 545.816C734.25 546.286 734.522 546.721 734.821 547.153H734.818ZM733.15 541.32C732.967 542.529 731.302 542.155 731.456 541.143C731.517 540.528 731.613 539.942 731.758 539.341C732.077 538.213 733.698 538.732 733.408 539.762C733.281 540.278 733.202 540.789 733.15 541.317V541.32ZM735.317 535.315C734.789 536.243 733.278 535.454 733.858 534.436C734.154 533.94 734.47 533.43 734.798 532.957C735.503 531.997 736.828 533.07 736.202 533.92C735.891 534.372 735.595 534.842 735.314 535.315H735.317ZM739.271 529.946C738.598 530.776 737.234 529.757 737.974 528.841C738.345 528.406 738.722 527.968 739.105 527.541C740.002 526.659 741.081 527.982 740.373 528.678C739.999 529.093 739.63 529.52 739.268 529.946H739.271ZM743.833 524.954C742.984 525.789 741.849 524.519 742.601 523.779L743.775 522.546C744.622 521.714 745.762 522.981 745.008 523.724C744.614 524.121 744.216 524.545 743.833 524.954ZM748.527 519.991C747.642 520.861 746.551 519.55 747.268 518.845L748.393 517.589C749.229 516.768 750.363 517.859 749.676 518.711L748.527 519.991ZM752.91 514.621C752.266 515.497 750.911 514.694 751.497 513.673C751.808 513.215 752.095 512.762 752.373 512.284C752.927 511.312 754.41 512.153 753.85 513.133C753.551 513.644 753.241 514.131 752.91 514.624V514.621ZM755.648 508.048C755.48 509.157 753.797 508.901 753.966 507.793C754.05 507.271 754.099 506.734 754.114 506.206C754.148 505.072 755.848 505.142 755.819 506.247C755.799 506.85 755.747 507.451 755.651 508.048H755.648ZM754.937 500.921C755.323 501.998 753.713 502.552 753.339 501.513C753.151 501.003 752.948 500.515 752.71 500.028C752.217 498.926 753.809 498.325 754.233 499.271C754.499 499.796 754.734 500.367 754.937 500.918V500.921ZM751.303 494.856C751.979 495.697 750.836 496.802 750.003 495.958C749.647 495.535 749.278 495.129 748.898 494.728C748.135 493.954 749.319 492.73 750.131 493.554C750.534 493.977 750.923 494.409 751.303 494.856ZM746.264 490.041C747.149 490.757 746.064 492.068 745.206 491.375C744.77 491.024 744.327 490.688 743.877 490.354C742.981 489.696 743.979 488.315 744.889 488.988C745.353 489.333 745.812 489.681 746.264 490.041ZM740.599 486.087C741.513 486.609 740.741 488.129 739.706 487.537L738.264 486.667C737.313 486.122 738.131 484.628 739.126 485.199L740.599 486.09V486.087ZM734.612 482.705C735.665 483.308 734.728 484.73 733.832 484.216L732.323 483.45C731.355 482.896 732.022 481.478 733.083 481.927L734.612 482.705ZM728.439 479.72C729.423 480.135 728.819 481.727 727.737 481.272L726.191 480.582C725.193 480.161 725.811 478.571 726.879 479.021L728.442 479.717L728.439 479.72Z" fill="#8D9FCA"/>
<path fill-rule="evenodd" clip-rule="evenodd" d="M636.002 483.981C693.213 504.524 709.103 547.152 729.669 579.522C756.892 622.362 774.085 657.203 726.992 697.038C644.319 766.972 456.715 795.819 323.789 748.082C190.864 700.351 198.33 587.913 281.004 517.98C363.674 448.047 503.077 436.246 636.002 483.981Z" fill="#E9EFF8"/>
<path fill-rule="evenodd" clip-rule="evenodd" d="M310.872 522.425H607.7C622.061 522.425 634.242 534.196 633.809 548.534L628.391 727.375C627.959 741.713 616.623 753.484 602.281 753.484H316.294C302.028 753.484 290.617 741.73 290.182 727.375L284.763 548.534C284.331 534.178 296.511 522.425 310.872 522.425ZM310.875 536.687C304.357 536.687 298.832 542.016 299.026 548.534L304.447 727.375C304.639 733.893 309.892 739.224 316.297 739.224H602.287C608.689 739.224 613.945 733.777 614.137 727.375L619.555 548.534C619.753 542.036 614.224 536.687 607.706 536.687H310.878H310.875Z" fill="#215EAB"/>
<path fill-rule="evenodd" clip-rule="evenodd" d="M619.555 548.534C619.555 542.831 615.474 538.036 610.087 536.928L609.803 536.873H609.797L609.507 536.823H609.501L609.211 536.783H609.208L608.915 536.748L608.617 536.719L608.315 536.699L608.013 536.687H607.709L310.878 536.684H310.574L310.272 536.699L309.97 536.719L309.672 536.745L309.379 536.78H309.373L309.083 536.82H309.077C303.409 537.696 299.032 542.628 299.032 548.531L304.453 727.371C304.648 733.889 309.901 739.221 316.303 739.221H602.293C608.695 739.221 613.951 733.773 614.143 727.371L619.561 548.534H619.555Z" fill="#E9EFF8"/>
<path fill-rule="evenodd" clip-rule="evenodd" d="M332.016 477.794H586.56C594.151 477.794 600.362 484.004 600.362 491.595V694.033C600.362 701.622 594.151 707.835 586.56 707.835H332.016C324.425 707.835 318.218 701.625 318.218 694.033V491.595C318.218 484.004 324.425 477.794 332.016 477.794Z" fill="white"/>
<path fill-rule="evenodd" clip-rule="evenodd" d="M586.559 477.794H332.015C324.424 477.794 318.214 484.004 318.214 491.595V498.879H600.358V491.595C600.358 484.004 594.147 477.794 586.556 477.794H586.559Z" fill="#92AFF2"/>
<path fill-rule="evenodd" clip-rule="evenodd" d="M338.136 483.545C341.097 483.545 343.502 485.947 343.502 488.912C343.502 491.876 341.097 494.278 338.136 494.278C335.174 494.278 332.77 491.876 332.77 488.912C332.77 485.947 335.171 483.545 338.136 483.545ZM384.904 483.545C387.869 483.545 390.27 485.947 390.27 488.912C390.27 491.876 387.869 494.278 384.904 494.278C381.94 494.278 379.538 491.876 379.538 488.912C379.538 485.947 381.94 483.545 384.904 483.545ZM361.521 483.545C364.486 483.545 366.888 485.947 366.888 488.912C366.888 491.876 364.486 494.278 361.521 494.278C358.557 494.278 356.155 491.876 356.155 488.912C356.155 485.947 358.557 483.545 361.521 483.545Z" fill="white"/>
<path d="M455.502 515.161H336.755V525.311H455.502V515.161Z" fill="#AAB9DE"/>
<path d="M576.955 548.989H337.432V611.238H576.955V548.989Z" fill="#AAB9DE"/>
<path fill-rule="evenodd" clip-rule="evenodd" d="M347.581 558.124H566.806V565.906H347.581V558.124ZM347.581 588.741H444.34V596.52H347.581V588.741ZM347.581 573.013H444.34V580.793H347.581V573.013Z" fill="white"/>
<path fill-rule="evenodd" clip-rule="evenodd" d="M338.368 634.995H577.538V642.778H338.368V634.995ZM338.368 665.612H545.598V673.395H338.368V665.612ZM338.368 649.885H485.759V657.664H338.368V649.885Z" fill="#AAB9DE"/>
<path d="M350.98 416.902H437.549C440.52 416.902 442.933 419.315 442.933 422.285V466.193C442.933 469.164 440.52 471.577 437.549 471.577H350.977C348.004 471.577 345.594 469.164 345.594 466.193V422.288C345.594 419.318 348.007 416.905 350.977 416.905L350.98 416.902Z" fill="url(#paint0_linear_1910_29)"/>
<path fill-rule="evenodd" clip-rule="evenodd" d="M355.021 423.945H404.208C404.664 423.945 405.038 424.319 405.038 424.772V429.639C405.038 430.095 404.664 430.469 404.208 430.469H355.021C354.566 430.469 354.191 430.095 354.191 429.639V424.772C354.191 424.316 354.566 423.945 355.021 423.945ZM367.219 435.214H432.548C433.155 435.214 433.648 435.499 433.648 435.85V439.571C433.648 439.919 433.152 440.206 432.548 440.206H367.219C366.612 440.206 366.119 439.922 366.119 439.571V435.85C366.119 435.502 366.615 435.214 367.219 435.214ZM367.219 455.72H432.548C433.155 455.72 433.648 456.004 433.648 456.352V460.074C433.648 460.422 433.152 460.706 432.548 460.706H367.219C366.612 460.706 366.119 460.422 366.119 460.074V456.352C366.119 456.004 366.615 455.72 367.219 455.72ZM367.219 445.468H432.548C433.155 445.468 433.648 445.753 433.648 446.101V449.822C433.648 450.17 433.152 450.455 432.548 450.455H367.219C366.612 450.455 366.119 450.17 366.119 449.822V446.101C366.119 445.753 366.615 445.468 367.219 445.468Z" fill="white"/>
<path fill-rule="evenodd" clip-rule="evenodd" d="M672.56 609.446H629.432C619.874 641.226 608.779 660.101 587.464 660.101H725.727C747.042 660.101 758.137 641.226 767.695 609.446H672.56Z" fill="#AAB9DE"/>
<path fill-rule="evenodd" clip-rule="evenodd" d="M474.354 452.819H664.435C662.236 430.976 656.769 416.539 643.515 416.539H502.59C491.425 417.418 482.015 429.511 474.354 452.819Z" fill="#AAB9DE"/>
<path fill-rule="evenodd" clip-rule="evenodd" d="M672.56 609.446C654.88 538.079 681.973 416.539 643.515 416.539H505.252C559.693 416.539 482.769 660.101 587.467 660.101C608.782 660.101 619.877 641.226 629.435 609.446H672.563H672.56Z" fill="#E9EFF8"/>
<path fill-rule="evenodd" clip-rule="evenodd" d="M592.196 659.77C497.223 649.769 569.744 416.539 516.47 416.539H505.252C559.693 416.539 482.769 660.101 587.467 660.101C589.103 660.101 590.681 659.988 592.199 659.77H592.196Z" fill="#4A7CBB"/>
<path fill-rule="evenodd" clip-rule="evenodd" d="M673.065 609.446C655.382 538.079 682.478 416.539 644.02 416.539H635.04C673.497 416.539 646.402 538.079 664.082 609.446H673.065Z" fill="#4A7CBB"/>
<path fill-rule="evenodd" clip-rule="evenodd" d="M756.46 618.812C747.517 644.898 736.622 660.101 717.495 660.101H725.73C747.045 660.101 758.14 641.226 767.698 609.446H620.956C612.724 636.82 603.352 654.619 587.291 659.028C588.874 659.344 590.51 659.59 592.199 659.77C608.445 657.421 618.256 642.668 626.433 618.812H756.46Z" fill="#4A7CBB"/>
<path fill-rule="evenodd" clip-rule="evenodd" d="M483.689 452.819C490.702 431.475 499.187 419.536 509.139 417.001C507.924 416.696 506.63 416.539 505.252 416.539H502.59C491.425 417.418 482.015 429.511 474.354 452.819H483.689Z" fill="#4A7CBB"/>
<path fill-rule="evenodd" clip-rule="evenodd" d="M551.191 430.199H636.226C637.966 430.199 639.39 431.623 639.39 433.363C639.39 435.104 637.966 436.528 636.226 436.528H551.191C549.451 436.528 548.026 435.104 548.026 433.363C548.026 431.62 549.451 430.199 551.191 430.199ZM557.265 511.445H641.981C643.721 511.445 645.145 512.869 645.145 514.61C645.145 516.35 643.721 517.774 641.981 517.774H557.265C555.525 517.774 554.1 516.35 554.1 514.61C554.1 512.869 555.525 511.445 557.265 511.445ZM557.265 498.879H641.981C643.721 498.879 645.145 500.303 645.145 502.044C645.145 503.784 643.721 505.208 641.981 505.208H557.265C555.525 505.208 554.1 503.784 554.1 502.044C554.1 500.303 555.525 498.879 557.265 498.879ZM557.265 477.486H611.198C612.939 477.486 614.363 478.91 614.363 480.651C614.363 482.391 612.942 483.816 611.198 483.816H557.265C555.525 483.816 554.1 482.391 554.1 480.651C554.1 478.91 555.525 477.486 557.265 477.486ZM556.311 465.666H641.345C643.086 465.666 644.51 467.09 644.51 468.83C644.51 470.574 643.086 471.995 641.345 471.995H556.311C554.57 471.995 553.146 470.571 553.146 468.83C553.146 467.09 554.57 465.666 556.311 465.666ZM555.356 453.845H640.391C642.131 453.845 643.556 455.27 643.556 457.01C643.556 458.753 642.131 460.175 640.391 460.175H555.356C553.616 460.175 552.192 458.753 552.192 457.01C552.192 455.27 553.616 453.845 555.356 453.845ZM553.277 442.022H638.311C640.052 442.022 641.476 443.446 641.476 445.187C641.476 446.927 640.055 448.351 638.311 448.351H553.277C551.533 448.351 550.112 446.927 550.112 445.187C550.112 443.443 551.533 442.022 553.277 442.022Z" fill="#AAB9DE"/>
<path fill-rule="evenodd" clip-rule="evenodd" d="M592.575 792.035C577.37 800.815 552.705 800.815 537.491 792.035C530.343 787.907 526.552 782.57 526.123 777.163C526.1 776.835 526.088 766.523 526.085 766.192C526.065 760.42 529.865 764.637 537.491 760.231C552.705 751.448 577.367 751.448 592.575 760.231C600.132 764.597 603.937 760.312 603.984 766.03C603.99 766.352 603.978 776.661 603.961 776.983C603.601 782.451 599.807 787.858 592.578 792.032L592.575 792.035Z" fill="#FFB93E"/>
<path fill-rule="evenodd" clip-rule="evenodd" d="M526.555 763.74C526.718 763.857 526.822 764.048 526.822 764.263V780.507C526.445 779.401 526.21 778.285 526.123 777.165C526.1 776.837 526.088 766.525 526.085 766.195C526.079 765.008 526.236 764.245 526.555 763.74Z" fill="#FFB93E"/>
<path fill-rule="evenodd" clip-rule="evenodd" d="M528.968 766.198V784.638C528.467 783.93 528.031 783.208 527.66 782.477V766.198C527.66 765.841 527.953 765.548 528.31 765.548L528.368 765.554C528.702 765.577 528.965 765.858 528.965 766.198H528.968Z" fill="#FFB93E"/>
<path fill-rule="evenodd" clip-rule="evenodd" d="M531.106 768.138V786.926C531.106 787.005 531.092 787.083 531.066 787.152C530.608 786.683 530.181 786.204 529.79 785.719V768.138C529.79 767.779 530.083 767.483 530.439 767.483L530.506 767.488C530.843 767.512 531.109 767.796 531.109 768.138H531.106Z" fill="#FFB93E"/>
<path fill-rule="evenodd" clip-rule="evenodd" d="M533.253 770.073V788.852C533.253 788.939 533.239 789.023 533.204 789.099C532.751 788.73 532.322 788.356 531.913 787.976V770.076C531.913 769.713 532.212 769.417 532.572 769.417H532.63C532.972 769.446 533.247 769.728 533.247 770.076L533.253 770.073Z" fill="#FFB93E"/>
<path fill-rule="evenodd" clip-rule="evenodd" d="M535.396 772.014V790.726C534.926 790.407 534.477 790.085 534.042 789.757V772.014C534.042 771.651 534.34 771.355 534.7 771.355H534.767C535.115 771.378 535.396 771.663 535.396 772.014Z" fill="#FFB93E"/>
<path fill-rule="evenodd" clip-rule="evenodd" d="M537.542 773.951V792.061L537.49 792.032C537.038 791.768 536.597 791.504 536.173 791.231V773.948C536.173 773.58 536.469 773.284 536.838 773.284H536.899C537.255 773.307 537.545 773.592 537.545 773.948L537.542 773.951Z" fill="#FFB93E"/>
<path fill-rule="evenodd" clip-rule="evenodd" d="M539.681 775.889V793.203C539.212 792.971 538.75 792.73 538.295 792.481V775.886C538.295 775.517 538.599 775.216 538.968 775.216H539.032C539.391 775.236 539.681 775.523 539.681 775.886V775.889Z" fill="#FFB93E"/>
<path fill-rule="evenodd" clip-rule="evenodd" d="M541.824 777.827V794.193C541.352 793.992 540.885 793.781 540.426 793.563V777.824C540.426 777.453 540.728 777.151 541.093 777.151H541.16C541.529 777.171 541.824 777.458 541.824 777.824V777.827Z" fill="#FFB93E"/>
<path fill-rule="evenodd" clip-rule="evenodd" d="M542.55 794.497V779.764C542.55 779.393 542.857 779.085 543.232 779.085H543.295C543.67 779.085 543.971 779.393 543.971 779.764V795.051C543.493 794.874 543.02 794.688 542.55 794.497Z" fill="#FFB93E"/>
<path fill-rule="evenodd" clip-rule="evenodd" d="M545.288 795.521V780.167C545.288 779.793 545.59 779.488 545.964 779.488H546.034C546.408 779.488 546.712 779.796 546.712 780.167V795.982C546.234 795.834 545.758 795.683 545.288 795.521Z" fill="#FFB93E"/>
<path fill-rule="evenodd" clip-rule="evenodd" d="M548.023 796.368V780.571C548.023 780.199 548.33 779.892 548.702 779.892H548.777C549.148 779.892 549.456 780.199 549.456 780.571V796.748C548.974 796.626 548.496 796.498 548.02 796.365L548.023 796.368Z" fill="#FFB93E"/>
<path fill-rule="evenodd" clip-rule="evenodd" d="M550.762 797.058V780.979C550.762 780.602 551.069 780.292 551.44 780.292H551.522C551.896 780.292 552.203 780.599 552.203 780.979V797.369C551.719 797.27 551.24 797.165 550.765 797.058H550.762Z" fill="#FFB93E"/>
<path fill-rule="evenodd" clip-rule="evenodd" d="M553.498 797.612V781.382C553.498 781.008 553.805 780.695 554.182 780.695H554.263C554.64 780.695 554.948 781.008 554.948 781.382V797.855C554.463 797.78 553.979 797.699 553.5 797.615L553.498 797.612Z" fill="#FFB93E"/>
<path fill-rule="evenodd" clip-rule="evenodd" d="M556.229 798.039V781.789C556.229 781.412 556.543 781.099 556.92 781.099H557.004C557.381 781.099 557.691 781.412 557.691 781.789V798.216C557.201 798.164 556.717 798.103 556.229 798.036V798.039Z" fill="#FFB93E"/>
<path fill-rule="evenodd" clip-rule="evenodd" d="M558.968 798.344V782.192C558.968 781.815 559.275 781.502 559.652 781.502H559.748C560.125 781.502 560.433 781.815 560.433 782.192V798.462C559.942 798.431 559.455 798.39 558.968 798.346V798.344Z" fill="#FFB93E"/>
<path fill-rule="evenodd" clip-rule="evenodd" d="M561.7 798.535V782.596C561.7 782.219 562.013 781.906 562.391 781.906H562.486C562.869 781.906 563.177 782.216 563.177 782.596V798.593C562.686 798.582 562.193 798.561 561.703 798.535H561.7Z" fill="#FFB93E"/>
<path fill-rule="evenodd" clip-rule="evenodd" d="M564.438 798.616V783.004C564.438 782.621 564.752 782.311 565.129 782.311H565.23C565.607 782.311 565.921 782.624 565.921 783.004V798.613C565.428 798.619 564.935 798.619 564.441 798.616H564.438Z" fill="#FFB93E"/>
<path fill-rule="evenodd" clip-rule="evenodd" d="M567.224 798.581V782.583C567.224 782.201 567.531 781.893 567.914 781.893H568.01C568.387 781.893 568.7 782.201 568.7 782.583V798.517C568.207 798.543 567.717 798.563 567.224 798.581Z" fill="#E2810E"/>
<path fill-rule="evenodd" clip-rule="evenodd" d="M570.008 798.433V782.166C570.008 781.789 570.316 781.475 570.693 781.475H570.789C571.166 781.475 571.473 781.786 571.473 782.166V798.311C570.986 798.358 570.499 798.398 570.008 798.433Z" fill="#E2810E"/>
<path fill-rule="evenodd" clip-rule="evenodd" d="M572.792 798.169V781.751C572.792 781.374 573.1 781.061 573.477 781.061H573.564C573.941 781.061 574.254 781.371 574.254 781.751V797.984C573.77 798.053 573.283 798.111 572.795 798.169H572.792Z" fill="#E2810E"/>
<path fill-rule="evenodd" clip-rule="evenodd" d="M575.577 797.783V781.328C575.577 780.953 575.885 780.649 576.262 780.649H576.343C576.72 780.649 577.028 780.956 577.028 781.328V797.534C576.546 797.624 576.064 797.705 575.577 797.783Z" fill="#E2810E"/>
<path fill-rule="evenodd" clip-rule="evenodd" d="M578.359 797.267V780.909C578.359 780.535 578.667 780.231 579.038 780.231H579.119C579.494 780.231 579.801 780.538 579.801 780.909V796.948C579.322 797.061 578.841 797.165 578.359 797.267Z" fill="#E2810E"/>
<path fill-rule="evenodd" clip-rule="evenodd" d="M581.144 796.608V780.489C581.144 780.118 581.448 779.81 581.825 779.81H581.901C582.272 779.81 582.579 780.118 582.579 780.489V796.214C582.107 796.353 581.625 796.484 581.144 796.608Z" fill="#E2810E"/>
<path fill-rule="evenodd" clip-rule="evenodd" d="M583.925 795.802V780.072C583.925 779.697 584.233 779.396 584.604 779.396H584.677C585.051 779.396 585.35 779.697 585.35 780.072V795.321C584.88 795.486 584.404 795.648 583.925 795.802Z" fill="#E2810E"/>
<path fill-rule="evenodd" clip-rule="evenodd" d="M586.71 794.819V779.657C586.71 779.283 587.012 778.984 587.383 778.984H587.45C587.824 778.984 588.129 779.286 588.129 779.657V794.245C587.665 794.445 587.189 794.636 586.71 794.819Z" fill="#E2810E"/>
<path fill-rule="evenodd" clip-rule="evenodd" d="M590.11 777.867V793.339C589.649 793.566 589.182 793.783 588.706 793.992V777.867C588.706 777.493 589.014 777.191 589.382 777.191H589.446C589.814 777.211 590.11 777.499 590.11 777.867Z" fill="#E2810E"/>
<path fill-rule="evenodd" clip-rule="evenodd" d="M592.088 776.077V792.31C591.632 792.562 591.171 792.806 590.701 793.044V776.077C590.701 775.709 591.003 775.407 591.371 775.407H591.435C591.792 775.43 592.085 775.715 592.085 776.077H592.088Z" fill="#E2810E"/>
<path fill-rule="evenodd" clip-rule="evenodd" d="M594.067 774.285V791.123C593.626 791.408 593.171 791.689 592.698 791.962V774.285C592.698 773.922 592.999 773.62 593.362 773.62H593.429C593.78 773.644 594.067 773.925 594.067 774.285Z" fill="#E2810E"/>
<path fill-rule="evenodd" clip-rule="evenodd" d="M596.048 772.495V789.74C595.616 790.068 595.163 790.39 594.696 790.709V772.495C594.696 772.133 594.995 771.837 595.355 771.837H595.421C595.767 771.86 596.048 772.141 596.048 772.495Z" fill="#E2810E"/>
<path fill-rule="evenodd" clip-rule="evenodd" d="M598.026 770.705V788.095C597.603 788.483 597.156 788.866 596.686 789.243V770.708C596.686 770.345 596.985 770.052 597.347 770.052H597.408C597.751 770.075 598.029 770.36 598.029 770.708L598.026 770.705Z" fill="#E2810E"/>
<path fill-rule="evenodd" clip-rule="evenodd" d="M600.004 768.916V786.047C599.598 786.526 599.157 786.999 598.687 787.466V768.916C598.687 768.556 598.98 768.263 599.337 768.263H599.401C599.74 768.292 600.004 768.571 600.004 768.916Z" fill="#E2810E"/>
<path fill-rule="evenodd" clip-rule="evenodd" d="M601.982 767.123V783.26C601.602 783.919 601.17 784.568 600.68 785.209V767.123C600.68 766.767 600.973 766.474 601.329 766.474L601.39 766.479C601.724 766.511 601.982 766.787 601.982 767.123Z" fill="#E2810E"/>
<path fill-rule="evenodd" clip-rule="evenodd" d="M602.676 781.931V765.333C602.676 764.982 602.966 764.689 603.326 764.689C603.61 764.689 603.853 764.881 603.938 765.139C603.949 765.261 603.961 765.388 603.967 765.525V776.04C603.967 776.582 603.961 776.933 603.958 776.988C603.851 778.653 603.421 780.312 602.676 781.931Z" fill="#E2810E"/>
<path fill-rule="evenodd" clip-rule="evenodd" d="M592.576 782.041C577.37 790.825 552.705 790.825 537.491 782.041C522.286 773.261 522.286 759.021 537.491 750.241C552.705 741.457 577.367 741.457 592.576 750.241C607.79 759.021 607.79 773.261 592.576 782.041Z" fill="#C06E0C"/>
<path fill-rule="evenodd" clip-rule="evenodd" d="M591.253 781.278C576.772 789.638 553.3 789.638 538.816 781.278C524.336 772.921 524.336 759.363 538.816 751.006C553.3 742.644 576.772 742.644 591.253 751.006C605.73 759.363 605.73 772.921 591.253 781.278Z" fill="#E2810E"/>
<path fill-rule="evenodd" clip-rule="evenodd" d="M586.751 778.679C574.759 785.6 555.313 785.6 543.322 778.679C531.327 771.755 531.327 760.527 543.322 753.606C555.313 746.682 574.757 746.682 586.751 753.606C598.743 760.533 598.743 771.758 586.751 778.679Z" fill="#E68600"/>
<path fill-rule="evenodd" clip-rule="evenodd" d="M586.751 755.215C574.756 748.291 555.313 748.291 543.321 755.215C537.676 758.473 534.692 762.682 534.361 766.946C534.694 771.213 537.679 775.425 543.321 778.682C555.313 785.603 574.759 785.603 586.751 778.682C592.39 775.425 595.38 771.216 595.711 766.952C595.377 762.682 592.387 758.473 586.751 755.215Z" fill="#F29919"/>
<path fill-rule="evenodd" clip-rule="evenodd" d="M557.236 773.916L563.008 770.58C565.071 773.11 560.961 775.204 557.236 773.916ZM572.671 760.77L567.209 763.926C565.468 761.814 568.784 759.671 572.671 760.77ZM580.004 756.587L578.713 757.336C567.632 751.52 551.861 759.207 560.653 767.709L553.192 772.019C552.169 771.14 551.455 770.186 551.052 769.159C550.541 767.88 548.505 767.004 546.239 767.149C544.058 767.291 542.434 767.628 542.297 768.811C542.265 769.072 542.312 770.029 542.434 770.302C543.26 772.066 544.946 773.931 547.411 775.349L545.932 775.137C545.654 775.297 545.77 776.431 545.77 776.64C545.77 776.849 545.903 777.064 546.181 777.22L547.797 778.157C548.351 778.473 549.247 778.473 549.802 778.157L551.075 777.423C557.364 779.944 563.725 779.938 568.65 777.101C573.297 774.418 573.66 770.949 569.738 766.699L576.157 762.995C576.471 763.337 576.74 763.761 576.958 764.269C577.506 765.533 579.595 766.369 581.834 766.224C584.729 766.041 586.681 764.196 585.695 762.612C584.97 761.446 583.807 760.5 582.353 759.491L583.688 758.722C583.949 758.572 584.074 758.377 584.065 758.18C584.062 757.991 584.213 756.831 583.966 756.689L581.831 756.593C581.329 756.3 580.509 756.3 580.004 756.593V756.587Z" fill="#E68600"/>
<path fill-rule="evenodd" clip-rule="evenodd" d="M557.236 772.707L563.008 769.374C565.071 771.9 560.96 773.995 557.236 772.707ZM572.671 759.564L567.209 762.719C565.468 760.608 568.784 758.464 572.671 759.564ZM580.004 755.381L578.713 756.126C567.632 750.31 551.861 758 560.653 766.502L553.192 770.81C552.168 769.931 551.455 768.976 551.052 767.949C550.541 766.673 548.505 765.791 546.239 765.936C543.582 766.11 541.743 767.598 542.434 769.092C543.26 770.853 544.946 772.721 547.411 774.14L546.184 774.847C545.63 775.169 545.63 775.689 546.184 776.005L547.8 776.942C548.354 777.258 549.25 777.258 549.804 776.942L551.078 776.208C557.366 778.729 563.728 778.726 568.653 775.886C573.3 773.203 573.663 769.733 569.741 765.487L576.16 761.78C576.473 762.122 576.743 762.545 576.961 763.053C577.509 764.318 579.598 765.147 581.837 765.005C584.732 764.825 586.611 763.128 585.622 761.542C584.897 760.379 583.809 759.285 582.356 758.276L583.69 757.507C584.198 757.214 584.198 756.741 583.69 756.451L581.831 755.378C581.329 755.085 580.508 755.085 580.004 755.378V755.381Z" fill="#F6B039"/>
<path fill-rule="evenodd" clip-rule="evenodd" d="M590.415 778.25C575.203 787.033 550.544 787.033 535.33 778.25C528.177 774.122 524.391 768.788 523.962 763.378C523.939 763.05 523.921 752.738 523.921 752.41C523.898 746.641 527.698 750.856 535.33 746.449C550.538 737.669 575.203 737.669 590.415 746.449C597.971 750.815 601.771 746.533 601.823 752.251C601.823 752.57 601.814 762.879 601.794 763.201C601.443 768.669 597.646 774.073 590.418 778.247L590.415 778.25Z" fill="#FFB93E"/>
<path fill-rule="evenodd" clip-rule="evenodd" d="M524.394 749.957C524.554 750.073 524.658 750.264 524.658 750.476V766.708C524.284 765.609 524.052 764.495 523.962 763.378C523.939 763.056 523.922 752.738 523.922 752.411C523.916 751.224 524.075 750.461 524.391 749.957H524.394Z" fill="#D0D9EE"/>
<path fill-rule="evenodd" clip-rule="evenodd" d="M526.805 752.414V770.854C526.303 770.146 525.868 769.426 525.5 768.695V752.414C525.5 752.057 525.792 751.767 526.149 751.767H526.21C526.541 751.802 526.805 752.077 526.805 752.414Z" fill="#D0D9EE"/>
<path fill-rule="evenodd" clip-rule="evenodd" d="M528.948 754.354V773.142C528.948 773.223 528.934 773.299 528.908 773.368C528.446 772.895 528.02 772.417 527.625 771.932V754.354C527.625 753.997 527.924 753.698 528.281 753.698L528.342 753.704C528.678 753.73 528.951 754.012 528.951 754.354H528.948Z" fill="#D0D9EE"/>
<path fill-rule="evenodd" clip-rule="evenodd" d="M531.093 756.292V775.068C531.093 775.155 531.075 775.239 531.043 775.317C530.591 774.949 530.161 774.575 529.752 774.195V756.294C529.752 755.932 530.048 755.639 530.408 755.639H530.472C530.814 755.662 531.093 755.946 531.093 756.294V756.292Z" fill="#D0D9EE"/>
<path fill-rule="evenodd" clip-rule="evenodd" d="M533.233 758.229V776.942C532.766 776.626 532.316 776.304 531.884 775.979V758.232C531.884 757.87 532.18 757.574 532.542 757.574H532.603C532.957 757.6 533.233 757.881 533.233 758.232V758.229Z" fill="#E2810E"/>
<path fill-rule="evenodd" clip-rule="evenodd" d="M535.376 760.167V778.276L535.33 778.25C534.874 777.986 534.433 777.719 534.007 777.45V760.17C534.007 759.802 534.306 759.506 534.671 759.506H534.735C535.086 759.529 535.373 759.813 535.373 760.17L535.376 760.167Z" fill="#E2810E"/>
<path fill-rule="evenodd" clip-rule="evenodd" d="M537.523 762.104V779.422C537.053 779.19 536.592 778.949 536.139 778.699V762.104C536.139 761.736 536.435 761.437 536.803 761.437H536.87C537.233 761.46 537.526 761.745 537.526 762.104H537.523Z" fill="#E2810E"/>
<path fill-rule="evenodd" clip-rule="evenodd" d="M539.666 764.045V780.414C539.193 780.208 538.723 779.999 538.262 779.782V764.045C538.262 763.671 538.567 763.37 538.938 763.37H539.005C539.367 763.39 539.669 763.677 539.669 764.045H539.666Z" fill="#E2810E"/>
<path fill-rule="evenodd" clip-rule="evenodd" d="M540.392 780.716V765.983C540.392 765.609 540.693 765.301 541.065 765.301H541.128C541.5 765.301 541.81 765.609 541.81 765.983V781.27C541.331 781.09 540.859 780.907 540.392 780.716Z" fill="#E2810E"/>
<path fill-rule="evenodd" clip-rule="evenodd" d="M543.127 781.739V766.386C543.127 766.012 543.434 765.71 543.806 765.71H543.878C544.25 765.71 544.557 766.012 544.557 766.386V782.201C544.076 782.053 543.6 781.899 543.127 781.739Z" fill="#E2810E"/>
<path fill-rule="evenodd" clip-rule="evenodd" d="M545.866 782.587V766.792C545.866 766.415 546.167 766.111 546.544 766.111H546.62C546.994 766.111 547.302 766.412 547.302 766.792V782.967C546.817 782.845 546.341 782.717 545.866 782.584V782.587Z" fill="#E2810E"/>
<path fill-rule="evenodd" clip-rule="evenodd" d="M548.595 783.277V767.195C548.595 766.821 548.902 766.514 549.279 766.514H549.355C549.732 766.514 550.039 766.821 550.039 767.195V783.587C549.552 783.489 549.07 783.387 548.592 783.277H548.595Z" fill="#E2810E"/>
<path fill-rule="evenodd" clip-rule="evenodd" d="M551.333 783.831V767.599C551.333 767.225 551.64 766.92 552.015 766.92H552.102C552.479 766.92 552.786 767.228 552.786 767.599V784.075C552.302 784.002 551.817 783.918 551.336 783.834L551.333 783.831Z" fill="#E2810E"/>
<path fill-rule="evenodd" clip-rule="evenodd" d="M554.068 784.257V768.005C554.068 767.628 554.376 767.32 554.753 767.32H554.843C555.217 767.32 555.527 767.628 555.527 768.005V784.437C555.04 784.382 554.553 784.321 554.068 784.257Z" fill="#E2810E"/>
<path fill-rule="evenodd" clip-rule="evenodd" d="M556.804 784.562V768.408C556.804 768.031 557.115 767.724 557.495 767.724H557.585C557.962 767.724 558.275 768.031 558.275 768.408V784.681C557.782 784.646 557.294 784.609 556.804 784.562Z" fill="#E2810E"/>
<path fill-rule="evenodd" clip-rule="evenodd" d="M559.542 784.756V768.817C559.542 768.431 559.852 768.126 560.232 768.126H560.328C560.705 768.126 561.018 768.434 561.018 768.817V784.814C560.525 784.8 560.035 784.78 559.545 784.756H559.542Z" fill="#E2810E"/>
<path fill-rule="evenodd" clip-rule="evenodd" d="M562.275 784.834V769.217C562.275 768.84 562.588 768.527 562.968 768.527H563.064C563.447 768.527 563.76 768.84 563.76 769.217V784.832C563.264 784.837 562.768 784.837 562.275 784.832V784.834Z" fill="#E2810E"/>
<path fill-rule="evenodd" clip-rule="evenodd" d="M565.059 784.803V768.802C565.059 768.425 565.369 768.112 565.749 768.112H565.845C566.228 768.112 566.536 768.425 566.536 768.802V784.742C566.045 784.771 565.555 784.791 565.062 784.805L565.059 784.803Z" fill="#E2810E"/>
<path fill-rule="evenodd" clip-rule="evenodd" d="M567.844 784.656V768.385C567.844 768.008 568.155 767.695 568.535 767.695H568.625C569.002 767.695 569.315 768.005 569.315 768.385V784.531C568.828 784.577 568.337 784.621 567.844 784.656Z" fill="#E2810E"/>
<path fill-rule="evenodd" clip-rule="evenodd" d="M570.629 784.391V767.967C570.629 767.59 570.939 767.283 571.319 767.283H571.406C571.783 767.283 572.091 767.59 572.091 767.967V784.205C571.606 784.275 571.119 784.336 570.632 784.394L570.629 784.391Z" fill="#E2810E"/>
<path fill-rule="evenodd" clip-rule="evenodd" d="M573.41 784.005V767.549C573.41 767.172 573.723 766.865 574.098 766.865H574.182C574.556 766.865 574.869 767.172 574.869 767.549V783.753C574.385 783.843 573.9 783.924 573.413 784.005H573.41Z" fill="#E2810E"/>
<path fill-rule="evenodd" clip-rule="evenodd" d="M576.196 783.486V767.132C576.196 766.755 576.503 766.448 576.88 766.448H576.962C577.333 766.448 577.64 766.755 577.64 767.132V783.167C577.162 783.28 576.68 783.385 576.196 783.486Z" fill="#E2810E"/>
<path fill-rule="evenodd" clip-rule="evenodd" d="M578.982 782.83V766.711C578.982 766.334 579.284 766.032 579.664 766.032H579.733C580.11 766.032 580.412 766.334 580.412 766.711V782.433C579.939 782.572 579.461 782.706 578.982 782.827V782.83Z" fill="#E2810E"/>
<path fill-rule="evenodd" clip-rule="evenodd" d="M581.768 782.021V766.293C581.768 765.916 582.069 765.614 582.443 765.614H582.513C582.884 765.614 583.192 765.916 583.192 766.293V781.539C582.722 781.705 582.246 781.867 581.768 782.021Z" fill="#E2810E"/>
<path fill-rule="evenodd" clip-rule="evenodd" d="M584.552 781.035V765.87C584.552 765.502 584.853 765.197 585.225 765.197H585.291C585.663 765.197 585.964 765.505 585.964 765.87V780.461C585.5 780.661 585.027 780.849 584.549 781.035H584.552Z" fill="#E2810E"/>
<path fill-rule="evenodd" clip-rule="evenodd" d="M587.949 764.083V779.556C587.488 779.779 587.021 780 586.545 780.208V764.083C586.545 763.712 586.847 763.41 587.218 763.41H587.285C587.647 763.431 587.949 763.718 587.949 764.083Z" fill="#E2810E"/>
<path fill-rule="evenodd" clip-rule="evenodd" d="M589.928 762.293V778.526C589.472 778.778 589.008 779.024 588.541 779.265V762.293C588.541 761.925 588.843 761.629 589.208 761.629H589.275C589.637 761.649 589.928 761.931 589.928 762.293Z" fill="#E2810E"/>
<path fill-rule="evenodd" clip-rule="evenodd" d="M591.905 760.507V777.339C591.461 777.624 591.009 777.905 590.536 778.181V760.507C590.536 760.138 590.835 759.842 591.2 759.842H591.264C591.618 759.863 591.905 760.15 591.905 760.507Z" fill="#E2810E"/>
<path fill-rule="evenodd" clip-rule="evenodd" d="M593.883 758.714V775.962C593.448 776.29 592.999 776.612 592.529 776.931V758.717C592.529 758.354 592.828 758.056 593.187 758.056H593.254C593.602 758.082 593.883 758.363 593.883 758.717V758.714Z" fill="#E2810E"/>
<path fill-rule="evenodd" clip-rule="evenodd" d="M595.863 756.921V774.314C595.442 774.7 594.995 775.083 594.528 775.457V756.921C594.528 756.561 594.821 756.266 595.181 756.266H595.248C595.59 756.295 595.863 756.573 595.863 756.921Z" fill="#E2810E"/>
<path fill-rule="evenodd" clip-rule="evenodd" d="M597.846 755.134V772.263C597.437 772.745 596.996 773.22 596.523 773.684V755.131C596.523 754.775 596.816 754.476 597.179 754.476L597.24 754.482C597.576 754.505 597.849 754.789 597.849 755.131L597.846 755.134Z" fill="#E2810E"/>
<path fill-rule="evenodd" clip-rule="evenodd" d="M599.825 753.342V769.479C599.445 770.137 599.01 770.79 598.522 771.431V753.345C598.522 752.988 598.815 752.695 599.166 752.695L599.233 752.701C599.567 752.73 599.828 753.008 599.828 753.345L599.825 753.342Z" fill="#E2810E"/>
<path fill-rule="evenodd" clip-rule="evenodd" d="M600.515 768.144V751.555C600.515 751.195 600.805 750.908 601.159 750.908C601.452 750.908 601.699 751.102 601.777 751.369C601.789 751.47 601.797 751.578 601.803 751.688V762.122C601.8 762.737 601.797 763.14 601.791 763.201C601.684 764.863 601.258 766.522 600.515 768.141V768.144Z" fill="#E2810E"/>
<path fill-rule="evenodd" clip-rule="evenodd" d="M590.414 768.257C575.203 777.04 550.544 777.04 535.33 768.257C520.115 759.477 520.115 745.24 535.33 736.456C550.538 727.676 575.203 727.676 590.414 736.456C605.623 745.24 605.623 759.477 590.414 768.257Z" fill="#E2810E"/>
<path fill-rule="evenodd" clip-rule="evenodd" d="M589.092 767.497C574.614 775.854 551.133 775.854 536.656 767.497C522.175 759.134 522.175 745.582 536.656 737.219C551.133 728.859 574.609 728.862 589.092 737.219C603.569 745.579 603.569 759.134 589.092 767.497Z" fill="#E2810E"/>
<path fill-rule="evenodd" clip-rule="evenodd" d="M584.586 764.895C572.595 771.822 553.151 771.822 541.157 764.895C529.165 757.971 529.165 746.749 541.157 739.822C553.148 732.898 572.595 732.898 584.586 739.822C596.581 746.749 596.581 757.974 584.586 764.895Z" fill="#C06E0C"/>
<path fill-rule="evenodd" clip-rule="evenodd" d="M584.587 741.434C572.595 734.507 553.149 734.507 541.157 741.431C535.518 744.689 532.527 748.898 532.197 753.165C532.53 757.429 535.521 761.638 541.157 764.895C553.152 771.822 572.595 771.822 584.587 764.895C590.231 761.638 593.216 757.432 593.553 753.165C593.216 748.901 590.231 744.692 584.587 741.434Z" fill="#FFB93E"/>
<path fill-rule="evenodd" clip-rule="evenodd" d="M558.924 763.274C543.716 772.054 519.054 772.054 503.84 763.274C496.692 759.143 492.901 753.809 492.472 748.402C492.449 748.074 492.437 737.759 492.431 737.431C492.411 731.656 496.214 735.877 503.84 731.47C519.054 722.687 543.716 722.687 558.924 731.47C566.481 735.836 570.286 731.552 570.33 737.269C570.336 737.591 570.327 747.903 570.307 748.222C569.95 753.69 566.153 759.097 558.924 763.271V763.274Z" fill="#FFB93E"/>
<path fill-rule="evenodd" clip-rule="evenodd" d="M492.904 734.977C493.066 735.096 493.171 735.285 493.171 735.499V751.746C492.794 750.641 492.559 749.524 492.472 748.404C492.449 748.077 492.437 737.762 492.431 737.434C492.428 736.248 492.585 735.482 492.904 734.98V734.977Z" fill="#E2810E"/>
<path fill-rule="evenodd" clip-rule="evenodd" d="M495.317 737.437V755.877C494.815 755.167 494.38 754.447 494.009 753.713V737.434C494.009 737.078 494.299 736.785 494.659 736.785L494.719 736.79C495.053 736.814 495.317 737.098 495.317 737.434V737.437Z" fill="#E2810E"/>
<path fill-rule="evenodd" clip-rule="evenodd" d="M497.455 739.378V758.166C497.455 758.244 497.441 758.32 497.414 758.389C496.956 757.919 496.53 757.441 496.135 756.959V739.381C496.135 739.021 496.428 738.725 496.785 738.725H496.849C497.185 738.754 497.452 739.036 497.452 739.381L497.455 739.378Z" fill="#E2810E"/>
<path fill-rule="evenodd" clip-rule="evenodd" d="M499.602 741.315V760.095C499.602 760.182 499.584 760.266 499.553 760.338C499.1 759.97 498.671 759.596 498.262 759.216V741.315C498.262 740.953 498.56 740.657 498.92 740.657L498.981 740.663C499.323 740.686 499.602 740.97 499.602 741.318V741.315Z" fill="#E2810E"/>
<path fill-rule="evenodd" clip-rule="evenodd" d="M501.745 743.253V761.965C501.275 761.649 500.826 761.324 500.391 760.997V743.25C500.391 742.887 500.689 742.592 501.049 742.592H501.116C501.461 742.615 501.745 742.899 501.745 743.25V743.253Z" fill="#E2810E"/>
<path fill-rule="evenodd" clip-rule="evenodd" d="M503.892 745.191V763.303L503.843 763.274C503.39 763.013 502.949 762.746 502.523 762.473V745.188C502.523 744.819 502.822 744.523 503.187 744.523H503.248C503.608 744.55 503.895 744.831 503.895 745.188L503.892 745.191Z" fill="#E2810E"/>
<path fill-rule="evenodd" clip-rule="evenodd" d="M506.03 747.128V764.443C505.56 764.211 505.099 763.97 504.646 763.72V747.125C504.646 746.757 504.948 746.455 505.316 746.455H505.38C505.74 746.476 506.03 746.763 506.03 747.125V747.128Z" fill="#E2810E"/>
<path fill-rule="evenodd" clip-rule="evenodd" d="M508.173 749.066V765.432C507.7 765.229 507.233 765.02 506.772 764.802V749.063C506.772 748.692 507.074 748.39 507.442 748.39H507.506C507.874 748.41 508.17 748.697 508.17 749.063L508.173 749.066Z" fill="#E2810E"/>
<path fill-rule="evenodd" clip-rule="evenodd" d="M508.899 765.736V751.007C508.899 750.632 509.206 750.325 509.578 750.325H509.644C510.019 750.325 510.317 750.632 510.317 751.007V766.293C509.839 766.114 509.366 765.931 508.899 765.739V765.736Z" fill="#E2810E"/>
<path fill-rule="evenodd" clip-rule="evenodd" d="M511.637 766.76V751.409C511.637 751.035 511.939 750.728 512.313 750.728H512.383C512.757 750.728 513.061 751.035 513.061 751.409V767.224C512.583 767.076 512.107 766.922 511.637 766.763V766.76Z" fill="#E2810E"/>
<path fill-rule="evenodd" clip-rule="evenodd" d="M514.372 767.607V751.81C514.372 751.436 514.68 751.128 515.051 751.128H515.129C515.5 751.128 515.808 751.436 515.808 751.81V767.987C515.326 767.865 514.848 767.738 514.372 767.607Z" fill="#E2810E"/>
<path fill-rule="evenodd" clip-rule="evenodd" d="M517.11 768.3V752.219C517.11 751.841 517.418 751.534 517.792 751.534H517.87C518.245 751.534 518.552 751.841 518.552 752.219V768.608C518.068 768.512 517.589 768.407 517.113 768.3H517.11Z" fill="#E2810E"/>
<path fill-rule="evenodd" clip-rule="evenodd" d="M519.843 768.852V752.622C519.843 752.248 520.15 751.938 520.527 751.938H520.609C520.986 751.938 521.293 752.248 521.293 752.622V769.095C520.806 769.02 520.324 768.939 519.843 768.852Z" fill="#E2810E"/>
<path fill-rule="evenodd" clip-rule="evenodd" d="M522.578 769.278V753.028C522.578 752.651 522.889 752.338 523.268 752.338H523.353C523.73 752.338 524.04 752.651 524.04 753.028V769.455C523.553 769.4 523.065 769.342 522.581 769.275L522.578 769.278Z" fill="#E2810E"/>
<path fill-rule="evenodd" clip-rule="evenodd" d="M525.317 769.586V753.435C525.317 753.058 525.624 752.744 526.001 752.744H526.097C526.474 752.744 526.782 753.055 526.782 753.435V769.705C526.292 769.673 525.804 769.629 525.317 769.589V769.586Z" fill="#E2810E"/>
<path fill-rule="evenodd" clip-rule="evenodd" d="M528.05 769.774V753.835C528.05 753.458 528.363 753.145 528.74 753.145H528.836C529.219 753.145 529.526 753.458 529.526 753.835V769.832C529.033 769.818 528.54 769.798 528.05 769.771V769.774Z" fill="#E2810E"/>
<path fill-rule="evenodd" clip-rule="evenodd" d="M530.791 769.853V754.241C530.791 753.858 531.101 753.548 531.478 753.548H531.58C531.957 753.548 532.27 753.858 532.27 754.241V769.853C531.777 769.859 531.284 769.859 530.791 769.853Z" fill="#E2810E"/>
<path fill-rule="evenodd" clip-rule="evenodd" d="M533.573 769.824V753.826C533.573 753.443 533.88 753.136 534.263 753.136H534.359C534.736 753.136 535.049 753.443 535.049 753.826V769.76C534.559 769.786 534.066 769.806 533.573 769.824Z" fill="#E2810E"/>
<path fill-rule="evenodd" clip-rule="evenodd" d="M536.354 769.672V753.405C536.354 753.028 536.662 752.715 537.039 752.715H537.135C537.512 752.715 537.819 753.025 537.819 753.405V769.548C537.332 769.594 536.845 769.635 536.354 769.672Z" fill="#E2810E"/>
<path fill-rule="evenodd" clip-rule="evenodd" d="M539.139 769.409V752.988C539.139 752.611 539.446 752.298 539.823 752.298H539.91C540.287 752.298 540.601 752.608 540.601 752.988V769.224C540.116 769.29 539.629 769.351 539.142 769.409H539.139Z" fill="#E2810E"/>
<path fill-rule="evenodd" clip-rule="evenodd" d="M541.923 769.02V752.564C541.923 752.193 542.231 751.885 542.608 751.885H542.689C543.066 751.885 543.374 752.193 543.374 752.564V768.773C542.889 768.863 542.408 768.944 541.923 769.022V769.02Z" fill="#E2810E"/>
<path fill-rule="evenodd" clip-rule="evenodd" d="M544.708 768.506V752.149C544.708 751.775 545.015 751.47 545.387 751.47H545.468C545.842 751.47 546.15 751.778 546.15 752.149V768.187C545.671 768.3 545.192 768.405 544.711 768.506H544.708Z" fill="#E2810E"/>
<path fill-rule="evenodd" clip-rule="evenodd" d="M547.493 767.852V751.73C547.493 751.358 547.801 751.051 548.172 751.051H548.247C548.622 751.051 548.929 751.358 548.929 751.73V767.451C548.456 767.591 547.975 767.724 547.493 767.852Z" fill="#E2810E"/>
<path fill-rule="evenodd" clip-rule="evenodd" d="M550.275 767.045V751.314C550.275 750.943 550.582 750.641 550.957 750.641H551.026C551.4 750.641 551.702 750.943 551.702 751.314V766.563C551.232 766.731 550.756 766.891 550.275 767.045Z" fill="#E2810E"/>
<path fill-rule="evenodd" clip-rule="evenodd" d="M553.059 766.058V750.896C553.059 750.522 553.361 750.22 553.735 750.22H553.799C554.173 750.22 554.48 750.522 554.48 750.896V765.484C554.013 765.684 553.538 765.876 553.059 766.061V766.058Z" fill="#E2810E"/>
<path fill-rule="evenodd" clip-rule="evenodd" d="M556.457 749.107V764.579C555.995 764.803 555.528 765.023 555.053 765.232V749.107C555.053 748.736 555.36 748.434 555.726 748.434H555.789C556.158 748.454 556.454 748.742 556.454 749.107H556.457Z" fill="#E2810E"/>
<path fill-rule="evenodd" clip-rule="evenodd" d="M558.437 747.314V763.546C557.984 763.802 557.52 764.045 557.053 764.283V747.314C557.053 746.945 557.355 746.647 557.72 746.647H557.787C558.144 746.67 558.437 746.954 558.437 747.314Z" fill="#E2810E"/>
<path fill-rule="evenodd" clip-rule="evenodd" d="M560.415 745.524V762.365C559.971 762.65 559.516 762.928 559.046 763.204V745.524C559.046 745.161 559.348 744.86 559.71 744.86L559.777 744.865C560.128 744.886 560.418 745.167 560.418 745.524H560.415Z" fill="#E2810E"/>
<path fill-rule="evenodd" clip-rule="evenodd" d="M562.397 743.737V760.982C561.964 761.31 561.512 761.632 561.045 761.951V743.74C561.045 743.377 561.344 743.082 561.703 743.082H561.767C562.115 743.105 562.397 743.389 562.397 743.74V743.737Z" fill="#E2810E"/>
<path fill-rule="evenodd" clip-rule="evenodd" d="M564.375 741.942V759.331C563.951 759.72 563.505 760.103 563.035 760.48V741.942C563.035 741.582 563.333 741.286 563.693 741.286H563.754C564.096 741.312 564.372 741.594 564.372 741.942H564.375Z" fill="#E2810E"/>
<path fill-rule="evenodd" clip-rule="evenodd" d="M566.353 740.158V757.287C565.944 757.765 565.506 758.238 565.033 758.705V740.161C565.033 739.798 565.326 739.505 565.683 739.505H565.747C566.086 739.534 566.353 739.813 566.353 740.161V740.158Z" fill="#E2810E"/>
<path fill-rule="evenodd" clip-rule="evenodd" d="M568.332 738.366V754.502C567.952 755.161 567.52 755.813 567.029 756.454V738.369C567.029 738.012 567.319 737.719 567.676 737.719L567.737 737.725C568.071 737.754 568.329 738.032 568.329 738.369L568.332 738.366Z" fill="#E2810E"/>
<path fill-rule="evenodd" clip-rule="evenodd" d="M569.021 753.17V736.572C569.021 736.221 569.314 735.926 569.671 735.926C569.956 735.926 570.199 736.117 570.283 736.378C570.295 736.5 570.307 736.627 570.315 736.764V747.276C570.312 747.821 570.309 748.169 570.304 748.227C570.196 749.892 569.767 751.552 569.021 753.17Z" fill="#E2810E"/>
<path fill-rule="evenodd" clip-rule="evenodd" d="M558.925 753.28C543.716 762.064 519.054 762.064 503.84 753.28C488.631 744.5 488.631 730.26 503.84 721.48C519.054 712.696 543.716 712.696 558.925 721.48C574.139 730.26 574.139 744.503 558.925 753.28Z" fill="#E2810E"/>
<path fill-rule="evenodd" clip-rule="evenodd" d="M557.599 752.515C543.118 760.875 519.646 760.875 505.163 752.515C490.682 744.158 490.682 730.6 505.163 722.246C519.646 713.883 543.118 713.883 557.599 722.246C572.076 730.603 572.076 744.158 557.599 752.515Z" fill="#FFB93E"/>
<path fill-rule="evenodd" clip-rule="evenodd" d="M553.1 749.919C541.108 756.84 521.662 756.84 509.67 749.919C497.676 742.995 497.676 731.766 509.67 724.842C521.662 717.918 541.105 717.918 553.1 724.842C565.091 731.769 565.091 742.995 553.1 749.919Z" fill="#E68600"/>
<path fill-rule="evenodd" clip-rule="evenodd" d="M553.099 726.455C541.105 719.531 521.661 719.531 509.67 726.455C504.025 729.713 501.04 733.922 500.709 738.186C501.043 742.453 504.028 746.662 509.67 749.922C521.661 756.843 541.108 756.843 553.099 749.922C558.738 746.665 561.729 742.456 562.06 738.192C561.726 733.925 558.738 729.716 553.099 726.458V726.455Z" fill="#F29919"/>
<path fill-rule="evenodd" clip-rule="evenodd" d="M523.585 745.156L529.357 741.823C531.423 744.349 527.31 746.444 523.585 745.156ZM539.02 732.01L533.558 735.166C531.814 733.057 535.133 730.913 539.02 732.01ZM546.353 727.827L545.065 728.572C533.984 722.756 518.213 730.446 527.002 738.948L519.541 743.259C518.52 742.377 517.804 741.426 517.401 740.399C516.893 739.117 514.854 738.243 512.588 738.388C510.407 738.528 508.783 738.867 508.646 740.051C508.617 740.312 508.661 741.269 508.783 741.539C509.609 743.302 511.295 745.167 513.76 746.589L512.281 746.377C512.005 746.537 512.119 747.671 512.119 747.877C512.119 748.083 512.255 748.3 512.53 748.457L514.146 749.394C514.7 749.713 515.596 749.713 516.151 749.394L517.424 748.66C523.713 751.184 530.077 751.178 534.999 748.338C539.646 745.655 540.009 742.188 536.087 737.936L542.506 734.235C542.82 734.577 543.089 734.998 543.307 735.508C543.855 736.773 545.947 737.608 548.186 737.463C551.081 737.28 553.033 735.433 552.047 733.852C551.322 732.686 550.159 731.746 548.705 730.731L550.04 729.962C550.301 729.811 550.425 729.614 550.417 729.417C550.411 729.231 550.562 728.068 550.315 727.926L548.183 727.83C547.678 727.537 546.857 727.537 546.356 727.83L546.353 727.827Z" fill="#E68600"/>
<path fill-rule="evenodd" clip-rule="evenodd" d="M523.584 743.949L529.357 740.616C531.422 743.143 527.309 745.237 523.584 743.949ZM539.019 730.803L533.557 733.959C531.813 731.847 535.132 729.704 539.019 730.803ZM546.352 726.62L545.064 727.366C533.983 721.55 518.212 729.24 527.001 737.739L519.54 742.049C518.519 741.167 517.803 740.216 517.4 739.189C516.892 737.91 514.853 737.031 512.587 737.176C509.93 737.353 508.091 738.838 508.782 740.332C509.608 742.093 511.294 743.961 513.759 745.382L512.529 746.09C511.975 746.412 511.975 746.931 512.529 747.247L514.145 748.184C514.699 748.5 515.596 748.5 516.15 748.184L517.423 747.45C523.712 749.971 530.076 749.965 534.998 747.128C539.645 744.445 540.008 740.976 536.086 736.726L542.505 733.022C542.819 733.364 543.089 733.788 543.306 734.295C543.854 735.56 545.946 736.39 548.185 736.248C551.08 736.065 552.957 734.371 551.971 732.784C551.245 731.621 550.158 730.527 548.704 729.518L550.039 728.746C550.543 728.456 550.543 727.981 550.039 727.691L548.179 726.62C547.675 726.327 546.854 726.327 546.352 726.62Z" fill="#F6B039"/>
<path fill-rule="evenodd" clip-rule="evenodd" d="M556.763 749.489C541.549 758.273 516.893 758.273 501.679 749.489C494.525 745.362 490.737 740.024 490.311 734.617C490.288 734.29 490.27 723.975 490.27 723.647C490.247 717.88 494.047 722.092 501.679 717.686C516.884 708.905 541.549 708.905 556.763 717.686C564.32 722.052 568.12 717.773 568.169 723.49C568.169 723.806 568.16 734.118 568.14 734.44C567.789 739.908 563.992 745.315 556.763 749.489Z" fill="#FFB93E"/>
<path fill-rule="evenodd" clip-rule="evenodd" d="M490.743 721.196C490.902 721.315 491.007 721.503 491.007 721.718V737.95C490.633 736.851 490.401 735.734 490.311 734.62C490.287 734.298 490.27 723.978 490.27 723.65C490.267 722.466 490.424 721.701 490.743 721.196Z" fill="#E2810E"/>
<path fill-rule="evenodd" clip-rule="evenodd" d="M493.153 723.656V742.093C492.652 741.385 492.217 740.666 491.848 739.938V723.656C491.848 723.299 492.141 723.006 492.498 723.006L492.559 723.012C492.892 723.041 493.153 723.319 493.153 723.656Z" fill="#E2810E"/>
<path fill-rule="evenodd" clip-rule="evenodd" d="M495.297 725.591V744.379C495.297 744.457 495.282 744.535 495.256 744.605C494.798 744.135 494.369 743.653 493.974 743.169V725.591C493.974 725.234 494.273 724.938 494.63 724.938L494.691 724.944C495.03 724.967 495.3 725.251 495.3 725.591H495.297Z" fill="#E2810E"/>
<path fill-rule="evenodd" clip-rule="evenodd" d="M497.444 727.531V746.31C497.444 746.397 497.426 746.479 497.394 746.557C496.942 746.188 496.513 745.814 496.104 745.434V727.531C496.104 727.168 496.402 726.875 496.759 726.875H496.826C497.168 726.899 497.447 727.183 497.447 727.531H497.444Z" fill="#E2810E"/>
<path fill-rule="evenodd" clip-rule="evenodd" d="M499.581 729.469V748.178C499.114 747.862 498.665 747.54 498.232 747.215V729.469C498.232 729.106 498.531 728.81 498.891 728.81H498.952C499.303 728.836 499.581 729.118 499.581 729.469Z" fill="#E2810E"/>
<path fill-rule="evenodd" clip-rule="evenodd" d="M501.726 731.409V749.518L501.679 749.492C501.224 749.228 500.783 748.961 500.354 748.689V731.409C500.354 731.041 500.652 730.745 501.018 730.745H501.082C501.435 730.768 501.723 731.052 501.723 731.409H501.726Z" fill="#E2810E"/>
<path fill-rule="evenodd" clip-rule="evenodd" d="M503.872 733.344V750.661C503.402 750.429 502.941 750.189 502.486 749.939V733.344C502.486 732.976 502.785 732.674 503.15 732.674H503.214C503.577 732.7 503.869 732.982 503.869 733.344H503.872Z" fill="#E2810E"/>
<path fill-rule="evenodd" clip-rule="evenodd" d="M506.012 735.282V751.651C505.54 751.448 505.07 751.239 504.608 751.021V735.282C504.608 734.911 504.91 734.609 505.281 734.609H505.348C505.711 734.629 506.012 734.917 506.012 735.282Z" fill="#E2810E"/>
<path fill-rule="evenodd" clip-rule="evenodd" d="M506.74 751.955V737.222C506.74 736.848 507.042 736.543 507.413 736.543H507.477C507.851 736.543 508.159 736.851 508.159 737.222V752.509C507.68 752.329 507.207 752.146 506.74 751.955Z" fill="#E2810E"/>
<path fill-rule="evenodd" clip-rule="evenodd" d="M509.473 752.979V737.625C509.473 737.254 509.781 736.952 510.152 736.952H510.224C510.596 736.952 510.903 737.254 510.903 737.625V753.44C510.422 753.292 509.946 753.138 509.473 752.979Z" fill="#E2810E"/>
<path fill-rule="evenodd" clip-rule="evenodd" d="M512.211 753.826V738.032C512.211 737.654 512.513 737.353 512.89 737.353H512.966C513.34 737.353 513.647 737.654 513.647 738.032V754.209C513.166 754.087 512.687 753.959 512.211 753.826Z" fill="#E2810E"/>
<path fill-rule="evenodd" clip-rule="evenodd" d="M514.946 754.516V738.435C514.946 738.06 515.254 737.753 515.631 737.753H515.706C516.083 737.753 516.391 738.06 516.391 738.435V754.827C515.906 754.731 515.425 754.626 514.946 754.516Z" fill="#E2810E"/>
<path fill-rule="evenodd" clip-rule="evenodd" d="M517.685 755.07V738.838C517.685 738.464 517.993 738.156 518.367 738.156H518.451C518.828 738.156 519.138 738.464 519.138 738.838V755.314C518.651 755.239 518.169 755.157 517.688 755.07H517.685Z" fill="#E2810E"/>
<path fill-rule="evenodd" clip-rule="evenodd" d="M520.417 755.497V739.244C520.417 738.867 520.724 738.562 521.102 738.562H521.191C521.566 738.562 521.879 738.87 521.879 739.244V755.677C521.392 755.625 520.904 755.564 520.417 755.497Z" fill="#E2810E"/>
<path fill-rule="evenodd" clip-rule="evenodd" d="M523.15 755.804V739.65C523.15 739.273 523.463 738.966 523.84 738.966H523.93C524.307 738.966 524.621 739.273 524.621 739.65V755.923C524.13 755.891 523.64 755.851 523.15 755.807V755.804Z" fill="#E2810E"/>
<path fill-rule="evenodd" clip-rule="evenodd" d="M525.888 755.996V740.056C525.888 739.673 526.199 739.366 526.579 739.366H526.674C527.051 739.366 527.365 739.673 527.365 740.056V756.051C526.874 756.039 526.381 756.016 525.891 755.993L525.888 755.996Z" fill="#E2810E"/>
<path fill-rule="evenodd" clip-rule="evenodd" d="M528.623 756.074V740.456C528.623 740.079 528.936 739.766 529.316 739.766H529.412C529.795 739.766 530.108 740.076 530.108 740.456V756.068C529.612 756.074 529.116 756.074 528.623 756.071V756.074Z" fill="#E2810E"/>
<path fill-rule="evenodd" clip-rule="evenodd" d="M531.408 756.042V740.041C531.408 739.664 531.718 739.351 532.095 739.351H532.191C532.574 739.351 532.881 739.661 532.881 740.041V755.981C532.391 756.007 531.901 756.027 531.408 756.045V756.042Z" fill="#E2810E"/>
<path fill-rule="evenodd" clip-rule="evenodd" d="M534.189 755.895V739.622C534.189 739.244 534.5 738.931 534.88 738.931H534.97C535.347 738.931 535.66 739.242 535.66 739.622V755.77C535.173 755.816 534.683 755.857 534.189 755.895Z" fill="#E2810E"/>
<path fill-rule="evenodd" clip-rule="evenodd" d="M536.975 755.627V739.203C536.975 738.826 537.285 738.519 537.665 738.519H537.752C538.129 738.519 538.437 738.826 538.437 739.203V755.442C537.952 755.511 537.465 755.572 536.978 755.627H536.975Z" fill="#E2810E"/>
<path fill-rule="evenodd" clip-rule="evenodd" d="M539.759 755.242V738.786C539.759 738.409 540.07 738.102 540.444 738.102H540.528C540.902 738.102 541.213 738.409 541.213 738.786V754.99C540.731 755.079 540.244 755.164 539.759 755.242Z" fill="#E2810E"/>
<path fill-rule="evenodd" clip-rule="evenodd" d="M542.541 754.726V738.368C542.541 737.991 542.848 737.684 543.226 737.684H543.307C543.681 737.684 543.988 737.991 543.988 738.368V754.404C543.51 754.517 543.025 754.621 542.541 754.723V754.726Z" fill="#E2810E"/>
<path fill-rule="evenodd" clip-rule="evenodd" d="M545.332 754.07V737.953C545.332 737.576 545.633 737.272 546.013 737.272H546.083C546.46 737.272 546.764 737.573 546.764 737.953V753.675C546.289 753.812 545.813 753.945 545.334 754.07H545.332Z" fill="#E2810E"/>
<path fill-rule="evenodd" clip-rule="evenodd" d="M548.117 753.26V737.532C548.117 737.155 548.418 736.851 548.79 736.851H548.859C549.231 736.851 549.538 737.152 549.538 737.532V752.776C549.068 752.944 548.595 753.104 548.117 753.26Z" fill="#E2810E"/>
<path fill-rule="evenodd" clip-rule="evenodd" d="M550.898 752.277V737.112C550.898 736.744 551.2 736.439 551.574 736.439H551.641C552.012 736.439 552.314 736.746 552.314 737.112V751.703C551.849 751.9 551.377 752.091 550.898 752.277Z" fill="#E2810E"/>
<path fill-rule="evenodd" clip-rule="evenodd" d="M554.298 735.325V750.798C553.837 751.021 553.37 751.239 552.894 751.447V735.325C552.894 734.951 553.196 734.649 553.57 734.649H553.634C553.996 734.67 554.298 734.957 554.298 735.325Z" fill="#E2810E"/>
<path fill-rule="evenodd" clip-rule="evenodd" d="M556.273 733.532V749.765C555.818 750.02 555.357 750.267 554.887 750.505V733.535C554.887 733.167 555.188 732.871 555.554 732.871H555.621C555.983 732.891 556.273 733.173 556.273 733.535V733.532Z" fill="#E2810E"/>
<path fill-rule="evenodd" clip-rule="evenodd" d="M558.254 731.742V748.578C557.813 748.862 557.358 749.144 556.885 749.416V731.742C556.885 731.374 557.181 731.078 557.55 731.078H557.616C557.967 731.098 558.254 731.386 558.254 731.742Z" fill="#E2810E"/>
<path fill-rule="evenodd" clip-rule="evenodd" d="M560.233 729.954V747.201C559.797 747.529 559.348 747.851 558.878 748.17V729.954C558.878 729.591 559.177 729.295 559.536 729.295H559.6C559.948 729.321 560.23 729.603 560.23 729.954H560.233Z" fill="#E2810E"/>
<path fill-rule="evenodd" clip-rule="evenodd" d="M562.211 728.16V745.553C561.791 745.939 561.344 746.319 560.877 746.696V728.16C560.877 727.804 561.17 727.505 561.533 727.505H561.596C561.939 727.534 562.211 727.812 562.211 728.16Z" fill="#E2810E"/>
<path fill-rule="evenodd" clip-rule="evenodd" d="M564.195 726.371V743.503C563.786 743.984 563.342 744.457 562.869 744.924V726.371C562.869 726.014 563.162 725.715 563.525 725.715L563.586 725.721C563.922 725.744 564.195 726.029 564.195 726.368V726.371Z" fill="#E2810E"/>
<path fill-rule="evenodd" clip-rule="evenodd" d="M566.174 724.581V740.718C565.794 741.376 565.358 742.026 564.871 742.667V724.581C564.871 724.224 565.164 723.934 565.515 723.934H565.582C565.915 723.969 566.174 724.245 566.174 724.581Z" fill="#E2810E"/>
<path fill-rule="evenodd" clip-rule="evenodd" d="M566.861 739.383V722.791C566.861 722.435 567.154 722.147 567.508 722.147C567.801 722.147 568.047 722.342 568.126 722.609C568.137 722.713 568.146 722.818 568.152 722.928V733.362C568.152 733.977 568.146 734.38 568.14 734.441C568.033 736.106 567.606 737.762 566.861 739.383Z" fill="#E2810E"/>
<path fill-rule="evenodd" clip-rule="evenodd" d="M556.763 739.496C541.549 748.28 516.893 748.28 501.679 739.496C486.465 730.719 486.465 716.482 501.679 707.696C516.884 698.915 541.549 698.915 556.763 707.696C571.969 716.479 571.969 730.719 556.763 739.496Z" fill="#E2810E"/>
<path fill-rule="evenodd" clip-rule="evenodd" d="M555.44 738.737C540.963 747.094 517.482 747.094 503.004 738.737C488.527 730.377 488.527 716.825 503.004 708.462C517.482 700.1 540.957 700.105 555.44 708.462C569.918 716.825 569.918 730.377 555.44 738.737Z" fill="#E2810E"/>
<path fill-rule="evenodd" clip-rule="evenodd" d="M550.933 736.132C538.941 743.059 519.501 743.059 507.503 736.132C495.512 729.211 495.512 717.985 507.503 711.058C519.495 704.134 538.941 704.134 550.933 711.058C562.93 717.985 562.93 729.211 550.933 736.132Z" fill="#C06E0C"/>
<path fill-rule="evenodd" clip-rule="evenodd" d="M550.933 712.677C538.941 705.75 519.495 705.75 507.503 712.671C501.864 715.928 498.874 720.137 498.543 724.407C498.874 728.671 501.864 732.877 507.503 736.135C519.501 743.062 538.941 743.062 550.933 736.135C556.578 732.877 559.562 728.668 559.899 724.407C559.562 720.143 556.578 715.934 550.933 712.677Z" fill="#FFB93E"/>
<path fill-rule="evenodd" clip-rule="evenodd" d="M517.238 825.598L515.771 851L565.683 809.247L567.148 783.845L517.238 825.598Z" fill="#92AFF2"/>
<path fill-rule="evenodd" clip-rule="evenodd" d="M412.534 743.201C406.637 740.88 398.704 741.646 394.808 744.906C390.906 748.17 392.519 752.695 398.408 755.018C404.302 757.339 412.235 756.573 416.134 753.313C420.035 750.049 418.426 745.521 412.534 743.201Z" fill="#92AFF2"/>
<path fill-rule="evenodd" clip-rule="evenodd" d="M388.998 713.648L339.091 755.396L391.562 776.072L394.613 773.513L345.896 754.319L389.691 717.686L438.35 736.86L441.408 734.302L388.998 713.648Z" fill="#D0D9EE"/>
<path fill-rule="evenodd" clip-rule="evenodd" d="M389.691 717.686L345.898 754.316L394.616 773.51L400.969 768.187L392.098 764.692C391.367 760.73 387.666 756.915 381.4 754.447L362.491 746.998L384.005 729.005L402.912 736.459C409.018 738.858 416.299 739.491 422.854 738.571L432.009 742.177L438.359 736.857L389.696 717.683L389.691 717.686Z" fill="#92AFF2"/>
<path fill-rule="evenodd" clip-rule="evenodd" d="M398.416 755.021C404.305 757.339 412.235 756.573 416.134 753.313C420.035 750.05 418.425 745.522 412.525 743.198C406.637 740.88 398.703 741.646 394.808 744.907C390.906 748.17 392.519 752.695 398.416 755.019V755.021ZM402.921 736.469C409.012 738.865 416.293 739.497 422.849 738.577L432.003 742.183L400.966 768.194L392.095 764.698C391.364 760.736 387.663 756.921 381.398 754.453L362.488 747.004L384.002 729.011L402.924 736.469H402.921Z" fill="#D0D9EE"/>
<path fill-rule="evenodd" clip-rule="evenodd" d="M441.642 734.104L441.407 734.302L438.35 736.86L432.003 742.18L400.965 768.191L394.613 773.514L391.561 776.072L391.175 776.397L400.64 780.119L451.107 737.829L441.642 734.104Z" fill="#8D9FCA"/>
<path fill-rule="evenodd" clip-rule="evenodd" d="M508.875 781.165C502.981 778.842 495.051 779.605 491.146 782.874C487.245 786.134 488.86 790.657 494.752 792.983C500.649 795.306 508.58 794.538 512.478 791.277C516.38 788.014 514.77 783.486 508.872 781.165H508.875Z" fill="#92AFF2"/>
<path fill-rule="evenodd" clip-rule="evenodd" d="M494.763 792.983C500.651 795.303 508.582 794.535 512.481 791.274C516.382 788.011 514.772 783.483 508.869 781.159C502.981 778.842 495.05 779.602 491.149 782.871C487.247 786.131 488.863 790.654 494.763 792.983ZM480.683 761.362L511.198 773.388C512.315 776.994 515.889 780.399 521.635 782.662L544.452 791.657L522.004 810.436L499.175 801.438C493.257 799.112 486.212 798.451 479.804 799.257L449.61 787.358C459.368 787.251 469.483 784.153 476.05 778.662C482.615 773.162 484.013 766.627 480.683 761.362Z" fill="#D0D9EE"/>
<path fill-rule="evenodd" clip-rule="evenodd" d="M479.085 759.317L445.759 787.245C447.029 787.338 448.32 787.376 449.611 787.358C459.369 787.251 469.484 784.153 476.051 778.662C482.615 773.162 484.013 766.627 480.683 761.362C480.234 760.657 479.703 759.973 479.085 759.314V759.317Z" fill="#92AFF2"/>
<path fill-rule="evenodd" clip-rule="evenodd" d="M478.128 748.46L427.665 790.749L437.13 794.474L487.596 752.184L478.128 748.46Z" fill="#8D9FCA"/>
<path fill-rule="evenodd" clip-rule="evenodd" d="M451.107 737.829L400.64 780.118L391.175 776.397L437.128 794.474L437.488 794.175L440.545 791.611L445.755 787.245L479.084 759.317L484.283 754.957L487.337 752.399L487.595 752.184L437.128 794.474L427.663 790.749L478.127 748.46L451.107 737.829Z" fill="white"/>
<path fill-rule="evenodd" clip-rule="evenodd" d="M516.551 821.56L560.34 784.927L484.286 754.957L479.088 759.314C479.706 759.972 480.236 760.657 480.686 761.362L511.202 773.388C512.318 776.994 515.892 780.399 521.638 782.662L544.455 791.657L522.007 810.436L499.196 801.444C493.261 799.112 486.215 798.45 479.807 799.26L449.614 787.361C448.323 787.375 447.032 787.341 445.761 787.248L440.549 791.616L516.553 821.563L516.551 821.56Z" fill="#92AFF2"/>
<path fill-rule="evenodd" clip-rule="evenodd" d="M517.238 825.598L567.148 783.845L487.338 752.399L484.283 754.957L560.337 784.927L516.551 821.561L440.546 791.611L437.489 794.175L517.238 825.598Z" fill="#D0D9EE"/>
<path fill-rule="evenodd" clip-rule="evenodd" d="M339.091 755.396L337.626 780.803L390.094 801.476L391.562 776.072L339.091 755.396Z" fill="#92AFF2"/>
<path fill-rule="evenodd" clip-rule="evenodd" d="M391.176 776.396L389.708 801.801L435.661 819.878L437.129 794.474L391.176 776.396Z" fill="#D0D9EE"/>
<path fill-rule="evenodd" clip-rule="evenodd" d="M437.489 794.175L436.021 819.577L515.77 851L517.238 825.599L437.489 794.175Z" fill="#92AFF2"/>
<path fill-rule="evenodd" clip-rule="evenodd" d="M437.129 794.474L427.664 790.75L426.808 816.467L435.661 819.878L437.129 794.474Z" fill="#8D9FCA"/>
<path fill-rule="evenodd" clip-rule="evenodd" d="M400.641 780.118L391.176 776.396L389.708 801.801L398.694 805.334L400.641 780.118Z" fill="#8D9FCA"/>
<path fill-rule="evenodd" clip-rule="evenodd" d="M599.755 592.785C598.94 592.506 596.199 591.868 593.002 590.792C589.721 592.129 585.399 591.732 580.036 589.608C577.994 586.371 577.808 583.076 579.479 579.726C583.708 581.742 587.421 582.516 590.618 582.055C586.647 579.438 586.032 577.884 588.773 577.396C589.037 578.011 589.605 578.522 590.478 578.919C593.24 579.366 595.218 581.234 596.405 584.526C597.878 584.924 599.401 585.286 600.181 585.533C599.381 587.433 599.227 589.713 599.755 592.785Z" fill="#FFB27D"/>
<path fill-rule="evenodd" clip-rule="evenodd" d="M674.956 509.876C685.175 508.551 692.891 509.253 696.192 514.158C695.774 517.145 694.875 521.035 693.491 525.824C694.092 526.964 694.971 527.559 696.131 527.605C697.584 524.768 698.802 523.074 699.783 522.523C704.65 524.708 703.734 528.069 697.039 532.621C696.644 534.19 696.267 535.487 695.908 536.513C701.932 535.165 706.974 529.775 707.682 527.446C714.71 513.595 706.872 507.744 702.678 505.609C700.827 491.892 680.908 504.017 670.927 497.403C666.958 502.883 671.864 509.754 674.956 509.876Z" fill="#0F3970"/>
<path fill-rule="evenodd" clip-rule="evenodd" d="M706.504 572.038C700.081 579.745 694.695 585.318 690.341 588.752C694.312 574.657 698.561 559.481 703.095 543.219C704.694 544.565 705.976 545.903 706.942 547.225C707.298 553.819 707.385 558.849 707.203 562.318C704.85 564.177 702.959 565.343 701.526 565.813C703.693 567.777 705.352 569.851 706.504 572.038Z" fill="#0F3970"/>
<path fill-rule="evenodd" clip-rule="evenodd" d="M666.282 568.287C669.403 575.205 672.91 581.485 676.806 587.133C675.657 569.912 675.074 555.399 675.057 543.596C673.311 544.574 672.008 545.511 671.048 546.532C670.862 546.749 670.686 546.964 670.517 547.181C668.672 553.772 667.477 558.929 666.935 562.657C668.658 563.446 670.114 564.127 671.303 564.702C669.688 565.79 668.011 566.985 666.282 568.284V568.287Z" fill="#0F3970"/>
<path fill-rule="evenodd" clip-rule="evenodd" d="M706.939 547.225C716.839 552.966 724.938 558.054 731.23 562.489C735.477 578.669 737.777 596.149 738.131 614.928C737.551 636.509 735.401 652.124 732.854 660.542C729.138 660.707 725.185 660.339 723.72 658.926C722.914 639.944 722.71 624.538 723.108 612.712C720.393 606.475 718.003 601.814 715.946 598.728C715.047 605.153 713.808 610.722 713.512 616.463C714.559 628.219 715.073 642.261 718.217 658.584C714.301 662.34 705.64 664.577 692.238 665.299C689.723 634.389 689.091 608.874 690.338 588.746C694.695 585.312 700.079 579.742 706.501 572.032C705.347 569.845 703.688 567.771 701.524 565.807C702.957 565.337 704.848 564.171 707.2 562.312C707.383 558.843 707.296 553.813 706.939 547.219V547.225Z" fill="#4A7CBB"/>
<path fill-rule="evenodd" clip-rule="evenodd" d="M676.806 587.131C672.966 628.118 671.359 654.767 669.099 664.006C662.674 663.301 657.725 660.287 654.732 657.314C655.535 633.995 658.259 619.103 659.408 605.472C657.334 583.09 653.084 562.51 657.665 552.949C662.584 549.636 666.869 547.716 670.518 547.185C668.673 553.775 667.478 558.933 666.935 562.66C668.658 563.446 670.114 564.131 671.304 564.705C669.688 565.793 668.011 566.988 666.283 568.288C669.404 575.206 672.911 581.486 676.806 587.131Z" fill="#4A7CBB"/>
<path fill-rule="evenodd" clip-rule="evenodd" d="M651.855 559.603C653.691 557.352 655.629 555.133 657.665 552.946C654.492 559.574 655.556 571.493 657.201 585.637C654.001 589.605 647.112 596.694 641.212 601.103C629.107 601.799 616.135 598.992 596.144 592.944C595.334 590.864 595.595 587.412 596.402 584.529C615.874 585.654 627.773 585.463 635.582 587.473C640.643 574.872 647.057 567.4 651.855 559.603Z" fill="#144D94"/>
<path fill-rule="evenodd" clip-rule="evenodd" d="M690.422 553.691C693.949 549.067 696.876 544.85 700.09 542.216C699.745 540.806 699.516 539.753 699.127 538.686C698.945 538.181 697.851 537.589 696.398 537.317C696.528 537.549 696.821 538.529 696.58 538.683C696.52 538.723 696.467 538.773 696.412 538.819C693.001 541.578 689.401 543.956 684.98 546.051C687.092 548.508 688.554 551.089 690.419 553.691H690.422Z" fill="#406FB5"/>
<path fill-rule="evenodd" clip-rule="evenodd" d="M676.58 543.446C676.49 546.454 676.562 548.92 676.797 550.849C677.523 548.635 678.86 546.831 680.809 545.433C681.108 542.898 681.308 540.522 681.412 538.3C679.292 539.098 677.679 540.815 676.58 543.449V543.446Z" fill="#406FB5"/>
<path fill-rule="evenodd" clip-rule="evenodd" d="M672.363 637.452C673.526 624.512 674.887 607.613 676.807 587.131C675.679 570.208 675.099 555.901 675.061 544.212C675.528 544.038 676.033 543.878 676.572 543.736C676.494 546.61 676.572 548.98 676.798 550.846C677.524 548.632 678.861 546.828 680.81 545.43C681.416 546.596 681.602 547.866 682.574 549.291C683.621 548.203 684.61 547.165 685.257 546.37C687.224 548.731 688.639 551.199 690.423 553.688C693.91 549.114 696.816 544.937 699.987 542.297C701.072 542.854 702.043 543.385 702.902 543.895C698.441 559.902 694.255 574.852 690.339 588.749C689.48 602.606 689.512 619.021 690.438 637.989C688.865 638.23 687.258 638.389 685.611 638.462V638.299C685.611 637.925 685.298 637.609 684.912 637.597L678.144 637.406C677.759 637.394 677.445 637.693 677.445 638.07V638.195C675.786 638.021 674.092 637.768 672.366 637.449L672.363 637.452Z" fill="#6998D0"/>
<path fill-rule="evenodd" clip-rule="evenodd" d="M678.402 552.725C679.6 550.793 680.993 549.648 682.574 549.294C683.751 549.81 685.013 551.008 686.365 552.888C685.312 554.706 684.195 555.974 683.014 556.696C685.231 570.663 686.258 590.113 686.092 615.041C684.41 618.754 682.762 621.435 681.149 623.085C679.203 620.21 677.993 617.243 677.523 614.183C679.061 588.018 679.977 568.929 680.27 556.908C679.159 555.449 678.536 554.054 678.402 552.725Z" fill="#0F3D86"/>
<path fill-rule="evenodd" clip-rule="evenodd" d="M686.365 547.782C687.142 548.827 687.85 549.885 688.561 550.959C687.911 551.391 687.079 551.895 686.063 552.473C685.161 551.272 684.297 550.384 683.476 549.81C684.462 549.079 685.428 548.403 686.368 547.785L686.365 547.782ZM679.963 546.103C680.332 547.391 680.836 548.583 681.486 549.679C680.59 550.117 679.763 550.84 679.006 551.846C678.58 551.173 678.223 550.036 677.938 548.429C678.487 547.568 679.163 546.79 679.966 546.1L679.963 546.103Z" fill="#0F3D86"/>
<path fill-rule="evenodd" clip-rule="evenodd" d="M656.736 736.561C656.646 715.586 657.351 690.895 658.857 662.491C661.673 664.174 665.285 665.464 669.917 666.462C671.031 663.524 672.046 656.556 673.54 643.811C674.822 644.156 676.122 644.431 677.444 644.643V645.365C677.444 645.74 677.761 646.056 678.143 646.067L684.911 646.259C685.297 646.27 685.61 645.972 685.61 645.594V645.081C686.837 645.026 688.078 644.919 689.332 644.759C690.036 655.477 690.309 662.651 690.857 667.889C701.979 666.503 708.662 665.296 714.034 663.048C716.781 684.177 718.301 706.965 718.6 731.409C723.151 741.173 724.392 765.017 722.333 802.95C718.458 803.811 714.063 803.811 709.149 802.95C705.274 785.885 701.903 763.433 699.04 735.595C695.008 722.266 690.834 703.531 686.515 679.394C685.645 695.765 683.298 714.286 679.481 734.954C680.766 750.218 678.535 772.634 672.777 802.204C669.755 802.494 664.995 802.065 658.494 800.916C659.155 776.872 658.569 755.421 656.733 736.564L656.736 736.561Z" fill="#233862"/>
<path fill-rule="evenodd" clip-rule="evenodd" d="M690.858 667.887C690.31 662.648 690.034 655.474 689.332 644.756C689.817 644.695 690.301 644.626 690.786 644.55C691.166 651.175 691.65 658.094 692.239 665.305C701.892 664.783 709.083 663.477 713.814 661.386C713.887 661.94 713.962 662.494 714.035 663.048C708.663 665.296 701.977 666.503 690.858 667.889V667.887ZM669.915 666.459C665.285 665.464 661.671 664.174 658.854 662.488C658.886 661.856 658.924 661.221 658.956 660.585C661.691 662.239 665.111 663.564 669.097 664.002C670.048 660.113 670.884 653.136 671.821 643.3C672.389 643.483 672.961 643.651 673.538 643.805C672.044 656.551 671.029 663.518 669.915 666.456V666.459Z" fill="#072E52"/>
<path fill-rule="evenodd" clip-rule="evenodd" d="M722.759 809.299C722.136 809.897 721.933 809.726 721.495 809.433C720.778 805.514 713.384 805.058 711.551 809.058C711.006 808.844 710.62 808.504 710.396 808.04C709.108 810.575 706.187 813.058 706.962 817.479C708.929 820.304 719.038 821.705 723.827 815.924C725.184 813.726 723.511 810.938 722.756 809.302L722.759 809.299ZM671.768 804.992C673.003 808.345 673.279 811.098 671.823 812.177C668.104 812.925 660.487 812.832 648.75 814.375C640.466 813.781 636.875 811.422 638.972 808.797C646.172 809.244 652.675 807.364 658.474 803.167C659.553 807.553 663.985 808.159 671.768 804.992Z" fill="#0F3970"/>
<path fill-rule="evenodd" clip-rule="evenodd" d="M721.999 803.019C722.2 805.363 722.397 807.507 722.588 809.45C722.092 809.862 721.889 809.7 721.492 809.433C720.775 805.514 713.381 805.058 711.548 809.059L711.534 809.053L711.522 809.047L711.51 809.041L711.499 809.035H711.484L711.473 809.027H711.47L711.458 809.021L711.447 809.015H711.444L711.435 809.009L711.423 809.003H711.421L711.415 808.998L711.403 808.992H711.397L711.392 808.986L711.38 808.98H711.374L711.368 808.977L711.357 808.972H711.351L711.345 808.966L711.333 808.96H711.328L711.322 808.954H711.31L711.304 808.948H711.302L711.29 808.94L711.284 808.934H711.281L711.27 808.928H711.264L711.261 808.922L711.249 808.916L711.241 808.911L711.229 808.905L711.22 808.899L711.209 808.893L711.2 808.887L711.188 808.882L711.177 808.876L711.145 808.855L711.133 808.85L711.125 808.844L711.113 808.838L711.104 808.832L711.096 808.826H711.093L711.087 808.821L711.075 808.815H711.072L711.067 808.809L711.058 808.803H711.055L711.049 808.797L711.041 808.792H711.035L711.02 808.777H711.017L711.012 808.771L711 808.766H710.994L710.991 808.76L710.98 808.754H710.974L710.971 808.748L710.962 808.742L710.956 808.737L710.945 808.728L710.939 808.722L710.927 808.713L710.922 808.708L710.91 808.696L710.904 808.69L710.896 808.681L710.887 808.676C711.212 807.101 711.484 805.322 711.711 803.338C715.476 803.782 718.91 803.681 722.017 803.037L721.999 803.019ZM659.82 801.137C659.535 802.172 659.155 803.08 658.683 803.858C658.723 803.971 658.77 804.084 658.816 804.191C659.031 804.678 659.298 805.102 659.625 805.462H659.631C659.738 805.584 659.852 805.697 659.973 805.801L659.979 805.807C660.017 805.842 660.055 805.871 660.092 805.903L660.107 805.914C660.525 806.245 661.009 806.5 661.56 806.68H661.572C661.621 806.7 661.67 806.715 661.723 806.729L661.752 806.735C661.801 806.75 661.853 806.764 661.905 806.779H661.92C661.975 806.796 662.03 806.81 662.085 806.819H662.097C662.152 806.834 662.21 806.845 662.265 806.857L662.294 806.863L662.456 806.892H662.471C663.031 806.982 663.646 807.008 664.316 806.973H664.345L664.545 806.958H664.577L664.777 806.938H664.821L665.021 806.915H665.058L665.276 806.883H665.282L665.508 806.851L665.56 806.845C666.114 806.764 666.697 806.645 667.309 806.491L667.379 806.474L667.62 806.413L667.649 806.402L667.884 806.338L667.956 806.317L668.171 806.256L668.249 806.236L668.464 806.172L668.557 806.143L668.777 806.074L668.841 806.056L669.085 805.975L669.148 805.955L669.392 805.874L669.447 805.856L669.705 805.769L669.769 805.746L670.024 805.656L670.341 805.54C670.541 805.467 670.747 805.389 670.953 805.311L670.999 805.293L671.318 805.169C671.307 804.226 671.356 803.26 671.463 802.271C668.681 802.349 664.8 801.969 659.817 801.134L659.82 801.137Z" fill="#FFB27D"/>
<path fill-rule="evenodd" clip-rule="evenodd" d="M655.663 563.023C655.42 569.285 656.203 577.051 657.201 585.637C654.001 589.605 647.112 596.694 641.212 601.103C629.107 601.8 616.135 598.992 596.144 592.944C610.676 596.23 625.531 598.179 640.713 598.786C643.788 596.572 648.513 591.908 654.886 584.79C654.686 579.351 654.944 572.093 655.663 563.023Z" fill="#072E52"/>
<path fill-rule="evenodd" clip-rule="evenodd" d="M711.943 615.972C712.642 607.247 713.301 599.737 713.919 593.448C714.363 595.238 715.035 596.999 715.946 598.728C715.047 605.153 713.808 610.722 713.513 616.463C714.56 628.219 715.073 642.262 718.218 658.584C717.861 658.926 717.463 659.257 717.025 659.573C714.464 649.513 712.77 634.981 711.94 615.969L711.943 615.972Z" fill="#072E52"/>
<path fill-rule="evenodd" clip-rule="evenodd" d="M690.788 644.55C684.044 645.612 677.723 645.197 671.823 643.303C671.997 641.452 672.177 639.503 672.363 637.452C678.863 638.662 684.888 638.841 690.437 637.991C690.542 640.147 690.658 642.331 690.788 644.55Z" fill="#9D7558"/>
<path fill-rule="evenodd" clip-rule="evenodd" d="M684.91 637.6L678.14 637.409C677.757 637.397 677.444 637.702 677.444 638.087V645.345C677.444 645.731 677.757 646.053 678.14 646.064L684.91 646.256C685.296 646.267 685.609 645.96 685.609 645.577V638.319C685.609 637.934 685.296 637.612 684.91 637.6Z" fill="white"/>
<path fill-rule="evenodd" clip-rule="evenodd" d="M684.268 638.897V644.924L678.791 644.771V638.743L684.268 638.897Z" fill="#9D7558"/>
<path fill-rule="evenodd" clip-rule="evenodd" d="M704.476 543.678C704.221 543.695 703.942 543.704 703.652 543.704L703.896 543.924L704.473 543.681L704.476 543.678ZM702.962 543.684C702.802 543.675 702.643 543.663 702.483 543.652C702.625 543.733 702.765 543.814 702.901 543.895L702.962 543.681V543.684ZM696.751 538.544C693.448 541.247 689.987 543.591 685.787 545.662C685.523 545.793 685.256 545.923 684.983 546.051C685.076 546.158 685.166 546.265 685.256 546.376C684.687 547.069 683.864 547.954 682.964 548.89C682.671 548.806 682.399 548.708 682.146 548.592C681.528 547.449 681.314 546.405 680.812 545.436C680.879 544.87 680.94 544.313 680.995 543.765C681.059 543.104 681.27 540.737 681.372 540.09C681.032 540.067 680.708 540.04 680.391 540.006C680.003 539.956 679.544 539.881 679.022 539.785L679.002 539.805C674.88 539.028 673.174 536.913 673.882 533.47C672.217 526.358 671.982 520.188 673.792 518.523C674.094 515.48 674.483 512.603 674.958 509.879C685.178 508.556 692.893 509.255 696.195 514.16C695.777 517.148 694.878 521.038 693.494 525.827C694.094 526.967 694.973 527.562 696.134 527.608C697.59 524.771 698.805 523.077 699.786 522.526C704.653 524.707 703.736 528.072 697.042 532.62C696.647 534.19 696.27 535.486 695.91 536.513C696.084 537.085 696.371 537.778 696.754 538.547L696.751 538.544Z" fill="#FFB27D"/>
<path fill-rule="evenodd" clip-rule="evenodd" d="M681.372 540.084C683.19 540.24 685.238 540.18 687.521 539.895C685.363 541.328 683.213 542.355 681.073 542.97C681.113 542.549 681.151 542.132 681.186 541.717C681.256 541.029 681.325 540.377 681.372 540.081V540.084Z" fill="#CA534B"/>
<path fill-rule="evenodd" clip-rule="evenodd" d="M695.983 677.395L698.756 741.785L769 734.391L760.68 677.395H695.983Z" fill="#E3BB9B"/>
<path fill-rule="evenodd" clip-rule="evenodd" d="M687.049 733.852C692.705 735.932 695.98 738.777 698.759 741.785L695.986 677.395L692.83 677.314L687.052 733.849L687.049 733.852Z" fill="#CA534B"/>
<path fill-rule="evenodd" clip-rule="evenodd" d="M695.983 677.395L704.151 703.223C705.326 706.089 706.53 708.592 711.29 708.201L756.37 705.341C760.39 705.085 760.486 703.055 760.518 700.302V677.395H695.98H695.983Z" fill="#CA534B"/>
<path fill-rule="evenodd" clip-rule="evenodd" d="M728.527 703.612L739.994 702.872C740.623 702.831 741.255 703.272 741.351 703.902L742.912 714.086C743.007 714.713 742.61 715.293 741.992 715.354L730.064 716.56C729.441 716.624 728.771 716.166 728.707 715.531L727.61 704.882C727.547 704.244 727.9 703.655 728.53 703.612H728.527Z" fill="white"/>
<path fill-rule="evenodd" clip-rule="evenodd" d="M730.644 706.356L731.384 713.541L739.79 712.691L738.737 705.833L730.644 706.356Z" fill="#9D7558"/>
<path fill-rule="evenodd" clip-rule="evenodd" d="M709.458 677.395C710.159 674.897 711.804 672.815 714.026 671.187C714.98 670.483 716.048 669.871 717.191 669.345C717.87 667.588 721.942 666.105 726.92 665.917C732.19 665.714 736.562 667.034 736.991 668.899C737.325 669.044 737.65 669.198 737.969 669.36C741.275 671.057 743.75 673.708 744.55 677.398H742.125C741.348 674.692 739.425 672.722 736.907 671.431C736.568 671.257 736.217 671.098 735.857 670.947C734.206 672.127 730.961 673.009 727.198 673.154C723.259 673.305 719.822 672.606 718.154 671.463C717.156 671.921 716.228 672.458 715.398 673.067C713.811 674.23 712.593 675.681 711.946 677.401H709.458V677.395Z" fill="#9D7558"/>
<path fill-rule="evenodd" clip-rule="evenodd" d="M720.97 668.806C720.932 670.352 720.375 672.69 721.361 673.807C723.952 676.728 730.287 676.931 733.011 675.054C734.183 674.248 734.319 671.611 734.351 669.923C732.95 666.343 732.19 663.034 732.077 659.991C729.304 658.149 725.115 657.972 723.72 658.929L720.97 668.806Z" fill="#FFB27D"/>
<path fill-rule="evenodd" clip-rule="evenodd" d="M241.586 598.415L411.269 531.652C416.891 529.442 423.304 532.232 425.518 537.86L463.871 635.338C466.084 640.96 463.291 647.373 457.669 649.586L287.986 716.349C282.364 718.563 275.945 715.772 273.735 710.151L235.381 612.672C233.168 607.045 235.964 600.628 241.586 598.418V598.415Z" fill="url(#paint1_linear_1910_29)"/>
<path fill-rule="evenodd" clip-rule="evenodd" d="M277.024 669.14L301.993 659.316C303.397 658.765 305.004 659.458 305.558 660.868L308.163 667.487C308.714 668.891 308.015 670.501 306.611 671.052L281.642 680.877C280.232 681.431 278.628 680.729 278.077 679.325L275.472 672.705C274.918 671.296 275.614 669.694 277.024 669.14ZM408.554 617.392L433.523 607.567C434.933 607.013 436.534 607.709 437.088 609.119L439.693 615.738C440.244 617.142 439.551 618.749 438.141 619.303L413.172 629.128C411.762 629.682 410.158 628.98 409.607 627.576L407.002 620.957C406.448 619.547 407.144 617.946 408.554 617.392ZM364.706 634.642L389.682 624.815C391.086 624.263 392.687 624.96 393.241 626.369L395.846 632.989C396.397 634.393 395.704 636 394.3 636.554L369.324 646.381C367.92 646.933 366.316 646.231 365.765 644.827L363.16 638.207C362.606 636.797 363.303 635.196 364.706 634.645V634.642ZM320.865 651.893L345.834 642.068C347.244 641.514 348.845 642.21 349.399 643.62L352.004 650.239C352.555 651.643 351.862 653.25 350.452 653.804L325.483 663.629C324.079 664.18 322.472 663.481 321.918 662.077L319.313 655.458C318.759 654.048 319.461 652.444 320.865 651.893Z" fill="white"/>
<path fill-rule="evenodd" clip-rule="evenodd" d="M285.852 694.345L369.996 661.239C370.886 660.888 371.899 661.329 372.247 662.22L374.17 667.11C374.521 668.001 374.08 669.013 373.189 669.361L289.045 702.467C288.155 702.818 287.145 702.377 286.794 701.487L284.871 696.596C284.52 695.708 284.961 694.696 285.852 694.345Z" fill="white"/>
<path fill-rule="evenodd" clip-rule="evenodd" d="M387.652 654.292L422.315 640.653C423.203 640.302 424.215 640.743 424.566 641.633L426.49 646.524C426.841 647.414 426.4 648.424 425.509 648.775L390.846 662.414C389.955 662.765 388.946 662.324 388.595 661.434L386.671 656.543C386.32 655.655 386.761 654.643 387.652 654.292Z" fill="white"/>
<path fill-rule="evenodd" clip-rule="evenodd" d="M355.332 569.733L410.08 548.192C411.484 547.641 412.919 547.914 413.268 548.805L415.191 553.695C415.542 554.586 414.677 555.763 413.273 556.314L358.525 577.855C357.121 578.406 355.685 578.134 355.337 577.243L353.414 572.353C353.063 571.465 353.928 570.284 355.332 569.733Z" fill="white"/>
<path fill-rule="evenodd" clip-rule="evenodd" d="M258.216 622.673L287.406 611.189C288.56 610.734 289.88 611.305 290.336 612.466L299.687 636.231C300.143 637.392 299.569 638.714 298.414 639.167L269.224 650.651C268.07 651.106 266.747 650.529 266.292 649.369L256.94 625.603C256.484 624.443 257.061 623.126 258.216 622.673Z" fill="white"/>
<path d="M533.66 732.367C530.837 732.338 528.644 731.711 527.078 730.487C525.511 729.26 524.737 727.578 524.76 725.434L524.801 721.411L522.083 721.385L522.036 726.078C522.036 726.356 521.851 726.496 521.488 726.493L519.237 726.469C518.848 726.467 518.657 726.324 518.66 726.046L518.706 721.353L516.029 721.327C515.64 721.324 515.449 721.19 515.452 720.929L515.475 718.527C515.475 718.249 515.672 718.11 516.061 718.113L518.738 718.139L518.756 716.491C518.756 716.213 518.953 716.073 519.342 716.076L521.592 716.099C521.955 716.102 522.135 716.244 522.132 716.523L522.115 718.171L542.652 718.374C543.04 718.376 543.232 718.519 543.229 718.797L543.162 725.614C543.142 727.755 542.289 729.422 540.61 730.618C538.927 731.813 536.612 732.396 533.662 732.367H533.66ZM530.034 728.097C530.869 728.747 532.166 729.083 533.926 729.1C535.687 729.118 536.984 728.81 537.819 728.175C538.655 727.54 539.078 726.542 539.09 725.184L539.124 721.553L528.836 721.451L528.801 725.083C528.786 726.443 529.198 727.447 530.034 728.1V728.097Z" fill="#E2810E"/>
<defs>
<filter id="filter0_f_1910_29" x="0" y="208.936" width="619.05" height="620.089" filterUnits="userSpaceOnUse" color-interpolation-filters="sRGB">
<feFlood flood-opacity="0" result="BackgroundImageFix"/>
<feBlend mode="normal" in="SourceGraphic" in2="BackgroundImageFix" result="shape"/>
<feGaussianBlur stdDeviation="81.5" result="effect1_foregroundBlur_1910_29"/>
</filter>
<filter id="filter1_f_1910_29" x="228.228" y="-18" width="760.127" height="760.127" filterUnits="userSpaceOnUse" color-interpolation-filters="sRGB">
<feFlood flood-opacity="0" result="BackgroundImageFix"/>
<feBlend mode="normal" in="SourceGraphic" in2="BackgroundImageFix" result="shape"/>
<feGaussianBlur stdDeviation="103" result="effect1_foregroundBlur_1910_29"/>
</filter>
<filter id="filter2_f_1910_29" x="348.734" y="276.05" width="779.95" height="779.95" filterUnits="userSpaceOnUse" color-interpolation-filters="sRGB">
<feFlood flood-opacity="0" result="BackgroundImageFix"/>
<feBlend mode="normal" in="SourceGraphic" in2="BackgroundImageFix" result="shape"/>
<feGaussianBlur stdDeviation="102.5" result="effect1_foregroundBlur_1910_29"/>
</filter>
<linearGradient id="paint0_linear_1910_29" x1="345.497" y1="444.634" x2="442.824" y2="444.634" gradientUnits="userSpaceOnUse">
<stop stop-color="#BA514A"/>
<stop offset="1" stop-color="#D87872"/>
</linearGradient>
<linearGradient id="paint1_linear_1910_29" x1="349.626" y1="530.894" x2="349.626" y2="717.109" gradientUnits="userSpaceOnUse">
<stop stop-color="#4A7CBB"/>
<stop offset="1" stop-color="#2AB392"/>
</linearGradient>
</defs>
</svg>
