<svg width="744" height="1056" viewBox="0 0 744 1056" fill="none" xmlns="http://www.w3.org/2000/svg">
<g filter="url(#filter0_f_1910_28)">
<ellipse cx="146.525" cy="147.045" rx="146.525" ry="147.045" transform="matrix(-1 0 0 1 580.684 371.936)" fill="#27AE60" fill-opacity="0.3"/>
</g>
<g filter="url(#filter1_f_1910_28)">
<circle cx="174.063" cy="174.063" r="174.063" transform="matrix(-1 0 0 1 309.456 188)" fill="#278EAE" fill-opacity="0.3"/>
</g>
<g filter="url(#filter2_f_1910_28)">
<circle cx="184.975" cy="184.975" r="184.975" transform="matrix(-1 0 0 1 189.95 481.05)" fill="#4227AE" fill-opacity="0.3"/>
</g>
<path d="M417.197 660.992L388.461 569.799L510.037 531.49H510.04L561.264 515.346L590 606.537L494.353 636.678L417.197 660.992Z" fill="#E9EFF8"/>
<path d="M423.863 647.681L401.555 576.883L556.874 527.939L579.182 598.737L423.863 647.681ZM406.449 584.89L423.274 638.282C424.416 641.906 428.281 643.92 431.904 642.775L569.666 599.365C573.354 598.201 575.404 594.269 574.24 590.581L557.482 537.402C556.33 533.745 552.428 531.711 548.771 532.864L410.92 576.303C407.313 577.438 405.311 581.284 406.449 584.89Z" fill="#92AFF2"/>
<path d="M484.366 568.764C494.886 565.448 506.102 571.291 509.417 581.808C512.732 592.328 506.89 603.544 496.373 606.859C485.852 610.174 474.637 604.332 471.321 593.815C468.006 583.294 473.846 572.079 484.366 568.764Z" fill="#92AFF2"/>
<path d="M431.423 615.972L361.178 551.106L447.656 457.459L484.094 418L554.337 482.863L486.304 556.541L431.423 615.972Z" fill="#E9EFF8"/>
<path d="M430.596 601.11L376.062 550.753L486.54 431.112L541.073 481.47L430.596 601.11ZM384.285 555.268L425.413 593.246C428.203 595.824 432.556 595.65 435.136 592.859L533.128 486.742C535.753 483.901 535.576 479.47 532.732 476.845L491.77 439.019C488.952 436.416 484.557 436.593 481.954 439.408L383.901 545.592C381.335 548.369 381.509 552.702 384.285 555.266V555.268Z" fill="#92AFF2"/>
<path d="M443.895 502.561C451.378 494.458 464.013 493.953 472.115 501.436C480.218 508.919 480.723 521.554 473.24 529.656C465.757 537.759 453.122 538.264 445.02 530.781C436.917 523.298 436.412 510.663 443.895 502.561Z" fill="#92AFF2"/>
<path d="M480.389 718.476L163.189 821.187C155.695 823.613 147.651 819.505 145.223 812.011L90.3104 642.43C87.8844 634.936 91.9932 626.893 99.4872 624.464L416.687 521.749C424.181 519.323 432.225 523.432 434.654 530.926L489.566 700.506C491.992 708 487.883 716.044 480.389 718.473V718.476Z" fill="url(#paint0_linear_1910_28)"/>
<path d="M238.489 730L152.762 757.755L154.628 763.519L240.355 735.764L238.489 730Z" fill="#E7D4F4"/>
<path d="M210.887 751.673L156.497 769.283L158.363 775.046L212.753 757.437L210.887 751.673Z" fill="#E7D4F4"/>
<path d="M153.202 705.488C154.952 710.895 153.934 714.951 149.918 716.249C146.081 717.492 142.889 714.656 141.212 709.568C139.521 704.343 140.609 700.15 144.521 698.883C148.563 697.573 151.609 700.568 153.202 705.488ZM144.395 708.508C145.722 712.603 147.511 714.353 149.236 713.795C151.115 713.186 151.334 710.612 150.035 706.596C148.776 702.708 147.133 700.709 145.228 701.326C143.554 701.867 143.046 704.335 144.395 708.506V708.508Z" fill="#E7D4F4"/>
<path d="M168.93 700.394C170.68 705.802 169.662 709.857 165.646 711.156C161.809 712.398 158.618 709.563 156.94 704.475C155.249 699.25 156.337 695.057 160.25 693.789C164.291 692.479 167.337 695.475 168.93 700.394ZM160.124 703.418C161.45 707.51 163.24 709.263 164.965 708.704C166.844 708.096 167.062 705.521 165.764 701.505C164.505 697.618 162.861 695.618 160.957 696.235C159.282 696.776 158.775 699.244 160.124 703.415V703.418Z" fill="#E7D4F4"/>
<path d="M184.658 695.301C186.408 700.709 185.39 704.764 181.374 706.063C177.537 707.305 174.346 704.47 172.668 699.382C170.977 694.157 172.065 689.964 175.978 688.696C180.019 687.387 183.065 690.382 184.658 695.301ZM175.852 698.325C177.178 702.417 178.968 704.17 180.693 703.612C182.572 703.003 182.79 700.428 181.492 696.415C180.233 692.528 178.589 690.528 176.685 691.145C175.01 691.686 174.503 694.154 175.852 698.325Z" fill="#E7D4F4"/>
<path d="M200.387 690.208C202.137 695.615 201.119 699.671 197.103 700.972C193.266 702.214 190.075 699.379 188.397 694.291C186.706 689.066 187.794 684.873 191.707 683.606C195.748 682.296 198.794 685.291 200.387 690.211V690.208ZM191.581 693.231C192.907 697.323 194.697 699.076 196.422 698.518C198.301 697.909 198.519 695.335 197.221 691.321C195.962 687.434 194.318 685.434 192.414 686.051C190.739 686.593 190.232 689.061 191.581 693.231Z" fill="#E7D4F4"/>
<path d="M230.632 680.414C232.383 685.822 231.364 689.877 227.348 691.176C223.511 692.418 220.32 689.583 218.643 684.495C216.951 679.27 218.04 675.077 221.952 673.809C225.994 672.5 229.039 675.495 230.632 680.414ZM221.826 683.438C223.152 687.53 224.942 689.283 226.667 688.724C228.546 688.116 228.765 685.541 227.466 681.525C226.207 677.638 224.563 675.638 222.659 676.255C220.984 676.796 220.477 679.264 221.826 683.435V683.438Z" fill="#E7D4F4"/>
<path d="M246.36 675.321C248.111 680.728 247.092 684.784 243.076 686.082C239.239 687.325 236.048 684.489 234.371 679.402C232.679 674.177 233.768 669.984 237.68 668.716C241.722 667.406 244.767 670.402 246.36 675.321ZM237.554 678.344C238.88 682.436 240.67 684.189 242.395 683.631C244.274 683.023 244.493 680.448 243.194 676.432C241.935 672.544 240.291 670.545 238.387 671.162C236.712 671.703 236.205 674.171 237.554 678.342V678.344Z" fill="#E7D4F4"/>
<path d="M262.09 670.228C263.84 675.635 262.822 679.69 258.806 680.992C254.969 682.234 251.777 679.399 250.1 674.311C248.409 669.086 249.497 664.893 253.41 663.625C257.451 662.316 260.497 665.311 262.09 670.23V670.228ZM253.283 673.251C254.61 677.343 256.399 679.096 258.124 678.538C260.003 677.929 260.222 675.354 258.924 671.338C257.664 667.451 256.021 665.451 254.116 666.068C252.442 666.61 251.934 669.078 253.283 673.248V673.251Z" fill="#E7D4F4"/>
<path d="M277.818 665.134C279.568 670.542 278.55 674.597 274.534 675.896C270.697 677.138 267.505 674.303 265.828 669.215C264.137 663.99 265.225 659.797 269.138 658.529C273.179 657.22 276.225 660.215 277.818 665.134ZM269.011 668.155C270.338 672.247 272.127 674 273.852 673.442C275.731 672.833 275.95 670.259 274.652 666.242C273.392 662.355 271.749 660.355 269.844 660.972C268.17 661.514 267.662 663.982 269.011 668.152V668.155Z" fill="#E7D4F4"/>
<path d="M308.064 655.34C309.814 660.748 308.796 664.803 304.779 666.102C300.943 667.344 297.751 664.509 296.074 659.421C294.383 654.196 295.471 650.003 299.383 648.736C303.425 647.426 306.471 650.421 308.064 655.34ZM299.257 658.364C300.584 662.456 302.373 664.209 304.098 663.651C305.977 663.042 306.196 660.467 304.894 656.454C303.635 652.567 301.992 650.567 300.087 651.184C298.413 651.725 297.905 654.193 299.254 658.364H299.257Z" fill="#E7D4F4"/>
<path d="M323.792 650.247C325.542 655.655 324.524 659.71 320.507 661.009C316.671 662.251 313.479 659.416 311.802 654.328C310.111 649.103 311.199 644.91 315.111 643.642C319.153 642.333 322.199 645.328 323.792 650.247ZM314.985 653.271C316.312 657.363 318.101 659.116 319.826 658.557C321.705 657.949 321.924 655.374 320.625 651.358C319.366 647.471 317.722 645.471 315.818 646.088C314.144 646.629 313.636 649.097 314.988 653.268L314.985 653.271Z" fill="#E7D4F4"/>
<path d="M339.52 645.157C341.27 650.564 340.252 654.62 336.236 655.918C332.399 657.161 329.207 654.325 327.53 649.237C325.839 644.012 326.927 639.819 330.84 638.552C334.881 637.242 337.927 640.237 339.52 645.157ZM330.714 648.177C332.04 652.269 333.83 654.022 335.554 653.464C337.434 652.855 337.652 650.281 336.354 646.264C335.094 642.377 333.451 640.378 331.547 640.995C329.872 641.536 329.365 644.004 330.716 648.174L330.714 648.177Z" fill="#E7D4F4"/>
<path d="M355.246 640.063C356.996 645.471 355.978 649.526 351.962 650.825C348.125 652.067 344.934 649.232 343.256 644.144C341.565 638.919 342.653 634.726 346.566 633.458C350.607 632.149 353.653 635.144 355.246 640.063ZM346.44 643.084C347.766 647.179 349.556 648.929 351.28 648.371C353.16 647.762 353.378 645.187 352.077 641.171C350.818 637.284 349.174 635.284 347.27 635.901C345.595 636.443 345.088 638.911 346.437 643.081L346.44 643.084Z" fill="#E7D4F4"/>
<path d="M385.494 630.27C387.244 635.677 386.226 639.733 382.21 641.034C378.373 642.277 375.181 639.441 373.504 634.354C371.813 629.129 372.901 624.936 376.813 623.668C380.855 622.358 383.901 625.354 385.494 630.273V630.27ZM376.687 633.293C378.014 637.385 379.803 639.138 381.528 638.58C383.407 637.972 383.626 635.397 382.325 631.381C381.065 627.493 379.422 625.494 377.517 626.111C375.843 626.652 375.335 629.12 376.684 633.291L376.687 633.293Z" fill="#E7D4F4"/>
<path d="M401.22 625.176C402.97 630.584 401.952 634.639 397.936 635.938C394.102 637.18 390.907 634.345 389.23 629.257C387.539 624.032 388.627 619.839 392.539 618.571C396.581 617.262 399.627 620.257 401.22 625.176ZM392.413 628.197C393.74 632.289 395.529 634.042 397.254 633.484C399.133 632.875 399.352 630.301 398.051 626.287C396.791 622.4 395.148 620.4 393.243 621.017C391.569 621.558 391.061 624.027 392.41 628.197H392.413Z" fill="#E7D4F4"/>
<path d="M416.948 620.083C418.698 625.491 417.68 629.546 413.664 630.845C409.827 632.087 406.635 629.252 404.958 624.164C403.267 618.939 404.355 614.746 408.268 613.478C412.309 612.169 415.355 615.164 416.948 620.083ZM408.141 623.104C409.468 627.196 411.257 628.949 412.982 628.391C414.861 627.782 415.08 625.207 413.781 621.191C412.522 617.304 410.879 615.304 408.974 615.921C407.3 616.463 406.792 618.931 408.144 623.101L408.141 623.104Z" fill="#E7D4F4"/>
<path d="M432.677 614.99C434.427 620.398 433.409 624.453 429.393 625.754C425.556 626.997 422.364 624.161 420.687 619.074C418.996 613.849 420.084 609.656 423.997 608.388C428.038 607.078 431.084 610.074 432.677 614.993V614.99ZM423.87 618.014C425.197 622.106 426.986 623.859 428.711 623.3C430.59 622.692 430.809 620.117 429.508 616.104C428.248 612.216 426.605 610.217 424.7 610.834C423.026 611.375 422.518 613.843 423.868 618.014H423.87Z" fill="#E7D4F4"/>
<path d="M303.231 743.953V758.972C303.231 761.847 300.734 764.2 297.689 764.2H286.279C283.233 764.2 280.737 761.847 280.737 758.972V743.953C280.737 741.078 283.233 738.725 286.279 738.725H297.689C300.734 738.725 303.231 741.078 303.231 743.953Z" fill="#92AFF2"/>
<path d="M303.231 743.953V752.319C303.231 755.194 300.734 757.547 297.689 757.547H286.279C283.233 757.547 280.737 755.194 280.737 752.319V743.953C280.737 741.078 283.233 738.725 286.279 738.725H297.689C300.734 738.725 303.231 741.078 303.231 743.953Z" fill="#AEC3FF"/>
<path d="M429.639 751.461C429.639 759.146 427.974 766.48 424.964 773.16C415.939 793.202 394.831 807.349 370.391 807.349H353.451C331.827 807.349 312.812 796.273 302.466 779.841C297.221 771.511 294.203 761.802 294.203 751.461C294.203 743.776 295.869 736.442 298.878 729.761C307.904 709.719 329.012 695.575 353.451 695.575H370.391C392.615 695.575 412.085 707.274 422.218 724.466C426.944 732.482 429.639 741.689 429.639 751.464V751.461Z" fill="#92AFF2"/>
<path d="M380.417 783.621L374.889 817.471C374.154 820.093 376.252 822.659 379.127 822.659H393.652C396.765 822.659 399.618 821.018 401.045 818.407L423.62 775.937L380.42 783.618L380.417 783.621Z" fill="#92AFF2"/>
<path d="M347.344 784.202L351.778 817.471C352.513 820.093 350.415 822.659 347.54 822.659H333.015C329.902 822.659 327.05 821.019 325.622 818.408L302.461 779.838L347.344 784.199V784.202Z" fill="#92AFF2"/>
<path d="M443.754 766.653C443.42 766.653 443.086 766.614 442.755 766.53C440.181 765.89 438.705 762.99 438.91 758.96C439.109 755.011 440.862 750.838 443.72 747.517C444.985 746.048 446.443 744.76 448.076 743.672C447.307 742.477 446.27 741.33 444.873 740.34C442.5 738.66 440.046 738.178 437.376 738.862C430.196 740.702 424.11 750.381 423.616 751.469C423.392 752.049 422.716 752.361 422.091 752.164C421.454 751.965 421.112 751.315 421.322 750.714C421.535 750.111 423.314 747.22 425.796 744.359C430.12 739.37 433.887 737.482 436.285 736.775C439.844 735.726 443.224 736.31 446.328 738.509C447.871 739.6 449.144 740.923 450.134 742.449C452.597 741.153 455.373 740.256 458.394 739.788C459.056 739.684 459.681 740.107 459.788 740.733C459.895 741.358 459.449 741.947 458.787 742.048C456.016 742.477 453.477 743.302 451.237 744.494C451.927 746.059 452.361 747.786 452.532 749.652C452.886 753.488 452.07 757.673 450.291 761.139C448.482 764.668 446.098 766.653 443.757 766.653H443.754ZM449.147 745.767C447.826 746.687 446.64 747.756 445.602 748.962C443.064 751.912 441.507 755.597 441.333 759.07C441.196 761.826 442.035 763.983 443.372 764.314C444.727 764.651 446.671 762.934 448.104 760.141C449.672 757.084 450.423 753.236 450.112 749.848C450 748.631 449.728 747.209 449.15 745.764L449.147 745.767ZM423.622 751.441C423.622 751.441 423.616 751.455 423.614 751.461C423.616 751.452 423.619 751.446 423.622 751.441Z" fill="#92AFF2"/>
<path d="M422.218 724.463C423.624 730.908 422.518 740.122 420.721 745.002C408.764 777.44 380.659 783.296 351.928 785.764C331.499 787.517 302.466 779.841 302.466 779.841C297.221 771.511 294.203 761.802 294.203 751.461C294.203 743.776 295.869 736.442 298.878 729.761C307.904 709.719 329.012 695.575 353.451 695.575H370.391C392.615 695.575 412.085 707.274 422.218 724.466V724.463Z" fill="#AEC3FF"/>
<path d="M346.464 709.576H323.16C320.81 709.576 318.905 708.23 318.905 706.57V676.557C318.905 676.044 319.076 675.578 319.371 675.175C320.51 673.615 323.505 672.97 325.735 674.162C334.583 678.894 349.078 689.175 350.71 706.365C350.875 708.101 348.926 709.576 346.464 709.576Z" fill="#AEC3FF"/>
<path d="M324.108 709.576H323.16C320.81 709.576 318.905 708.23 318.905 706.57V676.557C318.905 676.044 319.076 675.578 319.371 675.174C319.472 675.256 319.567 675.343 319.66 675.441C324.722 680.756 332.017 691.2 329.964 705.829C329.664 707.955 327.137 709.579 324.111 709.579L324.108 709.576Z" fill="#92AFF2"/>
<path d="M311.826 729.638C311.826 727.829 313.38 726.363 315.298 726.363C317.217 726.363 318.77 727.829 318.77 729.638C318.77 731.447 317.217 732.914 315.298 732.914C313.38 732.914 311.826 731.447 311.826 729.638Z" fill="#2B478B"/>
<path d="M393.232 816.765V821.014C393.232 821.35 393.356 821.664 393.566 821.928C393.788 822.203 394.107 822.419 394.481 822.539C394.596 822.579 394.713 822.607 394.837 822.623C394.949 822.64 395.064 822.649 395.182 822.649H475.737C476.71 822.649 477.523 822.043 477.666 821.258C477.675 821.204 477.68 821.151 477.683 821.098C477.683 821.07 477.683 821.042 477.683 821.014V816.765C477.683 816.736 477.683 816.708 477.683 816.68C477.683 816.624 477.672 816.571 477.666 816.521C477.523 815.735 476.71 815.129 475.737 815.129H395.182C395.064 815.129 394.949 815.138 394.837 815.155C394.713 815.171 394.596 815.202 394.481 815.239C394.107 815.359 393.788 815.575 393.566 815.85C393.356 816.111 393.232 816.425 393.232 816.765Z" fill="#FFB93E"/>
<path d="M432.787 822.649H475.945C476.744 822.649 477.417 822.133 477.619 821.437C477.639 821.378 477.655 821.319 477.667 821.258C477.675 821.204 477.681 821.151 477.683 821.098C477.683 821.07 477.683 821.042 477.683 821.014V816.765C477.683 816.736 477.683 816.708 477.683 816.68C477.683 816.624 477.672 816.571 477.667 816.521C477.655 816.459 477.639 816.4 477.619 816.341C477.417 815.645 476.744 815.129 475.945 815.129H438.087C437.484 817.345 436.074 820.405 432.787 822.649Z" fill="#FFA412"/>
<path d="M403.034 822.649H403.948V815.129H403.034V822.649Z" fill="#FFA412"/>
<path d="M406.134 822.649H407.048V815.129H406.134V822.649Z" fill="#FFA412"/>
<path d="M409.849 822.649H410.764V815.129H409.849V822.649Z" fill="#FFA412"/>
<path d="M415.546 822.649H416.46V815.129H415.546V822.649Z" fill="#FFA412"/>
<path d="M421.57 822.649H422.484V815.129H421.57V822.649Z" fill="#FFA412"/>
<path d="M430.806 822.649H431.72V815.129H430.806V822.649Z" fill="#FFA412"/>
<path d="M439.452 822.649H440.366V815.129H439.452V822.649Z" fill="#FFA412"/>
<path d="M447.173 822.649H448.087V815.129H447.173V822.649Z" fill="#FFA412"/>
<path d="M400.084 822.649H400.998V815.129H400.084V822.649Z" fill="#FFA412"/>
<path d="M398.138 822.649H399.052V815.129H398.138V822.649Z" fill="#FFA412"/>
<path d="M396.255 822.649H397.169V815.129H396.255V822.649Z" fill="#FFA412"/>
<path d="M394.836 815.155V822.623C394.949 822.64 395.064 822.649 395.179 822.649H395.751V815.129H395.179C395.061 815.129 394.946 815.138 394.836 815.155Z" fill="#FFA412"/>
<path d="M393.565 815.85V821.925C393.787 822.2 394.107 822.416 394.48 822.536V815.236C394.107 815.356 393.787 815.572 393.565 815.847V815.85Z" fill="#FFA412"/>
<path d="M401.846 809.245V813.491C401.846 813.831 401.969 814.145 402.177 814.409C402.233 814.476 402.294 814.543 402.362 814.602C402.564 814.784 402.813 814.93 403.094 815.02C403.206 815.056 403.327 815.084 403.45 815.104C403.562 815.121 403.677 815.132 403.792 815.132H484.35C485.32 815.132 486.134 814.524 486.277 813.738C486.285 813.685 486.291 813.632 486.294 813.578C486.294 813.55 486.294 813.522 486.294 813.494V809.248C486.294 809.22 486.294 809.189 486.294 809.164C486.294 809.111 486.282 809.057 486.277 809.004C486.134 808.219 485.32 807.61 484.35 807.61H403.792C403.742 807.61 403.688 807.61 403.638 807.618C403.618 807.618 403.601 807.619 403.582 807.624C403.582 807.624 403.573 807.624 403.571 807.624C403.548 807.624 403.523 807.624 403.498 807.633C403.481 807.633 403.464 807.638 403.447 807.641C403.324 807.658 403.203 807.686 403.091 807.725C403.024 807.748 402.956 807.773 402.895 807.801C402.853 807.82 402.81 807.84 402.768 807.86C402.746 807.871 402.721 807.888 402.698 807.899C402.676 807.91 402.653 807.924 402.634 807.938C402.55 807.989 402.471 808.048 402.398 808.112C402.373 808.132 402.353 808.154 402.331 808.174C402.317 808.185 402.303 808.199 402.292 808.21C402.283 808.219 402.278 808.224 402.272 808.233L402.255 808.25C402.23 808.275 402.205 808.303 402.182 808.334C401.975 808.595 401.851 808.909 401.851 809.248L401.846 809.245Z" fill="#FFB93E"/>
<path d="M441.402 815.129H484.56C485.36 815.129 486.033 814.611 486.232 813.915C486.251 813.856 486.268 813.797 486.279 813.736C486.288 813.682 486.294 813.629 486.296 813.576C486.296 813.548 486.296 813.52 486.296 813.492V809.245C486.296 809.217 486.296 809.186 486.296 809.161C486.296 809.108 486.285 809.055 486.279 809.001C486.268 808.94 486.251 808.881 486.232 808.822C486.033 808.126 485.36 807.607 484.56 807.607H446.703C446.689 807.669 446.669 807.731 446.65 807.793C446.019 809.989 444.6 812.947 441.402 815.127V815.129Z" fill="#FFA412"/>
<path d="M411.648 815.13H412.562V807.61H411.648V815.13Z" fill="#FFA412"/>
<path d="M414.747 815.13H415.662V807.61H414.747V815.13Z" fill="#FFA412"/>
<path d="M418.463 815.13H419.377V807.61H418.463V815.13Z" fill="#FFA412"/>
<path d="M424.16 815.13H425.074V807.61H424.16V815.13Z" fill="#FFA412"/>
<path d="M430.184 815.13H431.099V807.61H430.184V815.13Z" fill="#FFA412"/>
<path d="M439.42 815.13H440.334V807.61H439.42V815.13Z" fill="#FFA412"/>
<path d="M448.066 815.13H448.98V807.61H448.066V815.13Z" fill="#FFA412"/>
<path d="M455.788 815.13H456.702V807.61H455.788V815.13Z" fill="#FFA412"/>
<path d="M408.697 815.13H409.612V807.61H408.697V815.13Z" fill="#FFA412"/>
<path d="M406.748 815.13H407.662V807.61H406.748V815.13Z" fill="#FFA412"/>
<path d="M404.866 815.13H405.78V807.61H404.866V815.13Z" fill="#FFA412"/>
<path d="M403.451 807.633V815.101C403.563 815.118 403.678 815.127 403.796 815.127H404.368V807.607H403.796C403.678 807.607 403.563 807.616 403.451 807.633Z" fill="#FFA412"/>
<path d="M402.179 808.331V814.406C402.401 814.681 402.72 814.897 403.094 815.018V807.717C402.72 807.838 402.401 808.054 402.179 808.328V808.331Z" fill="#FFA412"/>
<path d="M397.684 801.91V806.159C397.684 806.496 397.807 806.81 398.017 807.074C398.239 807.348 398.556 807.564 398.932 807.685C399.044 807.721 399.164 807.75 399.288 807.772C399.4 807.786 399.515 807.797 399.63 807.797H480.188C480.51 807.797 480.816 807.73 481.085 807.612C481.618 807.377 482.011 806.939 482.112 806.423C482.12 806.386 482.123 806.353 482.126 806.316C482.126 806.294 482.132 806.269 482.132 806.243C482.132 806.215 482.132 806.187 482.132 806.159V801.91C482.132 801.882 482.132 801.854 482.132 801.826C482.132 801.773 482.123 801.717 482.115 801.669C481.972 800.881 481.158 800.275 480.188 800.275H399.63C399.515 800.275 399.397 800.284 399.288 800.3C399.164 800.317 399.044 800.345 398.932 800.385C398.556 800.508 398.239 800.724 398.017 800.999C397.807 801.26 397.684 801.574 397.684 801.913V801.91Z" fill="#FFB93E"/>
<path d="M437.24 807.792H480.398C480.687 807.792 480.959 807.725 481.197 807.607C481.677 807.371 482.025 806.934 482.115 806.418C482.123 806.381 482.126 806.348 482.129 806.311C482.129 806.289 482.134 806.264 482.134 806.238C482.134 806.21 482.134 806.182 482.134 806.154V801.905C482.134 801.877 482.134 801.849 482.134 801.821C482.134 801.768 482.126 801.712 482.117 801.664C482.106 801.605 482.089 801.546 482.072 801.49C481.876 800.792 481.2 800.27 480.398 800.27H442.541C441.952 802.421 440.603 805.377 437.507 807.604C437.423 807.666 437.333 807.73 437.243 807.789L437.24 807.792Z" fill="#FFA412"/>
<path d="M407.486 807.792H408.4V800.273H407.486V807.792Z" fill="#FFA412"/>
<path d="M410.585 807.792H411.5V800.273H410.585V807.792Z" fill="#FFA412"/>
<path d="M414.302 807.792H415.216V800.273H414.302V807.792Z" fill="#FFA412"/>
<path d="M419.997 807.792H420.912V800.273H419.997V807.792Z" fill="#FFA412"/>
<path d="M426.022 807.792H426.937V800.273H426.022V807.792Z" fill="#FFA412"/>
<path d="M435.258 807.792H436.172V800.273H435.258V807.792Z" fill="#FFA412"/>
<path d="M443.905 807.792H444.819V800.273H443.905V807.792Z" fill="#FFA412"/>
<path d="M451.626 807.792H452.54V800.273H451.626V807.792Z" fill="#FFA412"/>
<path d="M404.536 807.792H405.45V800.273H404.536V807.792Z" fill="#FFA412"/>
<path d="M402.587 807.792H403.501V800.273H402.587V807.792Z" fill="#FFA412"/>
<path d="M400.704 807.792H401.619V800.273H400.704V807.792Z" fill="#FFA412"/>
<path d="M399.288 800.298V807.767C399.4 807.784 399.515 807.792 399.633 807.792H400.205V800.273H399.633C399.515 800.273 399.4 800.281 399.288 800.298Z" fill="#FFA412"/>
<path d="M398.018 800.997V807.072C398.239 807.346 398.559 807.562 398.932 807.683V800.383C398.559 800.503 398.239 800.719 398.018 800.994V800.997Z" fill="#FFA412"/>
<path d="M395.754 794.392V798.638C395.754 798.977 395.878 799.289 396.088 799.552C396.116 799.589 396.147 799.62 396.175 799.653C396.329 799.816 396.517 799.956 396.73 800.057C396.814 800.096 396.907 800.136 396.999 800.167C397.114 800.203 397.232 800.231 397.356 800.251C397.412 800.259 397.468 800.265 397.524 800.27C397.583 800.276 397.642 800.279 397.701 800.279H478.256C479.229 800.279 480.042 799.67 480.185 798.885C480.194 798.832 480.199 798.778 480.202 798.728V794.31C480.152 793.514 479.417 792.863 478.486 792.771C478.41 792.762 478.331 792.76 478.253 792.76H397.698C397.639 792.76 397.58 792.76 397.521 792.768C397.462 792.774 397.409 792.779 397.353 792.788C397.229 792.804 397.112 792.832 396.997 792.872C396.624 792.992 396.304 793.208 396.082 793.483C395.872 793.744 395.749 794.058 395.749 794.4L395.754 794.392Z" fill="#FFB93E"/>
<path d="M435.311 800.273H478.469C479.268 800.273 479.941 799.754 480.143 799.059C480.163 799 480.18 798.941 480.191 798.879C480.199 798.826 480.205 798.772 480.208 798.722V794.305C480.163 793.511 479.507 792.857 478.676 792.765C478.609 792.756 478.539 792.754 478.469 792.754H440.612C440.612 792.754 440.612 792.762 440.612 792.765C440.006 794.978 438.595 798.032 435.314 800.273H435.311Z" fill="#FFA412"/>
<path d="M405.556 800.273H406.471V792.754H405.556V800.273Z" fill="#FFA412"/>
<path d="M408.656 800.273H409.57V792.754H408.656V800.273Z" fill="#FFA412"/>
<path d="M412.372 800.273H413.286V792.754H412.372V800.273Z" fill="#FFA412"/>
<path d="M418.069 800.273H418.983V792.754H418.069V800.273Z" fill="#FFA412"/>
<path d="M424.093 800.273H425.007V792.754H424.093V800.273Z" fill="#FFA412"/>
<path d="M433.328 800.273H434.242V792.754H433.328V800.273Z" fill="#FFA412"/>
<path d="M441.974 800.273H442.889V792.754H441.974V800.273Z" fill="#FFA412"/>
<path d="M449.696 800.273H450.61V792.754H449.696V800.273Z" fill="#FFA412"/>
<path d="M402.607 800.273H403.521V792.754H402.607V800.273Z" fill="#FFA412"/>
<path d="M400.656 800.273H401.571V792.754H400.656V800.273Z" fill="#FFA412"/>
<path d="M398.775 800.273H399.689V792.754H398.775V800.273Z" fill="#FFA412"/>
<path d="M397.358 792.779V800.248C397.47 800.265 397.585 800.273 397.703 800.273H398.275V792.754H397.703C397.585 792.754 397.47 792.762 397.358 792.779Z" fill="#FFA412"/>
<path d="M396.088 793.475V799.55C396.309 799.825 396.629 800.04 397.002 800.161V792.861C396.629 792.981 396.309 793.197 396.088 793.472V793.475Z" fill="#FFA412"/>
<path d="M401.678 786.881V791.127C401.678 791.466 401.798 791.778 402.009 792.041C402.23 792.319 402.55 792.535 402.926 792.655C403.038 792.692 403.158 792.72 403.279 792.74C403.316 792.748 403.355 792.751 403.391 792.754H403.405C403.425 792.754 403.445 792.759 403.467 792.759C403.484 792.759 403.501 792.759 403.52 792.765C403.557 792.765 403.588 792.765 403.624 792.765H484.179C485.22 792.765 486.075 792.072 486.125 791.211C486.125 791.183 486.125 791.155 486.125 791.127V786.881C486.125 786.853 486.125 786.822 486.125 786.797C486.125 786.774 486.125 786.752 486.12 786.729C486.041 786.036 485.444 785.464 484.659 785.296C484.642 785.29 484.622 785.285 484.6 785.285C484.465 785.26 484.322 785.246 484.176 785.246H403.621C403.562 785.246 403.506 785.246 403.447 785.254C403.422 785.254 403.397 785.26 403.374 785.262H403.366C403.335 785.262 403.307 785.271 403.276 785.274C403.156 785.29 403.035 785.318 402.923 785.358C402.547 785.478 402.227 785.694 402.006 785.972C401.795 786.233 401.675 786.547 401.675 786.886L401.678 786.881Z" fill="#FFB93E"/>
<path d="M441.234 792.765H484.389C485.317 792.765 486.08 792.072 486.128 791.211C486.128 791.183 486.128 791.155 486.128 791.127V786.881C486.128 786.853 486.128 786.822 486.128 786.797C486.128 786.774 486.128 786.752 486.122 786.729C486.052 786.02 485.497 785.442 484.77 785.288C484.748 785.279 484.723 785.276 484.697 785.274C484.597 785.257 484.493 785.246 484.389 785.246H446.535C446.529 785.265 446.523 785.279 446.521 785.302C445.909 787.506 444.499 790.53 441.254 792.756C441.248 792.762 441.242 792.765 441.237 792.768L441.234 792.765Z" fill="#FFA412"/>
<path d="M411.479 792.765H412.393V785.246H411.479V792.765Z" fill="#FFA412"/>
<path d="M414.578 792.765H415.493V785.246H414.578V792.765Z" fill="#FFA412"/>
<path d="M418.295 792.765H419.209V785.246H418.295V792.765Z" fill="#FFA412"/>
<path d="M423.99 792.765H424.905V785.246H423.99V792.765Z" fill="#FFA412"/>
<path d="M430.015 792.765H430.929V785.246H430.015V792.765Z" fill="#FFA412"/>
<path d="M439.248 792.765H440.163V785.246H439.248V792.765Z" fill="#FFA412"/>
<path d="M447.895 792.765H448.81V785.246H447.895V792.765Z" fill="#FFA412"/>
<path d="M455.616 792.765H456.53V785.246H455.616V792.765Z" fill="#FFA412"/>
<path d="M408.529 792.765H409.443V785.246H408.529V792.765Z" fill="#FFA412"/>
<path d="M406.58 792.765H407.494V785.246H406.58V792.765Z" fill="#FFA412"/>
<path d="M404.697 792.765H405.612V785.246H404.697V792.765Z" fill="#FFA412"/>
<path d="M403.281 785.271V792.74C403.393 792.756 403.508 792.765 403.626 792.765H404.198V785.246H403.626C403.508 785.246 403.393 785.254 403.281 785.271Z" fill="#FFA412"/>
<path d="M402.008 785.967V792.042C402.229 792.316 402.549 792.532 402.922 792.653V785.353C402.549 785.473 402.229 785.689 402.008 785.964V785.967Z" fill="#FFA412"/>
<path d="M401.846 779.415V783.662C401.846 784.001 401.969 784.312 402.177 784.576C402.233 784.643 402.294 784.71 402.362 784.772C402.564 784.954 402.813 785.1 403.094 785.19C403.184 785.221 403.279 785.243 403.371 785.26H403.38C403.405 785.266 403.428 785.271 403.453 785.271C403.565 785.288 403.68 785.299 403.795 785.299H484.353C484.437 785.299 484.521 785.294 484.605 785.285C484.639 785.285 484.67 785.277 484.701 785.274C485.522 785.148 486.167 784.587 486.282 783.891C486.291 783.844 486.294 783.799 486.296 783.751C486.296 783.72 486.296 783.692 486.296 783.667V779.421C486.296 779.39 486.296 779.362 486.296 779.337C486.296 779.283 486.285 779.23 486.28 779.177C486.137 778.392 485.323 777.783 484.353 777.783H403.795C403.744 777.783 403.691 777.783 403.641 777.789C403.632 777.789 403.627 777.789 403.621 777.789C403.607 777.789 403.59 777.789 403.576 777.789C403.554 777.789 403.528 777.794 403.503 777.8C403.486 777.8 403.47 777.8 403.453 777.808C403.329 777.825 403.209 777.853 403.097 777.892C403.029 777.915 402.962 777.94 402.9 777.968C402.648 778.077 402.429 778.235 402.255 778.42C402.23 778.448 402.205 778.476 402.182 778.504C401.975 778.765 401.851 779.082 401.851 779.421L401.846 779.415Z" fill="#FFB93E"/>
<path d="M441.402 785.299H484.56C484.594 785.299 484.627 785.299 484.661 785.299C484.698 785.299 484.737 785.291 484.77 785.288C485.55 785.195 486.176 784.615 486.279 783.889C486.288 783.841 486.291 783.796 486.293 783.748C486.293 783.717 486.293 783.689 486.293 783.664V779.418C486.293 779.387 486.293 779.359 486.293 779.334C486.293 779.28 486.282 779.227 486.277 779.174C486.265 779.112 486.249 779.053 486.229 778.994C486.03 778.299 485.357 777.78 484.557 777.78H446.7C446.686 777.842 446.667 777.903 446.647 777.965C446.021 780.144 444.619 783.07 441.478 785.246C441.453 785.266 441.425 785.28 441.399 785.302L441.402 785.299Z" fill="#FFA412"/>
<path d="M411.648 785.299H412.562V777.78H411.648V785.299Z" fill="#FFA412"/>
<path d="M414.747 785.299H415.662V777.78H414.747V785.299Z" fill="#FFA412"/>
<path d="M418.463 785.299H419.377V777.78H418.463V785.299Z" fill="#FFA412"/>
<path d="M424.16 785.299H425.074V777.78H424.16V785.299Z" fill="#FFA412"/>
<path d="M430.184 785.299H431.099V777.78H430.184V785.299Z" fill="#FFA412"/>
<path d="M439.42 785.299H440.334V777.78H439.42V785.299Z" fill="#FFA412"/>
<path d="M448.066 785.299H448.98V777.78H448.066V785.299Z" fill="#FFA412"/>
<path d="M455.788 785.299H456.702V777.78H455.788V785.299Z" fill="#FFA412"/>
<path d="M408.697 785.299H409.612V777.78H408.697V785.299Z" fill="#FFA412"/>
<path d="M406.748 785.299H407.662V777.78H406.748V785.299Z" fill="#FFA412"/>
<path d="M404.866 785.299H405.78V777.78H404.866V785.299Z" fill="#FFA412"/>
<path d="M403.451 777.802V785.271C403.563 785.288 403.678 785.296 403.796 785.296H404.368V777.777H403.796C403.678 777.777 403.563 777.786 403.451 777.802Z" fill="#FFA412"/>
<path d="M402.179 778.501V784.576C402.401 784.851 402.72 785.067 403.094 785.187V777.887C402.72 778.007 402.401 778.223 402.179 778.498V778.501Z" fill="#FFA412"/>
<path d="M397.684 772.078V776.324C397.684 776.664 397.807 776.978 398.017 777.242C398.239 777.516 398.556 777.732 398.932 777.853C399.044 777.889 399.164 777.917 399.288 777.934C399.4 777.951 399.515 777.962 399.63 777.962H480.188C480.51 777.962 480.816 777.895 481.085 777.777C481.618 777.544 482.011 777.104 482.112 776.588C482.12 776.552 482.123 776.518 482.126 776.482C482.126 776.456 482.132 776.434 482.132 776.409C482.132 776.381 482.132 776.352 482.132 776.322V772.075C482.132 772.047 482.132 772.017 482.132 771.991C482.132 771.938 482.123 771.885 482.115 771.831C481.972 771.046 481.158 770.438 480.188 770.438H399.63C399.515 770.438 399.397 770.449 399.288 770.466C399.164 770.482 399.044 770.51 398.932 770.55C398.556 770.67 398.239 770.886 398.017 771.164C397.807 771.425 397.684 771.739 397.684 772.078Z" fill="#FFB93E"/>
<path d="M437.24 777.962H480.398C480.687 777.962 480.959 777.895 481.197 777.777C481.677 777.544 482.025 777.104 482.115 776.588C482.123 776.552 482.126 776.518 482.129 776.482C482.129 776.456 482.134 776.434 482.134 776.409C482.134 776.381 482.134 776.352 482.134 776.322V772.075C482.134 772.047 482.134 772.017 482.134 771.991C482.134 771.938 482.126 771.885 482.117 771.831C482.106 771.773 482.089 771.714 482.072 771.658C481.876 770.959 481.2 770.438 480.398 770.438H442.541C441.952 772.591 440.603 775.548 437.507 777.774C437.423 777.836 437.333 777.898 437.243 777.96L437.24 777.962Z" fill="#FFA412"/>
<path d="M407.486 777.962H408.4V770.443H407.486V777.962Z" fill="#FFA412"/>
<path d="M410.585 777.962H411.5V770.443H410.585V777.962Z" fill="#FFA412"/>
<path d="M414.302 777.962H415.216V770.443H414.302V777.962Z" fill="#FFA412"/>
<path d="M419.997 777.962H420.912V770.443H419.997V777.962Z" fill="#FFA412"/>
<path d="M426.022 777.962H426.937V770.443H426.022V777.962Z" fill="#FFA412"/>
<path d="M435.258 777.962H436.172V770.443H435.258V777.962Z" fill="#FFA412"/>
<path d="M443.905 777.962H444.819V770.443H443.905V777.962Z" fill="#FFA412"/>
<path d="M451.626 777.962H452.54V770.443H451.626V777.962Z" fill="#FFA412"/>
<path d="M404.536 777.962H405.45V770.443H404.536V777.962Z" fill="#FFA412"/>
<path d="M402.587 777.962H403.501V770.443H402.587V777.962Z" fill="#FFA412"/>
<path d="M400.704 777.962H401.619V770.443H400.704V777.962Z" fill="#FFA412"/>
<path d="M399.288 770.468V777.937C399.4 777.954 399.515 777.962 399.633 777.962H400.205V770.443H399.633C399.515 770.443 399.4 770.452 399.288 770.468Z" fill="#FFA412"/>
<path d="M398.018 771.167V777.242C398.239 777.516 398.559 777.732 398.932 777.853V770.552C398.559 770.673 398.239 770.889 398.018 771.164V771.167Z" fill="#FFA412"/>
<path d="M391.1 764.56V768.809C391.1 769.145 391.224 769.46 391.431 769.72C391.459 769.757 391.49 769.79 391.518 769.824C391.642 769.956 391.785 770.068 391.947 770.161C392.029 770.206 392.113 770.248 392.203 770.284C392.245 770.301 392.29 770.321 392.34 770.335C392.452 770.371 392.573 770.399 392.696 770.419C392.808 770.436 392.923 770.444 393.038 770.444H473.596C474.567 770.444 475.38 769.838 475.523 769.053C475.534 769 475.537 768.946 475.54 768.893C475.54 768.865 475.54 768.837 475.54 768.809V764.56C475.54 764.532 475.54 764.504 475.54 764.476C475.492 763.679 474.757 763.028 473.823 762.936C473.748 762.925 473.672 762.922 473.593 762.922H393.036C392.921 762.922 392.803 762.933 392.693 762.947C392.57 762.967 392.449 762.995 392.337 763.031C392.009 763.138 391.729 763.315 391.513 763.542C391.482 763.575 391.451 763.606 391.426 763.643C391.218 763.906 391.095 764.218 391.095 764.557L391.1 764.56Z" fill="#FFB93E"/>
<path d="M430.655 770.44H473.813C474.615 770.44 475.291 769.921 475.487 769.223C475.504 769.167 475.521 769.108 475.532 769.049C475.543 768.996 475.546 768.942 475.549 768.889C475.549 768.861 475.549 768.833 475.549 768.805V764.556C475.549 764.528 475.549 764.5 475.549 764.472C475.507 763.675 474.85 763.025 474.017 762.932C473.95 762.921 473.883 762.918 473.81 762.918H435.953C435.953 762.918 435.953 762.926 435.953 762.932C435.347 765.145 433.936 768.199 430.655 770.437V770.44Z" fill="#FFA412"/>
<path d="M400.903 770.443H401.817V762.924H400.903V770.443Z" fill="#FFA412"/>
<path d="M404.002 770.443H404.917V762.924H404.002V770.443Z" fill="#FFA412"/>
<path d="M407.716 770.443H408.63V762.924H407.716V770.443Z" fill="#FFA412"/>
<path d="M413.415 770.443H414.329V762.924H413.415V770.443Z" fill="#FFA412"/>
<path d="M419.44 770.443H420.354V762.924H419.44V770.443Z" fill="#FFA412"/>
<path d="M428.675 770.443H429.589V762.924H428.675V770.443Z" fill="#FFA412"/>
<path d="M437.322 770.443H438.236V762.924H437.322V770.443Z" fill="#FFA412"/>
<path d="M445.04 770.443H445.954V762.924H445.04V770.443Z" fill="#FFA412"/>
<path d="M397.952 770.443H398.867V762.924H397.952V770.443Z" fill="#FFA412"/>
<path d="M396.003 770.443H396.917V762.924H396.003V770.443Z" fill="#FFA412"/>
<path d="M394.122 770.443H395.037V762.924H394.122V770.443Z" fill="#FFA412"/>
<path d="M392.706 762.949V770.418C392.818 770.434 392.933 770.443 393.051 770.443H393.623V762.924H393.051C392.933 762.924 392.818 762.932 392.706 762.949Z" fill="#FFA412"/>
<path d="M391.432 763.645V769.719C391.654 769.994 391.973 770.21 392.346 770.331V763.03C391.973 763.151 391.654 763.367 391.432 763.642V763.645Z" fill="#FFA412"/>
<path d="M401.678 757.051V761.297C401.678 761.637 401.798 761.948 402.009 762.212C402.23 762.489 402.55 762.705 402.926 762.826C403.038 762.862 403.158 762.89 403.279 762.91C403.316 762.916 403.355 762.921 403.391 762.924H403.405C403.43 762.93 403.456 762.93 403.481 762.932C403.495 762.932 403.512 762.932 403.526 762.932C403.56 762.932 403.588 762.932 403.621 762.932H484.176C484.875 762.932 485.492 762.621 485.834 762.153C486.002 761.925 486.106 761.662 486.123 761.381C486.123 761.35 486.123 761.322 486.123 761.297V757.051C486.123 757.02 486.123 756.992 486.123 756.967C486.081 756.268 485.508 755.682 484.74 755.486C484.56 755.438 484.37 755.413 484.173 755.413H403.618C403.582 755.413 403.551 755.413 403.515 755.413C403.498 755.413 403.481 755.413 403.464 755.419C403.4 755.419 403.335 755.43 403.273 755.438C403.153 755.455 403.032 755.483 402.92 755.522C402.861 755.539 402.808 755.559 402.755 755.584C402.541 755.671 402.351 755.792 402.191 755.938C402.191 755.938 402.185 755.943 402.182 755.949C402.174 755.957 402.168 755.96 402.16 755.968C402.104 756.019 402.053 756.075 402.006 756.131C401.795 756.392 401.675 756.706 401.675 757.048L401.678 757.051Z" fill="#FFB93E"/>
<path d="M441.234 762.935H484.389C484.995 762.935 485.533 762.638 485.845 762.192C486.01 761.956 486.114 761.679 486.128 761.381C486.128 761.35 486.128 761.322 486.128 761.297V757.051C486.128 757.02 486.128 756.992 486.128 756.967C486.086 756.218 485.502 755.598 484.742 755.449C484.63 755.427 484.51 755.416 484.389 755.416H446.535C446.521 755.475 446.501 755.531 446.484 755.59C445.859 757.783 444.44 760.739 441.254 762.924C441.248 762.924 441.242 762.932 441.237 762.938L441.234 762.935Z" fill="#FFA412"/>
<path d="M411.479 762.935H412.393V755.416H411.479V762.935Z" fill="#FFA412"/>
<path d="M414.578 762.935H415.493V755.416H414.578V762.935Z" fill="#FFA412"/>
<path d="M418.295 762.935H419.209V755.416H418.295V762.935Z" fill="#FFA412"/>
<path d="M423.99 762.935H424.905V755.416H423.99V762.935Z" fill="#FFA412"/>
<path d="M430.015 762.935H430.929V755.416H430.015V762.935Z" fill="#FFA412"/>
<path d="M439.248 762.935H440.163V755.416H439.248V762.935Z" fill="#FFA412"/>
<path d="M447.895 762.935H448.81V755.416H447.895V762.935Z" fill="#FFA412"/>
<path d="M455.616 762.935H456.53V755.416H455.616V762.935Z" fill="#FFA412"/>
<path d="M408.529 762.935H409.443V755.416H408.529V762.935Z" fill="#FFA412"/>
<path d="M406.58 762.935H407.494V755.416H406.58V762.935Z" fill="#FFA412"/>
<path d="M404.697 762.935H405.612V755.416H404.697V762.935Z" fill="#FFA412"/>
<path d="M403.281 755.441V762.91C403.393 762.927 403.508 762.935 403.626 762.935H404.198V755.416H403.626C403.508 755.416 403.393 755.424 403.281 755.441Z" fill="#FFA412"/>
<path d="M402.008 756.136V762.211C402.229 762.486 402.549 762.702 402.922 762.823V755.522C402.549 755.643 402.229 755.859 402.008 756.134V756.136Z" fill="#FFA412"/>
<path d="M395.754 749.703V753.949C395.754 754.288 395.878 754.603 396.088 754.863C396.31 755.138 396.629 755.354 397.002 755.475C397.117 755.514 397.235 755.542 397.359 755.559C397.471 755.576 397.586 755.584 397.704 755.584H478.259C478.57 755.584 478.867 755.523 479.128 755.41C479.714 755.164 480.135 754.673 480.2 754.098C480.2 754.075 480.205 754.053 480.205 754.03C480.205 754.002 480.205 753.974 480.205 753.946V749.7C480.205 749.672 480.205 749.644 480.205 749.616C480.157 748.819 479.42 748.169 478.489 748.076C478.413 748.068 478.337 748.065 478.259 748.065H397.704C397.586 748.065 397.471 748.073 397.359 748.09C397.235 748.107 397.117 748.135 397.002 748.174C396.629 748.295 396.31 748.511 396.088 748.786C395.878 749.047 395.754 749.361 395.754 749.7V749.703Z" fill="#FFB93E"/>
<path d="M435.311 755.587H478.469C478.749 755.587 479.013 755.525 479.246 755.413C479.77 755.166 480.143 754.675 480.202 754.1C480.202 754.078 480.208 754.056 480.208 754.033C480.208 754.005 480.208 753.977 480.208 753.949V749.703C480.208 749.675 480.208 749.647 480.208 749.619C480.166 748.822 479.507 748.171 478.676 748.079C478.609 748.07 478.542 748.068 478.472 748.068H440.615C440.615 748.068 440.615 748.076 440.612 748.079C440.023 750.236 438.668 753.192 435.563 755.413C435.482 755.472 435.401 755.531 435.317 755.587H435.311Z" fill="#FFA412"/>
<path d="M405.556 755.587H406.471V748.068H405.556V755.587Z" fill="#FFA412"/>
<path d="M408.656 755.587H409.57V748.068H408.656V755.587Z" fill="#FFA412"/>
<path d="M412.372 755.587H413.286V748.068H412.372V755.587Z" fill="#FFA412"/>
<path d="M418.068 755.587H418.982V748.068H418.068V755.587Z" fill="#FFA412"/>
<path d="M424.093 755.587H425.007V748.068H424.093V755.587Z" fill="#FFA412"/>
<path d="M433.328 755.587H434.242V748.068H433.328V755.587Z" fill="#FFA412"/>
<path d="M441.975 755.587H442.889V748.068H441.975V755.587Z" fill="#FFA412"/>
<path d="M449.696 755.587H450.61V748.068H449.696V755.587Z" fill="#FFA412"/>
<path d="M402.607 755.587H403.521V748.068H402.607V755.587Z" fill="#FFA412"/>
<path d="M400.656 755.587H401.571V748.068H400.656V755.587Z" fill="#FFA412"/>
<path d="M398.775 755.587H399.689V748.068H398.775V755.587Z" fill="#FFA412"/>
<path d="M397.358 748.093V755.562C397.471 755.578 397.586 755.587 397.703 755.587H398.276V748.068H397.703C397.586 748.068 397.471 748.076 397.358 748.093Z" fill="#FFA412"/>
<path d="M396.088 748.788V754.863C396.309 755.138 396.629 755.354 397.002 755.474V748.174C396.629 748.294 396.309 748.51 396.088 748.785V748.788Z" fill="#FFA412"/>
<path d="M393.232 742.195V746.441C393.232 746.78 393.356 747.094 393.566 747.355C393.788 747.63 394.107 747.846 394.481 747.967C394.596 748.006 394.713 748.034 394.837 748.051C394.873 748.056 394.912 748.062 394.949 748.065C394.968 748.065 394.991 748.067 395.013 748.07C395.033 748.07 395.055 748.07 395.078 748.073C395.112 748.073 395.148 748.073 395.182 748.073H475.737C476.774 748.073 477.63 747.383 477.683 746.519C477.683 746.491 477.683 746.463 477.683 746.435V742.189C477.683 742.161 477.683 742.133 477.683 742.105C477.63 741.244 476.774 740.551 475.737 740.551H395.182C395.064 740.551 394.949 740.559 394.84 740.576C394.716 740.593 394.598 740.621 394.483 740.66C394.11 740.781 393.791 740.997 393.569 741.272C393.359 741.533 393.235 741.847 393.235 742.186L393.232 742.195Z" fill="#FFB93E"/>
<path d="M432.79 748.079H475.947C476.873 748.079 477.639 747.389 477.686 746.525C477.686 746.497 477.686 746.469 477.686 746.441V742.195C477.686 742.167 477.686 742.138 477.686 742.11C477.639 741.249 476.876 740.557 475.947 740.557H438.09C437.487 742.767 436.082 745.821 432.806 748.065C432.801 748.067 432.795 748.073 432.79 748.076V748.079Z" fill="#FFA412"/>
<path d="M403.034 748.078H403.948V740.559H403.034V748.078Z" fill="#FFA412"/>
<path d="M406.134 748.078H407.048V740.559H406.134V748.078Z" fill="#FFA412"/>
<path d="M409.849 748.078H410.764V740.559H409.849V748.078Z" fill="#FFA412"/>
<path d="M415.546 748.078H416.46V740.559H415.546V748.078Z" fill="#FFA412"/>
<path d="M421.57 748.078H422.484V740.559H421.57V748.078Z" fill="#FFA412"/>
<path d="M430.806 748.078H431.72V740.559H430.806V748.078Z" fill="#FFA412"/>
<path d="M439.452 748.078H440.366V740.559H439.452V748.078Z" fill="#FFA412"/>
<path d="M448.088 740.559H447.171V748.079H448.088V740.559Z" fill="#FFA412"/>
<path d="M400.084 748.078H400.998V740.559H400.084V748.078Z" fill="#FFA412"/>
<path d="M398.138 748.078H399.052V740.559H398.138V748.078Z" fill="#FFA412"/>
<path d="M396.255 748.078H397.169V740.559H396.255V748.078Z" fill="#FFA412"/>
<path d="M394.836 740.585V748.053C394.949 748.07 395.064 748.079 395.181 748.079H395.754V740.559H395.181C395.064 740.559 394.949 740.568 394.836 740.585Z" fill="#FFA412"/>
<path d="M393.565 741.28V747.355C393.787 747.63 394.107 747.846 394.48 747.966V740.666C394.107 740.786 393.787 741.002 393.565 741.277V741.28Z" fill="#FFA412"/>
<path d="M418.766 697.702C418.766 697.702 422.999 703.659 426.878 703.74C430.756 703.821 436.657 700.98 436.657 700.98C436.657 700.98 440.219 693.043 437.802 689.936C437.802 689.936 435.378 688.873 432.846 690.749C432.411 691.074 431.971 691.481 431.533 692.005C430.919 692.743 430.229 693.164 429.497 693.385C426.729 694.227 423.445 692.247 422.216 694.159C421.498 695.27 420.719 696.106 420.076 696.692C419.316 697.368 418.764 697.699 418.764 697.699L418.766 697.702Z" fill="#FFEDDC"/>
<path d="M473.925 740.669C473.925 740.669 458.971 704.433 432.052 703.743C432.052 703.743 407.203 706.502 405.823 740.669H473.925Z" fill="#FFEDDC"/>
<path d="M439.428 704.848C439.428 704.848 428.639 707.246 425.309 705.838C425.309 705.838 424.807 701.325 429.351 701.959C432.461 702.391 434.486 700.896 435.678 700.29C437.364 699.432 439.877 702.96 439.428 704.848Z" fill="#CA534B"/>
<path d="M430.038 698.047C430.728 698.566 432.848 690.752 432.848 690.752C432.414 691.077 431.973 691.484 431.536 692.008C430.922 692.746 430.232 693.167 429.5 693.388C429.494 693.616 429.368 697.542 430.038 698.047Z" fill="#E5C1A1"/>
<path d="M420.079 696.695C420.23 696.784 425.22 699.774 425.898 699.774C426.577 699.774 422.219 694.162 422.219 694.162C421.501 695.273 420.721 696.109 420.079 696.695Z" fill="#E5C1A1"/>
<path d="M459.315 730.544C459.593 730.308 448.733 714.555 445.741 714.44C442.751 714.325 436.031 717.889 431.165 718.352C426.299 718.812 421.584 717.432 420.662 720.307C419.742 723.182 417.212 733.38 418.763 735.012C420.317 736.644 453.341 735.648 459.313 730.547L459.315 730.544Z" fill="#F9DDBF"/>
<path opacity="0.5" d="M449.09 785.243C449.09 785.263 449.09 785.279 449.095 785.299C449.236 787.823 449.642 790.319 450.304 792.754C450.304 792.754 450.304 792.762 450.304 792.765C450.4 793.118 450.501 793.469 450.607 793.82C451.283 796.038 452.169 798.2 453.263 800.273C454.635 802.879 456.326 805.344 458.323 807.607C458.376 807.669 458.432 807.733 458.485 807.792C460.982 810.589 463.943 813.071 467.337 815.127C468.052 815.561 468.784 815.976 469.536 816.372C470.043 816.638 470.554 816.891 471.067 817.135C471.558 817.418 472.077 817.662 472.565 817.962C473.984 818.829 475.756 819.519 477.683 820.068V816.762C477.683 816.734 477.683 816.706 477.683 816.677C477.683 816.621 477.672 816.568 477.666 816.518C477.655 816.456 477.638 816.397 477.619 816.338C477.417 815.643 476.744 815.127 475.944 815.127H484.557C485.357 815.127 486.03 814.608 486.229 813.912C486.249 813.853 486.265 813.794 486.277 813.733C486.285 813.679 486.291 813.626 486.293 813.573C486.293 813.545 486.293 813.517 486.293 813.489V809.242C486.293 809.214 486.293 809.183 486.293 809.158C486.293 809.105 486.282 809.052 486.277 808.998C486.265 808.937 486.249 808.878 486.229 808.819C486.03 808.123 485.357 807.604 484.557 807.604H481.195C481.674 807.369 482.022 806.931 482.112 806.415C482.12 806.379 482.123 806.345 482.126 806.309C482.126 806.286 482.131 806.261 482.131 806.236C482.131 806.208 482.131 806.18 482.131 806.152V801.903C482.131 801.875 482.131 801.847 482.131 801.818C482.131 801.765 482.123 801.709 482.115 801.661C482.103 801.603 482.087 801.544 482.07 801.488C481.873 800.789 481.197 800.267 480.395 800.267H478.466C479.265 800.267 479.938 799.749 480.14 799.053C480.16 798.994 480.177 798.935 480.188 798.874C480.196 798.82 480.202 798.767 480.205 798.717V794.299C480.16 793.505 479.503 792.852 478.673 792.759H484.389C485.317 792.759 486.08 792.067 486.128 791.206C486.128 791.178 486.128 791.15 486.128 791.122V786.875C486.128 786.847 486.128 786.816 486.128 786.791C486.128 786.769 486.128 786.746 486.122 786.724C486.052 786.014 485.497 785.437 484.771 785.282C485.55 785.19 486.176 784.609 486.279 783.883C486.288 783.835 486.291 783.79 486.293 783.743C486.293 783.712 486.293 783.684 486.293 783.658V779.412C486.293 779.381 486.293 779.353 486.293 779.328C486.293 779.275 486.282 779.221 486.277 779.168C486.265 779.106 486.249 779.048 486.229 778.989C486.03 778.293 485.357 777.774 484.557 777.774H481.195C481.674 777.541 482.022 777.101 482.112 776.585C482.12 776.549 482.123 776.515 482.126 776.479C482.126 776.453 482.131 776.431 482.131 776.406C482.131 776.378 482.131 776.349 482.131 776.319V772.072C482.131 772.044 482.131 772.014 482.131 771.988C482.131 771.935 482.123 771.882 482.115 771.828C482.103 771.769 482.087 771.711 482.07 771.654C481.873 770.956 481.197 770.434 480.395 770.434H473.813C474.615 770.434 475.291 769.916 475.487 769.217C475.504 769.161 475.521 769.102 475.532 769.043C475.543 768.99 475.546 768.937 475.549 768.884C475.549 768.855 475.549 768.827 475.549 768.799V764.55C475.549 764.522 475.549 764.494 475.549 764.466C475.507 763.67 474.851 763.019 474.018 762.926H484.386C484.992 762.926 485.531 762.629 485.842 762.183L485.836 762.147L484.745 755.477L484.74 755.441L483.186 745.927C481.383 746.169 479.599 746.528 477.849 747.002C477.745 747.03 477.644 747.058 477.543 747.086C477.537 747.086 477.532 747.091 477.523 747.094C476.505 747.378 475.498 747.7 474.506 748.065C474.494 748.065 474.489 748.07 474.478 748.076C469.912 749.739 465.66 752.207 461.972 755.413C461.907 755.469 461.84 755.525 461.778 755.587C459.86 757.269 458.098 759.157 456.533 761.235C456.219 761.648 455.914 762.068 455.619 762.497C455.521 762.638 455.423 762.778 455.33 762.924C455.325 762.924 455.322 762.932 455.322 762.938C454.845 763.639 454.396 764.36 453.967 765.1C452.957 766.845 452.11 768.631 451.418 770.446C450.495 772.855 449.847 775.309 449.466 777.783C449.454 777.844 449.446 777.906 449.435 777.968C449.07 780.397 448.958 782.834 449.09 785.249V785.243Z" fill="#E2810E"/>
<path d="M525.618 809.38C541.092 793.905 541.092 768.817 525.618 753.343C510.144 737.868 485.055 737.869 469.581 753.343C454.107 768.817 454.107 793.905 469.581 809.379C485.055 824.854 510.144 824.854 525.618 809.38Z" fill="#E2810E"/>
<path d="M480.012 816.868C480.5 817.165 480.996 817.454 481.501 817.732C481.672 817.827 481.843 817.92 482.014 818.009C482.404 818.217 482.797 818.419 483.189 818.612C502.059 827.879 525.074 820.766 535.33 802.16C545.116 784.412 539.854 762.43 523.8 750.886C522.519 749.966 521.173 749.11 519.756 748.331C519.249 748.05 518.735 747.781 518.222 747.529C517.723 747.279 517.218 747.041 516.713 746.816C515.162 746.126 513.586 745.543 511.996 745.066C509.629 744.354 507.228 743.874 504.821 743.619C497.358 742.828 489.847 744.191 483.189 747.45C476.124 750.905 470.016 756.492 465.929 763.902C455.645 782.561 461.983 805.899 480.012 816.868Z" fill="#FFB93E"/>
<path d="M483.262 814.532C466.117 805.08 459.86 783.445 469.309 766.3C478.76 749.155 500.396 742.898 517.54 752.347C525.845 756.924 531.869 764.463 534.506 773.573C537.142 782.682 536.071 792.274 531.493 800.579C526.916 808.883 519.377 814.908 510.268 817.544C506.998 818.492 503.666 818.958 500.351 818.958C494.436 818.958 488.585 817.463 483.262 814.529V814.532ZM470.147 766.763C460.951 783.445 467.043 804.497 483.725 813.693C491.805 818.147 501.139 819.187 510.001 816.624C518.864 814.061 526.201 808.196 530.655 800.116C535.109 792.036 536.152 782.705 533.586 773.839C531.022 764.976 525.161 757.64 517.078 753.186C511.805 750.277 506.095 748.9 500.457 748.9C488.268 748.9 476.435 755.354 470.147 766.763Z" fill="#FFA412"/>
<path d="M335.692 430.481C335.513 430.093 335.288 429.743 335.027 429.423L335.025 429.42C334.831 429.185 334.615 428.966 334.377 428.764L333.401 427.774L333.143 427.965C328.145 425.519 317.824 428.111 307.382 434.929C294.764 443.169 286.661 454.511 288.998 460.541L288.641 460.804L290.044 462.204C290.111 462.274 290.181 462.344 290.251 462.411L290.29 462.451L290.302 462.459C290.658 462.784 291.062 463.065 291.516 463.303L291.525 463.309C296.458 465.895 306.891 463.32 317.448 456.429C330.304 448.038 338.471 436.421 335.692 430.483V430.481Z" fill="#FFA412"/>
<path d="M305.882 433.428C318.738 425.037 331.412 423.045 334.192 428.98C336.971 434.917 328.804 446.531 315.948 454.926C303.091 463.317 290.417 465.309 287.638 459.374C284.858 453.436 293.025 441.822 305.879 433.428H305.882Z" fill="#FFB93E"/>
<path d="M296.651 460.261C295.608 460.261 294.657 460.143 293.821 459.902C292.217 459.439 291.107 458.553 290.515 457.265C289.356 454.738 290.428 450.986 293.538 446.697C296.576 442.51 301.212 438.261 306.594 434.738C314.859 429.325 323.262 426.714 328.007 428.08C329.612 428.543 330.722 429.429 331.314 430.717C332.472 433.244 331.398 436.996 328.291 441.284C325.253 445.472 320.617 449.721 315.235 453.243C308.428 457.7 301.526 460.261 296.651 460.261ZM325.208 428.669C320.547 428.669 313.701 431.213 307.11 435.529C301.823 438.993 297.274 443.155 294.301 447.253C291.443 451.193 290.375 454.699 291.37 456.873C291.841 457.899 292.753 458.614 294.079 458.996C294.823 459.209 295.675 459.313 296.618 459.313C301.279 459.313 308.125 456.769 314.716 452.453C320.003 448.989 324.552 444.827 327.525 440.729C330.383 436.789 331.451 433.28 330.456 431.109C329.985 430.083 329.073 429.368 327.746 428.986C327.003 428.773 326.151 428.669 325.208 428.669Z" fill="#FFA412"/>
<path d="M326.849 492.438C326.981 492.158 327.144 491.903 327.332 491.673C327.472 491.502 327.629 491.342 327.8 491.196L328.51 490.478L328.698 490.615C332.327 488.84 339.821 490.722 347.402 495.672C356.565 501.655 362.446 509.889 360.749 514.267L361.007 514.458L359.989 515.473C359.941 515.524 359.891 515.574 359.838 515.625L359.81 515.653L359.801 515.658C359.543 515.894 359.249 516.098 358.92 516.272H358.915V516.275C355.333 518.151 347.758 516.284 340.096 511.28C330.762 505.186 324.833 496.755 326.852 492.444L326.849 492.438Z" fill="#FFA412"/>
<path d="M348.492 494.578C339.159 488.484 329.956 487.039 327.94 491.35C325.921 495.661 331.852 504.094 341.183 510.186C350.517 516.28 359.719 517.725 361.736 513.414C363.755 509.103 357.823 500.67 348.492 494.578Z" fill="#FFB93E"/>
<path d="M341.703 508.966C337.796 506.408 334.431 503.323 332.226 500.283C329.969 497.17 329.189 494.446 330.03 492.612C330.459 491.678 331.267 491.033 332.431 490.696C335.875 489.704 341.978 491.602 347.977 495.532C351.884 498.09 355.25 501.175 357.454 504.215C359.712 507.328 360.492 510.051 359.65 511.886C359.221 512.82 358.413 513.465 357.249 513.801C356.641 513.975 355.954 514.062 355.196 514.062C351.657 514.062 346.645 512.203 341.703 508.969V508.966ZM332.622 491.356C331.657 491.633 330.995 492.152 330.653 492.898C329.929 494.474 330.703 497.021 332.779 499.882C334.936 502.857 338.239 505.881 342.076 508.394C346.861 511.527 351.831 513.375 355.216 513.375C355.9 513.375 356.52 513.299 357.059 513.145C358.023 512.867 358.685 512.348 359.025 511.602C359.748 510.026 358.974 507.479 356.899 504.619C354.742 501.643 351.438 498.62 347.601 496.107C342.817 492.974 337.847 491.126 334.462 491.126C333.777 491.126 333.157 491.201 332.619 491.356H332.622Z" fill="#FFA412"/>
<path d="M100.132 690.317C102.115 688.247 101.955 686.715 101.955 686.715C101.955 686.715 78.9853 667.91 76.6574 666.379C75.07 665.336 58.1552 650.339 50.2461 641.196C46.3252 636.661 41.4647 638.419 35.9059 640.015L31.3287 641.328C25.8008 642.912 24.3648 650.645 28.8999 654.4C41.6723 664.979 62.9203 676.88 66.8944 679.381C76.764 685.591 96.0824 692.967 96.0824 692.967C96.0824 692.967 98.4271 692.098 100.129 690.317H100.132Z" fill="#1E3D70"/>
<path d="M126.345 805.854C126.345 805.854 131.918 810.03 140.461 807.823C140.461 807.823 147.346 806.255 148.858 809.688C148.858 809.688 138.295 815.054 135.623 816.52C133.609 817.625 131.505 819.373 130.022 820.722C128.846 821.79 127.012 821.644 126.011 820.413C125.545 819.841 125.015 819.162 124.432 818.372C122.802 816.164 119.008 809.035 119.008 809.035L126.345 805.852V805.854Z" fill="#072E52"/>
<path d="M125.88 680.834C141.1 665.614 141.1 640.937 125.88 625.717C110.66 610.497 85.983 610.497 70.7629 625.717C55.5429 640.937 55.5429 665.614 70.7629 680.834C85.983 696.054 110.66 696.054 125.88 680.834Z" fill="#FFC76C"/>
<path d="M98.3208 689.246C88.8355 689.246 79.9195 685.552 73.2136 678.846C66.5077 672.14 62.814 663.221 62.814 653.739C62.814 644.256 66.5077 635.337 73.2136 628.632C79.9195 621.926 88.8383 618.232 98.3208 618.232C107.803 618.232 116.722 621.926 123.428 628.632C130.134 635.337 133.828 644.256 133.828 653.739C133.828 663.221 130.134 672.14 123.428 678.846C116.722 685.552 107.803 689.246 98.3208 689.246ZM98.3208 620.347C79.9083 620.347 64.9315 635.326 64.9315 653.736C64.9315 672.146 79.9111 687.125 98.3208 687.125C116.73 687.125 131.71 672.146 131.71 653.736C131.71 635.326 116.73 620.347 98.3208 620.347Z" fill="#FFA412"/>
<path d="M113.197 638.08C115.446 642.096 116.002 645.899 114.863 649.486C113.727 653.074 111.037 656.055 106.802 658.425L98.8456 662.879L101.011 666.746L110.294 661.549C110.847 661.241 111.267 661.345 111.556 661.858L113.351 665.063C113.66 665.616 113.539 666.048 112.987 666.356L103.703 671.553L105.838 675.368C106.146 675.92 106.042 676.341 105.529 676.63L100.778 679.291C100.226 679.6 99.7936 679.479 99.4851 678.927L97.3507 675.113L94.0889 676.938C93.5364 677.247 93.1045 677.126 92.796 676.574L91.001 673.368C90.7121 672.852 90.844 672.44 91.3965 672.131L94.6583 670.305L78.2932 641.07C77.9847 640.517 78.1053 640.085 78.6578 639.777L92.1425 632.23C96.3775 629.86 100.36 629.189 104.085 630.227C107.809 631.262 110.847 633.881 113.2 638.08H113.197ZM107.748 647.989C108.348 646.082 107.947 643.874 106.544 641.367C105.142 638.86 103.476 637.376 101.544 636.908C99.6113 636.439 97.3002 636.961 94.6134 638.464L87.4279 642.486L95.6259 657.132L102.811 653.11C105.501 651.604 107.147 649.899 107.748 647.989Z" fill="#FFA412"/>
<path d="M315.174 445.993C313.625 447.174 312.223 447.839 310.961 447.982C309.699 448.125 308.72 447.741 308.022 446.826L306.709 445.11L305.22 446.248L306.751 448.254C306.841 448.374 306.788 448.509 306.589 448.66L305.354 449.603C305.141 449.765 304.99 449.788 304.897 449.667L303.366 447.662L301.896 448.784C301.683 448.947 301.535 448.972 301.45 448.86L300.668 447.833C300.578 447.712 300.637 447.572 300.85 447.41L302.32 446.288L301.781 445.584C301.692 445.463 301.751 445.323 301.964 445.16L303.198 444.218C303.397 444.066 303.543 444.05 303.632 444.17L304.171 444.874L315.434 436.272C315.648 436.11 315.799 436.087 315.892 436.208L318.113 439.119C318.811 440.033 318.901 441.099 318.379 442.314C317.858 443.531 316.789 444.756 315.171 445.99L315.174 445.993ZM311.783 445.721C312.453 445.643 313.272 445.236 314.237 444.498C315.202 443.761 315.807 443.082 316.051 442.462C316.295 441.842 316.197 441.239 315.754 440.659L314.571 439.108L308.928 443.416L310.111 444.967C310.554 445.547 311.112 445.8 311.783 445.721Z" fill="#FFA412"/>
<path d="M344.745 506.73C343.455 505.827 342.6 504.91 342.179 503.973C341.758 503.036 341.815 502.189 342.347 501.427L343.349 499.996L342.106 499.127L340.937 500.798C340.867 500.896 340.749 500.888 340.583 500.773L339.554 500.052C339.377 499.929 339.321 499.817 339.391 499.716L340.561 498.044L339.335 497.189C339.159 497.065 339.102 496.956 339.167 496.863L339.764 496.008C339.834 495.91 339.958 495.921 340.135 496.044L341.36 496.9L341.77 496.314C341.84 496.216 341.963 496.227 342.14 496.35L343.169 497.071C343.335 497.186 343.382 497.295 343.312 497.393L342.903 497.98L352.29 504.545C352.467 504.669 352.523 504.781 352.453 504.882L350.756 507.308C350.223 508.071 349.424 508.399 348.361 508.298C347.295 508.194 346.089 507.672 344.74 506.727L344.745 506.73ZM344.123 504.052C344.347 504.548 344.86 505.078 345.665 505.642C346.47 506.206 347.141 506.503 347.679 506.539C348.218 506.576 348.655 506.351 348.994 505.869L349.898 504.576L345.194 501.286L344.291 502.579C343.952 503.062 343.896 503.552 344.12 504.052H344.123Z" fill="#FFA412"/>
<path d="M129.615 803.731C129.615 803.731 126.221 811.559 118.385 810.12C118.385 810.12 102.398 796.916 91.4294 783.201C87.8675 778.748 84.8357 774.238 83.0519 770.112C75.7795 753.276 56.1525 728.163 43.6719 715.435L74.896 704.141C74.896 704.141 84.8974 724.259 98.2026 748.971C107.792 766.774 119.097 786.965 129.612 803.734L129.615 803.731Z" fill="#215EAB"/>
<path d="M98.2065 748.968L91.4333 783.201C87.8714 778.748 84.8396 774.238 83.0558 770.112C75.7834 753.276 56.1565 728.163 43.6758 715.435L74.8999 704.141C74.8999 704.141 84.9013 724.259 98.2065 748.971V748.968Z" fill="#164D93"/>
<path d="M72.6834 811.489C72.6834 811.489 72.3441 817.735 79.9138 818.568C79.9138 818.568 84.6004 818.689 84.6116 822.663L61.8126 822.654C61.8126 822.654 61.6107 821.03 61.4564 817.598C61.3386 814.961 64.0114 808.067 64.0114 808.067L72.6834 811.492V811.489Z" fill="#072E52"/>
<path d="M64.6566 704.135C64.6566 704.135 78.5649 719.421 87.3967 746.957C92.201 761.939 78.3741 801.008 75.7209 814.097C75.7209 814.097 66.8106 813.469 60.5674 811.057C60.5674 811.057 60.0935 784.026 63.7451 763.193C65.7897 751.534 45.4308 738.257 36.5344 717.188C30.482 702.856 37.8442 703.098 46.892 702.755L64.6594 704.141L64.6566 704.135Z" fill="#215EAB"/>
<path d="M48.5995 635.946C40.8615 640.316 25.0181 636.285 25.0181 636.285C25.0181 636.285 31.4519 628.929 28.5295 617.085L34.6072 620.17L41.1336 623.485C41.1336 623.485 41.5543 625.577 41.8487 629.335C41.9245 630.303 41.989 631.383 42.0367 632.566C46.0108 633.772 48.6023 635.949 48.6023 635.949L48.5995 635.946Z" fill="#FFB07B"/>
<path d="M76.9769 703.348C76.9769 704.708 75.4091 705.358 75.0781 705.426C71.9566 705.995 63.2425 709.386 55.3895 710.163C48.779 710.856 42.6396 710.196 35.8972 708.845C35.0053 708.665 32.9075 708.101 32.7588 707.246C32.5737 706.312 6.74853 654.603 26.8242 632.39C27.2954 631.868 31.2583 632.808 34.8819 633.669C38.2279 634.463 41.299 634.019 44.0391 632.92L47.4383 634.709C51.6116 637.034 59.5095 645.297 60.4323 651.781C60.9006 655.08 62.7882 657.52 63.3323 660.42C63.5342 661.494 63.7417 662.54 63.9521 663.561C64.3644 665.563 64.7879 667.47 65.2226 669.282C66.4033 674.185 67.6486 678.406 68.8742 682.055C70.1756 685.928 71.4545 689.148 72.596 691.84C74.0769 695.335 75.3277 697.946 76.1074 699.943C76.6599 701.351 76.9769 702.456 76.9769 703.35V703.348Z" fill="#AEC3FF"/>
<path d="M76.1102 699.94C39.6583 682.764 27.0317 649.787 27.0317 649.787C27.0317 649.787 56.6488 660.711 63.9549 663.558C64.3672 665.56 64.7907 667.468 65.2254 669.279C66.4062 674.182 67.6514 678.403 68.8771 682.052C70.1784 685.925 71.4573 689.145 72.5988 691.837C74.0797 695.332 75.3305 697.943 76.1102 699.94Z" fill="#91B0F2"/>
<path d="M97.4369 689.989L100.586 691.144C100.586 691.144 114.579 686.155 115.409 688.351C115.409 688.351 114.057 691.784 110.938 694.625C109.2 696.21 106.409 698.131 98.4998 695.853L95.7905 695.354L97.4341 689.989H97.4369Z" fill="#FFB07B"/>
<path d="M41.6638 627.324C33.6172 627.086 30.563 624.452 30.563 624.452C30.563 624.452 32.7282 621.575 34.6045 620.173L41.1309 623.488C41.1309 623.488 41.3693 623.569 41.6638 627.324Z" fill="#EA8E50"/>
<path d="M45.0888 621.522C45.0888 621.522 33.5589 629.796 28.5161 622.537C23.4733 615.276 18.5877 611.456 25.7367 605.866C32.8857 600.277 36.2569 602.044 38.5287 604.057C40.8005 606.071 47.9579 619.186 45.0888 621.525V621.522Z" fill="#FFB07B"/>
<path d="M39.7483 597.497C39.336 594.706 38.4049 592.743 38.4049 592.743C38.4049 592.743 37.6813 595.741 32.2038 595.326C26.7263 594.914 18.0431 595.865 15.1487 602.108C14.9636 602.506 14.801 602.916 14.6551 603.334C14.1306 601.948 14.0044 599.875 14.0044 599.875C12.9639 602.562 14.0044 605.925 14.0044 605.925C13.9876 606.023 13.9764 606.121 13.9624 606.219C12.7536 607.24 11.7383 610.418 11.7383 610.418C12.1029 609.532 12.992 608.954 13.7857 608.598C13.7604 613.455 15.7321 618.204 19.1874 619.617C24.2442 621.684 24.2021 620.108 29.2869 623.479C29.2869 623.479 29.4945 621.855 29.1495 620.481C28.7933 619.056 25.2763 617.859 27.2396 616.207C29.2028 614.552 29.9264 616.414 30.65 615.276C31.3736 614.14 27.7556 610.83 32.4085 607.731C37.0586 604.629 40.1606 600.29 39.7483 597.5V597.497Z" fill="#233862"/>
<path d="M39.7683 795.073C39.0082 795.073 38.2538 794.728 37.7601 794.075L37.1936 793.323C36.7925 792.79 36.6215 792.129 36.714 791.464C36.8066 790.799 37.1515 790.21 37.6872 789.809L42.0064 786.553C43.1114 785.72 44.6876 785.941 45.5206 787.047L46.0871 787.798C46.4882 788.331 46.6593 788.993 46.5667 789.658C46.4742 790.322 46.1292 790.911 45.5935 791.312L41.2744 794.569C40.8228 794.908 40.2927 795.073 39.7683 795.073ZM43.5181 787.305C43.2544 787.305 42.9908 787.386 42.7636 787.557L38.4445 790.813C38.178 791.015 38.007 791.307 37.9593 791.641C37.9116 791.974 37.9957 792.305 38.1977 792.569L38.7642 793.321C39.1793 793.873 39.9674 793.982 40.5227 793.567L44.8419 790.311C45.1083 790.109 45.2794 789.818 45.3271 789.484C45.3748 789.15 45.2906 788.819 45.0887 788.555L44.5221 787.804C44.2753 787.478 43.8995 787.305 43.5181 787.305Z" fill="#233862"/>
<path d="M56.8624 792.597C56.4893 792.597 56.1079 792.513 55.7517 792.336L50.9053 789.933C50.3079 789.636 49.8592 789.122 49.6432 788.486C49.4301 787.849 49.4749 787.167 49.7722 786.57L50.1901 785.729C50.8043 784.489 52.3132 783.981 53.5529 784.596L58.3993 786.999C59.639 787.613 60.1466 789.122 59.5324 790.362L59.1145 791.203C58.677 792.087 57.7851 792.597 56.8624 792.597ZM51.3148 786.284L50.8969 787.128C50.7482 787.425 50.7258 787.768 50.8352 788.085C50.9418 788.404 51.1661 788.659 51.4634 788.808L56.3098 791.212C56.9297 791.517 57.6841 791.265 57.9898 790.645L58.4077 789.804C58.7162 789.184 58.461 788.43 57.8412 788.121L52.9948 785.717C52.3749 785.412 51.6205 785.664 51.3148 786.284Z" fill="#233862"/>
<path d="M43.9584 788.595C44.0594 789.164 44.6091 789.545 45.1757 789.442L52.1396 788.196C52.7089 788.095 53.0904 787.546 52.9866 786.979C52.8856 786.41 52.3359 786.028 51.7694 786.132L44.8054 787.377C44.2361 787.478 43.8547 788.028 43.9584 788.595Z" fill="#233862"/>
<path d="M63.7985 804.615C62.6879 804.615 61.667 803.869 61.3725 802.744L59.9926 797.514C59.6392 796.176 60.4413 794.799 61.7792 794.448L62.6879 794.207C64.0257 793.854 65.4 794.656 65.7533 795.994L67.1332 801.224C67.3043 801.869 67.2118 802.545 66.8724 803.126C66.533 803.706 65.9917 804.119 65.3467 804.29L64.438 804.531C64.2248 804.587 64.0089 804.615 63.7985 804.615ZM63.3273 795.379C63.2208 795.379 63.1142 795.393 63.0076 795.421L62.0989 795.663C61.4314 795.839 61.0303 796.526 61.207 797.197L62.5869 802.427C62.7636 803.095 63.4507 803.499 64.121 803.319L65.0297 803.078C65.3523 802.994 65.6215 802.786 65.7926 802.495C65.9609 802.203 66.0086 801.866 65.9244 801.544L64.5445 796.313C64.3959 795.752 63.8883 795.379 63.3301 795.379H63.3273Z" fill="#233862"/>
<path d="M73.5129 813.071C73.3138 813.071 73.1147 813.048 72.9127 812.998L67.6596 811.702C66.3162 811.371 65.4916 810.008 65.8226 808.665L66.047 807.75C66.3779 806.407 67.741 805.582 69.0844 805.913L74.3375 807.206C74.9854 807.366 75.5351 807.77 75.8829 808.345C76.2306 808.92 76.3344 809.593 76.1745 810.241L75.9502 811.155C75.6697 812.297 74.6404 813.065 73.5129 813.065V813.071ZM67.267 808.053L67.0426 808.968C66.8771 809.638 67.2894 810.32 67.9597 810.485L73.2128 811.781C73.8859 811.946 74.5647 811.534 74.7301 810.864L74.9545 809.949C75.033 809.627 74.9826 809.29 74.8087 809.001C74.6348 808.712 74.3599 808.511 74.0374 808.432L68.7843 807.139C68.114 806.974 67.4325 807.386 67.267 808.056V808.053Z" fill="#233862"/>
<path d="M81.8965 811.559C80.9962 811.559 80.1211 811.071 79.6724 810.221L79.2321 809.388C78.587 808.166 79.0554 806.643 80.2782 805.998L85.0629 803.471C85.6547 803.159 86.3334 803.098 86.9757 803.294C87.618 803.493 88.1424 803.928 88.4538 804.517L88.8941 805.35C89.2054 805.941 89.2699 806.62 89.0708 807.262C88.8716 807.905 88.4369 808.429 87.8479 808.74L83.0632 811.267C82.6902 811.464 82.2891 811.556 81.8965 811.556V811.559ZM86.2325 804.438C86.0305 804.438 85.8342 804.486 85.6519 804.581L80.8672 807.108C80.2558 807.431 80.0202 808.191 80.3427 808.802L80.783 809.635C81.1056 810.247 81.8684 810.482 82.4771 810.16L87.2618 807.633C87.5563 807.478 87.7722 807.215 87.8732 806.892C87.9713 806.57 87.9405 806.23 87.7862 805.936L87.3459 805.103C87.1917 804.808 86.928 804.592 86.6055 804.491C86.4821 804.452 86.3559 804.435 86.2297 804.435L86.2325 804.438Z" fill="#233862"/>
<path d="M92.3078 803.173C91.9264 803.173 91.5506 803.086 91.2 802.912L90.3586 802.494C89.7612 802.197 89.3125 801.684 89.0965 801.047C88.8834 800.411 88.9283 799.729 89.2227 799.132L91.6263 794.285C91.9236 793.688 92.4369 793.239 93.0735 793.023C93.7102 792.81 94.3917 792.855 94.9891 793.152L95.8305 793.57C97.0701 794.184 97.5778 795.693 96.9636 796.933L94.56 801.779C94.2627 802.379 93.7494 802.825 93.1128 803.041C92.8491 803.131 92.5771 803.176 92.305 803.176L92.3078 803.173ZM93.8813 794.145C93.7466 794.145 93.6092 794.167 93.4774 794.212C93.1577 794.319 92.9024 794.543 92.7538 794.84L90.3502 799.687C90.2016 799.984 90.1791 800.326 90.2885 800.643C90.3979 800.96 90.6194 801.218 90.9167 801.367L91.7581 801.785C92.0582 801.933 92.3976 801.956 92.7145 801.846C93.0343 801.74 93.2895 801.516 93.4381 801.218L95.8417 796.372C96.1502 795.752 95.895 794.998 95.2752 794.689L94.4338 794.271C94.2599 794.184 94.072 794.142 93.8813 794.142V794.145Z" fill="#233862"/>
<path d="M57.622 789.509C57.1621 789.857 57.0695 790.519 57.4173 790.979L61.6775 796.627C62.0253 797.087 62.6872 797.18 63.1472 796.835C63.6071 796.487 63.6997 795.825 63.3519 795.365L59.0917 789.717C58.7439 789.257 58.082 789.164 57.622 789.509Z" fill="#233862"/>
<path d="M63.908 802.018C63.4228 802.329 63.2798 802.98 63.5911 803.468L67.4082 809.425C67.7195 809.91 68.373 810.053 68.8582 809.742C69.3434 809.431 69.4864 808.78 69.1751 808.292L65.358 802.335C65.0467 801.85 64.396 801.707 63.908 802.018Z" fill="#233862"/>
<path d="M73.311 810.264C73.4119 810.833 73.9616 811.215 74.5282 811.111L81.4921 809.866C82.0615 809.765 82.4429 809.215 82.3391 808.648C82.2382 808.079 81.6884 807.698 81.1219 807.801L74.158 809.047C73.5886 809.148 73.2072 809.697 73.311 810.264Z" fill="#233862"/>
<path d="M86.3475 805.79C86.757 806.2 87.4245 806.2 87.8311 805.79L92.8346 800.787C93.2413 800.377 93.2413 799.71 92.8346 799.303C92.4252 798.893 91.7577 798.893 91.351 799.303L86.3475 804.306C85.9408 804.713 85.9408 805.383 86.3475 805.79Z" fill="#233862"/>
<path d="M93.16 795.833C93.362 796.375 93.9706 796.649 94.5119 796.447L101.136 793.963C101.678 793.761 101.953 793.152 101.751 792.611C101.549 792.069 100.94 791.795 100.399 791.996L93.7743 794.481C93.233 794.683 92.9581 795.292 93.16 795.833Z" fill="#233862"/>
<path d="M44.5944 804.427C42.3675 796.128 33.833 791.206 25.5341 793.433C17.2351 795.66 12.313 804.194 14.5399 812.493C16.7667 820.792 25.3013 825.714 33.6002 823.488C41.8992 821.261 46.8213 812.726 44.5944 804.427Z" fill="#072E52"/>
<path d="M37.3109 799.589C36.4218 799.589 35.5411 799.356 34.7502 798.899C33.5611 798.212 32.7084 797.104 32.3523 795.778C31.9961 794.451 32.1784 793.066 32.8655 791.876C33.5526 790.687 34.6605 789.835 35.9871 789.478C37.3137 789.122 38.6992 789.305 39.8883 789.992C41.0775 790.679 41.9301 791.787 42.2835 793.113C42.6397 794.44 42.4574 795.825 41.7703 797.015C41.0831 798.204 39.9753 799.056 38.6487 799.41C38.2055 799.528 37.754 799.586 37.3081 799.586L37.3109 799.589ZM37.3193 792.09C37.1173 792.09 36.9126 792.115 36.7107 792.171C36.1021 792.334 35.5944 792.723 35.2803 793.27C34.9662 793.814 34.882 794.451 35.0447 795.057C35.2074 795.666 35.5972 796.173 36.1413 796.487C36.6854 796.801 37.3221 796.883 37.9279 796.723C38.5365 796.56 39.0441 796.17 39.3583 795.623C39.6724 795.079 39.7565 794.446 39.5938 793.837C39.3106 792.785 38.357 792.092 37.3193 792.092V792.09Z" fill="#072E52"/>
<path opacity="0.5" d="M23.5801 795.839C25.0301 794.95 27.3552 794.594 28.1321 796.106C29.0885 797.962 27.3299 798.829 25.8828 799.718C24.4328 800.607 22.663 801.165 21.7739 799.715C20.8849 798.265 22.1329 796.728 23.5829 795.839H23.5801Z" fill="#2B478B"/>
<path d="M94.1112 786.292L111.489 773.208C111.946 772.863 112.599 772.987 112.9 773.472L121.891 787.986C122.163 788.424 122.045 788.996 121.628 789.293L106.485 800.01C106.087 800.293 105.54 800.234 105.209 799.875L93.9822 787.728C93.5923 787.305 93.6512 786.637 94.1112 786.292Z" fill="#072E52"/>
<path d="M209.004 514.085C209.004 514.085 206.662 510.068 200.553 510.167C194.445 510.265 195.463 514.23 198.618 515.097C201.773 515.964 201.773 516.881 204.931 516.78C208.086 516.679 209.004 514.085 209.004 514.085Z" fill="#FFB27D"/>
<path d="M315.726 547.008C316.365 544.911 317.924 547.94 321.369 547.474C321.369 547.474 325.738 545.915 328.282 547.143C330.17 548.057 333.796 553.507 329.984 552.046C324.434 549.92 321.096 554.085 318.003 552.337C314.912 550.59 313.075 548.669 313.075 548.669L315.726 547.008Z" fill="#FFB27D"/>
<path d="M238.704 625.434C239.327 626.147 239.406 626.943 239.097 627.793C239.097 627.796 239.097 627.802 239.091 627.804C238.522 629.378 236.643 631.134 234.458 632.886C234.18 633.111 233.931 633.316 233.715 633.506C233.659 633.557 233.603 633.604 233.549 633.655C233.505 633.694 233.462 633.733 233.42 633.77C231.384 635.646 232.15 636.078 228.493 639.887C224.322 644.226 221.45 644.304 220.631 643.909C219.941 643.572 221.344 641.27 222.9 638.684C222.976 638.56 223.049 638.434 223.127 638.308C223.335 637.963 223.54 637.615 223.747 637.27C225.57 634.157 225.102 632.696 224.67 628.062C224.319 624.296 218.811 607.025 218.811 607.025L226.804 605.648C226.804 605.648 229.211 619.402 231.864 621.519C233.283 622.649 234.87 622.663 236.233 623.499C236.329 623.558 236.424 623.617 236.517 623.679C237.291 624.192 238.082 624.722 238.704 625.437V625.434Z" fill="#FFB27D"/>
<path d="M238.704 625.435C239.327 626.147 239.406 626.943 239.097 627.793C239.097 627.796 239.097 627.802 239.091 627.805C238.396 629.375 236.562 631.122 234.453 632.87C234.178 633.1 233.934 633.31 233.718 633.506C233.662 633.557 233.606 633.605 233.552 633.655C233.507 633.694 233.465 633.734 233.423 633.77C231.387 635.646 232.153 636.078 228.496 639.887C224.325 644.226 221.453 644.304 220.634 643.909C219.944 643.572 221.346 641.27 222.903 638.684C223.716 638.386 227.486 636.855 230.338 633.206C232.851 630.001 234.526 625.883 236.236 623.497C236.332 623.555 236.427 623.614 236.52 623.676C237.294 624.189 238.085 624.719 238.707 625.435H238.704Z" fill="#072E52"/>
<path d="M174.248 620.439C173.754 622.907 170.237 622.495 166.308 621.536C162.379 620.577 163.313 621.718 157.72 621.098C152.128 620.479 150.434 618.395 150.263 617.562C150.111 616.824 152.874 616.563 155.838 616.221C156.211 616.179 156.584 616.134 156.96 616.087C160.306 615.666 162.757 613.506 165.798 611.734C168.678 610.054 172.975 603.21 172.975 603.21L180.646 603.819C180.646 603.819 176.621 609.933 175.064 612.589C174.15 614.151 174.198 616.218 174.313 617.817C174.372 618.684 174.428 619.57 174.254 620.439H174.248Z" fill="#FFB27D"/>
<path d="M166.308 621.536C162.379 620.577 163.313 621.719 157.72 621.099C152.128 620.479 150.434 618.395 150.263 617.562C150.111 616.824 152.874 616.564 155.838 616.221L155.866 616.278C155.866 616.278 159.221 618.656 163.877 618.768C167.671 618.861 171.69 617.772 174.31 617.814C174.369 618.681 174.425 619.567 174.251 620.437C173.757 622.905 170.24 622.493 166.311 621.533L166.308 621.536Z" fill="#072E52"/>
<path d="M203.641 571.4L210.809 590.693L220.168 615.885C220.168 615.885 222.709 616.129 225.141 615.43C227.382 614.782 229.951 613.088 229.951 613.088C229.951 613.088 227.351 586.04 222.505 570.514C221.262 566.528 219.868 563.306 218.334 561.491C210.818 552.609 203.641 571.4 203.641 571.4Z" fill="#B03F37"/>
<path d="M210.93 540.759C215.628 539.245 229.023 541.189 242.482 543.825L245.301 539.178L274.368 536.909C274.368 536.909 284.547 552.693 279.293 566.245L250.108 575.697C235.653 575.697 219.852 565.098 217.765 564.68C214.349 563.996 212.98 570.831 209.564 578.005C206.148 585.182 177.446 609.782 177.446 609.782C177.446 609.782 173.034 609.827 171.211 609.142C169.25 608.408 168.535 607.454 168.535 607.454C168.535 607.454 200.34 544.178 210.933 540.759H210.93Z" fill="#CA534B"/>
<path d="M237.201 498.765C246.369 506.22 268.456 519.141 268.577 519.085C268.577 519.085 269.536 515.318 274.363 513.24C282.409 509.774 298.014 502.055 286.885 488.629C281.335 481.932 273.423 483.315 274.503 474.41C275.672 464.765 271.317 452.637 260.216 452.127C259.288 452.085 253.667 451.333 249.654 452.593C239.428 455.801 222.328 493.826 237.204 498.765H237.201Z" fill="#233862"/>
<path d="M280.449 509.219C279.742 512.548 279.17 515.532 278.702 518.205C276.023 533.549 276.876 538.614 276.354 540.061C276.074 540.838 272.467 541.573 267.792 542.075C262.502 542.639 255.847 542.908 251.101 542.594C248.26 542.412 246.098 542.011 245.329 541.349C242.14 538.578 242.457 544.672 242.023 515.518C241.812 501.298 254.091 488.633 254.091 488.633C254.091 488.633 255.098 496.27 267.276 489.042C267.708 488.79 282.505 499.551 280.455 509.224L280.449 509.219Z" fill="#AEC3FF"/>
<path d="M210.81 590.693L220.169 615.885C220.169 615.885 222.71 616.129 225.141 615.43C227.382 614.782 229.951 613.088 229.951 613.088C229.951 613.088 227.351 586.04 222.505 570.514L210.81 590.693Z" fill="#CA534B"/>
<path d="M254.085 488.624L251.901 507.107C251.901 507.107 247.472 512.744 242.059 518.446C238.135 522.585 233.687 526.759 230.038 528.834C230.01 528.857 229.98 528.871 229.954 528.888C226.328 530.926 219.061 528.29 219.061 528.29C219.061 528.29 236.573 501.983 240.085 496.146C242.968 491.359 254.085 488.627 254.085 488.627V488.624Z" fill="#AEC3FF"/>
<path d="M261.327 488.198C261.327 488.198 276.455 486.324 283.859 495.496C291.263 504.667 294.298 518.701 300.62 525.427C306.941 532.152 317.38 545.34 317.38 545.34C317.38 545.34 316.581 548.747 310.436 550.733C310.436 550.733 290.243 533.771 286.883 528.891C283.523 524.01 272.071 509.959 272.071 509.959L263.214 492.45L261.327 488.201V488.198Z" fill="#AEC3FF"/>
<path d="M318.859 552.677C318.859 552.677 324.706 554.211 325.161 554.054C326.159 553.712 322.586 551.636 321.658 551.636C320.729 551.636 318.856 552.677 318.856 552.677H318.859Z" fill="#FFB27D"/>
<path d="M203.641 517.593C203.473 518.129 219.061 528.29 219.061 528.29L226.26 519.832L209.309 513.238C209.309 513.238 204.844 513.776 203.641 517.593Z" fill="#AEC3FF"/>
<path d="M189.727 502.164C189.491 502.366 153.244 469.622 153.244 469.622C153.244 469.622 152.753 475.195 156.803 481.188C160.853 487.185 185.071 506.848 185.071 506.848L189.727 502.164Z" fill="#2A4E96"/>
<path d="M179.255 512.413C183.173 515.773 183.63 521.694 180.27 525.612C176.91 529.53 170.99 529.987 167.071 526.627C163.153 523.267 162.696 517.346 166.056 513.428C169.416 509.51 175.337 509.053 179.255 512.413ZM169.441 523.864C171.837 525.917 175.455 525.64 177.508 523.245C179.561 520.849 179.283 517.231 176.888 515.178C174.493 513.125 170.875 513.403 168.822 515.798C166.769 518.193 167.046 521.811 169.441 523.864Z" fill="#2A4E96"/>
<path d="M192.372 499.082C197.49 498.409 202.199 502.027 202.873 507.146C203.546 512.264 199.928 516.973 194.809 517.646C189.691 518.319 184.982 514.701 184.309 509.586C183.636 504.467 187.253 499.758 192.372 499.085V499.082ZM192.846 502.692C189.719 503.101 187.509 505.982 187.918 509.109C188.328 512.236 191.208 514.446 194.335 514.037C197.462 513.627 199.672 510.747 199.263 507.62C198.853 504.492 195.973 502.282 192.846 502.692Z" fill="#2A4E96"/>
<path d="M171.129 512.332C171.426 512.245 163.803 463.996 163.803 463.996C163.803 463.996 168.739 466.627 171.547 473.297C174.354 479.966 177.596 510.991 177.596 510.991L171.132 512.332H171.129Z" fill="#2A4E96"/>
<path d="M173.188 491.016C173.401 491.552 173.14 492.16 172.605 492.373C172.069 492.586 171.46 492.326 171.247 491.79C171.034 491.254 171.295 490.646 171.831 490.432C172.366 490.219 172.975 490.48 173.188 491.016Z" fill="#F99746"/>
<path d="M196.111 512.607C196.111 512.607 195.822 514.388 197.502 514.388C199.182 514.388 199.476 510.486 198.971 510.298C198.469 510.111 196.349 510.725 196.111 512.607Z" fill="#FFB27D"/>
<path d="M208.075 512.949C208.075 512.949 206.639 511.361 205.647 510.164C204.654 508.966 203.776 507.628 203.641 508.509C203.509 509.387 204.309 511.143 205.111 511.754C205.913 512.365 208.075 512.952 208.075 512.952V512.949Z" fill="#FFB27D"/>
<path d="M266.841 487.967C267.2 489.154 266.367 491.717 261.535 493.162C258.48 494.076 255.409 493.277 254.459 492.497C252.826 491.162 254.248 490.239 254.015 487.519C254.004 487.39 253.993 487.258 253.979 487.126C253.668 484.083 252.787 480.748 252.731 480.532C252.728 480.527 252.728 480.524 252.728 480.524L263.487 477.447L263.139 478.042C263.801 483.626 266.415 486.562 266.841 487.967Z" fill="#FFB27D"/>
<path d="M263.487 477.447C262.443 480.574 259.597 484.767 253.794 485.673C253.233 482.319 252.787 480.748 252.731 480.532C252.728 480.527 252.728 480.524 252.728 480.524L263.487 477.447Z" fill="#ED975D"/>
<path d="M250.938 483.764C250.938 483.764 265.439 482.799 264.701 473.779C263.96 464.76 265.335 458.558 256.046 458.791C246.757 459.027 245.242 462.614 244.757 465.685C244.272 468.756 247.149 483.781 250.941 483.761L250.938 483.764Z" fill="#FFB27D"/>
<path d="M248.333 458.628C248.333 458.628 251.937 469.199 260.491 470.427C266.731 471.325 269.211 469.636 269.211 469.636C269.211 469.636 265.727 466.327 263.84 461.237C263.285 459.736 261.969 458.642 260.387 458.398C255.945 457.714 250.212 454.772 248.336 458.625L248.333 458.628Z" fill="#233862"/>
<path d="M251.406 460.501C251.406 460.501 248.818 461.548 247.012 465.412C246.024 467.524 245.312 472.556 245.921 474.628C245.921 474.628 241.75 464.983 244.771 460.636C247.971 456.025 251.406 460.501 251.406 460.501Z" fill="#233862"/>
<path d="M278.702 518.199V518.205C276.023 533.549 276.876 538.614 276.354 540.061C276.074 540.838 272.467 541.573 267.792 542.075C260.716 538.25 271.485 534.2 272.739 525.379C274.063 516.056 278.705 518.202 278.705 518.202L278.702 518.199Z" fill="#85A4E8"/>
<path d="M242.059 518.449C238.136 522.588 233.687 526.762 230.039 528.837C231.043 526.98 234.049 524.302 236.262 521.413C239.011 517.823 240.155 512.099 241.305 511.945C242.452 511.793 242.059 518.449 242.059 518.449Z" fill="#85A4E8"/>
<path d="M100.57 691.279C100.57 691.279 101.254 689.327 102.522 688.741C103.792 688.155 105.842 685.569 105.938 686.494C106.036 687.423 105.06 688.741 105.009 690.008C104.962 691.279 100.567 691.279 100.567 691.279H100.57Z" fill="#FFB07B"/>
<path d="M100.032 694.443C101.195 691.405 101.336 689.832 101.336 689.832C101.336 689.832 77.9253 670.626 75.4993 668.962C73.8474 667.829 57.3925 655.531 49.3712 645.945C45.3914 641.191 39.1174 639.017 33.051 640.291L28.0531 641.34C22.0203 642.604 20.0599 650.241 24.7408 654.255C37.9227 665.555 60.1551 678.661 64.3004 681.387C74.5906 688.155 97.3503 697.637 97.3503 697.637C97.3503 697.637 99.1144 696.832 100.029 694.445L100.032 694.443Z" fill="#AEC3FF"/>
<defs>
<filter id="filter0_f_1910_28" x="124.633" y="208.936" width="619.05" height="620.089" filterUnits="userSpaceOnUse" color-interpolation-filters="sRGB">
<feFlood flood-opacity="0" result="BackgroundImageFix"/>
<feBlend mode="normal" in="SourceGraphic" in2="BackgroundImageFix" result="shape"/>
<feGaussianBlur stdDeviation="81.5" result="effect1_foregroundBlur_1910_28"/>
</filter>
<filter id="filter1_f_1910_28" x="-244.671" y="-18" width="760.127" height="760.127" filterUnits="userSpaceOnUse" color-interpolation-filters="sRGB">
<feFlood flood-opacity="0" result="BackgroundImageFix"/>
<feBlend mode="normal" in="SourceGraphic" in2="BackgroundImageFix" result="shape"/>
<feGaussianBlur stdDeviation="103" result="effect1_foregroundBlur_1910_28"/>
</filter>
<filter id="filter2_f_1910_28" x="-385" y="276.05" width="779.95" height="779.95" filterUnits="userSpaceOnUse" color-interpolation-filters="sRGB">
<feFlood flood-opacity="0" result="BackgroundImageFix"/>
<feBlend mode="normal" in="SourceGraphic" in2="BackgroundImageFix" result="shape"/>
<feGaussianBlur stdDeviation="102.5" result="effect1_foregroundBlur_1910_28"/>
</filter>
<linearGradient id="paint0_linear_1910_28" x1="289.938" y1="521.052" x2="289.938" y2="821.884" gradientUnits="userSpaceOnUse">
<stop stop-color="#4A7CBB"/>
<stop offset="1" stop-color="#2AB392"/>
</linearGradient>
</defs>
</svg>
