<svg width="320" height="554" viewBox="0 0 320 554" fill="none" xmlns="http://www.w3.org/2000/svg">
<g filter="url(#filter0_f_1910_55)">
<ellipse cx="-0.127129" cy="274.234" rx="86.8729" ry="87.1809" fill="#27AE60" fill-opacity="0.25"/>
</g>
<g filter="url(#filter1_f_1910_55)">
<circle cx="177.007" cy="181.2" r="103.2" fill="#278EAE" fill-opacity="0.25"/>
</g>
<g filter="url(#filter2_f_1910_55)">
<ellipse cx="254.33" cy="361.415" rx="109.669" ry="109.669" fill="#2745AE" fill-opacity="0.25"/>
</g>
<path d="M218.339 229.696L203.928 183.963L264.898 164.751H264.9L290.589 156.655L305 202.387L257.033 217.503L218.339 229.696Z" fill="#E9EFF8"/>
<path d="M221.681 223.021L210.494 187.516L288.386 162.97L299.574 198.475L221.681 223.021ZM212.948 191.531L221.386 218.308C221.958 220.125 223.897 221.135 225.714 220.561L294.802 198.791C296.651 198.207 297.679 196.235 297.096 194.385L288.692 167.716C288.113 165.882 286.157 164.862 284.323 165.44L215.19 187.225C213.381 187.794 212.377 189.723 212.948 191.531Z" fill="#92AFF2"/>
<path d="M252.024 183.444C257.3 181.781 262.924 184.711 264.587 189.986C266.249 195.261 263.32 200.886 258.045 202.549C252.769 204.211 247.144 201.281 245.482 196.007C243.819 190.731 246.748 185.106 252.024 183.444Z" fill="#92AFF2"/>
<path d="M225.473 207.118L190.245 174.588L233.614 127.624L251.888 107.835L287.114 140.364L252.996 177.314L225.473 207.118Z" fill="#E9EFF8"/>
<path d="M225.058 199.666L197.709 174.411L253.114 114.411L280.463 139.666L225.058 199.666ZM201.833 176.676L222.458 195.722C223.858 197.014 226.041 196.927 227.335 195.528L276.478 142.31C277.794 140.885 277.706 138.663 276.28 137.346L255.737 118.376C254.324 117.071 252.12 117.16 250.814 118.572L201.64 171.823C200.353 173.216 200.44 175.389 201.833 176.674V176.676Z" fill="#92AFF2"/>
<path d="M231.728 150.243C235.48 146.179 241.817 145.926 245.88 149.679C249.944 153.431 250.197 159.768 246.444 163.831C242.692 167.895 236.355 168.148 232.292 164.395C228.228 160.643 227.975 154.306 231.728 150.243Z" fill="#92AFF2"/>
<path d="M250.029 258.525L90.9527 310.035C87.1944 311.252 83.1605 309.191 81.9424 305.433L54.4038 220.388C53.1871 216.63 55.2477 212.596 59.006 211.378L218.083 159.866C221.841 158.649 225.875 160.71 227.093 164.468L254.632 249.513C255.848 253.271 253.788 257.305 250.029 258.523V258.525Z" fill="url(#paint0_linear_1910_55)"/>
<path d="M128.716 264.305L85.7236 278.224L86.6594 281.114L129.652 267.195L128.716 264.305Z" fill="#E7D4F4"/>
<path d="M114.874 275.174L87.5967 284.005L88.5325 286.895L115.809 278.064L114.874 275.174Z" fill="#E7D4F4"/>
<path d="M85.9443 252.011C86.822 254.723 86.3114 256.757 84.2972 257.408C82.3731 258.031 80.7725 256.609 79.9313 254.058C79.0832 251.437 79.6289 249.335 81.5911 248.699C83.6179 248.042 85.1454 249.544 85.9443 252.011ZM81.5278 253.526C82.1931 255.58 83.0904 256.457 83.9555 256.177C84.8978 255.872 85.0075 254.581 84.3563 252.567C83.7248 250.617 82.9005 249.614 81.9455 249.924C81.1058 250.195 80.8512 251.433 81.5278 253.525V253.526Z" fill="#E7D4F4"/>
<path d="M93.832 249.457C94.7097 252.169 94.1991 254.202 92.1849 254.854C90.2608 255.477 88.6602 254.055 87.819 251.503C86.9709 248.883 87.5166 246.78 89.4788 246.144C91.5056 245.488 93.0331 246.99 93.832 249.457ZM89.4155 250.973C90.0808 253.025 90.9781 253.904 91.8431 253.624C92.7855 253.319 92.8952 252.028 92.244 250.014C91.6125 248.064 90.7882 247.061 89.8332 247.371C88.9935 247.642 88.7389 248.88 89.4155 250.972V250.973Z" fill="#E7D4F4"/>
<path d="M101.72 246.903C102.598 249.615 102.087 251.648 100.073 252.3C98.149 252.923 96.5483 251.501 95.7072 248.949C94.8591 246.329 95.4048 244.226 97.3669 243.59C99.3938 242.934 100.921 244.436 101.72 246.903ZM97.3036 248.419C97.9689 250.471 98.8663 251.35 99.7313 251.07C100.674 250.765 100.783 249.474 100.132 247.461C99.5007 245.512 98.6764 244.509 97.7214 244.818C96.8817 245.09 96.6271 246.328 97.3036 248.419Z" fill="#E7D4F4"/>
<path d="M109.608 244.348C110.486 247.06 109.975 249.094 107.961 249.747C106.037 250.37 104.436 248.948 103.595 246.396C102.747 243.776 103.293 241.673 105.255 241.037C107.281 240.381 108.809 241.883 109.608 244.35V244.348ZM105.191 245.865C105.857 247.917 106.754 248.796 107.619 248.516C108.561 248.211 108.671 246.92 108.02 244.907C107.388 242.957 106.564 241.954 105.609 242.264C104.769 242.535 104.515 243.773 105.191 245.865Z" fill="#E7D4F4"/>
<path d="M124.776 239.437C125.654 242.149 125.143 244.183 123.129 244.834C121.205 245.457 119.604 244.035 118.763 241.483C117.915 238.863 118.46 236.76 120.423 236.125C122.449 235.468 123.977 236.97 124.776 239.437ZM120.359 240.953C121.025 243.005 121.922 243.884 122.787 243.605C123.729 243.299 123.839 242.008 123.188 239.994C122.556 238.045 121.732 237.042 120.777 237.351C119.937 237.623 119.683 238.86 120.359 240.952V240.953Z" fill="#E7D4F4"/>
<path d="M132.664 236.883C133.541 239.595 133.031 241.628 131.016 242.28C129.092 242.903 127.492 241.481 126.651 238.929C125.802 236.309 126.348 234.206 128.31 233.57C130.337 232.914 131.865 234.416 132.664 236.883ZM128.247 238.399C128.912 240.451 129.81 241.33 130.675 241.05C131.617 240.745 131.727 239.454 131.076 237.44C130.444 235.49 129.62 234.487 128.665 234.797C127.825 235.068 127.57 236.306 128.247 238.398V238.399Z" fill="#E7D4F4"/>
<path d="M140.552 234.328C141.43 237.04 140.919 239.074 138.905 239.727C136.981 240.35 135.38 238.928 134.539 236.376C133.691 233.756 134.237 231.653 136.199 231.017C138.226 230.361 139.753 231.863 140.552 234.33V234.328ZM136.136 235.845C136.801 237.897 137.698 238.776 138.563 238.496C139.506 238.191 139.615 236.9 138.964 234.885C138.333 232.936 137.508 231.933 136.553 232.243C135.714 232.514 135.459 233.752 136.136 235.843V235.845Z" fill="#E7D4F4"/>
<path d="M148.439 231.774C149.317 234.486 148.807 236.52 146.792 237.171C144.868 237.794 143.268 236.372 142.426 233.82C141.578 231.2 142.124 229.097 144.086 228.462C146.113 227.805 147.64 229.307 148.439 231.774ZM144.023 233.289C144.688 235.341 145.586 236.22 146.451 235.94C147.393 235.635 147.503 234.344 146.851 232.329C146.22 230.38 145.396 229.377 144.441 229.687C143.601 229.958 143.346 231.196 144.023 233.287V233.289Z" fill="#E7D4F4"/>
<path d="M163.608 226.862C164.486 229.574 163.975 231.608 161.961 232.259C160.037 232.882 158.436 231.46 157.595 228.909C156.747 226.288 157.293 224.186 159.255 223.55C161.281 222.893 162.809 224.395 163.608 226.862ZM159.191 228.379C159.857 230.431 160.754 231.31 161.619 231.03C162.561 230.725 162.671 229.433 162.018 227.421C161.387 225.471 160.563 224.468 159.608 224.778C158.768 225.049 158.513 226.287 159.19 228.379H159.191Z" fill="#E7D4F4"/>
<path d="M171.496 224.308C172.373 227.02 171.863 229.054 169.849 229.705C167.924 230.328 166.324 228.906 165.483 226.355C164.634 223.734 165.18 221.631 167.142 220.996C169.169 220.339 170.697 221.841 171.496 224.308ZM167.079 225.824C167.744 227.876 168.642 228.756 169.507 228.476C170.449 228.17 170.559 226.879 169.908 224.865C169.276 222.916 168.452 221.913 167.497 222.222C166.657 222.494 166.402 223.731 167.08 225.823L167.079 225.824Z" fill="#E7D4F4"/>
<path d="M179.384 221.755C180.261 224.467 179.751 226.501 177.737 227.152C175.813 227.775 174.212 226.353 173.371 223.802C172.523 221.181 173.068 219.079 175.031 218.443C177.057 217.786 178.585 219.288 179.384 221.755ZM174.967 223.27C175.633 225.322 176.53 226.201 177.395 225.922C178.337 225.616 178.447 224.325 177.796 222.311C177.164 220.361 176.34 219.359 175.385 219.668C174.545 219.939 174.291 221.177 174.969 223.269L174.967 223.27Z" fill="#E7D4F4"/>
<path d="M187.27 219.201C188.148 221.913 187.637 223.947 185.623 224.598C183.699 225.221 182.098 223.799 181.257 221.247C180.409 218.627 180.955 216.524 182.917 215.889C184.944 215.232 186.471 216.734 187.27 219.201ZM182.853 220.716C183.519 222.769 184.416 223.647 185.281 223.367C186.224 223.062 186.333 221.771 185.681 219.756C185.049 217.807 184.225 216.804 183.27 217.114C182.43 217.385 182.175 218.623 182.852 220.714L182.853 220.716Z" fill="#E7D4F4"/>
<path d="M202.439 214.289C203.317 217.001 202.807 219.035 200.792 219.688C198.868 220.311 197.268 218.889 196.426 216.337C195.578 213.717 196.124 211.614 198.086 210.978C200.113 210.321 201.64 211.824 202.439 214.291V214.289ZM198.023 215.806C198.688 217.858 199.586 218.737 200.451 218.457C201.393 218.152 201.503 216.86 200.85 214.846C200.218 212.897 199.394 211.894 198.439 212.203C197.6 212.475 197.345 213.713 198.021 215.804L198.023 215.806Z" fill="#E7D4F4"/>
<path d="M210.326 211.735C211.204 214.447 210.693 216.48 208.679 217.132C206.756 217.755 205.154 216.333 204.313 213.781C203.465 211.161 204.011 209.058 205.973 208.422C208 207.766 209.527 209.268 210.326 211.735ZM205.91 213.25C206.575 215.302 207.472 216.181 208.337 215.901C209.28 215.596 209.389 214.305 208.737 212.292C208.105 210.342 207.281 209.339 206.326 209.649C205.486 209.92 205.232 211.158 205.908 213.25H205.91Z" fill="#E7D4F4"/>
<path d="M218.213 209.181C219.091 211.893 218.58 213.927 216.566 214.578C214.642 215.201 213.041 213.779 212.2 211.227C211.352 208.607 211.898 206.504 213.86 205.868C215.887 205.212 217.414 206.714 218.213 209.181ZM213.797 210.696C214.462 212.748 215.359 213.627 216.224 213.347C217.167 213.042 217.277 211.751 216.625 209.736C215.994 207.787 215.17 206.784 214.215 207.094C213.375 207.365 213.12 208.603 213.798 210.694L213.797 210.696Z" fill="#E7D4F4"/>
<path d="M226.102 206.626C226.98 209.338 226.47 211.372 224.455 212.025C222.531 212.648 220.931 211.226 220.09 208.674C219.241 206.054 219.787 203.951 221.749 203.316C223.776 202.659 225.304 204.161 226.102 206.628V206.626ZM221.686 208.143C222.351 210.195 223.249 211.074 224.114 210.794C225.056 210.489 225.166 209.198 224.513 207.185C223.882 205.235 223.057 204.233 222.102 204.542C221.263 204.813 221.008 206.051 221.685 208.143H221.686Z" fill="#E7D4F4"/>
<path d="M161.184 271.302V278.834C161.184 280.276 159.932 281.456 158.405 281.456H152.683C151.156 281.456 149.904 280.276 149.904 278.834V271.302C149.904 269.86 151.156 268.68 152.683 268.68H158.405C159.932 268.68 161.184 269.86 161.184 271.302Z" fill="#92AFF2"/>
<path d="M161.184 271.302V275.498C161.184 276.939 159.932 278.119 158.405 278.119H152.683C151.156 278.119 149.904 276.939 149.904 275.498V271.302C149.904 269.86 151.156 268.68 152.683 268.68H158.405C159.932 268.68 161.184 269.86 161.184 271.302Z" fill="#AEC3FF"/>
<path d="M224.578 275.067C224.578 278.921 223.743 282.599 222.234 285.949C217.708 296 207.122 303.095 194.865 303.095H186.37C175.525 303.095 165.989 297.541 160.8 289.3C158.17 285.122 156.657 280.253 156.657 275.067C156.657 271.213 157.492 267.535 159.001 264.185C163.528 254.133 174.113 247.04 186.37 247.04H194.865C206.011 247.04 215.775 252.907 220.857 261.529C223.227 265.549 224.578 270.167 224.578 275.068V275.067Z" fill="#92AFF2"/>
<path d="M199.893 291.195L197.121 308.171C196.752 309.486 197.805 310.773 199.246 310.773H206.531C208.092 310.773 209.522 309.95 210.238 308.641L221.56 287.342L199.895 291.194L199.893 291.195Z" fill="#92AFF2"/>
<path d="M183.307 291.487L185.531 308.171C185.899 309.486 184.847 310.773 183.406 310.773H176.121C174.56 310.773 173.129 309.95 172.414 308.641L160.798 289.298L183.307 291.485V291.487Z" fill="#92AFF2"/>
<path d="M231.657 282.686C231.489 282.686 231.322 282.666 231.156 282.624C229.865 282.303 229.125 280.849 229.227 278.828C229.327 276.847 230.206 274.754 231.64 273.089C232.274 272.352 233.005 271.706 233.824 271.161C233.439 270.562 232.918 269.986 232.218 269.49C231.028 268.647 229.797 268.405 228.458 268.749C224.857 269.671 221.805 274.525 221.558 275.071C221.445 275.362 221.106 275.518 220.792 275.42C220.473 275.32 220.302 274.994 220.407 274.693C220.514 274.39 221.406 272.94 222.65 271.505C224.819 269.003 226.708 268.057 227.911 267.702C229.696 267.176 231.391 267.469 232.948 268.571C233.721 269.118 234.36 269.782 234.856 270.547C236.091 269.898 237.484 269.448 238.999 269.213C239.331 269.161 239.644 269.373 239.698 269.687C239.751 270 239.528 270.296 239.196 270.346C237.806 270.562 236.533 270.975 235.409 271.573C235.755 272.358 235.973 273.224 236.059 274.159C236.236 276.084 235.827 278.182 234.935 279.921C234.028 281.69 232.832 282.686 231.658 282.686H231.657ZM234.361 272.211C233.699 272.673 233.104 273.209 232.583 273.813C231.311 275.293 230.53 277.141 230.443 278.883C230.374 280.265 230.794 281.347 231.465 281.513C232.145 281.682 233.119 280.821 233.838 279.42C234.624 277.887 235.001 275.957 234.845 274.258C234.789 273.647 234.652 272.934 234.363 272.21L234.361 272.211ZM221.56 275.057C221.56 275.057 221.558 275.064 221.556 275.067C221.558 275.062 221.559 275.06 221.56 275.057Z" fill="#92AFF2"/>
<path d="M220.857 261.528C221.561 264.76 221.007 269.38 220.106 271.828C214.11 288.096 200.015 291.033 185.606 292.27C175.361 293.149 160.8 289.3 160.8 289.3C158.17 285.122 156.657 280.253 156.657 275.067C156.657 271.213 157.492 267.535 159.001 264.185C163.528 254.133 174.113 247.04 186.37 247.04H194.865C206.011 247.04 215.775 252.907 220.857 261.529V261.528Z" fill="#AEC3FF"/>
<path d="M182.866 254.062H171.179C170 254.062 169.045 253.387 169.045 252.554V237.503C169.045 237.245 169.131 237.012 169.278 236.809C169.849 236.027 171.352 235.704 172.47 236.301C176.907 238.674 184.176 243.831 184.995 252.451C185.078 253.322 184.101 254.062 182.866 254.062Z" fill="#AEC3FF"/>
<path d="M171.654 254.062H171.179C170 254.062 169.045 253.387 169.045 252.554V237.503C169.045 237.245 169.131 237.012 169.278 236.809C169.329 236.85 169.377 236.893 169.423 236.943C171.962 239.608 175.62 244.846 174.591 252.183C174.44 253.249 173.173 254.063 171.655 254.063L171.654 254.062Z" fill="#92AFF2"/>
<path d="M165.495 264.123C165.495 263.216 166.274 262.48 167.236 262.48C168.198 262.48 168.977 263.216 168.977 264.123C168.977 265.03 168.198 265.766 167.236 265.766C166.274 265.766 165.495 265.03 165.495 264.123Z" fill="#2B478B"/>
<path d="M206.32 307.817V309.948C206.32 310.117 206.382 310.274 206.488 310.406C206.599 310.544 206.759 310.652 206.946 310.713C207.004 310.733 207.063 310.747 207.125 310.755C207.181 310.764 207.239 310.768 207.298 310.768H247.696C248.185 310.768 248.592 310.464 248.664 310.07C248.668 310.043 248.671 310.017 248.673 309.99C248.673 309.976 248.673 309.962 248.673 309.948V307.817C248.673 307.803 248.673 307.789 248.673 307.775C248.673 307.747 248.667 307.72 248.664 307.694C248.592 307.301 248.185 306.997 247.696 306.997H207.298C207.239 306.997 207.181 307.001 207.125 307.009C207.063 307.018 207.004 307.033 206.946 307.052C206.759 307.112 206.599 307.22 206.488 307.358C206.382 307.489 206.32 307.647 206.32 307.817Z" fill="#FFB93E"/>
<path d="M226.157 310.768H247.801C248.201 310.768 248.539 310.509 248.64 310.16C248.65 310.131 248.659 310.101 248.664 310.07C248.668 310.043 248.671 310.017 248.673 309.99C248.673 309.976 248.673 309.962 248.673 309.948V307.817C248.673 307.803 248.673 307.789 248.673 307.775C248.673 307.747 248.667 307.72 248.664 307.694C248.659 307.664 248.65 307.634 248.64 307.604C248.539 307.256 248.201 306.997 247.801 306.997H228.815C228.513 308.108 227.805 309.643 226.157 310.768Z" fill="#FFA412"/>
<path d="M211.236 310.768H211.694V306.997H211.236V310.768Z" fill="#FFA412"/>
<path d="M212.79 310.768H213.249V306.997H212.79V310.768Z" fill="#FFA412"/>
<path d="M214.654 310.768H215.112V306.997H214.654V310.768Z" fill="#FFA412"/>
<path d="M217.51 310.768H217.969V306.997H217.51V310.768Z" fill="#FFA412"/>
<path d="M220.531 310.768H220.99V306.997H220.531V310.768Z" fill="#FFA412"/>
<path d="M225.164 310.768H225.623V306.997H225.164V310.768Z" fill="#FFA412"/>
<path d="M229.499 310.768H229.958V306.997H229.499V310.768Z" fill="#FFA412"/>
<path d="M233.372 310.768H233.83V306.997H233.372V310.768Z" fill="#FFA412"/>
<path d="M209.756 310.768H210.215V306.997H209.756V310.768Z" fill="#FFA412"/>
<path d="M208.781 310.768H209.239V306.997H208.781V310.768Z" fill="#FFA412"/>
<path d="M207.836 310.768H208.294V306.997H207.836V310.768Z" fill="#FFA412"/>
<path d="M207.125 307.009V310.755C207.181 310.764 207.239 310.768 207.297 310.768H207.584V306.997H207.297C207.238 306.997 207.18 307.001 207.125 307.009Z" fill="#FFA412"/>
<path d="M206.487 307.358V310.405C206.598 310.542 206.759 310.651 206.946 310.711V307.05C206.759 307.111 206.598 307.219 206.487 307.357V307.358Z" fill="#FFA412"/>
<path d="M210.64 304.046V306.175C210.64 306.346 210.702 306.503 210.806 306.635C210.834 306.669 210.865 306.703 210.899 306.732C211 306.824 211.125 306.897 211.266 306.942C211.322 306.96 211.383 306.974 211.445 306.984C211.501 306.993 211.559 306.998 211.616 306.998H252.016C252.503 306.998 252.911 306.693 252.983 306.299C252.987 306.272 252.99 306.246 252.991 306.219C252.991 306.205 252.991 306.191 252.991 306.177V304.047C252.991 304.033 252.991 304.018 252.991 304.005C252.991 303.978 252.985 303.952 252.983 303.925C252.911 303.531 252.503 303.226 252.016 303.226H211.616C211.591 303.226 211.564 303.226 211.539 303.23C211.529 303.23 211.521 303.23 211.511 303.233C211.511 303.233 211.507 303.233 211.505 303.233C211.494 303.233 211.481 303.233 211.469 303.237C211.46 303.237 211.452 303.24 211.443 303.241C211.381 303.25 211.321 303.264 211.265 303.283C211.231 303.295 211.197 303.307 211.166 303.321C211.145 303.331 211.124 303.341 211.103 303.351C211.092 303.357 211.079 303.365 211.068 303.371C211.056 303.376 211.045 303.383 211.035 303.39C210.993 303.416 210.954 303.445 210.917 303.478C210.905 303.487 210.895 303.499 210.883 303.509C210.876 303.514 210.869 303.521 210.864 303.527C210.86 303.531 210.857 303.534 210.854 303.538L210.845 303.547C210.833 303.559 210.82 303.573 210.809 303.589C210.705 303.72 210.643 303.877 210.643 304.047L210.64 304.046Z" fill="#FFB93E"/>
<path d="M230.478 306.997H252.121C252.522 306.997 252.86 306.737 252.96 306.388C252.97 306.358 252.978 306.329 252.984 306.298C252.988 306.271 252.991 306.244 252.992 306.218C252.992 306.204 252.992 306.19 252.992 306.176V304.046C252.992 304.032 252.992 304.016 252.992 304.004C252.992 303.977 252.986 303.95 252.984 303.924C252.978 303.893 252.97 303.863 252.96 303.834C252.86 303.485 252.522 303.225 252.121 303.225H233.136C233.129 303.256 233.119 303.286 233.109 303.317C232.793 304.419 232.081 305.903 230.478 306.996V306.997Z" fill="#FFA412"/>
<path d="M215.556 306.997H216.014V303.226H215.556V306.997Z" fill="#FFA412"/>
<path d="M217.11 306.997H217.569V303.226H217.11V306.997Z" fill="#FFA412"/>
<path d="M218.974 306.997H219.432V303.226H218.974V306.997Z" fill="#FFA412"/>
<path d="M221.831 306.997H222.289V303.226H221.831V306.997Z" fill="#FFA412"/>
<path d="M224.852 306.997H225.311V303.226H224.852V306.997Z" fill="#FFA412"/>
<path d="M229.483 306.997H229.942V303.226H229.483V306.997Z" fill="#FFA412"/>
<path d="M233.82 306.997H234.278V303.226H233.82V306.997Z" fill="#FFA412"/>
<path d="M237.692 306.997H238.151V303.226H237.692V306.997Z" fill="#FFA412"/>
<path d="M214.076 306.997H214.535V303.226H214.076V306.997Z" fill="#FFA412"/>
<path d="M213.099 306.997H213.557V303.226H213.099V306.997Z" fill="#FFA412"/>
<path d="M212.154 306.997H212.613V303.226H212.154V306.997Z" fill="#FFA412"/>
<path d="M211.444 303.237V306.983C211.501 306.991 211.558 306.996 211.617 306.996H211.904V303.225H211.617C211.558 303.225 211.501 303.229 211.444 303.237Z" fill="#FFA412"/>
<path d="M210.807 303.588V306.634C210.918 306.772 211.079 306.88 211.266 306.941V303.28C211.079 303.34 210.918 303.448 210.807 303.586V303.588Z" fill="#FFA412"/>
<path d="M208.553 300.368V302.499C208.553 302.667 208.615 302.825 208.72 302.957C208.831 303.095 208.99 303.203 209.179 303.264C209.235 303.282 209.295 303.296 209.357 303.307C209.414 303.314 209.471 303.32 209.529 303.32H249.929C250.091 303.32 250.244 303.286 250.379 303.227C250.646 303.109 250.843 302.89 250.894 302.631C250.898 302.612 250.899 302.596 250.901 302.577C250.901 302.566 250.904 302.553 250.904 302.541C250.904 302.527 250.904 302.513 250.904 302.499V300.368C250.904 300.354 250.904 300.339 250.904 300.325C250.904 300.299 250.899 300.271 250.895 300.247C250.823 299.851 250.416 299.548 249.929 299.548H209.529C209.471 299.548 209.412 299.552 209.357 299.56C209.295 299.569 209.235 299.583 209.179 299.602C208.99 299.664 208.831 299.773 208.72 299.91C208.615 300.041 208.553 300.199 208.553 300.369V300.368Z" fill="#FFB93E"/>
<path d="M228.391 303.317H250.034C250.179 303.317 250.316 303.284 250.435 303.224C250.676 303.106 250.85 302.887 250.895 302.628C250.899 302.61 250.901 302.593 250.902 302.575C250.902 302.563 250.905 302.551 250.905 302.538C250.905 302.524 250.905 302.51 250.905 302.496V300.365C250.905 300.351 250.905 300.337 250.905 300.323C250.905 300.296 250.901 300.268 250.897 300.244C250.891 300.214 250.883 300.185 250.874 300.157C250.776 299.807 250.437 299.545 250.034 299.545H231.049C230.754 300.624 230.077 302.106 228.524 303.223C228.482 303.254 228.437 303.286 228.392 303.316L228.391 303.317Z" fill="#FFA412"/>
<path d="M213.469 303.317H213.927V299.546H213.469V303.317Z" fill="#FFA412"/>
<path d="M215.022 303.317H215.481V299.546H215.022V303.317Z" fill="#FFA412"/>
<path d="M216.886 303.317H217.345V299.546H216.886V303.317Z" fill="#FFA412"/>
<path d="M219.743 303.317H220.202V299.546H219.743V303.317Z" fill="#FFA412"/>
<path d="M222.765 303.317H223.223V299.546H222.765V303.317Z" fill="#FFA412"/>
<path d="M227.396 303.317H227.854V299.546H227.396V303.317Z" fill="#FFA412"/>
<path d="M231.733 303.317H232.191V299.546H231.733V303.317Z" fill="#FFA412"/>
<path d="M235.605 303.317H236.063V299.546H235.605V303.317Z" fill="#FFA412"/>
<path d="M211.989 303.317H212.447V299.546H211.989V303.317Z" fill="#FFA412"/>
<path d="M211.012 303.317H211.47V299.546H211.012V303.317Z" fill="#FFA412"/>
<path d="M210.068 303.317H210.526V299.546H210.068V303.317Z" fill="#FFA412"/>
<path d="M209.357 299.559V303.304C209.414 303.313 209.471 303.317 209.53 303.317H209.817V299.546H209.53C209.471 299.546 209.414 299.55 209.357 299.559Z" fill="#FFA412"/>
<path d="M208.72 299.909V302.956C208.831 303.094 208.992 303.202 209.179 303.263V299.601C208.992 299.662 208.831 299.77 208.72 299.908V299.909Z" fill="#FFA412"/>
<path d="M207.585 296.597V298.727C207.585 298.897 207.647 299.053 207.753 299.185C207.767 299.203 207.782 299.219 207.796 299.236C207.874 299.317 207.968 299.388 208.075 299.438C208.117 299.458 208.163 299.478 208.21 299.493C208.267 299.512 208.327 299.526 208.388 299.535C208.417 299.54 208.445 299.542 208.473 299.545C208.502 299.548 208.532 299.55 208.561 299.55H248.96C249.448 299.55 249.856 299.244 249.928 298.85C249.932 298.824 249.935 298.797 249.936 298.772V296.556C249.911 296.157 249.542 295.831 249.075 295.784C249.037 295.78 248.998 295.779 248.959 295.779H208.56C208.531 295.779 208.501 295.779 208.471 295.783C208.442 295.786 208.415 295.788 208.387 295.793C208.325 295.801 208.266 295.815 208.208 295.835C208.021 295.895 207.861 296.004 207.75 296.141C207.644 296.272 207.583 296.43 207.583 296.601L207.585 296.597Z" fill="#FFB93E"/>
<path d="M227.423 299.546H249.067C249.468 299.546 249.805 299.286 249.906 298.937C249.916 298.908 249.925 298.878 249.93 298.847C249.934 298.821 249.937 298.794 249.939 298.769V296.553C249.916 296.155 249.587 295.827 249.171 295.781C249.137 295.777 249.102 295.775 249.067 295.775H230.081C230.081 295.775 230.081 295.78 230.081 295.781C229.777 296.891 229.07 298.423 227.424 299.546H227.423Z" fill="#FFA412"/>
<path d="M212.501 299.546H212.959V295.775H212.501V299.546Z" fill="#FFA412"/>
<path d="M214.055 299.546H214.514V295.775H214.055V299.546Z" fill="#FFA412"/>
<path d="M215.918 299.546H216.377V295.775H215.918V299.546Z" fill="#FFA412"/>
<path d="M218.776 299.546H219.234V295.775H218.776V299.546Z" fill="#FFA412"/>
<path d="M221.797 299.546H222.255V295.775H221.797V299.546Z" fill="#FFA412"/>
<path d="M226.429 299.546H226.887V295.775H226.429V299.546Z" fill="#FFA412"/>
<path d="M230.765 299.546H231.223V295.775H230.765V299.546Z" fill="#FFA412"/>
<path d="M234.637 299.546H235.096V295.775H234.637V299.546Z" fill="#FFA412"/>
<path d="M211.021 299.546H211.48V295.775H211.021V299.546Z" fill="#FFA412"/>
<path d="M210.043 299.546H210.502V295.775H210.043V299.546Z" fill="#FFA412"/>
<path d="M209.1 299.546H209.558V295.775H209.1V299.546Z" fill="#FFA412"/>
<path d="M208.389 295.788V299.534C208.445 299.542 208.503 299.546 208.562 299.546H208.849V295.775H208.562C208.503 295.775 208.445 295.78 208.389 295.788Z" fill="#FFA412"/>
<path d="M207.753 296.137V299.183C207.864 299.321 208.024 299.43 208.211 299.49V295.829C208.024 295.889 207.864 295.998 207.753 296.135V296.137Z" fill="#FFA412"/>
<path d="M210.556 292.83V294.96C210.556 295.13 210.616 295.286 210.722 295.418C210.833 295.557 210.993 295.666 211.182 295.726C211.238 295.744 211.298 295.758 211.359 295.768C211.377 295.772 211.397 295.774 211.415 295.775H211.422C211.432 295.775 211.442 295.778 211.453 295.778C211.461 295.778 211.47 295.778 211.48 295.781C211.498 295.781 211.513 295.781 211.532 295.781H251.93C252.452 295.781 252.881 295.434 252.906 295.002C252.906 294.988 252.906 294.974 252.906 294.96V292.83C252.906 292.816 252.906 292.8 252.906 292.788C252.906 292.777 252.906 292.765 252.904 292.754C252.864 292.407 252.565 292.12 252.171 292.035C252.162 292.033 252.153 292.03 252.141 292.03C252.074 292.017 252.002 292.01 251.929 292.01H211.53C211.501 292.01 211.473 292.01 211.443 292.014C211.43 292.014 211.418 292.017 211.407 292.018H211.402C211.387 292.018 211.373 292.023 211.357 292.024C211.297 292.033 211.236 292.047 211.18 292.066C210.992 292.127 210.831 292.235 210.72 292.374C210.615 292.505 210.554 292.663 210.554 292.833L210.556 292.83Z" fill="#FFB93E"/>
<path d="M230.393 295.781H252.035C252.501 295.781 252.884 295.434 252.908 295.002C252.908 294.988 252.908 294.974 252.908 294.96V292.83C252.908 292.816 252.908 292.8 252.908 292.788C252.908 292.777 252.908 292.765 252.905 292.754C252.87 292.398 252.591 292.108 252.227 292.031C252.216 292.027 252.203 292.025 252.19 292.024C252.14 292.016 252.088 292.01 252.035 292.01H233.051C233.049 292.02 233.046 292.027 233.044 292.038C232.738 293.144 232.03 294.66 230.403 295.777C230.4 295.78 230.397 295.781 230.394 295.782L230.393 295.781Z" fill="#FFA412"/>
<path d="M215.471 295.781H215.929V292.01H215.471V295.781Z" fill="#FFA412"/>
<path d="M217.025 295.781H217.484V292.01H217.025V295.781Z" fill="#FFA412"/>
<path d="M218.889 295.781H219.348V292.01H218.889V295.781Z" fill="#FFA412"/>
<path d="M221.746 295.781H222.204V292.01H221.746V295.781Z" fill="#FFA412"/>
<path d="M224.767 295.781H225.226V292.01H224.767V295.781Z" fill="#FFA412"/>
<path d="M229.397 295.781H229.856V292.01H229.397V295.781Z" fill="#FFA412"/>
<path d="M233.734 295.781H234.192V292.01H233.734V295.781Z" fill="#FFA412"/>
<path d="M237.606 295.781H238.065V292.01H237.606V295.781Z" fill="#FFA412"/>
<path d="M213.991 295.781H214.45V292.01H213.991V295.781Z" fill="#FFA412"/>
<path d="M213.014 295.781H213.473V292.01H213.014V295.781Z" fill="#FFA412"/>
<path d="M212.07 295.781H212.529V292.01H212.07V295.781Z" fill="#FFA412"/>
<path d="M211.36 292.023V295.768C211.416 295.777 211.474 295.781 211.533 295.781H211.82V292.01H211.533C211.474 292.01 211.416 292.014 211.36 292.023Z" fill="#FFA412"/>
<path d="M210.721 292.372V295.418C210.832 295.556 210.993 295.664 211.18 295.725V292.063C210.993 292.124 210.832 292.232 210.721 292.37V292.372Z" fill="#FFA412"/>
<path d="M210.64 289.087V291.216C210.64 291.386 210.702 291.543 210.806 291.675C210.834 291.708 210.865 291.742 210.899 291.773C211 291.865 211.125 291.938 211.266 291.983C211.311 291.998 211.359 292.009 211.405 292.018H211.41C211.422 292.021 211.433 292.024 211.446 292.024C211.502 292.032 211.56 292.038 211.618 292.038H252.018C252.06 292.038 252.102 292.035 252.144 292.031C252.161 292.031 252.177 292.026 252.192 292.025C252.604 291.962 252.928 291.68 252.985 291.332C252.99 291.308 252.991 291.285 252.992 291.261C252.992 291.246 252.992 291.232 252.992 291.219V289.089C252.992 289.074 252.992 289.06 252.992 289.047C252.992 289.021 252.987 288.994 252.984 288.967C252.912 288.573 252.504 288.268 252.018 288.268H211.618C211.592 288.268 211.566 288.268 211.54 288.271C211.536 288.271 211.533 288.271 211.53 288.271C211.523 288.271 211.515 288.271 211.508 288.271C211.497 288.271 211.484 288.274 211.471 288.277C211.463 288.277 211.455 288.277 211.446 288.281C211.384 288.289 211.324 288.303 211.267 288.323C211.234 288.334 211.2 288.347 211.169 288.361C211.042 288.416 210.933 288.495 210.845 288.587C210.833 288.601 210.82 288.615 210.809 288.63C210.705 288.76 210.643 288.919 210.643 289.089L210.64 289.087Z" fill="#FFB93E"/>
<path d="M230.477 292.037H252.121C252.138 292.037 252.155 292.037 252.172 292.037C252.19 292.037 252.21 292.033 252.227 292.031C252.618 291.985 252.931 291.694 252.983 291.33C252.988 291.306 252.989 291.283 252.991 291.259C252.991 291.244 252.991 291.23 252.991 291.217V289.088C252.991 289.072 252.991 289.058 252.991 289.045C252.991 289.019 252.985 288.992 252.982 288.965C252.976 288.934 252.968 288.905 252.958 288.875C252.858 288.526 252.521 288.266 252.12 288.266H233.134C233.127 288.297 233.118 288.328 233.108 288.359C232.794 289.452 232.091 290.919 230.515 292.01C230.503 292.02 230.489 292.027 230.476 292.038L230.477 292.037Z" fill="#FFA412"/>
<path d="M215.556 292.037H216.014V288.266H215.556V292.037Z" fill="#FFA412"/>
<path d="M217.11 292.037H217.569V288.266H217.11V292.037Z" fill="#FFA412"/>
<path d="M218.974 292.037H219.432V288.266H218.974V292.037Z" fill="#FFA412"/>
<path d="M221.831 292.037H222.289V288.266H221.831V292.037Z" fill="#FFA412"/>
<path d="M224.852 292.037H225.311V288.266H224.852V292.037Z" fill="#FFA412"/>
<path d="M229.483 292.037H229.942V288.266H229.483V292.037Z" fill="#FFA412"/>
<path d="M233.82 292.037H234.278V288.266H233.82V292.037Z" fill="#FFA412"/>
<path d="M237.692 292.037H238.151V288.266H237.692V292.037Z" fill="#FFA412"/>
<path d="M214.076 292.037H214.535V288.266H214.076V292.037Z" fill="#FFA412"/>
<path d="M213.099 292.037H213.557V288.266H213.099V292.037Z" fill="#FFA412"/>
<path d="M212.154 292.037H212.613V288.266H212.154V292.037Z" fill="#FFA412"/>
<path d="M211.444 288.277V292.023C211.501 292.031 211.558 292.036 211.617 292.036H211.904V288.265H211.617C211.558 288.265 211.501 288.269 211.444 288.277Z" fill="#FFA412"/>
<path d="M210.807 288.628V291.674C210.918 291.812 211.079 291.921 211.266 291.981V288.32C211.079 288.38 210.918 288.489 210.807 288.626V288.628Z" fill="#FFA412"/>
<path d="M208.553 285.407V287.536C208.553 287.706 208.615 287.864 208.72 287.996C208.831 288.134 208.99 288.242 209.179 288.303C209.235 288.321 209.295 288.335 209.357 288.343C209.414 288.352 209.471 288.357 209.529 288.357H249.929C250.091 288.357 250.244 288.324 250.379 288.265C250.646 288.148 250.843 287.927 250.894 287.668C250.898 287.65 250.899 287.633 250.901 287.615C250.901 287.602 250.904 287.591 250.904 287.578C250.904 287.564 250.904 287.55 250.904 287.535V285.405C250.904 285.391 250.904 285.376 250.904 285.363C250.904 285.336 250.899 285.31 250.895 285.283C250.823 284.889 250.416 284.584 249.929 284.584H209.529C209.471 284.584 209.412 284.589 209.357 284.598C209.295 284.606 209.235 284.62 209.179 284.64C208.99 284.7 208.831 284.809 208.72 284.948C208.615 285.079 208.553 285.236 208.553 285.407Z" fill="#FFB93E"/>
<path d="M228.391 288.357H250.034C250.179 288.357 250.316 288.324 250.435 288.265C250.676 288.148 250.85 287.927 250.895 287.668C250.899 287.65 250.901 287.633 250.902 287.615C250.902 287.602 250.905 287.591 250.905 287.578C250.905 287.564 250.905 287.55 250.905 287.535V285.405C250.905 285.391 250.905 285.376 250.905 285.363C250.905 285.336 250.901 285.31 250.897 285.283C250.891 285.253 250.883 285.224 250.874 285.196C250.776 284.845 250.437 284.584 250.034 284.584H231.049C230.754 285.664 230.077 287.146 228.524 288.263C228.482 288.294 228.437 288.325 228.392 288.356L228.391 288.357Z" fill="#FFA412"/>
<path d="M213.469 288.357H213.927V284.586H213.469V288.357Z" fill="#FFA412"/>
<path d="M215.022 288.357H215.481V284.586H215.022V288.357Z" fill="#FFA412"/>
<path d="M216.886 288.357H217.345V284.586H216.886V288.357Z" fill="#FFA412"/>
<path d="M219.743 288.357H220.202V284.586H219.743V288.357Z" fill="#FFA412"/>
<path d="M222.765 288.357H223.223V284.586H222.765V288.357Z" fill="#FFA412"/>
<path d="M227.396 288.357H227.854V284.586H227.396V288.357Z" fill="#FFA412"/>
<path d="M231.733 288.357H232.191V284.586H231.733V288.357Z" fill="#FFA412"/>
<path d="M235.605 288.357H236.063V284.586H235.605V288.357Z" fill="#FFA412"/>
<path d="M211.989 288.357H212.447V284.586H211.989V288.357Z" fill="#FFA412"/>
<path d="M211.012 288.357H211.47V284.586H211.012V288.357Z" fill="#FFA412"/>
<path d="M210.068 288.357H210.526V284.586H210.068V288.357Z" fill="#FFA412"/>
<path d="M209.357 284.599V288.345C209.414 288.353 209.471 288.357 209.53 288.357H209.817V284.586H209.53C209.471 284.586 209.414 284.591 209.357 284.599Z" fill="#FFA412"/>
<path d="M208.72 284.949V287.996C208.831 288.134 208.992 288.242 209.179 288.303V284.641C208.992 284.702 208.831 284.81 208.72 284.948V284.949Z" fill="#FFA412"/>
<path d="M205.251 281.637V283.768C205.251 283.936 205.313 284.094 205.417 284.225C205.431 284.243 205.447 284.26 205.461 284.277C205.523 284.343 205.595 284.399 205.676 284.445C205.717 284.468 205.759 284.489 205.804 284.507C205.825 284.516 205.848 284.526 205.873 284.533C205.929 284.551 205.99 284.565 206.052 284.575C206.108 284.583 206.166 284.588 206.223 284.588H246.623C247.11 284.588 247.518 284.284 247.59 283.89C247.595 283.863 247.597 283.836 247.598 283.81C247.598 283.796 247.598 283.782 247.598 283.768V281.637C247.598 281.623 247.598 281.608 247.598 281.594C247.574 281.195 247.206 280.869 246.737 280.822C246.699 280.817 246.661 280.815 246.622 280.815H206.222C206.164 280.815 206.105 280.821 206.05 280.828C205.988 280.838 205.928 280.852 205.872 280.87C205.707 280.923 205.566 281.012 205.458 281.126C205.443 281.143 205.427 281.158 205.415 281.177C205.31 281.309 205.249 281.465 205.249 281.635L205.251 281.637Z" fill="#FFB93E"/>
<path d="M225.088 284.585H246.732C247.134 284.585 247.473 284.325 247.571 283.975C247.58 283.947 247.588 283.917 247.594 283.887C247.6 283.861 247.601 283.834 247.602 283.807C247.602 283.793 247.602 283.779 247.602 283.765V281.634C247.602 281.62 247.602 281.606 247.602 281.592C247.581 281.193 247.252 280.866 246.834 280.82C246.801 280.814 246.767 280.813 246.73 280.813H227.745C227.745 280.813 227.745 280.817 227.745 280.82C227.441 281.93 226.734 283.461 225.088 284.584V284.585Z" fill="#FFA412"/>
<path d="M210.166 284.587H210.625V280.816H210.166V284.587Z" fill="#FFA412"/>
<path d="M211.722 284.587H212.18V280.816H211.722V284.587Z" fill="#FFA412"/>
<path d="M213.584 284.587H214.042V280.816H213.584V284.587Z" fill="#FFA412"/>
<path d="M216.442 284.587H216.9V280.816H216.442V284.587Z" fill="#FFA412"/>
<path d="M219.463 284.587H219.921V280.816H219.463V284.587Z" fill="#FFA412"/>
<path d="M224.095 284.587H224.553V280.816H224.095V284.587Z" fill="#FFA412"/>
<path d="M228.432 284.587H228.89V280.816H228.432V284.587Z" fill="#FFA412"/>
<path d="M232.302 284.587H232.76V280.816H232.302V284.587Z" fill="#FFA412"/>
<path d="M208.687 284.587H209.146V280.816H208.687V284.587Z" fill="#FFA412"/>
<path d="M207.709 284.587H208.168V280.816H207.709V284.587Z" fill="#FFA412"/>
<path d="M206.767 284.587H207.225V280.816H206.767V284.587Z" fill="#FFA412"/>
<path d="M206.056 280.828V284.574C206.112 284.582 206.17 284.587 206.229 284.587H206.516V280.816H206.229C206.17 280.816 206.112 280.82 206.056 280.828Z" fill="#FFA412"/>
<path d="M205.417 281.177V284.223C205.529 284.361 205.689 284.469 205.876 284.53V280.869C205.689 280.929 205.529 281.037 205.417 281.175V281.177Z" fill="#FFA412"/>
<path d="M210.556 277.87V280C210.556 280.17 210.616 280.326 210.722 280.458C210.833 280.598 210.993 280.706 211.182 280.766C211.238 280.785 211.298 280.799 211.359 280.809C211.377 280.811 211.397 280.814 211.415 280.816H211.422C211.435 280.818 211.447 280.818 211.46 280.82C211.467 280.82 211.475 280.82 211.483 280.82C211.499 280.82 211.513 280.82 211.53 280.82H251.929C252.279 280.82 252.589 280.664 252.76 280.429C252.845 280.315 252.897 280.183 252.905 280.042C252.905 280.026 252.905 280.012 252.905 280V277.87C252.905 277.855 252.905 277.841 252.905 277.828C252.884 277.478 252.597 277.184 252.212 277.085C252.122 277.061 252.026 277.049 251.927 277.049H211.529C211.511 277.049 211.495 277.049 211.477 277.049C211.468 277.049 211.46 277.049 211.452 277.052C211.419 277.052 211.387 277.057 211.356 277.061C211.295 277.07 211.235 277.084 211.179 277.104C211.149 277.112 211.122 277.122 211.096 277.135C210.989 277.178 210.893 277.239 210.813 277.312C210.813 277.312 210.81 277.315 210.809 277.317C210.805 277.322 210.802 277.323 210.798 277.327C210.769 277.353 210.744 277.381 210.72 277.409C210.615 277.54 210.554 277.697 210.554 277.869L210.556 277.87Z" fill="#FFB93E"/>
<path d="M230.393 280.821H252.035C252.339 280.821 252.609 280.672 252.765 280.449C252.848 280.331 252.9 280.191 252.908 280.042C252.908 280.027 252.908 280.013 252.908 280V277.871C252.908 277.855 252.908 277.841 252.908 277.828C252.886 277.453 252.594 277.142 252.213 277.067C252.156 277.056 252.096 277.051 252.035 277.051H233.051C233.044 277.08 233.035 277.108 233.026 277.138C232.712 278.238 232.001 279.72 230.403 280.816C230.4 280.816 230.397 280.82 230.394 280.823L230.393 280.821Z" fill="#FFA412"/>
<path d="M215.471 280.821H215.929V277.05H215.471V280.821Z" fill="#FFA412"/>
<path d="M217.025 280.821H217.484V277.05H217.025V280.821Z" fill="#FFA412"/>
<path d="M218.889 280.821H219.348V277.05H218.889V280.821Z" fill="#FFA412"/>
<path d="M221.746 280.821H222.204V277.05H221.746V280.821Z" fill="#FFA412"/>
<path d="M224.767 280.821H225.226V277.05H224.767V280.821Z" fill="#FFA412"/>
<path d="M229.397 280.821H229.856V277.05H229.397V280.821Z" fill="#FFA412"/>
<path d="M233.734 280.821H234.192V277.05H233.734V280.821Z" fill="#FFA412"/>
<path d="M237.606 280.821H238.065V277.05H237.606V280.821Z" fill="#FFA412"/>
<path d="M213.991 280.821H214.45V277.05H213.991V280.821Z" fill="#FFA412"/>
<path d="M213.014 280.821H213.473V277.05H213.014V280.821Z" fill="#FFA412"/>
<path d="M212.07 280.821H212.529V277.05H212.07V280.821Z" fill="#FFA412"/>
<path d="M211.36 277.063V280.809C211.416 280.817 211.474 280.821 211.533 280.821H211.82V277.051H211.533C211.474 277.051 211.416 277.055 211.36 277.063Z" fill="#FFA412"/>
<path d="M210.721 277.412V280.458C210.832 280.596 210.993 280.705 211.18 280.765V277.104C210.993 277.164 210.832 277.273 210.721 277.41V277.412Z" fill="#FFA412"/>
<path d="M207.585 274.185V276.315C207.585 276.485 207.647 276.642 207.753 276.773C207.864 276.911 208.024 277.019 208.211 277.08C208.269 277.1 208.328 277.114 208.39 277.122C208.446 277.13 208.504 277.135 208.563 277.135H248.962C249.118 277.135 249.267 277.104 249.398 277.048C249.692 276.924 249.903 276.678 249.935 276.389C249.935 276.378 249.938 276.367 249.938 276.355C249.938 276.341 249.938 276.327 249.938 276.313V274.184C249.938 274.17 249.938 274.156 249.938 274.142C249.914 273.742 249.544 273.416 249.077 273.369C249.039 273.365 249.001 273.364 248.962 273.364H208.563C208.504 273.364 208.446 273.368 208.39 273.376C208.328 273.385 208.269 273.399 208.211 273.419C208.024 273.479 207.864 273.587 207.753 273.725C207.647 273.856 207.585 274.014 207.585 274.184V274.185Z" fill="#FFB93E"/>
<path d="M227.423 277.136H249.067C249.207 277.136 249.34 277.105 249.456 277.049C249.719 276.925 249.906 276.679 249.936 276.391C249.936 276.379 249.939 276.368 249.939 276.357C249.939 276.343 249.939 276.329 249.939 276.315V274.185C249.939 274.171 249.939 274.157 249.939 274.143C249.918 273.744 249.587 273.417 249.171 273.371C249.137 273.367 249.103 273.365 249.068 273.365H230.083C230.083 273.365 230.083 273.369 230.081 273.371C229.786 274.452 229.106 275.935 227.549 277.049C227.509 277.079 227.468 277.108 227.426 277.136H227.423Z" fill="#FFA412"/>
<path d="M212.501 277.136H212.959V273.365H212.501V277.136Z" fill="#FFA412"/>
<path d="M214.055 277.136H214.514V273.365H214.055V277.136Z" fill="#FFA412"/>
<path d="M215.918 277.136H216.377V273.365H215.918V277.136Z" fill="#FFA412"/>
<path d="M218.775 277.136H219.233V273.365H218.775V277.136Z" fill="#FFA412"/>
<path d="M221.797 277.136H222.255V273.365H221.797V277.136Z" fill="#FFA412"/>
<path d="M226.429 277.136H226.887V273.365H226.429V277.136Z" fill="#FFA412"/>
<path d="M230.765 277.136H231.223V273.365H230.765V277.136Z" fill="#FFA412"/>
<path d="M234.637 277.136H235.096V273.365H234.637V277.136Z" fill="#FFA412"/>
<path d="M211.021 277.136H211.48V273.365H211.021V277.136Z" fill="#FFA412"/>
<path d="M210.043 277.136H210.502V273.365H210.043V277.136Z" fill="#FFA412"/>
<path d="M209.1 277.136H209.558V273.365H209.1V277.136Z" fill="#FFA412"/>
<path d="M208.39 273.378V277.123C208.446 277.132 208.504 277.136 208.563 277.136H208.85V273.365H208.563C208.504 273.365 208.446 273.369 208.39 273.378Z" fill="#FFA412"/>
<path d="M207.753 273.727V276.773C207.864 276.911 208.024 277.019 208.211 277.08V273.419C208.024 273.479 207.864 273.587 207.753 273.725V273.727Z" fill="#FFA412"/>
<path d="M206.32 270.42V272.549C206.32 272.72 206.382 272.877 206.488 273.008C206.599 273.146 206.759 273.254 206.946 273.315C207.004 273.334 207.063 273.348 207.125 273.357C207.143 273.36 207.163 273.362 207.181 273.364C207.191 273.364 207.202 273.365 207.213 273.367C207.223 273.367 207.235 273.367 207.246 273.368C207.263 273.368 207.281 273.368 207.298 273.368H247.696C248.217 273.368 248.646 273.022 248.673 272.589C248.673 272.575 248.673 272.561 248.673 272.547V270.417C248.673 270.403 248.673 270.389 248.673 270.375C248.646 269.943 248.217 269.596 247.696 269.596H207.298C207.239 269.596 207.181 269.6 207.126 269.608C207.064 269.617 207.005 269.631 206.948 269.651C206.761 269.711 206.6 269.819 206.489 269.957C206.384 270.088 206.322 270.246 206.322 270.416L206.32 270.42Z" fill="#FFB93E"/>
<path d="M226.158 273.371H247.802C248.266 273.371 248.65 273.025 248.674 272.592C248.674 272.578 248.674 272.564 248.674 272.55V270.42C248.674 270.406 248.674 270.392 248.674 270.378C248.65 269.946 248.268 269.599 247.802 269.599H228.817C228.514 270.707 227.809 272.239 226.167 273.364C226.164 273.365 226.161 273.368 226.158 273.37V273.371Z" fill="#FFA412"/>
<path d="M211.236 273.371H211.694V269.6H211.236V273.371Z" fill="#FFA412"/>
<path d="M212.79 273.371H213.249V269.6H212.79V273.371Z" fill="#FFA412"/>
<path d="M214.654 273.371H215.112V269.6H214.654V273.371Z" fill="#FFA412"/>
<path d="M217.51 273.371H217.969V269.6H217.51V273.371Z" fill="#FFA412"/>
<path d="M220.531 273.371H220.99V269.6H220.531V273.371Z" fill="#FFA412"/>
<path d="M225.164 273.371H225.623V269.6H225.164V273.371Z" fill="#FFA412"/>
<path d="M229.499 273.371H229.958V269.6H229.499V273.371Z" fill="#FFA412"/>
<path d="M233.831 269.6H233.371V273.371H233.831V269.6Z" fill="#FFA412"/>
<path d="M209.756 273.371H210.215V269.6H209.756V273.371Z" fill="#FFA412"/>
<path d="M208.781 273.371H209.239V269.6H208.781V273.371Z" fill="#FFA412"/>
<path d="M207.836 273.371H208.294V269.6H207.836V273.371Z" fill="#FFA412"/>
<path d="M207.125 269.613V273.358C207.181 273.367 207.239 273.371 207.298 273.371H207.585V269.6H207.298C207.239 269.6 207.181 269.604 207.125 269.613Z" fill="#FFA412"/>
<path d="M206.487 269.961V273.008C206.598 273.146 206.759 273.254 206.946 273.314V269.653C206.759 269.714 206.598 269.822 206.487 269.96V269.961Z" fill="#FFA412"/>
<path d="M219.125 248.107C219.125 248.107 221.248 251.094 223.193 251.135C225.138 251.176 228.098 249.751 228.098 249.751C228.098 249.751 229.884 245.77 228.672 244.212C228.672 244.212 227.456 243.679 226.186 244.62C225.968 244.783 225.747 244.987 225.528 245.25C225.22 245.62 224.874 245.831 224.507 245.942C223.119 246.364 221.472 245.371 220.855 246.33C220.495 246.887 220.104 247.306 219.782 247.6C219.401 247.939 219.124 248.105 219.124 248.105L219.125 248.107Z" fill="#FFEDDC"/>
<path d="M246.787 269.654C246.787 269.654 239.288 251.482 225.788 251.136C225.788 251.136 213.326 252.52 212.634 269.654H246.787Z" fill="#FFEDDC"/>
<path d="M229.487 251.69C229.487 251.69 224.076 252.893 222.407 252.187C222.407 252.187 222.155 249.924 224.434 250.242C225.993 250.458 227.009 249.709 227.607 249.405C228.452 248.974 229.712 250.744 229.487 251.69Z" fill="#CA534B"/>
<path d="M224.779 248.28C225.125 248.54 226.188 244.621 226.188 244.621C225.97 244.784 225.749 244.988 225.53 245.251C225.222 245.621 224.876 245.832 224.508 245.943C224.506 246.057 224.442 248.027 224.779 248.28Z" fill="#E5C1A1"/>
<path d="M219.784 247.601C219.86 247.646 222.362 249.146 222.702 249.146C223.043 249.146 220.857 246.331 220.857 246.331C220.497 246.888 220.106 247.307 219.784 247.601Z" fill="#E5C1A1"/>
<path d="M239.461 264.577C239.601 264.459 234.154 256.558 232.654 256.501C231.154 256.443 227.784 258.231 225.344 258.463C222.904 258.693 220.539 258.001 220.076 259.443C219.615 260.885 218.346 265.999 219.124 266.818C219.903 267.636 236.465 267.137 239.46 264.578L239.461 264.577Z" fill="#F9DDBF"/>
<path opacity="0.5" d="M234.333 292.009C234.333 292.018 234.333 292.027 234.336 292.037C234.406 293.303 234.61 294.554 234.942 295.775C234.942 295.775 234.942 295.78 234.942 295.781C234.99 295.958 235.041 296.134 235.094 296.31C235.433 297.422 235.878 298.507 236.426 299.546C237.114 300.853 237.962 302.089 238.964 303.224C238.99 303.255 239.019 303.288 239.045 303.317C240.297 304.719 241.782 305.964 243.484 306.995C243.843 307.213 244.21 307.421 244.587 307.62C244.842 307.753 245.098 307.88 245.355 308.002C245.601 308.144 245.861 308.267 246.106 308.417C246.818 308.852 247.707 309.198 248.673 309.474V307.815C248.673 307.801 248.673 307.787 248.673 307.773C248.673 307.745 248.667 307.718 248.665 307.693C248.659 307.662 248.65 307.632 248.641 307.603C248.539 307.254 248.202 306.995 247.801 306.995H252.12C252.521 306.995 252.859 306.735 252.959 306.386C252.969 306.357 252.977 306.327 252.983 306.296C252.987 306.269 252.99 306.243 252.991 306.216C252.991 306.202 252.991 306.188 252.991 306.174V304.044C252.991 304.03 252.991 304.015 252.991 304.002C252.991 303.975 252.985 303.949 252.983 303.922C252.977 303.891 252.969 303.861 252.959 303.832C252.859 303.483 252.521 303.223 252.12 303.223H250.434C250.674 303.105 250.849 302.885 250.894 302.627C250.898 302.608 250.9 302.591 250.901 302.573C250.901 302.562 250.904 302.549 250.904 302.537C250.904 302.522 250.904 302.508 250.904 302.494V300.363C250.904 300.349 250.904 300.335 250.904 300.321C250.904 300.295 250.9 300.266 250.895 300.242C250.89 300.213 250.881 300.183 250.873 300.155C250.774 299.805 250.435 299.543 250.033 299.543H249.065C249.466 299.543 249.804 299.283 249.905 298.934C249.915 298.905 249.923 298.875 249.929 298.844C249.933 298.818 249.936 298.791 249.937 298.766V296.55C249.915 296.152 249.586 295.825 249.17 295.778H252.036C252.502 295.778 252.884 295.431 252.908 294.999C252.908 294.985 252.908 294.971 252.908 294.957V292.827C252.908 292.813 252.908 292.798 252.908 292.785C252.908 292.774 252.908 292.762 252.905 292.751C252.87 292.395 252.592 292.106 252.227 292.028C252.618 291.982 252.932 291.691 252.984 291.326C252.988 291.303 252.99 291.28 252.991 291.256C252.991 291.241 252.991 291.227 252.991 291.214V289.084C252.991 289.069 252.991 289.055 252.991 289.042C252.991 289.015 252.985 288.989 252.983 288.962C252.977 288.931 252.969 288.902 252.959 288.872C252.859 288.523 252.521 288.263 252.12 288.263H250.434C250.674 288.146 250.849 287.925 250.894 287.667C250.898 287.648 250.9 287.631 250.901 287.613C250.901 287.601 250.904 287.589 250.904 287.577C250.904 287.563 250.904 287.548 250.904 287.533V285.403C250.904 285.389 250.904 285.374 250.904 285.361C250.904 285.335 250.9 285.308 250.895 285.281C250.89 285.252 250.881 285.222 250.873 285.194C250.774 284.844 250.435 284.582 250.033 284.582H246.732C247.134 284.582 247.473 284.322 247.572 283.972C247.58 283.944 247.589 283.914 247.594 283.884C247.6 283.858 247.601 283.831 247.603 283.804C247.603 283.79 247.603 283.776 247.603 283.762V281.631C247.603 281.617 247.603 281.603 247.603 281.589C247.582 281.19 247.252 280.863 246.835 280.817H252.035C252.338 280.817 252.608 280.668 252.765 280.444L252.762 280.426L252.215 277.081L252.212 277.063L251.433 272.292C250.528 272.413 249.634 272.593 248.756 272.83C248.704 272.845 248.653 272.859 248.603 272.873C248.6 272.873 248.597 272.875 248.593 272.877C248.082 273.019 247.577 273.181 247.079 273.364C247.074 273.364 247.071 273.366 247.065 273.369C244.775 274.203 242.643 275.441 240.794 277.049C240.761 277.077 240.727 277.105 240.697 277.136C239.734 277.98 238.851 278.926 238.066 279.969C237.909 280.175 237.755 280.386 237.608 280.602C237.559 280.672 237.509 280.742 237.463 280.815C237.46 280.815 237.459 280.82 237.459 280.822C237.22 281.174 236.995 281.536 236.779 281.907C236.273 282.782 235.848 283.678 235.501 284.588C235.038 285.796 234.713 287.027 234.522 288.267C234.516 288.298 234.512 288.329 234.506 288.36C234.323 289.578 234.267 290.8 234.333 292.011V292.009Z" fill="#E2810E"/>
<path d="M272.712 304.113C280.472 296.353 280.472 283.771 272.712 276.011C264.952 268.25 252.37 268.25 244.609 276.011C236.849 283.771 236.849 296.353 244.609 304.113C252.37 311.874 264.952 311.874 272.712 304.113Z" fill="#E2810E"/>
<path d="M249.84 307.869C250.085 308.018 250.334 308.163 250.587 308.302C250.673 308.35 250.758 308.396 250.844 308.441C251.04 308.545 251.237 308.647 251.434 308.744C260.897 313.391 272.439 309.824 277.583 300.493C282.49 291.592 279.851 280.568 271.8 274.779C271.157 274.317 270.482 273.888 269.772 273.497C269.517 273.357 269.26 273.222 269.003 273.095C268.752 272.97 268.499 272.85 268.246 272.738C267.468 272.392 266.678 272.099 265.88 271.86C264.693 271.503 263.489 271.262 262.282 271.134C258.539 270.738 254.773 271.421 251.434 273.056C247.891 274.788 244.827 277.59 242.778 281.306C237.62 290.664 240.799 302.368 249.84 307.869Z" fill="#FFB93E"/>
<path d="M251.471 306.697C242.872 301.957 239.734 291.107 244.473 282.509C249.213 273.911 260.063 270.773 268.661 275.511C272.826 277.807 275.847 281.588 277.169 286.156C278.492 290.725 277.954 295.535 275.659 299.7C273.363 303.864 269.583 306.886 265.014 308.208C263.374 308.683 261.703 308.917 260.041 308.917C257.074 308.917 254.14 308.167 251.471 306.696V306.697ZM244.894 282.741C240.282 291.107 243.337 301.665 251.703 306.277C255.755 308.51 260.436 309.032 264.881 307.746C269.325 306.461 273.005 303.52 275.238 299.468C277.472 295.415 277.995 290.736 276.708 286.29C275.423 281.845 272.483 278.166 268.429 275.932C265.785 274.473 262.921 273.783 260.094 273.783C253.981 273.783 248.047 277.019 244.894 282.741Z" fill="#FFA412"/>
<path d="M177.464 114.094C177.374 113.9 177.261 113.724 177.13 113.564L177.129 113.563C177.032 113.445 176.924 113.335 176.804 113.234L176.315 112.737L176.185 112.833C173.679 111.606 168.503 112.906 163.266 116.325C156.938 120.458 152.875 126.146 154.046 129.17L153.868 129.302L154.571 130.004C154.605 130.039 154.64 130.074 154.675 130.108L154.695 130.128L154.7 130.132C154.879 130.295 155.081 130.436 155.309 130.555L155.314 130.558C157.788 131.855 163.02 130.564 168.314 127.108C174.762 122.899 178.858 117.073 177.464 114.096V114.094Z" fill="#FFA412"/>
<path d="M162.514 115.573C168.961 111.364 175.317 110.366 176.711 113.342C178.105 116.32 174.009 122.144 167.562 126.354C161.114 130.562 154.758 131.561 153.364 128.585C151.97 125.607 156.066 119.783 162.512 115.573H162.514Z" fill="#FFB93E"/>
<path d="M157.884 129.029C157.361 129.029 156.884 128.97 156.465 128.849C155.66 128.617 155.103 128.173 154.807 127.527C154.226 126.26 154.763 124.378 156.323 122.227C157.846 120.127 160.171 117.996 162.87 116.23C167.015 113.515 171.229 112.206 173.609 112.891C174.414 113.123 174.971 113.567 175.268 114.213C175.848 115.48 175.31 117.362 173.751 119.513C172.228 121.613 169.903 123.744 167.204 125.51C163.79 127.745 160.329 129.029 157.884 129.029ZM172.206 113.186C169.868 113.186 166.435 114.462 163.129 116.626C160.478 118.364 158.196 120.451 156.705 122.506C155.272 124.482 154.736 126.24 155.236 127.33C155.472 127.845 155.929 128.204 156.594 128.395C156.967 128.502 157.395 128.554 157.867 128.554C160.205 128.554 163.638 127.278 166.944 125.114C169.595 123.376 171.876 121.289 173.367 119.234C174.801 117.258 175.336 115.498 174.837 114.41C174.601 113.895 174.144 113.536 173.478 113.345C173.106 113.238 172.678 113.186 172.206 113.186Z" fill="#FFA412"/>
<path d="M173.029 145.167C173.095 145.026 173.177 144.898 173.271 144.783C173.341 144.697 173.42 144.617 173.506 144.544L173.862 144.184L173.956 144.253C175.776 143.362 179.534 144.306 183.336 146.789C187.931 149.789 190.881 153.918 190.03 156.114L190.159 156.21L189.649 156.719C189.625 156.744 189.599 156.769 189.573 156.795L189.559 156.809L189.554 156.812C189.425 156.93 189.277 157.032 189.113 157.12H189.11V157.121C187.314 158.062 183.515 157.125 179.672 154.616C174.991 151.56 172.018 147.331 173.03 145.17L173.029 145.167Z" fill="#FFA412"/>
<path d="M183.882 146.24C179.201 143.183 174.587 142.459 173.575 144.621C172.563 146.783 175.537 151.012 180.217 154.067C184.898 157.123 189.513 157.848 190.524 155.686C191.537 153.524 188.562 149.295 183.882 146.24Z" fill="#FFB93E"/>
<path d="M180.478 153.455C178.518 152.173 176.83 150.625 175.725 149.101C174.593 147.539 174.202 146.174 174.624 145.254C174.839 144.785 175.244 144.462 175.828 144.293C177.555 143.795 180.615 144.747 183.624 146.718C185.583 148.001 187.271 149.548 188.377 151.073C189.509 152.634 189.9 154 189.478 154.919C189.263 155.388 188.858 155.711 188.274 155.88C187.969 155.967 187.624 156.011 187.244 156.011C185.469 156.011 182.956 155.078 180.478 153.457V153.455ZM175.923 144.624C175.439 144.763 175.107 145.023 174.936 145.397C174.573 146.188 174.961 147.465 176.002 148.9C177.084 150.392 178.74 151.908 180.665 153.168C183.064 154.739 185.557 155.666 187.254 155.666C187.597 155.666 187.908 155.628 188.178 155.551C188.662 155.412 188.994 155.152 189.164 154.777C189.527 153.987 189.139 152.71 188.098 151.275C187.017 149.783 185.36 148.267 183.436 147.006C181.036 145.435 178.544 144.508 176.846 144.508C176.503 144.508 176.192 144.546 175.922 144.624H175.923Z" fill="#FFA412"/>
<path d="M59.3301 244.403C60.3245 243.365 60.2443 242.597 60.2443 242.597C60.2443 242.597 48.7248 233.166 47.5574 232.398C46.7613 231.875 38.2784 224.354 34.312 219.769C32.3457 217.494 29.9081 218.376 27.1204 219.176L24.8249 219.835C22.0526 220.629 21.3325 224.507 23.6068 226.39C30.0122 231.696 40.6681 237.664 42.6612 238.919C47.6108 242.033 57.2991 245.732 57.2991 245.732C57.2991 245.732 58.4749 245.296 59.3287 244.403H59.3301Z" fill="#1E3D70"/>
<path d="M72.4754 302.345C72.4754 302.345 75.2702 304.44 79.5545 303.333C79.5545 303.333 83.0076 302.547 83.7657 304.268C83.7657 304.268 78.4687 306.959 77.1282 307.694C76.1183 308.249 75.0634 309.125 74.3194 309.801C73.73 310.337 72.8102 310.264 72.308 309.647C72.0745 309.36 71.8087 309.019 71.5161 308.623C70.6989 307.516 68.7959 303.94 68.7959 303.94L72.4754 302.344V302.345Z" fill="#072E52"/>
<path d="M72.242 239.647C79.8749 232.014 79.8749 219.639 72.242 212.006C64.6091 204.373 52.2338 204.373 44.6009 212.006C36.968 219.639 36.968 232.014 44.6009 239.647C52.2338 247.28 64.6091 247.28 72.242 239.647Z" fill="#FFC76C"/>
<path d="M58.4215 243.866C53.6646 243.866 49.1932 242.013 45.8302 238.65C42.4672 235.287 40.6147 230.814 40.6147 226.059C40.6147 221.303 42.4672 216.831 45.8302 213.468C49.1932 210.105 53.666 208.252 58.4215 208.252C63.177 208.252 67.6498 210.105 71.0128 213.468C74.3759 216.831 76.2283 221.303 76.2283 226.059C76.2283 230.814 74.3759 235.287 71.0128 238.65C67.6498 242.013 63.177 243.866 58.4215 243.866ZM58.4215 209.313C49.1876 209.313 41.6767 216.825 41.6767 226.058C41.6767 235.29 49.189 242.802 58.4215 242.802C67.654 242.802 75.1664 235.29 75.1664 226.058C75.1664 216.825 67.654 209.313 58.4215 209.313Z" fill="#FFA412"/>
<path d="M65.8817 218.206C67.0097 220.22 67.2882 222.128 66.7171 223.926C66.1475 225.725 64.7986 227.221 62.6748 228.409L58.6844 230.643L59.7703 232.582L64.4259 229.976C64.703 229.821 64.914 229.873 65.0588 230.131L65.959 231.738C66.1138 232.015 66.0533 232.232 65.7762 232.387L61.1205 234.993L62.1909 236.906C62.3456 237.183 62.2936 237.394 62.0362 237.539L59.6535 238.874C59.3764 239.028 59.1598 238.968 59.0051 238.691L57.9347 236.778L56.2989 237.694C56.0218 237.848 55.8052 237.788 55.6505 237.511L54.7503 235.903C54.6055 235.644 54.6716 235.438 54.9486 235.283L56.5845 234.367L48.3773 219.705C48.2226 219.428 48.2831 219.212 48.5602 219.057L55.3228 215.272C57.4467 214.084 59.4439 213.747 61.3118 214.268C63.1797 214.787 64.703 216.1 65.8831 218.206H65.8817ZM63.1488 223.175C63.4498 222.219 63.2486 221.112 62.5454 219.855C61.8421 218.597 61.0066 217.853 60.0375 217.618C59.0684 217.383 57.9094 217.645 56.5619 218.399L52.9584 220.416L57.0697 227.761L60.6733 225.744C62.0221 224.988 62.8478 224.133 63.1488 223.175Z" fill="#FFA412"/>
<path d="M167.174 121.874C166.397 122.466 165.694 122.799 165.061 122.871C164.428 122.943 163.937 122.75 163.587 122.292L162.929 121.431L162.182 122.002L162.95 123.008C162.995 123.068 162.968 123.136 162.868 123.212L162.25 123.684C162.143 123.766 162.067 123.777 162.02 123.717L161.252 122.711L160.515 123.273C160.408 123.355 160.334 123.368 160.292 123.311L159.899 122.797C159.854 122.736 159.884 122.666 159.991 122.584L160.728 122.022L160.458 121.669C160.413 121.608 160.442 121.538 160.549 121.456L161.168 120.984C161.268 120.908 161.341 120.899 161.386 120.96L161.656 121.313L167.305 116.999C167.412 116.917 167.487 116.906 167.534 116.967L168.648 118.427C168.998 118.885 169.043 119.42 168.782 120.029C168.52 120.639 167.984 121.254 167.172 121.873L167.174 121.874ZM165.473 121.738C165.809 121.698 166.22 121.494 166.704 121.124C167.188 120.754 167.492 120.414 167.614 120.103C167.736 119.792 167.687 119.49 167.465 119.199L166.871 118.421L164.041 120.581L164.635 121.359C164.857 121.65 165.137 121.777 165.473 121.738Z" fill="#FFA412"/>
<path d="M182.004 152.334C181.357 151.881 180.928 151.421 180.717 150.951C180.506 150.481 180.534 150.057 180.801 149.674L181.303 148.957L180.68 148.521L180.094 149.359C180.059 149.408 180 149.404 179.917 149.346L179.4 148.985C179.312 148.923 179.284 148.867 179.319 148.816L179.905 147.978L179.291 147.549C179.202 147.487 179.174 147.432 179.206 147.386L179.506 146.957C179.541 146.907 179.603 146.913 179.692 146.975L180.306 147.404L180.512 147.11C180.547 147.061 180.609 147.066 180.697 147.128L181.213 147.49C181.296 147.547 181.32 147.602 181.285 147.651L181.08 147.945L185.788 151.238C185.876 151.3 185.904 151.356 185.869 151.407L185.018 152.624C184.751 153.006 184.35 153.171 183.817 153.12C183.282 153.068 182.678 152.806 182.001 152.332L182.004 152.334ZM181.692 150.991C181.804 151.24 182.062 151.505 182.465 151.788C182.869 152.071 183.205 152.22 183.475 152.238C183.745 152.256 183.965 152.144 184.135 151.902L184.588 151.254L182.229 149.604L181.776 150.252C181.606 150.494 181.578 150.74 181.69 150.991H181.692Z" fill="#FFA412"/>
<path d="M74.1152 301.281C74.1152 301.281 72.4133 305.206 68.4834 304.485C68.4834 304.485 60.4661 297.863 54.9652 290.985C53.1789 288.751 51.6584 286.49 50.7638 284.421C47.1167 275.977 37.2737 263.383 31.0146 257L46.6736 251.336C46.6736 251.336 51.6894 261.425 58.362 273.818C63.1709 282.747 68.8407 292.872 74.1138 301.282L74.1152 301.281Z" fill="#215EAB"/>
<path d="M58.3639 273.817L54.9671 290.985C53.1808 288.751 51.6604 286.49 50.7658 284.421C47.1187 275.977 37.2757 263.383 31.0166 257L46.6756 251.336C46.6756 251.336 51.6913 261.425 58.3639 273.818V273.817Z" fill="#164D93"/>
<path d="M45.5639 305.171C45.5639 305.171 45.3937 308.304 49.19 308.721C49.19 308.721 51.5403 308.782 51.5459 310.775L40.1122 310.771C40.1122 310.771 40.0109 309.956 39.9335 308.235C39.8745 306.913 41.2149 303.455 41.2149 303.455L45.5639 305.173V305.171Z" fill="#072E52"/>
<path d="M41.5387 251.333C41.5387 251.333 48.5137 258.999 52.9429 272.808C55.3523 280.322 48.4181 299.915 47.0875 306.479C47.0875 306.479 42.6189 306.164 39.488 304.955C39.488 304.955 39.2503 291.398 41.0816 280.951C42.1069 275.104 31.8969 268.445 27.4353 257.879C24.4 250.692 28.0922 250.813 32.6297 250.641L41.5401 251.336L41.5387 251.333Z" fill="#215EAB"/>
<path d="M33.4863 217.136C29.6057 219.327 21.6602 217.306 21.6602 217.306C21.6602 217.306 24.8868 213.617 23.4211 207.677L26.4691 209.224L29.7421 210.887C29.7421 210.887 29.9531 211.936 30.1008 213.821C30.1388 214.306 30.1711 214.848 30.195 215.441C32.1881 216.046 33.4877 217.137 33.4877 217.137L33.4863 217.136Z" fill="#FFB07B"/>
<path d="M47.7166 250.938C47.7166 251.62 46.9304 251.946 46.7644 251.98C45.1989 252.266 40.8288 253.966 36.8905 254.356C33.5753 254.703 30.4964 254.373 27.1151 253.695C26.6678 253.605 25.6157 253.322 25.5412 252.893C25.4483 252.425 12.4969 226.492 22.5649 215.353C22.8012 215.091 24.7887 215.562 26.6059 215.994C28.2839 216.392 29.8241 216.17 31.1983 215.618L32.903 216.516C34.9959 217.682 38.9567 221.825 39.4195 225.077C39.6544 226.731 40.601 227.955 40.8738 229.409C40.9751 229.948 41.0792 230.473 41.1847 230.985C41.3914 231.989 41.6038 232.946 41.8218 233.854C42.414 236.313 43.0385 238.43 43.6532 240.26C44.3058 242.202 44.9472 243.817 45.5196 245.167C46.2623 246.919 46.8896 248.229 47.2806 249.23C47.5577 249.937 47.7166 250.491 47.7166 250.939V250.938Z" fill="#AEC3FF"/>
<path d="M47.2824 249.229C29.0017 240.615 22.6694 224.077 22.6694 224.077C22.6694 224.077 37.5225 229.556 41.1865 230.983C41.3933 231.988 41.6057 232.944 41.8237 233.853C42.4158 236.311 43.0403 238.428 43.655 240.258C44.3076 242.2 44.949 243.815 45.5215 245.165C46.2641 246.918 46.8914 248.227 47.2824 249.229Z" fill="#91B0F2"/>
<path d="M57.9785 244.238L59.558 244.818C59.558 244.818 66.5752 242.316 66.9916 243.417C66.9916 243.417 66.3136 245.139 64.7495 246.563C63.8775 247.358 62.478 248.322 58.5116 247.18L57.1528 246.929L57.9771 244.238H57.9785Z" fill="#FFB07B"/>
<path d="M30.0075 212.813C25.9721 212.693 24.4404 211.372 24.4404 211.372C24.4404 211.372 25.5263 209.929 26.4673 209.226L29.7403 210.888C29.7403 210.888 29.8598 210.929 30.0075 212.813Z" fill="#EA8E50"/>
<path d="M31.7249 209.902C31.7249 209.902 25.9426 214.052 23.4136 210.411C20.8847 206.77 18.4345 204.854 22.0198 202.051C25.605 199.248 27.2957 200.134 28.435 201.144C29.5743 202.154 33.1638 208.731 31.7249 209.904V209.902Z" fill="#FFB07B"/>
<path d="M29.0471 197.854C28.8403 196.454 28.3734 195.469 28.3734 195.469C28.3734 195.469 28.0105 196.973 25.2635 196.765C22.5165 196.558 18.1619 197.035 16.7104 200.166C16.6175 200.366 16.5359 200.571 16.4628 200.781C16.1998 200.086 16.1365 199.046 16.1365 199.046C15.6147 200.394 16.1365 202.08 16.1365 202.08C16.128 202.129 16.1224 202.179 16.1154 202.228C15.5092 202.74 15 204.333 15 204.333C15.1828 203.889 15.6287 203.599 16.0268 203.421C16.0141 205.857 17.0029 208.238 18.7358 208.947C21.2718 209.984 21.2507 209.193 23.8007 210.884C23.8007 210.884 23.9048 210.069 23.7318 209.38C23.5532 208.666 21.7894 208.065 22.7739 207.237C23.7585 206.407 24.1214 207.341 24.4843 206.77C24.8472 206.2 23.0327 204.54 25.3662 202.986C27.6982 201.43 29.2539 199.254 29.0471 197.855V197.854Z" fill="#233862"/>
<path d="M29.0567 296.938C28.6756 296.938 28.2972 296.765 28.0496 296.438L27.7655 296.061C27.5644 295.794 27.4786 295.462 27.525 295.128C27.5714 294.795 27.7444 294.5 28.0131 294.298L30.1791 292.665C30.7333 292.248 31.5238 292.359 31.9415 292.913L32.2257 293.29C32.4268 293.557 32.5126 293.889 32.4662 294.222C32.4198 294.556 32.2468 294.851 31.9781 295.052L29.812 296.685C29.5856 296.855 29.3198 296.938 29.0567 296.938ZM30.9373 293.042C30.8051 293.042 30.6728 293.083 30.5589 293.169L28.3928 294.802C28.2592 294.903 28.1734 295.049 28.1495 295.217C28.1256 295.384 28.1678 295.55 28.2691 295.682L28.5532 296.059C28.7614 296.336 29.1566 296.391 29.4351 296.183L31.6012 294.55C31.7348 294.449 31.8206 294.303 31.8445 294.135C31.8684 293.968 31.8262 293.802 31.7249 293.67L31.4408 293.293C31.317 293.13 31.1286 293.042 30.9373 293.042Z" fill="#233862"/>
<path d="M37.6292 295.697C37.4422 295.697 37.2509 295.655 37.0723 295.566L34.6418 294.361C34.3422 294.212 34.1171 293.954 34.0088 293.635C33.9019 293.316 33.9244 292.974 34.0735 292.674L34.2831 292.252C34.5911 291.631 35.3478 291.376 35.9695 291.684L38.4 292.889C39.0217 293.197 39.2763 293.954 38.9683 294.576L38.7587 294.998C38.5393 295.441 38.092 295.697 37.6292 295.697ZM34.8471 292.531L34.6375 292.954C34.563 293.103 34.5517 293.275 34.6066 293.434C34.66 293.594 34.7726 293.722 34.9217 293.797L37.3522 295.002C37.663 295.155 38.0414 295.029 38.1947 294.718L38.4042 294.296C38.559 293.985 38.431 293.607 38.1201 293.452L35.6896 292.247C35.3788 292.093 35.0004 292.22 34.8471 292.531Z" fill="#233862"/>
<path d="M31.1584 293.69C31.2091 293.975 31.4848 294.166 31.7689 294.114L35.2613 293.49C35.5468 293.439 35.7381 293.163 35.6861 292.879C35.6355 292.594 35.3598 292.403 35.0757 292.455L31.5832 293.079C31.2977 293.13 31.1064 293.405 31.1584 293.69Z" fill="#233862"/>
<path d="M41.1082 301.724C40.5512 301.724 40.0393 301.35 39.8916 300.786L39.1996 298.163C39.0223 297.492 39.4246 296.801 40.0955 296.625L40.5512 296.504C41.2222 296.327 41.9114 296.729 42.0886 297.4L42.7806 300.023C42.8664 300.347 42.82 300.686 42.6498 300.977C42.4796 301.268 42.2081 301.475 41.8846 301.561L41.4289 301.682C41.322 301.71 41.2137 301.724 41.1082 301.724ZM40.8719 297.092C40.8185 297.092 40.765 297.099 40.7116 297.113L40.2559 297.234C39.9211 297.323 39.72 297.667 39.8086 298.004L40.5006 300.627C40.5892 300.962 40.9338 301.164 41.27 301.074L41.7257 300.953C41.8874 300.911 42.0225 300.807 42.1083 300.661C42.1927 300.514 42.2166 300.345 42.1744 300.184L41.4824 297.561C41.4078 297.279 41.1532 297.092 40.8733 297.092H40.8719Z" fill="#233862"/>
<path d="M45.9803 305.965C45.8804 305.965 45.7806 305.954 45.6793 305.928L43.0448 305.278C42.3711 305.112 41.9576 304.429 42.1236 303.755L42.2361 303.297C42.4021 302.623 43.0856 302.209 43.7594 302.375L46.3938 303.024C46.7187 303.104 46.9944 303.306 47.1688 303.595C47.3432 303.883 47.3953 304.221 47.3151 304.546L47.2026 305.004C47.0619 305.577 46.5457 305.962 45.9803 305.962V305.965ZM42.8479 303.448L42.7354 303.907C42.6524 304.243 42.8592 304.585 43.1953 304.668L45.8298 305.318C46.1674 305.401 46.5077 305.194 46.5907 304.858L46.7033 304.399C46.7426 304.238 46.7173 304.069 46.6301 303.924C46.5429 303.779 46.4051 303.678 46.2433 303.638L43.6089 302.99C43.2727 302.907 42.9309 303.114 42.8479 303.45V303.448Z" fill="#233862"/>
<path d="M50.1846 305.206C49.7331 305.206 49.2943 304.962 49.0692 304.535L48.8484 304.118C48.5249 303.504 48.7598 302.741 49.373 302.417L51.7726 301.15C52.0694 300.994 52.4098 300.963 52.7319 301.061C53.054 301.161 53.317 301.379 53.4731 301.675L53.6939 302.092C53.8501 302.389 53.8824 302.729 53.7825 303.052C53.6827 303.374 53.4647 303.637 53.1693 303.793L50.7697 305.06C50.5827 305.159 50.3815 305.205 50.1846 305.205V305.206ZM52.3591 301.635C52.2579 301.635 52.1594 301.659 52.068 301.707L49.6684 302.974C49.3618 303.136 49.2436 303.517 49.4054 303.824L49.6262 304.241C49.788 304.548 50.1706 304.666 50.4758 304.505L52.8753 303.237C53.023 303.16 53.1313 303.028 53.1819 302.866C53.2312 302.704 53.2157 302.534 53.1383 302.386L52.9175 301.969C52.8402 301.821 52.7079 301.713 52.5462 301.662C52.4843 301.642 52.421 301.634 52.3577 301.634L52.3591 301.635Z" fill="#233862"/>
<path d="M55.406 301.001C55.2147 301.001 55.0263 300.957 54.8504 300.87L54.4285 300.66C54.1289 300.511 53.9038 300.254 53.7955 299.935C53.6886 299.615 53.7111 299.273 53.8588 298.974L55.0642 296.543C55.2133 296.244 55.4707 296.019 55.79 295.91C56.1093 295.804 56.4511 295.826 56.7507 295.975L57.1726 296.185C57.7943 296.493 58.0489 297.249 57.7409 297.871L56.5355 300.302C56.3864 300.603 56.129 300.826 55.8097 300.935C55.6775 300.98 55.541 301.002 55.4046 301.002L55.406 301.001ZM56.1951 296.473C56.1276 296.473 56.0587 296.484 55.9925 296.507C55.8322 296.56 55.7042 296.673 55.6297 296.822L54.4243 299.252C54.3497 299.401 54.3385 299.573 54.3933 299.732C54.4482 299.891 54.5593 300.02 54.7084 300.095L55.1303 300.304C55.2808 300.379 55.451 300.39 55.61 300.335C55.7703 300.282 55.8983 300.169 55.9729 300.02L57.1783 297.59C57.333 297.279 57.205 296.901 56.8941 296.746L56.4722 296.536C56.385 296.493 56.2907 296.472 56.1951 296.472V296.473Z" fill="#233862"/>
<path d="M38.0106 294.148C37.7799 294.323 37.7335 294.655 37.9079 294.885L40.0445 297.718C40.2189 297.949 40.5508 297.995 40.7815 297.822C41.0122 297.648 41.0586 297.316 40.8842 297.085L38.7476 294.252C38.5732 294.022 38.2413 293.975 38.0106 294.148Z" fill="#233862"/>
<path d="M41.163 300.422C40.9196 300.578 40.8479 300.904 41.004 301.149L42.9183 304.136C43.0745 304.38 43.4022 304.451 43.6455 304.295C43.8889 304.139 43.9606 303.813 43.8045 303.568L41.8902 300.58C41.734 300.337 41.4077 300.265 41.163 300.422Z" fill="#233862"/>
<path d="M45.8791 304.557C45.9298 304.842 46.2055 305.034 46.4896 304.981L49.982 304.357C50.2675 304.306 50.4588 304.031 50.4068 303.747C50.3562 303.461 50.0805 303.27 49.7963 303.322L46.3039 303.946C46.0184 303.997 45.8271 304.273 45.8791 304.557Z" fill="#233862"/>
<path d="M52.4171 302.313C52.6225 302.519 52.9572 302.519 53.1612 302.313L55.6704 299.804C55.8744 299.599 55.8744 299.264 55.6704 299.06C55.4651 298.855 55.1303 298.855 54.9264 299.06L52.4171 301.569C52.2132 301.773 52.2132 302.109 52.4171 302.313Z" fill="#233862"/>
<path d="M55.8331 297.32C55.9343 297.591 56.2395 297.729 56.511 297.628L59.8332 296.382C60.1047 296.281 60.2425 295.975 60.1413 295.704C60.04 295.432 59.7348 295.295 59.4633 295.396L56.1411 296.642C55.8696 296.743 55.7318 297.048 55.8331 297.32Z" fill="#233862"/>
<path d="M31.4772 301.63C30.3604 297.468 26.0803 294.999 21.9184 296.116C17.7564 297.233 15.288 301.513 16.4048 305.675C17.5216 309.837 21.8016 312.305 25.9636 311.189C30.1255 310.072 32.594 305.792 31.4772 301.63Z" fill="#072E52"/>
<path d="M27.824 299.203C27.3782 299.203 26.9365 299.087 26.5399 298.857C25.9435 298.513 25.5159 297.957 25.3373 297.292C25.1587 296.627 25.2501 295.932 25.5947 295.336C25.9393 294.739 26.4949 294.312 27.1602 294.133C27.8254 293.954 28.5203 294.046 29.1167 294.39C29.713 294.735 30.1406 295.291 30.3178 295.956C30.4965 296.621 30.405 297.316 30.0604 297.912C29.7158 298.509 29.1603 298.936 28.495 299.113C28.2727 299.173 28.0463 299.202 27.8226 299.202L27.824 299.203ZM27.8283 295.442C27.727 295.442 27.6243 295.455 27.523 295.483C27.2178 295.565 26.9632 295.76 26.8057 296.035C26.6482 296.307 26.606 296.627 26.6876 296.931C26.7691 297.236 26.9646 297.49 27.2375 297.648C27.5104 297.805 27.8297 297.846 28.1335 297.766C28.4387 297.684 28.6933 297.489 28.8508 297.215C29.0083 296.942 29.0505 296.624 28.969 296.319C28.8269 295.791 28.3487 295.444 27.8283 295.444V295.442Z" fill="#072E52"/>
<path opacity="0.5" d="M20.939 297.323C21.6662 296.877 22.8322 296.699 23.2218 297.457C23.7014 298.388 22.8195 298.822 22.0938 299.268C21.3666 299.714 20.479 299.994 20.0332 299.267C19.5873 298.54 20.2132 297.769 20.9404 297.323H20.939Z" fill="#2B478B"/>
<path d="M56.3103 292.535L65.0252 285.974C65.2545 285.801 65.5822 285.863 65.7327 286.106L70.2421 293.385C70.3785 293.604 70.3195 293.891 70.1099 294.04L62.516 299.415C62.3162 299.557 62.042 299.527 61.876 299.347L56.2456 293.255C56.0501 293.043 56.0797 292.708 56.3103 292.535Z" fill="#072E52"/>
<path d="M113.929 156.022C113.929 156.022 112.755 154.008 109.691 154.057C106.628 154.107 107.138 156.095 108.721 156.53C110.303 156.965 110.303 157.425 111.887 157.374C113.469 157.323 113.929 156.022 113.929 156.022Z" fill="#FFB27D"/>
<path d="M167.451 172.534C167.771 171.482 168.553 173.001 170.281 172.767C170.281 172.767 172.472 171.985 173.748 172.601C174.694 173.06 176.513 175.793 174.602 175.06C171.818 173.994 170.144 176.082 168.593 175.206C167.043 174.33 166.122 173.366 166.122 173.366L167.451 172.534Z" fill="#FFB27D"/>
<path d="M128.824 211.864C129.136 212.222 129.175 212.621 129.021 213.047C129.021 213.049 129.021 213.051 129.018 213.053C128.732 213.842 127.79 214.722 126.694 215.601C126.555 215.714 126.43 215.817 126.321 215.912C126.293 215.938 126.265 215.962 126.239 215.987C126.216 216.007 126.195 216.026 126.174 216.045C125.153 216.985 125.537 217.202 123.703 219.112C121.611 221.288 120.171 221.327 119.76 221.129C119.414 220.96 120.117 219.806 120.898 218.509C120.936 218.447 120.972 218.384 121.012 218.32C121.116 218.147 121.219 217.973 121.323 217.8C122.237 216.239 122.002 215.506 121.785 213.182C121.61 211.293 118.847 202.632 118.847 202.632L122.856 201.941C122.856 201.941 124.063 208.839 125.393 209.901C126.105 210.468 126.901 210.475 127.585 210.894C127.632 210.923 127.68 210.953 127.727 210.984C128.115 211.241 128.511 211.507 128.824 211.866V211.864Z" fill="#FFB27D"/>
<path d="M128.824 211.864C129.136 212.222 129.176 212.621 129.021 213.047C129.021 213.049 129.021 213.052 129.018 213.053C128.67 213.841 127.75 214.717 126.692 215.593C126.554 215.709 126.432 215.814 126.323 215.913C126.295 215.938 126.267 215.962 126.24 215.987C126.218 216.007 126.197 216.026 126.176 216.045C125.155 216.986 125.539 217.202 123.704 219.112C121.613 221.288 120.173 221.328 119.762 221.129C119.416 220.961 120.119 219.806 120.9 218.509C121.308 218.36 123.198 217.592 124.629 215.762C125.889 214.154 126.728 212.09 127.586 210.893C127.634 210.922 127.682 210.952 127.729 210.983C128.117 211.24 128.513 211.506 128.826 211.864H128.824Z" fill="#072E52"/>
<path d="M96.499 209.359C96.2514 210.597 94.4876 210.39 92.5171 209.909C90.5465 209.428 91.0149 210.001 88.2102 209.69C85.4056 209.379 84.5561 208.334 84.4703 207.916C84.3943 207.546 85.7798 207.416 87.2665 207.244C87.4535 207.223 87.6406 207.2 87.8291 207.176C89.5071 206.965 90.7364 205.882 92.2611 204.993C93.7056 204.151 95.8604 200.719 95.8604 200.719L99.7073 201.024C99.7073 201.024 97.6889 204.09 96.9083 205.422C96.4498 206.206 96.4737 207.243 96.5313 208.044C96.5609 208.479 96.589 208.923 96.5018 209.359H96.499Z" fill="#FFB27D"/>
<path d="M92.5171 209.909C90.5465 209.428 91.0149 210.001 88.2102 209.69C85.4056 209.379 84.5561 208.334 84.4703 207.916C84.3943 207.546 85.7798 207.415 87.2665 207.244L87.2805 207.272C87.2805 207.272 88.9627 208.465 91.2976 208.521C93.2006 208.567 95.2162 208.022 96.5299 208.043C96.5595 208.477 96.5876 208.922 96.5004 209.358C96.2528 210.596 94.489 210.389 92.5185 209.908L92.5171 209.909Z" fill="#072E52"/>
<path d="M111.24 184.766L114.835 194.441L119.528 207.075C119.528 207.075 120.803 207.197 122.022 206.847C123.146 206.522 124.434 205.673 124.434 205.673C124.434 205.673 123.131 192.108 120.7 184.321C120.077 182.323 119.378 180.707 118.609 179.797C114.839 175.342 111.24 184.766 111.24 184.766Z" fill="#B03F37"/>
<path d="M114.895 169.4C117.251 168.64 123.969 169.615 130.719 170.937L132.132 168.606L146.71 167.469C146.71 167.469 151.814 175.385 149.179 182.181L134.543 186.921C127.294 186.921 119.369 181.606 118.323 181.396C116.61 181.053 115.923 184.481 114.21 188.079C112.497 191.678 98.1024 204.015 98.1024 204.015C98.1024 204.015 95.8899 204.037 94.9756 203.694C93.9925 203.325 93.6338 202.847 93.6338 202.847C93.6338 202.847 109.584 171.114 114.896 169.4H114.895Z" fill="#CA534B"/>
<path d="M128.07 148.339C132.668 152.078 143.745 158.558 143.805 158.53C143.805 158.53 144.286 156.641 146.707 155.599C150.742 153.86 158.568 149.989 152.987 143.256C150.203 139.897 146.236 140.591 146.777 136.125C147.364 131.288 145.179 125.206 139.612 124.95C139.147 124.929 136.328 124.552 134.315 125.184C129.187 126.793 120.611 145.862 128.072 148.339H128.07Z" fill="#233862"/>
<path d="M149.759 153.582C149.405 155.251 149.118 156.748 148.883 158.088C147.54 165.784 147.967 168.324 147.706 169.05C147.565 169.439 145.756 169.808 143.411 170.059C140.759 170.342 137.421 170.477 135.041 170.32C133.616 170.228 132.532 170.027 132.146 169.695C130.547 168.305 130.706 171.362 130.488 156.741C130.383 149.61 136.54 143.258 136.54 143.258C136.54 143.258 137.045 147.088 143.153 143.463C143.369 143.337 150.79 148.733 149.762 153.585L149.759 153.582Z" fill="#AEC3FF"/>
<path d="M114.835 194.442L119.529 207.075C119.529 207.075 120.803 207.197 122.022 206.847C123.146 206.522 124.435 205.673 124.435 205.673C124.435 205.673 123.131 192.108 120.7 184.322L114.835 194.442Z" fill="#CA534B"/>
<path d="M136.538 143.253L135.442 152.523C135.442 152.523 133.221 155.35 130.507 158.209C128.539 160.285 126.308 162.378 124.478 163.419C124.464 163.43 124.449 163.437 124.436 163.446C122.617 164.468 118.973 163.146 118.973 163.146C118.973 163.146 127.756 149.953 129.517 147.026C130.962 144.625 136.538 143.255 136.538 143.255V143.253Z" fill="#AEC3FF"/>
<path d="M140.169 143.04C140.169 143.04 147.756 142.1 151.47 146.7C155.183 151.299 156.705 158.337 159.875 161.71C163.045 165.083 168.28 171.697 168.28 171.697C168.28 171.697 167.88 173.406 164.798 174.402C164.798 174.402 154.671 165.895 152.986 163.447C151.301 161 145.558 153.953 145.558 153.953L141.116 145.172L140.169 143.041V143.04Z" fill="#AEC3FF"/>
<path d="M169.021 175.376C169.021 175.376 171.954 176.146 172.182 176.067C172.683 175.895 170.891 174.854 170.425 174.854C169.96 174.854 169.02 175.376 169.02 175.376H169.021Z" fill="#FFB27D"/>
<path d="M111.239 157.782C111.155 158.05 118.973 163.146 118.973 163.146L122.583 158.904L114.082 155.597C114.082 155.597 111.843 155.867 111.239 157.782Z" fill="#AEC3FF"/>
<path d="M104.262 150.044C104.144 150.145 85.9654 133.724 85.9654 133.724C85.9654 133.724 85.7193 136.519 87.7503 139.525C89.7814 142.532 101.927 152.393 101.927 152.393L104.262 150.044Z" fill="#2A4E96"/>
<path d="M99.0095 155.184C100.974 156.869 101.204 159.838 99.5187 161.803C97.8336 163.768 94.8644 163.997 92.8995 162.312C90.9346 160.627 90.7053 157.658 92.3903 155.693C94.0754 153.728 97.0446 153.499 99.0095 155.184ZM94.088 160.927C95.2892 161.956 97.1037 161.817 98.1332 160.616C99.1628 159.415 99.0236 157.6 97.8224 156.571C96.6212 155.541 94.8068 155.68 93.7772 156.881C92.7476 158.083 92.8869 159.897 94.088 160.927Z" fill="#2A4E96"/>
<path d="M105.589 148.498C108.156 148.161 110.517 149.975 110.855 152.542C111.192 155.109 109.378 157.471 106.811 157.808C104.244 158.146 101.882 156.331 101.545 153.766C101.207 151.199 103.022 148.837 105.589 148.5V148.498ZM105.826 150.309C104.258 150.514 103.15 151.959 103.355 153.527C103.56 155.095 105.005 156.203 106.573 155.998C108.141 155.793 109.25 154.348 109.044 152.78C108.839 151.212 107.395 150.103 105.826 150.309Z" fill="#2A4E96"/>
<path d="M94.9346 155.143C95.0837 155.099 91.2607 130.903 91.2607 130.903C91.2607 130.903 93.7363 132.222 95.1442 135.567C96.5521 138.911 98.1781 154.471 98.1781 154.471L94.936 155.143H94.9346Z" fill="#2A4E96"/>
<path d="M95.9676 144.453C96.0745 144.722 95.9437 145.027 95.6751 145.134C95.4064 145.241 95.1012 145.11 94.9943 144.841C94.8874 144.572 95.0182 144.267 95.2869 144.16C95.5555 144.053 95.8607 144.184 95.9676 144.453Z" fill="#F99746"/>
<path d="M107.463 155.281C107.463 155.281 107.318 156.174 108.16 156.174C109.003 156.174 109.15 154.218 108.897 154.123C108.646 154.029 107.582 154.337 107.463 155.281Z" fill="#FFB27D"/>
<path d="M113.463 155.452C113.463 155.452 112.743 154.656 112.245 154.056C111.747 153.455 111.307 152.784 111.24 153.226C111.174 153.666 111.574 154.547 111.977 154.853C112.379 155.16 113.463 155.454 113.463 155.454V155.452Z" fill="#FFB27D"/>
<path d="M142.935 142.924C143.115 143.519 142.697 144.805 140.273 145.529C138.742 145.988 137.202 145.587 136.725 145.196C135.906 144.526 136.619 144.064 136.503 142.699C136.497 142.635 136.491 142.569 136.484 142.502C136.328 140.976 135.886 139.304 135.858 139.196C135.857 139.193 135.857 139.191 135.857 139.191L141.252 137.648L141.078 137.947C141.41 140.747 142.721 142.22 142.935 142.924Z" fill="#FFB27D"/>
<path d="M141.252 137.648C140.729 139.217 139.302 141.32 136.391 141.774C136.11 140.092 135.886 139.304 135.858 139.196C135.857 139.193 135.857 139.191 135.857 139.191L141.252 137.648Z" fill="#ED975D"/>
<path d="M134.96 140.816C134.96 140.816 142.232 140.332 141.862 135.809C141.49 131.285 142.18 128.175 137.521 128.292C132.863 128.41 132.103 130.209 131.86 131.75C131.616 133.29 133.06 140.824 134.961 140.815L134.96 140.816Z" fill="#FFB27D"/>
<path d="M133.653 128.211C133.653 128.211 135.46 133.512 139.75 134.128C142.88 134.578 144.123 133.731 144.123 133.731C144.123 133.731 142.376 132.072 141.43 129.519C141.151 128.766 140.491 128.218 139.698 128.095C137.47 127.752 134.595 126.277 133.654 128.209L133.653 128.211Z" fill="#233862"/>
<path d="M135.194 129.15C135.194 129.15 133.896 129.675 132.99 131.613C132.495 132.672 132.138 135.195 132.443 136.235C132.443 136.235 130.352 131.398 131.866 129.217C133.471 126.905 135.194 129.15 135.194 129.15Z" fill="#233862"/>
<path d="M148.883 158.085V158.088C147.54 165.783 147.967 168.324 147.706 169.049C147.565 169.439 145.756 169.808 143.411 170.059C139.863 168.141 145.264 166.11 145.893 161.686C146.556 157.011 148.884 158.087 148.884 158.087L148.883 158.085Z" fill="#85A4E8"/>
<path d="M130.506 158.211C128.539 160.287 126.308 162.38 124.478 163.42C124.982 162.489 126.489 161.146 127.599 159.697C128.978 157.897 129.551 155.026 130.128 154.949C130.703 154.873 130.506 158.211 130.506 158.211Z" fill="#85A4E8"/>
<path d="M59.5493 244.886C59.5493 244.886 59.8924 243.907 60.5282 243.613C61.1654 243.319 62.1935 242.022 62.2414 242.486C62.2906 242.952 61.8011 243.613 61.7758 244.248C61.7519 244.886 59.5479 244.886 59.5479 244.886H59.5493Z" fill="#FFB07B"/>
<path d="M59.2788 246.472C59.8625 244.949 59.9329 244.16 59.9329 244.16C59.9329 244.16 48.1925 234.528 46.9758 233.694C46.1474 233.125 37.8952 226.958 33.8725 222.15C31.8767 219.766 28.7302 218.676 25.6879 219.315L23.1814 219.841C20.156 220.475 19.1728 224.305 21.5203 226.318C28.131 231.985 39.2807 238.557 41.3595 239.925C46.5201 243.318 57.9342 248.074 57.9342 248.074C57.9342 248.074 58.8189 247.67 59.2774 246.473L59.2788 246.472Z" fill="#AEC3FF"/>
<defs>
<filter id="filter0_f_1910_55" x="-150.99" y="123.062" width="301.726" height="302.343" filterUnits="userSpaceOnUse" color-interpolation-filters="sRGB">
<feFlood flood-opacity="0" result="BackgroundImageFix"/>
<feBlend mode="normal" in="SourceGraphic" in2="BackgroundImageFix" result="shape"/>
<feGaussianBlur stdDeviation="31.9952" result="effect1_foregroundBlur_1910_55"/>
</filter>
<filter id="filter1_f_1910_55" x="-3.89603" y="0.297333" width="361.805" height="361.805" filterUnits="userSpaceOnUse" color-interpolation-filters="sRGB">
<feFlood flood-opacity="0" result="BackgroundImageFix"/>
<feBlend mode="normal" in="SourceGraphic" in2="BackgroundImageFix" result="shape"/>
<feGaussianBlur stdDeviation="38.8513" result="effect1_foregroundBlur_1910_55"/>
</filter>
<filter id="filter2_f_1910_55" x="62.3877" y="169.472" width="383.886" height="383.885" filterUnits="userSpaceOnUse" color-interpolation-filters="sRGB">
<feFlood flood-opacity="0" result="BackgroundImageFix"/>
<feBlend mode="normal" in="SourceGraphic" in2="BackgroundImageFix" result="shape"/>
<feGaussianBlur stdDeviation="41.1367" result="effect1_foregroundBlur_1910_55"/>
</filter>
<linearGradient id="paint0_linear_1910_55" x1="154.518" y1="159.516" x2="154.518" y2="310.385" gradientUnits="userSpaceOnUse">
<stop stop-color="#4A7CBB"/>
<stop offset="1" stop-color="#2AB392"/>
</linearGradient>
</defs>
</svg>
