<svg width="40" height="40" viewBox="0 0 40 40" fill="none" xmlns="http://www.w3.org/2000/svg">
<circle cx="20" cy="20" r="20" transform="rotate(-180 20 20)" fill="white"/>
<path d="M18.1441 26.7025C17.7598 27.0992 17.1366 27.0992 16.7522 26.7025C16.3679 26.3059 16.3679 25.6629 16.7522 25.2663L22.3198 19.5212C22.7042 19.1246 23.3274 19.1246 23.7117 19.5212C24.0961 19.9179 24.0961 20.5609 23.7117 20.9575L18.1441 26.7025Z" fill="#AABCD2"/>
<path d="M16.2883 14.7337C15.9039 14.3371 15.9039 13.6941 16.2883 13.2975C16.6726 12.9008 17.2958 12.9008 17.6802 13.2975L23.2478 19.0425C23.6321 19.4391 23.6321 20.0821 23.2478 20.4788C22.8634 20.8754 22.2402 20.8754 21.8559 20.4788L16.2883 14.7337Z" fill="#AABCD2"/>
</svg>
