<svg width="40" height="40" viewBox="0 0 40 40" fill="none" xmlns="http://www.w3.org/2000/svg">
<circle cx="20" cy="20" r="20" fill="white"/>
<path d="M21.8559 13.2975C22.2402 12.9008 22.8634 12.9008 23.2478 13.2975C23.6321 13.6941 23.6321 14.3371 23.2478 14.7337L17.6802 20.4788C17.2958 20.8754 16.6726 20.8754 16.2883 20.4788C15.9039 20.0821 15.9039 19.4391 16.2883 19.0425L21.8559 13.2975Z" fill="#AABCD2"/>
<path d="M23.7117 25.2663C24.0961 25.6629 24.0961 26.3059 23.7117 26.7025C23.3274 27.0992 22.7042 27.0992 22.3198 26.7025L16.7522 20.9575C16.3679 20.5609 16.3679 19.9179 16.7522 19.5212C17.1366 19.1246 17.7598 19.1246 18.1441 19.5212L23.7117 25.2663Z" fill="#AABCD2"/>
</svg>
